<svg width="180" height="180" viewBox="0 0 180 180" fill="none" xmlns="http://www.w3.org/2000/svg">
<path d="M166.748 65.3026H112.719V113.6H166.748V65.3026Z" fill="white"/>
<path fill-rule="evenodd" clip-rule="evenodd" d="M167.136 65.3025C167.136 65.0937 166.971 64.9281 166.762 64.9281H112.726C112.517 64.9281 112.352 65.0937 112.352 65.3025V113.607C112.352 113.816 112.517 113.982 112.726 113.982H166.762C166.964 113.982 167.136 113.816 167.136 113.607V65.3025ZM166.388 65.6769V113.226C161.859 113.226 117.644 113.226 113.108 113.226C113.108 113.226 113.108 70.1553 113.108 65.6769H166.388Z" fill="#171718"/>
<path d="M166.748 109.726H112.719V113.605H166.748V109.726Z" fill="white"/>
<path fill-rule="evenodd" clip-rule="evenodd" d="M167.136 109.726C167.136 109.519 166.971 109.351 166.762 109.351H112.726C112.517 109.351 112.352 109.519 112.352 109.726V113.606C112.352 113.813 112.517 113.981 112.726 113.981H166.762C166.964 113.981 167.136 113.813 167.136 113.606V109.726ZM166.388 110.101V113.231C161.859 113.231 117.644 113.231 113.108 113.231V110.101H166.388Z" fill="#171718"/>
<path fill-rule="evenodd" clip-rule="evenodd" d="M157.949 53.1056C157.949 53.1056 162.118 53.912 164.019 54.4952C165.912 55.0784 167.151 54.2504 166.51 52.94C165.869 51.6296 162.183 50.78 162.183 50.78L157.949 53.1056Z" fill="white"/>
<path fill-rule="evenodd" clip-rule="evenodd" d="M157.771 52.7818C157.634 52.861 157.555 53.0122 157.584 53.1706C157.606 53.329 157.728 53.4514 157.886 53.4802C157.886 53.4802 162.026 54.2794 163.913 54.8554C165.245 55.2658 166.282 55.0138 166.742 54.4666C167.095 54.0562 167.189 53.4658 166.85 52.7746C166.627 52.321 166.109 51.9034 165.475 51.565C164.129 50.845 162.271 50.413 162.271 50.413C162.178 50.3914 162.084 50.4058 162.005 50.449L157.771 52.7818ZM159.031 52.9402L162.235 51.1762C162.595 51.2698 163.618 51.5362 164.561 51.9538C165.266 52.2634 165.95 52.6378 166.174 53.1058C166.303 53.3866 166.339 53.6314 166.267 53.8258C166.174 54.049 165.943 54.193 165.634 54.265C165.23 54.3586 164.712 54.3226 164.129 54.1354C162.804 53.7322 160.399 53.221 159.031 52.9402Z" fill="#171718"/>
<path fill-rule="evenodd" clip-rule="evenodd" d="M156.535 29.7921C156.535 29.7921 154.066 27.6537 154.642 25.3857C155.218 23.1177 158.119 22.8945 159.055 23.5209C159.991 24.1401 159.646 24.6225 159.617 24.9033C159.588 25.1841 161.791 25.1049 161.532 26.4513C161.273 27.7905 159.48 30.4689 159.48 30.4689L156.535 29.7921Z" fill="white"/>
<path fill-rule="evenodd" clip-rule="evenodd" d="M160.06 24.7018C160.06 24.6874 160.067 24.673 160.067 24.6586C160.103 24.4858 160.11 24.2842 160.038 24.0682C159.952 23.8162 159.757 23.5138 159.275 23.197C158.843 22.909 158.058 22.765 157.223 22.873C155.992 23.0386 154.681 23.7514 154.285 25.285C154.033 26.2858 154.3 27.2722 154.732 28.0858C155.351 29.2522 156.294 30.0658 156.294 30.0658C156.337 30.109 156.395 30.1306 156.46 30.145L159.412 30.8218C159.563 30.8578 159.721 30.793 159.808 30.6634C159.808 30.6634 161.644 27.8914 161.91 26.509C162.112 25.4722 161.24 25.0258 160.463 24.8098L160.06 24.7018ZM156.726 29.4466C156.517 29.2522 155.862 28.6042 155.401 27.7402C155.048 27.085 154.811 26.293 155.02 25.4794C155.322 24.2842 156.373 23.7586 157.324 23.629C157.95 23.5426 158.54 23.6218 158.857 23.8306C159.131 24.0106 159.268 24.1618 159.318 24.313C159.361 24.4426 159.325 24.5506 159.296 24.637C159.275 24.7234 159.253 24.7954 159.246 24.8602C159.232 24.9826 159.268 25.0978 159.361 25.1986C159.404 25.249 159.469 25.2994 159.563 25.3354C159.656 25.3786 159.808 25.4218 159.98 25.465C160.261 25.537 160.628 25.6162 160.902 25.7962C161.089 25.9186 161.226 26.0914 161.168 26.3722C160.967 27.445 159.743 29.389 159.325 30.037L156.726 29.4466Z" fill="#171718"/>
<path fill-rule="evenodd" clip-rule="evenodd" d="M148.507 41.6218C148.507 41.6218 149.141 36.0346 150.725 33.3058C152.309 30.5842 155.621 29.4826 158.407 30.2098C161.187 30.937 163.347 31.7505 164.139 35.0913C164.923 38.4249 164.844 40.4338 164.844 40.4338C164.844 40.4338 168.343 44.7466 165.399 48.5698L156.269 51.2481L146.599 47.2233C146.592 47.2233 145.707 43.573 148.507 41.6218Z" fill="white"/>
<path fill-rule="evenodd" clip-rule="evenodd" d="M148.154 41.4129C145.317 43.5225 146.224 47.3097 146.224 47.3097C146.253 47.4249 146.332 47.5257 146.447 47.5689L156.117 51.5937C156.196 51.6297 156.282 51.6297 156.369 51.6081L165.491 48.9297C165.57 48.9081 165.635 48.8649 165.686 48.8001C168.515 45.1353 165.75 41.0385 165.218 40.3113C165.225 39.8001 165.182 37.8921 164.498 35.0049C163.67 31.4985 161.423 30.6129 158.507 29.8497C155.57 29.0793 152.078 30.2457 150.407 33.1185C148.953 35.6169 148.276 40.4625 148.154 41.4129ZM148.722 41.9313C148.809 41.8665 148.866 41.7729 148.881 41.6649C148.881 41.6649 149.493 36.1713 151.055 33.5001C152.553 30.9225 155.685 29.8929 158.313 30.5769C160.948 31.2681 163.022 32.0169 163.77 35.1777C164.548 38.4465 164.462 40.4121 164.462 40.4121C164.462 40.5057 164.49 40.5921 164.548 40.6641C164.548 40.6641 167.817 44.6601 165.167 48.2385L156.29 50.8449L146.922 46.9497C146.793 46.2297 146.483 43.4937 148.722 41.9313Z" fill="#171718"/>
<path fill-rule="evenodd" clip-rule="evenodd" d="M40.4074 53.9017C40.4074 53.9017 36.2235 54.626 34.3116 55.1718C32.4069 55.7176 31.1851 54.8654 31.8515 53.5679C32.5179 52.2703 36.2203 51.4933 36.2203 51.4933L40.4074 53.9017Z" fill="white"/>
<path fill-rule="evenodd" clip-rule="evenodd" d="M40.4813 54.2705C40.6402 54.2448 40.7577 54.1247 40.7896 53.9668C40.8143 53.8089 40.7454 53.6563 40.6101 53.5745L36.4231 51.1661C36.3447 51.1214 36.2514 51.1051 36.1574 51.1249C36.1574 51.1249 34.2917 51.5203 32.9314 52.2137C32.2911 52.5468 31.7646 52.9541 31.5327 53.396C31.1808 54.0805 31.2628 54.6726 31.6074 55.0898C32.0575 55.6388 33.089 55.9183 34.4288 55.5342C36.3191 54.988 40.4813 54.2705 40.4813 54.2705ZM39.3327 53.715C37.9667 53.969 35.5451 54.4327 34.2126 54.8098C33.6188 54.9781 33.107 55.0041 32.7055 54.9098C32.3974 54.8317 32.1699 54.6832 32.0807 54.4582C32.0055 54.2551 32.0463 54.0111 32.1884 53.7402C32.428 53.2768 33.1119 52.923 33.8234 52.6273C34.7745 52.2355 35.8021 51.9821 36.1639 51.8955L39.3327 53.715Z" fill="#171718"/>
<path fill-rule="evenodd" clip-rule="evenodd" d="M37.4932 31.6189L34.0156 49.1797L43.6564 53.1686L53.794 50.9869L56.4508 48.4669L51.814 31.3669L37.4932 31.6189Z" fill="white"/>
<path fill-rule="evenodd" clip-rule="evenodd" d="M37.4781 31.2444C37.3053 31.2516 37.1541 31.374 37.1181 31.5468L33.6405 49.1076C33.6045 49.2804 33.6981 49.4604 33.8637 49.5252L43.5117 53.514C43.5837 53.5428 43.6629 53.55 43.7349 53.5356L53.8725 51.354C53.9373 51.3396 54.0021 51.3036 54.0525 51.2604L56.7093 48.7404C56.8101 48.6468 56.8461 48.5028 56.8101 48.3732L52.1733 31.2732C52.1301 31.1076 51.9789 30.9924 51.8061 30.9924L37.4781 31.2444ZM37.7949 31.986C39.6669 31.95 49.6821 31.7772 51.5253 31.7412C51.5253 31.7412 55.4925 46.386 56.0253 48.3444L53.6061 50.6412L43.6845 52.7724L34.4325 48.9492C34.8861 46.6524 37.7949 31.986 37.7949 31.986Z" fill="#171718"/>
<path fill-rule="evenodd" clip-rule="evenodd" d="M102.67 76.7432L100.805 79.8536L84 71.3072L85.8792 67.52L103.966 73.6544L102.67 76.7432Z" fill="white"/>
<path fill-rule="evenodd" clip-rule="evenodd" d="M102.981 76.9378C102.988 76.9234 102.995 76.909 103.003 76.8874L104.299 73.7986C104.342 73.705 104.335 73.597 104.291 73.4962C104.248 73.3954 104.169 73.3306 104.068 73.2946L85.9818 67.1602C85.8018 67.1026 85.6073 67.1818 85.5281 67.3474L83.649 71.1346C83.5554 71.3218 83.6346 71.545 83.8146 71.6386L100.619 80.185C100.792 80.2714 101.008 80.2138 101.109 80.041L102.981 76.9378ZM102.319 76.5706L100.648 79.357L84.4841 71.1418L86.0538 67.981L103.449 73.8778L102.319 76.5706Z" fill="#171718"/>
<path fill-rule="evenodd" clip-rule="evenodd" d="M142.41 141.299H35.3343L31.5781 159.119H147.534L142.41 141.299Z" fill="white"/>
<path fill-rule="evenodd" clip-rule="evenodd" d="M142.785 141.198C142.741 141.039 142.589 140.924 142.423 140.924H35.3472C35.1663 140.924 35.0143 141.047 34.9781 141.219L31.222 159.039C31.2003 159.147 31.2292 159.262 31.2943 159.356C31.3667 159.442 31.4753 159.493 31.5838 159.493H147.54C147.656 159.493 147.771 159.435 147.837 159.342C147.909 159.248 147.931 159.126 147.894 159.01L142.785 141.198ZM142.141 141.673L147.048 158.744H32.047L35.6439 141.673C41.7088 141.673 136.3 141.673 142.141 141.673Z" fill="#171718"/>
<path fill-rule="evenodd" clip-rule="evenodd" d="M54.5735 144.719C54.5735 144.719 52.9967 145.935 52.5503 147.663C52.1111 149.391 53.3423 150.947 55.4015 150.205C57.4607 149.463 61.5863 145.431 62.2127 144.834C62.8391 144.236 63.4583 143.415 63.7607 142.659L66.2015 142.357L66.8567 143.156C66.8567 143.156 63.4655 143.905 62.2847 145.23C61.1039 146.555 62.9399 147.375 65.8487 147.03C68.7503 146.684 73.2936 145.856 75.3312 142.35C77.3688 138.843 76.3607 135.287 74.5463 133.127C72.7391 130.967 67.1087 128.36 60.0095 128.663C52.9103 128.965 44.8463 129.231 40.5479 134.437C37.2863 138.39 39.2159 140.78 40.3607 141.68L54.5735 144.719Z" fill="white"/>
<path fill-rule="evenodd" clip-rule="evenodd" d="M61.5604 145.993C61.5604 146.043 61.5604 146.101 61.5676 146.151C61.6036 146.403 61.7331 146.634 61.9491 146.828C62.2083 147.059 62.6116 147.246 63.1444 147.361C63.8572 147.512 64.8075 147.548 65.9019 147.419C68.8971 147.066 73.5628 146.173 75.6652 142.551C77.7964 138.879 76.738 135.157 74.8444 132.903C72.994 130.7 67.2555 128 60.0051 128.303C56.4339 128.454 52.6179 128.598 49.1619 129.361C45.6339 130.139 42.4803 131.55 40.2771 134.214C38.5419 136.309 38.218 138.008 38.4484 139.29C38.686 140.607 39.5212 141.507 40.1476 141.997C40.1908 142.033 40.2484 142.055 40.2988 142.069L53.7988 144.949C53.266 145.496 52.4956 146.432 52.2076 147.584C51.9484 148.592 52.2003 149.543 52.7979 150.14C53.3955 150.738 54.3532 151.004 55.5556 150.572C57.1612 149.982 60.034 147.411 61.5604 145.993ZM54.8139 145.014C54.9291 144.927 54.9868 144.776 54.9508 144.632C54.922 144.488 54.8068 144.38 54.6628 144.351L40.5364 141.342C40.0252 140.924 39.37 140.197 39.1756 139.146C38.9668 138.015 39.3124 136.539 40.8388 134.682C42.934 132.147 45.9507 130.823 49.3059 130.081C52.7259 129.332 56.4916 129.188 60.0196 129.044C66.9676 128.749 72.4827 131.262 74.2539 133.379C75.9819 135.438 76.9395 138.829 74.9955 142.17C73.0227 145.561 68.6091 146.331 65.7939 146.663C64.4331 146.821 63.3172 146.727 62.6908 146.425C62.482 146.324 62.3308 146.209 62.2948 146.051C62.2588 145.885 62.3668 145.698 62.5612 145.482C63.0004 144.985 63.778 144.589 64.5484 144.279C65.7508 143.79 66.9388 143.523 66.9388 143.523C67.0684 143.495 67.1692 143.401 67.2124 143.279C67.2556 143.156 67.2339 143.019 67.1475 142.919L66.4924 142.119C66.4132 142.019 66.2835 141.968 66.1539 141.983L63.7204 142.285C63.5836 142.299 63.4683 142.393 63.4179 142.523C63.1371 143.228 62.554 143.999 61.9636 144.56C61.3444 145.151 57.3051 149.118 55.2819 149.852C54.4251 150.162 53.7339 150.018 53.3091 149.593C52.8843 149.161 52.7332 148.477 52.9204 147.75C53.338 146.144 54.8139 145.014 54.8139 145.014ZM63.4899 143.941C63.7419 143.811 64.0084 143.696 64.2748 143.588C65.002 143.293 65.722 143.077 66.2044 142.947L66.0532 142.76L64.0372 143.012C63.8932 143.322 63.7059 143.639 63.4899 143.941Z" fill="#171718"/>
<path fill-rule="evenodd" clip-rule="evenodd" d="M85.6562 124.516C85.6562 124.516 86.3042 140.535 86.5634 146.843C86.621 148.275 87.737 149.435 89.1626 149.543C95.5706 150.039 112.095 151.328 112.095 151.328C112.095 151.328 114.183 151.552 114.471 150.58C114.759 149.608 113.11 149.284 113.11 149.284C113.11 149.284 115.277 149.312 115.666 148.571C116.112 147.728 115.234 147.023 114.463 147.131C114.463 147.131 115.983 146.396 115.954 145.532C115.925 144.668 114.723 144.474 114.175 144.517C114.175 144.517 115.579 144.028 115.723 143.308C115.983 142.04 114.075 141.169 111.778 141.306H100.488L100.567 124.516H85.6562Z" fill="white"/>
<path fill-rule="evenodd" clip-rule="evenodd" d="M114.522 149.535C114.709 149.499 114.896 149.456 115.069 149.406C115.508 149.269 115.854 149.039 116.012 148.743C116.416 147.987 116.048 147.296 115.451 146.958C115.537 146.893 115.631 146.814 115.71 146.742C116.084 146.396 116.358 145.964 116.344 145.518C116.329 145.028 116.056 144.69 115.681 144.467C115.588 144.409 115.487 144.366 115.386 144.33C115.746 144.078 116.034 143.747 116.106 143.394C116.243 142.746 115.955 142.163 115.343 141.723C114.58 141.176 113.255 140.859 111.786 140.939H100.885L100.964 124.53C100.964 124.429 100.928 124.335 100.856 124.263C100.784 124.191 100.691 124.155 100.59 124.155H85.6644C85.5636 124.155 85.4627 124.199 85.3907 124.271C85.3187 124.343 85.2828 124.443 85.29 124.544C85.29 124.544 85.9379 140.564 86.1971 146.871C86.2619 148.491 87.5291 149.802 89.1491 149.931L112.074 151.717C112.153 151.724 112.924 151.796 113.6 151.645C114.184 151.515 114.688 151.213 114.839 150.702C114.983 150.198 114.817 149.823 114.522 149.535ZM86.0604 124.89H100.216C100.201 127.374 100.136 141.299 100.136 141.299C100.136 141.399 100.172 141.493 100.244 141.565C100.316 141.637 100.41 141.673 100.511 141.673H111.8C111.808 141.673 111.815 141.673 111.822 141.673C113.096 141.601 114.248 141.839 114.911 142.314C115.249 142.559 115.451 142.861 115.372 143.221C115.328 143.423 115.127 143.581 114.918 143.725C114.522 143.991 114.061 144.157 114.061 144.157C113.881 144.222 113.78 144.402 113.816 144.589C113.852 144.776 114.025 144.899 114.212 144.884C114.443 144.863 114.81 144.899 115.127 145.021C115.364 145.115 115.58 145.259 115.588 145.532C115.595 145.777 115.4 145.993 115.199 146.18C114.81 146.54 114.313 146.778 114.313 146.778C114.148 146.857 114.061 147.044 114.119 147.224C114.169 147.404 114.349 147.512 114.529 147.491C115.026 147.426 115.645 147.836 115.35 148.383C115.307 148.47 115.206 148.527 115.098 148.585C114.932 148.664 114.738 148.722 114.529 148.765C113.86 148.909 113.125 148.902 113.125 148.902C112.931 148.902 112.765 149.046 112.744 149.24C112.722 149.435 112.852 149.607 113.046 149.643C113.046 149.643 113.55 149.737 113.903 149.996C114.054 150.104 114.184 150.248 114.119 150.464C114.09 150.572 114.011 150.644 113.917 150.709C113.78 150.795 113.615 150.853 113.435 150.889C112.83 151.019 112.139 150.947 112.139 150.947C112.132 150.947 112.132 150.947 112.124 150.947C112.124 150.947 95.6076 149.658 89.1924 149.161C87.954 149.067 86.982 148.059 86.9316 146.821L86.0604 124.89Z" fill="#171718"/>
<path fill-rule="evenodd" clip-rule="evenodd" d="M49.5995 72.632L34.5875 62.732C34.5875 62.732 14.8954 60.9896 11.2162 60.6656C10.6546 60.6152 10.0859 60.7592 9.61787 61.0688C8.93387 61.5224 8.50185 62.2856 10.6835 63.236C10.6835 63.236 7.04745 64.8128 10.8635 65.8928C10.8635 65.8928 7.01867 66.908 10.6619 68.3624C10.6619 68.3624 7.32825 69.464 10.8635 70.8536C14.3987 72.2432 27.6827 73.3808 27.6827 73.3808L42.8459 83.2808L49.4122 77.924L49.5995 72.632Z" fill="white"/>
<path fill-rule="evenodd" clip-rule="evenodd" d="M49.9628 72.6392C49.97 72.5096 49.9051 72.3872 49.7971 72.3152L34.7852 62.4152C34.7348 62.3792 34.67 62.3577 34.6124 62.3577C34.6124 62.3577 14.9204 60.6152 11.2412 60.2912C10.5932 60.2336 9.94518 60.3992 9.39798 60.7592C8.91558 61.076 8.58436 61.5368 8.69236 62.048C8.73556 62.2496 8.85076 62.4728 9.08116 62.7032C9.25396 62.876 9.50597 63.0633 9.85157 63.2577C9.57797 63.4233 9.28278 63.6464 9.07398 63.8912C8.79318 64.2152 8.66357 64.5825 8.77157 64.9569C8.82917 65.1585 8.96598 65.3744 9.21798 65.576C9.35478 65.684 9.54196 65.7992 9.77236 65.9072C9.55636 66.008 9.34758 66.1304 9.17478 66.2744C8.84358 66.548 8.65638 66.8865 8.71398 67.2537C8.74278 67.4553 8.85076 67.6785 9.08116 67.9017C9.23236 68.0529 9.45558 68.2113 9.75798 68.3769C9.54918 68.4993 9.33318 68.6504 9.17478 68.8232C8.90838 69.1112 8.77878 69.4568 8.88678 69.824C8.94438 70.0112 9.06676 70.2201 9.29716 70.4289C9.57076 70.6737 10.0172 70.9473 10.7156 71.2209C14.0996 72.5529 26.3468 73.6616 27.542 73.7624L42.626 83.612C42.7628 83.6984 42.9427 83.6912 43.0652 83.5904L49.6316 78.2337C49.718 78.1689 49.7684 78.068 49.7684 77.96L49.9628 72.6392ZM49.2068 72.8264L49.0268 77.744L42.806 82.82C40.9052 81.5816 27.8732 73.0712 27.8732 73.0712C27.8228 73.0352 27.758 73.0209 27.7004 73.0137C27.7004 73.0137 14.5028 71.8904 10.9892 70.508C10.4996 70.3136 10.154 70.1337 9.91636 69.9537C9.74356 69.8241 9.64278 69.7161 9.60678 69.6009C9.58518 69.5217 9.61396 69.4568 9.65716 69.392C9.71476 69.3128 9.78678 69.248 9.86598 69.1832C10.2404 68.8952 10.7588 68.7224 10.7588 68.7224C10.91 68.672 11.0108 68.5353 11.018 68.3769C11.0252 68.2185 10.9316 68.0745 10.7804 68.0169C10.2764 67.8153 9.93076 67.628 9.70036 67.448C9.54916 67.3328 9.46276 67.232 9.44836 67.1312C9.44116 67.0736 9.46996 67.0232 9.51316 66.98C9.59236 66.8792 9.71476 66.7928 9.84436 66.7064C10.3196 66.4184 10.9388 66.2529 10.9388 66.2529C11.1044 66.2097 11.2196 66.0657 11.2196 65.8929C11.2196 65.7273 11.1116 65.5761 10.946 65.5257C10.4204 65.3745 10.046 65.2233 9.80116 65.0577C9.62836 64.9425 9.52037 64.8489 9.49157 64.7337C9.46997 64.6617 9.49877 64.5969 9.52757 64.5249C9.59237 64.4025 9.70037 64.2945 9.81557 64.1937C10.2332 63.8265 10.8236 63.5744 10.8236 63.5744C10.9604 63.5168 11.0468 63.3801 11.0468 63.2289C11.0468 63.0777 10.9604 62.948 10.8236 62.8832C10.4132 62.7032 10.1036 62.5376 9.87316 62.372C9.71476 62.2568 9.59956 62.156 9.52036 62.048C9.44836 61.9544 9.41958 61.8752 9.42678 61.8032C9.45558 61.6232 9.63557 61.4936 9.81557 61.3712C10.2188 61.1048 10.694 60.9825 11.1764 61.0257C14.7044 61.3353 32.978 62.9553 34.454 63.0849L49.2068 72.8264Z" fill="#171718"/>
<path fill-rule="evenodd" clip-rule="evenodd" d="M116.409 45.841C116.409 45.841 136.987 45.4522 143.006 45.661C143.006 45.661 147.988 44.6098 152.546 48.3826C152.546 48.3826 156.585 49.7722 158.385 49.6282C160.178 49.4842 163.043 47.5834 165.124 48.1234C167.205 48.6634 166.499 49.9738 163.922 51.205C161.344 52.429 159.847 53.293 157.744 53.4298C155.642 53.5666 116.704 54.3154 116.704 54.3154L115.523 48.9082L116.409 45.841Z" fill="white"/>
<path fill-rule="evenodd" clip-rule="evenodd" d="M116.403 45.4665C116.237 45.4665 116.094 45.5817 116.05 45.7401L115.179 48.8001C115.165 48.8577 115.158 48.9225 115.172 48.9801L116.353 54.3873C116.389 54.5601 116.547 54.6825 116.727 54.6825C116.727 54.6825 155.679 53.9409 157.781 53.7969C159.927 53.6529 161.468 52.7889 164.096 51.5361C165.082 51.0681 165.802 50.5857 166.22 50.1393C166.566 49.7721 166.724 49.4049 166.731 49.0881C166.731 48.5625 166.299 48.0441 165.233 47.7633C164.132 47.4753 162.807 47.8137 161.54 48.2673C160.374 48.6849 159.243 49.1889 158.372 49.2537C156.752 49.3833 153.26 48.2241 152.749 48.0513C148.313 44.4225 143.518 45.1929 142.993 45.2865C136.901 45.0777 116.403 45.4665 116.403 45.4665ZM116.698 46.2081C119.168 46.1649 137.391 45.8409 143 46.0353C143.029 46.0353 143.065 46.0353 143.094 46.0281C143.094 46.0281 147.903 45.0201 152.317 48.6705C152.353 48.6993 152.389 48.7209 152.432 48.7353C152.432 48.7353 156.579 50.1465 158.422 50.0025C159.344 49.9305 160.546 49.4121 161.778 48.9729C162.908 48.5769 164.067 48.2313 165.039 48.4905C165.529 48.6201 165.838 48.7641 165.953 48.9801C166.025 49.1241 165.954 49.2825 165.824 49.4625C165.493 49.9089 164.787 50.3913 163.786 50.8737C161.266 52.0761 159.798 52.9257 157.738 53.0625C155.744 53.1921 120.687 53.8689 117.03 53.9409L115.935 48.9297L116.698 46.2081Z" fill="#171718"/>
<path fill-rule="evenodd" clip-rule="evenodd" d="M82.085 47.4549C82.085 47.4549 61.519 46.6618 55.4968 46.7522C55.4968 46.7522 50.536 45.6033 45.9052 49.2858C45.9052 49.2858 41.8323 50.5956 40.0426 50.4164C38.2458 50.2371 35.4253 48.2805 33.3343 48.7795C31.2431 49.2857 31.923 50.6025 34.4759 51.8841C37.0218 53.1584 38.5093 54.0518 40.6086 54.2299C42.7079 54.408 81.6234 55.9146 81.6234 55.9146L82.9102 50.5317L82.085 47.4549Z" fill="white"/>
<path fill-rule="evenodd" clip-rule="evenodd" d="M82.4552 47.3538C82.4151 47.1946 82.2732 47.0838 82.1078 47.0733C82.1078 47.0733 61.621 46.2818 55.5413 46.3711C55.0178 46.26 50.2313 45.4026 45.7329 48.9437C45.2112 49.1062 41.7042 50.1967 40.0871 50.0353C39.2175 49.9462 38.0972 49.4201 36.9391 48.9869C35.6738 48.5083 34.3632 48.1441 33.2561 48.4104C32.1852 48.6702 31.7431 49.18 31.7328 49.7055C31.7337 50.0224 31.8849 50.3926 32.2232 50.7665C32.6319 51.221 33.3423 51.7175 34.3193 52.2048C36.9222 53.509 38.4457 54.4031 40.5881 54.5893C42.6874 54.7674 81.6172 56.2814 81.6172 56.2814C81.797 56.2922 81.9579 56.1657 81.9973 55.9937L83.2841 50.6107C83.2996 50.5534 83.2937 50.4885 83.2805 50.4306L82.4552 47.3538ZM81.8051 47.8163L82.5222 50.5381L81.3295 55.5269C77.6741 55.383 42.63 54.0245 40.6458 53.8486C38.5897 53.6714 37.1379 52.7931 34.642 51.5414C33.6509 51.0394 32.9476 50.5503 32.6326 50.0904C32.5065 49.9079 32.4377 49.7482 32.5125 49.6056C32.6319 49.3919 32.9443 49.254 33.4363 49.1341C34.4131 48.9012 35.5654 49.2623 36.6878 49.6805C37.9101 50.1438 39.1021 50.6857 40.0221 50.7758C41.8621 50.956 46.0363 49.6266 46.0363 49.6266C46.0797 49.613 46.1162 49.5921 46.1527 49.564C50.6372 46.0011 55.4261 47.1034 55.4261 47.1034C55.4547 47.1112 55.4835 47.1117 55.5195 47.1124C61.1163 47.0424 79.3369 47.7246 81.8051 47.8163Z" fill="#171718"/>
<path fill-rule="evenodd" clip-rule="evenodd" d="M139.363 65.3025V109.727C139.363 109.935 139.529 110.101 139.738 110.101C139.946 110.101 140.112 109.935 140.112 109.727V65.3025C140.112 65.0937 139.946 64.9281 139.738 64.9281C139.536 64.9281 139.363 65.1009 139.363 65.3025Z" fill="#171718"/>
<path fill-rule="evenodd" clip-rule="evenodd" d="M121.105 73.5798H114.735C114.2 73.5798 113.689 73.7937 113.309 74.1701C112.933 74.5464 112.719 75.0614 112.719 75.5962C112.719 76.131 112.933 76.642 113.309 77.0223C113.685 77.3986 114.2 77.6126 114.735 77.6126C119.231 77.6126 125.843 77.6126 130.335 77.6126C130.87 77.6126 131.381 77.3986 131.761 77.0223C132.138 76.646 132.352 76.131 132.352 75.5962C132.352 75.0614 132.138 74.5504 131.761 74.1701C131.385 73.7937 130.87 73.5798 130.335 73.5798H128.16C128.192 73.5521 128.224 73.5244 128.252 73.4927C128.628 73.1163 128.842 72.6013 128.842 72.0665C128.842 71.5318 128.628 71.0207 128.252 70.6404C127.875 70.2641 127.36 70.0502 126.825 70.0502C125.498 70.0502 123.763 70.0502 122.432 70.0502C121.897 70.0502 121.386 70.2641 121.006 70.6404C120.63 71.0168 120.416 71.5318 120.416 72.0665C120.416 72.6013 120.63 73.1124 121.006 73.4927C121.042 73.5244 121.073 73.5521 121.105 73.5798Z" fill="white"/>
<path fill-rule="evenodd" clip-rule="evenodd" d="M120.346 73.2037H114.748C114.114 73.2037 113.508 73.4572 113.057 73.9049C112.609 74.3525 112.355 74.9626 112.355 75.5964C112.355 76.2303 112.609 76.8364 113.057 77.288C113.504 77.7356 114.114 77.9891 114.748 77.9891C119.244 77.9891 125.856 77.9891 130.348 77.9891C130.982 77.9891 131.588 77.7356 132.04 77.288C132.488 76.8403 132.741 76.2303 132.741 75.5964C132.741 74.9626 132.488 74.3565 132.04 73.9049C131.592 73.4572 130.982 73.2037 130.348 73.2037H128.942C129.128 72.8591 129.231 72.4669 129.231 72.0668C129.231 71.433 128.978 70.8268 128.53 70.3752C128.082 69.9276 127.472 69.6741 126.838 69.6741H122.445C121.811 69.6741 121.205 69.9276 120.754 70.3752C120.306 70.8229 120.053 71.433 120.053 72.0668C120.06 72.4708 120.16 72.8591 120.346 73.2037ZM121.118 73.9564C121.273 73.9564 121.415 73.8613 121.471 73.7147C121.526 73.5682 121.487 73.4057 121.368 73.3027C121.34 73.279 121.316 73.2552 121.292 73.2314C120.983 72.9224 120.813 72.5065 120.813 72.0707C120.813 71.635 120.987 71.219 121.292 70.91C121.601 70.601 122.017 70.4307 122.453 70.4307H126.846C127.282 70.4307 127.698 70.605 128.007 70.91C128.316 71.219 128.486 71.635 128.486 72.0707C128.486 72.5065 128.312 72.9224 128.007 73.2314C127.983 73.2552 127.956 73.279 127.932 73.3027C127.813 73.4057 127.773 73.5721 127.829 73.7147C127.884 73.8613 128.023 73.9564 128.181 73.9564H130.356C130.792 73.9564 131.208 74.1307 131.517 74.4357C131.826 74.7447 131.996 75.1607 131.996 75.5964C131.996 76.0322 131.822 76.4481 131.517 76.7571C131.208 77.0661 130.792 77.2365 130.356 77.2365H114.756C114.32 77.2365 113.904 77.0622 113.595 76.7571C113.286 76.4481 113.116 76.0322 113.116 75.5964C113.116 75.1607 113.29 74.7447 113.595 74.4357C113.904 74.1267 114.32 73.9564 114.756 73.9564H121.118Z" fill="#171718"/>
<path fill-rule="evenodd" clip-rule="evenodd" d="M166.758 74.8937V71.4628H162.575C162.602 71.4391 162.629 71.4155 162.652 71.3885C162.973 71.068 163.155 70.6295 163.155 70.174C163.155 69.7186 162.973 69.2834 162.652 68.9596C162.332 68.6391 161.893 68.4569 161.438 68.4569H157.697C157.241 68.4569 156.806 68.6391 156.482 68.9596C156.162 69.2801 155.98 69.7186 155.98 70.174C155.98 70.6295 156.162 71.0647 156.482 71.3885C156.509 71.4155 156.533 71.4391 156.56 71.4628H151.135C150.68 71.4628 150.244 71.6449 149.921 71.9654C149.6 72.2859 149.418 72.7245 149.418 73.1799C149.418 73.6353 149.6 74.0705 149.921 74.3944C150.241 74.7149 150.68 74.897 151.135 74.897H166.758V74.8937Z" fill="white"/>
<path fill-rule="evenodd" clip-rule="evenodd" d="M155.826 71.0849H151.15C150.597 71.0849 150.064 71.3041 149.673 71.6989C149.281 72.0902 149.059 72.6232 149.059 73.1765C149.059 73.7297 149.278 74.2628 149.673 74.6541C150.064 75.0454 150.597 75.2681 151.15 75.2681H166.763C166.969 75.2681 167.138 75.0994 167.138 74.8936V71.4627C167.138 71.2569 166.969 71.0882 166.763 71.0882H163.329C163.467 70.8082 163.538 70.4945 163.538 70.174C163.538 69.6207 163.319 69.0877 162.924 68.6964C162.533 68.3051 162 68.0824 161.446 68.0824H157.705C157.152 68.0824 156.619 68.3017 156.227 68.6964C155.836 69.0877 155.613 69.6207 155.613 70.174C155.617 70.4911 155.688 70.8049 155.826 71.0849ZM166.389 74.5191H151.15C150.796 74.5191 150.452 74.3775 150.202 74.1278C149.949 73.8748 149.811 73.5341 149.811 73.1798C149.811 72.8256 149.953 72.4815 150.202 72.2319C150.455 71.9822 150.796 71.8405 151.15 71.8405H156.575C156.73 71.8405 156.872 71.7427 156.926 71.5976C156.98 71.4526 156.939 71.2873 156.821 71.1827C156.801 71.1625 156.781 71.1456 156.76 71.1253C156.507 70.8723 156.369 70.5316 156.369 70.1774C156.369 69.8232 156.511 69.4791 156.76 69.2294C157.013 68.9764 157.354 68.8381 157.708 68.8381H161.45C161.804 68.8381 162.148 68.9798 162.398 69.2294C162.651 69.4824 162.789 69.8232 162.789 70.1774C162.789 70.5316 162.647 70.8757 162.398 71.1253C162.377 71.1456 162.357 71.1658 162.337 71.1827C162.219 71.2873 162.178 71.4492 162.232 71.5976C162.286 71.7427 162.428 71.8405 162.583 71.8405H166.389V74.5191Z" fill="#171718"/>
<path fill-rule="evenodd" clip-rule="evenodd" d="M158.93 88.0479C158.93 88.0479 158.991 85.101 160.486 85.0252C161.987 84.9497 160.746 88.0085 160.746 88.0085C160.746 88.0085 162.496 87.1809 163.124 87.7601C163.757 88.3448 162.533 89.499 161.574 89.5947C161.574 89.5947 163.168 90.9905 162.154 92.2353C161.139 93.4852 159.907 91.811 159.72 90.9943C159.72 90.9943 157.702 92.7828 156.664 92.1254C155.631 91.4683 156.929 90.0475 157.91 89.9276C157.91 89.9276 156.008 88.7061 156.569 87.7287C157.125 86.756 158.472 87.4593 158.93 88.0479Z" fill="#EF4444"/>
<path fill-rule="evenodd" clip-rule="evenodd" d="M152.033 92.7861C152.033 92.7861 150.767 90.6842 151.995 90.0876C153.224 89.4909 153.539 92.112 153.539 92.112C153.539 92.112 154.709 90.7978 155.44 91.059C156.177 91.3232 155.564 92.7234 154.796 93.1444C154.796 93.1444 156.625 93.7454 156.219 95.1471C155.815 96.5532 154.189 95.5907 153.742 94.9742C153.742 94.9742 152.69 97.1874 151.588 97.0064C150.491 96.8239 151.071 95.1743 151.849 94.7252C151.849 94.7252 149.824 94.3798 149.946 93.3628C150.068 92.3457 151.442 92.4611 152.033 92.7861Z" fill="#EF4444"/>
<path fill-rule="evenodd" clip-rule="evenodd" d="M159.434 90.2656C157.936 94.621 157.394 98.3988 157.44 101.824C157.445 102.033 157.614 102.197 157.818 102.192C158.023 102.192 158.192 102.018 158.187 101.814C158.146 98.4602 158.672 94.7693 160.139 90.511C160.206 90.3167 160.104 90.102 159.904 90.0356C159.715 89.9691 159.5 90.0714 159.434 90.2656Z" fill="#171718"/>
<path fill-rule="evenodd" clip-rule="evenodd" d="M152.998 93.9192C154.331 97.7845 154.81 101.139 154.773 104.182C154.768 104.391 154.935 104.558 155.144 104.563C155.353 104.567 155.521 104.4 155.525 104.191C155.563 101.074 155.075 97.6358 153.709 93.6729C153.644 93.4778 153.425 93.3756 153.23 93.4406C153.035 93.5103 152.933 93.724 152.998 93.9192Z" fill="#171718"/>
<path fill-rule="evenodd" clip-rule="evenodd" d="M112.719 91.5107C112.719 91.5107 116.578 81.7618 120.257 82.0498C123.936 82.3378 120.473 92.6339 118.637 97.5515C118.637 97.5515 123.137 89.8043 126.586 91.0355C130.035 92.2667 122.626 101.425 122.626 101.425C122.626 101.425 127.644 97.7243 129.538 98.5523C131.432 99.3731 124.541 105.565 124.541 105.565C124.541 105.565 129.459 104.312 130.38 105.767C131.302 107.221 127.479 109.77 127.479 109.77H112.726V91.5107H112.719Z" fill="#22C55E"/>
<path fill-rule="evenodd" clip-rule="evenodd" d="M118.331 97.3712L116.963 99.7328C116.863 99.9128 116.92 100.143 117.1 100.244C117.28 100.345 117.511 100.287 117.611 100.107L118.979 97.7456C119.08 97.5656 119.023 97.3352 118.843 97.2344C118.663 97.1264 118.432 97.1912 118.331 97.3712Z" fill="#171718"/>
<path fill-rule="evenodd" clip-rule="evenodd" d="M122.333 101.187L121.116 102.656C120.986 102.815 121.008 103.052 121.166 103.182C121.325 103.311 121.562 103.29 121.692 103.131L122.909 101.663C123.038 101.504 123.017 101.267 122.858 101.137C122.707 101.007 122.469 101.029 122.333 101.187Z" fill="#171718"/>
<path fill-rule="evenodd" clip-rule="evenodd" d="M124.514 105.113L122.699 106.15C122.519 106.25 122.455 106.481 122.555 106.661C122.656 106.841 122.887 106.906 123.067 106.805L124.881 105.768C125.061 105.667 125.126 105.437 125.025 105.257C124.924 105.077 124.694 105.012 124.514 105.113Z" fill="#171718"/>
<path fill-rule="evenodd" clip-rule="evenodd" d="M83.083 67.7002L101.27 80.1851L100.579 124.515H85.6534L84.163 86.4778L65.9326 90.8626C65.9326 90.8626 58.2141 93.3178 53.4261 90.3442C48.6381 87.3778 42.7773 83.3026 42.7773 83.3026L49.5813 72.6251L57.3286 76.9954L74.4717 71.4946C74.4789 71.4946 78.5182 67.6426 83.083 67.7002Z" fill="#335CFF"/>
<path fill-rule="evenodd" clip-rule="evenodd" d="M114.194 144.135L111.905 144.049C111.696 144.042 111.523 144.2 111.516 144.409C111.509 144.618 111.667 144.791 111.876 144.798L114.165 144.884C114.374 144.891 114.547 144.733 114.554 144.524C114.569 144.315 114.403 144.143 114.194 144.135Z" fill="#171718"/>
<path fill-rule="evenodd" clip-rule="evenodd" d="M114.503 146.752L111.763 146.649C111.556 146.641 111.385 146.805 111.378 147.007C111.371 147.216 111.536 147.39 111.743 147.398L114.483 147.501C114.69 147.509 114.861 147.345 114.868 147.143C114.866 146.934 114.71 146.76 114.503 146.752Z" fill="#171718"/>
<path fill-rule="evenodd" clip-rule="evenodd" d="M113.608 148.881L111.319 148.795C111.11 148.787 110.937 148.946 110.93 149.155C110.923 149.363 111.081 149.536 111.29 149.543L113.58 149.63C113.788 149.637 113.961 149.479 113.968 149.27C113.976 149.068 113.817 148.888 113.608 148.881Z" fill="#171718"/>
<path fill-rule="evenodd" clip-rule="evenodd" d="M10.6277 63.6107L13.3997 63.8987C13.6085 63.9203 13.7885 63.7691 13.8101 63.5675C13.8317 63.3587 13.6805 63.1787 13.4789 63.1571L10.7069 62.8691C10.4981 62.8475 10.3181 62.9987 10.2965 63.2003C10.2677 63.4019 10.4189 63.5891 10.6277 63.6107Z" fill="#171718"/>
<path fill-rule="evenodd" clip-rule="evenodd" d="M10.513 66.2378L13.285 66.5258C13.4938 66.5474 13.6737 66.3962 13.6953 66.1946C13.7169 65.9858 13.5658 65.8058 13.3642 65.7842L10.5922 65.4962C10.3834 65.4746 10.2033 65.6258 10.1817 65.8274C10.1601 66.0362 10.3114 66.2162 10.513 66.2378Z" fill="#171718"/>
<path fill-rule="evenodd" clip-rule="evenodd" d="M10.405 68.7226L13.177 69.0106C13.3858 69.0322 13.5659 68.8811 13.5875 68.6795C13.6091 68.4707 13.4578 68.2907 13.2562 68.2691L10.4842 67.9811C10.2754 67.9595 10.0954 68.1107 10.0738 68.3123C10.045 68.5139 10.1962 68.701 10.405 68.7226Z" fill="#171718"/>
<path fill-rule="evenodd" clip-rule="evenodd" d="M83.1004 67.7001L87.8596 58.1529L80.1484 57.6561L80.7244 46.8921L92.0716 47.0217C92.0716 47.0217 95.0884 45.9561 97.5652 45.6825C100.042 45.4089 105.874 44.5665 106.428 44.7969C106.983 45.0273 113.499 45.8049 117.214 45.2433L117.567 55.3089L111.303 57.2241C111.303 57.2241 110.648 59.1969 108.761 59.8377L104.571 77.6217L83.1004 67.7001Z" fill="#EF4444"/>
<path fill-rule="evenodd" clip-rule="evenodd" d="M88.1857 58.3185L90.3313 54.013C90.4249 53.8258 90.3457 53.6026 90.1657 53.509C89.9785 53.4154 89.7553 53.4945 89.6617 53.6745L87.5162 57.9801C87.4226 58.1673 87.5017 58.3905 87.6817 58.4841C87.8689 58.5849 88.0921 58.5057 88.1857 58.3185Z" fill="#171718"/>
<path fill-rule="evenodd" clip-rule="evenodd" d="M108.62 59.4994C108.62 59.4994 107.108 60.1402 105.365 59.2546C105.178 59.161 104.955 59.233 104.861 59.4202C104.768 59.6074 104.84 59.8306 105.027 59.9242C107.115 60.9826 108.922 60.1906 108.922 60.1906C109.109 60.1114 109.196 59.8883 109.116 59.7011C109.03 59.4995 108.807 59.413 108.62 59.4994Z" fill="#171718"/>
<path fill-rule="evenodd" clip-rule="evenodd" d="M92.5131 55.9641C92.5131 55.9641 92.2179 58.6929 94.9683 59.1249C97.2075 59.4849 98.5611 57.5409 98.5611 57.5409C98.6763 57.3681 98.6403 57.1377 98.4675 57.0153C98.2947 56.9001 98.0643 56.9433 97.9491 57.1089C97.9491 57.1089 96.8763 58.6641 95.0907 58.3833C93.0459 58.0593 93.2619 56.0433 93.2619 56.0433C93.2835 55.8345 93.1323 55.6545 92.9307 55.6329C92.7219 55.6041 92.5347 55.7553 92.5131 55.9641Z" fill="#171718"/>
<path fill-rule="evenodd" clip-rule="evenodd" d="M91.8981 73.9211C91.9845 73.8131 92.006 73.6691 91.9556 73.5395C91.9052 73.4099 91.79 73.3235 91.6532 73.3091C91.6532 73.3091 88.9964 73.0139 87.1316 73.5971C86.2388 73.8779 85.5261 74.3675 85.2669 75.1235C85.0653 75.6995 85.1373 76.1531 85.3605 76.4771C85.5837 76.8011 85.9797 77.0171 86.5125 77.0603C87.7869 77.1755 90.0045 76.2611 91.8981 73.9211ZM90.8325 74.0075C89.2773 75.6923 87.5997 76.4123 86.5701 76.3259C86.2965 76.3043 86.0805 76.2251 85.9725 76.0667C85.8573 75.9011 85.8717 75.6707 85.9725 75.3827C86.0949 75.0371 86.3613 74.7851 86.7069 74.5979C87.1029 74.3747 87.5997 74.2379 88.1109 74.1443C89.0901 73.9643 90.1485 73.9715 90.8325 74.0075Z" fill="#171718"/>
<path fill-rule="evenodd" clip-rule="evenodd" d="M91.8853 73.4242C91.7989 73.3378 91.6765 73.2946 91.5541 73.3162C91.4317 73.3378 91.3309 73.417 91.2733 73.525C91.2733 73.525 90.4381 75.3034 90.2365 77.0386C90.0925 78.3058 90.3013 79.537 91.2589 80.1634C91.6981 80.4586 92.0797 80.4946 92.3821 80.3938C92.6845 80.293 92.9437 80.0338 93.1093 79.6378C93.4117 78.9322 93.4549 77.7298 93.2389 76.5202C93.0301 75.325 92.5549 74.1298 91.8853 73.4242ZM91.7053 74.4178C92.4613 75.5986 92.7709 77.5282 92.5765 78.7666C92.5333 79.0258 92.4757 79.249 92.3821 79.4218C92.3245 79.537 92.2525 79.6306 92.1589 79.6738C92.0293 79.7314 91.8709 79.6666 91.6693 79.537C90.9421 79.0546 90.8629 78.0898 90.9781 77.1178C91.1005 76.0954 91.4605 75.0442 91.7053 74.4178Z" fill="#171718"/>
<path fill-rule="evenodd" clip-rule="evenodd" d="M97.796 46.2657L96.2912 40.4481C96.2912 40.4481 94.3472 40.6569 93.764 39.6129C93.0944 38.3889 94.196 37.0569 95.564 37.2225L95.9744 33.9537L101.835 33.4281L103.966 35.6385C103.966 35.6385 104.694 41.0961 104.29 45.7401L97.796 46.2657Z" fill="white"/>
<path fill-rule="evenodd" clip-rule="evenodd" d="M97.4139 46.3595C97.4571 46.5395 97.6227 46.6547 97.8099 46.6403L104.304 46.1219C104.484 46.1075 104.628 45.9635 104.65 45.7835C105.06 41.0963 104.326 35.5955 104.326 35.5955C104.319 35.5163 104.283 35.4443 104.225 35.3867L102.094 33.1691C102.015 33.0899 101.899 33.0467 101.791 33.0539L95.9306 33.5795C95.7578 33.5939 95.6139 33.7307 95.5923 33.9035L95.225 36.8339C93.7418 36.8987 92.6691 38.4107 93.4323 39.7931C93.7131 40.3043 94.2531 40.5923 94.8075 40.7291C95.2539 40.8371 95.7003 40.8515 95.9955 40.8443L97.4139 46.3595ZM98.0619 45.8627L96.6363 40.3547C96.5931 40.1747 96.4202 40.0595 96.233 40.0739C96.233 40.0739 95.5994 40.1459 94.973 39.9947C94.6202 39.9083 94.253 39.7571 94.073 39.4259C93.5474 38.4755 94.4402 37.4603 95.4986 37.5899C95.7002 37.6115 95.8875 37.4675 95.9163 37.2659L96.2906 34.2995L101.676 33.8171L103.599 35.8115C103.699 36.6107 104.247 41.2619 103.93 45.3947L98.0619 45.8627Z" fill="#171718"/>
<path fill-rule="evenodd" clip-rule="evenodd" d="M94.6785 37.3232C94.6785 37.3232 93.7209 32.2688 97.6089 31.4552C101.497 30.6416 103.736 32.1968 103.959 35.6456C103.959 35.6456 99.8409 37.3016 97.8969 34.7384C97.8969 34.7384 97.5009 37.9064 95.5569 37.2224C95.5497 37.2152 95.1105 37.1648 94.6785 37.3232Z" fill="#171718"/>
<path fill-rule="evenodd" clip-rule="evenodd" d="M94.3227 37.3883C94.3443 37.4963 94.4091 37.5899 94.5027 37.6475C94.5963 37.7051 94.7115 37.7123 94.8123 37.6763C95.1003 37.5755 95.3811 37.5827 95.4747 37.5899C96.4323 37.9067 97.0875 37.4891 97.5267 36.8555C97.8147 36.4451 98.0019 35.9267 98.1099 35.5163C98.9091 36.2219 99.8955 36.4883 100.853 36.5315C102.545 36.6107 104.1 35.9843 104.1 35.9843C104.252 35.9267 104.345 35.7755 104.331 35.6099C104.215 33.7451 103.531 32.4059 102.365 31.6283C101.22 30.8651 99.5931 30.6419 97.5267 31.0739C95.3955 31.5203 94.5819 33.1187 94.3083 34.6091C94.0635 36.0635 94.3227 37.3883 94.3227 37.3883ZM94.9995 36.8627C94.9491 36.4091 94.9059 35.6027 95.0571 34.7603C95.2803 33.5291 95.9283 32.1899 97.6851 31.8227C99.5067 31.4411 100.947 31.5923 101.947 32.2619C102.876 32.8811 103.409 33.9467 103.553 35.3867C103.078 35.5451 102.012 35.8403 100.882 35.7899C99.9171 35.7467 98.8875 35.4371 98.1891 34.5083C98.0955 34.3859 97.9443 34.3355 97.7931 34.3715C97.6491 34.4075 97.5411 34.5371 97.5195 34.6883C97.5195 34.6883 97.3971 35.7323 96.9075 36.4235C96.6411 36.8051 96.2523 37.0643 95.6763 36.8627C95.6547 36.8555 95.6259 36.8483 95.5971 36.8411C95.6043 36.8483 95.3451 36.8123 94.9995 36.8627Z" fill="#171718"/>
<path fill-rule="evenodd" clip-rule="evenodd" d="M101.387 38.8067C101.387 38.8067 105.793 36.6755 106.902 36.8051C107.982 36.9275 107.557 38.0291 106.412 38.4323C105.383 38.7995 102.006 40.2251 102.006 40.2251L101.387 38.8067Z" fill="white"/>
<path fill-rule="evenodd" clip-rule="evenodd" d="M101.552 39.1451C101.552 39.1451 103.69 38.1154 105.346 37.5394C105.994 37.3162 106.563 37.1434 106.858 37.1794C106.945 37.1866 107.017 37.2083 107.074 37.2299C107.11 37.2443 107.139 37.2586 107.146 37.2874C107.175 37.3594 107.125 37.4387 107.074 37.5179C106.93 37.7411 106.649 37.9498 106.289 38.0794C105.26 38.4466 101.861 39.8794 101.861 39.8794C101.674 39.9586 101.581 40.1819 101.66 40.3691C101.739 40.5563 101.962 40.6498 102.149 40.5706C102.149 40.5706 105.512 39.1523 106.534 38.7851C107.11 38.5763 107.535 38.2162 107.737 37.8634C107.917 37.5466 107.938 37.2299 107.83 36.9779C107.715 36.7187 107.449 36.4882 106.945 36.4306C106.577 36.3874 105.886 36.553 105.101 36.8266C103.409 37.417 101.228 38.4682 101.228 38.4682C101.041 38.5618 100.961 38.785 101.055 38.9722C101.141 39.1594 101.365 39.2315 101.552 39.1451Z" fill="#171718"/>
<path fill-rule="evenodd" clip-rule="evenodd" d="M98.6258 40.5416C98.6258 40.5416 99.4179 42.6296 102.003 42.0968C102.204 42.0536 102.334 41.8592 102.291 41.6576C102.247 41.456 102.053 41.3264 101.851 41.3624C99.9362 41.7584 99.3242 40.268 99.3242 40.268C99.245 40.0736 99.0291 39.98 98.8347 40.0592C98.6475 40.1312 98.5538 40.3472 98.6258 40.5416Z" fill="#171718"/>
<path fill-rule="evenodd" clip-rule="evenodd" d="M95.2607 32.9192C95.2607 32.9192 92.3519 30.0896 90.1847 31.5512C88.0175 33.0128 90.8975 39.1544 94.5623 35.8208L95.2607 32.9192Z" fill="#171718"/>
<path fill-rule="evenodd" clip-rule="evenodd" d="M95.6349 33.0055C95.6637 32.8759 95.6277 32.7391 95.5341 32.6527C95.5341 32.6527 94.4324 31.5799 93.0572 31.0543C92.078 30.6799 90.9693 30.5863 89.9901 31.2415C88.9893 31.9111 88.8525 33.4375 89.3997 34.7839C89.8749 35.9647 90.8612 36.9871 92.0852 37.1527C92.906 37.2607 93.8493 36.9943 94.8357 36.1015C94.8933 36.0511 94.9293 35.9863 94.9509 35.9143L95.6349 33.0055ZM94.8501 33.0487L94.2309 35.6191C93.4893 36.2671 92.7909 36.4903 92.1717 36.4111C91.2069 36.2815 90.4653 35.4391 90.0837 34.5103C89.8677 33.9847 89.7741 33.4231 89.8317 32.9263C89.8821 32.4871 90.0549 32.0983 90.4005 31.8679C91.1565 31.3567 92.0205 31.4647 92.7837 31.7599C93.7269 32.1127 94.5261 32.7607 94.8501 33.0487Z" fill="#171718"/>
<path fill-rule="evenodd" clip-rule="evenodd" d="M159.276 24.817L158.715 26.4658C158.65 26.6602 158.751 26.8762 158.952 26.941C159.147 27.0058 159.363 26.905 159.428 26.7034L159.989 25.0546C160.054 24.8602 159.953 24.6442 159.752 24.5794C159.557 24.5146 159.348 24.6226 159.276 24.817Z" fill="#171718"/>
<path fill-rule="evenodd" clip-rule="evenodd" d="M148.678 41.9601L150.694 40.9593C150.881 40.8657 150.953 40.6425 150.859 40.4553C150.766 40.2681 150.542 40.1961 150.355 40.2825L148.339 41.2833C148.152 41.3769 148.08 41.6001 148.174 41.7873C148.267 41.9745 148.498 42.0537 148.678 41.9601Z" fill="#171718"/>
<path fill-rule="evenodd" clip-rule="evenodd" d="M159.592 36.8982C158.497 36.1322 157.227 35.9037 156.011 36.5219C155.379 36.8445 154.801 37.4694 154.875 38.2421C154.956 39.1157 155.802 39.633 156.535 39.8951C157.079 40.09 157.778 40.2513 158.376 40.5268C158.886 40.7619 159.337 41.0844 159.491 41.6489C159.673 42.3074 159.041 42.7912 158.45 42.9122C157.61 43.0802 156.777 42.771 156.058 42.3544C155.816 42.2133 155.547 42.0655 155.352 41.8505C155.218 41.6959 154.976 41.6825 154.821 41.8169C154.667 41.9513 154.653 42.1932 154.788 42.3477C155.029 42.6232 155.365 42.8181 155.675 42.9995C156.548 43.5102 157.576 43.8529 158.598 43.6446C159.585 43.443 160.519 42.5426 160.217 41.4473C160.002 40.6544 159.404 40.1706 158.692 39.8414C158.067 39.5524 157.348 39.3844 156.783 39.1829C156.521 39.0888 156.219 38.9544 155.984 38.7662C155.796 38.6117 155.641 38.4235 155.621 38.1682C155.581 37.7113 155.977 37.3753 156.353 37.1804C157.307 36.6899 158.302 36.8982 159.162 37.503C159.33 37.6239 159.565 37.5836 159.686 37.4089C159.8 37.2476 159.76 37.0125 159.592 36.8982Z" fill="#171718"/>
<path fill-rule="evenodd" clip-rule="evenodd" d="M157.286 35.5072C156.991 38.5242 157.024 41.548 156.567 44.5516C156.534 44.7532 156.675 44.948 156.883 44.9816C157.085 45.0152 157.28 44.8741 157.313 44.6658C157.777 41.6488 157.743 38.6116 158.039 35.5811C158.059 35.3728 157.905 35.1914 157.703 35.1712C157.488 35.151 157.307 35.3056 157.286 35.5072Z" fill="#171718"/>
<path fill-rule="evenodd" clip-rule="evenodd" d="M41.3282 31.364C41.3282 29.5928 41.9114 28.0232 42.833 27.044C43.409 26.4392 44.1074 26.0649 44.8778 26.0649C45.641 26.0649 46.3465 26.432 46.9225 27.044C47.8441 28.016 48.4274 29.5928 48.4274 31.364C48.4274 31.5728 48.593 31.7385 48.8018 31.7385C49.0106 31.7385 49.1762 31.5728 49.1762 31.364C49.1762 29.3768 48.4994 27.6201 47.4698 26.5329C46.7426 25.7625 45.8498 25.3232 44.885 25.3232C43.9202 25.3232 43.0202 25.7697 42.3002 26.5329C41.2706 27.6201 40.5938 29.3768 40.5938 31.364C40.5938 31.5728 40.7594 31.7385 40.9682 31.7385C41.1554 31.7385 41.3282 31.5728 41.3282 31.364Z" fill="#171718"/>
<path fill-rule="evenodd" clip-rule="evenodd" d="M41.6586 41.0738H39.6345L39.0781 38.9288C39.0781 38.9288 41.1102 36.5984 42.0618 36.2678C42.8036 36.0097 43.2149 36.0823 43.36 36.1226V36.1146L43.3761 36.1226C43.4084 36.1307 43.4245 36.1387 43.4245 36.1387C43.4245 36.1387 44.0455 36.7274 44.876 36.7516C45.7147 36.7193 46.3275 36.1387 46.3275 36.1387C46.3275 36.1387 46.3437 36.1307 46.3759 36.1226L46.392 36.1146V36.1226C46.5372 36.0823 46.9484 36.0097 47.6903 36.2678C48.6499 36.5984 50.6739 38.9288 50.6739 38.9288L50.1175 41.0738H48.0935V45.5654H41.6505V41.0738H41.6586Z" fill="white"/>
<path fill-rule="evenodd" clip-rule="evenodd" d="M46.3998 36.4854L46.295 35.7678C46.4644 35.7194 46.9482 35.6146 47.8191 35.9129C48.1416 36.0258 48.569 36.3242 49.0125 36.7032C49.956 37.5176 50.9721 38.6788 50.9721 38.6788C51.0527 38.7756 51.085 38.8966 51.0527 39.0175L50.4963 41.1625C50.4559 41.3318 50.3027 41.4447 50.1334 41.4447H48.4884V45.5654C48.4884 45.775 48.319 45.9363 48.1174 45.9363H41.6744C41.4648 45.9363 41.2954 45.767 41.2954 45.5654V41.4447H39.6504C39.481 41.4447 39.3278 41.3318 39.2875 41.1625L38.7311 39.0175C38.6989 38.8966 38.7311 38.7675 38.8117 38.6788C38.8117 38.6788 39.8278 37.5176 40.7713 36.7032C41.2067 36.3242 41.6422 36.0258 41.9647 35.9129C42.8356 35.6146 43.3194 35.7113 43.4888 35.7678L43.4807 35.8C43.4968 35.7839 43.5211 35.7839 43.5452 35.792H43.5372L43.521 35.7839L43.5049 35.7758C43.513 35.7758 43.513 35.7758 43.521 35.7839C43.5291 35.7839 43.5372 35.792 43.5452 35.792C43.5694 35.8 43.6017 35.8162 43.634 35.8484C43.6501 35.8645 43.6662 35.8807 43.6823 35.8968L43.6743 35.9129C43.6904 35.9452 43.6904 35.9855 43.6904 36.0258C43.7226 36.0097 43.7468 36.0339 43.7468 36.1145C43.7468 36.1549 43.6662 36.2355 43.5856 36.3161C43.5372 36.3968 43.4888 36.4613 43.4565 36.4935C43.6098 36.4613 43.7307 36.3403 43.7549 36.179C43.771 36.0742 43.7468 35.9694 43.6823 35.8968L43.6904 35.8726C43.6904 35.8726 44.1984 36.3564 44.8839 36.3806C45.5693 36.3484 46.0773 35.8726 46.0773 35.8726C45.9644 35.9775 45.9321 36.1387 45.9886 36.2838C46.045 36.429 46.1821 36.5177 46.3354 36.5177L46.3273 36.4693C46.2144 36.4371 46.0289 36.3564 46.0289 36.1065C46.0289 36.05 46.1982 36.2355 46.3111 36.3726L46.3354 36.4693H46.3515C46.3595 36.4693 46.3676 36.4693 46.3757 36.4774H46.3918L46.3837 36.4532L46.3515 36.421L46.3111 36.3726L46.2627 36.171L46.1338 35.8484L46.1418 35.8323L46.2386 36.0661L46.1741 35.8C46.1741 35.8 46.2144 35.7839 46.2789 35.7597L46.3837 36.421L46.3998 36.4854ZM43.2388 36.4774C43.4404 36.6468 44.0694 37.1064 44.8677 37.1386C44.8758 37.1386 44.8838 37.1386 44.8919 37.1386C45.6902 37.1064 46.3192 36.6468 46.5208 36.4774C46.6579 36.4452 46.9885 36.421 47.5691 36.6225C47.8271 36.7112 48.1578 36.9693 48.5126 37.2677C49.2222 37.8805 49.9641 38.6949 50.2624 39.0256L49.827 40.6948H48.0933C47.8836 40.6948 47.7142 40.8641 47.7142 41.0657V45.1864H42.0212V41.0657C42.0212 40.8561 41.8518 40.6948 41.6502 40.6948H39.9165L39.4811 39.0256C39.7794 38.6949 40.5213 37.8805 41.2309 37.2677C41.5857 36.9612 41.9163 36.7032 42.1744 36.6225C42.7711 36.429 43.1017 36.4452 43.2388 36.4774ZM46.4966 36.4854C46.4482 36.5096 46.3918 36.5177 46.3354 36.5177C46.3354 36.5258 46.3918 36.5177 46.4966 36.4854ZM46.3837 36.5097L46.416 36.5016H46.3998L46.3837 36.5097ZM43.4243 36.4532L43.392 36.4774L43.3759 36.5016C43.392 36.5016 43.4162 36.5016 43.4324 36.4935L43.4646 36.4048L43.4243 36.4532ZM43.1178 36.3968C43.142 36.4129 43.1663 36.429 43.1904 36.4451L43.1824 36.4371L43.1743 36.429L43.3437 36.4935L43.1178 36.3968ZM43.3517 36.4854C43.2953 36.4129 42.9889 36.0339 42.9889 36.1145C42.9889 36.2436 43.0453 36.3323 43.1178 36.3887L43.3517 36.4854ZM43.6259 35.8484C43.6581 35.8968 43.6017 36.0581 43.5372 36.2032L43.5533 36.179C43.5614 36.171 43.5614 36.1629 43.5694 36.1549L43.5856 36.1387L43.6743 35.921C43.6581 35.8968 43.6501 35.8726 43.6259 35.8484Z" fill="#171718"/>
<path fill-rule="evenodd" clip-rule="evenodd" d="M29.9693 41.1684C30.0341 40.9884 30.2069 40.8732 30.4013 40.8732C30.5957 40.8732 30.7613 40.9884 30.8333 41.1684C30.9773 41.55 31.1141 41.9316 31.2005 42.1548C31.2509 42.2772 31.3444 42.378 31.474 42.4284C31.6972 42.5076 32.0789 42.6515 32.4605 42.7955C32.6405 42.8603 32.7629 43.0331 32.7629 43.2275C32.7629 43.4219 32.6405 43.5875 32.4605 43.6595C32.0789 43.8035 31.6972 43.9404 31.474 44.0268C31.3516 44.07 31.2509 44.1708 31.2005 44.3004C31.1213 44.5236 30.9773 44.9052 30.8333 45.2868C30.7685 45.4668 30.5957 45.5892 30.4013 45.5892C30.2069 45.5892 30.0413 45.4668 29.9693 45.2868C29.8253 44.9052 29.6884 44.5236 29.602 44.3004C29.5588 44.178 29.4581 44.0772 29.3285 44.0268C29.1053 43.9476 28.7236 43.8035 28.342 43.6595C28.162 43.5947 28.0469 43.4219 28.0469 43.2275C28.0469 43.0331 28.1692 42.8675 28.342 42.7955C28.7236 42.6515 29.1053 42.5148 29.3285 42.4284C29.4509 42.3852 29.5516 42.2844 29.602 42.1548C29.6884 41.9316 29.8325 41.55 29.9693 41.1684Z" fill="white"/>
<path fill-rule="evenodd" clip-rule="evenodd" d="M29.6198 41.0384L29.2526 42.0248C29.2454 42.0464 29.2238 42.068 29.2022 42.0752C28.979 42.1544 28.5974 42.2984 28.2158 42.4424C27.8918 42.5648 27.6758 42.8744 27.6758 43.2272C27.6758 43.5728 27.8918 43.8896 28.2158 44.0048C28.5974 44.1488 28.979 44.2856 29.2022 44.372C29.2238 44.3792 29.2454 44.4008 29.2526 44.4224C29.3318 44.6456 29.4758 45.0272 29.6198 45.4088C29.7422 45.7328 30.0518 45.9488 30.4046 45.9488C30.7502 45.9488 31.067 45.7328 31.1822 45.4088C31.3262 45.0272 31.463 44.6456 31.5494 44.4224C31.5566 44.4008 31.5782 44.3792 31.5998 44.372C31.823 44.2928 32.2046 44.1488 32.5862 44.0048C32.9102 43.8824 33.1334 43.5728 33.1334 43.2272C33.1334 42.8816 32.9174 42.5648 32.5862 42.4424C32.2046 42.2984 31.823 42.1616 31.5998 42.0752C31.5782 42.068 31.5566 42.0464 31.5494 42.0248C31.4702 41.8016 31.3262 41.42 31.1822 41.0384C31.0598 40.7144 30.7502 40.4912 30.4046 40.4912C30.059 40.4912 29.7422 40.7072 29.6198 41.0384ZM30.3254 41.2976C30.3398 41.2616 30.3686 41.24 30.4046 41.24C30.4406 41.24 30.4694 41.2616 30.4838 41.2976L30.851 42.284C30.9374 42.5144 31.1174 42.6944 31.3406 42.7736L32.327 43.1408C32.363 43.1552 32.3846 43.184 32.3846 43.22C32.3846 43.256 32.363 43.2848 32.327 43.2992L31.3406 43.6664C31.1102 43.7528 30.9302 43.9328 30.851 44.156L30.4838 45.1424C30.4694 45.1784 30.4406 45.2 30.4046 45.2C30.3686 45.2 30.3398 45.1784 30.3254 45.1424L29.9582 44.156C29.8718 43.9256 29.6918 43.7456 29.4686 43.6664L28.4822 43.2992C28.4462 43.2848 28.4246 43.256 28.4246 43.22C28.4246 43.184 28.4462 43.1552 28.4822 43.1408L29.4686 42.7736C29.699 42.6872 29.879 42.5072 29.9582 42.284L30.3254 41.2976Z" fill="#171718"/>
<path fill-rule="evenodd" clip-rule="evenodd" d="M56.0162 28.8345C56.081 28.6545 56.2538 28.5393 56.4482 28.5393C56.6426 28.5393 56.8082 28.6545 56.8802 28.8345C57.0242 29.2161 57.161 29.5977 57.2474 29.8209C57.2978 29.9433 57.3914 30.0441 57.521 30.0945C57.7442 30.1737 58.1258 30.3177 58.5074 30.4617C58.6874 30.5265 58.8098 30.6993 58.8098 30.8937C58.8098 31.0881 58.6874 31.2537 58.5074 31.3257C58.1258 31.4697 57.7442 31.6065 57.521 31.6929C57.3986 31.7361 57.2978 31.8369 57.2474 31.9665C57.1682 32.1897 57.0242 32.5713 56.8802 32.9529C56.8154 33.1329 56.6426 33.2481 56.4482 33.2481C56.2538 33.2481 56.0882 33.1329 56.0162 32.9529C55.8794 32.5713 55.7354 32.1897 55.649 31.9665C55.6058 31.8441 55.505 31.7433 55.3754 31.6929C55.1522 31.6137 54.7706 31.4697 54.389 31.3257C54.209 31.2609 54.0938 31.0881 54.0938 30.8937C54.0938 30.6993 54.2162 30.5337 54.389 30.4617C54.7706 30.3177 55.1522 30.1809 55.3754 30.0945C55.4978 30.0513 55.5986 29.9505 55.649 29.8209C55.7282 29.5977 55.8722 29.2089 56.0162 28.8345Z" fill="white"/>
<path fill-rule="evenodd" clip-rule="evenodd" d="M55.67 28.7049L55.3027 29.6913C55.2955 29.7129 55.2739 29.7345 55.2523 29.7417C55.0291 29.8209 54.6476 29.9649 54.266 30.1089C53.942 30.2313 53.7188 30.5409 53.7188 30.8937C53.7188 31.2393 53.9348 31.5561 54.266 31.6713C54.6476 31.8153 55.0291 31.9521 55.2523 32.0385C55.2739 32.0457 55.2955 32.0673 55.3027 32.0889C55.3819 32.3121 55.526 32.6937 55.67 33.0753C55.7924 33.3993 56.1019 33.6153 56.4547 33.6153C56.8075 33.6153 57.1171 33.3993 57.2395 33.0753C57.3835 32.6937 57.5203 32.3121 57.6067 32.0889C57.6139 32.0673 57.6355 32.0457 57.6571 32.0385C57.8803 31.9593 58.2619 31.8153 58.6435 31.6713C58.9675 31.5489 59.1907 31.2393 59.1907 30.8937C59.1907 30.5481 58.9747 30.2313 58.6435 30.1089C58.2619 29.9649 57.8803 29.8281 57.6571 29.7417C57.6355 29.7345 57.6139 29.7129 57.6067 29.6913C57.5275 29.4681 57.3835 29.0865 57.2395 28.7049C57.1171 28.3809 56.8075 28.1577 56.4547 28.1577C56.1019 28.1577 55.7924 28.3737 55.67 28.7049ZM56.3683 28.9641C56.3827 28.9353 56.4115 28.9065 56.4475 28.9065C56.4835 28.9065 56.5123 28.9281 56.5267 28.9641L56.894 29.9505C56.9804 30.1809 57.1603 30.3609 57.3835 30.4401L58.37 30.8073C58.406 30.8217 58.4275 30.8505 58.4275 30.8865C58.4275 30.9225 58.406 30.9513 58.37 30.9657L57.3835 31.3329C57.1531 31.4193 56.9732 31.5993 56.894 31.8225L56.5267 32.8089C56.5123 32.8449 56.4835 32.8665 56.4475 32.8665C56.4115 32.8665 56.3827 32.8449 56.3683 32.8089L56.0011 31.8225C55.9147 31.5921 55.7347 31.4121 55.5115 31.3329L54.5251 30.9657C54.4891 30.9513 54.4675 30.9225 54.4675 30.8865C54.4675 30.8505 54.4891 30.8217 54.5251 30.8073L55.5115 30.4401C55.7419 30.3537 55.9219 30.1737 56.0011 29.9505L56.3683 28.9641Z" fill="#171718"/>
<path fill-rule="evenodd" clip-rule="evenodd" d="M35.369 113.975L35.333 114.003C34.9874 114.291 34.6202 114.543 34.2458 114.795C34.1162 114.882 33.9938 114.968 33.8642 115.062C33.8282 115.091 33.785 115.119 33.7418 115.141C33.7562 115.134 33.7994 115.112 33.7994 115.112C33.7994 115.112 33.5978 115.242 33.569 115.292C33.497 115.422 33.4754 115.566 33.5978 115.724C33.641 115.775 33.7058 115.832 33.7922 115.883C33.8786 115.926 33.9938 115.962 34.0442 115.983C34.289 116.07 34.541 116.142 34.8002 116.192C35.081 116.25 35.369 116.279 35.6498 116.315C35.8514 116.343 36.0386 116.192 36.0674 115.991C36.089 115.789 35.945 115.595 35.7434 115.573C35.477 115.537 35.2106 115.508 34.9442 115.458C34.865 115.443 34.7858 115.422 34.7066 115.407C35.081 115.148 35.4626 114.889 35.8082 114.594C35.981 114.45 36.1466 114.291 36.2906 114.111C36.3122 114.09 36.4418 113.874 36.4562 113.816C36.4922 113.658 36.4346 113.55 36.3842 113.485C36.3482 113.435 36.2762 113.377 36.1754 113.348C36.1178 113.334 35.981 113.319 35.9594 113.319C35.7722 113.291 35.585 113.262 35.405 113.233C34.7426 113.118 34.1018 112.887 33.4394 112.736C33.2378 112.693 33.0362 112.815 32.993 113.017C32.9498 113.219 33.0722 113.42 33.2738 113.463C33.9434 113.615 34.5986 113.845 35.2754 113.967L35.369 113.975Z" fill="#171718"/>
<path fill-rule="evenodd" clip-rule="evenodd" d="M40.3728 119.454C40.1424 119.663 39.8904 119.85 39.6456 120.044C39.516 120.145 39.3936 120.246 39.264 120.347C39.2208 120.383 39.1776 120.411 39.1344 120.447C39.1488 120.44 39.1848 120.411 39.1848 120.411C39.1848 120.411 38.9904 120.563 38.9688 120.62C38.904 120.757 38.8968 120.915 39.0552 121.059C39.1704 121.167 39.3288 121.239 39.5016 121.283C39.6816 121.326 39.8904 121.333 40.0272 121.347C40.2072 121.362 40.3872 121.369 40.5672 121.369C40.8696 121.376 41.172 121.369 41.4744 121.355C41.6832 121.347 41.8416 121.175 41.8344 120.966C41.8272 120.757 41.6544 120.599 41.4456 120.606C41.1576 120.613 40.8696 120.627 40.5816 120.62C40.4304 120.62 40.2864 120.613 40.1352 120.606C40.4592 120.347 40.8048 120.087 41.1 119.792C41.1792 119.713 41.3088 119.583 41.388 119.461C41.4456 119.367 41.4888 119.274 41.5032 119.187C41.532 119.022 41.4672 118.914 41.3808 118.842C41.3304 118.799 41.2656 118.755 41.172 118.748C41.1432 118.748 41.0856 118.748 41.0424 118.755C40.992 118.755 40.9416 118.755 40.8984 118.748C40.7184 118.741 40.5384 118.727 40.3584 118.712C39.84 118.676 39.3288 118.619 38.8104 118.561C38.6016 118.539 38.4216 118.683 38.3928 118.892C38.3712 119.101 38.5152 119.288 38.724 119.31C39.2496 119.375 39.7752 119.425 40.308 119.461L40.3728 119.454Z" fill="#171718"/>
<path fill-rule="evenodd" clip-rule="evenodd" d="M44.5117 124.66C44.2885 124.868 44.0437 125.063 43.8133 125.257C43.6837 125.365 43.5613 125.473 43.4317 125.581C43.3885 125.617 43.3453 125.653 43.3093 125.689C43.3237 125.682 43.3525 125.653 43.3525 125.653C43.3525 125.653 43.1653 125.819 43.1437 125.869C43.1149 125.941 43.1077 126.02 43.1293 126.092C43.1437 126.164 43.1869 126.258 43.2877 126.323C43.4749 126.452 43.7341 126.524 43.9573 126.56C44.1301 126.589 44.2957 126.618 44.4685 126.625C44.7205 126.64 44.9653 126.611 45.2101 126.582C45.4189 126.553 45.5629 126.366 45.5341 126.164C45.5053 125.963 45.3181 125.811 45.1165 125.84C44.9149 125.869 44.7133 125.891 44.5045 125.876C44.4181 125.869 44.3389 125.862 44.2525 125.848L44.3029 125.804C44.6557 125.502 45.0301 125.207 45.3397 124.861C45.4045 124.789 45.5341 124.66 45.6133 124.537C45.6781 124.429 45.7141 124.321 45.7213 124.235C45.7285 124.062 45.6493 123.961 45.5629 123.896C45.5053 123.86 45.4333 123.824 45.3397 123.824C45.3109 123.824 45.2533 123.839 45.2101 123.846C45.1669 123.853 45.1237 123.853 45.0877 123.86C44.9365 123.875 44.7853 123.882 44.6269 123.889C44.2093 123.904 43.7989 123.831 43.3885 123.788C43.1797 123.767 42.9997 123.911 42.9709 124.12C42.9493 124.321 43.0933 124.508 43.3021 124.537C43.6981 124.595 44.1013 124.66 44.5117 124.66Z" fill="#171718"/>
<path fill-rule="evenodd" clip-rule="evenodd" d="M46.148 155.115C46.8104 155.202 47.4584 155.331 48.1136 155.432C48.3152 155.461 48.5096 155.324 48.5384 155.123C48.5672 154.921 48.4304 154.727 48.2288 154.691C47.5664 154.59 46.9112 154.46 46.2488 154.374C46.0472 154.345 45.8528 154.489 45.824 154.698C45.7952 154.907 45.9392 155.087 46.148 155.115Z" fill="#171718"/>
<path fill-rule="evenodd" clip-rule="evenodd" d="M67.7969 152.912C67.7825 152.855 67.7609 152.797 67.7465 152.768C67.4657 152.149 66.9186 151.724 66.2202 151.76C65.673 151.782 65.1762 152.077 64.7874 152.444C64.7586 152.473 64.7297 152.502 64.7009 152.531C64.5641 152.25 64.377 151.991 64.1322 151.782C62.8506 150.673 61.065 151.551 60.3738 152.847C60.273 153.027 60.345 153.258 60.5322 153.359C60.7122 153.452 60.9426 153.387 61.0362 153.2C61.5186 152.293 62.7354 151.573 63.6354 152.351C63.8154 152.509 63.9521 152.718 64.0529 152.934C64.0745 152.991 64.1033 153.135 64.1465 153.243C64.1969 153.373 64.2617 153.459 64.3265 153.503C64.3553 153.524 64.5785 153.69 64.8089 153.488C64.8305 153.467 64.9313 153.366 64.9529 153.337C65.0681 153.222 65.1833 153.099 65.2985 152.984C65.5577 152.739 65.8817 152.523 66.2489 152.502C66.6305 152.487 66.9114 152.732 67.0554 153.071C67.0914 153.143 67.1057 153.287 67.1345 153.395C67.1705 153.51 67.2209 153.596 67.2785 153.661C67.3217 153.711 67.4369 153.812 67.6385 153.776C67.7105 153.762 68.0057 153.632 68.0489 153.611C68.3513 153.481 68.6465 153.366 68.9705 153.344C69.1793 153.33 69.3378 153.157 69.3234 152.948C69.309 152.739 69.1362 152.581 68.9274 152.595C68.5386 152.631 68.1641 152.761 67.7969 152.912Z" fill="#171718"/>
<path fill-rule="evenodd" clip-rule="evenodd" d="M118.011 156.449C119.048 156.434 120.07 156.355 121.1 156.262C121.308 156.24 121.46 156.06 121.438 155.851C121.416 155.642 121.236 155.491 121.028 155.513C120.02 155.606 119.012 155.678 117.996 155.7C117.788 155.7 117.622 155.873 117.629 156.082C117.629 156.283 117.802 156.449 118.011 156.449Z" fill="#171718"/>
<path fill-rule="evenodd" clip-rule="evenodd" d="M128.396 147.663C128.453 147.555 128.511 147.455 128.59 147.361C128.756 147.152 129.008 146.972 129.274 147.059C129.576 147.152 129.764 147.462 129.9 147.735C129.951 147.843 130.001 147.951 130.044 148.059C130.052 148.095 130.066 148.218 130.08 148.261C130.102 148.333 130.145 148.383 130.181 148.419C130.296 148.535 130.433 148.592 130.635 148.499C130.714 148.463 130.8 148.391 130.88 148.29C130.952 148.189 131.024 148.045 131.081 147.98C131.283 147.743 131.542 147.563 131.808 147.779C131.967 147.908 132.204 147.887 132.334 147.728C132.464 147.57 132.442 147.332 132.284 147.203C132.01 146.979 131.736 146.907 131.477 146.929C131.153 146.951 130.844 147.138 130.584 147.419L130.577 147.411C130.361 146.965 130.001 146.504 129.512 146.346C128.95 146.166 128.381 146.439 128.028 146.871C127.899 146.605 127.733 146.36 127.474 146.159C126.92 145.712 126.308 145.691 125.732 145.914C124.976 146.209 124.292 146.958 123.946 147.577C123.845 147.757 123.91 147.987 124.09 148.088C124.27 148.189 124.5 148.124 124.601 147.944C124.832 147.527 125.249 147.037 125.732 146.749C126.135 146.504 126.596 146.411 127.006 146.742C127.366 147.03 127.46 147.44 127.632 147.843C127.697 148.002 127.812 148.045 127.877 148.067C127.992 148.103 128.108 148.088 128.223 148.002C128.259 147.973 128.309 147.923 128.352 147.829C128.36 147.786 128.388 147.685 128.396 147.663Z" fill="#171718"/>
<path fill-rule="evenodd" clip-rule="evenodd" d="M136.021 153.786C136.595 153.759 137.17 153.745 137.744 153.718C137.948 153.704 138.115 153.534 138.096 153.322C138.078 153.117 137.911 152.954 137.707 152.967C137.133 152.995 136.558 153.008 136.002 153.035C135.798 153.042 135.631 153.22 135.65 153.425C135.631 153.636 135.817 153.8 136.021 153.786Z" fill="#171718"/>
<path fill-rule="evenodd" clip-rule="evenodd" d="M45.4022 133.645C45.4022 133.645 49.2255 131.996 51.5151 132.947C51.5151 132.947 53.7327 131.01 55.0071 131.543C56.2743 132.075 57.1094 133.983 56.9655 135.143C56.8214 136.295 55.1439 136.136 55.1439 136.136C55.1439 136.136 56.4471 137.929 57.3399 138.966C58.2327 140.003 58.5279 142.674 55.4319 144.337C52.3359 146 48.4407 145.215 45.7119 143.358C42.9759 141.507 42.9687 138.966 42.9687 138.966C42.9687 138.966 41.0751 139.34 40.9599 137.922C40.8375 136.489 41.7374 131.744 45.4022 133.645Z" fill="white"/>
<path fill-rule="evenodd" clip-rule="evenodd" d="M45.4204 133.235C44.4988 132.795 43.7356 132.745 43.1164 132.925C42.13 133.213 41.4676 134.099 41.0716 135.107C40.654 136.165 40.5388 137.331 40.5892 137.936C40.6684 138.865 41.3092 139.218 41.95 139.333C42.1948 139.376 42.4396 139.376 42.634 139.369C42.7564 140.204 43.2748 142.148 45.5068 143.66C48.3508 145.583 52.3972 146.382 55.6156 144.654C59.0284 142.818 58.618 139.851 57.6316 138.714C57.0628 138.051 56.3212 137.087 55.8676 136.475C56.0404 136.446 56.2276 136.402 56.4004 136.338C56.8612 136.158 57.2644 135.812 57.3436 135.186C57.4228 134.545 57.2428 133.703 56.854 132.939C56.4652 132.169 55.8676 131.499 55.1548 131.197C54.5572 130.945 53.7796 131.125 53.0668 131.471C52.3684 131.809 51.742 132.284 51.4468 132.522C50.5108 132.205 49.366 132.241 48.3148 132.414C46.9972 132.637 45.838 133.069 45.4204 133.235ZM45.226 133.983C45.3268 134.034 45.442 134.041 45.55 133.998C45.55 133.998 46.8892 133.422 48.4372 133.163C49.4308 132.997 50.518 132.947 51.3748 133.299C51.5044 133.357 51.6556 133.328 51.7636 133.235C51.7636 133.235 52.5268 132.572 53.3908 132.147C53.8948 131.903 54.4348 131.715 54.8596 131.895C55.4212 132.133 55.8748 132.68 56.1844 133.285C56.494 133.897 56.6596 134.581 56.5948 135.099C56.5444 135.495 56.2132 135.639 55.9108 135.711C55.5364 135.798 55.1764 135.769 55.1764 135.769C55.0324 135.755 54.8884 135.827 54.8164 135.956C54.7444 136.086 54.7516 136.244 54.838 136.359C54.838 136.359 56.1556 138.167 57.0556 139.211C57.8548 140.139 58.0348 142.508 55.2556 144.006C52.282 145.604 48.5452 144.827 45.9244 143.048C43.3756 141.32 43.3468 138.966 43.3468 138.966C43.3468 138.85 43.2964 138.75 43.21 138.678C43.1236 138.606 43.0084 138.577 42.9004 138.599C42.9004 138.599 42.4972 138.678 42.0796 138.606C41.7412 138.548 41.3812 138.382 41.338 137.886C41.2948 137.353 41.41 136.323 41.77 135.395C42.0796 134.61 42.562 133.883 43.3324 133.659C43.8292 133.501 44.4628 133.58 45.226 133.983Z" fill="#171718"/>
<path fill-rule="evenodd" clip-rule="evenodd" d="M72.3273 134.912C72.3273 134.912 68.7993 134.509 66.6393 137.324C64.4361 140.197 65.8545 143.113 67.6329 144.243C67.8057 144.351 68.0361 144.301 68.1513 144.128C68.2593 143.955 68.2089 143.725 68.0361 143.61C66.5385 142.659 65.3793 140.204 67.2369 137.778C69.1377 135.301 72.2481 135.654 72.2481 135.654C72.4569 135.675 72.6369 135.531 72.6657 135.323C72.6801 135.128 72.5289 134.941 72.3273 134.912Z" fill="#171718"/>
<path fill-rule="evenodd" clip-rule="evenodd" d="M64.1321 142.775C64.1321 142.775 64.5713 141.414 64.0025 139.779C63.9377 139.585 63.7218 139.484 63.5274 139.549C63.333 139.621 63.2321 139.83 63.2969 140.024C63.7793 141.392 63.4194 142.537 63.4194 142.537C63.3546 142.731 63.4625 142.947 63.6641 143.005C63.8585 143.084 64.0673 142.976 64.1321 142.775Z" fill="#171718"/>
<path fill-rule="evenodd" clip-rule="evenodd" d="M75.0542 134.307C75.0542 134.307 80.6126 135.459 81.4406 140.528C82.247 145.482 78.5246 147.678 76.5086 147.354C75.7598 147.231 75.2846 146.979 75.0038 146.641C74.579 146.137 74.579 145.475 74.6222 144.942C74.6438 144.675 74.795 144.315 75.0398 143.963C75.623 143.113 76.775 142.307 78.2798 143.012C78.467 143.099 78.6902 143.019 78.7766 142.832C78.863 142.645 78.7838 142.422 78.5966 142.335C76.6598 141.435 75.1694 142.451 74.4206 143.545C74.0894 144.027 73.9094 144.524 73.8734 144.884C73.8086 145.597 73.859 146.468 74.4278 147.138C74.8022 147.584 75.407 147.951 76.3934 148.11C78.6974 148.477 83.1038 146.079 82.1822 140.42C81.275 134.876 75.2126 133.587 75.2126 133.587C75.011 133.544 74.8094 133.674 74.7662 133.875C74.723 134.063 74.8526 134.264 75.0542 134.307Z" fill="#171718"/>
<path fill-rule="evenodd" clip-rule="evenodd" d="M55.0872 148.074C55.0872 148.074 53.702 149.065 53.319 150.139C53.2488 150.332 53.3509 150.551 53.5488 150.622C53.7467 150.693 53.9573 150.59 54.0276 150.397C54.3467 149.502 55.5212 148.692 55.5212 148.692C55.6872 148.569 55.7319 148.338 55.6106 148.17C55.4957 147.997 55.2595 147.952 55.0872 148.074Z" fill="#171718"/>
<path fill-rule="evenodd" clip-rule="evenodd" d="M54.0793 147.059C54.0793 147.059 52.6942 148.05 52.3112 149.124C52.241 149.317 52.3431 149.536 52.541 149.607C52.7389 149.677 52.9495 149.575 53.0197 149.381C53.3389 148.487 54.5134 147.676 54.5134 147.676C54.6794 147.554 54.724 147.323 54.6028 147.155C54.4815 146.975 54.2517 146.936 54.0793 147.059Z" fill="#171718"/>
<path d="M100.217 38.2161C100.453 38.2161 100.644 38.0247 100.644 37.7885C100.644 37.5523 100.453 37.3608 100.217 37.3608C99.9805 37.3608 99.7891 37.5523 99.7891 37.7885C99.7891 38.0247 99.9805 38.2161 100.217 38.2161Z" fill="#171718"/>
<path fill-rule="evenodd" clip-rule="evenodd" d="M46.8351 140.082C46.8351 140.082 47.2743 140.478 47.8863 140.463C48.2751 140.456 48.7431 140.291 49.2039 139.715C49.3335 139.549 49.3047 139.319 49.1391 139.189C48.9735 139.059 48.7431 139.088 48.6135 139.254C48.3471 139.592 48.0951 139.714 47.8647 139.722C47.5551 139.729 47.3319 139.535 47.3319 139.535C47.1807 139.398 46.9431 139.412 46.7991 139.563C46.6695 139.707 46.6839 139.945 46.8351 140.082Z" fill="#171718"/>
<path fill-rule="evenodd" clip-rule="evenodd" d="M52.5681 139.11C52.5681 139.11 54.0512 139.88 54.8936 138.548C55.0016 138.375 54.9512 138.145 54.7784 138.03C54.6056 137.922 54.3753 137.972 54.2601 138.145C53.7777 138.908 52.9136 138.44 52.9136 138.44C52.7336 138.347 52.5032 138.411 52.4096 138.599C52.316 138.786 52.3809 139.009 52.5681 139.11Z" fill="#171718"/>
<path fill-rule="evenodd" clip-rule="evenodd" d="M52.432 143.62C53.1391 144.008 53.7475 144.076 54.2569 143.978C55.0173 143.826 55.5725 143.293 55.907 142.837C56.0895 142.586 56.1352 142.259 56.0211 141.963C55.907 141.674 55.6561 141.453 55.3519 141.385C54.2417 141.149 53.1239 141.598 52.4092 142.008C52.1202 142.175 51.9453 142.487 51.9453 142.822C51.9529 143.156 52.143 143.461 52.432 143.62ZM52.797 142.959C52.7361 142.928 52.7057 142.867 52.7057 142.807C52.7057 142.746 52.7361 142.685 52.7894 142.654C53.3749 142.32 54.295 141.917 55.1998 142.115C55.2531 142.13 55.3063 142.168 55.3215 142.221C55.3443 142.274 55.3367 142.335 55.2987 142.381C55.0554 142.715 54.66 143.118 54.1049 143.232C53.7399 143.308 53.3065 143.248 52.797 142.959Z" fill="#171718"/>
<path fill-rule="evenodd" clip-rule="evenodd" d="M43.1266 139.304C43.1266 139.304 44.6026 138.728 45.0634 136.223C45.0994 136.021 44.9626 135.827 44.761 135.783C44.5594 135.747 44.365 135.884 44.3218 136.086C43.9546 138.102 42.8314 138.613 42.8314 138.613C42.6442 138.692 42.5506 138.915 42.6298 139.103C42.7162 139.29 42.9322 139.383 43.1266 139.304Z" fill="#171718"/>
<path fill-rule="evenodd" clip-rule="evenodd" d="M55.4651 135.935C55.4651 135.935 55.0259 135.229 55.1051 134.487C55.1267 134.279 54.9755 134.099 54.7739 134.077C54.5651 134.055 54.3851 134.207 54.3635 134.415C54.2627 135.395 54.8315 136.331 54.8315 136.331C54.9395 136.503 55.1699 136.561 55.3499 136.453C55.5155 136.338 55.5731 136.107 55.4651 135.935Z" fill="#171718"/>
<path fill-rule="evenodd" clip-rule="evenodd" d="M40.3557 141.371C40.3557 141.371 38.4981 142.148 38.7789 143.927C39.0597 145.698 43.8405 146.569 46.5981 146.144C49.3485 145.719 49.6077 143.091 48.1245 142.314C46.6413 141.536 42.8685 141.111 40.3557 141.371Z" fill="white"/>
<path fill-rule="evenodd" clip-rule="evenodd" d="M40.3302 141.003C40.2942 141.003 40.2582 141.018 40.2222 141.032C40.2222 141.032 38.0982 141.947 38.415 143.991C38.5158 144.618 39.0558 145.187 39.9126 145.611C41.6478 146.475 44.6718 146.828 46.6662 146.526C47.5878 146.382 48.2574 146.007 48.7038 145.547C49.8198 144.387 49.5606 142.645 48.315 141.99C46.7814 141.183 42.915 140.73 40.3302 141.003ZM40.467 141.738C42.915 141.493 46.5294 141.889 47.9622 142.645C48.7902 143.084 48.8982 144.243 48.1638 145.021C47.811 145.388 47.2782 145.669 46.551 145.777C44.9526 146.022 42.6414 145.82 40.9926 145.244C40.467 145.064 40.0134 144.841 39.675 144.582C39.4014 144.366 39.1998 144.135 39.1638 143.869C38.9478 142.523 40.2006 141.86 40.467 141.738Z" fill="#171718"/>
<path fill-rule="evenodd" clip-rule="evenodd" d="M48.4511 144.868L46.4639 144.292C46.2623 144.234 46.0607 144.349 46.0031 144.551C45.9455 144.752 46.0607 144.954 46.2551 145.012L48.2424 145.588C48.444 145.645 48.6456 145.53 48.7104 145.336C48.768 145.134 48.6527 144.925 48.4511 144.868Z" fill="#171718"/>
<path fill-rule="evenodd" clip-rule="evenodd" d="M49.0103 143.567L47.0303 142.991C46.8287 142.933 46.6272 143.048 46.5696 143.25C46.512 143.451 46.6272 143.653 46.8216 143.711L48.8016 144.287C49.0032 144.344 49.212 144.229 49.2696 144.035C49.3272 143.833 49.2119 143.624 49.0103 143.567Z" fill="#171718"/>
<path fill-rule="evenodd" clip-rule="evenodd" d="M158.146 103.225C159.65 103.801 160.673 104.953 160.673 106.278C160.673 108.178 158.57 109.719 155.971 109.719C153.372 109.719 151.27 108.178 151.27 106.278C151.27 104.953 152.299 103.801 153.804 103.225L152.371 100.518H159.578L158.146 103.225Z" fill="white"/>
<path fill-rule="evenodd" clip-rule="evenodd" d="M158.674 103.045L159.913 100.698C159.978 100.582 159.97 100.439 159.906 100.331C159.834 100.215 159.718 100.151 159.582 100.151H152.374C152.245 100.151 152.122 100.223 152.05 100.331C151.986 100.446 151.978 100.582 152.043 100.698L153.282 103.045C151.834 103.729 150.898 104.931 150.898 106.285C150.898 107.142 151.273 107.941 151.914 108.582C152.828 109.496 154.304 110.101 155.974 110.101C157.645 110.101 159.121 109.496 160.035 108.582C160.683 107.941 161.058 107.142 161.058 106.285C161.058 104.931 160.122 103.722 158.674 103.045ZM157.818 103.052C157.767 103.146 157.76 103.261 157.796 103.362C157.832 103.462 157.911 103.542 158.012 103.578C159.358 104.089 160.302 105.097 160.302 106.285C160.302 106.947 159.999 107.559 159.502 108.056C158.703 108.848 157.422 109.359 155.974 109.359C154.527 109.359 153.238 108.855 152.446 108.056C151.95 107.559 151.647 106.947 151.647 106.285C151.647 105.097 152.598 104.096 153.937 103.578C154.038 103.542 154.117 103.462 154.153 103.362C154.189 103.261 154.182 103.146 154.131 103.052L152.994 100.892H158.955L157.818 103.052Z" fill="#171718"/>
</svg>
