<svg width="332" height="282" viewBox="0 0 332 282" fill="none" xmlns="http://www.w3.org/2000/svg">
<g clip-path="url(#clip0_1563_12812)">
<rect y="177" width="52" height="75" rx="8" fill="#F5F7FA"/>
<rect y="177" width="52" height="8" fill="#E2E8F0"/>
<g opacity="0.5">
<line y1="-1" x2="76" y2="-1" transform="matrix(0.743145 -0.669131 0.704907 0.7093 -2 202.854)" stroke="#E2E8F0" stroke-width="2"/>
<line y1="-1" x2="76" y2="-1" transform="matrix(0.743145 -0.669131 0.704907 0.7093 -2 217.708)" stroke="#E2E8F0" stroke-width="2"/>
<line y1="-1" x2="76" y2="-1" transform="matrix(0.743145 -0.669131 0.704907 0.7093 -2 232.562)" stroke="#E2E8F0" stroke-width="2"/>
<line y1="-1" x2="76" y2="-1" transform="matrix(0.743145 -0.669131 0.704907 0.7093 -2 247.416)" stroke="#E2E8F0" stroke-width="2"/>
<line y1="-1" x2="76" y2="-1" transform="matrix(0.743145 -0.669131 0.704907 0.7093 -2 262.27)" stroke="#E2E8F0" stroke-width="2"/>
<line y1="-1" x2="76" y2="-1" transform="matrix(0.743145 -0.669131 0.704907 0.7093 -2 277.124)" stroke="#E2E8F0" stroke-width="2"/>
</g>
<path d="M13.464 204V194.97H11.462V193.57H15.102V204H13.464ZM17.1824 204V202.81L20.0384 199.758C20.5984 199.161 21.0371 198.68 21.3544 198.316C21.6811 197.943 21.9144 197.616 22.0544 197.336C22.2038 197.056 22.2784 196.762 22.2784 196.454C22.2784 195.95 22.1244 195.563 21.8164 195.292C21.5084 195.012 21.1118 194.872 20.6264 194.872C20.1224 194.872 19.6884 195.017 19.3244 195.306C18.9604 195.586 18.7084 195.997 18.5684 196.538L17.1124 196.118C17.2244 195.567 17.4484 195.091 17.7844 194.69C18.1204 194.279 18.5311 193.962 19.0164 193.738C19.5111 193.514 20.0431 193.402 20.6124 193.402C21.2751 193.402 21.8538 193.528 22.3484 193.78C22.8431 194.023 23.2258 194.363 23.4964 194.802C23.7764 195.241 23.9164 195.749 23.9164 196.328C23.9164 196.711 23.8418 197.084 23.6924 197.448C23.5524 197.803 23.3331 198.181 23.0344 198.582C22.7358 198.974 22.3531 199.417 21.8864 199.912L19.3664 202.6H24.1124V204H17.1824ZM26.9216 204L35.4056 193.57H37.1696L28.6856 204H26.9216ZM28.5176 198.862C28.0043 198.862 27.5423 198.741 27.1316 198.498C26.7209 198.246 26.3896 197.915 26.1376 197.504C25.8949 197.093 25.7736 196.636 25.7736 196.132C25.7736 195.628 25.8949 195.171 26.1376 194.76C26.3896 194.34 26.7209 194.009 27.1316 193.766C27.5423 193.523 28.0043 193.402 28.5176 193.402C29.0309 193.402 29.4929 193.523 29.9036 193.766C30.3143 194.009 30.6409 194.34 30.8836 194.76C31.1263 195.171 31.2476 195.628 31.2476 196.132C31.2476 196.636 31.1263 197.093 30.8836 197.504C30.6409 197.915 30.3143 198.246 29.9036 198.498C29.4929 198.741 29.0309 198.862 28.5176 198.862ZM28.5176 197.588C28.8069 197.588 29.0543 197.518 29.2596 197.378C29.4743 197.238 29.6376 197.056 29.7496 196.832C29.8616 196.608 29.9176 196.375 29.9176 196.132C29.9176 195.88 29.8616 195.647 29.7496 195.432C29.6376 195.208 29.4743 195.026 29.2596 194.886C29.0543 194.746 28.8069 194.676 28.5176 194.676C28.2376 194.676 27.9903 194.746 27.7756 194.886C27.5609 195.026 27.3929 195.208 27.2716 195.432C27.1596 195.647 27.1036 195.88 27.1036 196.132C27.1036 196.375 27.1596 196.608 27.2716 196.832C27.3929 197.056 27.5609 197.238 27.7756 197.378C27.9903 197.518 28.2376 197.588 28.5176 197.588ZM35.5036 204.168C34.9903 204.168 34.5236 204.047 34.1036 203.804C33.6929 203.552 33.3663 203.221 33.1236 202.81C32.8809 202.399 32.7596 201.942 32.7596 201.438C32.7596 200.934 32.8809 200.477 33.1236 200.066C33.3663 199.646 33.6929 199.315 34.1036 199.072C34.5236 198.829 34.9903 198.708 35.5036 198.708C36.0169 198.708 36.4789 198.829 36.8896 199.072C37.3003 199.315 37.6269 199.646 37.8696 200.066C38.1123 200.477 38.2336 200.934 38.2336 201.438C38.2336 201.942 38.1123 202.399 37.8696 202.81C37.6269 203.221 37.3003 203.552 36.8896 203.804C36.4789 204.047 36.0169 204.168 35.5036 204.168ZM35.5036 202.894C35.7929 202.894 36.0403 202.824 36.2456 202.684C36.4509 202.544 36.6096 202.362 36.7216 202.138C36.8429 201.914 36.9036 201.681 36.9036 201.438C36.9036 201.186 36.8429 200.953 36.7216 200.738C36.6096 200.514 36.4509 200.332 36.2456 200.192C36.0403 200.052 35.7929 199.982 35.5036 199.982C35.2236 199.982 34.9763 200.052 34.7616 200.192C34.5469 200.332 34.3789 200.514 34.2576 200.738C34.1456 200.953 34.0896 201.186 34.0896 201.438C34.0896 201.681 34.1456 201.914 34.2576 202.138C34.3789 202.362 34.5469 202.544 34.7616 202.684C34.9763 202.824 35.2236 202.894 35.5036 202.894Z" fill="#171718"/>
</g>
<path d="M17.1589 276.5V275.18H17.6749C18.0749 275.18 18.3949 275.064 18.6349 274.832C18.8749 274.592 18.9949 274.272 18.9949 273.872V267.56H20.3989V273.824C20.3989 274.368 20.2869 274.84 20.0629 275.24C19.8469 275.64 19.5309 275.952 19.1149 276.176C18.7069 276.392 18.2269 276.5 17.6749 276.5H17.1589ZM24.4146 276.644C23.9266 276.644 23.4986 276.536 23.1306 276.32C22.7626 276.096 22.4746 275.788 22.2666 275.396C22.0666 274.996 21.9666 274.536 21.9666 274.016V270.008H23.3226V273.896C23.3226 274.192 23.3826 274.452 23.5026 274.676C23.6226 274.9 23.7906 275.076 24.0066 275.204C24.2226 275.324 24.4706 275.384 24.7506 275.384C25.0386 275.384 25.2906 275.32 25.5066 275.192C25.7226 275.064 25.8906 274.884 26.0106 274.652C26.1386 274.42 26.2026 274.148 26.2026 273.836V270.008H27.5466V276.5H26.2626V275.228L26.4066 275.396C26.2546 275.796 26.0026 276.104 25.6506 276.32C25.2986 276.536 24.8866 276.644 24.4146 276.644ZM29.1299 276.5V270.008H30.4259V271.28L30.2699 271.112C30.4299 270.704 30.6859 270.396 31.0379 270.188C31.3899 269.972 31.7979 269.864 32.2619 269.864C32.7419 269.864 33.1659 269.968 33.5339 270.176C33.9019 270.384 34.1899 270.672 34.3979 271.04C34.6059 271.408 34.7099 271.832 34.7099 272.312V276.5H33.3659V272.672C33.3659 272.344 33.3059 272.068 33.1859 271.844C33.0659 271.612 32.8939 271.436 32.6699 271.316C32.4539 271.188 32.2059 271.124 31.9259 271.124C31.6459 271.124 31.3939 271.188 31.1699 271.316C30.9539 271.436 30.7859 271.612 30.6659 271.844C30.5459 272.076 30.4859 272.352 30.4859 272.672V276.5H29.1299Z" fill="#6B7280"/>
<g clip-path="url(#clip1_1563_12812)">
<rect x="56" y="71" width="52" height="181" rx="8" fill="#F5F7FA"/>
<rect x="55.833" y="71" width="52" height="8" fill="#E2E8F0"/>
<g opacity="0.5">
<line y1="-1" x2="76" y2="-1" transform="matrix(0.743145 -0.669131 0.704907 0.7093 54 90.8539)" stroke="#E2E8F0" stroke-width="2"/>
<line y1="-1" x2="76" y2="-1" transform="matrix(0.743145 -0.669131 0.704907 0.7093 54 105.708)" stroke="#E2E8F0" stroke-width="2"/>
<line y1="-1" x2="76" y2="-1" transform="matrix(0.743145 -0.669131 0.704907 0.7093 54 120.562)" stroke="#E2E8F0" stroke-width="2"/>
<line y1="-1" x2="76" y2="-1" transform="matrix(0.743145 -0.669131 0.704907 0.7093 54 135.416)" stroke="#E2E8F0" stroke-width="2"/>
<line y1="-1" x2="76" y2="-1" transform="matrix(0.743145 -0.669131 0.704907 0.7093 54 150.27)" stroke="#E2E8F0" stroke-width="2"/>
<line y1="-1" x2="76" y2="-1" transform="matrix(0.743145 -0.669131 0.704907 0.7093 54 165.124)" stroke="#E2E8F0" stroke-width="2"/>
<line y1="-1" x2="76" y2="-1" transform="matrix(0.743145 -0.669131 0.704907 0.7093 54 179.978)" stroke="#E2E8F0" stroke-width="2"/>
<line y1="-1" x2="76" y2="-1" transform="matrix(0.743145 -0.669131 0.704907 0.7093 54 194.831)" stroke="#E2E8F0" stroke-width="2"/>
<line y1="-1" x2="76" y2="-1" transform="matrix(0.743145 -0.669131 0.704907 0.7093 54 209.685)" stroke="#E2E8F0" stroke-width="2"/>
<line y1="-1" x2="76" y2="-1" transform="matrix(0.743145 -0.669131 0.704907 0.7093 54 224.539)" stroke="#E2E8F0" stroke-width="2"/>
<line y1="-1" x2="76" y2="-1" transform="matrix(0.743145 -0.669131 0.704907 0.7093 54 239.393)" stroke="#E2E8F0" stroke-width="2"/>
<line y1="-1" x2="76" y2="-1" transform="matrix(0.743145 -0.669131 0.704907 0.7093 54 254.247)" stroke="#E2E8F0" stroke-width="2"/>
<line y1="-1" x2="76" y2="-1" transform="matrix(0.743145 -0.669131 0.704907 0.7093 54 269.101)" stroke="#E2E8F0" stroke-width="2"/>
<line y1="-1" x2="76" y2="-1" transform="matrix(0.743145 -0.669131 0.704907 0.7093 54 283.955)" stroke="#E2E8F0" stroke-width="2"/>
</g>
<path d="M67.05 98L71.502 88.97H66.49V87.57H73.224V88.97L68.842 98H67.05ZM78.162 98.168C77.434 98.168 76.7946 98.028 76.244 97.748C75.7026 97.4587 75.2826 97.076 74.984 96.6C74.6853 96.1147 74.536 95.578 74.536 94.99C74.536 94.318 74.718 93.7393 75.082 93.254C75.4553 92.7593 75.978 92.4 76.65 92.176L76.58 92.596C76.0853 92.4093 75.6933 92.0967 75.404 91.658C75.124 91.21 74.984 90.72 74.984 90.188C74.984 89.656 75.1193 89.18 75.39 88.76C75.67 88.34 76.048 88.0087 76.524 87.766C77.0093 87.5233 77.5553 87.402 78.162 87.402C78.778 87.402 79.324 87.5233 79.8 87.766C80.276 87.9993 80.6493 88.326 80.92 88.746C81.2 89.166 81.34 89.6467 81.34 90.188C81.34 90.7387 81.1953 91.2333 80.906 91.672C80.626 92.1013 80.2433 92.4093 79.758 92.596L79.688 92.176C80.36 92.4093 80.8826 92.7687 81.256 93.254C81.6293 93.7393 81.816 94.318 81.816 94.99C81.816 95.578 81.662 96.1147 81.354 96.6C81.0553 97.076 80.6306 97.4587 80.08 97.748C79.5293 98.028 78.89 98.168 78.162 98.168ZM78.162 96.768C78.5633 96.768 78.9133 96.6933 79.212 96.544C79.5106 96.3853 79.744 96.1707 79.912 95.9C80.08 95.6293 80.164 95.312 80.164 94.948C80.164 94.584 80.08 94.2667 79.912 93.996C79.744 93.7253 79.5106 93.5153 79.212 93.366C78.9133 93.2167 78.5633 93.142 78.162 93.142C77.77 93.142 77.4246 93.2167 77.126 93.366C76.8273 93.5153 76.594 93.7253 76.426 93.996C76.258 94.2667 76.174 94.584 76.174 94.948C76.174 95.312 76.258 95.6293 76.426 95.9C76.594 96.1707 76.8273 96.3853 77.126 96.544C77.4246 96.6933 77.77 96.768 78.162 96.768ZM78.162 91.742C78.4606 91.742 78.722 91.6813 78.946 91.56C79.1793 91.4293 79.3613 91.252 79.492 91.028C79.6226 90.804 79.688 90.552 79.688 90.272C79.688 89.9827 79.6226 89.7307 79.492 89.516C79.3613 89.292 79.1793 89.1193 78.946 88.998C78.722 88.8673 78.4606 88.802 78.162 88.802C77.8726 88.802 77.6113 88.8673 77.378 88.998C77.1446 89.1193 76.9626 89.292 76.832 89.516C76.7013 89.7307 76.636 89.9827 76.636 90.272C76.636 90.552 76.7013 90.804 76.832 91.028C76.9626 91.252 77.1446 91.4293 77.378 91.56C77.6113 91.6813 77.8726 91.742 78.162 91.742ZM84.656 98L93.14 87.57H94.904L86.42 98H84.656ZM86.252 92.862C85.7387 92.862 85.2767 92.7407 84.866 92.498C84.4553 92.246 84.124 91.9147 83.872 91.504C83.6293 91.0933 83.508 90.636 83.508 90.132C83.508 89.628 83.6293 89.1707 83.872 88.76C84.124 88.34 84.4553 88.0087 84.866 87.766C85.2767 87.5233 85.7387 87.402 86.252 87.402C86.7653 87.402 87.2273 87.5233 87.638 87.766C88.0487 88.0087 88.3753 88.34 88.618 88.76C88.8607 89.1707 88.982 89.628 88.982 90.132C88.982 90.636 88.8607 91.0933 88.618 91.504C88.3753 91.9147 88.0487 92.246 87.638 92.498C87.2273 92.7407 86.7653 92.862 86.252 92.862ZM86.252 91.588C86.5413 91.588 86.7887 91.518 86.994 91.378C87.2087 91.238 87.372 91.056 87.484 90.832C87.596 90.608 87.652 90.3747 87.652 90.132C87.652 89.88 87.596 89.6467 87.484 89.432C87.372 89.208 87.2087 89.026 86.994 88.886C86.7887 88.746 86.5413 88.676 86.252 88.676C85.972 88.676 85.7247 88.746 85.51 88.886C85.2953 89.026 85.1273 89.208 85.006 89.432C84.894 89.6467 84.838 89.88 84.838 90.132C84.838 90.3747 84.894 90.608 85.006 90.832C85.1273 91.056 85.2953 91.238 85.51 91.378C85.7247 91.518 85.972 91.588 86.252 91.588ZM93.238 98.168C92.7247 98.168 92.258 98.0467 91.838 97.804C91.4273 97.552 91.1007 97.2207 90.858 96.81C90.6153 96.3993 90.494 95.942 90.494 95.438C90.494 94.934 90.6153 94.4767 90.858 94.066C91.1007 93.646 91.4273 93.3147 91.838 93.072C92.258 92.8293 92.7247 92.708 93.238 92.708C93.7513 92.708 94.2133 92.8293 94.624 93.072C95.0347 93.3147 95.3613 93.646 95.604 94.066C95.8467 94.4767 95.968 94.934 95.968 95.438C95.968 95.942 95.8467 96.3993 95.604 96.81C95.3613 97.2207 95.0347 97.552 94.624 97.804C94.2133 98.0467 93.7513 98.168 93.238 98.168ZM93.238 96.894C93.5273 96.894 93.7747 96.824 93.98 96.684C94.1853 96.544 94.344 96.362 94.456 96.138C94.5773 95.914 94.638 95.6807 94.638 95.438C94.638 95.186 94.5773 94.9527 94.456 94.738C94.344 94.514 94.1853 94.332 93.98 94.192C93.7747 94.052 93.5273 93.982 93.238 93.982C92.958 93.982 92.7107 94.052 92.496 94.192C92.2813 94.332 92.1133 94.514 91.992 94.738C91.88 94.9527 91.824 95.186 91.824 95.438C91.824 95.6807 91.88 95.914 91.992 96.138C92.1133 96.362 92.2813 96.544 92.496 96.684C92.7107 96.824 92.958 96.894 93.238 96.894Z" fill="#171718"/>
</g>
<path d="M75.2038 276.5V275.18H75.7198C76.1198 275.18 76.4398 275.064 76.6798 274.832C76.9198 274.592 77.0398 274.272 77.0398 273.872V267.56H78.4438V273.824C78.4438 274.368 78.3318 274.84 78.1078 275.24C77.8918 275.64 77.5758 275.952 77.1598 276.176C76.7518 276.392 76.2718 276.5 75.7198 276.5H75.2038ZM82.4596 276.644C81.9716 276.644 81.5436 276.536 81.1756 276.32C80.8076 276.096 80.5196 275.788 80.3116 275.396C80.1116 274.996 80.0116 274.536 80.0116 274.016V270.008H81.3676V273.896C81.3676 274.192 81.4276 274.452 81.5476 274.676C81.6676 274.9 81.8356 275.076 82.0516 275.204C82.2676 275.324 82.5156 275.384 82.7956 275.384C83.0836 275.384 83.3356 275.32 83.5516 275.192C83.7676 275.064 83.9356 274.884 84.0556 274.652C84.1836 274.42 84.2476 274.148 84.2476 273.836V270.008H85.5916V276.5H84.3076V275.228L84.4516 275.396C84.2996 275.796 84.0476 276.104 83.6956 276.32C83.3436 276.536 82.9316 276.644 82.4596 276.644ZM87.1748 276.5V267.416H88.5308V276.5H87.1748Z" fill="#6B7280"/>
<g clip-path="url(#clip2_1563_12812)">
<rect x="112" y="134" width="52" height="118" rx="8" fill="#F5F7FA"/>
<rect x="111.667" y="134" width="52" height="8" fill="#E2E8F0"/>
<g opacity="0.5">
<line y1="-1" x2="76" y2="-1" transform="matrix(0.743145 -0.669131 0.704907 0.7093 110 143.708)" stroke="#E2E8F0" stroke-width="2"/>
<line y1="-1" x2="76" y2="-1" transform="matrix(0.743145 -0.669131 0.704907 0.7093 110 158.562)" stroke="#E2E8F0" stroke-width="2"/>
<line y1="-1" x2="76" y2="-1" transform="matrix(0.743145 -0.669131 0.704907 0.7093 110 173.416)" stroke="#E2E8F0" stroke-width="2"/>
<line y1="-1" x2="76" y2="-1" transform="matrix(0.743145 -0.669131 0.704907 0.7093 110 188.27)" stroke="#E2E8F0" stroke-width="2"/>
<line y1="-1" x2="76" y2="-1" transform="matrix(0.743145 -0.669131 0.704907 0.7093 110 203.124)" stroke="#E2E8F0" stroke-width="2"/>
<line y1="-1" x2="76" y2="-1" transform="matrix(0.743145 -0.669131 0.704907 0.7093 110 217.978)" stroke="#E2E8F0" stroke-width="2"/>
<line y1="-1" x2="76" y2="-1" transform="matrix(0.743145 -0.669131 0.704907 0.7093 110 232.831)" stroke="#E2E8F0" stroke-width="2"/>
<line y1="-1" x2="76" y2="-1" transform="matrix(0.743145 -0.669131 0.704907 0.7093 110 247.685)" stroke="#E2E8F0" stroke-width="2"/>
<line y1="-1" x2="76" y2="-1" transform="matrix(0.743145 -0.669131 0.704907 0.7093 110 262.539)" stroke="#E2E8F0" stroke-width="2"/>
<line y1="-1" x2="76" y2="-1" transform="matrix(0.743145 -0.669131 0.704907 0.7093 110 277.393)" stroke="#E2E8F0" stroke-width="2"/>
<line y1="-1" x2="76" y2="-1" transform="matrix(0.743145 -0.669131 0.704907 0.7093 110 292.247)" stroke="#E2E8F0" stroke-width="2"/>
</g>
<path d="M126.214 161.168C125.533 161.168 124.926 161.019 124.394 160.72C123.862 160.421 123.442 160.011 123.134 159.488C122.835 158.965 122.686 158.373 122.686 157.71C122.686 157.365 122.723 157.019 122.798 156.674C122.873 156.329 123.003 155.969 123.19 155.596C123.386 155.223 123.647 154.821 123.974 154.392L126.886 150.57H128.86L125.29 155.19L125.01 155.008C125.141 154.859 125.281 154.742 125.43 154.658C125.589 154.574 125.752 154.513 125.92 154.476C126.097 154.439 126.284 154.42 126.48 154.42C127.105 154.42 127.665 154.565 128.16 154.854C128.655 155.143 129.042 155.535 129.322 156.03C129.611 156.525 129.756 157.094 129.756 157.738C129.756 158.391 129.602 158.979 129.294 159.502C128.986 160.015 128.566 160.421 128.034 160.72C127.511 161.019 126.905 161.168 126.214 161.168ZM126.214 159.698C126.578 159.698 126.9 159.614 127.18 159.446C127.46 159.278 127.684 159.049 127.852 158.76C128.02 158.461 128.104 158.125 128.104 157.752C128.104 157.369 128.02 157.033 127.852 156.744C127.693 156.455 127.469 156.231 127.18 156.072C126.9 155.904 126.578 155.82 126.214 155.82C125.859 155.82 125.537 155.904 125.248 156.072C124.968 156.231 124.744 156.455 124.576 156.744C124.408 157.033 124.324 157.369 124.324 157.752C124.324 158.125 124.408 158.461 124.576 158.76C124.744 159.049 124.968 159.278 125.248 159.446C125.537 159.614 125.859 159.698 126.214 159.698ZM131.108 161V159.81L133.964 156.758C134.524 156.161 134.963 155.68 135.28 155.316C135.607 154.943 135.84 154.616 135.98 154.336C136.13 154.056 136.204 153.762 136.204 153.454C136.204 152.95 136.05 152.563 135.742 152.292C135.434 152.012 135.038 151.872 134.552 151.872C134.048 151.872 133.614 152.017 133.25 152.306C132.886 152.586 132.634 152.997 132.494 153.538L131.038 153.118C131.15 152.567 131.374 152.091 131.71 151.69C132.046 151.279 132.457 150.962 132.942 150.738C133.437 150.514 133.969 150.402 134.538 150.402C135.201 150.402 135.78 150.528 136.274 150.78C136.769 151.023 137.152 151.363 137.422 151.802C137.702 152.241 137.842 152.749 137.842 153.328C137.842 153.711 137.768 154.084 137.618 154.448C137.478 154.803 137.259 155.181 136.96 155.582C136.662 155.974 136.279 156.417 135.812 156.912L133.292 159.6H138.038V161H131.108ZM140.847 161L149.331 150.57H151.095L142.611 161H140.847ZM142.443 155.862C141.93 155.862 141.468 155.741 141.057 155.498C140.647 155.246 140.315 154.915 140.063 154.504C139.821 154.093 139.699 153.636 139.699 153.132C139.699 152.628 139.821 152.171 140.063 151.76C140.315 151.34 140.647 151.009 141.057 150.766C141.468 150.523 141.93 150.402 142.443 150.402C142.957 150.402 143.419 150.523 143.829 150.766C144.24 151.009 144.567 151.34 144.809 151.76C145.052 152.171 145.173 152.628 145.173 153.132C145.173 153.636 145.052 154.093 144.809 154.504C144.567 154.915 144.24 155.246 143.829 155.498C143.419 155.741 142.957 155.862 142.443 155.862ZM142.443 154.588C142.733 154.588 142.98 154.518 143.185 154.378C143.4 154.238 143.563 154.056 143.675 153.832C143.787 153.608 143.843 153.375 143.843 153.132C143.843 152.88 143.787 152.647 143.675 152.432C143.563 152.208 143.4 152.026 143.185 151.886C142.98 151.746 142.733 151.676 142.443 151.676C142.163 151.676 141.916 151.746 141.701 151.886C141.487 152.026 141.319 152.208 141.197 152.432C141.085 152.647 141.029 152.88 141.029 153.132C141.029 153.375 141.085 153.608 141.197 153.832C141.319 154.056 141.487 154.238 141.701 154.378C141.916 154.518 142.163 154.588 142.443 154.588ZM149.429 161.168C148.916 161.168 148.449 161.047 148.029 160.804C147.619 160.552 147.292 160.221 147.049 159.81C146.807 159.399 146.685 158.942 146.685 158.438C146.685 157.934 146.807 157.477 147.049 157.066C147.292 156.646 147.619 156.315 148.029 156.072C148.449 155.829 148.916 155.708 149.429 155.708C149.943 155.708 150.405 155.829 150.815 156.072C151.226 156.315 151.553 156.646 151.795 157.066C152.038 157.477 152.159 157.934 152.159 158.438C152.159 158.942 152.038 159.399 151.795 159.81C151.553 160.221 151.226 160.552 150.815 160.804C150.405 161.047 149.943 161.168 149.429 161.168ZM149.429 159.894C149.719 159.894 149.966 159.824 150.171 159.684C150.377 159.544 150.535 159.362 150.647 159.138C150.769 158.914 150.829 158.681 150.829 158.438C150.829 158.186 150.769 157.953 150.647 157.738C150.535 157.514 150.377 157.332 150.171 157.192C149.966 157.052 149.719 156.982 149.429 156.982C149.149 156.982 148.902 157.052 148.687 157.192C148.473 157.332 148.305 157.514 148.183 157.738C148.071 157.953 148.015 158.186 148.015 158.438C148.015 158.681 148.071 158.914 148.183 159.138C148.305 159.362 148.473 159.544 148.687 159.684C148.902 159.824 149.149 159.894 149.429 159.894Z" fill="#171718"/>
</g>
<path d="M126.589 276.5L129.733 267.56H131.485L134.629 276.5H133.117L132.433 274.496H128.797L128.101 276.5H126.589ZM129.205 273.236H132.001L130.417 268.556H130.813L129.205 273.236ZM137.756 276.644C137.268 276.644 136.84 276.536 136.472 276.32C136.104 276.096 135.816 275.788 135.608 275.396C135.408 274.996 135.308 274.536 135.308 274.016V270.008H136.664V273.896C136.664 274.192 136.724 274.452 136.844 274.676C136.964 274.9 137.132 275.076 137.348 275.204C137.564 275.324 137.812 275.384 138.092 275.384C138.38 275.384 138.632 275.32 138.848 275.192C139.064 275.064 139.232 274.884 139.352 274.652C139.48 274.42 139.544 274.148 139.544 273.836V270.008H140.888V276.5H139.604V275.228L139.748 275.396C139.596 275.796 139.344 276.104 138.992 276.32C138.64 276.536 138.228 276.644 137.756 276.644ZM145.604 279.14C145.132 279.14 144.696 279.064 144.296 278.912C143.896 278.76 143.552 278.548 143.264 278.276C142.976 278.012 142.76 277.7 142.616 277.34L143.864 276.824C143.976 277.128 144.18 277.38 144.476 277.58C144.78 277.78 145.152 277.88 145.592 277.88C145.936 277.88 146.244 277.812 146.516 277.676C146.788 277.548 147.004 277.356 147.164 277.1C147.324 276.852 147.404 276.552 147.404 276.2V274.736L147.644 275.012C147.42 275.428 147.108 275.744 146.708 275.96C146.316 276.176 145.872 276.284 145.376 276.284C144.776 276.284 144.236 276.144 143.756 275.864C143.276 275.584 142.896 275.2 142.616 274.712C142.344 274.224 142.208 273.676 142.208 273.068C142.208 272.452 142.344 271.904 142.616 271.424C142.896 270.944 143.272 270.564 143.744 270.284C144.216 270.004 144.756 269.864 145.364 269.864C145.86 269.864 146.3 269.972 146.684 270.188C147.076 270.396 147.396 270.7 147.644 271.1L147.464 271.436V270.008H148.748V276.2C148.748 276.76 148.612 277.26 148.34 277.7C148.076 278.148 147.708 278.5 147.236 278.756C146.764 279.012 146.22 279.14 145.604 279.14ZM145.532 275.024C145.892 275.024 146.212 274.94 146.492 274.772C146.772 274.596 146.992 274.364 147.152 274.076C147.32 273.78 147.404 273.448 147.404 273.08C147.404 272.712 147.32 272.38 147.152 272.084C146.984 271.788 146.76 271.556 146.48 271.388C146.2 271.212 145.884 271.124 145.532 271.124C145.164 271.124 144.836 271.212 144.548 271.388C144.26 271.556 144.032 271.788 143.864 272.084C143.704 272.372 143.624 272.704 143.624 273.08C143.624 273.44 143.704 273.768 143.864 274.064C144.032 274.36 144.26 274.596 144.548 274.772C144.836 274.94 145.164 275.024 145.532 275.024Z" fill="#6B7280"/>
<g clip-path="url(#clip3_1563_12812)">
<rect x="168" y="90" width="52" height="162" rx="8" fill="#F5F7FA"/>
<rect x="168.5" y="90" width="52" height="8" fill="#E2E8F0"/>
<g opacity="0.5">
<line y1="-1" x2="76" y2="-1" transform="matrix(0.743145 -0.669131 0.704907 0.7093 166 106.854)" stroke="#E2E8F0" stroke-width="2"/>
<line y1="-1" x2="76" y2="-1" transform="matrix(0.743145 -0.669131 0.704907 0.7093 166 121.708)" stroke="#E2E8F0" stroke-width="2"/>
<line y1="-1" x2="76" y2="-1" transform="matrix(0.743145 -0.669131 0.704907 0.7093 166 136.562)" stroke="#E2E8F0" stroke-width="2"/>
<line y1="-1" x2="76" y2="-1" transform="matrix(0.743145 -0.669131 0.704907 0.7093 166 151.416)" stroke="#E2E8F0" stroke-width="2"/>
<line y1="-1" x2="76" y2="-1" transform="matrix(0.743145 -0.669131 0.704907 0.7093 166 166.27)" stroke="#E2E8F0" stroke-width="2"/>
<line y1="-1" x2="76" y2="-1" transform="matrix(0.743145 -0.669131 0.704907 0.7093 166 181.124)" stroke="#E2E8F0" stroke-width="2"/>
<line y1="-1" x2="76" y2="-1" transform="matrix(0.743145 -0.669131 0.704907 0.7093 166 195.978)" stroke="#E2E8F0" stroke-width="2"/>
<line y1="-1" x2="76" y2="-1" transform="matrix(0.743145 -0.669131 0.704907 0.7093 166 210.831)" stroke="#E2E8F0" stroke-width="2"/>
<line y1="-1" x2="76" y2="-1" transform="matrix(0.743145 -0.669131 0.704907 0.7093 166 225.685)" stroke="#E2E8F0" stroke-width="2"/>
<line y1="-1" x2="76" y2="-1" transform="matrix(0.743145 -0.669131 0.704907 0.7093 166 240.539)" stroke="#E2E8F0" stroke-width="2"/>
<line y1="-1" x2="76" y2="-1" transform="matrix(0.743145 -0.669131 0.704907 0.7093 166 255.393)" stroke="#E2E8F0" stroke-width="2"/>
<line y1="-1" x2="76" y2="-1" transform="matrix(0.743145 -0.669131 0.704907 0.7093 166 270.247)" stroke="#E2E8F0" stroke-width="2"/>
<line y1="-1" x2="76" y2="-1" transform="matrix(0.743145 -0.669131 0.704907 0.7093 166 285.101)" stroke="#E2E8F0" stroke-width="2"/>
</g>
<path d="M178.05 117L182.502 107.97H177.49V106.57H184.224V107.97L179.842 117H178.05ZM189.778 117.168C188.947 117.168 188.219 116.944 187.594 116.496C186.969 116.039 186.479 115.409 186.124 114.606C185.779 113.794 185.606 112.851 185.606 111.778C185.606 110.695 185.779 109.753 186.124 108.95C186.479 108.147 186.964 107.522 187.58 107.074C188.205 106.626 188.933 106.402 189.764 106.402C190.595 106.402 191.318 106.626 191.934 107.074C192.559 107.522 193.045 108.152 193.39 108.964C193.745 109.767 193.922 110.705 193.922 111.778C193.922 112.851 193.749 113.794 193.404 114.606C193.059 115.409 192.573 116.039 191.948 116.496C191.332 116.944 190.609 117.168 189.778 117.168ZM189.778 115.656C190.291 115.656 190.735 115.497 191.108 115.18C191.481 114.863 191.771 114.415 191.976 113.836C192.181 113.257 192.284 112.571 192.284 111.778C192.284 110.985 192.181 110.299 191.976 109.72C191.771 109.141 191.481 108.693 191.108 108.376C190.735 108.059 190.287 107.9 189.764 107.9C189.251 107.9 188.807 108.059 188.434 108.376C188.061 108.693 187.771 109.141 187.566 109.72C187.361 110.299 187.258 110.985 187.258 111.778C187.258 112.562 187.361 113.248 187.566 113.836C187.771 114.415 188.061 114.863 188.434 115.18C188.817 115.497 189.265 115.656 189.778 115.656ZM196.845 117L205.329 106.57H207.093L198.609 117H196.845ZM198.441 111.862C197.928 111.862 197.466 111.741 197.055 111.498C196.645 111.246 196.313 110.915 196.061 110.504C195.819 110.093 195.697 109.636 195.697 109.132C195.697 108.628 195.819 108.171 196.061 107.76C196.313 107.34 196.645 107.009 197.055 106.766C197.466 106.523 197.928 106.402 198.441 106.402C198.955 106.402 199.417 106.523 199.827 106.766C200.238 107.009 200.565 107.34 200.807 107.76C201.05 108.171 201.171 108.628 201.171 109.132C201.171 109.636 201.05 110.093 200.807 110.504C200.565 110.915 200.238 111.246 199.827 111.498C199.417 111.741 198.955 111.862 198.441 111.862ZM198.441 110.588C198.731 110.588 198.978 110.518 199.183 110.378C199.398 110.238 199.561 110.056 199.673 109.832C199.785 109.608 199.841 109.375 199.841 109.132C199.841 108.88 199.785 108.647 199.673 108.432C199.561 108.208 199.398 108.026 199.183 107.886C198.978 107.746 198.731 107.676 198.441 107.676C198.161 107.676 197.914 107.746 197.699 107.886C197.485 108.026 197.317 108.208 197.195 108.432C197.083 108.647 197.027 108.88 197.027 109.132C197.027 109.375 197.083 109.608 197.195 109.832C197.317 110.056 197.485 110.238 197.699 110.378C197.914 110.518 198.161 110.588 198.441 110.588ZM205.427 117.168C204.914 117.168 204.447 117.047 204.027 116.804C203.617 116.552 203.29 116.221 203.047 115.81C202.805 115.399 202.683 114.942 202.683 114.438C202.683 113.934 202.805 113.477 203.047 113.066C203.29 112.646 203.617 112.315 204.027 112.072C204.447 111.829 204.914 111.708 205.427 111.708C205.941 111.708 206.403 111.829 206.813 112.072C207.224 112.315 207.551 112.646 207.793 113.066C208.036 113.477 208.157 113.934 208.157 114.438C208.157 114.942 208.036 115.399 207.793 115.81C207.551 116.221 207.224 116.552 206.813 116.804C206.403 117.047 205.941 117.168 205.427 117.168ZM205.427 115.894C205.717 115.894 205.964 115.824 206.169 115.684C206.375 115.544 206.533 115.362 206.645 115.138C206.767 114.914 206.827 114.681 206.827 114.438C206.827 114.186 206.767 113.953 206.645 113.738C206.533 113.514 206.375 113.332 206.169 113.192C205.964 113.052 205.717 112.982 205.427 112.982C205.147 112.982 204.9 113.052 204.685 113.192C204.471 113.332 204.303 113.514 204.181 113.738C204.069 113.953 204.013 114.186 204.013 114.438C204.013 114.681 204.069 114.914 204.181 115.138C204.303 115.362 204.471 115.544 204.685 115.684C204.9 115.824 205.147 115.894 205.427 115.894Z" fill="#171718"/>
</g>
<path d="M186.472 276.644C185.912 276.644 185.392 276.54 184.912 276.332C184.432 276.116 184.024 275.824 183.688 275.456C183.352 275.088 183.104 274.664 182.944 274.184L184.144 273.68C184.36 274.232 184.676 274.656 185.092 274.952C185.508 275.248 185.988 275.396 186.532 275.396C186.852 275.396 187.132 275.348 187.372 275.252C187.612 275.148 187.796 275.004 187.924 274.82C188.06 274.636 188.128 274.424 188.128 274.184C188.128 273.856 188.036 273.596 187.852 273.404C187.668 273.212 187.396 273.06 187.036 272.948L185.356 272.42C184.684 272.212 184.172 271.896 183.82 271.472C183.468 271.04 183.292 270.536 183.292 269.96C183.292 269.456 183.416 269.016 183.664 268.64C183.912 268.256 184.252 267.956 184.684 267.74C185.124 267.524 185.624 267.416 186.184 267.416C186.72 267.416 187.208 267.512 187.648 267.704C188.088 267.888 188.464 268.144 188.776 268.472C189.096 268.8 189.328 269.18 189.472 269.612L188.296 270.128C188.12 269.656 187.844 269.292 187.468 269.036C187.1 268.78 186.672 268.652 186.184 268.652C185.888 268.652 185.628 268.704 185.404 268.808C185.18 268.904 185.004 269.048 184.876 269.24C184.756 269.424 184.696 269.64 184.696 269.888C184.696 270.176 184.788 270.432 184.972 270.656C185.156 270.88 185.436 271.048 185.812 271.16L187.372 271.652C188.084 271.868 188.62 272.18 188.98 272.588C189.34 272.988 189.52 273.488 189.52 274.088C189.52 274.584 189.388 275.024 189.124 275.408C188.868 275.792 188.512 276.096 188.056 276.32C187.6 276.536 187.072 276.644 186.472 276.644ZM194.026 276.644C193.378 276.644 192.802 276.496 192.298 276.2C191.802 275.896 191.414 275.488 191.134 274.976C190.854 274.456 190.714 273.876 190.714 273.236C190.714 272.58 190.854 272 191.134 271.496C191.422 270.992 191.806 270.596 192.286 270.308C192.766 270.012 193.31 269.864 193.918 269.864C194.406 269.864 194.842 269.948 195.226 270.116C195.61 270.284 195.934 270.516 196.198 270.812C196.462 271.1 196.662 271.432 196.798 271.808C196.942 272.184 197.014 272.584 197.014 273.008C197.014 273.112 197.01 273.22 197.002 273.332C196.994 273.444 196.978 273.548 196.954 273.644H191.782V272.564H196.186L195.538 273.056C195.618 272.664 195.59 272.316 195.454 272.012C195.326 271.7 195.126 271.456 194.854 271.28C194.59 271.096 194.278 271.004 193.918 271.004C193.558 271.004 193.238 271.096 192.958 271.28C192.678 271.456 192.462 271.712 192.31 272.048C192.158 272.376 192.098 272.776 192.13 273.248C192.09 273.688 192.15 274.072 192.31 274.4C192.478 274.728 192.71 274.984 193.006 275.168C193.31 275.352 193.654 275.444 194.038 275.444C194.43 275.444 194.762 275.356 195.034 275.18C195.314 275.004 195.534 274.776 195.694 274.496L196.798 275.036C196.67 275.34 196.47 275.616 196.198 275.864C195.934 276.104 195.614 276.296 195.238 276.44C194.87 276.576 194.466 276.644 194.026 276.644ZM198.337 278.9V270.008H199.633V271.352L199.477 271.04C199.717 270.672 200.037 270.384 200.437 270.176C200.837 269.968 201.293 269.864 201.805 269.864C202.421 269.864 202.973 270.012 203.461 270.308C203.957 270.604 204.345 271.008 204.625 271.52C204.913 272.032 205.057 272.608 205.057 273.248C205.057 273.888 204.913 274.464 204.625 274.976C204.345 275.488 203.961 275.896 203.473 276.2C202.985 276.496 202.429 276.644 201.805 276.644C201.301 276.644 200.841 276.54 200.425 276.332C200.017 276.124 199.701 275.824 199.477 275.432L199.693 275.18V278.9H198.337ZM201.673 275.384C202.057 275.384 202.397 275.292 202.693 275.108C202.989 274.924 203.221 274.672 203.389 274.352C203.565 274.024 203.653 273.656 203.653 273.248C203.653 272.84 203.565 272.476 203.389 272.156C203.221 271.836 202.989 271.584 202.693 271.4C202.397 271.216 202.057 271.124 201.673 271.124C201.297 271.124 200.957 271.216 200.653 271.4C200.357 271.584 200.121 271.836 199.945 272.156C199.777 272.476 199.693 272.84 199.693 273.248C199.693 273.656 199.777 274.024 199.945 274.352C200.121 274.672 200.357 274.924 200.653 275.108C200.957 275.292 201.297 275.384 201.673 275.384Z" fill="#6B7280"/>
<g clip-path="url(#clip4_1563_12812)">
<rect x="224" y="47" width="52" height="205" rx="8" fill="#F5F7FA"/>
<rect x="224.333" y="47" width="52" height="8" fill="#E2E8F0"/>
<g opacity="0.5">
<line y1="-1" x2="76" y2="-1" transform="matrix(0.743145 -0.669131 0.704907 0.7093 222 87.8539)" stroke="#E2E8F0" stroke-width="2"/>
<line y1="-1" x2="76" y2="-1" transform="matrix(0.743145 -0.669131 0.704907 0.7093 222 102.708)" stroke="#E2E8F0" stroke-width="2"/>
<line y1="-1" x2="76" y2="-1" transform="matrix(0.743145 -0.669131 0.704907 0.7093 222 117.562)" stroke="#E2E8F0" stroke-width="2"/>
<line y1="-1" x2="76" y2="-1" transform="matrix(0.743145 -0.669131 0.704907 0.7093 222 132.416)" stroke="#E2E8F0" stroke-width="2"/>
<line y1="-1" x2="76" y2="-1" transform="matrix(0.743145 -0.669131 0.704907 0.7093 222 147.27)" stroke="#E2E8F0" stroke-width="2"/>
<line y1="-1" x2="76" y2="-1" transform="matrix(0.743145 -0.669131 0.704907 0.7093 222 162.124)" stroke="#E2E8F0" stroke-width="2"/>
<line y1="-1" x2="76" y2="-1" transform="matrix(0.743145 -0.669131 0.704907 0.7093 222 176.978)" stroke="#E2E8F0" stroke-width="2"/>
<line y1="-1" x2="76" y2="-1" transform="matrix(0.743145 -0.669131 0.704907 0.7093 222 191.831)" stroke="#E2E8F0" stroke-width="2"/>
<line y1="-1" x2="76" y2="-1" transform="matrix(0.743145 -0.669131 0.704907 0.7093 222 206.685)" stroke="#E2E8F0" stroke-width="2"/>
<line y1="-1" x2="76" y2="-1" transform="matrix(0.743145 -0.669131 0.704907 0.7093 222 221.539)" stroke="#E2E8F0" stroke-width="2"/>
<line y1="-1" x2="76" y2="-1" transform="matrix(0.743145 -0.669131 0.704907 0.7093 222 236.393)" stroke="#E2E8F0" stroke-width="2"/>
<line y1="-1" x2="76" y2="-1" transform="matrix(0.743145 -0.669131 0.704907 0.7093 222 251.247)" stroke="#E2E8F0" stroke-width="2"/>
<line y1="-1" x2="76" y2="-1" transform="matrix(0.743145 -0.669131 0.704907 0.7093 222 266.101)" stroke="#E2E8F0" stroke-width="2"/>
<line y1="-1" x2="76" y2="-1" transform="matrix(0.743145 -0.669131 0.704907 0.7093 222 280.955)" stroke="#E2E8F0" stroke-width="2"/>
</g>
<path d="M235.05 74L239.502 64.97H234.49V63.57H241.224V64.97L236.842 74H235.05ZM245.665 74.168C245.114 74.168 244.596 74.07 244.111 73.874C243.625 73.6687 243.205 73.384 242.851 73.02C242.496 72.656 242.244 72.2173 242.095 71.704L243.481 71.172C243.658 71.6667 243.947 72.0447 244.349 72.306C244.75 72.5673 245.189 72.698 245.665 72.698C246.057 72.698 246.402 72.6093 246.701 72.432C246.999 72.2547 247.233 72.012 247.401 71.704C247.578 71.396 247.667 71.046 247.667 70.654C247.667 70.2527 247.578 69.9027 247.401 69.604C247.233 69.296 246.999 69.058 246.701 68.89C246.402 68.7127 246.057 68.624 245.665 68.624C245.273 68.624 244.913 68.7127 244.587 68.89C244.26 69.0673 244.022 69.3053 243.873 69.604L242.543 69.31L243.355 63.57H248.913V64.97H243.999L244.629 64.284L244.027 68.68L243.509 68.33C243.789 67.938 244.129 67.6533 244.531 67.476C244.932 67.2987 245.389 67.21 245.903 67.21C246.584 67.21 247.177 67.364 247.681 67.672C248.194 67.9707 248.591 68.3813 248.871 68.904C249.16 69.4173 249.305 70.0007 249.305 70.654C249.305 71.3167 249.146 71.914 248.829 72.446C248.511 72.978 248.077 73.398 247.527 73.706C246.985 74.014 246.365 74.168 245.665 74.168ZM252.164 74L260.648 63.57H262.412L253.928 74H252.164ZM253.76 68.862C253.246 68.862 252.784 68.7407 252.374 68.498C251.963 68.246 251.632 67.9147 251.38 67.504C251.137 67.0933 251.016 66.636 251.016 66.132C251.016 65.628 251.137 65.1707 251.38 64.76C251.632 64.34 251.963 64.0087 252.374 63.766C252.784 63.5233 253.246 63.402 253.76 63.402C254.273 63.402 254.735 63.5233 255.146 63.766C255.556 64.0087 255.883 64.34 256.126 64.76C256.368 65.1707 256.49 65.628 256.49 66.132C256.49 66.636 256.368 67.0933 256.126 67.504C255.883 67.9147 255.556 68.246 255.146 68.498C254.735 68.7407 254.273 68.862 253.76 68.862ZM253.76 67.588C254.049 67.588 254.296 67.518 254.502 67.378C254.716 67.238 254.88 67.056 254.992 66.832C255.104 66.608 255.16 66.3747 255.16 66.132C255.16 65.88 255.104 65.6467 254.992 65.432C254.88 65.208 254.716 65.026 254.502 64.886C254.296 64.746 254.049 64.676 253.76 64.676C253.48 64.676 253.232 64.746 253.018 64.886C252.803 65.026 252.635 65.208 252.514 65.432C252.402 65.6467 252.346 65.88 252.346 66.132C252.346 66.3747 252.402 66.608 252.514 66.832C252.635 67.056 252.803 67.238 253.018 67.378C253.232 67.518 253.48 67.588 253.76 67.588ZM260.746 74.168C260.232 74.168 259.766 74.0467 259.346 73.804C258.935 73.552 258.608 73.2207 258.366 72.81C258.123 72.3993 258.002 71.942 258.002 71.438C258.002 70.934 258.123 70.4767 258.366 70.066C258.608 69.646 258.935 69.3147 259.346 69.072C259.766 68.8293 260.232 68.708 260.746 68.708C261.259 68.708 261.721 68.8293 262.132 69.072C262.542 69.3147 262.869 69.646 263.112 70.066C263.354 70.4767 263.476 70.934 263.476 71.438C263.476 71.942 263.354 72.3993 263.112 72.81C262.869 73.2207 262.542 73.552 262.132 73.804C261.721 74.0467 261.259 74.168 260.746 74.168ZM260.746 72.894C261.035 72.894 261.282 72.824 261.488 72.684C261.693 72.544 261.852 72.362 261.964 72.138C262.085 71.914 262.146 71.6807 262.146 71.438C262.146 71.186 262.085 70.9527 261.964 70.738C261.852 70.514 261.693 70.332 261.488 70.192C261.282 70.052 261.035 69.982 260.746 69.982C260.466 69.982 260.218 70.052 260.004 70.192C259.789 70.332 259.621 70.514 259.5 70.738C259.388 70.9527 259.332 71.186 259.332 71.438C259.332 71.6807 259.388 71.914 259.5 72.138C259.621 72.362 259.789 72.544 260.004 72.684C260.218 72.824 260.466 72.894 260.746 72.894Z" fill="#171718"/>
</g>
<path d="M243.93 276.644C243.282 276.644 242.678 276.528 242.118 276.296C241.566 276.064 241.078 275.74 240.654 275.324C240.238 274.908 239.91 274.42 239.67 273.86C239.438 273.3 239.322 272.688 239.322 272.024C239.322 271.36 239.438 270.748 239.67 270.188C239.91 269.62 240.238 269.132 240.654 268.724C241.07 268.308 241.558 267.988 242.118 267.764C242.678 267.532 243.282 267.416 243.93 267.416C244.586 267.416 245.19 267.532 245.742 267.764C246.302 267.988 246.79 268.308 247.206 268.724C247.63 269.14 247.958 269.628 248.19 270.188C248.422 270.748 248.538 271.36 248.538 272.024C248.538 272.688 248.418 273.3 248.178 273.86C247.946 274.42 247.622 274.908 247.206 275.324C246.79 275.74 246.302 276.064 245.742 276.296C245.182 276.528 244.578 276.644 243.93 276.644ZM243.93 275.348C244.394 275.348 244.818 275.264 245.202 275.096C245.594 274.928 245.934 274.696 246.222 274.4C246.51 274.096 246.734 273.744 246.894 273.344C247.054 272.936 247.134 272.496 247.134 272.024C247.134 271.552 247.054 271.116 246.894 270.716C246.734 270.316 246.51 269.964 246.222 269.66C245.934 269.356 245.594 269.12 245.202 268.952C244.818 268.784 244.394 268.7 243.93 268.7C243.466 268.7 243.038 268.784 242.646 268.952C242.262 269.12 241.926 269.356 241.638 269.66C241.35 269.964 241.126 270.316 240.966 270.716C240.814 271.116 240.738 271.552 240.738 272.024C240.738 272.496 240.814 272.936 240.966 273.344C241.126 273.744 241.35 274.096 241.638 274.4C241.926 274.696 242.266 274.928 242.658 275.096C243.05 275.264 243.474 275.348 243.93 275.348ZM253.073 276.644C252.425 276.644 251.849 276.496 251.345 276.2C250.849 275.896 250.453 275.488 250.157 274.976C249.869 274.464 249.725 273.884 249.725 273.236C249.725 272.596 249.869 272.02 250.157 271.508C250.445 270.996 250.841 270.596 251.345 270.308C251.849 270.012 252.425 269.864 253.073 269.864C253.513 269.864 253.925 269.944 254.309 270.104C254.693 270.256 255.025 270.468 255.305 270.74C255.593 271.012 255.805 271.328 255.941 271.688L254.753 272.24C254.617 271.904 254.397 271.636 254.093 271.436C253.797 271.228 253.457 271.124 253.073 271.124C252.705 271.124 252.373 271.216 252.077 271.4C251.789 271.576 251.561 271.828 251.393 272.156C251.225 272.476 251.141 272.84 251.141 273.248C251.141 273.656 251.225 274.024 251.393 274.352C251.561 274.672 251.789 274.924 252.077 275.108C252.373 275.292 252.705 275.384 253.073 275.384C253.465 275.384 253.805 275.284 254.093 275.084C254.389 274.876 254.609 274.6 254.753 274.256L255.941 274.82C255.813 275.164 255.605 275.476 255.317 275.756C255.037 276.028 254.705 276.244 254.321 276.404C253.937 276.564 253.521 276.644 253.073 276.644ZM260.075 276.572C259.395 276.572 258.867 276.38 258.491 275.996C258.115 275.612 257.927 275.072 257.927 274.376V271.232H256.787V270.008H256.967C257.271 270.008 257.507 269.92 257.675 269.744C257.843 269.568 257.927 269.328 257.927 269.024V268.52H259.283V270.008H260.759V271.232H259.283V274.316C259.283 274.54 259.319 274.732 259.391 274.892C259.463 275.044 259.579 275.164 259.739 275.252C259.899 275.332 260.107 275.372 260.363 275.372C260.427 275.372 260.499 275.368 260.579 275.36C260.659 275.352 260.735 275.344 260.807 275.336V276.5C260.695 276.516 260.571 276.532 260.435 276.548C260.299 276.564 260.179 276.572 260.075 276.572Z" fill="#6B7280"/>
<g clip-path="url(#clip5_1563_12812)">
<rect x="280" width="52" height="252" rx="8" fill="url(#paint0_linear_1563_12812)"/>
<rect x="280.167" width="52" height="8" fill="#EAB308"/>
<line y1="-1" x2="76" y2="-1" transform="matrix(0.743145 -0.669131 0.704907 0.7093 278 2.86517)" stroke="#4B2C89" stroke-opacity="0.1" stroke-width="2"/>
<line y1="-1" x2="76" y2="-1" transform="matrix(0.743145 -0.669131 0.704907 0.7093 278 17.7191)" stroke="#4B2C89" stroke-opacity="0.1" stroke-width="2"/>
<line y1="-1" x2="76" y2="-1" transform="matrix(0.743145 -0.669131 0.704907 0.7093 278 32.573)" stroke="#4B2C89" stroke-opacity="0.1" stroke-width="2"/>
<line y1="-1" x2="76" y2="-1" transform="matrix(0.743145 -0.669131 0.704907 0.7093 278 47.4269)" stroke="#4B2C89" stroke-opacity="0.1" stroke-width="2"/>
<line y1="-1" x2="76" y2="-1" transform="matrix(0.743145 -0.669131 0.704907 0.7093 278 62.2809)" stroke="#4B2C89" stroke-opacity="0.1" stroke-width="2"/>
<line y1="-1" x2="76" y2="-1" transform="matrix(0.743145 -0.669131 0.704907 0.7093 278 77.1348)" stroke="#4B2C89" stroke-opacity="0.1" stroke-width="2"/>
<line y1="-1" x2="76" y2="-1" transform="matrix(0.743145 -0.669131 0.704907 0.7093 278 91.9887)" stroke="#4B2C89" stroke-opacity="0.1" stroke-width="2"/>
<line y1="-1" x2="76" y2="-1" transform="matrix(0.743145 -0.669131 0.704907 0.7093 278 106.843)" stroke="#4B2C89" stroke-opacity="0.1" stroke-width="2"/>
<line y1="-1" x2="76" y2="-1" transform="matrix(0.743145 -0.669131 0.704907 0.7093 278 121.697)" stroke="#4B2C89" stroke-opacity="0.1" stroke-width="2"/>
<line y1="-1" x2="76" y2="-1" transform="matrix(0.743145 -0.669131 0.704907 0.7093 278 136.551)" stroke="#4B2C89" stroke-opacity="0.1" stroke-width="2"/>
<line y1="-1" x2="76" y2="-1" transform="matrix(0.743145 -0.669131 0.704907 0.7093 278 151.404)" stroke="#4B2C89" stroke-opacity="0.1" stroke-width="2"/>
<line y1="-1" x2="76" y2="-1" transform="matrix(0.743145 -0.669131 0.704907 0.7093 278 166.258)" stroke="#4B2C89" stroke-opacity="0.1" stroke-width="2"/>
<line y1="-1" x2="76" y2="-1" transform="matrix(0.743145 -0.669131 0.704907 0.7093 278 181.112)" stroke="#4B2C89" stroke-opacity="0.1" stroke-width="2"/>
<line y1="-1" x2="76" y2="-1" transform="matrix(0.743145 -0.669131 0.704907 0.7093 278 195.966)" stroke="#4B2C89" stroke-opacity="0.1" stroke-width="2"/>
<line y1="-1" x2="76" y2="-1" transform="matrix(0.743145 -0.669131 0.704907 0.7093 278 210.82)" stroke="#4B2C89" stroke-opacity="0.1" stroke-width="2"/>
<line y1="-1" x2="76" y2="-1" transform="matrix(0.743145 -0.669131 0.704907 0.7093 278 225.674)" stroke="#4B2C89" stroke-opacity="0.1" stroke-width="2"/>
<line y1="-1" x2="76" y2="-1" transform="matrix(0.743145 -0.669131 0.704907 0.7093 278 240.528)" stroke="#4B2C89" stroke-opacity="0.1" stroke-width="2"/>
<line y1="-1" x2="76" y2="-1" transform="matrix(0.743145 -0.669131 0.704907 0.7093 278 255.382)" stroke="#4B2C89" stroke-opacity="0.1" stroke-width="2"/>
<line y1="-1" x2="76" y2="-1" transform="matrix(0.743145 -0.669131 0.704907 0.7093 278 270.236)" stroke="#4B2C89" stroke-opacity="0.1" stroke-width="2"/>
<line y1="-1" x2="76" y2="-1" transform="matrix(0.743145 -0.669131 0.704907 0.7093 278 285.09)" stroke="#4B2C89" stroke-opacity="0.1" stroke-width="2"/>
<line y1="-1" x2="76" y2="-1" transform="matrix(0.743145 -0.669131 0.704907 0.7093 278 299.944)" stroke="#4B2C89" stroke-opacity="0.1" stroke-width="2"/>
<path d="M288.422 27V18.194H286.406V16.57H290.326V27H288.422ZM296.602 27.168C295.772 27.168 295.044 26.944 294.418 26.496C293.793 26.048 293.303 25.418 292.948 24.606C292.603 23.794 292.43 22.8513 292.43 21.778C292.43 20.6953 292.603 19.7527 292.948 18.95C293.294 18.1473 293.779 17.522 294.404 17.074C295.03 16.626 295.758 16.402 296.588 16.402C297.438 16.402 298.17 16.626 298.786 17.074C299.412 17.522 299.902 18.152 300.256 18.964C300.611 19.7667 300.788 20.7047 300.788 21.778C300.788 22.8513 300.611 23.794 300.256 24.606C299.911 25.4087 299.426 26.0387 298.8 26.496C298.175 26.944 297.442 27.168 296.602 27.168ZM296.616 25.432C297.092 25.432 297.498 25.2873 297.834 24.998C298.17 24.6993 298.427 24.2793 298.604 23.738C298.791 23.1873 298.884 22.534 298.884 21.778C298.884 21.022 298.791 20.3733 298.604 19.832C298.427 19.2813 298.166 18.8613 297.82 18.572C297.484 18.2827 297.074 18.138 296.588 18.138C296.122 18.138 295.72 18.2827 295.384 18.572C295.048 18.8613 294.787 19.2813 294.6 19.832C294.423 20.3733 294.334 21.022 294.334 21.778C294.334 22.5247 294.423 23.1733 294.6 23.724C294.787 24.2653 295.048 24.6853 295.384 24.984C295.73 25.2827 296.14 25.432 296.616 25.432ZM305.717 27.168C305.166 27.168 304.639 27.0653 304.135 26.86C303.64 26.6547 303.211 26.3653 302.847 25.992C302.492 25.6093 302.249 25.1567 302.119 24.634L303.771 24.046C303.929 24.522 304.186 24.8767 304.541 25.11C304.895 25.334 305.287 25.446 305.717 25.446C306.071 25.446 306.384 25.3713 306.655 25.222C306.935 25.0633 307.149 24.8487 307.299 24.578C307.448 24.298 307.523 23.976 307.523 23.612C307.523 23.248 307.443 22.9307 307.285 22.66C307.135 22.3893 306.925 22.1793 306.655 22.03C306.384 21.8713 306.071 21.792 305.717 21.792C305.353 21.792 305.021 21.8713 304.723 22.03C304.433 22.1887 304.223 22.4173 304.093 22.716L302.539 22.366L303.365 16.57H309.049V18.18H304.121L304.835 17.354L304.247 21.722L303.701 21.274C303.962 20.8913 304.279 20.6113 304.653 20.434C305.035 20.2567 305.497 20.168 306.039 20.168C306.729 20.168 307.327 20.3173 307.831 20.616C308.344 20.9147 308.741 21.3207 309.021 21.834C309.301 22.3473 309.441 22.94 309.441 23.612C309.441 24.284 309.277 24.8907 308.951 25.432C308.624 25.9733 308.181 26.398 307.621 26.706C307.061 27.014 306.426 27.168 305.717 27.168ZM312.314 27L320.77 16.57H322.73L314.274 27H312.314ZM313.938 21.862C313.425 21.862 312.958 21.7407 312.538 21.498C312.127 21.246 311.801 20.9147 311.558 20.504C311.315 20.0933 311.194 19.636 311.194 19.132C311.194 18.628 311.315 18.1707 311.558 17.76C311.801 17.34 312.127 17.0087 312.538 16.766C312.958 16.5233 313.425 16.402 313.938 16.402C314.461 16.402 314.927 16.5233 315.338 16.766C315.749 17.0087 316.075 17.34 316.318 17.76C316.561 18.1707 316.682 18.628 316.682 19.132C316.682 19.636 316.561 20.0933 316.318 20.504C316.075 20.9147 315.749 21.246 315.338 21.498C314.927 21.7407 314.461 21.862 313.938 21.862ZM313.938 20.448C314.218 20.448 314.451 20.3873 314.638 20.266C314.825 20.1353 314.965 19.972 315.058 19.776C315.161 19.5707 315.212 19.356 315.212 19.132C315.212 18.8987 315.161 18.684 315.058 18.488C314.965 18.292 314.825 18.1287 314.638 17.998C314.451 17.8673 314.218 17.802 313.938 17.802C313.677 17.802 313.448 17.8673 313.252 17.998C313.065 18.1287 312.921 18.2967 312.818 18.502C312.715 18.698 312.664 18.908 312.664 19.132C312.664 19.3467 312.715 19.5567 312.818 19.762C312.921 19.9673 313.065 20.1353 313.252 20.266C313.448 20.3873 313.677 20.448 313.938 20.448ZM321.05 27.168C320.537 27.168 320.07 27.0467 319.65 26.804C319.239 26.552 318.913 26.2207 318.67 25.81C318.427 25.3993 318.306 24.942 318.306 24.438C318.306 23.934 318.427 23.4767 318.67 23.066C318.913 22.646 319.239 22.3147 319.65 22.072C320.07 21.8293 320.537 21.708 321.05 21.708C321.573 21.708 322.039 21.8293 322.45 22.072C322.861 22.3147 323.187 22.646 323.43 23.066C323.673 23.4767 323.794 23.934 323.794 24.438C323.794 24.942 323.673 25.3993 323.43 25.81C323.187 26.2207 322.861 26.552 322.45 26.804C322.039 27.0467 321.573 27.168 321.05 27.168ZM321.05 25.754C321.321 25.754 321.549 25.6933 321.736 25.572C321.932 25.4413 322.077 25.278 322.17 25.082C322.273 24.8767 322.324 24.662 322.324 24.438C322.324 24.2047 322.273 23.99 322.17 23.794C322.077 23.598 321.932 23.4347 321.736 23.304C321.549 23.1733 321.321 23.108 321.05 23.108C320.789 23.108 320.56 23.1733 320.364 23.304C320.177 23.4347 320.033 23.6027 319.93 23.808C319.827 24.004 319.776 24.214 319.776 24.438C319.776 24.6527 319.827 24.8627 319.93 25.068C320.033 25.2733 320.177 25.4413 320.364 25.572C320.56 25.6933 320.789 25.754 321.05 25.754Z" fill="white"/>
</g>
<path d="M295.158 276.5V267.56H298.086C299.014 267.56 299.818 267.748 300.498 268.124C301.186 268.492 301.718 269.012 302.094 269.684C302.47 270.356 302.658 271.136 302.658 272.024C302.658 272.904 302.47 273.684 302.094 274.364C301.718 275.036 301.186 275.56 300.498 275.936C299.818 276.312 299.014 276.5 298.086 276.5H295.158ZM296.574 275.24H298.11C298.742 275.24 299.29 275.108 299.754 274.844C300.226 274.58 300.59 274.208 300.846 273.728C301.102 273.248 301.23 272.68 301.23 272.024C301.23 271.368 301.098 270.804 300.834 270.332C300.578 269.852 300.218 269.48 299.754 269.216C299.29 268.952 298.742 268.82 298.11 268.82H296.574V275.24ZM306.969 276.644C306.321 276.644 305.745 276.496 305.241 276.2C304.745 275.896 304.357 275.488 304.077 274.976C303.797 274.456 303.657 273.876 303.657 273.236C303.657 272.58 303.797 272 304.077 271.496C304.365 270.992 304.749 270.596 305.229 270.308C305.709 270.012 306.253 269.864 306.861 269.864C307.349 269.864 307.785 269.948 308.169 270.116C308.553 270.284 308.877 270.516 309.141 270.812C309.405 271.1 309.605 271.432 309.741 271.808C309.885 272.184 309.957 272.584 309.957 273.008C309.957 273.112 309.953 273.22 309.945 273.332C309.937 273.444 309.921 273.548 309.897 273.644H304.725V272.564H309.129L308.481 273.056C308.561 272.664 308.533 272.316 308.397 272.012C308.269 271.7 308.069 271.456 307.797 271.28C307.533 271.096 307.221 271.004 306.861 271.004C306.501 271.004 306.181 271.096 305.901 271.28C305.621 271.456 305.405 271.712 305.253 272.048C305.101 272.376 305.041 272.776 305.073 273.248C305.033 273.688 305.093 274.072 305.253 274.4C305.421 274.728 305.653 274.984 305.949 275.168C306.253 275.352 306.597 275.444 306.981 275.444C307.373 275.444 307.705 275.356 307.977 275.18C308.257 275.004 308.477 274.776 308.637 274.496L309.741 275.036C309.613 275.34 309.413 275.616 309.141 275.864C308.877 276.104 308.557 276.296 308.181 276.44C307.813 276.576 307.409 276.644 306.969 276.644ZM314.364 276.644C313.716 276.644 313.14 276.496 312.636 276.2C312.14 275.896 311.744 275.488 311.448 274.976C311.16 274.464 311.016 273.884 311.016 273.236C311.016 272.596 311.16 272.02 311.448 271.508C311.736 270.996 312.132 270.596 312.636 270.308C313.14 270.012 313.716 269.864 314.364 269.864C314.804 269.864 315.216 269.944 315.6 270.104C315.984 270.256 316.316 270.468 316.596 270.74C316.884 271.012 317.096 271.328 317.232 271.688L316.044 272.24C315.908 271.904 315.688 271.636 315.384 271.436C315.088 271.228 314.748 271.124 314.364 271.124C313.996 271.124 313.664 271.216 313.368 271.4C313.08 271.576 312.852 271.828 312.684 272.156C312.516 272.476 312.432 272.84 312.432 273.248C312.432 273.656 312.516 274.024 312.684 274.352C312.852 274.672 313.08 274.924 313.368 275.108C313.664 275.292 313.996 275.384 314.364 275.384C314.756 275.384 315.096 275.284 315.384 275.084C315.68 274.876 315.9 274.6 316.044 274.256L317.232 274.82C317.104 275.164 316.896 275.476 316.608 275.756C316.328 276.028 315.996 276.244 315.612 276.404C315.228 276.564 314.812 276.644 314.364 276.644Z" fill="#6B7280"/>
<defs>
<linearGradient id="paint0_linear_1563_12812" x1="306" y1="0" x2="306" y2="252" gradientUnits="userSpaceOnUse">
<stop stop-color="#7C3AED"/>
<stop offset="1" stop-color="#A78BFA"/>
</linearGradient>
<clipPath id="clip0_1563_12812">
<rect y="177" width="52" height="75" rx="8" fill="white"/>
</clipPath>
<clipPath id="clip1_1563_12812">
<rect x="56" y="71" width="52" height="181" rx="8" fill="white"/>
</clipPath>
<clipPath id="clip2_1563_12812">
<rect x="112" y="134" width="52" height="118" rx="8" fill="white"/>
</clipPath>
<clipPath id="clip3_1563_12812">
<rect x="168" y="90" width="52" height="162" rx="8" fill="white"/>
</clipPath>
<clipPath id="clip4_1563_12812">
<rect x="224" y="47" width="52" height="205" rx="8" fill="white"/>
</clipPath>
<clipPath id="clip5_1563_12812">
<rect x="280" width="52" height="252" rx="8" fill="white"/>
</clipPath>
</defs>
</svg>
