<svg width="123" height="123" viewBox="0 0 123 123" fill="none" xmlns="http://www.w3.org/2000/svg">
<g filter="url(#filter0_dd_3_679)">
<path d="M63.0246 15.9295C69.9264 14.0802 77.2906 16.0534 82.3431 21.1059L101.368 40.1313C106.421 45.1838 108.394 52.548 106.545 59.4498L99.5811 85.439C97.7318 92.3409 92.3408 97.7318 85.439 99.5812L59.4498 106.545C52.5479 108.394 45.1838 106.421 40.1313 101.369L21.1058 82.3432C16.0534 77.2907 14.0801 69.9265 15.9295 63.0246L22.8933 37.0355C24.7426 30.1336 30.1335 24.7427 37.0354 22.8933L63.0246 15.9295Z" fill="white"/>
<g clip-path="url(#clip0_3_679)">
<path d="M79.716 52.3426L68.7666 82.2618L55.5537 82.3759L44.2006 75.6844L49.6818 44.2949L79.716 52.3426Z" fill="#E44D26"/>
<path d="M56.2706 79.7743L66.9473 79.6821L76.3041 54.1147L64.0275 50.8252L56.2706 79.7743Z" fill="#F16529"/>
<path d="M56.6934 56.9196L62.0125 58.3448L63.02 54.5849L53.5918 52.0586L53.4114 53.0914L51.5593 63.7005L59.9734 65.9551L60.9808 62.1951L56.0054 60.8619L56.6934 56.9196ZM54.998 66.6369L51.2235 65.6256L50.1683 71.6704L57.2975 75.8722L57.3161 75.8721L58.3643 71.9601L58.3466 71.9601L54.4622 69.7074L54.998 66.6369Z" fill="#EBEBEB"/>
<path d="M54.7086 36.7119L56.6194 37.2239L56.1135 39.1117L57.8615 39.5801L58.3673 37.6923L60.2782 38.2043L58.7464 43.921L56.8356 43.4091L57.3486 41.4948L55.6006 41.0264L55.0877 42.9407L53.1769 42.4287L54.7086 36.7119ZM62.2828 40.7733L60.6009 40.3227L61.1089 38.4269L66.3849 39.8406L65.8769 41.7364L64.1939 41.2854L63.1701 45.1064L61.2594 44.5944L62.2832 40.7734L62.2828 40.7733ZM67.2222 40.0649L69.2145 40.5988L69.9019 42.9359L71.6645 41.2552L73.6577 41.7893L72.1259 47.5061L70.2229 46.9962L70.9821 44.1626L69.1229 45.843L69.09 45.8342L68.3192 43.4491L67.5599 46.2826L65.6904 45.7817L67.2222 40.0649ZM74.6086 42.0441L76.52 42.5562L75.4945 46.3834L78.1815 47.1034L77.6752 48.993L73.0767 47.7608L74.6085 42.0441L74.6086 42.0441Z" fill="black"/>
<path d="M59.9604 65.9513L64.5903 67.1919L62.8472 71.9513L58.3503 71.9595L57.3022 75.8712L65.5828 75.8004L65.8095 75.1803L69.3455 65.5183L69.7078 64.5332L60.9678 62.1913L59.9604 65.9513ZM62.002 58.3319L61.9995 58.341L71.0816 60.7746L71.3834 59.9497L72.0656 58.0895L72.4257 57.1048L63.007 54.5811L62.002 58.3319Z" fill="white"/>
</g>
</g>
<defs>
<filter id="filter0_dd_3_679" x="-2.00006" y="-1" width="126.474" height="126.475" filterUnits="userSpaceOnUse" color-interpolation-filters="sRGB">
<feFlood flood-opacity="0" result="BackgroundImageFix"/>
<feColorMatrix in="SourceAlpha" type="matrix" values="0 0 0 0 0 0 0 0 0 0 0 0 0 0 0 0 0 0 127 0" result="hardAlpha"/>
<feOffset dy="1"/>
<feGaussianBlur stdDeviation="1"/>
<feComposite in2="hardAlpha" operator="out"/>
<feColorMatrix type="matrix" values="0 0 0 0 0.372549 0 0 0 0 0.290196 0 0 0 0 0.180392 0 0 0 0.08 0"/>
<feBlend mode="normal" in2="BackgroundImageFix" result="effect1_dropShadow_3_679"/>
<feColorMatrix in="SourceAlpha" type="matrix" values="0 0 0 0 0 0 0 0 0 0 0 0 0 0 0 0 0 0 127 0" result="hardAlpha"/>
<feMorphology radius="1" operator="dilate" in="SourceAlpha" result="effect2_dropShadow_3_679"/>
<feOffset/>
<feComposite in2="hardAlpha" operator="out"/>
<feColorMatrix type="matrix" values="0 0 0 0 0.890196 0 0 0 0 0.882353 0 0 0 0 0.870588 0 0 0 0.4 0"/>
<feBlend mode="normal" in2="effect1_dropShadow_3_679" result="effect2_dropShadow_3_679"/>
<feBlend mode="normal" in="SourceGraphic" in2="effect2_dropShadow_3_679" result="shape"/>
</filter>
<clipPath id="clip0_3_679">
<rect width="44" height="44" fill="white" transform="translate(45.6808 34.293) rotate(15)"/>
</clipPath>
</defs>
</svg>
