<svg width="104" height="104" viewBox="0 0 104 104" fill="none" xmlns="http://www.w3.org/2000/svg">
<g clip-path="url(#clip0_0_190)">
<rect x="2" y="2" width="100" height="100" rx="50" fill="#F3E8FF"/>
<rect x="2" y="24" width="100" height="2" fill="url(#paint0_linear_0_190)"/>
<rect x="2" y="78" width="100" height="2" fill="url(#paint1_linear_0_190)"/>
<rect x="24" y="2" width="2" height="100" fill="url(#paint2_linear_0_190)"/>
<rect x="78" y="2" width="2" height="100" fill="url(#paint3_linear_0_190)"/>
<g filter="url(#filter0_ddddi_0_190)">
<path d="M52 27C65.8055 27 77 36.9444 77 49.2222C77 56.889 70.7778 63.111 63.111 63.111H58.1945C55.889 63.111 54.0278 64.9722 54.0278 67.2777C54.0278 68.3332 54.4445 69.3055 55.0833 70.0277C55.75 70.7777 56.1668 71.75 56.1668 72.8332C56.1668 75.139 54.25 77 52 77C38.1944 77 27 65.8055 27 52C27 38.1944 38.1944 27 52 27ZM40.75 52C42.8211 52 44.5 50.321 44.5 48.25C44.5 46.1789 42.8211 44.5 40.75 44.5C38.6789 44.5 37 46.1789 37 48.25C37 50.321 38.6789 52 40.75 52ZM63.25 52C65.321 52 67 50.321 67 48.25C67 46.1789 65.321 44.5 63.25 44.5C61.179 44.5 59.5 46.1789 59.5 48.25C59.5 50.321 61.179 52 63.25 52ZM52 44.5C54.071 44.5 55.75 42.8211 55.75 40.75C55.75 38.6789 54.071 37 52 37C49.929 37 48.25 38.6789 48.25 40.75C48.25 42.8211 49.929 44.5 52 44.5Z" fill="white"/>
</g>
<path opacity="0.1" d="M63.25 52C65.321 52 67 50.321 67 48.25C67 46.1789 65.321 44.5 63.25 44.5C61.179 44.5 59.5 46.1789 59.5 48.25C59.5 50.321 61.179 52 63.25 52Z" fill="#7C3AED"/>
<path d="M52 44.5C54.071 44.5 55.75 42.8211 55.75 40.75C55.75 38.6789 54.071 37 52 37C49.929 37 48.25 38.6789 48.25 40.75C48.25 42.8211 49.929 44.5 52 44.5Z" fill="#7C3AED"/>
<path opacity="0.1" d="M40.75 52C42.8211 52 44.5 50.321 44.5 48.25C44.5 46.1789 42.8211 44.5 40.75 44.5C38.6789 44.5 37 46.1789 37 48.25C37 50.321 38.6789 52 40.75 52Z" fill="#7C3AED"/>
</g>
<rect x="2" y="2" width="100" height="100" rx="50" stroke="white" stroke-width="4"/>
<defs>
<filter id="filter0_ddddi_0_190" x="-5" y="20" width="114" height="142" filterUnits="userSpaceOnUse" color-interpolation-filters="sRGB">
<feFlood flood-opacity="0" result="BackgroundImageFix"/>
<feColorMatrix in="SourceAlpha" type="matrix" values="0 0 0 0 0 0 0 0 0 0 0 0 0 0 0 0 0 0 127 0" result="hardAlpha"/>
<feOffset dy="53"/>
<feGaussianBlur stdDeviation="16"/>
<feComposite in2="hardAlpha" operator="out"/>
<feColorMatrix type="matrix" values="0 0 0 0 0 0 0 0 0 0 0 0 0 0 0 0 0 0 0.02 0"/>
<feBlend mode="normal" in2="BackgroundImageFix" result="effect1_dropShadow_0_190"/>
<feColorMatrix in="SourceAlpha" type="matrix" values="0 0 0 0 0 0 0 0 0 0 0 0 0 0 0 0 0 0 127 0" result="hardAlpha"/>
<feOffset dy="6"/>
<feGaussianBlur stdDeviation="6.5"/>
<feComposite in2="hardAlpha" operator="out"/>
<feColorMatrix type="matrix" values="0 0 0 0 0 0 0 0 0 0 0 0 0 0 0 0 0 0 0.04 0"/>
<feBlend mode="normal" in2="effect1_dropShadow_0_190" result="effect2_dropShadow_0_190"/>
<feColorMatrix in="SourceAlpha" type="matrix" values="0 0 0 0 0 0 0 0 0 0 0 0 0 0 0 0 0 0 127 0" result="hardAlpha"/>
<feOffset dy="1"/>
<feGaussianBlur stdDeviation="1.5"/>
<feComposite in2="hardAlpha" operator="out"/>
<feColorMatrix type="matrix" values="0 0 0 0 0.560784 0 0 0 0 0.560784 0 0 0 0 0.560784 0 0 0 0.2 0"/>
<feBlend mode="normal" in2="effect2_dropShadow_0_190" result="effect3_dropShadow_0_190"/>
<feColorMatrix in="SourceAlpha" type="matrix" values="0 0 0 0 0 0 0 0 0 0 0 0 0 0 0 0 0 0 127 0" result="hardAlpha"/>
<feMorphology radius="1" operator="dilate" in="SourceAlpha" result="effect4_dropShadow_0_190"/>
<feOffset/>
<feComposite in2="hardAlpha" operator="out"/>
<feColorMatrix type="matrix" values="0 0 0 0 0.917647 0 0 0 0 0.917647 0 0 0 0 0.917647 0 0 0 1 0"/>
<feBlend mode="normal" in2="effect3_dropShadow_0_190" result="effect4_dropShadow_0_190"/>
<feBlend mode="normal" in="SourceGraphic" in2="effect4_dropShadow_0_190" result="shape"/>
<feColorMatrix in="SourceAlpha" type="matrix" values="0 0 0 0 0 0 0 0 0 0 0 0 0 0 0 0 0 0 127 0" result="hardAlpha"/>
<feOffset dy="-2.4"/>
<feComposite in2="hardAlpha" operator="arithmetic" k2="-1" k3="1"/>
<feColorMatrix type="matrix" values="0 0 0 0 0.239216 0 0 0 0 0.239216 0 0 0 0 0.239216 0 0 0 0.04 0"/>
<feBlend mode="normal" in2="shape" result="effect5_innerShadow_0_190"/>
</filter>
<linearGradient id="paint0_linear_0_190" x1="102" y1="24.9999" x2="2" y2="24.9999" gradientUnits="userSpaceOnUse">
<stop stop-color="#E9D6FF" stop-opacity="0"/>
<stop offset="0.5" stop-color="#E9D6FF"/>
<stop offset="1" stop-color="#E9D6FF" stop-opacity="0"/>
</linearGradient>
<linearGradient id="paint1_linear_0_190" x1="102" y1="78.9999" x2="2" y2="78.9999" gradientUnits="userSpaceOnUse">
<stop stop-color="#E9D6FF" stop-opacity="0"/>
<stop offset="0.5" stop-color="#E9D6FF"/>
<stop offset="1" stop-color="#E9D6FF" stop-opacity="0"/>
</linearGradient>
<linearGradient id="paint2_linear_0_190" x1="25" y1="2" x2="25" y2="102" gradientUnits="userSpaceOnUse">
<stop stop-color="#E9D6FF" stop-opacity="0"/>
<stop offset="0.5" stop-color="#E9D6FF"/>
<stop offset="1" stop-color="#E9D6FF" stop-opacity="0"/>
</linearGradient>
<linearGradient id="paint3_linear_0_190" x1="79" y1="2" x2="79" y2="102" gradientUnits="userSpaceOnUse">
<stop stop-color="#E9D6FF" stop-opacity="0"/>
<stop offset="0.5" stop-color="#E9D6FF"/>
<stop offset="1" stop-color="#E9D6FF" stop-opacity="0"/>
</linearGradient>
<clipPath id="clip0_0_190">
<rect x="2" y="2" width="100" height="100" rx="50" fill="white"/>
</clipPath>
</defs>
</svg>
