<svg width="130" height="120" viewBox="0 0 130 120" fill="none" xmlns="http://www.w3.org/2000/svg">
<path d="M9.63516 63.3842L7.86349 62.9975L7.46016 61.2292C7.45335 61.1989 7.43643 61.1718 7.4122 61.1525C7.38797 61.1331 7.35786 61.1225 7.32682 61.1225C7.29566 61.1227 7.26546 61.1333 7.241 61.1527C7.21655 61.172 7.19924 61.1989 7.19183 61.2292L6.78849 63.0058L5.01682 63.4258C4.98628 63.4333 4.95914 63.4509 4.93979 63.4757C4.92044 63.5005 4.91 63.5311 4.91016 63.5625C4.91031 63.5936 4.92117 63.6236 4.94091 63.6476C4.96064 63.6716 4.98804 63.688 5.01849 63.6942L6.79016 64.0808L7.19183 65.8492C7.19924 65.8794 7.21655 65.9064 7.241 65.9257C7.26546 65.945 7.29566 65.9556 7.32682 65.9558C7.35786 65.9558 7.38797 65.9453 7.4122 65.9259C7.43643 65.9065 7.45335 65.8794 7.46016 65.8492L7.86516 64.0725L9.63682 63.6525C9.66797 63.6465 9.69605 63.6298 9.71624 63.6053C9.73643 63.5808 9.74747 63.5501 9.74747 63.5183C9.74747 63.4866 9.73643 63.4559 9.71624 63.4314C9.69605 63.4069 9.66797 63.3902 9.63682 63.3842H9.63516ZM54.3802 1.96751L53.0918 1.68751L52.7985 0.400843C52.7936 0.378786 52.7814 0.359038 52.7638 0.344813C52.7463 0.330589 52.7244 0.322726 52.7018 0.32251C52.6791 0.322935 52.6572 0.33084 52.6394 0.345001C52.6216 0.359162 52.609 0.37879 52.6035 0.400843L52.3102 1.69251L51.0218 1.99918C50.9995 2.00414 50.9795 2.0166 50.9653 2.03449C50.951 2.05239 50.9433 2.07463 50.9435 2.09751C50.9441 2.12025 50.9523 2.14213 50.9668 2.15966C50.9813 2.17718 51.0013 2.18934 51.0235 2.19418L52.3118 2.47417L52.6035 3.76084C52.609 3.78289 52.6216 3.80252 52.6394 3.81668C52.6572 3.83084 52.6791 3.83875 52.7018 3.83917C52.7244 3.83896 52.7463 3.8311 52.7638 3.81688C52.7814 3.80265 52.7936 3.7829 52.7985 3.76084L53.0935 2.46917L54.3818 2.16251C54.4042 2.1578 54.4241 2.14535 54.4381 2.12736C54.4522 2.10936 54.4594 2.08698 54.4585 2.06418C54.4586 2.0415 54.4508 2.0195 54.4366 2.00188C54.4223 1.98426 54.4024 1.97212 54.3802 1.96751ZM89.0185 38.5508L90.7902 38.1642L91.1918 36.3958C91.1992 36.3656 91.2166 36.3386 91.241 36.3193C91.2655 36.3 91.2957 36.2894 91.3268 36.2892C91.3579 36.2892 91.388 36.2997 91.4122 36.3191C91.4364 36.3385 91.4533 36.3656 91.4602 36.3958L91.8652 38.1725L93.6368 38.5925C93.668 38.5986 93.6961 38.6152 93.7162 38.6397C93.7364 38.6642 93.7475 38.6949 93.7475 38.7267C93.7475 38.7584 93.7364 38.7892 93.7162 38.8136C93.6961 38.8381 93.668 38.8548 93.6368 38.8608L91.8652 39.2475L91.4618 41.0158C91.455 41.0461 91.4381 41.0732 91.4139 41.0926C91.3896 41.1119 91.3595 41.1225 91.3285 41.1225C91.2973 41.1223 91.2671 41.1117 91.2427 41.0924C91.2182 41.073 91.2009 41.0461 91.1935 41.0158L90.7902 39.2392L89.0185 38.8192C88.988 38.8117 88.9608 38.7941 88.9415 38.7693C88.9221 38.7445 88.9117 38.714 88.9118 38.6825C88.9119 38.6517 88.9225 38.6218 88.9419 38.5979C88.9613 38.5739 88.9884 38.5573 89.0185 38.5508ZM96.4668 23.6225L97.3835 23.4225L97.5902 22.5075C97.5937 22.4916 97.6025 22.4773 97.6152 22.467C97.628 22.4568 97.6438 22.4512 97.6602 22.4512C97.6765 22.4512 97.6923 22.4568 97.7051 22.467C97.7178 22.4773 97.7267 22.4916 97.7302 22.5075L97.9385 23.4275L98.8552 23.6442C98.8707 23.6482 98.8846 23.6572 98.8945 23.6699C98.9044 23.6825 98.9099 23.6981 98.9102 23.7142C98.9101 23.7304 98.9044 23.746 98.894 23.7585C98.8837 23.7709 98.8694 23.7794 98.8535 23.7825L97.9368 23.9825L97.7302 24.8975C97.7267 24.9135 97.7178 24.9278 97.7051 24.938C97.6923 24.9482 97.6765 24.9538 97.6602 24.9538C97.6438 24.9538 97.628 24.9482 97.6152 24.938C97.6025 24.9278 97.5937 24.9135 97.5902 24.8975L97.3818 23.9775L96.4652 23.7608C96.4494 23.7571 96.4355 23.7481 96.4255 23.7354C96.4155 23.7227 96.4101 23.707 96.4102 23.6908C96.4102 23.6747 96.4159 23.659 96.4263 23.6465C96.4366 23.6341 96.4509 23.6256 96.4668 23.6225Z" fill="#171718"/>
<path d="M37.8008 113.587V58.9557C37.8008 57.4727 38.3899 56.0504 39.4385 55.0018C40.4872 53.9531 41.9094 53.364 43.3925 53.364H60.3925C61.4658 53.3642 62.5165 53.6732 63.419 54.2543C64.3216 54.8353 65.0379 55.6637 65.4824 56.6407L67.3025 60.6223C67.7468 61.5996 68.463 62.4284 69.3655 63.0097C70.2681 63.591 71.3189 63.9003 72.3924 63.9007H99.1458C99.8811 63.8996 100.609 64.0435 101.289 64.3242C101.969 64.605 102.586 65.017 103.106 65.5367C103.626 66.0564 104.039 66.6735 104.32 67.3529C104.602 68.0322 104.746 68.7604 104.746 69.4957V113.587C104.745 115.07 104.156 116.492 103.107 117.54C102.059 118.588 100.637 119.177 99.1541 119.177H43.3925C41.9097 119.177 40.4877 118.588 39.4391 117.54C38.3905 116.492 37.8012 115.07 37.8008 113.587Z" fill="#E0F2FE"/>
<path d="M99.1458 119.677H43.3925C41.7777 119.676 40.2295 119.033 39.0875 117.892C37.9456 116.75 37.303 115.202 37.3008 113.587V58.9557C37.3025 57.3406 37.9449 55.7922 39.0869 54.6502C40.229 53.5081 41.7774 52.8658 43.3925 52.864H60.3925C61.5615 52.8659 62.7054 53.2033 63.6883 53.8361C64.6712 54.469 65.4519 55.3706 65.9375 56.434L67.7508 60.4223C68.156 61.3115 68.8081 62.0655 69.6295 62.5947C70.4509 63.1238 71.407 63.4059 72.3841 63.4073H99.1458C100.762 63.4069 102.312 64.0478 103.455 65.1894C104.599 66.3309 105.243 67.8797 105.246 69.4957V113.587C105.244 115.204 104.6 116.753 103.456 117.895C102.312 119.037 100.762 119.678 99.1458 119.677ZM43.3925 53.8607C42.042 53.8624 40.7475 54.3999 39.7929 55.3551C38.8383 56.3103 38.3017 57.6052 38.3008 58.9557V113.587C38.3025 114.937 38.8396 116.231 39.7941 117.185C40.7487 118.139 42.0428 118.676 43.3925 118.677H99.1458C100.497 118.678 101.793 118.143 102.749 117.188C103.706 116.234 104.244 114.938 104.246 113.587V69.4957C104.244 68.1458 103.707 66.8518 102.753 65.8973C101.798 64.9428 100.504 64.4058 99.1541 64.404H72.3924C71.2232 64.4022 70.0791 64.0646 69.0961 63.4315C68.1131 62.7983 67.3326 61.8962 66.8474 60.8323L65.0358 56.844C64.6299 55.9552 63.9773 55.2016 63.1557 54.6727C62.3341 54.1439 61.3779 53.862 60.4008 53.8607H43.3925Z" fill="#171718"/>
<path d="M96.2701 119.177C96.2701 119.177 89.7201 118.859 88.1217 110.551L82.3884 78.1073C82.1601 76.8141 81.4839 75.6426 80.4782 74.7981C79.4725 73.9536 78.2016 73.4902 76.8884 73.489H26.1751C25.3525 73.4882 24.5398 73.669 23.7951 74.0183C23.0504 74.3676 22.3919 74.877 21.8666 75.51C21.3413 76.1431 20.9622 76.8842 20.7562 77.6806C20.5503 78.477 20.5226 79.309 20.6751 80.1173L27.1951 114.622C27.4372 115.903 28.1194 117.06 29.1237 117.891C30.128 118.723 31.3913 119.177 32.6951 119.176L96.2701 119.177Z" fill="white"/>
<path d="M96.2681 119.678H32.6881C31.2691 119.677 29.8949 119.181 28.8023 118.275C27.7097 117.37 26.9673 116.112 26.7031 114.718L20.1881 80.2175C20.0217 79.3374 20.0514 78.4314 20.2752 77.5641C20.4991 76.6967 20.9115 75.8895 21.483 75.1998C22.0546 74.5101 22.7713 73.9551 23.5819 73.5741C24.3926 73.1931 25.2774 72.9957 26.1731 72.9959H76.8798C78.3123 72.9936 79.6997 73.4971 80.7973 74.4176C81.895 75.3381 82.6324 76.6165 82.8798 78.0275L88.6148 110.471C90.1148 118.294 96.2314 118.683 96.2931 118.686L96.2681 119.678ZM26.1731 73.9892C25.4246 73.9897 24.6855 74.1551 24.0083 74.4738C23.3311 74.7925 22.7325 75.2566 22.255 75.833C21.7776 76.4094 21.4331 77.084 21.2461 77.8087C21.0591 78.5334 21.0342 79.2904 21.1731 80.0259L27.6881 114.526C27.9088 115.691 28.5289 116.742 29.4416 117.499C30.3543 118.256 31.5024 118.671 32.6881 118.673H93.0081C92.8531 118.589 92.6931 118.506 92.5331 118.403C90.7698 117.329 88.4881 115.113 87.6298 110.641L81.8948 78.1942C81.6873 77.0152 81.0706 75.9472 80.1533 75.1781C79.236 74.4089 78.0769 73.9879 76.8798 73.9892H26.1731Z" fill="#171718"/>
<path d="M59.0472 22.6873L42.7539 29.2373L55.3739 34.1906C55.3739 34.1906 66.7156 30.9956 59.0472 22.6873Z" fill="#171718"/>
<path d="M0.578125 17.4158C0.578125 17.4158 0.578125 69.6558 57.1298 33.0725C57.1298 33.0725 43.5515 35.6275 37.6398 4.95581L0.578125 17.4158Z" fill="white"/>
<path d="M23.5615 46.5808C19.6181 46.5808 16.1148 45.7475 13.0515 44.0808C7.73146 41.1875 3.80146 35.6491 1.68479 28.0675C0.711666 24.5968 0.172005 21.0191 0.078125 17.4158V17.0575L38.0231 4.29913L38.1315 4.8608C41.1548 20.5525 46.2048 27.2575 49.9115 30.1225C53.8215 33.1441 57.0098 32.5891 57.0415 32.5825L59.5415 32.1125L57.4048 33.4941C43.9298 42.2058 32.6015 46.5808 23.5615 46.5808ZM1.07812 17.7741C1.21509 21.1749 1.74244 24.5487 2.64979 27.8291C4.07479 32.9208 7.11812 39.7241 13.5265 43.2075C23.0231 48.3675 37.1081 45.1225 55.4115 33.5725C53.9531 33.4058 51.7448 32.8091 49.2898 30.9058C46.8348 29.0025 44.6231 26.1825 42.7281 22.5141C40.4415 18.0875 38.6015 12.4008 37.2531 5.6058L1.07812 17.7741Z" fill="#171718"/>
<path d="M18.4548 42.0173L18.1665 41.0606C18.2831 41.0256 29.9215 37.4989 40.4715 32.7756L40.8798 33.6873C30.2698 38.4389 18.5781 41.9823 18.4548 42.0173ZM15.1015 37.7039L14.8098 36.7473C14.9081 36.7173 24.8315 33.6606 36.8098 28.6173L37.1965 29.5389C25.1698 34.6023 15.2015 37.6723 15.1015 37.7039ZM11.4265 32.9106L11.1348 31.9556C11.2298 31.9273 20.6898 29.0289 33.1448 24.1406L33.5098 25.0723C21.0165 29.9739 11.5215 32.8823 11.4265 32.9106ZM8.86646 27.6406L8.57812 26.6823C8.67479 26.6523 18.3431 23.7923 22.8915 21.7523L23.3015 22.6656C18.6981 24.7323 8.96479 27.6123 8.86646 27.6406Z" fill="#171718"/>
<path d="M104.398 79.3069L108.318 76.8365L116.154 89.27L112.234 91.7404L104.398 79.3069Z" fill="#171718"/>
<path d="M98.6008 83.198C108.218 83.198 116.014 75.4018 116.014 65.7847C116.014 56.1676 108.218 48.3713 98.6008 48.3713C88.9837 48.3713 81.1875 56.1676 81.1875 65.7847C81.1875 75.4018 88.9837 83.198 98.6008 83.198Z" fill="white"/>
<path d="M98.6375 83.7028C97.2915 83.7025 95.9499 83.5516 94.6375 83.2528C90.2008 82.2363 86.3212 79.5607 83.7945 75.7747C81.2679 71.9887 80.2858 67.3793 81.0497 62.8922C81.8135 58.4051 84.2655 54.3804 87.9025 51.6436C91.5396 48.9069 96.086 47.6656 100.609 48.1745C105.132 48.6834 109.289 50.9037 112.227 54.3802C115.165 57.8566 116.662 62.3255 116.41 66.8702C116.157 71.4149 114.176 75.6908 110.871 78.8208C107.566 81.9508 103.189 83.6975 98.6375 83.7028ZM98.5758 48.8694C94.8268 48.8763 91.1864 50.1289 88.227 52.4303C85.2675 54.7318 83.1569 57.9515 82.2268 61.5833C81.2968 65.2151 81.6002 69.053 83.0893 72.4936C84.5783 75.9342 87.1686 78.7823 90.4529 80.5902C93.7372 82.3981 97.5292 83.0632 101.233 82.4809C104.936 81.8987 108.341 80.1021 110.912 77.3736C113.483 74.6452 115.075 71.1396 115.436 67.408C115.798 63.6765 114.909 59.9307 112.909 56.7595C111.39 54.3334 109.276 52.3357 106.768 50.956C104.26 49.5763 101.442 48.8604 98.5792 48.8761L98.5758 48.8694Z" fill="#171718"/>
<path d="M98.6003 79.0646C105.935 79.0646 111.88 73.119 111.88 65.7846C111.88 58.4503 105.935 52.5046 98.6003 52.5046C91.266 52.5046 85.3203 58.4503 85.3203 65.7846C85.3203 73.119 91.266 79.0646 98.6003 79.0646Z" fill="white"/>
<path d="M98.6251 79.5594C96.2286 79.563 93.8725 78.9413 91.7897 77.7557C89.707 76.5702 87.9694 74.8619 86.7488 72.7994C85.5282 70.737 84.8668 68.3918 84.8298 65.9955C84.7928 63.5992 85.3815 61.2348 86.5378 59.1356C87.6941 57.0365 89.3781 55.2753 91.4233 54.026C93.4685 52.7767 95.8042 52.0825 98.1997 52.0121C100.595 51.9416 102.968 52.4973 105.083 53.6242C107.198 54.7511 108.982 56.4102 110.26 58.4378C111.574 60.5203 112.305 62.9169 112.378 65.3781C112.451 67.8392 111.863 70.275 110.675 72.4317C109.487 74.5883 107.742 76.3871 105.623 77.6407C103.504 78.8943 101.087 79.5569 98.6251 79.5594ZM98.5785 52.9994C95.7437 53.0028 92.9904 53.9482 90.7515 55.687C88.5126 57.4258 86.9151 59.8594 86.2101 62.6052C85.5052 65.351 85.7328 68.2532 86.8572 70.8554C87.9816 73.4577 89.939 75.6125 92.4216 76.981C94.9043 78.3495 97.7713 78.8541 100.572 78.4154C103.373 77.9767 105.948 76.6197 107.893 74.5577C109.839 72.4956 111.043 69.8455 111.318 67.0241C111.593 64.2026 110.923 61.3698 109.412 58.9711C108.521 57.548 107.356 56.3159 105.985 55.346C104.615 54.3762 103.065 53.6879 101.427 53.3211C100.492 53.1082 99.5369 53.0003 98.5785 52.9994Z" fill="#171718"/>
<path d="M118.385 90.1763C117.176 88.2268 114.616 87.6263 112.667 88.8351C110.717 90.0438 110.117 92.6041 111.325 94.5536L120.67 109.625C121.879 111.575 124.439 112.175 126.389 110.966C128.338 109.758 128.939 107.197 127.73 105.248L118.385 90.1763Z" fill="white"/>
<path d="M124.101 111.009C123.314 111.011 122.539 110.813 121.849 110.434C121.159 110.055 120.576 109.508 120.156 108.843L110.702 93.8427C110.043 92.7979 109.827 91.5343 110.099 90.3296C110.372 89.125 111.113 88.0782 112.157 87.4193C113.202 86.7605 114.466 86.5436 115.67 86.8165C116.875 87.0894 117.922 87.8296 118.581 88.8743L128.036 103.874C128.479 104.578 128.726 105.387 128.751 106.218C128.775 107.05 128.577 107.872 128.175 108.601C127.774 109.329 127.185 109.936 126.469 110.36C125.753 110.783 124.937 111.007 124.106 111.008L124.101 111.009ZM114.632 87.701C113.979 87.7023 113.339 87.8785 112.777 88.2113C112.215 88.544 111.753 89.0212 111.438 89.5932C111.123 90.1651 110.967 90.811 110.986 91.4637C111.006 92.1163 111.199 92.7519 111.547 93.3043L121.002 108.304C121.258 108.71 121.591 109.062 121.983 109.339C122.375 109.616 122.817 109.813 123.285 109.919C123.753 110.025 124.237 110.038 124.71 109.957C125.183 109.876 125.636 109.703 126.041 109.447C126.447 109.191 126.799 108.858 127.076 108.466C127.353 108.074 127.55 107.632 127.656 107.164C127.762 106.696 127.775 106.212 127.694 105.739C127.613 105.266 127.44 104.814 127.184 104.408L117.729 89.4077C117.474 89.0005 117.142 88.6478 116.75 88.37C116.359 88.0922 115.916 87.8948 115.447 87.7893C115.18 87.7296 114.906 87.7 114.632 87.701Z" fill="#171718"/>
</svg>
