<svg width="120" height="120" viewBox="0 0 120 120" fill="none" xmlns="http://www.w3.org/2000/svg">
<path d="M106.753 118.608C113.747 118.608 119.417 117.311 119.417 115.713C119.417 114.114 113.747 112.818 106.753 112.818C99.7594 112.818 94.0898 114.114 94.0898 115.713C94.0898 117.311 99.7594 118.608 106.753 118.608Z" fill="#171718"/>
<path d="M49.8618 118.969C73.5898 118.969 92.8251 116.823 92.8251 114.176C92.8251 111.529 73.5898 109.383 49.8618 109.383C26.1338 109.383 6.89844 111.529 6.89844 114.176C6.89844 116.823 26.1338 118.969 49.8618 118.969Z" fill="#171718"/>
<path d="M108.806 48.0639L107.034 47.6772L106.631 45.9089C106.624 45.8786 106.607 45.8516 106.583 45.8322C106.559 45.8128 106.528 45.8022 106.497 45.8022C106.466 45.8025 106.436 45.8131 106.412 45.8324C106.387 45.8517 106.37 45.8786 106.362 45.9089L105.959 47.6856L104.187 48.1056C104.157 48.1131 104.13 48.1306 104.11 48.1554C104.091 48.1802 104.081 48.2108 104.081 48.2422C104.081 48.2733 104.092 48.3034 104.111 48.3273C104.131 48.3513 104.159 48.3678 104.189 48.3739L105.961 48.7606L106.362 50.5289C106.37 50.5592 106.387 50.5861 106.412 50.6054C106.436 50.6247 106.466 50.6354 106.497 50.6356C106.528 50.6356 106.559 50.625 106.583 50.6056C106.607 50.5862 106.624 50.5592 106.631 50.5289L107.036 48.7522L108.807 48.3322C108.839 48.3262 108.867 48.3095 108.887 48.285C108.907 48.2605 108.918 48.2298 108.918 48.1981C108.918 48.1663 108.907 48.1356 108.887 48.1111C108.867 48.0866 108.839 48.07 108.807 48.0639H108.806ZM23.6391 44.2306L21.8674 43.8439L21.4641 42.0756C21.4572 42.0453 21.4403 42.0182 21.4161 41.9989C21.3919 41.9795 21.3618 41.9689 21.3307 41.9689C21.2996 41.9691 21.2694 41.9797 21.2449 41.9991C21.2205 42.0184 21.2032 42.0453 21.1957 42.0756L20.7924 43.8522L19.0207 44.2722C18.9902 44.2797 18.963 44.2973 18.9437 44.3221C18.9243 44.3469 18.9139 44.3775 18.9141 44.4089C18.9142 44.44 18.9251 44.47 18.9448 44.494C18.9646 44.518 18.9919 44.5344 19.0224 44.5406L20.7941 44.9272L21.1957 46.6956C21.2032 46.7258 21.2205 46.7528 21.2449 46.7721C21.2694 46.7914 21.2996 46.802 21.3307 46.8022C21.3618 46.8022 21.3919 46.7917 21.4161 46.7723C21.4403 46.7529 21.4572 46.7258 21.4641 46.6956L21.8691 44.9189L23.6407 44.4989C23.6719 44.4929 23.7 44.4762 23.7201 44.4517C23.7403 44.4272 23.7514 44.3965 23.7514 44.3647C23.7514 44.333 23.7403 44.3023 23.7201 44.2778C23.7 44.2533 23.6719 44.2366 23.6407 44.2306H23.6391ZM99.8574 40.9689L98.9407 40.7689L98.7341 39.8539C98.7306 39.8379 98.7217 39.8237 98.709 39.8134C98.6962 39.8032 98.6804 39.7976 98.6641 39.7976C98.6477 39.7976 98.6319 39.8032 98.6191 39.8134C98.6064 39.8237 98.5976 39.8379 98.5941 39.8539L98.3857 40.7739L97.4691 40.9906C97.4533 40.9943 97.4394 41.0033 97.4294 41.016C97.4194 41.0287 97.414 41.0444 97.4141 41.0606C97.4141 41.0768 97.4198 41.0924 97.4302 41.1049C97.4405 41.1173 97.4548 41.1258 97.4707 41.1289L98.3874 41.3289L98.5941 42.2439C98.5976 42.2599 98.6064 42.2741 98.6191 42.2844C98.6319 42.2946 98.6477 42.3002 98.6641 42.3002C98.6804 42.3002 98.6962 42.2946 98.709 42.2844C98.7217 42.2741 98.7306 42.2599 98.7341 42.2439L98.9424 41.3239L99.8591 41.1072C99.8746 41.1032 99.8885 41.0942 99.8984 41.0815C99.9083 41.0689 99.9138 41.0533 99.9141 41.0372C99.914 41.0211 99.9083 41.0054 99.8979 40.9929C99.8876 40.9805 99.8733 40.972 99.8574 40.9689Z" fill="#171718"/>
<path d="M41.3594 77.9959L42.806 72.5692L59.811 77.2726L64.5144 86.4975L82.7844 89.3925L85.316 105.131L41.3594 77.9959Z" fill="#171718"/>
<path d="M85.317 105.136C78.9837 113.819 73.1954 118.702 61.9837 118.702C56.7172 118.704 51.5671 117.153 47.1781 114.242C42.7891 111.331 39.3561 107.19 37.3088 102.338C35.2615 97.4857 34.6908 92.1373 35.6682 86.9623C36.6456 81.7873 39.1277 77.0155 42.8037 73.2441L49.317 81.0775L64.8754 83.9691L69.5821 93.3725L77.9021 91.9258L85.317 105.136Z" fill="white"/>
<path d="M61.9804 119.197C46.9421 119.197 34.7071 106.962 34.7071 91.9258C34.6915 84.8127 37.4705 77.9781 42.4454 72.8941L42.8321 72.4974L49.5821 80.6124L65.2054 83.5191L69.8538 92.8158L78.1571 91.3724L85.9154 105.166L85.7271 105.426C79.3604 114.147 73.4371 119.197 61.9804 119.197ZM42.7788 73.9941C38.2213 78.851 35.6916 85.2655 35.7071 91.9258C35.7071 106.412 47.4938 118.197 61.9804 118.197C72.8988 118.197 78.6238 113.397 84.7221 105.094L77.6371 92.4774L69.3038 93.9291L64.5454 84.4124L49.0554 81.5291L42.7788 73.9941Z" fill="#171718"/>
<path d="M46.2417 46.8824L35.75 62.6191L45.88 63.8858L58 56.2874L60.895 59.1824L69.94 56.8308L82.06 63.1624L89.115 62.6191L76.995 46.5191L46.2417 46.8824Z" fill="#171718"/>
<path d="M77.1743 35.7557C74.271 30.3607 73.281 24.3324 72.7843 21.0774C72.6761 20.3805 72.322 19.7453 71.7861 19.2868C71.2502 18.8282 70.5679 18.5766 69.8627 18.5774H55.0927C54.3872 18.5765 53.7047 18.8281 53.1685 19.2866C52.6324 19.7451 52.278 20.3803 52.1693 21.0774C51.6693 24.3324 50.6827 30.3607 47.7793 35.7557C44.4827 41.8807 37.3777 53.3941 36.4727 61.1724L48.051 49.4141L58.181 57.3741L60.5327 55.9257L69.216 61.1724L76.9943 49.7757L88.481 61.1724C87.581 53.3941 80.471 41.8807 77.1743 35.7557Z" fill="white"/>
<path d="M35.8086 62.5611L35.9753 61.1144C36.7453 54.4978 41.7953 45.4678 45.4753 38.8744C46.1569 37.6578 46.7986 36.5078 47.3319 35.5194C50.2919 30.0194 51.2553 23.6994 51.6653 21.0028C51.7868 20.1845 52.1994 19.4376 52.8273 18.899C53.4553 18.3605 54.2564 18.0665 55.0836 18.0711H69.8536C70.6806 18.0666 71.4815 18.3606 72.1092 18.8992C72.7368 19.4377 73.1491 20.1847 73.2703 21.0028C73.6819 23.6994 74.6453 30.0178 77.6036 35.5194C78.1369 36.5078 78.7703 37.6578 79.4603 38.8744C83.1469 45.4678 88.1969 54.4978 88.9603 61.1144L89.1269 62.5328L77.0519 50.5544L69.3453 61.8444L60.5119 56.5111L58.1236 57.9811L48.0703 50.0828L35.8086 62.5611ZM60.5303 55.3411L69.0703 60.4994L76.9203 48.9994L87.7536 59.7411C86.5003 53.4811 81.9769 45.3928 78.6053 39.3644C77.9219 38.1444 77.2719 36.9911 76.7419 35.9961C73.6986 30.3411 72.7169 23.9044 72.2986 21.1628C72.2123 20.5815 71.9192 20.051 71.4731 19.6686C71.027 19.2861 70.4578 19.0775 69.8703 19.0811H55.0936C54.5058 19.0775 53.9365 19.286 53.4901 19.6684C53.0437 20.0508 52.7502 20.5814 52.6636 21.1628C52.2453 23.9128 51.2636 30.3494 48.2203 35.9961C47.6836 36.9961 47.0403 38.1444 46.3569 39.3644C42.9919 45.3828 38.4769 53.4528 37.2153 59.7078L48.0086 48.7461L58.2169 56.7678L60.5303 55.3411Z" fill="#171718"/>
<path d="M61.8644 73.0641L61.7294 72.0741C63.4619 71.8595 65.0776 71.0874 66.3327 69.8741C66.0894 69.793 65.8411 69.6997 65.5877 69.5941C64.6644 69.2158 62.8777 68.0941 62.7194 66.5675C62.6177 65.5808 63.1877 64.6608 64.4111 63.8341C65.2861 63.2425 66.9394 63.2175 67.9111 64.1275C68.6994 64.8641 69.2677 66.3408 67.8494 69.2525C69.7461 69.6358 71.0794 69.2408 71.9127 68.7691C73.3144 67.9925 73.9844 66.7208 74.1427 65.7908C74.1644 65.6608 74.1861 65.5325 74.2027 65.4058L74.0527 65.4508C73.0977 65.7308 70.3861 65.6758 69.4727 64.2958C68.8744 63.3925 69.1394 62.2358 70.2694 60.8558C70.8977 60.0875 72.2694 59.6208 73.4811 60.1708C74.2094 60.5041 75.2644 61.3975 75.3144 63.8075C76.0129 63.3708 76.5612 62.7311 76.8861 61.9741C78.1977 58.8958 75.9311 54.3858 75.8277 54.1825C75.5211 53.6425 69.8577 43.6441 68.2144 40.0424C65.8727 34.9125 64.7794 17.1041 64.7327 16.3474L65.7327 16.2891C65.7444 16.4708 66.8611 34.6658 69.1261 39.6225C70.7611 43.2058 76.6444 53.5891 76.7044 53.6941V53.7091C76.8111 53.9141 79.3177 58.7958 77.8011 62.3608C77.3049 63.5192 76.3995 64.4542 75.2577 64.9874C75.2277 65.2941 75.1844 65.6191 75.1244 65.9625C74.9277 67.1291 74.1061 68.6975 72.3944 69.6475C71.3461 70.2291 69.6844 70.7174 67.3544 70.1724L67.2861 70.2908L67.2394 70.3575C67.1727 70.4458 65.3644 72.5908 61.8644 73.0641ZM65.9594 64.4141C65.6132 64.4032 65.2709 64.4892 64.9711 64.6624C64.0761 65.2658 63.6544 65.8724 63.7144 66.4658C63.8094 67.3874 65.0894 68.3091 65.9661 68.6691C66.2738 68.7958 66.5716 68.9041 66.8594 68.9941C67.8411 67.0458 67.9811 65.5608 67.2277 64.8575C66.8752 64.5564 66.4227 64.3982 65.9594 64.4141ZM72.3661 60.9325C72.1195 60.9274 71.8747 60.9744 71.6476 61.0703C71.4204 61.1662 71.216 61.3089 71.0477 61.4891C70.4861 62.1774 69.9011 63.1258 70.3111 63.7441C70.8677 64.5775 72.9477 64.7341 73.7761 64.4908C73.9611 64.4375 74.1377 64.3774 74.3094 64.3125C74.3727 62.6274 73.9444 61.4791 73.0727 61.0808C72.8503 60.982 72.6094 60.9315 72.3661 60.9325ZM49.5961 71.9958C47.9711 71.9958 46.8677 71.4958 46.3177 70.4958C45.4511 68.9308 46.3461 66.7558 46.9161 65.9474C47.3888 65.2525 47.9754 64.6423 48.6511 64.1424C48.5694 64.0474 48.4844 63.9524 48.3977 63.8541L48.3811 63.8325C48.2461 63.6658 45.1244 59.6458 47.0577 55.7041C48.0277 53.7241 49.7661 50.9841 51.4461 48.3358C53.6644 44.8358 55.9561 41.2258 56.2411 39.7308C57.3277 34.0075 58.9311 16.4391 58.9477 16.2625L59.9477 16.3541C59.9327 16.5308 58.3244 34.1475 57.2277 39.9174C56.9077 41.6008 54.6677 45.1324 52.2961 48.8708C50.6294 51.4974 48.9077 54.2124 47.9627 56.1441C46.3461 59.4441 49.0077 62.9975 49.1661 63.2025C49.2938 63.3469 49.4188 63.4902 49.5411 63.6324C50.0725 63.3919 50.645 63.255 51.2277 63.2291C54.3794 63.0858 57.0111 66.1441 57.1211 66.2741L56.3594 66.9224C56.3361 66.8941 53.9277 64.1041 51.2694 64.2274C50.9083 64.2441 50.552 64.3161 50.2127 64.4408C52.3944 67.1575 53.1794 69.1524 52.6094 70.5174C52.2427 71.3924 51.3427 71.9125 50.0744 71.9808C49.9127 71.9908 49.7461 71.9958 49.5961 71.9958ZM49.2994 64.9141C48.6865 65.3545 48.1566 65.9002 47.7344 66.5258C47.2661 67.1925 46.6027 68.9508 47.1911 70.0125C47.5927 70.7375 48.5411 71.0641 50.0111 70.9841C50.5111 70.9575 51.3961 70.8174 51.6777 70.1341C51.9244 69.5424 51.8961 68.1058 49.2994 64.9141Z" fill="#E0F2FE"/>
<path d="M67.5797 6.30249V6.11916C67.5789 4.70936 67.0184 3.35756 66.0216 2.36068C65.0247 1.36381 63.6729 0.803373 62.2631 0.80249C60.8517 0.80249 59.4981 1.36316 58.5001 2.36117C57.5021 3.35918 56.9414 4.71276 56.9414 6.12416V6.30249H67.5797Z" fill="#171718"/>
<path d="M51.6992 4.91235H72.8275V17.8674H51.6992V4.91235Z" fill="#171718"/>
<path d="M72.2842 14.9373H52.4008C51.2475 14.9373 50.3125 15.8722 50.3125 17.0256C50.3125 18.1789 51.2475 19.1139 52.4008 19.1139H72.2842C73.4375 19.1139 74.3725 18.1789 74.3725 17.0256C74.3725 15.8722 73.4375 14.9373 72.2842 14.9373Z" fill="white"/>
<path d="M72.2842 19.6139H52.4008C51.7144 19.6139 51.056 19.3412 50.5706 18.8558C50.0852 18.3704 49.8125 17.7121 49.8125 17.0256C49.8125 16.3391 50.0852 15.6808 50.5706 15.1954C51.056 14.71 51.7144 14.4373 52.4008 14.4373H72.2842C72.9706 14.4373 73.629 14.71 74.1144 15.1954C74.5998 15.6808 74.8725 16.3391 74.8725 17.0256C74.8725 17.7121 74.5998 18.3704 74.1144 18.8558C73.629 19.3412 72.9706 19.6139 72.2842 19.6139ZM52.4008 15.4373C51.9796 15.4373 51.5756 15.6046 51.2777 15.9025C50.9798 16.2003 50.8125 16.6043 50.8125 17.0256C50.8125 17.4468 50.9798 17.8508 51.2777 18.1487C51.5756 18.4466 51.9796 18.6139 52.4008 18.6139H72.2842C72.7052 18.613 73.1086 18.4454 73.4063 18.1477C73.704 17.8501 73.8716 17.4466 73.8725 17.0256C73.8721 16.6045 73.7046 16.2007 73.4068 15.903C73.109 15.6052 72.7053 15.4377 72.2842 15.4373H52.4008Z" fill="#171718"/>
<path d="M72.2842 9.53931H52.4008C51.2475 9.53931 50.3125 10.4743 50.3125 11.6276C50.3125 12.781 51.2475 13.716 52.4008 13.716H72.2842C73.4375 13.716 74.3725 12.781 74.3725 11.6276C74.3725 10.4743 73.4375 9.53931 72.2842 9.53931Z" fill="white"/>
<path d="M72.2842 14.216H52.4008C51.7144 14.216 51.056 13.9433 50.5706 13.4579C50.0852 12.9725 49.8125 12.3141 49.8125 11.6276C49.8125 10.9412 50.0852 10.2828 50.5706 9.79741C51.056 9.312 51.7144 9.03931 52.4008 9.03931H72.2842C72.9706 9.03931 73.629 9.312 74.1144 9.79741C74.5998 10.2828 74.8725 10.9412 74.8725 11.6276C74.8725 12.3141 74.5998 12.9725 74.1144 13.4579C73.629 13.9433 72.9706 14.216 72.2842 14.216ZM52.4008 10.0393C51.9796 10.0393 51.5756 10.2066 51.2777 10.5045C50.9798 10.8024 50.8125 11.2064 50.8125 11.6276C50.8125 12.0489 50.9798 12.4529 51.2777 12.7508C51.5756 13.0486 51.9796 13.216 52.4008 13.216H72.2842C72.7054 13.216 73.1094 13.0486 73.4073 12.7508C73.7052 12.4529 73.8725 12.0489 73.8725 11.6276C73.8725 11.2064 73.7052 10.8024 73.4073 10.5045C73.1094 10.2066 72.7054 10.0393 72.2842 10.0393H52.4008Z" fill="#171718"/>
<path d="M72.2842 4.14087H52.4008C51.2475 4.14087 50.3125 5.07585 50.3125 6.2292C50.3125 7.38256 51.2475 8.31754 52.4008 8.31754H72.2842C73.4375 8.31754 74.3725 7.38256 74.3725 6.2292C74.3725 5.07585 73.4375 4.14087 72.2842 4.14087Z" fill="white"/>
<path d="M72.2842 8.81754H52.4008C52.0609 8.81754 51.7244 8.75059 51.4103 8.62051C51.0963 8.49043 50.811 8.29978 50.5706 8.05943C50.3303 7.81908 50.1396 7.53375 50.0095 7.21972C49.8794 6.90569 49.8125 6.56911 49.8125 6.2292C49.8125 5.8893 49.8794 5.55272 50.0095 5.23869C50.1396 4.92466 50.3303 4.63933 50.5706 4.39898C50.811 4.15863 51.0963 3.96797 51.4103 3.8379C51.7244 3.70782 52.0609 3.64087 52.4008 3.64087H72.2842C72.9706 3.64087 73.629 3.91357 74.1144 4.39898C74.5998 4.88438 74.8725 5.54273 74.8725 6.2292C74.8725 6.91567 74.5998 7.57403 74.1144 8.05943C73.629 8.54484 72.9706 8.81754 72.2842 8.81754ZM52.4008 4.63587C51.9796 4.63587 51.5756 4.80321 51.2777 5.10108C50.9798 5.39895 50.8125 5.80295 50.8125 6.2242C50.8125 6.64545 50.9798 7.04946 51.2777 7.34733C51.5756 7.6452 51.9796 7.81254 52.4008 7.81254H72.2842C72.7054 7.81254 73.1094 7.6452 73.4073 7.34733C73.7052 7.04946 73.8725 6.64545 73.8725 6.2242C73.8725 5.80295 73.7052 5.39895 73.4073 5.10108C73.1094 4.80321 72.7054 4.63587 72.2842 4.63587H52.4008Z" fill="#171718"/>
<path d="M29.8737 71.5525C30.3437 71.1369 30.972 70.9508 31.7587 70.9941C32.5454 71.0375 33.5187 71.2558 34.6787 71.6491C35.8387 72.0436 36.7276 72.4797 37.3454 72.9574C37.9631 73.4352 38.3281 73.9908 38.4404 74.6241C38.5526 75.1648 38.5616 75.7218 38.467 76.2658C38.3135 76.9303 38.1215 77.5852 37.892 78.2274L27.4304 108.932C26.9426 110.367 26.4076 111.367 25.8254 111.932C25.5564 112.203 25.234 112.414 24.8787 112.553C24.5235 112.692 24.1431 112.756 23.762 112.739C22.8086 112.684 21.8686 112.488 20.972 112.159C19.9043 111.794 19.0887 111.413 18.5254 111.017C18.0555 110.71 17.6455 110.32 17.3154 109.866C17.0657 109.462 16.9491 108.99 16.982 108.516C16.9731 107.816 17.1887 106.821 17.6287 105.532L19.9154 98.7908L4.95036 93.6925C2.3737 92.8147 1.08425 91.5925 1.08203 90.0258C1.0987 89.3747 1.27648 88.5519 1.61536 87.5575C1.95425 86.563 2.26037 85.8458 2.5337 85.4058L13.4154 68.4691C13.9254 67.698 14.3381 67.1197 14.6537 66.7341C15.0393 66.3031 15.5321 65.9816 16.082 65.8025C16.7176 65.5669 17.422 65.5808 18.1954 65.8441C19.0508 66.151 19.8609 66.572 20.6037 67.0958C22.937 68.6747 23.8259 70.2919 23.2704 71.9474C22.9679 72.724 22.5686 73.4592 22.082 74.1358C22.036 74.1773 21.9982 74.2271 21.9704 74.2825L14.012 86.6158L23.012 89.6825L28.147 74.6075C28.35 73.9765 28.5915 73.3587 28.8704 72.7574C29.1257 72.296 29.4662 71.8872 29.8737 71.5525Z" fill="white"/>
<path d="M23.8587 113.238H23.7487C22.7452 113.181 21.7553 112.978 20.8104 112.636C19.6837 112.251 18.842 111.858 18.237 111.429C17.7167 111.087 17.2646 110.65 16.9037 110.143C16.5964 109.657 16.4483 109.088 16.4804 108.514C16.4804 107.751 16.6937 106.723 17.147 105.374L19.2804 99.1109L4.7887 94.1725C1.9987 93.2225 0.583698 91.8392 0.582031 90.0409C0.598698 89.3209 0.782031 88.4642 1.14203 87.4092C1.50203 86.3542 1.8087 85.6325 2.1087 85.1559L12.9987 68.2042C13.527 67.4042 13.942 66.8225 14.2704 66.4209C14.7122 65.9221 15.278 65.549 15.9104 65.3392C16.6537 65.0625 17.477 65.0759 18.357 65.3759C19.2557 65.6975 20.1068 66.1393 20.887 66.6892C23.422 68.3992 24.387 70.2242 23.7387 72.1142C23.5237 72.7475 23.1187 73.5025 22.5054 74.4175L22.477 74.4609L22.4404 74.4959V74.5042L14.7954 86.3375L22.717 89.0375L27.6904 74.4342C27.9004 73.782 28.1508 73.1435 28.4404 72.5225C28.7203 72.0045 29.0971 71.5451 29.5504 71.1692C30.1204 70.6692 30.8754 70.4375 31.7937 70.4859C32.627 70.5309 33.6537 70.7609 34.8487 71.1675C36.0437 71.5742 36.9987 72.0442 37.6587 72.5542C38.3754 73.1092 38.8054 73.7725 38.942 74.5292C39.0644 75.1335 39.0723 75.7553 38.9654 76.3625C38.8072 77.0472 38.6097 77.7223 38.3737 78.3842L27.9037 109.094C27.3837 110.619 26.8187 111.664 26.172 112.289C25.8686 112.593 25.5078 112.833 25.1107 112.996C24.7135 113.159 24.2879 113.241 23.8587 113.238ZM17.032 66.1359C16.7677 66.1353 16.5053 66.1816 16.257 66.2725C15.7918 66.4229 15.3736 66.6917 15.0437 67.0525C14.7404 67.4225 14.3354 67.9909 13.837 68.7459L2.9537 85.6792C2.5945 86.3301 2.30244 87.0158 2.08203 87.7259C1.76036 88.6692 1.59036 89.4492 1.58203 90.0459C1.58203 91.3492 2.77036 92.4225 5.11203 93.2125L20.5504 98.4725L18.0937 105.683C17.6754 106.913 17.467 107.859 17.4737 108.501V108.523C17.4467 108.894 17.5371 109.264 17.732 109.581C18.0283 109.982 18.3948 110.327 18.8137 110.598C19.332 110.966 20.1137 111.328 21.132 111.676C21.9822 111.987 22.8732 112.174 23.777 112.229C24.0913 112.243 24.4049 112.191 24.6977 112.076C24.9905 111.961 25.256 111.786 25.477 111.563C25.9987 111.063 26.497 110.118 26.957 108.764L37.4154 78.0675C37.6376 77.4454 37.824 76.811 37.9737 76.1675C38.0542 75.6849 38.0446 75.1916 37.9454 74.7125C37.8537 74.2025 37.557 73.7575 37.0354 73.3542C36.4637 72.9125 35.6154 72.4975 34.5137 72.1225C33.412 71.7475 32.4687 71.5325 31.7287 71.4925C31.072 71.4559 30.572 71.6009 30.2004 71.9275C29.8446 72.2202 29.5467 72.5769 29.322 72.9792C29.054 73.5601 28.8213 74.1568 28.6254 74.7659L23.332 90.3142L13.2487 86.8792L21.5337 74.0459C21.5781 73.9637 21.6343 73.8885 21.7004 73.8225C22.1466 73.1917 22.5143 72.5089 22.7954 71.7892C23.2804 70.3609 22.4737 68.9559 20.327 67.5142C19.621 67.0149 18.8507 66.6135 18.037 66.3209C17.7145 66.2044 17.3749 66.1419 17.032 66.1359Z" fill="#171718"/>
<path d="M101.83 74.8843C102.072 74.3054 102.557 73.8609 103.283 73.5509C104.01 73.2409 104.981 73.0143 106.197 72.8709C107.413 72.7209 108.404 72.7265 109.168 72.8876C109.933 73.0487 110.503 73.3898 110.88 73.9109C111.216 74.3496 111.467 74.8478 111.618 75.3793C111.768 76.044 111.879 76.7168 111.952 77.3943L115.913 109.598C116.098 111.102 116.051 112.234 115.772 112.994C115.649 113.355 115.452 113.685 115.193 113.965C114.935 114.245 114.621 114.468 114.272 114.619C113.389 114.984 112.457 115.217 111.507 115.311C110.387 115.45 109.487 115.463 108.807 115.349C108.25 115.278 107.711 115.106 107.217 114.839C106.814 114.586 106.501 114.213 106.322 113.773C106.011 113.146 105.772 112.156 105.605 110.804L104.737 103.741L89.0451 105.668C86.3429 106.001 84.6507 105.464 83.9685 104.058C83.7007 103.464 83.5023 102.646 83.3735 101.603C83.2468 100.561 83.2068 99.7809 83.2635 99.2693L85.6885 79.2826C85.8096 78.3659 85.929 77.6654 86.0468 77.1809C86.2056 76.6253 86.5086 76.1215 86.9251 75.7209C87.3951 75.232 88.0351 74.9382 88.8451 74.8393C89.7489 74.7419 90.6618 74.7683 91.5585 74.9176C94.3507 75.3198 95.8535 76.3893 96.0668 78.1259C96.1356 78.9544 96.0997 79.7881 95.9601 80.6076C95.935 80.6642 95.9225 80.7256 95.9235 80.7876L94.1268 95.3509L103.565 94.1843L101.623 78.3776C101.532 77.7213 101.48 77.0601 101.468 76.3976C101.493 75.8749 101.616 75.3615 101.83 74.8843Z" fill="white"/>
<path d="M109.849 115.926C109.469 115.929 109.09 115.901 108.715 115.843C108.096 115.763 107.498 115.568 106.95 115.268C106.462 114.965 106.081 114.516 105.86 113.986C105.527 113.303 105.272 112.281 105.099 110.866L104.292 104.303L89.0972 106.169C86.1705 106.528 84.2905 105.893 83.5088 104.279C83.2121 103.624 83.0088 102.779 82.8688 101.668C82.7288 100.556 82.7021 99.7775 82.7571 99.2175L85.1821 79.2175C85.2689 78.4895 85.3924 77.7664 85.5521 77.0509C85.7299 76.4089 86.075 75.8257 86.5521 75.3609C87.1021 74.7892 87.8488 74.4425 88.7722 74.3292C89.7209 74.2274 90.679 74.2543 91.6205 74.4092C94.6471 74.8459 96.3071 76.0759 96.5505 78.0509C96.6321 78.7175 96.5971 79.5709 96.4421 80.6642V80.7142L96.4255 80.7609V80.7725L94.6988 94.7609L103.005 93.7409L101.125 78.4292C101.028 77.751 100.973 77.0675 100.959 76.3825C100.986 75.7942 101.126 75.2165 101.37 74.6809C101.664 73.9809 102.244 73.4442 103.092 73.0892C103.86 72.7675 104.884 72.5259 106.139 72.3725C107.394 72.2192 108.457 72.2259 109.272 72.3959C110.159 72.5842 110.835 72.9942 111.287 73.6159C111.659 74.1063 111.937 74.6619 112.105 75.2542C112.262 75.9395 112.378 76.6335 112.452 77.3325L116.405 109.536C116.602 111.136 116.547 112.324 116.239 113.168C116.092 113.591 115.858 113.979 115.554 114.307C115.249 114.636 114.88 114.897 114.469 115.076C113.539 115.459 112.558 115.704 111.557 115.803C110.991 115.878 110.42 115.919 109.849 115.926ZM105.164 103.184L106.09 110.744C106.257 112.033 106.474 112.978 106.757 113.551L106.767 113.569C106.905 113.913 107.148 114.204 107.46 114.403C107.902 114.635 108.382 114.786 108.877 114.849C109.505 114.954 110.365 114.939 111.434 114.809C112.335 114.719 113.219 114.499 114.057 114.156C114.346 114.033 114.605 113.85 114.819 113.621C115.032 113.391 115.195 113.119 115.297 112.823C115.547 112.141 115.585 111.078 115.41 109.656L111.46 77.4692C111.39 76.8119 111.281 76.1591 111.135 75.5142C110.996 75.0442 110.77 74.6044 110.469 74.2175C110.164 73.7975 109.702 73.5259 109.057 73.3842C108.35 73.2375 107.405 73.2325 106.252 73.3742C105.099 73.5159 104.154 73.7342 103.47 74.0209C102.864 74.2759 102.47 74.6209 102.284 75.0775C102.09 75.4972 101.977 75.9495 101.95 76.4109C101.962 77.0506 102.013 77.689 102.102 78.3225L104.102 94.6275L93.5322 95.9242L95.4038 80.7575C95.406 80.665 95.4223 80.5734 95.4521 80.4859C95.5802 79.724 95.6132 78.9492 95.5505 78.1792C95.3671 76.6792 94.0321 75.7742 91.4671 75.4059C90.6146 75.2631 89.7466 75.2373 88.8872 75.3292C88.1872 75.4142 87.6571 75.6625 87.2671 76.0609C86.9129 76.3981 86.6532 76.8221 86.5138 77.2909C86.4022 77.7559 86.2838 78.4459 86.1638 79.3425L83.7488 99.3259C83.7096 100.066 83.7465 100.808 83.8588 101.541C83.9805 102.531 84.1671 103.308 84.4138 103.851C84.9821 105.018 86.5188 105.473 88.9738 105.171L105.164 103.184Z" fill="#171718"/>
</svg>
