<svg width="134" height="116" viewBox="0 0 134 116" fill="none" xmlns="http://www.w3.org/2000/svg">
<path d="M130.297 41.7757L128.525 41.389L128.122 39.6207C128.115 39.5904 128.098 39.5634 128.074 39.544C128.049 39.5246 128.019 39.514 127.988 39.514C127.957 39.5143 127.927 39.5249 127.902 39.5442C127.878 39.5635 127.861 39.5904 127.853 39.6207L127.45 41.3974L125.678 41.8174C125.648 41.8249 125.621 41.8424 125.601 41.8672C125.582 41.892 125.571 41.9226 125.572 41.954C125.572 41.9851 125.583 42.0151 125.602 42.0391C125.622 42.0631 125.65 42.0796 125.68 42.0857L127.452 42.4724L127.853 44.2407C127.861 44.271 127.878 44.2979 127.902 44.3172C127.927 44.3365 127.957 44.3471 127.988 44.3474C128.019 44.3474 128.049 44.3368 128.074 44.3174C128.098 44.298 128.115 44.271 128.122 44.2407L128.527 42.464L130.298 42.044C130.329 42.038 130.358 42.0213 130.378 41.9968C130.398 41.9723 130.409 41.9416 130.409 41.9099C130.409 41.8781 130.398 41.8474 130.378 41.8229C130.358 41.7984 130.329 41.7817 130.298 41.7757H130.297ZM18.4633 55.2757L16.6916 54.889L16.2883 53.1207C16.2815 53.0904 16.2646 53.0634 16.2403 53.044C16.2161 53.0246 16.186 53.014 16.1549 53.014C16.1238 53.0142 16.0936 53.0249 16.0691 53.0442C16.0447 53.0635 16.0274 53.0904 16.02 53.1207L15.6166 54.8974L13.845 55.3174C13.8144 55.3249 13.7873 55.3424 13.7679 55.3672C13.7486 55.392 13.7381 55.4226 13.7383 55.454C13.7384 55.4851 13.7493 55.5151 13.769 55.5391C13.7888 55.5631 13.8162 55.5796 13.8466 55.5857L15.6183 55.9724L16.02 57.7407C16.0274 57.771 16.0447 57.7979 16.0691 57.8172C16.0936 57.8365 16.1238 57.8472 16.1549 57.8474C16.186 57.8474 16.2161 57.8368 16.2403 57.8174C16.2646 57.798 16.2815 57.771 16.2883 57.7407L16.6933 55.964L18.4649 55.544C18.4961 55.538 18.5242 55.5213 18.5444 55.4968C18.5646 55.4723 18.5756 55.4416 18.5756 55.4099C18.5756 55.3781 18.5646 55.3474 18.5444 55.3229C18.5242 55.2984 18.4961 55.2817 18.4649 55.2757H18.4633ZM121.348 34.6807L120.432 34.4807L120.225 33.5657C120.221 33.5497 120.213 33.5355 120.2 33.5252C120.187 33.515 120.171 33.5094 120.155 33.5094C120.139 33.5094 120.123 33.515 120.11 33.5252C120.097 33.5355 120.088 33.5497 120.085 33.5657L119.877 34.4857L118.96 34.7024C118.944 34.7061 118.93 34.7151 118.92 34.7278C118.91 34.7405 118.905 34.7562 118.905 34.7724C118.905 34.7885 118.911 34.8042 118.921 34.8167C118.931 34.8291 118.946 34.8376 118.962 34.8407L119.878 35.0407L120.085 35.9557C120.088 35.9717 120.097 35.9859 120.11 35.9962C120.123 36.0064 120.139 36.012 120.155 36.012C120.171 36.012 120.187 36.0064 120.2 35.9962C120.213 35.9859 120.221 35.9717 120.225 35.9557L120.433 35.0357L121.35 34.819C121.366 34.815 121.379 34.806 121.389 34.7933C121.399 34.7807 121.405 34.7651 121.405 34.749C121.405 34.7328 121.399 34.7172 121.389 34.7047C121.379 34.6923 121.364 34.6838 121.348 34.6807Z" fill="#171718"/>
<path d="M0.0703125 115.014H23.192C23.4853 111.951 21.077 110.892 21.077 110.892C21.6603 109.926 21.387 109.306 21.387 109.306C21.022 108.796 20.6386 109.306 20.6386 109.306C20.657 108.066 20.037 107.846 20.037 107.846C19.6003 107.737 19.4536 108.594 19.4536 108.594C18.1403 107.226 16.8636 107.974 16.8636 107.974C16.9743 107.671 17.0058 107.345 16.9553 107.026C16.7186 106.716 16.4636 107.117 16.4636 107.117C16.5353 105.451 15.9336 105.384 15.9336 105.384C15.332 105.366 15.442 106.642 15.442 106.642C14.5703 105.439 13.5703 105.384 13.5703 105.384C12.002 105.366 11.217 107.007 11.217 107.007C11.327 105.056 10.6153 105.056 10.6153 105.056C9.81198 105.222 10.3236 107.336 10.3236 107.336C9.19198 106.442 8.20865 106.669 8.20865 106.669C6.31031 107.002 5.78198 109.669 5.78198 109.669C5.25365 108.921 4.88865 109.104 4.88865 109.104C4.37865 109.377 4.63365 110.161 4.63365 110.161C2.95531 110.581 4.26865 110.909 4.26865 110.909C4.0386 111.127 3.85295 111.387 3.72198 111.676C0.650313 111.622 0.0703125 115.014 0.0703125 115.014ZM101.085 115.014H133.892C134.307 110.667 130.892 109.167 130.892 109.167C131.725 107.796 131.332 106.916 131.332 106.916C130.814 106.191 130.27 106.916 130.27 106.916C130.297 105.156 129.417 104.846 129.417 104.846C128.795 104.691 128.584 105.907 128.584 105.907C126.72 103.966 124.917 105.027 124.917 105.027C125.175 104.194 125.045 103.681 125.045 103.681C124.712 103.242 124.347 103.811 124.347 103.811C124.45 101.456 123.597 101.352 123.597 101.352C122.744 101.327 122.899 103.137 122.899 103.137C121.655 101.431 120.237 101.347 120.237 101.347C118.012 101.322 116.904 103.651 116.904 103.651C117.059 100.882 116.05 100.882 116.05 100.882C114.912 101.116 115.637 104.116 115.637 104.116C114.032 102.849 112.637 103.159 112.637 103.159C109.945 103.624 109.195 107.402 109.195 107.402C108.445 106.341 107.927 106.601 107.927 106.601C107.204 106.989 107.565 108.101 107.565 108.101C105.185 108.696 107.049 109.162 107.049 109.162C106.722 109.471 106.458 109.84 106.272 110.249C101.914 110.202 101.085 115.014 101.085 115.014Z" fill="#171718"/>
<path d="M55.3456 114.644H5.90393C5.2806 108.094 10.4273 105.831 10.4273 105.831C9.17894 103.764 9.7606 102.439 9.7606 102.439C10.5406 101.347 11.3606 102.439 11.3606 102.439C11.3206 99.7875 12.6473 99.3191 12.6473 99.3191C13.5823 99.0858 13.8956 100.917 13.8956 100.917C16.7023 97.9925 19.4323 99.5925 19.4323 99.5925C19.0389 98.3475 19.2373 97.5641 19.2373 97.5641C19.7373 96.8975 20.2906 97.7591 20.2906 97.7591C20.1339 94.2108 21.4206 94.0541 21.4206 94.0541C22.7073 94.0158 22.4739 96.7458 22.4739 96.7458C24.3456 94.1708 26.4906 94.0541 26.4906 94.0541C29.8439 94.0158 31.5206 97.5258 31.5206 97.5258C31.2873 93.3591 32.8089 93.3591 32.8089 93.3591C34.5239 93.7108 33.4323 98.2341 33.4323 98.2341C35.8506 96.3225 37.9556 96.7908 37.9556 96.7908C42.0106 97.4925 43.1423 103.186 43.1423 103.186C44.2739 101.587 45.0523 101.977 45.0523 101.977C46.1456 102.562 45.5989 104.239 45.5989 104.239C49.1873 105.136 46.3789 105.837 46.3789 105.837C47.0806 106.422 47.5456 107.476 47.5456 107.476C54.0973 107.391 55.3456 114.644 55.3456 114.644Z" fill="white"/>
<path d="M55.9373 115.144H5.43731L5.39397 114.692C4.86064 109.086 8.41231 106.422 9.72731 105.634C8.70064 103.624 9.26231 102.301 9.28898 102.237L9.30898 102.191L9.33897 102.147C9.74564 101.581 10.1906 101.457 10.494 101.454C10.6326 101.449 10.771 101.469 10.9023 101.514C11.1606 99.3474 12.419 98.869 12.479 98.8474L12.524 98.834C12.6756 98.7945 12.8338 98.7875 12.9883 98.8133C13.1428 98.8392 13.2901 98.8974 13.4206 98.984C13.7589 99.2404 14.0126 99.5922 14.149 99.994C15.9606 98.479 17.7073 98.5557 18.739 98.8107C18.6598 98.3577 18.6637 97.894 18.7506 97.4424L18.7756 97.3424L18.839 97.2607C18.9324 97.1199 19.06 97.0052 19.2098 96.9271C19.3596 96.8489 19.5267 96.8101 19.6956 96.814C19.724 96.8124 19.7523 96.8124 19.7806 96.814C19.8756 93.8924 21.094 93.584 21.359 93.5507H21.404C21.5831 93.544 21.7615 93.576 21.9272 93.6444C22.0928 93.7129 22.2418 93.8162 22.364 93.9474C22.7073 94.3107 22.864 94.8824 22.939 95.4207C24.6756 93.6707 26.379 93.5557 26.4623 93.5524H26.5456C28.6673 93.5524 30.1506 94.8107 31.024 95.8707C31.1106 94.684 31.3956 93.829 31.879 93.319C31.9945 93.1828 32.1361 93.0711 32.2956 92.9907C32.4551 92.9102 32.6291 92.8626 32.8073 92.8507H32.8573L32.9073 92.8607C33.1014 92.9013 33.285 92.9815 33.4467 93.0962C33.6085 93.2109 33.7448 93.3576 33.8473 93.5274C34.4073 94.409 34.3073 96.0157 34.144 97.1357C36.1973 95.959 37.8623 96.2507 38.049 96.289C41.364 96.869 42.844 100.387 43.3823 102.122C44.4106 101.137 45.179 101.471 45.279 101.521C46.219 102.021 46.324 103.079 46.1973 103.872C47.419 104.227 47.9256 104.612 47.9256 105.159C47.9256 105.564 47.6106 105.844 47.259 106.031C47.4861 106.325 47.6874 106.638 47.8606 106.967C54.4856 107.117 55.829 114.481 55.8423 114.557L55.9373 115.144ZM6.35898 114.144H54.7173C54.279 112.492 52.6223 107.977 47.649 107.977H47.2173L47.084 107.677C47.084 107.669 46.6523 106.722 46.0506 106.221L45.294 105.591L46.2523 105.347C46.4303 105.302 46.6034 105.239 46.769 105.159C46.3551 104.963 45.92 104.815 45.4723 104.719L44.9523 104.589L45.119 104.079C45.119 104.069 45.5073 102.832 44.844 102.432C44.6906 102.406 44.2006 102.542 43.5456 103.471L42.879 104.421L42.6523 103.279C42.6406 103.226 41.5356 97.9124 37.8706 97.279H37.8473C37.7723 97.264 35.924 96.9024 33.7423 98.6257L32.6023 99.514L32.9356 98.109C33.2156 96.9424 33.479 94.824 32.9956 94.0657C32.9462 93.9769 32.8697 93.9063 32.7773 93.864C32.469 93.989 31.859 94.8057 32.0106 97.4957L32.1523 100.026L31.069 97.7407C31.054 97.709 29.4906 94.524 26.509 94.554C26.359 94.5674 24.5323 94.7624 22.8773 97.039L21.8206 98.4907L21.974 96.7024C22.029 96.0507 21.9606 94.979 21.6406 94.639C21.6026 94.5937 21.5492 94.564 21.4906 94.5557C21.234 94.679 20.6906 95.4307 20.7906 97.7374L20.874 99.604L19.874 98.0274C19.8272 97.9593 19.7711 97.8982 19.7073 97.8457C19.6728 98.3864 19.7436 98.9286 19.9156 99.4424L20.3023 100.677L19.1856 100.024C19.0906 99.969 16.7473 98.6757 14.2623 101.264L13.569 101.979L13.4023 101.002C13.3356 100.622 13.1223 99.984 12.8756 99.8224C12.8645 99.8134 12.8517 99.8067 12.838 99.8027C12.8242 99.7987 12.8099 99.7975 12.7956 99.799C12.6606 99.8674 11.829 100.376 11.8606 102.431L11.8823 103.969L10.9606 102.739C10.8923 102.651 10.684 102.454 10.5223 102.454C10.4073 102.454 10.2856 102.581 10.2073 102.681C10.1373 102.897 9.87398 103.957 10.8556 105.572L11.149 106.061L10.629 106.289C10.429 106.374 6.04231 108.396 6.35898 114.144Z" fill="#171718"/>
<path d="M129.536 114.644H80.0875C79.4642 108.094 84.6125 105.831 84.6125 105.831C83.3642 103.764 83.9458 102.439 83.9458 102.439C84.7258 101.347 85.5442 102.439 85.5442 102.439C85.5059 99.7873 86.8308 99.319 86.8308 99.319C87.7675 99.0857 88.0792 100.917 88.0792 100.917C90.8875 97.9923 93.6175 99.5923 93.6175 99.5923C93.2275 98.344 93.4225 97.564 93.4225 97.564C93.9225 96.8973 94.4742 97.759 94.4742 97.759C94.3192 94.2107 95.6059 94.054 95.6059 94.054C96.8925 94.0157 96.6592 96.7457 96.6592 96.7457C98.5309 94.1707 100.676 94.054 100.676 94.054C104.029 94.0157 105.706 97.5257 105.706 97.5257C105.473 93.359 106.993 93.359 106.993 93.359C108.709 93.7107 107.616 98.234 107.616 98.234C110.034 96.3223 112.141 96.7907 112.141 96.7907C116.196 97.4923 117.328 103.186 117.328 103.186C118.458 101.587 119.238 101.977 119.238 101.977C120.329 102.562 119.784 104.239 119.784 104.239C123.371 105.136 120.564 105.837 120.564 105.837C121.266 106.422 121.731 107.476 121.731 107.476C128.288 107.391 129.536 114.644 129.536 114.644Z" fill="white"/>
<path d="M130.127 115.144H79.6275L79.5842 114.692C79.0508 109.086 82.6008 106.422 83.9175 105.634C82.8925 103.624 83.4542 102.301 83.4792 102.237L83.5008 102.191L83.5308 102.147C83.9358 101.581 84.3825 101.457 84.6842 101.454C84.8189 101.451 84.9532 101.471 85.0808 101.514C85.3375 99.3474 86.5958 98.869 86.6558 98.8474L86.7025 98.834C86.8538 98.7947 87.0118 98.7877 87.166 98.8136C87.3202 98.8394 87.4672 98.8975 87.5975 98.984C87.9358 99.2407 88.1899 99.5923 88.3275 99.994C90.1391 98.479 91.8858 98.5557 92.9158 98.8107C92.8357 98.3577 92.8402 97.8937 92.9291 97.4424L92.9541 97.3424L93.0158 97.2607C93.1093 97.1199 93.2368 97.0052 93.3866 96.9271C93.5364 96.8489 93.7036 96.8101 93.8725 96.814C93.9013 96.8123 93.9303 96.8123 93.9592 96.814C94.0525 93.8924 95.2725 93.584 95.5375 93.5507H95.5825C95.7616 93.5444 95.9399 93.5765 96.1055 93.6449C96.2711 93.7133 96.4201 93.8165 96.5425 93.9474C96.8842 94.3107 97.0425 94.8824 97.1158 95.4207C98.8525 93.6707 100.556 93.5557 100.639 93.5524H100.736C102.856 93.5524 104.339 94.8107 105.212 95.8707C105.299 94.684 105.586 93.829 106.067 93.319C106.183 93.1828 106.325 93.0711 106.484 92.9907C106.644 92.9102 106.818 92.8626 106.996 92.8507H107.046L107.096 92.8607C107.29 92.9013 107.474 92.9814 107.636 93.0961C107.798 93.2108 107.935 93.3576 108.037 93.5274C108.597 94.409 108.497 96.0157 108.334 97.1357C110.386 95.959 112.051 96.2524 112.237 96.289C115.554 96.869 117.034 100.387 117.571 102.122C118.599 101.137 119.367 101.471 119.466 101.521C120.407 102.021 120.512 103.079 120.386 103.872C121.606 104.227 122.114 104.612 122.114 105.159C122.114 105.564 121.799 105.844 121.447 106.031C121.675 106.325 121.876 106.638 122.049 106.967C128.672 107.117 130.017 114.481 130.031 114.557L130.127 115.144ZM80.5508 114.144H128.902C128.464 112.492 126.807 107.977 121.834 107.977H121.402L121.267 107.677C121.267 107.669 120.836 106.722 120.234 106.221L119.479 105.591L120.434 105.351C120.612 105.304 120.785 105.241 120.951 105.162C120.537 104.967 120.102 104.819 119.654 104.722L119.134 104.592L119.301 104.082C119.301 104.072 119.691 102.836 119.027 102.436C118.871 102.409 118.384 102.547 117.727 103.474L117.061 104.424L116.834 103.282C116.824 103.229 115.719 97.9157 112.052 97.2824H112.031C111.954 97.2674 110.106 96.9057 107.924 98.629L106.791 99.5257L107.124 98.1207C107.402 96.954 107.666 94.8357 107.182 94.0774C107.134 93.9888 107.058 93.9181 106.966 93.8757C106.657 94.0007 106.047 94.8174 106.197 97.5074L106.339 100.037L105.247 97.7507C105.232 97.719 103.677 94.564 100.722 94.564H100.687C100.537 94.5774 98.7125 94.7724 97.0558 97.049L96.0008 98.5007L96.1542 96.7124C96.2092 96.0607 96.1408 94.989 95.8208 94.649C95.7819 94.604 95.7281 94.5744 95.6691 94.5657C95.4141 94.689 94.8691 95.4407 94.9708 97.7474L95.0525 99.614L94.0525 98.0374C94.0062 97.9689 93.9501 97.9077 93.8858 97.8557C93.8504 98.3964 93.9212 98.9388 94.0942 99.4524L94.4792 100.687L93.3642 100.034C93.2675 99.979 90.9241 98.6857 88.4391 101.274L87.7525 101.989L87.5858 101.012C87.5208 100.632 87.3075 99.994 87.0592 99.8324C87.0484 99.8234 87.0359 99.8166 87.0224 99.8126C87.0089 99.8086 86.9948 99.8074 86.9808 99.809C86.8458 99.8774 86.0141 100.386 86.0441 102.441L86.0675 103.979L85.1441 102.749C85.0758 102.661 84.8692 102.464 84.7075 102.464C84.5925 102.464 84.4725 102.591 84.3941 102.691C84.3242 102.907 84.0608 103.967 85.0408 105.582L85.3358 106.071L84.8141 106.299C84.6208 106.374 80.2358 108.396 80.5508 114.144ZM31.5691 112.032C30.4575 112.767 29.9341 113.939 29.7075 114.644H21.7358C21.1025 112.644 21.3158 111.579 21.3158 111.579C21.8558 112.516 22.4508 112.771 22.4508 112.771C23.1041 111.579 22.8491 108.371 22.8491 108.371C24.0408 109.477 23.9275 111.947 23.9275 111.947C24.7725 108.934 26.7075 108.016 26.7375 108.002C25.4891 110.046 25.4325 113.056 25.4325 113.056C26.9658 110.614 29.8891 110.889 29.8891 110.889C27.7591 111.599 27.6741 113.756 27.6741 113.756C29.1258 112.147 31.5691 112.032 31.5691 112.032Z" fill="#171718"/>
<path d="M48.4965 51.9912L53.0982 50.3112L53.5532 37.2229C47.9265 32.9512 51.0782 29.8895 51.0782 29.8895L51.3182 23.8995H73.7782C77.9582 48.3045 67.3215 45.9712 67.3215 45.9712L67.5898 51.0562L73.0498 53.0145L73.0165 63.3929H47.7148L48.4965 51.9912Z" fill="white"/>
<path d="M73.513 63.8895H47.1797L48.013 51.6328L52.603 49.9561L53.038 37.4561C50.9247 35.8011 49.8014 34.1078 49.7047 32.4211C49.6427 31.4314 49.9563 30.4547 50.583 29.6861L50.8347 23.3961H74.198L74.268 23.8128C76.1197 34.6178 75.3713 41.7061 72.0447 44.8828C71.493 45.4263 70.8368 45.8521 70.1157 46.1346C69.3946 46.4171 68.6237 46.5503 67.8497 46.5261L68.0697 50.6928L73.5497 52.6528L73.513 63.8895ZM48.2497 62.8895H72.5164L72.5464 53.3628L67.1063 51.4161L66.7847 45.3478L67.4264 45.4878C67.5097 45.5061 69.548 45.9078 71.373 44.1545C73.4497 42.1545 75.4664 37.0994 73.353 24.4078H51.7964L51.5697 30.1111L51.4264 30.2495C51.1679 30.5383 50.9706 30.8766 50.8466 31.2438C50.7225 31.6111 50.6743 31.9997 50.7047 32.3861C50.7997 33.7961 51.8897 35.3311 53.8563 36.8244L54.063 36.9811L53.5863 50.6645L48.9714 52.3478L48.2497 62.8895Z" fill="#171718"/>
<path d="M60.9896 25.2144C60.9896 25.2144 65.7963 28.3261 73.9896 25.2144L74.3879 28.0794C74.3879 28.0794 78.0029 25.5061 77.0313 20.7461C77.0313 20.7461 76.5446 17.7327 71.4896 17.1494C71.4896 17.1494 69.3496 12.7744 64.6829 14.6211C64.6829 14.6211 61.1829 12.4827 57.7796 15.691C57.7796 15.691 54.7663 15.5927 54.2796 18.0244C54.2796 18.0244 51.0779 17.6477 49.1129 19.8711C48.3147 20.7963 47.8841 21.9825 47.9029 23.2044C47.9029 25.0911 48.0779 28.3494 51.0979 30.1761C51.0979 30.1761 54.6379 27.7794 55.7379 32.5094L57.4879 32.9961L57.8763 30.2744C57.8763 30.2744 60.5046 29.4927 60.9896 25.2144Z" fill="#171718"/>
<path d="M72.6123 35.4645C71.9201 35.4645 71.2434 35.2592 70.6678 34.8746C70.0923 34.49 69.6437 33.9434 69.3788 33.3039C69.1139 32.6643 69.0445 31.9606 69.1796 31.2817C69.3146 30.6027 69.648 29.9791 70.1375 29.4896C70.627 29.0001 71.2506 28.6668 71.9295 28.5317C72.6085 28.3967 73.3122 28.466 73.9517 28.7309C74.5913 28.9958 75.1379 29.4444 75.5225 30.02C75.9071 30.5956 76.1123 31.2722 76.1123 31.9645C76.1123 32.8927 75.7436 33.783 75.0872 34.4394C74.4308 35.0957 73.5406 35.4645 72.6123 35.4645ZM72.6123 29.1445C72.052 29.1445 71.5042 29.3107 71.0382 29.622C70.5723 29.9333 70.2091 30.3758 69.9947 30.8935C69.7802 31.4113 69.7241 31.981 69.8335 32.5306C69.9428 33.0802 70.2126 33.585 70.6089 33.9813C71.0051 34.3775 71.51 34.6474 72.0596 34.7567C72.6092 34.866 73.1789 34.8099 73.6966 34.5955C74.2143 34.381 74.6568 34.0179 74.9682 33.5519C75.2795 33.086 75.4457 32.5382 75.4457 31.9778C75.4457 31.2264 75.1472 30.5057 74.6158 29.9743C74.0845 29.443 73.3638 29.1445 72.6123 29.1445ZM65.0273 35.4645C64.3351 35.4645 63.6584 35.2592 63.0829 34.8746C62.5073 34.49 62.0587 33.9434 61.7938 33.3039C61.5289 32.6643 61.4595 31.9606 61.5946 31.2817C61.7296 30.6027 62.063 29.9791 62.5525 29.4896C63.042 29.0001 63.6656 28.6668 64.3445 28.5317C65.0235 28.3967 65.7272 28.466 66.3667 28.7309C67.0063 28.9958 67.5529 29.4444 67.9375 30.02C68.3221 30.5956 68.5273 31.2722 68.5273 31.9645C68.5273 32.8927 68.1586 33.783 67.5022 34.4394C66.8458 35.0957 65.9556 35.4645 65.0273 35.4645ZM65.0273 29.1445C64.467 29.1445 63.9192 29.3107 63.4532 29.622C62.9873 29.9333 62.6241 30.3758 62.4097 30.8935C62.1952 31.4113 62.1391 31.981 62.2485 32.5306C62.3578 33.0802 62.6276 33.585 63.0239 33.9813C63.4201 34.3775 63.925 34.6474 64.4746 34.7567C65.0242 34.866 65.5939 34.8099 66.1116 34.5955C66.6293 34.381 67.0718 34.0179 67.3832 33.5519C67.6945 33.086 67.8607 32.5382 67.8607 31.9778C67.8607 31.2264 67.5622 30.5057 67.0308 29.9743C66.4995 29.443 65.7788 29.1445 65.0273 29.1445Z" fill="#171718"/>
<path d="M72.5625 33.2843C73.0457 33.2843 73.4375 32.8926 73.4375 32.4093C73.4375 31.9261 73.0457 31.5343 72.5625 31.5343C72.0793 31.5343 71.6875 31.9261 71.6875 32.4093C71.6875 32.8926 72.0793 33.2843 72.5625 33.2843Z" fill="#171718"/>
<path d="M65.0273 33.3326C65.5106 33.3326 65.9023 32.9409 65.9023 32.4576C65.9023 31.9744 65.5106 31.5826 65.0273 31.5826C64.5441 31.5826 64.1523 31.9744 64.1523 32.4576C64.1523 32.9409 64.5441 33.3326 65.0273 33.3326Z" fill="#171718"/>
<path d="M57.3242 31.4694L57.3892 30.8059L61.896 31.247L61.831 31.9105L57.3242 31.4694Z" fill="#171718"/>
<path d="M70.9949 37.5445L69.0266 37.3912L69.0782 36.7278L70.0432 36.8028L68.3099 31.6195L68.9416 31.4078L70.9949 37.5445ZM69.7082 28.7812L69.2866 28.2645C69.3566 28.2078 71.0399 26.8661 74.3599 27.2828L74.2766 27.9495C71.2366 27.5645 69.7232 28.7695 69.7082 28.7812ZM67.4566 28.7045C67.3616 28.6028 65.0782 26.2662 61.9566 28.2295L61.6016 27.6645C65.1949 25.4061 67.9149 28.2178 67.9349 28.2462L67.4566 28.7045ZM70.2532 41.1345C70.3329 41.0548 70.394 40.9585 70.4322 40.8525C70.4704 40.7465 70.4847 40.6333 70.4742 40.5211C70.4637 40.409 70.4286 40.3005 70.3714 40.2034C70.3142 40.1063 70.2363 40.023 70.1432 39.9595C69.8564 39.763 69.5191 39.653 69.1716 39.6428C68.2666 39.6161 67.0682 40.1995 66.5049 40.5011C66.4677 40.5206 66.4358 40.5489 66.412 40.5835C66.3882 40.6181 66.3732 40.6579 66.3683 40.6996C66.3634 40.7413 66.3687 40.7836 66.3838 40.8228C66.3989 40.8619 66.4233 40.8969 66.4549 40.9245C67.0849 41.4745 68.9966 42.4428 70.2532 41.1345Z" fill="#171718"/>
<path d="M84.5466 41.5229L87.0466 46.0329L90.7266 64.4329L81.4616 58.8479V78.5596L106.628 83.0696L93.2149 42.2363L87.43 25.7563C87.2723 25.3067 87.0139 24.8992 86.6744 24.565C86.335 24.2308 85.9235 23.9786 85.4716 23.8279L84.9049 23.6363C84.3096 23.4378 83.6789 23.3681 83.0546 23.4316C82.4302 23.4951 81.8265 23.6904 81.2833 24.0046L76.2383 26.9213V35.9429C76.2383 35.9429 78.7383 37.7246 79.9183 39.3863C79.9183 39.3863 81.9366 41.6413 84.5466 41.5229Z" fill="white"/>
<path d="M107.363 83.7094L80.9616 78.9778V57.9678L90.0083 63.4194L86.5716 46.2078L84.2549 42.0261C81.5883 41.9778 79.63 39.8144 79.545 39.7194L79.5116 39.6761C78.385 38.1011 75.9716 36.3678 75.9466 36.3428L75.7383 36.1928V26.6328L81.0249 23.5728C81.6295 23.2226 82.3015 23.0048 82.9966 22.9338C83.6916 22.8629 84.3938 22.9403 85.0566 23.1611L85.6266 23.3511C86.1513 23.527 86.629 23.8199 87.0237 24.2077C87.4185 24.5955 87.7198 25.068 87.9049 25.5894L93.69 42.0695L107.363 83.7094ZM81.9616 78.1411L105.89 82.4294L92.7383 42.3911L86.9566 25.9211C86.8233 25.544 86.6059 25.2022 86.3209 24.9215C86.0359 24.6408 85.6907 24.4287 85.3116 24.3011L84.7383 24.1111C84.2093 23.936 83.6492 23.8751 83.095 23.9326C82.5408 23.9901 82.0051 24.1645 81.5233 24.4444L76.7383 27.2094V35.6894C77.3716 36.1628 79.2716 37.6344 80.3066 39.0694C80.4916 39.2678 82.3066 41.1244 84.5249 41.0228L84.835 41.0094L87.5149 45.8594L87.5299 45.9361L91.4333 65.4461L81.9616 59.7394V78.1411Z" fill="#171718"/>
<path d="M69.5251 52.6809C68.4551 55.5943 64.1468 63.2093 50.5468 51.6276C50.381 51.4863 50.1803 51.3922 49.9657 51.3549C49.7511 51.3177 49.5305 51.3388 49.3268 51.4159L34.0934 57.1959C31.9925 57.993 30.2584 59.5355 29.2218 61.5293L20.1484 78.9743L35.0451 82.5943L34.6901 114.526L91.3118 114.644L86.0301 71.0143V57.4493L70.8634 52.0593C70.6034 51.966 70.3172 51.979 70.0666 52.0953C69.8161 52.2117 69.6216 52.4221 69.5251 52.6809Z" fill="#E0F2FE"/>
<path d="M91.8796 115.146L34.1862 115.024L34.5446 82.9859L19.4062 79.3093L28.7746 61.3093C29.8674 59.2062 31.6967 57.5793 33.9129 56.7393L49.1462 50.9593C49.4335 50.8505 49.7447 50.821 50.0473 50.8738C50.3499 50.9265 50.6328 51.0597 50.8662 51.2593C56.5046 56.0609 61.0913 58.0409 64.4946 57.1476C67.2463 56.4243 68.5312 53.9376 69.0512 52.5193C69.1933 52.1372 69.4797 51.8262 69.8488 51.6532C70.2178 51.4802 70.6401 51.4591 71.0246 51.5943L86.5246 57.0943V70.9893L91.8796 115.146ZM35.1979 114.028L90.7512 114.144L85.5329 71.0509V57.8009L70.6996 52.5309C70.5623 52.4827 70.4115 52.4907 70.2801 52.5532C70.1487 52.6156 70.0473 52.7274 69.9979 52.8643C69.4112 54.4659 67.9479 57.2759 64.7562 58.1143C61.0179 59.0959 56.1296 57.0459 50.2262 52.0193C50.1284 51.9365 50.0103 51.8814 49.884 51.8594C49.7578 51.8374 49.628 51.8495 49.5079 51.8943L34.2762 57.6743C32.2889 58.4265 30.6488 59.8851 29.6696 61.7709L20.8896 78.6393L35.5562 82.2026L35.1979 114.028Z" fill="#171718"/>
<path d="M86.5831 53.6246L71.1914 62.593L71.5864 107.648L86.9797 99.1546L86.5831 53.6246Z" fill="#171718"/>
<path d="M102.649 62.9494L86.9805 54.2827V99.1544L102.649 106.989V62.9494Z" fill="white"/>
<path d="M103.151 107.798L86.4844 99.4645V53.4362L103.151 62.6545V107.798ZM87.4844 98.8445L102.151 106.178V63.2445L87.4844 55.1312V98.8445Z" fill="#171718"/>
<path d="M118.912 54.2828L102.648 62.9495L103.045 107.648L118.912 95.4745V54.2828Z" fill="#171718"/>
<path d="M71.1946 62.5928V106.99L55.4062 98.5612V54.2828L71.1946 62.5928Z" fill="white"/>
<path d="M71.6946 107.823L54.9062 98.8611V53.4544L71.6946 62.2878V107.823ZM55.9062 98.2611L70.6946 106.154V62.8944L55.9062 55.1111V98.2611ZM79.2662 28.0494L75.3579 28.8828C74.7175 29.0184 74.143 29.3698 73.7307 29.8783C73.3184 30.3868 73.0932 31.0215 73.0929 31.6761C73.0929 32.331 73.3178 32.9661 73.7302 33.4749C74.1425 33.9838 74.7172 34.3355 75.3579 34.4711L79.2662 35.3044V28.0494Z" fill="#171718"/>
<path d="M85.853 37.2013H83.508C80.2146 37.2013 77.543 34.7013 77.543 31.4029C77.543 28.1079 80.2096 25.6046 83.508 25.6046H85.853V37.2013Z" fill="white"/>
<path d="M86.353 37.7013H83.508C79.883 37.7013 77.043 34.9346 77.043 31.4029C77.043 27.8713 79.8763 25.1046 83.508 25.1046H86.353V37.7013ZM83.508 26.1046C80.4446 26.1046 78.043 28.4379 78.043 31.4029C78.043 34.3679 80.4446 36.7013 83.508 36.7013H85.353V26.1046H83.508Z" fill="#171718"/>
<path d="M85.913 37.3676C89.2239 37.3676 91.908 34.6835 91.908 31.3726C91.908 28.0616 89.2239 25.3776 85.913 25.3776C82.602 25.3776 79.918 28.0616 79.918 31.3726C79.918 34.6835 82.602 37.3676 85.913 37.3676Z" fill="white"/>
<path d="M85.9036 37.701C84.651 37.701 83.4265 37.3295 82.385 36.6336C81.3435 35.9377 80.5318 34.9486 80.0524 33.7913C79.5731 32.634 79.4476 31.3606 79.692 30.1321C79.9364 28.9035 80.5396 27.775 81.4253 26.8893C82.311 26.0036 83.4395 25.4004 84.6681 25.156C85.8966 24.9116 87.17 25.037 88.3273 25.5164C89.4846 25.9958 90.4737 26.8075 91.1696 27.849C91.8655 28.8905 92.237 30.115 92.237 31.3676C92.237 33.0473 91.5697 34.6582 90.382 35.846C89.1943 37.0337 87.5834 37.701 85.9036 37.701ZM85.9036 25.7126C84.7829 25.7126 83.6873 26.045 82.7554 26.6676C81.8235 27.2903 81.0972 28.1753 80.6683 29.2108C80.2394 30.2462 80.1272 31.3856 80.3459 32.4848C80.5645 33.584 81.1042 34.5937 81.8967 35.3862C82.6892 36.1787 83.6989 36.7184 84.7981 36.9371C85.8974 37.1557 87.0367 37.0435 88.0722 36.6146C89.1076 36.1857 89.9926 35.4594 90.6153 34.5275C91.238 33.5957 91.5703 32.5001 91.5703 31.3793C91.5703 29.8764 90.9733 28.4351 89.9106 27.3724C88.8479 26.3097 87.4065 25.7126 85.9036 25.7126Z" fill="#171718"/>
<path d="M85.9061 36.3959C84.9126 36.3959 83.9414 36.1013 83.1153 35.5493C82.2892 34.9974 81.6454 34.2128 81.2652 33.2949C80.885 32.377 80.7855 31.367 80.9793 30.3926C81.1732 29.4181 81.6516 28.5231 82.3541 27.8205C83.0566 27.118 83.9517 26.6396 84.9261 26.4458C85.9006 26.2519 86.9106 26.3514 87.8285 26.7316C88.7464 27.1118 89.5309 27.7557 90.0829 28.5818C90.6349 29.4078 90.9295 30.3791 90.9295 31.3726C90.9282 32.7044 90.3985 33.9814 89.4567 34.9232C88.5149 35.8649 87.238 36.3946 85.9061 36.3959ZM85.9061 27.0142C85.0444 27.0142 84.202 27.2698 83.4855 27.7486C82.7691 28.2274 82.2106 28.9079 81.8809 29.7041C81.5513 30.5002 81.4651 31.3763 81.6333 32.2215C81.8016 33.0666 82.2166 33.8429 82.8261 34.4521C83.4356 35.0614 84.212 35.4762 85.0572 35.6441C85.9024 35.812 86.7785 35.7255 87.5745 35.3955C88.3706 35.0655 89.0509 34.5068 89.5294 33.7901C90.0079 33.0735 90.2631 32.231 90.2628 31.3692C90.2615 30.2143 89.802 29.1071 88.9852 28.2907C88.1684 27.4742 87.061 27.0151 85.9061 27.0142Z" fill="#171718"/>
<path d="M66.4429 28.0494L62.5345 28.8828C61.8941 29.0184 61.3196 29.3698 60.9073 29.8783C60.495 30.3868 60.2698 31.0215 60.2695 31.6761C60.2695 32.331 60.4944 32.9661 60.9068 33.4749C61.3191 33.9838 61.8938 34.3355 62.5345 34.4711L66.4429 35.3044V28.0494Z" fill="white"/>
<path d="M66.9425 35.9077L62.4308 34.9527C61.6781 34.7937 61.003 34.3807 60.5184 33.7831C60.0339 33.1855 59.7695 32.4396 59.7695 31.6702C59.7695 30.9009 60.0339 30.1549 60.5184 29.5573C61.003 28.9597 61.6781 28.5468 62.4308 28.3877L66.9425 27.4327V35.9077ZM65.9425 28.6661L62.6375 29.3661C62.1091 29.4777 61.6351 29.7675 61.2949 30.187C60.9548 30.6065 60.7692 31.1302 60.7692 31.6702C60.7692 32.2103 60.9548 32.734 61.2949 33.1535C61.6351 33.573 62.1091 33.8628 62.6375 33.9744L65.9425 34.6744V28.6661Z" fill="#171718"/>
<path d="M73.0327 37.201H70.6877C67.3943 37.201 64.7227 34.701 64.7227 31.4027C64.7227 28.1077 67.3893 25.6044 70.6877 25.6044H73.0327V37.201Z" fill="white"/>
<path d="M73.5327 37.701H70.6877C67.0627 37.701 64.2227 34.9344 64.2227 31.4027C64.2227 27.871 67.056 25.1044 70.6877 25.1044H73.5327V37.701ZM70.6877 26.1044C67.6227 26.1044 65.2227 28.4377 65.2227 31.4027C65.2227 34.3677 67.6227 36.701 70.6877 36.701H72.5327V26.1044H70.6877Z" fill="#171718"/>
<path d="M73.0927 37.3676C76.4036 37.3676 79.0877 34.6835 79.0877 31.3726C79.0877 28.0616 76.4036 25.3776 73.0927 25.3776C69.7817 25.3776 67.0977 28.0616 67.0977 31.3726C67.0977 34.6835 69.7817 37.3676 73.0927 37.3676Z" fill="white"/>
<path d="M73.0911 37.701C71.8385 37.701 70.614 37.3295 69.5725 36.6336C68.531 35.9377 67.7193 34.9486 67.2399 33.7913C66.7606 32.634 66.6351 31.3606 66.8795 30.1321C67.1239 28.9035 67.7271 27.775 68.6128 26.8893C69.4985 26.0036 70.627 25.4004 71.8556 25.156C73.0841 24.9116 74.3575 25.037 75.5148 25.5164C76.6721 25.9958 77.6612 26.8075 78.3571 27.849C79.053 28.8905 79.4245 30.115 79.4245 31.3676C79.4245 33.0473 78.7572 34.6582 77.5695 35.846C76.3818 37.0337 74.7709 37.701 73.0911 37.701ZM73.0911 25.7126C71.9704 25.7126 70.8748 26.045 69.9429 26.6676C69.011 27.2903 68.2847 28.1753 67.8558 29.2108C67.4269 30.2462 67.3147 31.3856 67.5334 32.4848C67.752 33.584 68.2917 34.5937 69.0842 35.3862C69.8767 36.1787 70.8864 36.7184 71.9856 36.9371C73.0849 37.1557 74.2242 37.0435 75.2597 36.6146C76.2951 36.1857 77.1801 35.4594 77.8028 34.5275C78.4255 33.5957 78.7578 32.5001 78.7578 31.3793C78.7578 29.8764 78.1608 28.4351 77.0981 27.3724C76.0354 26.3097 74.594 25.7126 73.0911 25.7126Z" fill="#171718"/>
<path d="M73.0897 36.3959C72.0962 36.3959 71.125 36.1013 70.2989 35.5493C69.4728 34.9974 68.829 34.2128 68.4488 33.2949C68.0686 32.377 67.9691 31.367 68.1629 30.3926C68.3568 29.4181 68.8352 28.5231 69.5377 27.8205C70.2402 27.118 71.1353 26.6396 72.1097 26.4458C73.0842 26.2519 74.0942 26.3514 75.0121 26.7316C75.93 27.1118 76.7145 27.7557 77.2665 28.5818C77.8185 29.4078 78.1131 30.3791 78.1131 31.3726C78.1118 32.7044 77.5821 33.9814 76.6403 34.9232C75.6985 35.8649 74.4216 36.3946 73.0897 36.3959ZM73.0897 27.0176C72.228 27.0176 71.3856 27.2731 70.6691 27.7519C69.9526 28.2307 69.3942 28.9112 69.0645 29.7074C68.7348 30.5036 68.6487 31.3796 68.8169 32.2248C68.9851 33.07 69.4002 33.8462 70.0097 34.4555C70.6192 35.0647 71.3956 35.4795 72.2408 35.6474C73.086 35.8153 73.9621 35.7288 74.7581 35.3988C75.5542 35.0688 76.2345 34.5101 76.713 33.7935C77.1915 33.0768 77.4467 32.2343 77.4464 31.3726C77.446 30.2171 76.9869 29.1091 76.17 28.2918C75.3531 27.4746 74.2452 27.0151 73.0897 27.0142V27.0176Z" fill="#171718"/>
<path d="M21.4534 79.211L34.9868 82.5443L31.4251 88.0043L46.2584 86.1043L50.3084 79.5626C50.7028 78.9259 51.292 78.4332 51.9884 78.1576C54.4351 77.1926 60.4785 76.5043 65.1684 78.5043C65.6068 78.6926 66.0934 80.066 64.8951 80.6976C64.8951 80.6976 67.6951 81.736 65.0134 83.4926C65.0134 83.4926 66.4384 85.2743 64.4201 86.1043C64.4201 86.1043 64.8951 87.5293 61.5718 88.0043L55.7551 88.8376C55.7551 88.8376 52.5501 94.4176 43.8851 96.316L19.7034 100.834C15.7918 101.568 12.7034 97.5493 14.4184 93.9576L21.4534 79.211Z" fill="white"/>
<path d="M18.7973 101.419C17.892 101.418 17.0017 101.187 16.2096 100.748C15.4174 100.31 14.749 99.6782 14.2666 98.9121C13.7842 98.1459 13.5035 97.2701 13.4506 96.3663C13.3977 95.4624 13.5743 94.5599 13.964 93.7427L21.1757 78.6293L35.7873 82.2177L32.4323 87.3627L45.9607 85.631L49.8857 79.2977C50.3369 78.5659 51.0119 77.999 51.8107 77.681C54.4773 76.6293 60.6357 76.0143 65.3707 78.0327C65.7973 78.216 66.1273 78.8027 66.1523 79.4293C66.1758 79.8493 66.0468 80.2636 65.789 80.596C66.184 80.866 66.6073 81.2843 66.6723 81.866C66.7373 82.4477 66.4123 83.0527 65.694 83.6177C65.899 84.0043 66.1107 84.596 65.9523 85.211C65.824 85.711 65.484 86.111 64.9423 86.406C64.9205 86.6399 64.844 86.8654 64.719 87.0643C64.274 87.7843 63.2407 88.2643 61.6473 88.4927L56.0707 89.2877C55.374 90.3627 51.929 95.056 44.0057 96.7877L19.804 101.321C19.4723 101.385 19.1352 101.418 18.7973 101.419ZM21.7373 79.7943L14.869 94.181C14.5229 94.9081 14.3847 95.7168 14.4697 96.5176C14.5546 97.3183 14.8595 98.08 15.3504 98.7183C15.8414 99.3566 16.4994 99.8466 17.2515 100.134C18.0037 100.422 18.8208 100.496 19.6123 100.348L43.7973 95.8177C52.1073 93.9977 55.2973 88.636 55.3273 88.581L55.449 88.371L55.689 88.336L61.5057 87.5027C63.1457 87.2677 63.6723 86.816 63.849 86.5677C63.9205 86.4763 63.9555 86.3617 63.9473 86.246L63.7457 85.7877L64.2357 85.636C64.6623 85.4593 64.914 85.2327 64.984 84.961C65.099 84.5177 64.7573 83.961 64.629 83.7943L64.2857 83.3643L64.7457 83.0627C65.3707 82.6527 65.7107 82.256 65.679 81.9727C65.639 81.6093 65.0123 81.2593 64.7273 81.1543L63.6773 80.7643L64.6673 80.2427C64.8004 80.1852 64.9154 80.093 65.0005 79.9757C65.0855 79.8583 65.1374 79.7203 65.1507 79.576C65.1717 79.3501 65.1042 79.1248 64.9623 78.9477C60.3257 76.9777 54.3507 77.756 52.1773 78.6143C51.58 78.8486 51.0751 79.271 50.739 79.8177L46.5707 86.5627L30.4223 88.6293L34.1823 82.8477L21.7373 79.7943Z" fill="#171718"/>
<path d="M60.3164 80.2594C60.3164 80.2594 63.0831 80.2761 65.0914 80.7477L60.3164 80.2594Z" fill="white"/>
<path d="M64.9792 81.2344C63.0492 80.7811 60.3442 80.7611 60.3125 80.7594V79.7594C60.4275 79.7594 63.1592 79.7827 65.1975 80.2594L64.9792 81.2344Z" fill="#171718"/>
<path d="M60.4492 82.8478C61.9803 82.8436 63.5027 83.0793 64.9609 83.5461L60.4492 82.8478Z" fill="white"/>
<path d="M64.7992 84.0146C63.3978 83.5702 61.936 83.3453 60.4658 83.348L60.4375 82.348C62.027 82.3402 63.6077 82.5843 65.1208 83.0713L64.7992 84.0146Z" fill="#171718"/>
<path d="M60.2773 85.4427C60.2773 85.4427 62.824 85.2061 64.4857 86.1561L60.2773 85.4427Z" fill="white"/>
<path d="M64.2371 86.5894C62.7371 85.731 60.3471 85.9394 60.3238 85.941L60.2305 84.941C60.3421 84.931 62.9538 84.6994 64.7305 85.716L64.2371 86.5894Z" fill="#171718"/>
<path d="M40.1519 74.5226L35.0469 82.7126L40.1519 74.5226Z" fill="white"/>
<path d="M34.6211 82.4581L39.7271 74.2677L40.5757 74.7967L35.4697 82.9872L34.6211 82.4581Z" fill="#171718"/>
<path d="M89.798 11.1356C90.3199 10.4161 90.924 9.76001 91.598 9.18062C92.0924 8.76005 92.5441 8.29166 92.9464 7.78229C93.2386 7.39401 93.3939 6.91986 93.388 6.43396C93.3947 6.10058 93.3202 5.77058 93.1709 5.47239C93.0217 5.17421 92.8022 4.91678 92.5314 4.72229C91.9602 4.28562 91.1958 4.06729 90.238 4.06729C88.8414 4.06729 87.7086 4.45062 86.8397 5.21729C86.6068 5.42424 86.3125 5.54917 86.0019 5.57295C85.6912 5.59673 85.3814 5.51805 85.1197 5.34896C84.9299 5.22528 84.7723 5.05812 84.66 4.86136C84.5477 4.6646 84.484 4.44391 84.474 4.21758C84.4641 3.99125 84.5083 3.76582 84.6029 3.55997C84.6975 3.35413 84.8398 3.1738 85.018 3.03396C85.4706 2.67981 85.9628 2.37946 86.4847 2.13896C87.6269 1.61118 88.9702 1.34729 90.5147 1.34729C92.3969 1.34729 93.8969 1.75451 95.0147 2.56895C96.1325 3.3834 96.6908 4.50451 96.6897 5.93229C96.7049 6.55326 96.5914 7.17067 96.3564 7.74563C96.1544 8.22715 95.8776 8.67376 95.5364 9.06895C95.1403 9.50747 94.7202 9.92367 94.278 10.3156C93.7509 10.7672 93.2737 11.2739 92.8547 11.8273C92.5371 12.285 92.3736 12.832 92.388 13.389H89.188C89.1825 12.4823 89.3858 11.7312 89.798 11.1356ZM89.3447 18.8473C89.1595 18.6654 89.0135 18.4475 88.9157 18.207C88.818 17.9665 88.7705 17.7085 88.7764 17.449C88.7699 17.1913 88.817 16.9351 88.9149 16.6967C89.0127 16.4583 89.1591 16.2428 89.3447 16.064C89.5364 15.8788 89.7635 15.7342 90.0123 15.6389C90.2612 15.5435 90.5267 15.4993 90.793 15.509C91.0554 15.5012 91.3166 15.5463 91.5611 15.6417C91.8057 15.737 92.0285 15.8806 92.2164 16.064C92.4017 16.2429 92.5478 16.4584 92.6454 16.6968C92.743 16.9353 92.7898 17.1914 92.783 17.449C92.7892 17.7084 92.742 17.9663 92.6446 18.2068C92.5471 18.4473 92.4014 18.6653 92.2164 18.8473C92.0304 19.0339 91.8081 19.1804 91.5633 19.2779C91.3185 19.3754 91.0564 19.4217 90.793 19.414C90.5257 19.4235 90.2593 19.3782 90.0101 19.2807C89.761 19.1832 89.5346 19.0357 89.3447 18.8473Z" fill="#E0F2FE"/>
<path d="M90.7946 19.9108C90.4616 19.9207 90.13 19.8626 89.8202 19.74C89.5104 19.6173 89.2289 19.4327 88.9929 19.1975C88.7607 18.9696 88.5775 18.6967 88.4546 18.3954C88.3316 18.0942 88.2715 17.7711 88.2779 17.4458C88.2709 17.1214 88.3311 16.799 88.4547 16.499C88.5784 16.199 88.7627 15.9278 88.9963 15.7025C89.2351 15.4737 89.5171 15.295 89.826 15.1768C90.1348 15.0586 90.4641 15.0033 90.7946 15.0141C91.1218 15.004 91.4476 15.0597 91.7528 15.178C92.058 15.2962 92.3363 15.4746 92.5713 15.7025C92.8048 15.9278 92.9892 16.199 93.1128 16.499C93.2364 16.799 93.2966 17.1214 93.2896 17.4458C93.2953 17.7713 93.2345 18.0945 93.111 18.3957C92.9875 18.6969 92.8038 18.9697 92.5713 19.1975C92.3391 19.4308 92.0618 19.6144 91.7564 19.737C91.4509 19.8597 91.1237 19.9188 90.7946 19.9108ZM90.7946 16.0058C90.593 15.9969 90.3917 16.0288 90.2026 16.0995C90.0136 16.1702 89.8408 16.2784 89.6946 16.4175C89.5573 16.5503 89.4493 16.7105 89.3775 16.8876C89.3058 17.0647 89.2718 17.2548 89.2779 17.4458C89.2724 17.6396 89.307 17.8325 89.3796 18.0124C89.4521 18.1922 89.5611 18.3551 89.6996 18.4908C89.8433 18.6325 90.0148 18.743 90.2032 18.8153C90.3916 18.8876 90.593 18.9201 90.7946 18.9108C90.9923 18.9182 91.1893 18.8847 91.3734 18.8125C91.5576 18.7402 91.7248 18.6307 91.8646 18.4908C92.0026 18.3548 92.1111 18.1918 92.1833 18.012C92.2556 17.8322 92.2901 17.6395 92.2846 17.4458C92.2907 17.2548 92.2568 17.0647 92.185 16.8876C92.1133 16.7105 92.0053 16.5503 91.8679 16.4175C91.7255 16.2814 91.5569 16.1755 91.3725 16.1062C91.188 16.0368 90.9915 16.0055 90.7946 16.0141V16.0058ZM92.8813 13.8891H88.6813V13.3891C88.6813 12.3891 88.9196 11.5291 89.3879 10.8508C89.9335 10.0998 90.5644 9.41461 91.2679 8.80912C91.7356 8.40963 92.1642 7.96652 92.5479 7.48579C92.7729 7.18267 92.8902 6.81314 92.8813 6.43579C92.8882 6.17846 92.8309 5.92345 92.7145 5.69385C92.5981 5.46424 92.4263 5.26729 92.2146 5.12079C91.7363 4.75413 91.0663 4.56912 90.2263 4.56912C88.9446 4.56912 87.9413 4.90246 87.1596 5.59413C86.8442 5.87221 86.4468 6.0399 86.0275 6.07178C85.6083 6.10366 85.1901 5.99799 84.8363 5.77079C84.5796 5.60383 84.3665 5.37805 84.2146 5.1122C84.0626 4.84634 83.9763 4.54808 83.9628 4.24219C83.9493 3.93629 84.0089 3.63158 84.1368 3.35336C84.2646 3.07513 84.457 2.83142 84.6979 2.64246C85.1813 2.2652 85.7064 1.94477 86.2629 1.68746C87.4663 1.13079 88.8929 0.854126 90.5029 0.854126C92.4829 0.854126 94.0963 1.29746 95.2946 2.17246C96.5429 3.08246 97.1763 4.35079 97.1763 5.93912C97.1888 6.62934 97.0589 7.31473 96.7946 7.95246C96.5713 8.48165 96.2665 8.9726 95.8913 9.40746C95.4819 9.85932 95.0485 10.2888 94.5929 10.6941C94.0929 11.1215 93.6398 11.6008 93.2413 12.1241C92.9839 12.4971 92.8531 12.9429 92.8679 13.3958L92.8813 13.8891ZM89.7063 12.8891H91.9146C91.9765 12.4024 92.1567 11.9383 92.4396 11.5375C92.88 10.9532 93.383 10.419 93.9396 9.94412C94.3672 9.5642 94.7739 9.16139 95.1579 8.73746C95.4631 8.38125 95.7111 7.9798 95.8929 7.54746C96.102 7.03526 96.2035 6.48555 96.1913 5.93246C96.1913 4.66246 95.7096 3.69579 94.7213 2.97246C93.6963 2.22579 92.2829 1.84746 90.5179 1.84746C89.0529 1.84746 87.7679 2.09913 86.6979 2.59413C86.2115 2.81772 85.7528 3.09739 85.3313 3.42746C85.2144 3.51844 85.1212 3.6362 85.0594 3.77079C84.9976 3.90539 84.9691 4.05287 84.9763 4.20079C84.9825 4.34684 85.0238 4.48924 85.0966 4.616C85.1694 4.74276 85.2716 4.85015 85.3946 4.92912C85.5651 5.0381 85.7665 5.08858 85.9683 5.07295C86.17 5.05731 86.3612 4.9764 86.5129 4.84246C87.4713 3.99579 88.7263 3.56746 90.2413 3.56746C91.3063 3.56746 92.1796 3.82246 92.8379 4.32412C93.1707 4.56475 93.4403 4.88233 93.6238 5.24976C93.8072 5.61718 93.899 6.02353 93.8913 6.43412C93.8975 7.02749 93.7077 7.60632 93.3513 8.08079C92.9295 8.61804 92.4549 9.11162 91.9346 9.55412C91.2908 10.1073 90.7126 10.7325 90.2113 11.4175C89.922 11.8578 89.7483 12.3639 89.7063 12.8891Z" fill="#171718"/>
<path d="M33.2034 20.1056C33.7265 19.3877 34.3311 18.7328 35.005 18.154C35.4986 17.7325 35.9502 17.2642 36.3534 16.7556C36.6445 16.3669 36.7992 15.8929 36.7934 15.4073C36.8004 15.0736 36.7261 14.7432 36.5769 14.4447C36.4276 14.1462 36.2079 13.8885 35.9367 13.694C35.3645 13.2573 34.6006 13.039 33.645 13.039C32.2484 13.039 31.1156 13.4223 30.2467 14.189C30.0137 14.3963 29.7193 14.5216 29.4083 14.5457C29.0974 14.5698 28.7871 14.4913 28.525 14.3223C28.3353 14.1985 28.1779 14.0312 28.0657 13.8344C27.9536 13.6376 27.89 13.4168 27.8802 13.1905C27.8705 12.9642 27.9148 12.7388 28.0095 12.533C28.1043 12.3272 28.2467 12.147 28.425 12.0073C28.8762 11.652 29.368 11.3516 29.89 11.1123C31.0334 10.5823 32.3773 10.3179 33.9217 10.319C35.8017 10.319 37.3017 10.7262 38.4217 11.5406C39.5417 12.3551 40.1 13.4762 40.0967 14.904C40.1119 15.5249 39.9984 16.1423 39.7634 16.7173C39.5613 17.1984 39.2852 17.6449 38.945 18.0406C38.5475 18.4783 38.1269 18.8945 37.685 19.2873C37.1579 19.7388 36.6807 20.2456 36.2617 20.799C35.9451 21.2571 35.7822 21.804 35.7967 22.3606H32.5967C32.59 21.454 32.7923 20.7023 33.2034 20.1056ZM32.75 27.8156C32.5651 27.6336 32.4194 27.4156 32.3219 27.1751C32.2245 26.9346 32.1773 26.6767 32.1834 26.4173C32.1764 26.1595 32.2232 25.9031 32.3208 25.6644C32.4183 25.4256 32.5645 25.2098 32.75 25.0306C32.9421 24.8461 33.1692 24.702 33.418 24.607C33.6668 24.5119 33.9322 24.4678 34.1984 24.4773C34.4606 24.4693 34.7218 24.5142 34.9663 24.6093C35.2108 24.7043 35.4337 24.8476 35.6217 25.0306C35.8072 25.2098 35.9534 25.4256 36.0509 25.6644C36.1485 25.9031 36.1953 26.1595 36.1884 26.4173C36.1944 26.6767 36.1472 26.9346 36.0498 27.1751C35.9523 27.4156 35.8066 27.6336 35.6217 27.8156C35.4356 28.0022 35.2134 28.1487 34.9686 28.2461C34.7238 28.3436 34.4617 28.3899 34.1984 28.3823C33.9311 28.3914 33.6648 28.3458 33.4157 28.2484C33.1667 28.1509 32.9402 28.0037 32.75 27.8156Z" fill="white"/>
<path d="M34.1969 28.8825C33.8653 28.891 33.5354 28.8322 33.2272 28.7096C32.9189 28.587 32.6388 28.4031 32.4036 28.1691C32.1719 27.9409 31.9892 27.6679 31.8666 27.3668C31.7439 27.0656 31.6839 26.7426 31.6903 26.4175C31.6835 26.0945 31.7434 25.7737 31.8661 25.4749C31.9888 25.1761 32.1718 24.9058 32.4036 24.6808C32.6415 24.4502 32.9232 24.2698 33.2321 24.1501C33.541 24.0304 33.8708 23.974 34.2019 23.9841C34.5283 23.9762 34.8529 24.0338 35.1566 24.1535C35.4603 24.2731 35.737 24.4524 35.9703 24.6808C36.2038 24.906 36.3881 25.1772 36.5115 25.4773C36.6348 25.7774 36.6946 26.0998 36.6869 26.4241C36.6933 26.7493 36.6333 27.0723 36.5106 27.3734C36.388 27.6746 36.2053 27.9476 35.9736 28.1758C35.741 28.4081 35.4635 28.5905 35.158 28.712C34.8526 28.8335 34.5256 28.8915 34.1969 28.8825ZM33.1019 27.4608C33.2457 27.6025 33.4171 27.7131 33.6055 27.7856C33.7939 27.8582 33.9952 27.8911 34.1969 27.8825C34.3947 27.8896 34.5918 27.8558 34.7759 27.7832C34.96 27.7107 35.1272 27.6009 35.2669 27.4608C35.4053 27.3254 35.514 27.1627 35.5863 26.9832C35.6586 26.8036 35.6929 26.611 35.6869 26.4175C35.6937 26.2264 35.66 26.0361 35.5882 25.8589C35.5164 25.6817 35.4081 25.5216 35.2703 25.3891C35.1286 25.2514 34.9604 25.1439 34.7759 25.0731C34.5914 25.0023 34.3944 24.9698 34.1969 24.9775C33.9956 24.9688 33.7946 25.0008 33.6059 25.0715C33.4172 25.1422 33.2446 25.2503 33.0986 25.3891C32.961 25.5218 32.8528 25.6819 32.7811 25.8591C32.7093 26.0362 32.6755 26.2264 32.6819 26.4175C32.676 26.611 32.7103 26.8036 32.7826 26.9832C32.8549 27.1627 32.9636 27.3254 33.1019 27.4608ZM36.2853 22.8608H32.0853V22.3608C32.0853 21.3608 32.3219 20.5008 32.7903 19.8225C33.3354 19.0711 33.9663 18.3859 34.6703 17.7808C35.1384 17.3818 35.567 16.9386 35.9503 16.4575C36.1777 16.1552 36.2979 15.7857 36.2919 15.4075C36.2989 15.1499 36.2416 14.8947 36.1252 14.6648C36.0088 14.4349 35.837 14.2377 35.6253 14.0908C35.1453 13.7258 34.4769 13.5391 33.6369 13.5391C32.3536 13.5391 31.3503 13.8725 30.5686 14.5641C30.2534 14.8425 29.8559 15.0103 29.4366 15.0422C29.0173 15.0741 28.599 14.9683 28.2453 14.7408C27.9889 14.5738 27.7761 14.3481 27.6244 14.0824C27.4727 13.8167 27.3865 13.5187 27.373 13.213C27.3595 12.9074 27.419 12.6029 27.5466 12.3248C27.6743 12.0468 27.8663 11.8031 28.1069 11.6141C28.5894 11.2356 29.1147 10.9151 29.6719 10.6591C30.8753 10.1008 32.3019 9.82581 33.9136 9.82581C35.8936 9.82581 37.5053 10.2691 38.7053 11.1425C39.9536 12.0541 40.5853 13.3208 40.5853 14.9108C40.5978 15.601 40.4679 16.2864 40.2036 16.9241C39.9808 17.4527 39.6766 17.9431 39.3019 18.3775C38.8923 18.8297 38.4584 19.2592 38.0019 19.6641C37.5022 20.0919 37.0497 20.5719 36.6519 21.0958C36.3944 21.4687 36.2635 21.9145 36.2786 22.3675L36.2853 22.8608ZM33.1103 21.8608H35.3169C35.3793 21.3739 35.5601 20.9098 35.8436 20.5091C36.2843 19.9246 36.7872 19.3898 37.3436 18.9141C37.7716 18.5352 38.1783 18.1329 38.5619 17.7091C38.8676 17.3527 39.1156 16.9506 39.2969 16.5175C39.506 16.0059 39.6076 15.4567 39.5953 14.9041C39.5953 13.6341 39.1153 12.6658 38.1253 11.9441C37.1003 11.1975 35.6869 10.8191 33.9236 10.8191C32.4586 10.8191 31.1736 11.0691 30.1036 11.5658C29.6169 11.789 29.1582 12.0687 28.7369 12.3991C28.6199 12.4899 28.5265 12.6077 28.4647 12.7423C28.4028 12.8769 28.3745 13.0245 28.3819 13.1725C28.3878 13.3188 28.4288 13.4616 28.5017 13.5887C28.5745 13.7158 28.6769 13.8234 28.8003 13.9025C28.9706 14.0114 29.1719 14.0616 29.3734 14.0457C29.575 14.0298 29.7658 13.9485 29.9169 13.8141C30.8753 12.9691 32.1303 12.5391 33.6469 12.5391C34.7119 12.5391 35.5853 12.7941 36.2419 13.2975C36.5749 13.5379 36.8447 13.8554 37.0281 14.2229C37.2116 14.5904 37.3032 14.9968 37.2953 15.4075C37.3012 16.0008 37.1114 16.5796 36.7553 17.0541C36.3335 17.5914 35.8589 18.085 35.3386 18.5275C34.695 19.0797 34.1172 19.7044 33.6169 20.3891C33.3263 20.829 33.152 21.3353 33.1103 21.8608Z" fill="#171718"/>
</svg>
