<svg width="148" height="88" viewBox="0 0 148 88" fill="none" xmlns="http://www.w3.org/2000/svg">
<path d="M50.9154 40.5035C60.4883 40.5035 68.2487 32.7431 68.2487 23.1701C68.2487 13.5972 60.4883 5.83679 50.9154 5.83679C41.3424 5.83679 33.582 13.5972 33.582 23.1701C33.582 32.7431 41.3424 40.5035 50.9154 40.5035Z" fill="white"/>
<path d="M50.9154 41.0035C47.3883 41.0035 43.9404 39.9576 41.0077 37.998C38.075 36.0385 35.7893 33.2533 34.4395 29.9947C33.0898 26.736 32.7366 23.1504 33.4247 19.691C34.1128 16.2317 35.8113 13.0541 38.3053 10.5601C40.7993 8.06603 43.9769 6.36757 47.4363 5.67946C50.8956 4.99136 54.4813 5.34452 57.7399 6.69428C60.9985 8.04405 63.7837 10.3298 65.7433 13.2625C67.7028 16.1951 68.7487 19.643 68.7487 23.1701C68.7434 27.8982 66.8629 32.4311 63.5196 35.7744C60.1763 39.1176 55.6434 40.9982 50.9154 41.0035ZM50.9154 6.3368C47.5861 6.3368 44.3315 7.32406 41.5633 9.17373C38.795 11.0234 36.6375 13.6524 35.3634 16.7283C34.0893 19.8042 33.756 23.1888 34.4055 26.4542C35.055 29.7195 36.6582 32.7189 39.0124 35.0731C41.3666 37.4273 44.366 39.0305 47.6314 39.68C50.8967 40.3295 54.2813 39.9962 57.3572 38.7221C60.4331 37.448 63.0621 35.2905 64.9118 32.5222C66.7615 29.754 67.7487 26.4995 67.7487 23.1701C67.7439 18.7071 65.9688 14.4283 62.813 11.2725C59.6572 8.11672 55.3784 6.34165 50.9154 6.3368Z" fill="#171718"/>
<path d="M74.9742 42.9302L77.4742 39.9969L76.3359 39.0236L73.8359 41.9452L52.0909 23.0052C51.9243 22.86 51.7068 22.787 51.4862 22.8021C51.2657 22.8173 51.0603 22.9194 50.9151 23.0861C50.7699 23.2527 50.6968 23.4702 50.712 23.6907C50.7271 23.9112 50.8293 24.1167 50.9959 24.2619L66.4742 37.7402L37.9542 48.2636C37.8121 48.3148 37.6936 48.4161 37.6209 48.5486H37.6059L37.5809 48.6386C37.5695 48.6706 37.5606 48.7035 37.5542 48.7369L31.6292 69.7952C31.5928 69.9381 31.5923 70.0877 31.6279 70.2308C31.6635 70.3738 31.7339 70.5058 31.833 70.615C31.9321 70.7241 32.0567 70.807 32.1956 70.8562C32.3346 70.9054 32.4836 70.9194 32.6292 70.8969L59.2709 66.6452L65.3892 71.5702L66.4342 70.2702L60.5192 65.5102L70.7292 41.4469L74.2292 44.5019C74.3112 44.5746 74.4067 44.6304 74.5102 44.6662C74.6138 44.7019 74.7233 44.7169 74.8327 44.7104C74.942 44.7038 75.049 44.6757 75.1475 44.6278C75.246 44.5799 75.3341 44.513 75.4067 44.4311C75.4794 44.3491 75.5352 44.2536 75.571 44.1501C75.6068 44.0466 75.6218 43.937 75.6152 43.8277C75.6086 43.7183 75.5806 43.6113 75.5326 43.5128C75.4847 43.4143 75.4179 43.3262 75.3359 43.2536L74.9742 42.9302ZM34.8809 68.8502C34.7351 68.8732 34.586 68.8595 34.4468 68.8104C34.3076 68.7614 34.1828 68.6785 34.0837 68.5692C33.9845 68.46 33.914 68.3278 33.8786 68.1845C33.8432 68.0413 33.844 67.8914 33.8809 67.7486L38.8659 50.2186L57.5326 65.2369L34.8809 68.8502ZM59.1692 64.4202L41.1126 49.8886C41.0262 49.8186 40.9599 49.7271 40.9203 49.6233C40.8808 49.5194 40.8694 49.4069 40.8873 49.2973C40.9053 49.1876 40.9519 49.0846 41.0225 48.9988C41.0931 48.913 41.1851 48.8474 41.2892 48.8086L67.9076 38.9869L69.4076 40.2952L59.1692 64.4202Z" fill="#171718"/>
<path d="M32.0833 88.0035C28.5562 88.0035 25.1083 86.9576 22.1757 84.998C19.243 83.0385 16.9573 80.2533 15.6075 76.9947C14.2577 73.736 13.9046 70.1503 14.5927 66.691C15.2808 63.2317 16.9792 60.0541 19.4733 57.5601C21.9673 55.066 25.1449 53.3676 28.6042 52.6795C32.0636 51.9914 35.6492 52.3445 38.9079 53.6943C42.1665 55.044 44.9517 57.3298 46.9112 60.2625C48.8708 63.1951 49.9167 66.643 49.9167 70.1701C49.9114 74.8982 48.0308 79.4311 44.6876 82.7744C41.3443 86.1176 36.8114 87.9982 32.0833 88.0035ZM32.0833 53.3368C28.754 53.3368 25.4995 54.3241 22.7312 56.1737C19.963 58.0234 17.8054 60.6524 16.5314 63.7283C15.2573 66.8042 14.9239 70.1888 15.5735 73.4542C16.223 76.7195 17.8262 79.7189 20.1804 82.0731C22.5346 84.4273 25.534 86.0305 28.7993 86.68C32.0647 87.3295 35.4493 86.9962 38.5252 85.7221C41.6011 84.448 44.2301 82.2905 46.0797 79.5222C47.9294 76.754 48.9167 73.4995 48.9167 70.1701C48.9118 65.7071 47.1368 61.4283 43.9809 58.2725C40.8251 55.1167 36.5463 53.3417 32.0833 53.3368Z" fill="#171718"/>
<path d="M39.2487 53.7536C38.2268 53.7536 37.2279 53.4506 36.3783 52.8829C35.5286 52.3152 34.8664 51.5082 34.4753 50.5642C34.0843 49.6201 33.982 48.5812 34.1813 47.579C34.3807 46.5768 34.8727 45.6561 35.5953 44.9336C36.3179 44.211 37.2385 43.7189 38.2407 43.5196C39.243 43.3202 40.2818 43.4225 41.2259 43.8136C42.17 44.2046 42.9769 44.8669 43.5446 45.7165C44.1123 46.5662 44.4154 47.5651 44.4154 48.587C44.4154 49.9572 43.871 51.2714 42.9021 52.2403C41.9331 53.2093 40.619 53.7536 39.2487 53.7536ZM39.2487 44.4203C38.4246 44.4203 37.619 44.6647 36.9338 45.1225C36.2486 45.5803 35.7146 46.2311 35.3992 46.9924C35.0838 47.7538 35.0013 48.5916 35.1621 49.3998C35.3229 50.2081 35.7197 50.9505 36.3024 51.5332C36.8851 52.116 37.6276 52.5128 38.4358 52.6736C39.2441 52.8343 40.0819 52.7518 40.8432 52.4365C41.6046 52.1211 42.2553 51.587 42.7132 50.9018C43.171 50.2166 43.4154 49.411 43.4154 48.587C43.4154 48.0398 43.3076 47.498 43.0982 46.9924C42.8888 46.4869 42.5819 46.0276 42.195 45.6407C41.8081 45.2538 41.3487 44.9469 40.8432 44.7375C40.3377 44.5281 39.7959 44.4203 39.2487 44.4203Z" fill="#171718"/>
<path d="M28.582 47.4203H34.582V48.4203H28.582V47.4203Z" fill="#171718"/>
<path d="M27.75 45.0866H29.0033V50.7533H27.75V45.0866ZM37.5783 23.9883L36.5867 23.8516C37.5633 16.8516 41.5317 13.2483 44.69 11.4633C46.7496 10.2889 49.0229 9.53755 51.3767 9.2533L51.4567 10.2533C49.2367 10.5346 47.0934 11.2486 45.1483 12.355C40.8617 14.7916 38.3133 18.705 37.5783 23.9883ZM43.905 22.5266L42.9283 22.3133C44.1467 16.7383 49.095 15.48 49.2983 15.4333L49.5333 16.4066L49.4167 15.92L49.535 16.4066C48.1292 16.8192 46.8623 17.6068 45.8704 18.6851C44.8785 19.7633 44.199 21.0914 43.905 22.5266ZM50.75 26.17C50.1567 26.17 49.5766 25.994 49.0833 25.6644C48.5899 25.3347 48.2054 24.8662 47.9784 24.318C47.7513 23.7698 47.6919 23.1666 47.8076 22.5847C47.9234 22.0027 48.2091 21.4682 48.6287 21.0486C49.0482 20.6291 49.5828 20.3434 50.1647 20.2276C50.7467 20.1118 51.3499 20.1713 51.8981 20.3983C52.4462 20.6254 52.9148 21.0099 53.2444 21.5033C53.5741 21.9966 53.75 22.5766 53.75 23.17C53.75 23.9656 53.4339 24.7287 52.8713 25.2913C52.3087 25.8539 51.5457 26.17 50.75 26.17ZM50.75 21.17C50.3544 21.17 49.9678 21.2873 49.6389 21.507C49.31 21.7268 49.0536 22.0391 48.9022 22.4046C48.7509 22.7701 48.7113 23.1722 48.7884 23.5601C48.8656 23.9481 49.0561 24.3045 49.3358 24.5842C49.6155 24.8639 49.9719 25.0544 50.3598 25.1315C50.7478 25.2087 51.1499 25.1691 51.5154 25.0177C51.8808 24.8663 52.1932 24.61 52.4129 24.2811C52.6327 23.9522 52.75 23.5655 52.75 23.17C52.75 22.6395 52.5393 22.1308 52.1642 21.7557C51.7891 21.3807 51.2804 21.17 50.75 21.17ZM32.0833 73.17C31.49 73.17 30.91 72.994 30.4166 72.6644C29.9233 72.3347 29.5388 71.8662 29.3117 71.318C29.0846 70.7698 29.0252 70.1666 29.141 69.5847C29.2567 69.0028 29.5425 68.4682 29.962 68.0486C30.3816 67.6291 30.9161 67.3434 31.4981 67.2276C32.08 67.1119 32.6832 67.1713 33.2314 67.3983C33.7796 67.6254 34.2481 68.0099 34.5777 68.5033C34.9074 68.9966 35.0833 69.5766 35.0833 70.17C35.0833 70.9656 34.7673 71.7287 34.2047 72.2913C33.642 72.8539 32.879 73.17 32.0833 73.17ZM32.0833 68.17C31.6878 68.17 31.3011 68.2873 30.9722 68.507C30.6433 68.7268 30.3869 69.0391 30.2356 69.4046C30.0842 69.77 30.0446 70.1722 30.1218 70.5601C30.1989 70.9481 30.3894 71.3045 30.6691 71.5842C30.9488 71.8639 31.3052 72.0544 31.6932 72.1315C32.0811 72.2087 32.4832 72.1691 32.8487 72.0177C33.2142 71.8663 33.5265 71.61 33.7463 71.2811C33.966 70.9522 34.0833 70.5655 34.0833 70.17C34.0833 69.6395 33.8726 69.1308 33.4975 68.7557C33.1225 68.3807 32.6138 68.17 32.0833 68.17ZM76.6283 40.4766L76.0033 39.92C77.92 37.7366 78.7117 35.84 78.3583 34.285C77.9817 32.6183 76.38 31.9183 76.3583 31.9116L76.6917 31.145C76.7733 31.18 78.6917 32.025 79.1717 34.1C79.5867 35.9383 78.7317 38.0866 76.6283 40.4766Z" fill="#171718"/>
<path d="M70.9176 34.1951L69.3359 33.2634C69.3909 33.1684 70.7293 30.9301 73.1843 30.3284C74.6843 29.9601 76.2309 30.2651 77.7959 31.2351L76.8293 32.7934C75.7043 32.0951 74.6309 31.8651 73.6376 32.1051C71.9393 32.5184 70.9276 34.1784 70.9176 34.1951Z" fill="#E0F2FE"/>
<path d="M71.0896 34.8752L68.6562 33.4402L68.9096 33.0102C68.9696 32.9069 70.4096 30.5002 73.0763 29.8436C74.7063 29.4402 76.3863 29.7669 78.0763 30.8102L78.5013 31.0736L77.0013 33.4819L76.5763 33.2186C75.5763 32.5936 74.6229 32.3852 73.7646 32.5919C72.2846 32.9502 71.3613 34.4402 71.3513 34.4552L71.0896 34.8752ZM70.0529 33.1036L70.7763 33.5302C71.2196 32.9569 72.1663 31.9486 73.5246 31.6202C74.5246 31.3786 75.5746 31.5469 76.6646 32.1202L77.1046 31.4102C75.8063 30.7136 74.5329 30.5136 73.3096 30.8152C71.6463 31.2252 70.5396 32.4519 70.0529 33.1036Z" fill="#171718"/>
<path d="M20.4021 1.99845C20.6888 1.49622 21.1816 1.14678 21.8805 0.950111C22.7772 0.730559 23.6992 0.631357 24.6222 0.655113C25.7499 0.655113 26.6544 0.771223 27.3355 1.00345C28.0166 1.23567 28.5005 1.61233 28.7872 2.13345C29.0456 2.5714 29.2186 3.05437 29.2971 3.55678C29.3612 4.18186 29.3885 4.81016 29.3788 5.43844V35.3234C29.3788 36.7201 29.2083 37.7501 28.8672 38.4134C28.7133 38.7292 28.4952 39.0095 28.2269 39.2362C27.9586 39.4629 27.6459 39.6311 27.3088 39.7301C26.4604 39.9649 25.5822 40.0739 24.7022 40.0534C23.6622 40.0534 22.8383 39.9634 22.2305 39.7834C21.7287 39.6561 21.2547 39.4374 20.8322 39.1384C20.4927 38.862 20.2485 38.486 20.1338 38.0634C19.9183 37.4546 19.8105 36.5229 19.8105 35.2684V28.7118H5.24548C2.7366 28.7118 1.24937 28.0312 0.783817 26.6701C0.581939 25.9168 0.491535 25.138 0.515484 24.3584C0.497033 23.638 0.552884 22.9175 0.682151 22.2084L5.14382 4.20845C5.35937 3.38511 5.54771 2.75789 5.70882 2.32678C5.91322 1.83564 6.24454 1.40769 6.66882 1.08678C7.19784 0.676618 7.85501 0.467013 8.52382 0.495114C9.36318 0.506297 10.1971 0.632471 11.0022 0.870114C13.5099 1.55011 14.7644 2.69678 14.7655 4.31011C14.7345 5.0751 14.608 5.8332 14.3888 6.56678C14.359 6.61774 14.3408 6.67465 14.3355 6.73345L11.0572 19.8484H19.8172V5.18178C19.8059 4.56956 19.8332 3.95724 19.8988 3.34845C19.9798 2.87068 20.1506 2.41259 20.4021 1.99845Z" fill="white"/>
<path d="M24.7038 40.5535C23.6038 40.5535 22.7488 40.4585 22.0905 40.2635C21.5285 40.1195 20.9983 39.8719 20.5271 39.5335C20.1084 39.1968 19.8054 38.7376 19.6605 38.2202C19.4271 37.5535 19.3121 36.5869 19.3121 35.2686V29.2119H5.24713C2.51213 29.2119 0.852127 28.4102 0.312127 26.8302C0.112127 26.1936 0.0171263 25.3885 0.0171263 24.3585C-0.00686108 23.6003 0.0490021 22.8417 0.183793 22.0952L4.65379 4.08688C4.87713 3.23188 5.06713 2.60021 5.23546 2.15021C5.47444 1.57705 5.86085 1.07736 6.35546 0.701878C6.97268 0.220272 7.73972 -0.0287219 8.52213 -0.00145534C9.40485 0.0121402 10.2817 0.145009 11.1288 0.393544C13.8671 1.13688 15.2571 2.45688 15.2571 4.31521C15.2278 5.12424 15.0957 5.92624 14.8638 6.70188L14.8505 6.75021L14.8271 6.79521L14.8138 6.85021L11.6905 19.3502H19.3105V5.18354C19.2996 4.55073 19.328 3.91785 19.3955 3.28854C19.4867 2.74468 19.6819 2.2235 19.9705 1.75354C20.3221 1.13688 20.9205 0.705211 21.7455 0.471877C22.6869 0.240818 23.6547 0.135457 24.6238 0.158543C25.8005 0.158543 26.7688 0.28521 27.4988 0.533543C28.2971 0.808543 28.8788 1.26521 29.2271 1.89354C29.5153 2.38827 29.7081 2.9327 29.7955 3.49854C29.8616 4.14412 29.89 4.793 29.8805 5.44188V35.3235C29.8805 36.8235 29.6955 37.9002 29.3138 38.6419C29.1296 39.0173 28.8695 39.3505 28.5499 39.6201C28.2303 39.8898 27.8582 40.0902 27.4571 40.2085C26.5611 40.4574 25.6335 40.5737 24.7038 40.5535ZM8.52546 0.993545C7.97216 0.965303 7.42685 1.13486 6.98712 1.47188C6.63081 1.73672 6.34987 2.09005 6.17212 2.49688C6.01713 2.90688 5.83879 3.52354 5.62213 4.33021L1.17046 22.3285C1.05317 22.9985 1.00403 23.6787 1.02379 24.3585C1.00019 25.0888 1.08272 25.8187 1.26879 26.5252C1.65213 27.6435 2.99379 28.2169 5.25379 28.2169H20.3188V35.2735C20.3188 36.4652 20.4188 37.3502 20.6138 37.9035V37.9235C20.6955 38.2506 20.8802 38.5427 21.1405 38.7569C21.5134 39.0171 21.9309 39.2069 22.3721 39.3169C22.9305 39.4835 23.7155 39.5669 24.7055 39.5669C25.538 39.5835 26.3685 39.4779 27.1705 39.2535C27.4438 39.1741 27.6974 39.0381 27.9147 38.8544C28.1321 38.6706 28.3084 38.4432 28.4321 38.1869C28.7338 37.5985 28.8871 36.6352 28.8871 35.3252V5.43854C28.8957 4.83092 28.8701 4.2233 28.8105 3.61855C28.7372 3.1792 28.5835 2.75714 28.3571 2.37354C28.1305 1.96354 27.7455 1.67021 27.1821 1.47688C26.5555 1.26354 25.6971 1.15521 24.6305 1.15521C23.7532 1.13278 22.8768 1.2258 22.0238 1.43188C21.4521 1.59855 21.0655 1.86021 20.8455 2.24688C20.624 2.60429 20.4714 2.99999 20.3955 3.41354C20.3345 3.99813 20.3089 4.58587 20.3188 5.17354V20.3402H10.4105L13.8371 6.64354C13.8512 6.55712 13.877 6.47301 13.9138 6.39354C14.1151 5.71607 14.2321 5.01634 14.2621 4.31021C14.2621 2.94021 13.1521 1.97688 10.8688 1.35188C10.1074 1.12737 9.31915 1.00683 8.52546 0.993545Z" fill="#171718"/>
<path d="M91.2381 1.99845C91.5248 1.49622 92.0175 1.14678 92.7164 0.950111C93.6132 0.730559 94.5352 0.631357 95.4581 0.655113C96.5859 0.655113 97.4903 0.771223 98.1714 1.00345C98.8525 1.23567 99.3364 1.61233 99.6231 2.13345C99.8815 2.5714 100.055 3.05437 100.133 3.55678C100.197 4.18186 100.224 4.81016 100.215 5.43844V35.3234C100.215 36.7201 100.044 37.7501 99.7031 38.4134C99.5492 38.7292 99.3311 39.0095 99.0628 39.2362C98.7945 39.4629 98.4818 39.6311 98.1448 39.7301C97.2964 39.9649 96.4181 40.0739 95.5381 40.0534C94.4981 40.0534 93.6742 39.9634 93.0664 39.7834C92.5647 39.6561 92.0907 39.4374 91.6681 39.1384C91.3286 38.862 91.0844 38.486 90.9697 38.0634C90.7553 37.4546 90.6475 36.5229 90.6464 35.2684V28.7118H76.0814C73.5725 28.7118 72.0853 28.0312 71.6198 26.6701C71.4179 25.9168 71.3275 25.138 71.3514 24.3584C71.333 23.638 71.3888 22.9175 71.5181 22.2084L75.9797 4.20845C76.1953 3.38511 76.3836 2.75789 76.5448 2.32678C76.7491 1.83564 77.0805 1.40769 77.5048 1.08678C78.0338 0.676618 78.6909 0.467013 79.3598 0.495114C80.1991 0.506297 81.033 0.632471 81.8381 0.870114C84.3459 1.55011 85.6003 2.69678 85.6014 4.31011C85.5704 5.0751 85.4439 5.8332 85.2248 6.56678C85.1949 6.61774 85.1767 6.67465 85.1714 6.73345L81.8931 19.8484H90.6531V5.18178C90.6419 4.56956 90.6691 3.95724 90.7348 3.34845C90.8157 2.87068 90.9865 2.41259 91.2381 1.99845Z" fill="white"/>
<path d="M95.5358 40.5535C94.4358 40.5535 93.5808 40.4585 92.9225 40.2635C92.3603 40.1202 91.83 39.8726 91.3592 39.5335C90.9405 39.1968 90.6375 38.7376 90.4925 38.2202C90.2592 37.5535 90.1442 36.5869 90.1442 35.2686V29.2119H76.0792C73.3442 29.2119 71.6842 28.4102 71.1442 26.8302C70.9442 26.1936 70.8492 25.3885 70.8492 24.3585C70.8252 23.6003 70.881 22.8417 71.0158 22.0952L75.4858 4.08688C75.7058 3.24354 75.9008 2.58688 76.0675 2.15021C76.3065 1.57705 76.6929 1.07736 77.1875 0.701878C77.8047 0.220272 78.5717 -0.0287219 79.3542 -0.00145534C80.2369 0.0121402 81.1137 0.145009 81.9608 0.393544C84.6992 1.13688 86.0892 2.45688 86.0892 4.31521C86.0599 5.12424 85.9277 5.92624 85.6958 6.70188L85.6825 6.75021L85.6592 6.79521L85.6458 6.85021L82.5225 19.3502H90.1425V5.18354C90.1312 4.55068 90.1601 3.91773 90.2292 3.28854C90.3189 2.74454 90.5137 2.2232 90.8025 1.75354C91.1542 1.13688 91.7525 0.705211 92.5775 0.471877C93.5189 0.240818 94.4867 0.135457 95.4558 0.158543C96.6325 0.158543 97.5991 0.28521 98.3308 0.533543C99.1292 0.808543 99.7108 1.26521 100.057 1.89354C100.347 2.38786 100.54 2.93242 100.627 3.49854C100.694 4.14411 100.722 4.793 100.712 5.44188V35.3235C100.712 36.8135 100.527 37.9002 100.146 38.6419C99.9617 39.0173 99.7016 39.3505 99.382 39.6201C99.0624 39.8898 98.6902 40.0902 98.2892 40.2085C97.3932 40.4574 96.4655 40.5737 95.5358 40.5535ZM79.3575 0.993545C78.8042 0.965303 78.2589 1.13486 77.8192 1.47188C77.4628 1.73672 77.1819 2.09005 77.0042 2.49688C76.8492 2.90854 76.6708 3.52521 76.4558 4.33021L72.0025 22.3285C71.8852 22.9985 71.8361 23.6787 71.8558 24.3585C71.8322 25.0888 71.9147 25.8187 72.1008 26.5252C72.4842 27.6435 73.8258 28.2169 76.0858 28.2169H91.1508V35.2735C91.1508 36.4669 91.2508 37.3502 91.4458 37.9019V37.9235C91.5276 38.2506 91.7122 38.5427 91.9725 38.7569C92.3455 39.0171 92.7629 39.2069 93.2042 39.3169C93.9669 39.5061 94.752 39.5903 95.5375 39.5669C96.3701 39.5835 97.2005 39.4779 98.0025 39.2535C98.2758 39.1741 98.5294 39.0381 98.7467 38.8544C98.9641 38.6706 99.1404 38.4432 99.2642 38.1869C99.5658 37.5985 99.7192 36.6352 99.7192 35.3252V5.43854C99.7277 4.83092 99.7021 4.2233 99.6425 3.61855C99.5692 3.1792 99.4155 2.75714 99.1892 2.37354C98.9625 1.96521 98.5775 1.67021 98.0142 1.47688C97.3875 1.26354 96.5292 1.15521 95.4625 1.15521C94.5852 1.13278 93.7088 1.2258 92.8558 1.43188C92.2842 1.59855 91.8975 1.86021 91.6758 2.24688C91.4552 2.60455 91.3032 3.00019 91.2275 3.41354C91.1665 3.99813 91.1409 4.58587 91.1508 5.17354V20.3402H81.2425L84.6692 6.64354C84.6832 6.55712 84.709 6.47301 84.7458 6.39354C84.9473 5.7161 85.0643 5.01635 85.0942 4.31021C85.0942 2.94021 83.9842 1.97688 81.7008 1.35188C80.9394 1.12737 80.1512 1.00683 79.3575 0.993545Z" fill="#171718"/>
<path d="M129.233 42.7702L127.523 42.3986L127.135 40.6902C127.128 40.6608 127.112 40.6345 127.088 40.6156C127.064 40.5968 127.035 40.5865 127.005 40.5865C126.975 40.5865 126.945 40.5968 126.922 40.6156C126.898 40.6345 126.882 40.6608 126.875 40.6902L126.485 42.4052L124.773 42.8119C124.743 42.8178 124.716 42.8339 124.697 42.8575C124.678 42.8811 124.667 42.9106 124.667 42.9411C124.667 42.9716 124.678 43.0011 124.697 43.0247C124.716 43.0482 124.743 43.0643 124.773 43.0703L126.483 43.4436L126.872 45.1502C126.878 45.1797 126.895 45.206 126.918 45.2249C126.942 45.2437 126.971 45.254 127.002 45.254C127.032 45.254 127.061 45.2437 127.085 45.2249C127.108 45.206 127.125 45.1797 127.132 45.1502L127.522 43.4353L129.233 43.0286C129.263 43.0227 129.29 43.0066 129.309 42.983C129.329 42.9594 129.339 42.9299 129.339 42.8994C129.339 42.8689 129.329 42.8394 129.309 42.8158C129.29 42.7923 129.263 42.7762 129.233 42.7702ZM133.172 35.5302L132.055 35.2869L131.802 34.1736C131.796 34.1555 131.786 34.1395 131.77 34.1282C131.755 34.1169 131.737 34.1107 131.718 34.1107C131.699 34.1107 131.681 34.1169 131.666 34.1282C131.651 34.1395 131.64 34.1555 131.635 34.1736L131.38 35.2919L130.263 35.5569C130.244 35.5618 130.227 35.573 130.215 35.5887C130.203 35.6044 130.196 35.6238 130.197 35.6436C130.197 35.6632 130.203 35.6823 130.216 35.6975C130.228 35.7127 130.246 35.7231 130.265 35.7269L131.382 35.9702L131.635 37.0852C131.641 37.1025 131.652 37.1175 131.667 37.128C131.682 37.1386 131.7 37.1443 131.718 37.1443C131.737 37.1443 131.754 37.1386 131.769 37.128C131.784 37.1175 131.796 37.1025 131.802 37.0852L132.055 35.9653L133.173 35.7002C133.192 35.6957 133.209 35.6848 133.221 35.6694C133.234 35.654 133.24 35.6349 133.24 35.6152C133.24 35.5954 133.233 35.5761 133.221 35.5606C133.208 35.5452 133.191 35.5344 133.172 35.5302ZM8.83829 48.5302L7.72162 48.2869L7.46829 47.1736C7.46311 47.1555 7.45218 47.1395 7.43715 47.1282C7.42211 47.1169 7.40379 47.1107 7.38495 47.1107C7.36612 47.1107 7.3478 47.1169 7.33276 47.1282C7.31773 47.1395 7.30679 47.1555 7.30162 47.1736L7.04662 48.2919L5.92996 48.5569C5.91073 48.5618 5.89369 48.573 5.8816 48.5887C5.86951 48.6044 5.86306 48.6238 5.86329 48.6436C5.86329 48.6632 5.8701 48.6823 5.88256 48.6975C5.89502 48.7127 5.91235 48.7231 5.93162 48.7269L7.04829 48.9702L7.30162 50.0852C7.30769 50.1025 7.31896 50.1175 7.33389 50.128C7.34882 50.1386 7.36666 50.1443 7.38495 50.1443C7.40325 50.1443 7.42109 50.1386 7.43602 50.128C7.45095 50.1175 7.46222 50.1025 7.46829 50.0852L7.72162 48.9653L8.83995 48.7002C8.85905 48.6957 8.87604 48.6848 8.88815 48.6694C8.90026 48.654 8.90677 48.6349 8.90662 48.6152C8.90669 48.5954 8.89994 48.5761 8.8875 48.5606C8.87506 48.5452 8.85769 48.5344 8.83829 48.5302Z" fill="#171718"/>
<path d="M103.418 45.2534L105.751 41.42C105.751 41.42 107.918 40.92 109.085 39.2534C109.085 39.2534 110.693 38.5867 111.506 37.1217C111.531 37.075 111.542 37.022 111.537 36.9693C111.532 36.9167 111.512 36.8665 111.479 36.8251C111.446 36.7837 111.402 36.7528 111.352 36.7362C111.301 36.7196 111.247 36.718 111.196 36.7317L108.585 37.42L109.585 35.5867C109.585 35.5867 112.045 33.865 112.948 32.42C112.978 32.3728 112.992 32.3168 112.987 32.2608C112.982 32.2048 112.959 32.1521 112.921 32.1109C112.883 32.0697 112.832 32.0423 112.776 32.0331C112.721 32.0239 112.664 32.0334 112.615 32.06L107.251 34.7534L100.93 42.7717L103.418 45.2534Z" fill="white"/>
<path d="M103.515 46.057L100.262 42.812L106.928 34.357L112.397 31.622C112.544 31.5488 112.71 31.5255 112.872 31.5558C113.033 31.586 113.18 31.6682 113.29 31.7897C113.401 31.9111 113.468 32.0654 113.483 32.2288C113.498 32.3923 113.459 32.5561 113.372 32.6953C112.518 34.0503 110.448 35.582 109.968 35.927L109.578 36.642L111.07 36.2486C111.217 36.2104 111.371 36.2161 111.515 36.265C111.658 36.3139 111.784 36.4038 111.877 36.5236C111.968 36.641 112.022 36.7824 112.034 36.9304C112.046 37.0784 112.015 37.2266 111.943 37.357C111.19 38.712 109.845 39.4386 109.412 39.6453C108.352 41.0703 106.667 41.6686 106.078 41.842L103.515 46.057ZM101.598 42.7336L103.322 44.4503L105.433 40.9803L105.638 40.9336C105.658 40.9336 107.638 40.4503 108.675 38.967L108.758 38.8486L108.892 38.792C109.606 38.4615 110.237 37.9758 110.74 37.3703L107.59 38.2036L109.202 35.2536L109.298 35.1853C110.205 34.5368 111.055 33.812 111.838 33.0186L107.573 35.1503L101.598 42.7336Z" fill="#171718"/>
<path d="M128.918 82.9204H137.085L141.716 81.882C142.068 81.8304 145.101 83.3503 147.255 84.4587C147.35 84.5083 147.425 84.5899 147.467 84.6893C147.509 84.7887 147.514 84.8995 147.482 85.0025C147.451 85.1054 147.384 85.194 147.293 85.2527C147.203 85.3114 147.095 85.3365 146.988 85.3237C145.275 85.112 143.108 84.792 142.085 84.4204L139.751 84.9204L140.585 85.587C140.585 85.587 143.085 85.587 143.736 86.2537C143.978 86.5003 144.031 86.827 143.688 86.8604L137.918 87.4204L135.251 86.7537L129.418 86.587L128.918 82.9204Z" fill="white"/>
<path d="M137.878 87.9201L135.181 87.2534L128.978 87.0767L128.336 82.4201H137.019L141.634 81.3867C141.878 81.3501 142.209 81.3017 147.468 84.0151C147.668 84.118 147.825 84.288 147.912 84.4953C148 84.7026 148.011 84.9341 147.945 85.149C147.879 85.364 147.739 85.5489 147.55 85.6713C147.362 85.7936 147.136 85.8457 146.913 85.8184C144.579 85.5317 142.938 85.2367 142.038 84.9384L141.248 85.1051C142.123 85.1567 143.518 85.3284 144.081 85.8967C144.376 86.1967 144.489 86.5734 144.378 86.8817C144.326 87.0148 144.236 87.1301 144.12 87.2138C144.005 87.2974 143.867 87.3459 143.724 87.3534L137.878 87.9201ZM129.854 86.0867L135.318 86.2434L137.953 86.9101L143.051 86.4101C142.496 86.2017 141.451 86.0767 140.583 86.0767H140.406L138.613 84.6417L142.113 83.8917L142.248 83.9401C143.004 84.2151 144.581 84.5084 146.814 84.7884C142.861 82.7567 141.941 82.4284 141.739 82.3767L137.138 83.4201H129.488L129.854 86.0867Z" fill="#171718"/>
<path d="M65.7207 63.9637L63.5273 58.0087L58.5273 59.757L61.0573 67.1837L65.7207 63.9637Z" fill="white"/>
<path d="M60.7979 67.9701L57.8945 59.4484L63.8262 57.3734L66.3262 64.1551L60.7979 67.9701ZM59.1695 60.0651L61.3262 66.3984L65.1262 63.7751L63.2362 58.6451L59.1695 60.0651Z" fill="#171718"/>
<path d="M64.0053 56.2538L64.3703 59.4205C64.3703 59.4205 59.6003 58.7922 58.727 61.4088L51.7103 58.0755C51.6123 58.0282 51.532 57.9509 51.4811 57.8547C51.4302 57.7586 51.4114 57.6487 51.4274 57.5411C51.4434 57.4335 51.4934 57.3338 51.5701 57.2566C51.6468 57.1795 51.7462 57.1288 51.8537 57.1122L62.9337 55.4322C63.0583 55.4134 63.1854 55.42 63.3075 55.4515C63.4295 55.483 63.544 55.5388 63.644 55.6154C63.744 55.6921 63.8275 55.7882 63.8896 55.8979C63.9517 56.0075 63.9911 56.1286 64.0053 56.2538Z" fill="#E0F2FE"/>
<path d="M59.0117 62.107L51.485 58.5237C51.2901 58.4306 51.1301 58.2775 51.0286 58.0867C50.9271 57.896 50.8894 57.6778 50.9211 57.464C50.9528 57.2503 51.0522 57.0524 51.2047 56.8993C51.3572 56.7463 51.5548 56.6462 51.7684 56.6137L62.8484 54.9354C63.0394 54.9066 63.2342 54.9166 63.4213 54.9647C63.6084 55.0129 63.7838 55.0982 63.9372 55.2157C64.0906 55.3331 64.2187 55.4802 64.314 55.6482C64.4092 55.8163 64.4697 56.0018 64.4917 56.1937L64.93 60.002L64.295 59.9187C64.2517 59.9187 59.9234 59.377 59.1917 61.5704L59.0117 62.107ZM63.065 55.9204C63.0429 55.9187 63.0206 55.9187 62.9984 55.9204L51.9184 57.602C51.9152 57.6038 51.9126 57.6065 51.9111 57.6098C51.9096 57.6131 51.9092 57.6168 51.91 57.6204L58.47 60.742C59.5434 58.8654 62.4867 58.802 63.7934 58.8737L63.5017 56.307C63.4956 56.2486 63.4777 56.192 63.449 56.1408C63.4204 56.0895 63.3816 56.0445 63.335 56.0087C63.2572 55.9503 63.1623 55.9193 63.065 55.9204Z" fill="#171718"/>
<path d="M47.4361 62.3169L41.6761 59.6503L39.3711 64.4186L46.4078 67.8903L47.4361 62.3169Z" fill="white"/>
<path d="M46.7804 68.6301L38.707 64.6485L41.442 58.9818L48.0037 62.0268L46.7804 68.6301ZM40.0387 64.1901L46.0387 67.1485L46.872 62.6085L41.912 60.3102L40.0387 64.1901Z" fill="#171718"/>
<path d="M40.7671 58.0736L43.2671 60.0636C43.2671 60.0636 39.4454 62.987 40.6688 65.457L33.3354 68.047C33.2326 68.0831 33.1209 68.0854 33.0167 68.0534C32.9125 68.0215 32.8212 67.9569 32.7564 67.8693C32.6915 67.7817 32.6564 67.6756 32.6563 67.5666C32.6561 67.4576 32.6908 67.3514 32.7554 67.2636L39.4271 58.2536C39.5019 58.152 39.5964 58.0665 39.7049 58.0022C39.8135 57.9379 39.9339 57.8961 40.0589 57.8793C40.184 57.8625 40.3111 57.8711 40.4328 57.9045C40.5544 57.9378 40.6681 57.9954 40.7671 58.0736Z" fill="#E0F2FE"/>
<path d="M33.1699 68.5769C32.9834 68.5761 32.8006 68.5237 32.642 68.4254C32.4834 68.3271 32.3552 68.1868 32.2714 68.0201C32.1877 67.8533 32.1518 67.6667 32.1677 67.4808C32.1837 67.2949 32.2508 67.117 32.3616 66.9669L39.0199 57.9536C39.1345 57.798 39.2793 57.6671 39.4457 57.5688C39.6121 57.4705 39.7967 57.4069 39.9883 57.3817C40.1799 57.3564 40.3746 57.3702 40.5607 57.4221C40.7469 57.4739 40.9207 57.5629 41.0716 57.6836L44.0716 60.0702L43.5633 60.4602C43.5283 60.4869 40.0866 63.1636 41.1166 65.2336L41.3683 65.7336L33.5099 68.5119C33.4012 68.5532 33.2862 68.5752 33.1699 68.5769ZM40.1699 58.3702C40.15 58.3686 40.1299 58.3686 40.1099 58.3702C40.0521 58.3768 39.9962 58.3949 39.9455 58.4235C39.8948 58.4522 39.8504 58.4907 39.8149 58.5369L33.1699 67.5619V67.5802L40.0199 65.1569C39.4533 63.0702 41.4933 60.9452 42.4683 60.0736L40.4483 58.4652C40.3736 58.405 40.2809 58.3715 40.1849 58.3702H40.1699Z" fill="#171718"/>
<path d="M85.0846 74.9205L61.918 69.2538L47.2513 61.7538L44.918 69.0871L59.0846 77.7538L71.418 81.9205L86.0846 85.0871L85.0846 74.9205Z" fill="white"/>
<path d="M86.647 85.7204L71.2553 82.3871L58.8686 78.2087L58.8203 78.1804L44.3203 69.3087L46.952 61.0404L62.092 68.7821L85.5453 74.5187L86.647 85.7204ZM71.5486 81.4371L85.517 84.4537L84.6186 75.3221L61.7386 69.7254L61.687 69.6987L47.5453 62.4671L45.5103 68.8654L59.2936 77.2987L71.5486 81.4371Z" fill="#171718"/>
<path d="M87.7487 75.9205H72.4154L65.582 61.7538L59.582 66.2538L65.3854 83.6638C65.6834 84.558 66.2602 85.3331 67.0311 85.8754C67.802 86.4178 68.7264 86.6987 69.6687 86.6771L87.7487 86.2538V75.9205Z" fill="white"/>
<path d="M69.5672 87.1786C68.5364 87.1819 67.531 86.8589 66.6948 86.256C65.8587 85.653 65.2347 84.8011 64.9122 83.822L59.0039 66.0703L65.7772 60.9886L72.7306 75.4203H88.2506V86.742L69.6856 87.177L69.5672 87.1786ZM60.1706 66.437L65.8589 83.5053C66.1168 84.2838 66.6141 84.9608 67.2798 85.4397C67.9455 85.9187 68.7455 86.1749 69.5656 86.172H69.6706L87.2589 85.7603V76.4203H72.1022L65.3972 62.5187L60.1706 66.437Z" fill="#171718"/>
<path d="M106.75 71.4203L109.417 67.4203C109.417 67.4203 108.417 63.5869 109.583 62.5869C110.75 61.5869 116.583 61.9203 116.583 61.9203C116.583 61.9203 117.417 71.5869 112.75 70.5869L108.75 78.5869L106.75 71.4203Z" fill="white"/>
<path d="M108.617 79.9701L106.207 71.3334L108.874 67.3334C108.629 66.3118 108.025 63.2668 109.254 62.2135C110.51 61.1368 115.6 61.3701 116.609 61.4268L117.04 61.4518L117.079 61.8835C117.1 62.1485 117.609 68.3834 115.245 70.4701C114.946 70.736 114.593 70.9334 114.21 71.0486C113.827 71.1637 113.423 71.1938 113.027 71.1368L108.617 79.9701ZM107.294 71.5068L108.882 77.2035L112.475 70.0168L112.855 70.0985C113.557 70.2485 114.124 70.1235 114.589 69.7135C116.109 68.3801 116.219 64.3218 116.115 62.3968C113.782 62.2968 110.565 62.3968 109.909 62.9668C109.252 63.5368 109.517 65.8285 109.909 67.3001L109.965 67.5168L107.294 71.5068Z" fill="#171718"/>
<path d="M99.418 56.2535L108.096 69.2268L109.418 74.2535L111.285 73.5201L115.585 78.7535L133.085 81.9201V86.9201L117.085 86.0868L105.085 81.2535C105.085 81.2535 94.0846 86.4201 84.0846 86.5868L82.418 73.9201C82.418 73.9201 90.418 73.5868 97.0846 67.5868L92.2796 57.1751C91.922 56.4006 91.7913 55.5405 91.9028 54.6947C92.0143 53.8489 92.3634 53.0521 92.9096 52.3968L102.751 40.5868L106.585 45.2535L99.418 56.2535Z" fill="#E0F2FE"/>
<path d="M133.583 87.4469L116.973 86.587L116.897 86.5553L105.095 81.8019C103.548 82.5003 93.3432 86.937 84.0949 87.092H83.6482L81.8516 73.442L82.3982 73.4186C82.4749 73.4186 90.0849 73.0253 96.4766 67.4569L91.8266 57.3836C91.432 56.5226 91.2883 55.5677 91.4122 54.6287C91.536 53.6896 91.9223 52.8046 92.5266 52.0753L102.755 39.8003L107.205 45.217L100.015 56.2536L108.557 69.0219L109.757 73.5853L111.438 72.9186L115.852 78.2903L133.583 81.4986V87.4469ZM117.192 85.587L132.583 86.3886V82.3386L115.313 79.2136L111.127 74.1186L109.075 74.9203L107.632 69.4303L98.8166 56.2536L105.963 45.2853L102.747 41.3686L93.2916 52.7136C92.8082 53.2978 92.4992 54.0063 92.4002 54.7581C92.3011 55.5098 92.416 56.2742 92.7316 56.9636L97.6916 67.7086L97.4166 67.9553C91.6166 73.1753 84.9166 74.187 82.9799 74.3753L84.5199 86.0736C94.1866 85.7686 104.763 80.8486 104.87 80.797L105.067 80.7053L117.192 85.587Z" fill="#171718"/>
<path d="M118.252 64.2534C118.252 64.2534 114.919 65.7534 111.752 63.92C111.752 63.92 109.839 63.2534 110.419 66.92L109.419 68.2534C109.419 68.2534 107.085 66.0867 107.252 63.7534C107.252 63.7534 102.87 62.6184 105.839 59.2534C108.339 56.42 109.752 59.5867 109.752 59.5867C109.752 59.5867 117.419 55.92 118.252 64.2534ZM103.034 82.675L102.672 81.74C106.102 80.4284 109.482 75.9967 109.515 75.9517L110.314 76.555C110.172 76.7534 106.729 81.2534 103.034 82.675Z" fill="#171718"/>
<path d="M95.4727 65.2948L96.3376 64.793L99.8478 70.8435L98.9828 71.3453L95.4727 65.2948Z" fill="#171718"/>
</svg>
