<svg width="134" height="88" viewBox="0 0 134 88" fill="none" xmlns="http://www.w3.org/2000/svg">
<path d="M123.625 29.4971C123.911 28.996 124.404 28.6465 125.103 28.4487C126 28.2292 126.922 28.13 127.845 28.1537C128.973 28.1537 129.877 28.2698 130.558 28.5021C131.239 28.7343 131.723 29.111 132.01 29.6321C132.268 30.07 132.441 30.553 132.52 31.0554C132.584 31.6805 132.611 32.3088 132.601 32.9371V62.8221C132.601 64.2187 132.431 65.2487 132.09 65.9121C131.936 66.2279 131.718 66.5081 131.45 66.7348C131.181 66.9615 130.869 67.1297 130.531 67.2287C129.683 67.4636 128.805 67.5725 127.925 67.5521C126.885 67.5521 126.061 67.4621 125.453 67.2821C124.951 67.1547 124.477 66.936 124.055 66.6371C123.715 66.3606 123.471 65.9846 123.356 65.5621C123.142 64.9532 123.034 64.0215 123.033 62.7671V56.2104H108.468C105.959 56.2104 104.472 55.5298 104.006 54.1687C103.805 53.4154 103.714 52.6366 103.738 51.8571C103.72 51.1366 103.776 50.4161 103.905 49.7071L108.366 31.7071C108.582 30.8837 108.77 30.2565 108.931 29.8254C109.136 29.3343 109.467 28.9063 109.891 28.5854C110.42 28.1752 111.078 27.9656 111.746 27.9937C112.586 28.0049 113.42 28.1311 114.225 28.3687C116.733 29.0487 117.987 30.1954 117.988 31.8087C117.957 32.5737 117.831 33.3318 117.611 34.0654C117.582 34.1164 117.563 34.1733 117.558 34.2321L114.28 47.3471H123.04V32.6804C123.029 32.0682 123.056 31.4559 123.121 30.8471C123.202 30.3693 123.373 29.9112 123.625 29.4971Z" fill="white"/>
<path d="M127.923 68.0522C126.823 68.0522 125.968 67.9572 125.309 67.7622C124.747 67.6181 124.217 67.3706 123.746 67.0322C123.327 66.6954 123.024 66.2362 122.879 65.7188C122.646 65.0522 122.531 64.0855 122.531 62.7672V56.7105H108.466C105.731 56.7105 104.071 55.9088 103.531 54.3288C103.331 53.6922 103.236 52.8872 103.236 51.8572C103.212 51.099 103.268 50.3404 103.403 49.5938L107.873 31.5855C108.096 30.7288 108.286 30.0988 108.454 29.6488C108.693 29.0754 109.079 28.5756 109.574 28.2005C110.191 27.7189 110.958 27.4699 111.741 27.4972C112.624 27.5108 113.5 27.6436 114.348 27.8922C117.086 28.6355 118.476 29.9555 118.476 31.8138C118.447 32.6229 118.314 33.4249 118.083 34.2005L118.069 34.2488L118.046 34.2938L118.033 34.3488L114.909 46.8488H122.529V32.6822C122.518 32.0494 122.547 31.4165 122.614 30.7872C122.705 30.2433 122.901 29.7221 123.189 29.2522C123.541 28.6355 124.139 28.2038 124.964 27.9705C125.906 27.7394 126.873 27.634 127.843 27.6572C129.019 27.6572 129.988 27.7838 130.718 28.0322C131.516 28.3072 132.098 28.7638 132.446 29.3922C132.734 29.8869 132.927 30.4313 133.014 30.9972C133.08 31.6427 133.109 32.2916 133.099 32.9405V62.8222C133.099 64.3222 132.914 65.3988 132.533 66.1405C132.348 66.516 132.088 66.8491 131.769 67.1188C131.449 67.3884 131.077 67.5888 130.676 67.7072C129.78 67.9561 128.852 68.0723 127.923 68.0522ZM111.744 28.4922C111.191 28.4639 110.646 28.6335 110.206 28.9705C109.85 29.2353 109.569 29.5887 109.391 29.9955C109.236 30.4055 109.058 31.0222 108.841 31.8288L104.389 49.8272C104.272 50.4972 104.223 51.1773 104.243 51.8572C104.219 52.5875 104.301 53.3173 104.488 54.0238C104.871 55.1422 106.213 55.7155 108.473 55.7155H123.538V62.7722C123.538 63.9638 123.638 64.8489 123.833 65.4022V65.4222C123.914 65.7492 124.099 66.0413 124.359 66.2555C124.732 66.516 125.15 66.7064 125.591 66.8172C126.149 66.9838 126.934 67.0655 127.924 67.0655C128.757 67.0821 129.587 66.9765 130.389 66.7522C130.663 66.6728 130.916 66.5368 131.133 66.353C131.351 66.1692 131.527 65.9418 131.651 65.6855C131.953 65.0972 132.106 64.1338 132.106 62.8238V32.9372C132.114 32.3296 132.089 31.7219 132.029 31.1172C131.956 30.6778 131.802 30.2558 131.576 29.8722C131.349 29.4622 130.964 29.1688 130.401 28.9755C129.774 28.7622 128.916 28.6538 127.849 28.6538C126.972 28.6313 126.096 28.7243 125.243 28.9305C124.671 29.0972 124.284 29.3588 124.064 29.7455C123.844 30.1033 123.692 30.4989 123.616 30.9122C123.555 31.4968 123.529 32.0845 123.539 32.6722V47.8388H113.629L117.056 34.1422C117.07 34.0558 117.096 33.9716 117.133 33.8922C117.334 33.2147 117.451 32.515 117.481 31.8088C117.481 30.4388 116.371 29.4755 114.088 28.8505C113.326 28.626 112.538 28.5055 111.744 28.4922Z" fill="#171718"/>
<path d="M21.2889 29.4971C21.5755 28.996 22.0683 28.6465 22.7672 28.4487C23.664 28.2292 24.5859 28.13 25.5089 28.1537C26.6366 28.1537 27.5411 28.2698 28.2222 28.5021C28.9033 28.7343 29.3872 29.111 29.6739 29.6321C29.9323 30.07 30.1053 30.553 30.1839 31.0554C30.2479 31.6805 30.2752 32.3088 30.2655 32.9371V62.8221C30.2655 64.2187 30.095 65.2487 29.7539 65.9121C29.6 66.2279 29.3819 66.5081 29.1136 66.7348C28.8453 66.9615 28.5326 67.1297 28.1955 67.2287C27.3472 67.4636 26.4689 67.5725 25.5889 67.5521C24.5489 67.5521 23.725 67.4621 23.1172 67.2821C22.6155 67.1547 22.1415 66.936 21.7189 66.6371C21.3794 66.3606 21.1352 65.9846 21.0205 65.5621C20.805 64.9532 20.6972 64.0215 20.6972 62.7671V56.2104H6.1322C3.62331 56.2104 2.13609 55.5298 1.67054 54.1687C1.46866 53.4154 1.37825 52.6366 1.4022 51.8571C1.38375 51.1366 1.4396 50.4161 1.56887 49.7071L6.03054 31.7071C6.24609 30.8837 6.43443 30.2565 6.59554 29.8254C6.79994 29.3343 7.13125 28.9063 7.55554 28.5854C8.08456 28.1752 8.74172 27.9656 9.41054 27.9937C10.2499 28.0049 11.0838 28.1311 11.8889 28.3687C14.3966 29.0487 15.6511 30.1954 15.6522 31.8087C15.6212 32.5737 15.4947 33.3318 15.2755 34.0654C15.2457 34.1164 15.2275 34.1733 15.2222 34.2321L11.9439 47.3471H20.7039V32.6804C20.6927 32.0682 20.7199 31.4559 20.7855 30.8471C20.8665 30.3693 21.0373 29.9112 21.2889 29.4971Z" fill="white"/>
<path d="M25.5905 68.0522C24.4905 68.0522 23.6355 67.9572 22.9772 67.7622C22.4152 67.6181 21.8851 67.3706 21.4138 67.0322C20.9952 66.6954 20.6922 66.2362 20.5472 65.7188C20.3138 65.0522 20.1988 64.0855 20.1988 62.7672V56.7105H6.13385C3.39885 56.7105 1.73885 55.9088 1.19885 54.3288C0.998846 53.6922 0.903845 52.8872 0.903845 51.8572C0.879858 51.099 0.935721 50.3404 1.07051 49.5938L5.54051 31.5855C5.76384 30.7288 5.95385 30.0988 6.12218 29.6488C6.36074 29.0754 6.74723 28.5756 7.24218 28.2005C7.8594 27.7189 8.62644 27.4699 9.40884 27.4972C10.2916 27.5108 11.1684 27.6436 12.0155 27.8922C14.7538 28.6355 16.1438 29.9555 16.1438 31.8138C16.1146 32.6229 15.9824 33.4249 15.7505 34.2005L15.7372 34.2488L15.7138 34.2938L15.7005 34.3488L12.5772 46.8488H20.1972V32.6822C20.1863 32.0494 20.2147 31.4165 20.2822 30.7872C20.3734 30.2433 20.5686 29.7221 20.8572 29.2522C21.2088 28.6355 21.8072 28.2038 22.6322 27.9705C23.5736 27.7394 24.5414 27.634 25.5105 27.6572C26.6872 27.6572 27.6555 27.7838 28.3855 28.0322C29.1838 28.3072 29.7655 28.7638 30.1138 29.3922C30.4021 29.8869 30.5948 30.4313 30.6822 30.9972C30.7483 31.6427 30.7767 32.2916 30.7672 32.9405V62.8222C30.7672 64.3222 30.5822 65.3988 30.2005 66.1405C30.0164 66.516 29.7563 66.8491 29.4367 67.1188C29.1171 67.3884 28.7449 67.5888 28.3438 67.7072C27.4479 67.9561 26.5202 68.0723 25.5905 68.0522ZM9.41218 28.4922C8.85887 28.4639 8.31357 28.6335 7.87384 28.9705C7.51753 29.2353 7.23659 29.5887 7.05884 29.9955C6.90384 30.4055 6.72551 31.0222 6.50885 31.8288L2.05718 49.8272C1.93989 50.4972 1.89075 51.1773 1.91051 51.8572C1.88691 52.5875 1.96943 53.3173 2.15551 54.0238C2.53884 55.1422 3.88051 55.7155 6.14051 55.7155H21.2055V62.7722C21.2055 63.9638 21.3055 64.8489 21.5005 65.4022V65.4222C21.5823 65.7492 21.7669 66.0413 22.0272 66.2555C22.4002 66.516 22.8176 66.7064 23.2588 66.8172C23.8172 66.9838 24.6022 67.0655 25.5922 67.0655C26.4247 67.0821 27.2552 66.9765 28.0572 66.7522C28.3305 66.6728 28.5841 66.5368 28.8014 66.353C29.0188 66.1692 29.1951 65.9418 29.3188 65.6855C29.6205 65.0972 29.7738 64.1338 29.7738 62.8238V32.9372C29.7824 32.3296 29.7568 31.7219 29.6972 31.1172C29.6239 30.6778 29.4702 30.2558 29.2438 29.8722C29.0172 29.4622 28.6322 29.1688 28.0688 28.9755C27.4422 28.7622 26.5838 28.6538 25.5172 28.6538C24.6399 28.6313 23.7635 28.7243 22.9105 28.9305C22.3388 29.0972 21.9522 29.3588 21.7322 29.7455C21.5119 30.1033 21.3598 30.4989 21.2838 30.9122C21.2229 31.4968 21.1973 32.0845 21.2072 32.6722V47.8388H11.2972L14.7238 34.1422C14.7379 34.0558 14.7637 33.9716 14.8005 33.8922C15.0019 33.2147 15.1188 32.515 15.1488 31.8088C15.1488 30.4388 14.0388 29.4755 11.7555 28.8505C10.9941 28.626 10.2059 28.5055 9.41218 28.4922Z" fill="#171718"/>
<path d="M30.9477 9.5138L29.176 9.12713L28.7727 7.3588C28.7658 7.32852 28.7489 7.30147 28.7247 7.28208C28.7005 7.26269 28.6704 7.25213 28.6393 7.25213C28.6082 7.25235 28.578 7.26296 28.5535 7.28228C28.5291 7.3016 28.5117 7.32853 28.5043 7.3588L28.101 9.13546L26.3293 9.55547C26.2988 9.56295 26.2716 9.58051 26.2523 9.6053C26.2329 9.63009 26.2225 9.66068 26.2227 9.69213C26.2228 9.72319 26.2337 9.75325 26.2534 9.77723C26.2731 9.80122 26.3005 9.81766 26.331 9.8238L28.1027 10.2105L28.5043 11.9788C28.5117 12.0091 28.5291 12.036 28.5535 12.0553C28.578 12.0746 28.6082 12.0852 28.6393 12.0855C28.6704 12.0855 28.7005 12.0749 28.7247 12.0555C28.7489 12.0361 28.7658 12.0091 28.7727 11.9788L29.1777 10.2021L30.9493 9.78213C30.9805 9.77609 31.0086 9.7594 31.0287 9.73492C31.0489 9.71044 31.06 9.6797 31.06 9.64796C31.06 9.61623 31.0489 9.58549 31.0287 9.56101C31.0086 9.53653 30.9805 9.51984 30.9493 9.5138H30.9477ZM34.166 1.9188L33.2493 1.7188L33.0427 0.803797C33.0392 0.78784 33.0303 0.77356 33.0176 0.763321C33.0048 0.753082 32.989 0.747498 32.9727 0.747498C32.9563 0.747498 32.9405 0.753082 32.9277 0.763321C32.915 0.77356 32.9062 0.78784 32.9027 0.803797L32.6943 1.7238L31.7777 1.94047C31.7619 1.94422 31.748 1.95318 31.738 1.96589C31.728 1.9786 31.7226 1.9943 31.7227 2.01046C31.7227 2.02665 31.7284 2.0423 31.7388 2.05476C31.7491 2.06722 31.7634 2.07571 31.7793 2.0788L32.696 2.2788L32.9027 3.1938C32.9062 3.20975 32.915 3.22404 32.9277 3.23428C32.9405 3.24452 32.9563 3.2501 32.9727 3.2501C32.989 3.2501 33.0048 3.24452 33.0176 3.23428C33.0303 3.22404 33.0392 3.20975 33.0427 3.1938L33.251 2.2738L34.1677 2.05713C34.1832 2.05311 34.1971 2.04408 34.207 2.03143C34.2169 2.01878 34.2224 2.00322 34.2227 1.98713C34.2226 1.97095 34.2169 1.95529 34.2065 1.94283C34.1962 1.93037 34.1819 1.92188 34.166 1.9188ZM100.784 84.7688L99.0743 84.3971L98.686 82.6888C98.6793 82.6593 98.6628 82.633 98.6391 82.6142C98.6155 82.5954 98.5862 82.5851 98.556 82.5851C98.5258 82.5851 98.4965 82.5954 98.4728 82.6142C98.4492 82.633 98.4327 82.6593 98.426 82.6888L98.036 84.4038L96.3243 84.8105C96.2944 84.8164 96.2675 84.8325 96.2481 84.856C96.2288 84.8796 96.2182 84.9091 96.2182 84.9396C96.2182 84.9701 96.2288 84.9997 96.2481 85.0232C96.2675 85.0468 96.2944 85.0629 96.3243 85.0688L98.0343 85.4421L98.4227 87.1488C98.4294 87.1783 98.4459 87.2046 98.4695 87.2234C98.4931 87.2423 98.5224 87.2525 98.5527 87.2525C98.5829 87.2525 98.6122 87.2423 98.6358 87.2234C98.6594 87.2046 98.6759 87.1783 98.6827 87.1488L99.0727 85.4338L100.784 85.0271C100.814 85.0212 100.841 85.0051 100.861 84.9816C100.88 84.958 100.89 84.9285 100.89 84.898C100.89 84.8675 100.88 84.8379 100.861 84.8144C100.841 84.7908 100.814 84.7747 100.784 84.7688ZM104.723 77.5288L103.606 77.2855L103.353 76.1721C103.347 76.154 103.337 76.1381 103.322 76.1267C103.306 76.1154 103.288 76.1093 103.269 76.1093C103.25 76.1093 103.232 76.1154 103.217 76.1267C103.202 76.1381 103.191 76.154 103.186 76.1721L102.931 77.2905L101.814 77.5555C101.795 77.5603 101.778 77.5715 101.766 77.5872C101.754 77.603 101.747 77.6223 101.748 77.6421C101.748 77.6618 101.754 77.6808 101.767 77.696C101.779 77.7112 101.797 77.7216 101.816 77.7255L102.933 77.9688L103.186 79.0838C103.192 79.1011 103.203 79.116 103.218 79.1266C103.233 79.1372 103.251 79.1428 103.269 79.1428C103.288 79.1428 103.305 79.1372 103.32 79.1266C103.335 79.116 103.347 79.1011 103.353 79.0838L103.606 77.9638L104.724 77.6988C104.743 77.6943 104.76 77.6834 104.773 77.668C104.785 77.6525 104.791 77.6334 104.791 77.6138C104.791 77.5939 104.784 77.5747 104.772 77.5592C104.759 77.5437 104.742 77.533 104.723 77.5288ZM42.7227 76.0288L41.606 75.7855L41.3527 74.6721C41.3475 74.654 41.3366 74.6381 41.3215 74.6267C41.3065 74.6154 41.2882 74.6093 41.2693 74.6093C41.2505 74.6093 41.2322 74.6154 41.2171 74.6267C41.2021 74.6381 41.1912 74.654 41.186 74.6721L40.931 75.7905L39.8143 76.0555C39.7951 76.0603 39.7781 76.0715 39.766 76.0872C39.7539 76.103 39.7474 76.1223 39.7477 76.1421C39.7477 76.1618 39.7545 76.1808 39.7669 76.196C39.7794 76.2112 39.7967 76.2216 39.816 76.2255L40.9327 76.4688L41.186 77.5838C41.1921 77.6011 41.2033 77.616 41.2183 77.6266C41.2332 77.6372 41.251 77.6428 41.2693 77.6428C41.2876 77.6428 41.3055 77.6372 41.3204 77.6266C41.3353 77.616 41.3466 77.6011 41.3527 77.5838L41.606 76.4638L42.7243 76.1988C42.7434 76.1943 42.7604 76.1834 42.7725 76.168C42.7846 76.1525 42.7911 76.1334 42.791 76.1138C42.7911 76.0939 42.7843 76.0747 42.7719 76.0592C42.7594 76.0437 42.7421 76.033 42.7227 76.0288Z" fill="#171718"/>
<path d="M82.7793 12.9189L84.8893 14.6806C84.8893 14.6806 85.556 24.0855 93.4843 22.6372L94.8093 24.9905C94.8093 24.9905 92.056 32.0856 98.036 33.0856L98.7027 36.3555C98.7027 36.3555 95.006 39.3655 97.8893 43.5855L92.9527 45.8722L79.2227 16.0856L82.7793 12.9189Z" fill="#171718"/>
<path d="M95.249 38.5854C95.247 37.6583 95.4534 36.7426 95.8529 35.906C96.2525 35.0694 96.835 34.3333 97.5573 33.7521C97.5573 33.7238 97.5456 33.6971 97.539 33.6704C96.4263 33.5523 95.3664 33.1353 94.4715 32.4637C93.5766 31.7921 92.88 30.8909 92.4557 29.8556C92.0313 28.8203 91.8949 27.6895 92.061 26.583C92.227 25.4765 92.6894 24.4355 93.399 23.5704L93.2923 23.4038C91.8371 24.0287 90.2318 24.2182 88.6711 23.9491C87.1104 23.6801 85.6613 22.9642 84.4993 21.8881C83.3373 20.812 82.5123 19.422 82.1244 17.8865C81.7366 16.351 81.8024 14.7359 82.314 13.2371C77.6815 10.7223 72.4749 9.45468 67.2048 9.55852C61.9348 9.66235 56.7822 11.1341 52.2524 13.8294C47.7225 16.5247 43.971 20.3511 41.3656 24.9332C38.7602 29.5154 37.3904 34.696 37.3906 39.9671C37.3906 56.7521 51.0023 70.3721 67.794 70.3721C83.3173 70.3721 96.1273 58.7388 97.9689 43.7154C97.1311 43.1475 96.4451 42.383 95.9709 41.4888C95.4967 40.5945 95.2489 39.5976 95.249 38.5854ZM67.5573 48.1554C65.9851 48.1558 64.4482 47.6898 63.1408 46.8166C61.8335 45.9434 60.8144 44.702 60.2126 43.2496C59.6108 41.7971 59.4533 40.1989 59.7599 38.6569C60.0666 37.1149 60.8236 35.6985 61.9353 34.5868C63.047 33.4751 64.4634 32.7181 66.0054 32.4114C67.5474 32.1048 69.1457 32.2623 70.5981 32.8641C72.0505 33.4659 73.2919 34.4849 74.1651 35.7923C75.0384 37.0996 75.5043 38.6366 75.504 40.2088C75.504 42.3164 74.6667 44.3376 73.1764 45.8279C71.6861 47.3182 69.6649 48.1554 67.5573 48.1554Z" fill="white"/>
<path d="M67.794 70.8722C50.754 70.8722 36.8906 57.0088 36.8906 39.9672C36.8906 22.9255 50.754 9.06384 67.794 9.06384C72.9506 9.06287 78.0257 10.3514 82.5573 12.8122L82.9273 13.0122L82.7923 13.4122C82.3143 14.8191 82.2542 16.3345 82.6193 17.7749C82.9845 19.2152 83.7592 20.5189 84.8498 21.5282C85.9404 22.5375 87.3001 23.2092 88.7644 23.4619C90.2287 23.7146 91.7348 23.5375 93.1006 22.9522L93.4873 22.7855L93.7623 23.2072L93.824 23.3022L94.0223 23.6088L93.7906 23.8905C93.1383 24.6857 92.7133 25.6426 92.5607 26.6598C92.4081 27.677 92.5336 28.7165 92.9238 29.6681C93.314 30.6197 93.9545 31.4481 94.7772 32.0653C95.6 32.6825 96.5745 33.0655 97.5973 33.1738L97.959 33.2122L98.114 33.9505L97.8756 34.1422C97.1799 34.7011 96.625 35.4156 96.2558 36.2281C95.8866 37.0406 95.7132 37.9284 95.7497 38.8202C95.7862 39.7119 96.0315 40.5826 96.4658 41.3622C96.9002 42.1418 97.5115 42.8086 98.2506 43.3088L98.5023 43.4755L98.4656 43.7772C96.5656 59.2239 83.3806 70.8722 67.794 70.8722ZM67.794 10.0638C51.3056 10.0638 37.8906 23.4788 37.8906 39.9672C37.8906 56.4555 51.3056 69.8722 67.794 69.8722C82.7773 69.8722 95.4606 58.7472 97.4356 43.9488C96.6813 43.3844 96.0545 42.6674 95.596 41.8444C95.1376 41.0214 94.8578 40.111 94.7749 39.1726C94.692 38.2341 94.8079 37.2888 95.115 36.3982C95.4221 35.5076 95.9136 34.6917 96.5573 34.0038C95.5641 33.7531 94.6416 33.2781 93.8608 32.6151C93.0799 31.9521 92.4615 31.119 92.0529 30.1796C91.6444 29.2403 91.4567 28.2197 91.5043 27.1965C91.5519 26.1733 91.8334 25.1746 92.3273 24.2772C90.8422 24.6748 89.2781 24.6714 87.7948 24.2672C86.3114 23.8629 84.9618 23.0724 83.8838 21.9762C82.8058 20.88 82.0378 19.5175 81.6584 18.0276C81.279 16.5377 81.3016 14.9738 81.724 13.4955C77.4272 11.2401 72.6467 10.0624 67.794 10.0638ZM67.5573 48.6555C65.8862 48.6558 64.2526 48.1606 62.863 47.2324C61.4735 46.3042 60.3903 44.9848 59.7507 43.441C59.1111 41.8972 58.9436 40.1984 59.2695 38.5594C59.5955 36.9204 60.4001 35.4149 61.5817 34.2333C62.7634 33.0517 64.2689 32.247 65.9078 31.9211C67.5468 31.5952 69.2456 31.7626 70.7894 32.4023C72.3332 33.0419 73.6527 34.125 74.5809 35.5146C75.509 36.9042 76.0043 38.5378 76.004 40.2088C76.0013 42.4482 75.1105 44.5951 73.5271 46.1786C71.9436 47.7621 69.7967 48.6529 67.5573 48.6555ZM67.5573 32.7605C66.0841 32.7602 64.6439 33.1967 63.4188 34.015C62.1937 34.8332 61.2387 35.9964 60.6747 37.3573C60.1107 38.7183 59.963 40.216 60.2502 41.6609C60.5374 43.1059 61.2467 44.4332 62.2883 45.475C63.3299 46.5169 64.657 47.2264 66.1019 47.5139C67.5468 47.8015 69.0445 47.6541 70.4056 47.0904C71.7667 46.5267 72.9301 45.572 73.7486 44.3471C74.5671 43.1222 75.004 41.6821 75.004 40.2088C75.0022 38.2343 74.2171 36.341 72.821 34.9446C71.4249 33.5482 69.5319 32.7627 67.5573 32.7605Z" fill="#171718"/>
<path d="M90.1892 35.9939C87.7825 33.7056 88.6242 30.0939 88.6242 30.0939C89.2275 23.1106 83.6875 23.5939 83.6875 23.5939C80.6775 23.5939 79.3875 21.7773 78.7508 20.4623C75.8458 14.4623 72.4525 16.6456 70.5625 17.6923C67.7375 19.2589 65.0242 17.6923 65.0242 17.6923C61.6525 16.2489 59.9658 16.9706 59.9658 16.9706C57.7992 17.3323 56.7758 20.2489 55.9925 21.5456C54.7092 23.6706 51.7808 23.9356 50.2125 24.1956C45.1108 25.0373 46.3792 28.2356 46.9625 29.7339C48.4792 33.6806 45.7458 35.8323 44.3125 37.2006C40.4908 40.8456 44.7942 43.9423 44.7942 43.9423C47.9258 46.4723 46.9608 50.8073 46.9608 50.8073C46.1175 56.4656 49.3625 56.6639 51.1742 56.7073C55.0275 56.7989 56.5725 59.5173 57.3158 61.2823C58.6008 64.3356 61.2392 63.8239 62.7342 63.8106C67.7075 63.7689 68.7542 68.8689 68.7542 68.8689C70.4408 73.6856 70.1058 77.8239 69.7175 80.7889C69.3225 83.8123 70.8025 86.0873 72.3675 86.0873C76.3392 86.0873 75.1442 81.6923 74.6558 80.1873C73.8225 77.6523 73.7175 75.4189 73.6925 73.8056C73.6258 69.5906 74.7808 68.0689 76.3408 68.1389C78.5592 68.2489 78.2292 72.4573 77.9058 73.9189C77.0842 77.6373 78.6292 77.8923 78.6292 77.8923C79.8325 78.254 80.5758 77.3923 80.7958 76.9289C82.7458 72.8306 80.6392 68.5956 80.3142 65.8506C79.6942 60.589 83.4708 60.6839 85.2508 59.9506C90.0225 58.0039 88.3892 49.8423 88.3892 49.8423C88.2693 48.7473 88.4144 47.6395 88.8124 46.6124C89.2104 45.5853 89.8495 44.669 90.6758 43.9406C94.5242 39.6073 90.1892 35.9939 90.1892 35.9939ZM67.5558 46.5856C66.2703 46.5856 65.0136 46.2044 63.9446 45.4902C62.8757 44.7759 62.0426 43.7608 61.5506 42.5731C61.0587 41.3853 60.9299 40.0784 61.1807 38.8175C61.4315 37.5567 62.0506 36.3985 62.9597 35.4894C63.8687 34.5804 65.0269 33.9613 66.2878 33.7105C67.5486 33.4597 68.8556 33.5884 70.0433 34.0804C71.231 34.5724 72.2462 35.4055 72.9604 36.4744C73.6746 37.5433 74.0558 38.8 74.0558 40.0856C74.0558 41.8095 73.371 43.4628 72.152 44.6818C70.9331 45.9008 69.2798 46.5856 67.5558 46.5856Z" fill="#E0F2FE"/>
<path d="M72.3709 86.5853C71.6709 86.5853 70.9759 86.2336 70.4159 85.5953C69.4159 84.4603 68.9759 82.6386 69.2259 80.722C69.6493 77.4803 69.8693 73.5553 68.2859 69.032L68.2693 68.967C68.2293 68.777 67.2426 64.3086 62.7976 64.3086H62.7426C62.5759 64.3086 62.3976 64.3186 62.2076 64.327C60.6826 64.3903 58.1326 64.4936 56.8576 61.4736C56.1043 59.682 54.6909 57.2886 51.1659 57.2053C50.2109 57.182 48.4326 57.1403 47.3126 55.8086C46.3976 54.722 46.1226 53.0603 46.4693 50.7303V50.6953C46.4776 50.657 47.3193 46.637 44.4843 44.337C44.2926 44.1953 42.3843 42.7386 42.2359 40.5936C42.1443 39.2803 42.7259 38.017 43.9626 36.837C44.0626 36.7403 44.1709 36.6403 44.2809 36.537C45.7593 35.1586 47.7809 33.2703 46.4909 29.912L46.4759 29.8736C46.0943 28.8836 45.4576 27.227 46.2843 25.782C46.8926 24.722 48.1843 24.0203 50.1259 23.7003L50.5726 23.6303C52.1409 23.3886 54.5093 23.0236 55.5593 21.2853C55.7043 21.047 55.8643 20.7353 56.0359 20.4036C56.8109 18.9036 57.8693 16.842 59.8309 16.4836C60.1959 16.357 62.0126 15.8586 65.2159 17.232L65.2693 17.2586C65.3693 17.3153 67.7826 18.6586 70.3159 17.2586L70.5226 17.1436C71.6726 16.4986 73.4109 15.5253 75.2943 16.117C76.8043 16.592 78.0793 17.9503 79.1959 20.247C80.1209 22.1586 81.5826 23.0903 83.6643 23.097C83.9309 23.077 86.0459 22.987 87.5926 24.532C88.8193 25.7586 89.3326 27.647 89.1176 30.142L89.1059 30.212C89.1059 30.2453 88.3659 33.5686 90.5193 35.627C90.7159 35.7936 92.5676 37.437 92.7493 39.857C92.8626 41.387 92.2876 42.8736 91.0409 44.2786L91.0093 44.3136L90.9726 44.342C90.8743 44.4186 88.5576 46.2753 88.8743 49.7753C88.9959 50.397 90.4376 58.377 85.4376 60.4236C85.0698 60.5636 84.6941 60.6821 84.3126 60.7786C82.4526 61.292 80.3443 61.8753 80.8126 65.802C80.9313 66.5953 81.0983 67.3806 81.3126 68.1536C81.9609 70.7386 82.7693 73.957 81.2493 77.1536C80.9543 77.7736 80.0043 78.8203 78.5076 78.387C78.1439 78.2865 77.8315 78.0526 77.6326 77.732C77.0943 76.9353 77.0226 75.6203 77.4193 73.8203C77.7176 72.472 77.8126 70.0253 77.0726 69.0553C76.9873 68.9333 76.8745 68.8329 76.7434 68.7623C76.6123 68.6917 76.4665 68.6527 76.3176 68.6486C76.1242 68.6324 75.9296 68.6586 75.7474 68.7254C75.5652 68.7922 75.3997 68.898 75.2626 69.0353C74.7493 69.5353 74.1459 70.762 74.1943 73.8003C74.2209 75.5403 74.3609 77.6336 75.1326 80.0353C75.6793 81.7153 76.1159 84.012 75.0959 85.417C74.5309 86.1903 73.6143 86.5853 72.3709 86.5853ZM69.2393 68.727C70.8826 73.437 70.6559 77.4986 70.2176 80.852C69.9659 82.7786 70.5426 84.2236 71.1659 84.9353C71.5343 85.3536 71.9626 85.5853 72.3709 85.5853C73.2893 85.5853 73.9159 85.337 74.2876 84.8236C74.8909 83.9903 74.8543 82.402 74.1826 80.3403C73.3626 77.8186 73.2243 75.6253 73.1959 73.8103C73.1526 71.0836 73.6143 69.2336 74.5693 68.3103C74.8053 68.0785 75.0877 67.8993 75.3979 67.7844C75.7082 67.6695 76.0392 67.6215 76.3693 67.6436C76.6631 67.6557 76.9505 67.7338 77.2102 67.872C77.4698 68.0102 77.6951 68.205 77.8693 68.442C78.9909 69.912 78.6309 72.9736 78.3976 74.0303C77.8476 76.5303 78.4343 77.302 78.7309 77.4036H78.7793V77.4153C79.8526 77.737 80.3309 76.7586 80.3509 76.7153C81.7176 73.8436 80.9576 70.8186 80.3509 68.382C80.1248 67.5723 79.9479 66.7497 79.8209 65.9186C79.2576 61.1386 82.1443 60.3403 84.0526 59.8136C84.3956 59.7258 84.7339 59.6201 85.0659 59.497C89.3993 57.7236 87.9109 50.0203 87.8993 49.942V49.892C87.5376 46.0286 89.9776 43.877 90.3393 43.5803C91.3793 42.3986 91.8609 41.1736 91.7709 39.9386C91.6193 37.862 89.8993 36.3953 89.8826 36.3803L89.8593 36.3603C87.3793 34.0053 88.0509 30.452 88.1426 30.027C88.3243 27.8603 87.9093 26.2553 86.9109 25.2503C85.6293 23.962 83.7626 24.097 83.7443 24.0986H83.7026C81.2243 24.0986 79.4126 22.9503 78.3159 20.6853C77.3409 18.6703 76.2293 17.4553 75.0143 17.0736C73.5426 16.6103 72.0909 17.4236 71.0309 18.017L70.8209 18.1353C67.9076 19.7503 65.1543 18.3286 64.8209 18.147C61.7509 16.837 60.1909 17.4303 60.1759 17.437L60.1259 17.457L60.0676 17.4686C58.5676 17.7186 57.6326 19.5386 56.9476 20.8686C56.7693 21.2153 56.6009 21.5353 56.4476 21.8103C55.1543 23.9486 52.4009 24.372 50.7559 24.6253C50.6026 24.6486 50.4576 24.6703 50.3209 24.6936C48.6909 24.962 47.6343 25.4986 47.1843 26.2853C46.5926 27.317 47.1026 28.6436 47.4409 29.522L47.4559 29.5603C48.9876 33.547 46.4893 35.8803 44.9959 37.2736L44.6843 37.567C43.6743 38.5303 43.1976 39.5253 43.2643 40.5253C43.3809 42.2653 45.0976 43.5253 45.1143 43.542L45.1359 43.5586C48.3943 46.192 47.5593 50.532 47.4809 50.9003C47.1859 52.9003 47.3959 54.3303 48.1026 55.172C48.8693 56.0803 50.1109 56.1853 51.2143 56.212C54.2976 56.2853 56.4526 57.8786 57.8043 61.0936C58.8043 63.4786 60.6826 63.3986 62.1893 63.3336C62.3926 63.3253 62.5826 63.317 62.7593 63.3153H62.8226C67.8309 63.3086 69.1243 68.2386 69.2393 68.727ZM67.5576 47.0853C66.1731 47.0853 64.8198 46.6748 63.6686 45.9056C62.5175 45.1364 61.6203 44.0432 61.0904 42.7641C60.5606 41.485 60.422 40.0775 60.6921 38.7197C60.9622 37.3618 61.6289 36.1145 62.6078 35.1356C63.5868 34.1566 64.8341 33.4899 66.192 33.2198C67.5498 32.9497 68.9573 33.0883 70.2364 33.6182C71.5155 34.148 72.6087 35.0452 73.3779 36.1963C74.1471 37.3475 74.5576 38.7008 74.5576 40.0853C74.555 41.941 73.8166 43.72 72.5044 45.0321C71.1922 46.3443 69.4133 47.0827 67.5576 47.0853ZM67.5576 34.0853C66.3709 34.0853 65.2109 34.4372 64.2242 35.0965C63.2375 35.7558 62.4684 36.6928 62.0143 37.7892C61.5602 38.8856 61.4414 40.092 61.6729 41.2558C61.9044 42.4197 62.4758 43.4888 63.3149 44.3279C64.1541 45.1671 65.2232 45.7385 66.3871 45.97C67.5509 46.2015 68.7573 46.0827 69.8537 45.6286C70.9501 45.1745 71.8871 44.4054 72.5464 43.4187C73.2057 42.432 73.5576 41.272 73.5576 40.0853C73.5554 38.4947 72.9225 36.9698 71.7978 35.8451C70.6731 34.7204 69.1482 34.0875 67.5576 34.0853Z" fill="#171718"/>
<path d="M75.6197 29.6719C75.6197 29.2393 75.2694 28.8886 74.8372 28.8886C74.405 28.8886 74.0547 29.2393 74.0547 29.6719V32.8019C74.0547 33.2346 74.405 33.5853 74.8372 33.5853C75.2694 33.5853 75.6197 33.2346 75.6197 32.8019V29.6719Z" fill="white"/>
<path d="M74.8393 33.9189C74.5435 33.9189 74.2597 33.8015 74.0503 33.5925C73.8409 33.3834 73.7231 33.0998 73.7227 32.8039V29.6723C73.7227 29.3761 73.8403 29.0921 74.0497 28.8827C74.2591 28.6733 74.5432 28.5556 74.8393 28.5556C75.1355 28.5556 75.4195 28.6733 75.6289 28.8827C75.8383 29.0921 75.956 29.3761 75.956 29.6723V32.8039C75.9556 33.0998 75.8377 33.3834 75.6283 33.5925C75.419 33.8015 75.1352 33.9189 74.8393 33.9189ZM74.8393 29.2223C74.72 29.2223 74.6055 29.2697 74.5211 29.3541C74.4367 29.4385 74.3893 29.5529 74.3893 29.6723V32.8039C74.3893 32.9233 74.4367 33.0377 74.5211 33.1221C74.6055 33.2065 74.72 33.2539 74.8393 33.2539C74.9587 33.2539 75.0731 33.2065 75.1575 33.1221C75.2419 33.0377 75.2893 32.9233 75.2893 32.8039V29.6723C75.2893 29.5529 75.2419 29.4385 75.1575 29.3541C75.0731 29.2697 74.9587 29.2223 74.8393 29.2223Z" fill="#171718"/>
<path d="M64.1911 26.6705C63.8893 26.3605 63.3937 26.3537 63.084 26.6552C62.7744 26.9567 62.7681 27.4524 63.0699 27.7623L65.2536 30.0047C65.5555 30.3147 66.0511 30.3215 66.3607 30.02C66.6704 29.7185 66.6767 29.2228 66.3748 28.9129L64.1911 26.6705Z" fill="white"/>
<path d="M65.8174 30.5854H65.8007C65.6546 30.5844 65.5101 30.5544 65.3756 30.4972C65.2412 30.44 65.1194 30.3567 65.0174 30.2521L62.8324 28.0104C62.6257 27.7983 62.5118 27.5127 62.5157 27.2165C62.5196 26.9204 62.641 26.6379 62.8532 26.4313C63.0654 26.2246 63.3509 26.1107 63.6471 26.1146C63.9432 26.1185 64.2257 26.2399 64.4324 26.4521L66.6157 28.6954C66.7669 28.8529 66.8686 29.0513 66.9083 29.2659C66.9479 29.4806 66.9238 29.7022 66.8388 29.9033C66.7539 30.1044 66.6119 30.2762 66.4303 30.3974C66.2488 30.5187 66.0357 30.584 65.8174 30.5854ZM63.6324 26.7771C63.5154 26.7768 63.4029 26.8223 63.319 26.9038C63.2764 26.9449 63.2424 26.994 63.219 27.0484C63.1955 27.1027 63.183 27.1612 63.1822 27.2204C63.1814 27.2796 63.1924 27.3383 63.2144 27.3932C63.2365 27.4482 63.2692 27.4982 63.3107 27.5404L65.494 29.7821C65.5783 29.8622 65.6903 29.9066 65.8065 29.906C65.9228 29.9054 66.0343 29.8598 66.1177 29.7788C66.2011 29.6978 66.2499 29.5876 66.2539 29.4714C66.2578 29.3552 66.2167 29.242 66.139 29.1554L63.954 26.9188C63.913 26.8766 63.864 26.843 63.81 26.8199C63.7559 26.7967 63.6978 26.7844 63.639 26.7838L63.6324 26.7771Z" fill="#171718"/>
<path d="M55.999 29.0166L54.3127 31.6535C54.0796 32.018 54.1858 32.5022 54.5498 32.735C54.9139 32.9678 55.398 32.8611 55.6311 32.4967L57.3174 29.8598C57.5505 29.4953 57.4443 29.0111 57.0803 28.7783C56.7162 28.5455 56.2321 28.6522 55.999 29.0166Z" fill="white"/>
<path d="M54.9697 33.1903C54.7155 33.1904 54.4689 33.1035 54.2709 32.944C54.0729 32.7845 53.9354 32.562 53.8814 32.3136C53.85 32.1717 53.8471 32.025 53.8728 31.8819C53.8986 31.7389 53.9525 31.6024 54.0314 31.4803L55.7247 28.8353C55.8852 28.5869 56.1376 28.4124 56.4266 28.3499C56.7156 28.2874 57.0176 28.3421 57.2664 28.5019C57.5147 28.6624 57.6893 28.9149 57.7518 29.2039C57.8143 29.4929 57.7596 29.7949 57.5997 30.0436L55.913 32.6803C55.8113 32.8377 55.6716 32.967 55.5067 33.0561C55.3418 33.1453 55.1571 33.1914 54.9697 33.1903ZM56.658 28.9886C56.5826 28.988 56.5083 29.0067 56.4421 29.0429C56.3759 29.079 56.32 29.1315 56.2797 29.1953L54.593 31.8319C54.5291 31.9326 54.5077 32.0545 54.5333 32.1709C54.5589 32.2874 54.6295 32.389 54.7297 32.4536C54.8301 32.5174 54.9517 32.5389 55.0679 32.5133C55.1841 32.4877 55.2854 32.4171 55.3497 32.317L57.0364 29.6786C57.1002 29.5782 57.1216 29.4566 57.096 29.3404C57.0704 29.2242 56.9998 29.1229 56.8997 29.0586C56.8276 29.0124 56.7437 28.988 56.658 28.9886Z" fill="#171718"/>
<path d="M57.6945 41.6056L54.7926 42.7787C54.3916 42.9408 54.1977 43.397 54.3597 43.7977C54.5216 44.1984 54.9781 44.3917 55.3792 44.2296L58.281 43.0566C58.6821 42.8944 58.876 42.4382 58.714 42.0375C58.5521 41.6369 58.0956 41.4435 57.6945 41.6056Z" fill="white"/>
<path d="M55.0837 44.6207C54.9337 44.6204 54.7853 44.5904 54.647 44.5324C54.4442 44.4458 54.2716 44.3012 54.1509 44.1166C54.0302 43.9321 53.9668 43.716 53.9688 43.4955C53.9708 43.275 54.038 43.06 54.1619 42.8776C54.2859 42.6953 54.461 42.5537 54.6654 42.4707L57.567 41.3041C57.8413 41.1931 58.1484 41.1956 58.4209 41.3109C58.6934 41.4262 58.909 41.6449 59.0204 41.9191C59.1308 42.1936 59.1279 42.5007 59.0123 42.7731C58.8967 43.0455 58.6779 43.261 58.4037 43.3724L55.502 44.5391C55.3691 44.5929 55.2271 44.6206 55.0837 44.6207ZM57.9854 41.8824C57.9283 41.8825 57.8718 41.8932 57.8187 41.9141L54.917 43.0807C54.8066 43.1255 54.7185 43.2122 54.6719 43.3219C54.6254 43.4316 54.6242 43.5552 54.6687 43.6657C54.6907 43.7205 54.7233 43.7705 54.7646 43.8126C54.806 43.8548 54.8552 43.8884 54.9096 43.9115C54.9639 43.9345 55.0223 43.9467 55.0814 43.9471C55.1404 43.9476 55.199 43.9363 55.2537 43.9141L58.1554 42.7474C58.2102 42.7254 58.2601 42.6928 58.3023 42.6515C58.3444 42.6101 58.378 42.5609 58.4011 42.5065C58.4242 42.4522 58.4363 42.3938 58.4367 42.3347C58.4372 42.2757 58.4259 42.2171 58.4037 42.1624C58.37 42.0792 58.3121 42.0081 58.2375 41.9582C58.163 41.9082 58.0751 41.8819 57.9854 41.8824Z" fill="#171718"/>
<path d="M55.2746 50.4986L52.7679 52.3731C52.4215 52.6322 52.3504 53.1228 52.6093 53.4689C52.8681 53.815 53.3587 53.8855 53.7052 53.6264L56.2118 51.7519C56.5583 51.4928 56.6293 51.0022 56.3705 50.6561C56.1117 50.31 55.621 50.2395 55.2746 50.4986Z" fill="white"/>
<path d="M53.236 54.122C53.1802 54.1225 53.1245 54.1186 53.0693 54.1104C52.9244 54.0901 52.7849 54.0413 52.659 53.9666C52.5331 53.8919 52.4233 53.7929 52.336 53.6754C52.2481 53.558 52.1842 53.4244 52.1479 53.2823C52.1117 53.1401 52.1038 52.9923 52.1247 52.8471C52.1456 52.7019 52.1949 52.5623 52.2697 52.4362C52.3446 52.31 52.4436 52.1999 52.561 52.112L55.061 50.237C55.2985 50.0601 55.5965 49.9846 55.8896 50.0271C56.1826 50.0696 56.4469 50.2266 56.6243 50.4637C56.8012 50.7009 56.8766 50.9986 56.8341 51.2914C56.7916 51.5842 56.6346 51.8482 56.3977 52.0254L53.8977 53.9004C53.7066 54.0434 53.4746 54.1211 53.236 54.122ZM55.736 50.682C55.6392 50.6823 55.5451 50.7138 55.4677 50.772L52.9677 52.647C52.9201 52.682 52.8799 52.7261 52.8496 52.7767C52.8192 52.8274 52.7993 52.8836 52.791 52.942C52.7741 53.06 52.8047 53.1799 52.876 53.2754C52.9476 53.3703 53.0537 53.4331 53.1714 53.4503C53.289 53.4674 53.4086 53.4375 53.5043 53.367L56.0127 51.492C56.1078 51.4202 56.1706 51.3136 56.1875 51.1956C56.2043 51.0776 56.1739 50.9577 56.1027 50.862C56.0301 50.7699 55.9241 50.71 55.8077 50.6954L55.736 50.682Z" fill="#171718"/>
<path d="M66.1312 50.2148C66.1037 49.783 65.7317 49.4553 65.3004 49.4828C64.8692 49.5104 64.5419 49.8827 64.5694 50.3144L64.7687 53.438C64.7962 53.8698 65.1682 54.1975 65.5994 54.17C66.0307 54.1425 66.358 53.7702 66.3305 53.3384L66.1312 50.2148Z" fill="white"/>
<path d="M65.5427 54.5072C65.2594 54.5066 64.987 54.3982 64.7806 54.2042C64.5742 54.0102 64.4492 53.7449 64.4311 53.4622L64.2327 50.3372C64.2139 50.042 64.3132 49.7513 64.5087 49.5292C64.7042 49.3072 64.9799 49.1719 65.2752 49.1531C65.5705 49.1343 65.8611 49.2336 66.0832 49.4291C66.3053 49.6246 66.4406 49.9003 66.4594 50.1956L66.6594 53.3189C66.6689 53.4652 66.6493 53.612 66.6018 53.7507C66.5543 53.8894 66.4799 54.0174 66.3827 54.1272C66.2865 54.238 66.1691 54.3283 66.0374 54.393C65.9058 54.4577 65.7625 54.4954 65.6161 54.5039L65.5427 54.5072ZM65.3461 49.8172H65.3177C65.1984 49.8249 65.087 49.8794 65.0077 49.9689C64.9678 50.0142 64.9375 50.067 64.9186 50.1243C64.8997 50.1816 64.8926 50.2421 64.8977 50.3022L65.0961 53.4189C65.0999 53.4779 65.1153 53.5356 65.1414 53.5886C65.1675 53.6416 65.2038 53.689 65.2482 53.728C65.2926 53.767 65.3443 53.7969 65.4003 53.8159C65.4562 53.8349 65.5154 53.8427 65.5744 53.8389C65.6931 53.8308 65.8038 53.7763 65.8827 53.6872C65.9227 53.642 65.9531 53.5892 65.972 53.5319C65.9909 53.4746 65.9979 53.414 65.9927 53.3539L65.7944 50.2289C65.7872 50.115 65.7368 50.0081 65.6535 49.93C65.5702 49.852 65.4602 49.8087 65.3461 49.8089V49.8172Z" fill="#171718"/>
<path d="M61.3346 56.5138C60.995 56.2457 60.5027 56.3034 60.2349 56.6426C59.9671 56.9818 60.0253 57.4741 60.3648 57.7422L62.8215 59.6816C63.1611 59.9497 63.6534 59.8921 63.9212 59.5529C64.189 59.2137 64.1308 58.7214 63.7913 58.4533L61.3346 56.5138Z" fill="white"/>
<path d="M63.3034 60.1757C63.0529 60.1758 62.8097 60.0912 62.6134 59.9357L60.1567 57.9957C60.0413 57.9053 59.9448 57.7929 59.873 57.6651C59.8012 57.5372 59.7553 57.3965 59.7381 57.2509C59.7209 57.1052 59.7327 56.9576 59.7728 56.8166C59.8129 56.6756 59.8805 56.5438 59.9717 56.429C60.1551 56.197 60.4231 56.0472 60.7168 56.0125C61.0105 55.9778 61.306 56.0611 61.5384 56.244L63.9967 58.184C64.1783 58.328 64.3106 58.5249 64.3753 58.7475C64.4399 58.9701 64.4337 59.2073 64.3575 59.4261C64.2813 59.645 64.1389 59.8348 63.95 59.9691C63.7611 60.1034 63.5351 60.1756 63.3034 60.1757ZM60.8484 56.6757H60.795C60.7365 56.6824 60.6799 56.7006 60.6284 56.7292C60.577 56.7578 60.5316 56.7962 60.495 56.8423C60.4215 56.936 60.388 57.055 60.4017 57.1733C60.4154 57.2916 60.4753 57.3997 60.5684 57.474L63.0267 59.419C63.073 59.4556 63.126 59.4826 63.1828 59.4987C63.2395 59.5148 63.2989 59.5195 63.3575 59.5126C63.4161 59.5057 63.4727 59.4873 63.5242 59.4586C63.5757 59.4298 63.621 59.3911 63.6575 59.3448C63.6941 59.2986 63.7211 59.2455 63.7372 59.1888C63.7533 59.132 63.758 59.0726 63.7511 59.0141C63.7442 58.9555 63.7259 58.8988 63.6971 58.8474C63.6683 58.7959 63.6297 58.7506 63.5834 58.714L61.1267 56.774C61.0483 56.709 60.9502 56.6725 60.8484 56.6707V56.6757Z" fill="#171718"/>
<path d="M79.8506 50.11L77.9674 52.6101C77.7071 52.9557 77.7759 53.4466 78.1211 53.7066C78.4663 53.9666 78.9571 53.8973 79.2174 53.5517L81.1007 51.0517C81.361 50.7061 81.2922 50.2152 80.947 49.9552C80.6018 49.6952 80.1109 49.7645 79.8506 50.11Z" fill="white"/>
<path d="M78.5912 54.1953C78.3837 54.1952 78.1803 54.1372 78.004 54.0279C77.8276 53.9185 77.6853 53.7621 77.593 53.5763C77.5007 53.3905 77.462 53.1826 77.4815 52.976C77.5009 52.7694 77.5775 52.5723 77.7028 52.4069L79.5862 49.9069C79.7685 49.6831 80.0304 49.5386 80.317 49.5037C80.6036 49.4689 80.8925 49.5463 81.1232 49.7199C81.3539 49.8934 81.5085 50.1496 81.5544 50.4346C81.6003 50.7196 81.534 51.0114 81.3695 51.2486L79.4845 53.7486C79.3969 53.866 79.2868 53.9648 79.1606 54.0392C79.0344 54.1136 78.8946 54.1621 78.7495 54.1819C78.6971 54.1897 78.6442 54.1941 78.5912 54.1953ZM80.4778 50.1286H80.4145C80.2965 50.1458 80.19 50.2086 80.1178 50.3036L78.2345 52.8036C78.1987 52.8507 78.1726 52.9044 78.1577 52.9616C78.1429 53.0188 78.1395 53.0784 78.1478 53.1369C78.1648 53.255 78.2277 53.3616 78.323 53.4334C78.4182 53.5052 78.538 53.5364 78.6562 53.5203C78.7732 53.5062 78.8799 53.4463 78.9528 53.3536L80.8362 50.8536C80.9079 50.7583 80.939 50.6385 80.9224 50.5203C80.9058 50.4022 80.843 50.2955 80.7478 50.2236C80.6709 50.1628 80.5759 50.1294 80.4778 50.1286Z" fill="#171718"/>
<path d="M76.6878 43.2196L75.6066 46.1569C75.4571 46.5629 75.6647 47.0131 76.0703 47.1624C76.4758 47.3116 76.9257 47.1036 77.0752 46.6976L78.1565 43.7603C78.3059 43.3543 78.0983 42.9041 77.6928 42.7548C77.2872 42.6056 76.8373 42.8136 76.6878 43.2196Z" fill="white"/>
<path d="M76.3467 47.5506C76.1671 47.5505 75.9901 47.5071 75.8309 47.4241C75.6716 47.341 75.5347 47.2208 75.4319 47.0736C75.329 46.9264 75.2631 46.7565 75.2399 46.5784C75.2166 46.4003 75.2367 46.2193 75.2983 46.0506L76.38 43.1122C76.4268 42.9699 76.5019 42.8384 76.6006 42.7257C76.6993 42.6129 76.8197 42.5212 76.9547 42.456C77.0896 42.3908 77.2363 42.3534 77.3859 42.346C77.5356 42.3387 77.6853 42.3615 77.8259 42.4132C77.9666 42.4649 78.0954 42.5444 78.2047 42.6469C78.314 42.7495 78.4015 42.873 78.4621 43.01C78.5227 43.1471 78.555 43.295 78.5572 43.4448C78.5595 43.5947 78.5315 43.7434 78.475 43.8822L77.3917 46.8189C77.3127 47.0331 77.1701 47.218 76.983 47.3488C76.7959 47.4796 76.5733 47.55 76.345 47.5506H76.3467ZM77.4267 43.0506C77.3622 43.0512 77.2986 43.0654 77.24 43.0922C77.1863 43.1169 77.138 43.152 77.0979 43.1955C77.0579 43.239 77.0269 43.29 77.0067 43.3456L75.925 46.2839C75.9006 46.3401 75.8879 46.4007 75.8877 46.462C75.8875 46.5233 75.8999 46.5839 75.924 46.6403C75.9481 46.6966 75.9835 46.7474 76.0279 46.7896C76.0724 46.8318 76.1249 46.8645 76.1825 46.8856C76.24 46.9068 76.3012 46.9159 76.3624 46.9126C76.4236 46.9092 76.4834 46.8934 76.5383 46.8661C76.5931 46.8388 76.6418 46.8005 76.6814 46.7537C76.721 46.7069 76.7505 46.6525 76.7683 46.5939L77.85 43.6556C77.8904 43.5437 77.8851 43.4204 77.8352 43.3124C77.7853 43.2045 77.6948 43.1205 77.5833 43.0789C77.5334 43.0588 77.4804 43.0475 77.4267 43.0456V43.0506Z" fill="#171718"/>
<path d="M83.4993 39.6642C83.1228 39.4512 82.645 39.5834 82.4322 39.9595C82.2194 40.3356 82.3521 40.8133 82.7287 41.0263L85.4529 42.5676C85.8294 42.7806 86.3072 42.6484 86.52 42.2723C86.7328 41.8961 86.6 41.4185 86.2235 41.2055L83.4993 39.6642Z" fill="white"/>
<path d="M85.8343 42.9988C85.6421 42.9989 85.4531 42.9489 85.286 42.8538L82.5593 41.3121C82.3017 41.1662 82.1125 40.924 82.0331 40.6388C81.9537 40.3535 81.9908 40.0484 82.136 39.7904C82.2822 39.5331 82.5245 39.3442 82.8097 39.2652C83.0949 39.1861 83.3999 39.2234 83.6577 39.3688L86.3927 40.9188C86.65 41.065 86.8389 41.3072 86.9179 41.5925C86.997 41.8777 86.9597 42.1826 86.8143 42.4404C86.7151 42.612 86.5721 42.7541 86.3999 42.8522C86.2277 42.9503 86.0325 43.0009 85.8343 42.9988ZM82.726 40.1188C82.6965 40.1699 82.6775 40.2264 82.6699 40.285C82.6623 40.3436 82.6664 40.4031 82.6819 40.4601C82.6974 40.5171 82.724 40.5704 82.7601 40.6171C82.7963 40.6638 82.8413 40.7029 82.8927 40.7321L85.616 42.2738C85.7199 42.3325 85.8428 42.3477 85.9579 42.3158C86.0729 42.2839 86.1705 42.2076 86.2293 42.1038C86.2881 41.9999 86.3032 41.8769 86.2714 41.7619C86.2395 41.6469 86.1632 41.5492 86.0593 41.4904L83.3343 39.9488C83.2311 39.8898 83.1087 39.8742 82.994 39.9054C82.8793 39.9367 82.7817 40.0122 82.7227 40.1154L82.726 40.1188Z" fill="#171718"/>
<path d="M75.2588 57.4448C75.0011 57.0973 74.5108 57.0242 74.1637 57.2817C73.8166 57.5391 73.7441 58.0295 74.0018 58.377L75.8662 60.8911C76.1239 61.2386 76.6142 61.3116 76.9613 61.0542C77.3085 60.7968 77.3809 60.3064 77.1232 59.9589L75.2588 57.4448Z" fill="white"/>
<path d="M76.494 61.5472C76.3196 61.5458 76.1479 61.5044 75.9921 61.4261C75.8364 61.3478 75.7007 61.2347 75.5956 61.0955L73.7306 58.5855C73.5548 58.3475 73.4804 58.0495 73.5238 57.7568C73.5673 57.4641 73.7249 57.2005 73.9623 57.0238C74.2004 56.8484 74.4983 56.7743 74.7909 56.8177C75.0835 56.8611 75.347 57.0185 75.524 57.2555L77.389 59.7655C77.512 59.9315 77.5866 60.1285 77.6044 60.3344C77.6222 60.5403 77.5825 60.7471 77.4897 60.9318C77.397 61.1164 77.2548 61.2718 77.0789 61.3804C76.9031 61.4891 76.7006 61.5468 76.494 61.5472ZM74.359 57.5555C74.2634 57.6266 74.2 57.7326 74.1825 57.8504C74.165 57.9682 74.1949 58.0881 74.2656 58.1839L76.1306 60.6988C76.1641 60.7503 76.2078 60.7943 76.259 60.8283C76.3101 60.8622 76.3677 60.8853 76.4281 60.8962C76.4885 60.907 76.5505 60.9054 76.6103 60.8914C76.6701 60.8774 76.7264 60.8513 76.7757 60.8147C76.825 60.7782 76.8663 60.7319 76.8971 60.6788C76.9278 60.6257 76.9474 60.5668 76.9546 60.5058C76.9618 60.4449 76.9564 60.3831 76.9388 60.3243C76.9212 60.2654 76.8918 60.2109 76.8523 60.1638L74.9889 57.6488C74.9537 57.6013 74.9095 57.5612 74.8588 57.5308C74.808 57.5004 74.7518 57.4802 74.6933 57.4716C74.6348 57.4629 74.5751 57.4658 74.5178 57.4802C74.4604 57.4947 74.4064 57.5202 74.359 57.5555Z" fill="#171718"/>
<path d="M50.4151 38.3253C50.4049 37.8928 50.0464 37.5504 49.6143 37.5606C49.1823 37.5708 48.8403 37.9296 48.8505 38.3621L48.9242 41.4913C48.9344 41.9238 49.2929 42.2661 49.725 42.256C50.157 42.2458 50.499 41.8869 50.4888 41.4544L50.4151 38.3253Z" fill="white"/>
<path d="M49.7082 42.5855C49.4168 42.5856 49.1369 42.4716 48.9285 42.2678C48.7201 42.0641 48.5997 41.7869 48.5932 41.4955L48.5199 38.3655C48.5163 38.2191 48.5417 38.0734 48.5944 37.9368C48.6472 37.8001 48.7264 37.6752 48.8275 37.5692C48.9285 37.4632 49.0495 37.3781 49.1835 37.3189C49.3174 37.2596 49.4618 37.2273 49.6082 37.2239C49.904 37.2171 50.1904 37.3279 50.4046 37.5319C50.6189 37.7359 50.7437 38.0164 50.7515 38.3122L50.8249 41.4422C50.8316 41.7383 50.7206 42.0249 50.5162 42.2392C50.3119 42.4536 50.0309 42.5781 49.7349 42.5855H49.7082ZM49.6249 37.8905C49.5658 37.8918 49.5076 37.9048 49.4536 37.9286C49.3996 37.9524 49.3509 37.9867 49.3101 38.0295C49.2694 38.0722 49.2375 38.1226 49.2163 38.1777C49.1951 38.2328 49.185 38.2915 49.1865 38.3505L49.2599 41.4789C49.2624 41.598 49.3122 41.7113 49.3982 41.7939C49.4624 41.8549 49.5433 41.8957 49.6306 41.911C49.7179 41.9263 49.8078 41.9154 49.889 41.8798C49.9702 41.8442 50.039 41.7854 50.0869 41.7108C50.1348 41.6362 50.1596 41.5492 50.1582 41.4605L50.0849 38.3305C50.0817 38.2111 50.0313 38.0979 49.9449 38.0155C49.9027 37.9744 49.8525 37.9422 49.7975 37.921C49.7425 37.8998 49.6838 37.89 49.6249 37.8922V37.8905Z" fill="#171718"/>
<path d="M69.6359 22.0179C69.2756 21.7784 68.7895 21.876 68.5503 22.2359C68.3111 22.5959 68.4093 23.0818 68.7696 23.3212L71.3763 25.0538C71.7366 25.2933 72.2226 25.1956 72.4618 24.8357C72.701 24.4758 72.6029 23.9899 72.2426 23.7504L69.6359 22.0179Z" fill="white"/>
<path d="M71.8077 25.5138C71.5887 25.5141 71.3745 25.4491 71.1927 25.3272L68.5843 23.5938C68.4622 23.5128 68.3573 23.4085 68.2756 23.2869C68.1938 23.1653 68.1369 23.0287 68.1079 22.8851C68.079 22.7414 68.0786 22.5935 68.1069 22.4497C68.1352 22.306 68.1915 22.1692 68.2727 22.0472C68.3537 21.9251 68.458 21.8202 68.5796 21.7384C68.7012 21.6567 68.8377 21.5997 68.9814 21.5707C69.125 21.5418 69.273 21.5414 69.4168 21.5697C69.5605 21.598 69.6973 21.6543 69.8193 21.7355L72.4277 23.4688C72.6112 23.5912 72.7543 23.7651 72.8391 23.9687C72.9239 24.1722 72.9465 24.3964 72.904 24.6128C72.8616 24.8292 72.7561 25.0282 72.6007 25.1847C72.4453 25.3412 72.2471 25.4482 72.031 25.4922C71.9574 25.5067 71.8826 25.514 71.8077 25.5138ZM69.2027 22.2155C69.1285 22.2154 69.0555 22.2335 68.9901 22.2684C68.9246 22.3033 68.8688 22.3538 68.8277 22.4155C68.7953 22.464 68.7729 22.5184 68.7617 22.5756C68.7505 22.6329 68.7509 22.6917 68.7627 22.7488C68.7742 22.8066 68.7971 22.8616 68.83 22.9105C68.8629 22.9594 68.9052 23.0013 68.9543 23.0338L71.5593 24.7722C71.6573 24.8374 71.7771 24.8614 71.8927 24.8388C71.9801 24.822 72.0607 24.7796 72.124 24.717C72.1874 24.6544 72.2307 24.5744 72.2486 24.4871C72.2664 24.3998 72.258 24.3092 72.2243 24.2267C72.1906 24.1442 72.1332 24.0736 72.0593 24.0238L69.451 22.2905C69.3773 22.2417 69.291 22.2157 69.2027 22.2155Z" fill="#171718"/>
<path d="M82.4743 28.5187L80.9889 31.2738C80.7836 31.6546 80.9256 32.1296 81.306 32.3347C81.6864 32.5397 82.1612 32.3973 82.3665 32.0165L83.8518 29.2614C84.0571 28.8806 83.9152 28.4056 83.5348 28.2005C83.1544 27.9954 82.6796 28.1379 82.4743 28.5187Z" fill="white"/>
<path d="M81.6813 32.7688C81.4966 32.7689 81.3149 32.7225 81.1529 32.6338C80.8925 32.4933 80.6985 32.2552 80.6135 31.9717C80.5285 31.6883 80.5594 31.3827 80.6996 31.1221L82.1863 28.3671C82.3267 28.1067 82.5649 27.9126 82.8483 27.8276C83.1317 27.7426 83.4373 27.7736 83.6979 27.9138C83.958 28.0546 84.1518 28.2927 84.2367 28.576C84.3217 28.8593 84.291 29.1647 84.1513 29.4254L82.6646 32.1821C82.5948 32.3116 82.4999 32.4259 82.3854 32.5183C82.2709 32.6107 82.1392 32.6794 81.9979 32.7204C81.8954 32.7522 81.7886 32.7685 81.6813 32.7688ZM83.1696 28.4471C83.1256 28.4475 83.0819 28.4536 83.0396 28.4654C82.9829 28.4823 82.9301 28.5102 82.8843 28.5477C82.8385 28.5852 82.8006 28.6315 82.7729 28.6838L81.2863 31.4388C81.2301 31.5438 81.2179 31.6668 81.2522 31.7808C81.2866 31.8948 81.3648 31.9906 81.4696 32.0471C81.5744 32.1034 81.6973 32.1159 81.8113 32.0818C81.9253 32.0478 82.0211 31.97 82.0779 31.8654L83.5579 29.1104C83.6142 29.0052 83.6264 28.8819 83.5921 28.7676C83.5577 28.6533 83.4796 28.5573 83.3746 28.5004C83.3114 28.4667 83.2412 28.4484 83.1696 28.4471ZM91.1563 13.5971L94.0446 15.0421L93.2029 17.2104L90.6746 14.6804L91.1563 13.5971ZM100.53 20.1454L101.733 20.9888L101.131 22.0721L99.3246 21.4704L100.53 20.1454ZM102.233 32.6221V34.5488L104.16 33.5854L102.233 32.6221ZM105.243 24.3138C105.243 24.3138 107.725 24.9188 107.17 25.3971C105.623 26.7338 104.761 26.1204 105.243 24.3138Z" fill="#171718"/>
</svg>
