<svg width="126" height="122" viewBox="0 0 126 122" fill="none" xmlns="http://www.w3.org/2000/svg">
<path d="M104.622 85.0076L102.912 84.6359L102.524 82.9276C102.517 82.8981 102.501 82.8718 102.477 82.853C102.453 82.8341 102.424 82.8239 102.394 82.8239C102.364 82.8239 102.334 82.8341 102.311 82.853C102.287 82.8718 102.271 82.8981 102.264 82.9276L101.874 84.6426L100.162 85.0492C100.132 85.0551 100.105 85.0712 100.086 85.0948C100.067 85.1184 100.056 85.1479 100.056 85.1784C100.056 85.2089 100.067 85.2384 100.086 85.262C100.105 85.2855 100.132 85.3017 100.162 85.3076L101.872 85.6809L102.26 87.3876C102.267 87.417 102.284 87.4433 102.307 87.4622C102.331 87.481 102.36 87.4913 102.39 87.4913C102.421 87.4913 102.45 87.481 102.474 87.4622C102.497 87.4433 102.514 87.417 102.52 87.3876L102.91 85.6726L104.622 85.2659C104.652 85.26 104.679 85.2439 104.698 85.2203C104.718 85.1968 104.728 85.1672 104.728 85.1367C104.728 85.1062 104.718 85.0767 104.698 85.0531C104.679 85.0296 104.652 85.0135 104.622 85.0076ZM12.7888 56.5076L11.0788 56.1359L10.6905 54.4276C10.6837 54.3981 10.6672 54.3718 10.6436 54.353C10.62 54.3341 10.5907 54.3239 10.5605 54.3239C10.5302 54.3239 10.5009 54.3341 10.4773 54.353C10.4537 54.3718 10.4372 54.3981 10.4305 54.4276L10.0405 56.1426L8.32879 56.5492C8.29888 56.5551 8.27195 56.5713 8.25259 56.5948C8.23324 56.6184 8.22266 56.6479 8.22266 56.6784C8.22266 56.7089 8.23324 56.7384 8.25259 56.762C8.27195 56.7855 8.29888 56.8017 8.32879 56.8076L10.0388 57.1809L10.4271 58.8876C10.4338 58.917 10.4504 58.9433 10.474 58.9622C10.4976 58.981 10.5269 58.9913 10.5571 58.9913C10.5873 58.9913 10.6166 58.981 10.6403 58.9622C10.6639 58.9433 10.6804 58.917 10.6871 58.8876L11.0771 57.1726L12.7888 56.7659C12.8187 56.76 12.8456 56.7439 12.865 56.7203C12.8843 56.6968 12.8949 56.6672 12.8949 56.6367C12.8949 56.6062 12.8843 56.5767 12.865 56.5531C12.8456 56.5296 12.8187 56.5135 12.7888 56.5076ZM115.06 96.9342L113.944 96.6909L113.69 95.5776C113.685 95.5595 113.674 95.5435 113.659 95.5322C113.644 95.5208 113.626 95.5147 113.607 95.5147C113.588 95.5147 113.57 95.5208 113.555 95.5322C113.54 95.5435 113.529 95.5595 113.524 95.5776L113.269 96.6959L112.152 96.9609C112.133 96.9658 112.116 96.977 112.104 96.9927C112.092 97.0084 112.085 97.0277 112.085 97.0476C112.085 97.0672 112.092 97.0862 112.105 97.1014C112.117 97.1166 112.135 97.127 112.154 97.1309L113.27 97.3742L113.524 98.4892C113.53 98.5065 113.541 98.5214 113.556 98.532C113.571 98.5426 113.589 98.5483 113.607 98.5483C113.625 98.5483 113.643 98.5426 113.658 98.532C113.673 98.5214 113.684 98.5065 113.69 98.4892L113.944 97.3692L115.062 97.1042C115.081 97.0997 115.098 97.0888 115.11 97.0734C115.122 97.0579 115.129 97.0388 115.129 97.0192C115.129 96.9994 115.122 96.9801 115.11 96.9646C115.097 96.9492 115.08 96.9384 115.06 96.9342Z" fill="#171718"/>
<path d="M65.7539 6.9884L66.5233 6.34964L71.4599 12.2958L70.6905 12.9346L65.7539 6.9884Z" fill="#171718"/>
<path d="M82.5 10.3444L84.5655 0.508902L85.5441 0.714423L83.4787 10.5499L82.5 10.3444Z" fill="#171718"/>
<path d="M94.1562 18.5953L99.5811 14.8892L100.145 15.7149L94.7204 19.421L94.1562 18.5953Z" fill="#171718"/>
<path d="M61.1406 120.991C86.4077 120.991 106.891 118.883 106.891 116.283C106.891 113.682 86.4077 111.574 61.1406 111.574C35.8736 111.574 15.3906 113.682 15.3906 116.283C15.3906 118.883 35.8736 120.991 61.1406 120.991Z" fill="#E0F2FE"/>
<path d="M61.1406 121.491C48.904 121.491 37.3973 121.001 28.739 120.109C24.5156 119.674 21.194 119.168 18.8673 118.601C16.1173 117.934 14.8906 117.218 14.8906 116.283C14.8906 115.348 16.1173 114.633 18.8673 113.964C21.2006 113.398 24.5156 112.891 28.739 112.456C37.4056 111.564 48.9056 111.074 61.1406 111.074C73.3756 111.074 84.884 111.564 93.5423 112.456C97.7656 112.891 101.087 113.398 103.414 113.964C106.164 114.631 107.391 115.348 107.391 116.283C107.391 117.218 106.164 117.933 103.414 118.601C101.081 119.168 97.7656 119.674 93.5423 120.109C84.8906 121.001 73.3773 121.491 61.1406 121.491ZM61.1406 112.074C49.0106 112.074 37.5906 112.558 28.9823 113.436C16.174 114.743 15.8923 116.269 15.8906 116.283C15.889 116.296 16.174 117.823 28.9823 119.129C37.5906 120.008 49.0106 120.491 61.149 120.491C73.2873 120.491 84.699 120.008 93.3156 119.129C106.057 117.824 106.391 116.311 106.391 116.283C106.391 116.254 106.057 114.738 93.299 113.436C84.6906 112.558 73.2706 112.074 61.1406 112.074Z" fill="#171718"/>
<path d="M85.8897 22.0656L80.0064 27.3456L81.3897 34.4906L78.808 37.5839C81.8059 39.6395 84.1419 42.522 85.5317 45.8808C86.9215 49.2396 87.3054 52.9299 86.6365 56.5028C85.9677 60.0757 84.2749 63.3773 81.7643 66.0059C79.2536 68.6345 76.0332 70.4768 72.4947 71.3089L67.4297 78.1206L73.2897 100.777L94.7347 76.9039C98.2959 72.9423 100.925 68.2336 102.428 63.1232C103.932 58.0129 104.272 52.6307 103.423 47.3718C102.575 42.1128 100.56 37.1107 97.5251 32.7325C94.4907 28.3542 90.5144 24.7111 85.888 22.0706L85.8897 22.0656Z" fill="white"/>
<path d="M73.0473 101.807L66.8906 78.0158L72.2073 70.8658L72.3906 70.8241C75.8366 70.0155 78.9732 68.2224 81.4185 65.6633C83.8639 63.1042 85.5125 59.8893 86.1636 56.4101C86.8148 52.9309 86.4404 49.3375 85.0861 46.0672C83.7318 42.7969 81.4559 39.9909 78.5356 37.9908L78.084 37.6791L80.864 34.3458L79.4606 27.1575L85.824 21.4474L86.1373 21.6275C92.1395 25.0514 97.0352 30.1232 100.245 36.2427C103.455 42.3621 104.844 49.273 104.249 56.1575C103.597 63.9968 100.385 71.4041 95.1073 77.2374L73.0473 101.807ZM67.9806 78.2274L73.5573 99.7525L94.3723 76.5691C99.5044 70.8963 102.628 63.6927 103.261 56.0691C103.816 49.4384 102.487 42.7855 99.4245 36.878C96.3624 30.9704 91.6926 26.0488 85.954 22.6808L80.5573 27.5291L81.9406 34.6291L79.5473 37.4908C82.5134 39.6516 84.8003 42.615 86.1387 46.032C87.4771 49.449 87.8112 53.1772 87.1018 56.7778C86.3924 60.3783 84.6689 63.7011 82.1344 66.355C79.5998 69.0089 76.3597 70.8833 72.7956 71.7574L67.9806 78.2274Z" fill="#171718"/>
<path d="M70.556 27.824L72.556 34.824L70.2494 38.1274C67.5341 36.5931 64.479 35.7605 61.3607 35.7048C58.2425 35.6492 55.1596 36.3723 52.3913 37.8087C49.6231 39.2451 47.2568 41.3494 45.507 43.931C43.7572 46.5126 42.679 49.4899 42.3701 52.5933C42.0612 55.6967 42.5314 58.8282 43.738 61.704C44.9447 64.5799 46.8497 67.1093 49.2805 69.0632C51.7114 71.017 54.5912 72.3336 57.6593 72.8937C60.7273 73.4538 63.8866 73.2397 66.851 72.2707L62.3894 79.4907L70.171 101.562L61.056 113.657L32.546 75.9357C27.8637 69.7522 25.3354 62.2053 25.3477 54.4491C25.3477 34.7507 41.316 18.7824 61.0144 18.7824C66.1771 18.7753 71.2794 19.8935 75.966 22.059L70.556 27.824Z" fill="white"/>
<path d="M61.0573 114.491L60.6589 113.962L32.1489 76.2375C27.2889 69.8043 24.7179 61.9316 24.8443 53.8699C24.9707 45.8083 27.7872 38.02 32.8465 31.7423C37.9058 25.4646 44.9177 21.0575 52.7683 19.2209C60.619 17.3844 68.8583 18.2238 76.1773 21.6058L76.8056 21.8958L71.1156 27.9592L73.1039 34.9158L70.4006 38.7875L70.0039 38.5625C67.3611 37.0693 64.3875 36.2589 61.3525 36.2048C58.3175 36.1506 55.3169 36.8545 52.6225 38.2526C49.9281 39.6506 47.6251 41.6988 45.9219 44.2114C44.2187 46.7241 43.1693 49.622 42.8686 52.6425C42.5679 55.6631 43.0255 58.711 44.1998 61.5101C45.3742 64.3092 47.2283 66.7712 49.5942 68.673C51.9601 70.5748 54.763 71.8564 57.7491 72.4017C60.7353 72.947 63.8103 72.7387 66.6956 71.7958L67.9973 71.3675L62.9423 79.5508L70.7323 101.657L61.0573 114.491ZM61.0156 19.2858C41.6239 19.2858 25.8489 35.0608 25.8489 54.4525C25.8256 62.1016 28.3193 69.5459 32.9456 75.6375L61.0573 112.824L69.6123 101.472L61.8389 79.4308L65.7439 73.1125C62.7119 73.8791 59.5387 73.8955 56.4989 73.1601C53.459 72.4247 50.6442 70.9598 48.2978 68.892C45.9514 66.8242 44.1442 64.2159 43.0325 61.2926C41.9207 58.3694 41.538 55.2193 41.9173 52.1149C42.2966 49.0105 43.4266 46.0453 45.2096 43.4758C46.9925 40.9063 49.3746 38.8098 52.1499 37.3679C54.9251 35.926 58.0099 35.1819 61.1373 35.2001C64.2648 35.2184 67.3407 35.9983 70.0989 37.4725L72.0106 34.7325L69.9989 27.6892L75.1239 22.2275C70.6776 20.2738 65.8722 19.2707 61.0156 19.2825V19.2858Z" fill="#171718"/>
<path d="M51.3905 83.836C51.3905 83.836 49.2421 77.9276 43.5121 79.5393C43.5121 79.5393 42.7971 70.9459 33.4871 70.4076C24.1771 69.8693 21.3121 77.211 21.3121 77.211C21.3121 77.211 13.4355 72.9143 8.0638 79.5443C8.0638 79.5443 1.97714 79.5443 0.730469 83.8409L51.3905 83.836Z" fill="white"/>
<path d="M52.1053 84.336H0.0585938L0.24526 83.696C1.45526 79.5444 6.62693 79.0927 7.82526 79.0444C10.7136 75.6144 14.2619 75.161 16.7503 75.3927C18.2437 75.54 19.7035 75.9272 21.0736 76.5394C21.7132 75.3067 22.5587 74.1923 23.5736 73.2444C25.3603 71.5644 28.5386 69.621 33.5236 69.911C38.5503 70.201 41.1403 72.7944 42.4269 74.911C43.1674 76.1426 43.6795 77.4976 43.9386 78.911C49.6319 77.7094 51.8453 83.5944 51.8686 83.6544L52.1053 84.336ZM1.44693 83.336H50.6136C49.8819 81.916 47.7803 78.8577 43.6453 80.021L43.0619 80.1877L43.0119 79.5844C42.8167 78.104 42.3155 76.6805 41.5403 75.4044C39.8469 72.6344 37.1253 71.1227 33.4553 70.9044C29.7553 70.691 26.6669 71.711 24.2803 73.9394C23.2236 74.9104 22.3734 76.0843 21.7803 77.391L21.5719 77.9177L21.0719 77.6477C19.6773 76.9588 18.1687 76.5301 16.6203 76.3827C13.3086 76.0844 10.5586 77.251 8.45359 79.851L8.30359 80.036H8.05859C8.01193 80.0394 2.97859 80.0877 1.44693 83.336Z" fill="#171718"/>
<path d="M125.225 66.1577C125.225 66.1577 123.869 62.4261 120.249 63.4427C120.249 63.4427 119.797 58.0144 113.915 57.676C108.034 57.3377 106.225 61.9727 106.225 61.9727C106.225 61.9727 101.249 59.2594 97.8554 63.4427C97.8554 63.4427 94.0104 63.4427 93.2188 66.1577H125.225Z" fill="white"/>
<path d="M125.945 66.6577H92.5586L92.7453 66.0177C93.5186 63.366 96.7069 63.001 97.6219 62.951C100.594 59.491 104.635 60.7477 105.999 61.3177C106.679 60.0827 108.935 56.8877 113.95 57.176C119.025 57.4694 120.342 61.3627 120.66 62.8427C123.544 62.3427 125.207 64.631 125.702 65.9894L125.945 66.6577ZM93.9919 65.6577H124.43C123.885 64.7427 122.634 63.2944 120.39 63.9244L119.807 64.091L119.757 63.486C119.739 63.2844 119.257 58.486 113.894 58.176C108.462 57.8627 106.767 61.9827 106.697 62.1577L106.489 62.6827L105.989 62.4144C105.8 62.3127 101.332 59.956 98.2469 63.7594L98.0969 63.9444H97.8586C97.8319 63.9427 95.0486 63.9727 93.9919 65.6577Z" fill="#171718"/>
</svg>
