<svg width="16" height="16" viewBox="0 0 16 16" fill="none" xmlns="http://www.w3.org/2000/svg">
<path d="M4.85242 15.4576L5.12972 13.6963L4.51203 13.682H1.5625L3.61227 0.685066C3.61837 0.645355 3.63854 0.609158 3.6691 0.583075C3.69966 0.556992 3.73858 0.542759 3.77876 0.542971H8.75208C10.4031 0.542971 11.5425 0.886544 12.1374 1.56468C12.4163 1.8828 12.5939 2.21524 12.6798 2.58108C12.77 2.96495 12.7716 3.42357 12.6835 3.98294L12.6772 4.02377V4.38219L12.9561 4.54019C13.169 4.64805 13.3604 4.79396 13.5207 4.97071C13.7593 5.24271 13.9136 5.5884 13.9788 5.99825C14.0462 6.41976 14.0239 6.92134 13.9136 7.48919C13.7864 8.1424 13.5807 8.71131 13.3028 9.17683C13.0577 9.59386 12.7281 9.95505 12.3352 10.2372C11.9662 10.4992 11.5277 10.698 11.032 10.8252C10.5516 10.9504 10.0039 11.0135 9.40317 11.0135H9.01612C8.73935 11.0135 8.47054 11.1131 8.25952 11.2918C8.0488 11.4724 7.90901 11.7219 7.86505 11.9959L7.83589 12.1545L7.34598 15.2588L7.32371 15.3728C7.31787 15.4089 7.3078 15.4269 7.29296 15.4391C7.27857 15.4508 7.26063 15.4574 7.24206 15.4576H4.85242Z" fill="#253B80"/>
<path d="M13.2203 4.06445C13.2055 4.15936 13.1885 4.25639 13.1694 4.35607C12.5136 7.7234 10.2697 8.88667 7.40397 8.88667H5.94485C5.59438 8.88667 5.29906 9.14117 5.24445 9.48686L4.49739 14.2248L4.28583 15.5678C4.27741 15.6211 4.28062 15.6755 4.29527 15.7274C4.30991 15.7793 4.33562 15.8275 4.37064 15.8685C4.40566 15.9095 4.44916 15.9424 4.49813 15.965C4.5471 15.9876 4.60039 15.9993 4.65433 15.9994H7.24226C7.54872 15.9994 7.80905 15.7767 7.8573 15.4745L7.88275 15.343L8.37 12.2508L8.40129 12.0812C8.449 11.7779 8.70986 11.5552 9.01632 11.5552H9.40337C11.9107 11.5552 13.8735 10.5372 14.4472 7.59138C14.6869 6.36077 14.5628 5.33323 13.9287 4.61056C13.7277 4.38701 13.4876 4.20195 13.2203 4.06445Z" fill="#179BD7"/>
<path d="M12.5339 3.79126C12.3245 3.73068 12.1115 3.6834 11.8961 3.6497C11.4705 3.58429 11.0404 3.55291 10.6098 3.55585H6.71175C6.5634 3.55574 6.4199 3.6087 6.3072 3.70516C6.1945 3.80163 6.12002 3.93523 6.09724 4.08182L5.268 9.33403L5.24414 9.48726C5.26997 9.32006 5.3548 9.16762 5.48326 9.05754C5.61173 8.94745 5.77536 8.88698 5.94454 8.88706H7.40367C10.2694 8.88706 12.5133 7.72326 13.1691 4.35646C13.1887 4.25678 13.2052 4.15976 13.22 4.06485C13.0469 3.97409 12.8666 3.89801 12.6808 3.83739C12.6321 3.82123 12.5831 3.80585 12.5339 3.79126Z" fill="#222D65"/>
<path d="M6.09734 4.08205C6.11993 3.93542 6.19437 3.80175 6.30713 3.70534C6.41989 3.60892 6.56349 3.55615 6.71185 3.55661H10.6099C11.0717 3.55661 11.5028 3.58684 11.8962 3.65046C12.1624 3.6923 12.425 3.75488 12.6814 3.83762C12.875 3.90178 13.0547 3.9776 13.2206 4.06508C13.4158 2.82069 13.2191 1.97342 12.5462 1.20622C11.8045 0.3616 10.4657 0 8.75261 0H3.77929C3.42935 0 3.13085 0.254498 3.07676 0.600722L1.00525 13.7312C0.995605 13.7922 0.999276 13.8545 1.01601 13.9139C1.03275 13.9734 1.06216 14.0284 1.10222 14.0754C1.14227 14.1223 1.19202 14.1601 1.24805 14.186C1.30408 14.2119 1.36505 14.2253 1.42677 14.2254H4.49718L5.2681 9.33426L6.09734 4.08205Z" fill="#253B80"/>
</svg>
