<svg width="98" height="99" viewBox="0 0 98 99" fill="none" xmlns="http://www.w3.org/2000/svg">
<g filter="url(#filter0_dd_3_687)">
<path d="M32.1051 17.1792C36.1471 13.1372 42.0385 11.5586 47.5599 13.0381L68.3513 18.6091C73.8728 20.0886 78.1855 24.4014 79.665 29.9228L85.236 50.7142C86.7155 56.2357 85.1369 62.127 81.0949 66.169L65.8746 81.3893C61.8326 85.4313 55.9413 87.0099 50.4198 85.5304L29.6284 79.9594C24.107 78.4799 19.7942 74.1672 18.3147 68.6457L12.7437 47.8543C11.2642 42.3329 12.8428 36.4415 16.8848 32.3995L32.1051 17.1792Z" fill="white"/>
<g clip-path="url(#clip0_3_687)">
<mask id="mask0_3_687" style="mask-type:luminance" maskUnits="userSpaceOnUse" x="28" y="34" width="40" height="30">
<path d="M28.7559 43.3184L62.5633 34.2597L67.9985 54.5441L34.1911 63.6028L28.7559 43.3184Z" fill="white"/>
</mask>
<g mask="url(#mask0_3_687)">
<path fill-rule="evenodd" clip-rule="evenodd" d="M45.6596 38.789C41.152 39.9968 38.9386 43.0056 39.0195 47.8152C40.106 45.1084 41.8516 43.7348 44.2564 43.6944C45.6284 43.671 46.7976 44.3582 48.0915 45.1179C50.1995 46.3561 52.6395 47.7892 56.8291 46.6666C61.3367 45.4588 63.5501 42.45 63.4692 37.6404C62.3827 40.3472 60.6371 41.7208 58.2323 41.7613C56.8603 41.7847 55.6911 41.0975 54.3971 40.3377C52.2892 39.0995 49.8492 37.6664 45.6596 38.789ZM39.9254 51.1959C35.4177 52.4037 33.2043 55.4125 33.2853 60.2221C34.3717 57.5153 36.1173 56.1417 38.5221 56.1012C39.8943 56.0785 41.0633 56.765 42.3573 57.5248C44.4652 58.763 46.9052 60.1961 51.0948 59.0735C55.6025 57.8656 57.8158 54.8569 57.7349 50.0473C56.6485 52.7541 54.9028 54.1277 52.498 54.1681C51.1261 54.1915 49.9569 53.5043 48.6629 52.7446C46.555 51.5064 44.115 50.0733 39.9254 51.1959Z" fill="#38BDF8"/>
</g>
</g>
</g>
<defs>
<filter id="filter0_dd_3_687" x="-1.99994" y="-0.705566" width="101.98" height="101.979" filterUnits="userSpaceOnUse" color-interpolation-filters="sRGB">
<feFlood flood-opacity="0" result="BackgroundImageFix"/>
<feColorMatrix in="SourceAlpha" type="matrix" values="0 0 0 0 0 0 0 0 0 0 0 0 0 0 0 0 0 0 127 0" result="hardAlpha"/>
<feOffset dy="1"/>
<feGaussianBlur stdDeviation="1"/>
<feComposite in2="hardAlpha" operator="out"/>
<feColorMatrix type="matrix" values="0 0 0 0 0.372549 0 0 0 0 0.290196 0 0 0 0 0.180392 0 0 0 0.08 0"/>
<feBlend mode="normal" in2="BackgroundImageFix" result="effect1_dropShadow_3_687"/>
<feColorMatrix in="SourceAlpha" type="matrix" values="0 0 0 0 0 0 0 0 0 0 0 0 0 0 0 0 0 0 127 0" result="hardAlpha"/>
<feMorphology radius="1" operator="dilate" in="SourceAlpha" result="effect2_dropShadow_3_687"/>
<feOffset/>
<feComposite in2="hardAlpha" operator="out"/>
<feColorMatrix type="matrix" values="0 0 0 0 0.890196 0 0 0 0 0.882353 0 0 0 0 0.870588 0 0 0 0.4 0"/>
<feBlend mode="normal" in2="effect1_dropShadow_3_687" result="effect2_dropShadow_3_687"/>
<feBlend mode="normal" in="SourceGraphic" in2="effect2_dropShadow_3_687" result="shape"/>
</filter>
<clipPath id="clip0_3_687">
<rect width="35" height="21.3889" fill="white" transform="translate(28.7559 43.3184) rotate(-15)"/>
</clipPath>
</defs>
</svg>
