<svg width="26" height="26" viewBox="0 0 26 26" fill="none" xmlns="http://www.w3.org/2000/svg">
<path d="M12.9998 23.8334C18.9829 23.8334 23.8332 18.9831 23.8332 13C23.8332 7.01694 18.9829 2.16669 12.9998 2.16669C7.01675 2.16669 2.1665 7.01694 2.1665 13C2.1665 18.9831 7.01675 23.8334 12.9998 23.8334Z" fill="#26A17B"/>
<path d="M14.1546 13.9997V13.998C14.0797 14.0032 13.693 14.0259 12.8326 14.0259C12.1447 14.0259 11.6622 14.0067 11.4915 13.998V13.9997C8.84589 13.883 6.87255 13.4232 6.87255 12.8711C6.87255 12.3207 8.84763 11.8592 11.4915 11.7425V13.5417C11.6639 13.5539 12.1603 13.5835 12.8448 13.5835C13.6669 13.5835 14.0779 13.5486 14.1546 13.5417V11.7442C16.795 11.8627 18.7631 12.3225 18.7631 12.8729C18.7631 13.4232 16.7932 13.883 14.1546 14.0015M14.1546 11.5579V9.94855H17.8383V7.49451H7.80958V9.94855H11.4933V11.5579C8.49929 11.6955 6.24902 12.2876 6.24902 12.9983C6.24902 13.7089 8.50103 14.301 11.4933 14.4404V19.5993H14.1563V14.4404C17.1451 14.3028 19.3918 13.7106 19.3918 13C19.3918 12.2911 17.1451 11.6972 14.1563 11.5596" fill="white"/>
</svg>
