<svg width="91" height="30" viewBox="0 0 91 30" fill="none" xmlns="http://www.w3.org/2000/svg">
<path opacity="0.2" d="M7.09364 6.2881L0.788076 19.6116C0.598209 20.0127 0.499725 20.451 0.499725 20.8949V27C0.499725 28.6569 1.84287 30 3.49973 30H87.4999C89.1568 30 90.5 28.6568 90.4999 26.9999L90.4998 21.6606C90.4997 20.7504 90.0865 19.8895 89.3765 19.3202L79.0456 11.0363C77.9118 10.1272 76.2894 10.1615 75.1949 11.1177L72.8131 13.199C71.3519 14.4757 69.0813 14.0504 68.1813 12.3313L63.6659 3.7063C62.7134 1.8868 60.2554 1.54086 58.8376 3.02675L55.0193 7.02859C54.2252 7.86084 53.0251 8.16575 51.9301 7.81348L48.7227 6.7817C47.354 6.34139 45.8653 6.9341 45.1738 8.19468L40.4506 16.8045C39.5038 18.5304 37.1794 18.8921 35.7529 17.5354L25.7625 8.03378C24.5856 6.91443 22.7315 6.93502 21.5798 8.08025L19.75 9.89959C18.4825 11.1598 16.4012 11.0392 15.2878 9.64089L12.1522 5.70277C10.7691 3.9656 8.04356 4.28097 7.09364 6.2881Z" fill="url(#paint0_linear_3_9)"/>
<path d="M0.499725 21L7.08182 6.55635C8.02051 4.4965 10.8152 4.17865 12.1925 5.97509L15.2582 9.97379C16.373 11.4279 18.5195 11.5517 19.7941 10.2355L21.5408 8.43181C22.7015 7.23327 24.6171 7.21198 25.8041 8.38443L35.7024 18.1612C37.1338 19.575 39.5236 19.207 40.4633 17.4281L45.176 8.50614C45.8618 7.2078 47.3866 6.59666 48.7793 7.06193L51.8765 8.09666C52.9985 8.47149 54.236 8.15202 55.0363 7.28092L58.7904 3.19475C60.2093 1.65039 62.7344 2.00129 63.6785 3.874L68.1718 12.7877C69.0644 14.5582 71.3984 14.9913 72.8668 13.6589L75.1547 11.5827C76.2623 10.5775 77.9411 10.5418 79.0905 11.499L90.4997 21" stroke="#EF4444" stroke-linecap="round"/>
<defs>
<linearGradient id="paint0_linear_3_9" x1="45.4997" y1="0" x2="45.4997" y2="37" gradientUnits="userSpaceOnUse">
<stop stop-color="#EF4444"/>
<stop offset="1" stop-color="#EF4444" stop-opacity="0"/>
</linearGradient>
</defs>
</svg>
