<svg width="26" height="26" viewBox="0 0 26 26" fill="none" xmlns="http://www.w3.org/2000/svg">
<path d="M12.9998 23.8334C18.9829 23.8334 23.8332 18.9831 23.8332 13C23.8332 7.01693 18.9829 2.16669 12.9998 2.16669C7.01675 2.16669 2.1665 7.01693 2.1665 13C2.1665 18.9831 7.01675 23.8334 12.9998 23.8334ZM18.0975 11.4444C17.9098 12.5849 17.3122 13.1424 16.5044 13.3391C17.5792 13.9407 18.0965 14.8538 17.5431 16.4555C16.855 18.4644 15.3146 18.6466 13.2742 18.2574L12.7489 20.3775L11.5634 20.0837L12.0888 17.9636C11.9546 17.9279 11.8194 17.8966 11.6843 17.8652C11.498 17.8218 11.3055 17.777 11.1151 17.7223L10.5898 19.8425L9.40642 19.5492L9.93169 17.429L7.57444 16.787L8.16035 15.2879C8.16035 15.2879 9.05008 15.5326 9.03628 15.5173C9.36628 15.5975 9.52764 15.367 9.59374 15.2056L10.4349 11.8067L11.0471 9.39099C11.0736 9.12988 10.9918 8.78827 10.5096 8.6583C10.5424 8.63907 9.64158 8.4432 9.64158 8.4432L9.99261 7.02249L12.4221 7.62459L12.9366 5.54787L14.1605 5.8512L13.646 7.92792C13.9621 7.99666 14.2685 8.08019 14.5842 8.16043L15.0987 6.08371L16.2896 6.37884L15.7616 8.51C17.2636 9.0611 18.3455 9.8776 18.0975 11.4444ZM12.5732 11.8672C13.285 12.081 15.3952 12.7152 15.7507 11.3032C16.0817 9.96093 14.253 9.55087 13.4035 9.36038C13.3034 9.33791 13.2168 9.31851 13.149 9.30098L12.5139 11.8493L12.5732 11.8672ZM11.4742 16.0055L11.5773 16.0361C12.4542 16.2969 14.9423 17.037 15.2797 15.6354C15.6274 14.2857 13.3906 13.7601 12.3892 13.5248C12.2794 13.499 12.1844 13.4767 12.1094 13.4572L11.4742 16.0055Z" fill="#F79413"/>
</svg>
