<svg width="526" height="281" viewBox="0 0 526 281" fill="none" xmlns="http://www.w3.org/2000/svg">
<path d="M3.20573 14.5V13.18H3.72173C4.12173 13.18 4.44173 13.064 4.68173 12.832C4.92173 12.592 5.04173 12.272 5.04173 11.872V5.56H6.44573V11.824C6.44573 12.368 6.33373 12.84 6.10973 13.24C5.89373 13.64 5.57773 13.952 5.16173 14.176C4.75373 14.392 4.27373 14.5 3.72173 14.5H3.20573ZM10.0895 14.644C9.64952 14.644 9.26152 14.568 8.92552 14.416C8.59752 14.256 8.34152 14.04 8.15752 13.768C7.97352 13.488 7.88152 13.16 7.88152 12.784C7.88152 12.432 7.95752 12.116 8.10952 11.836C8.26952 11.556 8.51352 11.32 8.84152 11.128C9.16952 10.936 9.58152 10.8 10.0775 10.72L12.3335 10.348V11.416L10.3415 11.764C9.98152 11.828 9.71752 11.944 9.54952 12.112C9.38152 12.272 9.29752 12.48 9.29752 12.736C9.29752 12.984 9.38952 13.188 9.57352 13.348C9.76552 13.5 10.0095 13.576 10.3055 13.576C10.6735 13.576 10.9935 13.496 11.2655 13.336C11.5455 13.176 11.7615 12.964 11.9135 12.7C12.0655 12.428 12.1415 12.128 12.1415 11.8V10.132C12.1415 9.812 12.0215 9.552 11.7815 9.352C11.5495 9.144 11.2375 9.04 10.8455 9.04C10.4855 9.04 10.1695 9.136 9.89752 9.328C9.63352 9.512 9.43752 9.752 9.30952 10.048L8.18152 9.484C8.30152 9.164 8.49752 8.884 8.76952 8.644C9.04152 8.396 9.35752 8.204 9.71752 8.068C10.0855 7.932 10.4735 7.864 10.8815 7.864C11.3935 7.864 11.8455 7.96 12.2375 8.152C12.6375 8.344 12.9455 8.612 13.1615 8.956C13.3855 9.292 13.4975 9.684 13.4975 10.132V14.5H12.2015V13.324L12.4775 13.36C12.3255 13.624 12.1295 13.852 11.8895 14.044C11.6575 14.236 11.3895 14.384 11.0855 14.488C10.7895 14.592 10.4575 14.644 10.0895 14.644ZM15.083 14.5V8.008H16.379V9.28L16.223 9.112C16.383 8.704 16.639 8.396 16.991 8.188C17.343 7.972 17.751 7.864 18.215 7.864C18.695 7.864 19.119 7.968 19.487 8.176C19.855 8.384 20.143 8.672 20.351 9.04C20.559 9.408 20.663 9.832 20.663 10.312V14.5H19.319V10.672C19.319 10.344 19.259 10.068 19.139 9.844C19.019 9.612 18.847 9.436 18.623 9.316C18.407 9.188 18.159 9.124 17.879 9.124C17.599 9.124 17.347 9.188 17.123 9.316C16.907 9.436 16.739 9.612 16.619 9.844C16.499 10.076 16.439 10.352 16.439 10.672V14.5H15.083Z" fill="#6B7280"/>
<path d="M36 10L526 10" stroke="#E2E8F0" stroke-dasharray="8 8"/>
<path d="M1.30877 54.5V45.56H7.12877V46.82H2.72477V49.508H6.64877V50.768H2.72477V54.5H1.30877ZM11.0568 54.644C10.4088 54.644 9.8328 54.496 9.3288 54.2C8.8328 53.896 8.4448 53.488 8.1648 52.976C7.8848 52.456 7.7448 51.876 7.7448 51.236C7.7448 50.58 7.8848 50 8.1648 49.496C8.4528 48.992 8.8368 48.596 9.3168 48.308C9.7968 48.012 10.3408 47.864 10.9488 47.864C11.4368 47.864 11.8728 47.948 12.2568 48.116C12.6408 48.284 12.9648 48.516 13.2288 48.812C13.4928 49.1 13.6928 49.432 13.8288 49.808C13.9728 50.184 14.0448 50.584 14.0448 51.008C14.0448 51.112 14.0408 51.22 14.0328 51.332C14.0248 51.444 14.0088 51.548 13.9848 51.644H8.8128V50.564H13.2168L12.5688 51.056C12.6488 50.664 12.6208 50.316 12.4848 50.012C12.3568 49.7 12.1568 49.456 11.8848 49.28C11.6208 49.096 11.3088 49.004 10.9488 49.004C10.5888 49.004 10.2688 49.096 9.9888 49.28C9.7088 49.456 9.4928 49.712 9.3408 50.048C9.1888 50.376 9.1288 50.776 9.1608 51.248C9.1208 51.688 9.1808 52.072 9.3408 52.4C9.5088 52.728 9.7408 52.984 10.0368 53.168C10.3408 53.352 10.6848 53.444 11.0688 53.444C11.4608 53.444 11.7928 53.356 12.0648 53.18C12.3448 53.004 12.5648 52.776 12.7248 52.496L13.8288 53.036C13.7008 53.34 13.5008 53.616 13.2288 53.864C12.9648 54.104 12.6448 54.296 12.2688 54.44C11.9008 54.576 11.4968 54.644 11.0568 54.644ZM18.8362 54.644C18.3322 54.644 17.8722 54.54 17.4562 54.332C17.0482 54.124 16.7322 53.824 16.5082 53.432L16.6642 53.18V54.5H15.3682V45.416H16.7242V49.352L16.5082 49.04C16.7482 48.672 17.0682 48.384 17.4682 48.176C17.8682 47.968 18.3242 47.864 18.8362 47.864C19.4522 47.864 20.0042 48.012 20.4922 48.308C20.9882 48.604 21.3762 49.008 21.6562 49.52C21.9442 50.032 22.0882 50.608 22.0882 51.248C22.0882 51.888 21.9442 52.464 21.6562 52.976C21.3762 53.488 20.9922 53.896 20.5042 54.2C20.0162 54.496 19.4602 54.644 18.8362 54.644ZM18.7042 53.384C19.0882 53.384 19.4282 53.292 19.7242 53.108C20.0202 52.924 20.2522 52.672 20.4202 52.352C20.5962 52.024 20.6842 51.656 20.6842 51.248C20.6842 50.84 20.5962 50.476 20.4202 50.156C20.2522 49.836 20.0202 49.584 19.7242 49.4C19.4282 49.216 19.0882 49.124 18.7042 49.124C18.3282 49.124 17.9882 49.216 17.6842 49.4C17.3882 49.584 17.1522 49.836 16.9762 50.156C16.8082 50.476 16.7242 50.84 16.7242 51.248C16.7242 51.656 16.8082 52.024 16.9762 52.352C17.1522 52.672 17.3882 52.924 17.6842 53.108C17.9882 53.292 18.3282 53.384 18.7042 53.384Z" fill="#6B7280"/>
<path d="M36 50L526 50" stroke="#E2E8F0" stroke-dasharray="8 8"/>
<path d="M1.03728 94.5V85.56H2.35728L5.71728 90.216H5.05728L8.35728 85.56H9.67728V94.5H8.27328V87.228L8.80128 87.372L5.42928 91.98H5.28528L1.98528 87.372L2.45328 87.228V94.5H1.03728ZM13.3376 94.644C12.8976 94.644 12.5096 94.568 12.1736 94.416C11.8456 94.256 11.5896 94.04 11.4056 93.768C11.2216 93.488 11.1296 93.16 11.1296 92.784C11.1296 92.432 11.2056 92.116 11.3576 91.836C11.5176 91.556 11.7616 91.32 12.0896 91.128C12.4176 90.936 12.8296 90.8 13.3256 90.72L15.5816 90.348V91.416L13.5896 91.764C13.2296 91.828 12.9656 91.944 12.7976 92.112C12.6296 92.272 12.5456 92.48 12.5456 92.736C12.5456 92.984 12.6376 93.188 12.8216 93.348C13.0136 93.5 13.2576 93.576 13.5536 93.576C13.9216 93.576 14.2416 93.496 14.5136 93.336C14.7936 93.176 15.0096 92.964 15.1616 92.7C15.3136 92.428 15.3896 92.128 15.3896 91.8V90.132C15.3896 89.812 15.2696 89.552 15.0296 89.352C14.7976 89.144 14.4856 89.04 14.0936 89.04C13.7336 89.04 13.4176 89.136 13.1456 89.328C12.8816 89.512 12.6856 89.752 12.5576 90.048L11.4296 89.484C11.5496 89.164 11.7456 88.884 12.0176 88.644C12.2896 88.396 12.6056 88.204 12.9656 88.068C13.3336 87.932 13.7216 87.864 14.1296 87.864C14.6416 87.864 15.0936 87.96 15.4856 88.152C15.8856 88.344 16.1936 88.612 16.4096 88.956C16.6336 89.292 16.7456 89.684 16.7456 90.132V94.5H15.4496V93.324L15.7256 93.36C15.5736 93.624 15.3776 93.852 15.1376 94.044C14.9056 94.236 14.6376 94.384 14.3336 94.488C14.0376 94.592 13.7056 94.644 13.3376 94.644ZM18.3311 94.5V88.008H19.6271V89.316L19.5071 89.124C19.6511 88.7 19.8831 88.396 20.2031 88.212C20.5231 88.02 20.9071 87.924 21.3551 87.924H21.7511V89.16H21.1871C20.7391 89.16 20.3751 89.3 20.0951 89.58C19.8231 89.852 19.6871 90.244 19.6871 90.756V94.5H18.3311Z" fill="#6B7280"/>
<path d="M36 90L526 90" stroke="#E2E8F0" stroke-dasharray="8 8"/>
<path d="M0.284344 134.5L3.42834 125.56H5.18034L8.32434 134.5H6.81234L6.12834 132.496H2.49234L1.79634 134.5H0.284344ZM2.90034 131.236H5.69634L4.11234 126.556H4.50834L2.90034 131.236ZM9.25294 136.9V128.008H10.5489V129.352L10.3929 129.04C10.6329 128.672 10.9529 128.384 11.3529 128.176C11.7529 127.968 12.2089 127.864 12.7209 127.864C13.3369 127.864 13.8889 128.012 14.3769 128.308C14.8729 128.604 15.2609 129.008 15.5409 129.52C15.8289 130.032 15.9729 130.608 15.9729 131.248C15.9729 131.888 15.8289 132.464 15.5409 132.976C15.2609 133.488 14.8769 133.896 14.3889 134.2C13.9009 134.496 13.3449 134.644 12.7209 134.644C12.2169 134.644 11.7569 134.54 11.3409 134.332C10.9329 134.124 10.6169 133.824 10.3929 133.432L10.6089 133.18V136.9H9.25294ZM12.5889 133.384C12.9729 133.384 13.3129 133.292 13.6089 133.108C13.9049 132.924 14.1369 132.672 14.3049 132.352C14.4809 132.024 14.5689 131.656 14.5689 131.248C14.5689 130.84 14.4809 130.476 14.3049 130.156C14.1369 129.836 13.9049 129.584 13.6089 129.4C13.3129 129.216 12.9729 129.124 12.5889 129.124C12.2129 129.124 11.8729 129.216 11.5689 129.4C11.2729 129.584 11.0369 129.836 10.8609 130.156C10.6929 130.476 10.6089 130.84 10.6089 131.248C10.6089 131.656 10.6929 132.024 10.8609 132.352C11.0369 132.672 11.2729 132.924 11.5689 133.108C11.8729 133.292 12.2129 133.384 12.5889 133.384ZM17.292 134.5V128.008H18.588V129.316L18.468 129.124C18.612 128.7 18.844 128.396 19.164 128.212C19.484 128.02 19.868 127.924 20.316 127.924H20.712V129.16H20.148C19.7 129.16 19.336 129.3 19.056 129.58C18.784 129.852 18.648 130.244 18.648 130.756V134.5H17.292Z" fill="#6B7280"/>
<path d="M36 130L526 130" stroke="#E2E8F0" stroke-dasharray="8 8"/>
<path d="M1.29509 174.5V165.56H2.61509L5.97509 170.216H5.31509L8.61509 165.56H9.93509V174.5H8.53109V167.228L9.05909 167.372L5.68709 171.98H5.54309L2.24309 167.372L2.71109 167.228V174.5H1.29509ZM13.5954 174.644C13.1554 174.644 12.7674 174.568 12.4314 174.416C12.1034 174.256 11.8474 174.04 11.6634 173.768C11.4794 173.488 11.3874 173.16 11.3874 172.784C11.3874 172.432 11.4634 172.116 11.6154 171.836C11.7754 171.556 12.0194 171.32 12.3474 171.128C12.6754 170.936 13.0874 170.8 13.5834 170.72L15.8394 170.348V171.416L13.8474 171.764C13.4874 171.828 13.2234 171.944 13.0554 172.112C12.8874 172.272 12.8034 172.48 12.8034 172.736C12.8034 172.984 12.8954 173.188 13.0794 173.348C13.2714 173.5 13.5154 173.576 13.8114 173.576C14.1794 173.576 14.4994 173.496 14.7714 173.336C15.0514 173.176 15.2674 172.964 15.4194 172.7C15.5714 172.428 15.6474 172.128 15.6474 171.8V170.132C15.6474 169.812 15.5274 169.552 15.2874 169.352C15.0554 169.144 14.7434 169.04 14.3514 169.04C13.9914 169.04 13.6754 169.136 13.4034 169.328C13.1394 169.512 12.9434 169.752 12.8154 170.048L11.6874 169.484C11.8074 169.164 12.0034 168.884 12.2754 168.644C12.5474 168.396 12.8634 168.204 13.2234 168.068C13.5914 167.932 13.9794 167.864 14.3874 167.864C14.8994 167.864 15.3514 167.96 15.7434 168.152C16.1434 168.344 16.4514 168.612 16.6674 168.956C16.8914 169.292 17.0034 169.684 17.0034 170.132V174.5H15.7074V173.324L15.9834 173.36C15.8314 173.624 15.6354 173.852 15.3954 174.044C15.1634 174.236 14.8954 174.384 14.5914 174.488C14.2954 174.592 13.9634 174.644 13.5954 174.644ZM19.1649 177.152C19.0049 177.152 18.8449 177.136 18.6849 177.104C18.5329 177.08 18.3929 177.04 18.2649 176.984V175.82C18.3609 175.844 18.4769 175.864 18.6129 175.88C18.7489 175.904 18.8809 175.916 19.0089 175.916C19.3849 175.916 19.6609 175.832 19.8369 175.664C20.0209 175.504 20.1849 175.252 20.3289 174.908L20.7609 173.924L20.7369 175.064L17.9289 168.008H19.3809L21.4569 173.42H20.9649L23.0289 168.008H24.4929L21.6249 175.208C21.4729 175.592 21.2809 175.928 21.0489 176.216C20.8249 176.512 20.5569 176.74 20.2449 176.9C19.9409 177.068 19.5809 177.152 19.1649 177.152Z" fill="#6B7280"/>
<path d="M36 170L526 170" stroke="#E2E8F0" stroke-dasharray="8 8"/>
<path d="M0.658859 214.5V213.18H1.17486C1.57486 213.18 1.89486 213.064 2.13486 212.832C2.37486 212.592 2.49486 212.272 2.49486 211.872V205.56H3.89886V211.824C3.89886 212.368 3.78686 212.84 3.56286 213.24C3.34686 213.64 3.03086 213.952 2.61486 214.176C2.20686 214.392 1.72686 214.5 1.17486 214.5H0.658859ZM7.91464 214.644C7.42664 214.644 6.99864 214.536 6.63064 214.32C6.26264 214.096 5.97464 213.788 5.76664 213.396C5.56664 212.996 5.46664 212.536 5.46664 212.016V208.008H6.82264V211.896C6.82264 212.192 6.88264 212.452 7.00264 212.676C7.12264 212.9 7.29064 213.076 7.50664 213.204C7.72264 213.324 7.97064 213.384 8.25064 213.384C8.53864 213.384 8.79064 213.32 9.00664 213.192C9.22264 213.064 9.39064 212.884 9.51064 212.652C9.63864 212.42 9.70264 212.148 9.70264 211.836V208.008H11.0466V214.5H9.76264V213.228L9.90664 213.396C9.75464 213.796 9.50264 214.104 9.15064 214.32C8.79864 214.536 8.38664 214.644 7.91464 214.644ZM12.6299 214.5V208.008H13.9259V209.28L13.7699 209.112C13.9299 208.704 14.1859 208.396 14.5379 208.188C14.8899 207.972 15.2979 207.864 15.7619 207.864C16.2419 207.864 16.6659 207.968 17.0339 208.176C17.4019 208.384 17.6899 208.672 17.8979 209.04C18.1059 209.408 18.2099 209.832 18.2099 210.312V214.5H16.8659V210.672C16.8659 210.344 16.8059 210.068 16.6859 209.844C16.5659 209.612 16.3939 209.436 16.1699 209.316C15.9539 209.188 15.7059 209.124 15.4259 209.124C15.1459 209.124 14.8939 209.188 14.6699 209.316C14.4539 209.436 14.2859 209.612 14.1659 209.844C14.0459 210.076 13.9859 210.352 13.9859 210.672V214.5H12.6299Z" fill="#6B7280"/>
<path d="M36 210L526 210" stroke="#E2E8F0" stroke-dasharray="8 8"/>
<path d="M0.703781 254.5V253.18H1.21978C1.61978 253.18 1.93978 253.064 2.17978 252.832C2.41978 252.592 2.53978 252.272 2.53978 251.872V245.56H3.94378V251.824C3.94378 252.368 3.83178 252.84 3.60778 253.24C3.39178 253.64 3.07578 253.952 2.65978 254.176C2.25178 254.392 1.77178 254.5 1.21978 254.5H0.703781ZM7.95956 254.644C7.47156 254.644 7.04356 254.536 6.67556 254.32C6.30756 254.096 6.01956 253.788 5.81156 253.396C5.61156 252.996 5.51156 252.536 5.51156 252.016V248.008H6.86756V251.896C6.86756 252.192 6.92756 252.452 7.04756 252.676C7.16756 252.9 7.33556 253.076 7.55156 253.204C7.76756 253.324 8.01556 253.384 8.29556 253.384C8.58356 253.384 8.83556 253.32 9.05156 253.192C9.26756 253.064 9.43556 252.884 9.55556 252.652C9.68356 252.42 9.74756 252.148 9.74756 251.836V248.008H11.0916V254.5H9.80756V253.228L9.95156 253.396C9.79956 253.796 9.54756 254.104 9.19556 254.32C8.84356 254.536 8.43156 254.644 7.95956 254.644ZM12.6748 254.5V245.416H14.0308V254.5H12.6748Z" fill="#6B7280"/>
<path d="M36 250L526 250" stroke="#E2E8F0" stroke-dasharray="8 8"/>
<path opacity="0.1" d="M133.254 213.24L50 255.904V281H520V58L486.601 93.4936L451.267 78.4357L363.172 153.008L267.333 102.457L170.041 160.178L133.254 213.24Z" fill="url(#paint0_linear_1564_13525)"/>
<g filter="url(#filter0_d_1564_13525)">
<path d="M50 257L131.472 214.807C132.642 214.201 133.644 213.315 134.39 212.229L169.054 161.699C169.705 160.752 170.552 159.955 171.537 159.364L263.45 104.255C265.859 102.811 268.849 102.736 271.327 104.057L358.356 150.447C361.261 151.996 364.818 151.607 367.319 149.467L447.479 80.8921C449.798 78.9088 453.042 78.4168 455.844 79.6236L481.424 90.6397C484.529 91.977 488.139 91.218 490.443 88.7437L520 57" stroke="#171718" stroke-width="2" stroke-linecap="round"/>
</g>
<circle cx="50" cy="257" r="5" fill="white" stroke="#171718" stroke-width="2"/>
<circle cx="132" cy="214" r="5" fill="white" stroke="#171718" stroke-width="2"/>
<circle cx="170" cy="160" r="5" fill="white" stroke="#171718" stroke-width="2"/>
<circle cx="267" cy="103" r="5" fill="white" stroke="#171718" stroke-width="2"/>
<circle cx="362" cy="151" r="5" fill="white" stroke="#171718" stroke-width="2"/>
<circle cx="451" cy="79" r="5" fill="white" stroke="#171718" stroke-width="2"/>
<circle cx="486" cy="91" r="5" fill="white" stroke="#171718" stroke-width="2"/>
<circle cx="520" cy="57" r="5" fill="white" stroke="#171718" stroke-width="2"/>
<defs>
<filter id="filter0_d_1564_13525" x="44.7666" y="56" width="480.467" height="210.467" filterUnits="userSpaceOnUse" color-interpolation-filters="sRGB">
<feFlood flood-opacity="0" result="BackgroundImageFix"/>
<feColorMatrix in="SourceAlpha" type="matrix" values="0 0 0 0 0 0 0 0 0 0 0 0 0 0 0 0 0 0 127 0" result="hardAlpha"/>
<feOffset dy="4.2334"/>
<feGaussianBlur stdDeviation="2.1167"/>
<feComposite in2="hardAlpha" operator="out"/>
<feColorMatrix type="matrix" values="0 0 0 0 0 0 0 0 0 0 0 0 0 0 0 0 0 0 0.25 0"/>
<feBlend mode="normal" in2="BackgroundImageFix" result="effect1_dropShadow_1564_13525"/>
<feBlend mode="normal" in="SourceGraphic" in2="effect1_dropShadow_1564_13525" result="shape"/>
</filter>
<linearGradient id="paint0_linear_1564_13525" x1="285" y1="58" x2="285" y2="281" gradientUnits="userSpaceOnUse">
<stop stop-color="#171718"/>
<stop offset="1" stop-color="#171718" stop-opacity="0"/>
</linearGradient>
</defs>
</svg>
