<svg width="180" height="180" viewBox="0 0 180 180" fill="none" xmlns="http://www.w3.org/2000/svg">
<g clipPath="url(#clip0_696_4426)">
<path fill-rule="evenodd" clip-rule="evenodd" d="M105.545 57.2298C105.545 57.2298 111.446 80.1468 112.883 85.5444C114.319 90.9414 117.68 100.203 119.07 103.094C120.461 105.985 120.99 107.816 128.688 105.842C136.386 103.867 138.597 102.931 138.597 102.931C138.597 102.931 162.545 98.253 167.195 96.1626C171.846 94.0722 174.804 92.4042 173.568 85.194C172.338 77.9844 165.741 51.9162 164.105 46.3029C162.468 40.6896 159.285 39.7245 154.421 40.3089C149.558 40.8932 113.174 48.4783 110.145 49.6559C107.116 50.8335 104.22 51.8867 105.545 57.2298Z" fill="white"/>
<path fill-rule="evenodd" clip-rule="evenodd" d="M105.18 57.3201C105.18 57.3212 105.18 57.3223 105.181 57.3234C105.181 57.3234 111.083 80.2428 112.519 85.641C113.961 91.0584 117.336 100.354 118.732 103.256C119.471 104.794 120.01 106.026 121.359 106.634C122.671 107.227 124.8 107.226 128.781 106.205C135.947 104.367 138.383 103.421 138.705 103.291C139.744 103.087 162.79 98.5536 167.348 96.5046C170.234 95.2074 172.469 94.0404 173.537 91.7244C174.251 90.1806 174.449 88.1148 173.939 85.131C172.703 77.9136 166.102 51.8174 164.464 46.198C163.609 43.2658 162.331 41.5608 160.651 40.652C158.982 39.7497 156.898 39.6336 154.375 39.9366C149.502 40.5222 113.044 48.1265 110.008 49.3065C108.102 50.0473 106.267 50.7713 105.388 52.4181C104.796 53.5256 104.619 55.0594 105.18 57.3201ZM105.907 57.1381C105.408 55.1251 105.522 53.7577 106.049 52.7714C106.847 51.2772 108.551 50.6777 110.28 50.0055C113.303 48.8304 149.611 41.2644 154.465 40.6812C156.806 40.4 158.745 40.4741 160.294 41.3117C161.83 42.1427 162.963 43.7268 163.744 46.4079C165.379 52.0152 171.965 78.0552 173.201 85.2576C173.675 88.041 173.519 89.97 172.859 91.4106C171.863 93.5718 169.734 94.6098 167.04 95.8206C162.404 97.905 138.524 102.562 138.524 102.562C138.499 102.567 138.474 102.575 138.45 102.585C138.45 102.585 136.25 103.515 128.594 105.479C124.876 106.432 122.893 106.504 121.668 105.951C120.479 105.415 120.059 104.286 119.408 102.932C118.023 100.051 114.675 90.825 113.244 85.4478C111.816 80.0778 105.966 57.3642 105.907 57.1381Z" fill="#171718"/>
<path fill-rule="evenodd" clip-rule="evenodd" d="M146.078 75.0552L149.163 73.89L147.278 65.2644L151.197 64.5684L154.423 74.9028L156.566 74.0442L155.729 67.3944L160.811 65.4144L158.367 54.2021L165.558 51.6486C165.558 51.6486 169.746 67.8624 170.029 69.3906C170.313 70.9194 173.528 82.944 173.732 86.2722C173.936 89.6004 174.194 93.4662 167.857 95.8626C161.519 98.259 156.749 99.0732 156.749 99.0732L152.797 99.9696L146.078 75.0552Z" fill="white"/>
<path fill-rule="evenodd" clip-rule="evenodd" d="M145.942 74.7042C145.761 74.7726 145.662 74.9664 145.712 75.153L152.432 100.067C152.484 100.262 152.681 100.38 152.877 100.336L156.819 99.441C157.066 99.3978 161.779 98.5608 167.986 96.2136C170.62 95.2176 172.15 93.966 173.032 92.6154C174.352 90.591 174.226 88.3218 174.1 86.2494C173.896 82.9122 170.68 70.8546 170.394 69.3222C170.11 67.7916 165.918 51.5548 165.918 51.5548C165.892 51.4529 165.824 51.3668 165.731 51.3174C165.638 51.2681 165.528 51.26 165.429 51.2952L158.238 53.8487C158.06 53.9119 157.956 54.0975 157.997 54.282L160.373 65.181L155.589 67.0446C155.429 67.107 155.332 67.2702 155.353 67.4412L156.155 73.8036L154.656 74.4036L151.552 64.4568C151.496 64.2768 151.314 64.1664 151.128 64.1994L147.209 64.8948C147.108 64.9128 147.02 64.971 146.963 65.0556C146.906 65.1402 146.887 65.2446 146.908 65.3442L148.724 73.6536L145.942 74.7042ZM146.525 75.2856L149.292 74.2404C149.466 74.175 149.565 73.9914 149.526 73.8096L147.724 65.565L150.935 64.9956L154.061 75.0144C154.092 75.114 154.164 75.1968 154.258 75.2412C154.353 75.2862 154.461 75.2898 154.559 75.2508L156.702 74.3922C156.861 74.3286 156.956 74.166 156.935 73.9968L156.134 67.6374L160.943 65.7636C161.115 65.697 161.213 65.5146 161.174 65.3346L158.8 54.445L165.294 52.1391C165.937 54.6322 169.4 68.0748 169.657 69.459C169.94 70.9836 173.146 82.9758 173.35 86.2956C173.47 88.2168 173.632 90.3282 172.402 92.205C171.586 93.4548 170.157 94.5906 167.72 95.5122C161.423 97.8936 156.683 98.7036 156.683 98.7036C156.675 98.7048 156.67 98.706 156.663 98.7078L153.062 99.5244L146.525 75.2856Z" fill="#171718"/>
<path fill-rule="evenodd" clip-rule="evenodd" d="M171.343 74.9028C171.343 74.9028 167.782 67.3728 164.412 69.4362C161.042 71.499 166.666 83.1828 166.666 83.1828C166.666 83.1828 162.455 76.1112 159.943 77.5224C157.43 78.9342 163.9 87.6864 163.9 87.6864C163.9 87.6864 159.894 85.0596 158.343 86.07C156.791 87.081 160.96 92.028 162.841 93.1464C162.841 93.1464 160.591 92.685 159.943 94.1166C159.294 95.5482 161.682 96.96 163.099 97.4904C163.099 97.4904 169.92 95.988 172.339 92.9322C174.757 89.8758 173.827 86.2836 173.095 82.4046C172.369 78.5262 171.343 74.9028 171.343 74.9028Z" fill="#22C55E"/>
<path d="M110.51 55.647C111.243 55.647 111.836 55.0531 111.836 54.3206C111.836 53.588 111.243 52.9941 110.51 52.9941C109.777 52.9941 109.184 53.588 109.184 54.3206C109.184 55.0531 109.777 55.647 110.51 55.647Z" fill="white"/>
<path fill-rule="evenodd" clip-rule="evenodd" d="M110.51 52.6191C109.571 52.6191 108.809 53.3816 108.809 54.3206C108.809 55.2596 109.571 56.022 110.51 56.022C111.449 56.022 112.212 55.2596 112.212 54.3206C112.212 53.3816 111.449 52.6191 110.51 52.6191ZM110.51 53.3691C111.035 53.3691 111.462 53.7955 111.462 54.3206C111.462 54.8457 111.035 55.272 110.51 55.272C109.985 55.272 109.559 54.8457 109.559 54.3206C109.559 53.7955 109.985 53.3691 110.51 53.3691Z" fill="#171718"/>
<path d="M115.701 54.202C116.434 54.202 117.028 53.6082 117.028 52.8756C117.028 52.1431 116.434 51.5492 115.701 51.5492C114.969 51.5492 114.375 52.1431 114.375 52.8756C114.375 53.6082 114.969 54.202 115.701 54.202Z" fill="white"/>
<path fill-rule="evenodd" clip-rule="evenodd" d="M115.702 51.1742C114.763 51.1742 114 51.9366 114 52.8756C114 53.8147 114.763 54.577 115.702 54.577C116.641 54.577 117.403 53.8147 117.403 52.8756C117.403 51.9366 116.641 51.1742 115.702 51.1742ZM115.702 51.9242C116.227 51.9242 116.653 52.3506 116.653 52.8756C116.653 53.4007 116.227 53.827 115.702 53.827C115.177 53.827 114.75 53.4007 114.75 52.8756C114.75 52.3506 115.177 51.9242 115.702 51.9242Z" fill="#171718"/>
<path d="M120.662 52.975C121.395 52.975 121.989 52.3811 121.989 51.6486C121.989 50.916 121.395 50.3221 120.662 50.3221C119.93 50.3221 119.336 50.916 119.336 51.6486C119.336 52.3811 119.93 52.975 120.662 52.975Z" fill="white"/>
<path fill-rule="evenodd" clip-rule="evenodd" d="M120.663 49.9471C119.724 49.9471 118.961 50.7096 118.961 51.6486C118.961 52.5876 119.724 53.35 120.663 53.35C121.602 53.35 122.364 52.5876 122.364 51.6486C122.364 50.7096 121.602 49.9471 120.663 49.9471ZM120.663 50.6971C121.188 50.6971 121.614 51.1235 121.614 51.6486C121.614 52.1737 121.188 52.6 120.663 52.6C120.138 52.6 119.711 52.1737 119.711 51.6486C119.711 51.1235 120.138 50.6971 120.663 50.6971Z" fill="#171718"/>
<path fill-rule="evenodd" clip-rule="evenodd" d="M85.4649 42.7234C85.4649 42.7234 66.7887 45.5998 61.3629 48.7906C55.9365 51.9813 61.2441 55.9654 64.2795 53.7886C64.2795 53.7886 65.9607 55.3936 68.0175 66.8646C70.1409 78.7098 75.1851 82.5474 82.4361 82.8288L99.1857 74.6142C99.1857 74.6142 99.9009 73.4964 98.8977 72.6984C97.1103 71.277 94.4595 68.6202 93.5493 64.839C92.1273 58.9352 90.8397 46.9279 85.4649 42.7234Z" fill="white"/>
<path fill-rule="evenodd" clip-rule="evenodd" d="M64.1807 54.2972C64.2965 54.4844 64.4645 54.7881 64.6601 55.2374C65.3369 56.7896 66.4241 60.0977 67.6493 66.9305C68.9465 74.1689 71.3405 78.4589 74.6225 80.8043C76.8293 82.3811 79.4435 83.0879 82.4225 83.2031C82.4849 83.2055 82.5467 83.1923 82.6025 83.1653L99.3514 74.9507C99.4132 74.9207 99.4655 74.8739 99.5027 74.8157C99.5027 74.8157 100.395 73.4093 99.1319 72.4049C97.3901 71.0201 94.8017 68.4353 93.9143 64.7507C93.0593 61.2005 92.251 55.4483 90.5788 50.5039C89.4412 47.1389 87.8969 44.1488 85.6967 42.4279C85.6151 42.3641 85.5107 42.3369 85.4087 42.3526C85.4087 42.3526 66.6305 45.2584 61.1735 48.4672C58.7639 49.8841 58.3439 51.4892 58.8233 52.6938C59.1161 53.4289 59.7611 54.042 60.5699 54.4099C61.6559 54.9038 63.0305 54.9539 64.1807 54.2972ZM85.3607 43.1192C87.3929 44.7769 88.8041 47.5964 89.8685 50.7442C91.5329 55.6658 92.3345 61.3925 93.1853 64.9265C94.1195 68.8049 96.8315 71.5343 98.6651 72.9923C99.2657 73.4699 99.0293 74.1041 98.9171 74.3285C98.9165 74.3285 82.3577 82.4501 82.3577 82.4501C79.5743 82.3295 77.1257 81.6713 75.0587 80.1941C71.8955 77.9333 69.6377 73.7741 68.3873 66.7985C66.2963 55.1354 64.5395 53.5172 64.5395 53.5172C64.4087 53.3927 64.2083 53.3787 64.0619 53.4838C63.0839 54.1849 61.8425 54.1645 60.8807 53.7272C60.2561 53.4434 59.7461 52.9835 59.5199 52.4164C59.1353 51.4503 59.6213 50.2501 61.5533 49.1137C66.6533 46.115 83.5253 43.4071 85.3601 43.1192H85.3607Z" fill="#171718"/>
<path fill-rule="evenodd" clip-rule="evenodd" d="M64.9031 54.0393C64.9031 54.0393 64.2695 53.0069 63.4043 52.2003C62.7731 51.612 62.0153 51.1619 61.2887 51.2014C61.0817 51.2126 60.9233 51.3895 60.9341 51.5962C60.9455 51.8028 61.1225 51.9615 61.3289 51.9503C61.8749 51.9206 62.4191 52.3075 62.8931 52.7489C63.6845 53.4867 64.2635 54.4314 64.2635 54.4314C64.3715 54.6078 64.6025 54.6632 64.7795 54.555C64.9559 54.4469 65.0111 54.2157 64.9031 54.0393Z" fill="#171718"/>
<path fill-rule="evenodd" clip-rule="evenodd" d="M100.105 75.684C100.105 75.684 100.571 72.4854 99.7824 70.7904L83.9213 78.912C83.9213 78.912 82.7735 82.4574 80.5859 82.6704C80.5859 82.6704 82.3853 83.85 87.0113 82.089C92.7419 79.9068 100.105 75.684 100.105 75.684Z" fill="white"/>
<path fill-rule="evenodd" clip-rule="evenodd" d="M100.292 76.0092C100.391 75.9516 100.46 75.852 100.476 75.738C100.476 75.738 100.946 72.4014 100.123 70.632C100.079 70.5396 100.001 70.4688 99.9042 70.4358C99.8082 70.4022 99.7019 70.41 99.6113 70.4562L83.7504 78.5778C83.6622 78.6234 83.5956 78.702 83.565 78.7962C83.565 78.7962 83.1707 80.013 82.4057 81.03C81.9335 81.657 81.3216 82.2222 80.5494 82.2972C80.391 82.3122 80.2602 82.4262 80.2218 82.5804C80.184 82.7346 80.247 82.8966 80.3802 82.9836C80.3802 82.9836 82.2786 84.2922 87.1446 82.4394C92.8992 80.2482 100.292 76.0092 100.292 76.0092ZM99.7583 75.45C98.6561 76.0746 92.0898 79.7538 86.8776 81.7386C84.3534 82.6998 82.7189 82.7592 81.7859 82.6368C82.2551 82.3476 82.6638 81.9342 83.0046 81.4806C83.676 80.5884 84.0876 79.557 84.2256 79.1772L99.585 71.3124C100.048 72.7254 99.8357 74.8272 99.7583 75.45Z" fill="#171718"/>
<path fill-rule="evenodd" clip-rule="evenodd" d="M70.138 56.005C74.9428 54.231 79.7495 52.5454 84.4445 50.4857C84.6341 50.4025 84.7205 50.1811 84.6371 49.9916C84.5537 49.8021 84.3322 49.7157 84.1432 49.7989C79.462 51.8525 74.6686 53.5326 69.8782 55.3014C69.6838 55.373 69.5842 55.5889 69.6562 55.7831C69.7276 55.9772 69.9436 56.0767 70.138 56.005Z" fill="#171718"/>
<path fill-rule="evenodd" clip-rule="evenodd" d="M71.8754 60.4926C73.37 59.8077 74.9336 59.3227 76.4558 58.7076C79.0514 57.6588 81.5954 56.5171 84.2168 55.5272C84.4106 55.454 84.5084 55.2375 84.4352 55.0439C84.362 54.8502 84.1453 54.7524 83.9521 54.8255C81.3253 55.8175 78.776 56.9613 76.175 58.0122C74.642 58.6316 73.0682 59.121 71.5628 59.8108C71.3744 59.897 71.2916 60.12 71.378 60.3078C71.4644 60.4962 71.687 60.579 71.8754 60.4926Z" fill="#171718"/>
<path fill-rule="evenodd" clip-rule="evenodd" d="M72.8937 65.0622C75.0693 63.9816 77.4213 63.3042 79.7067 62.4948C81.8967 61.7184 84.038 60.8154 86.183 59.9245C86.3744 59.8451 86.4651 59.6255 86.3859 59.4343C86.3061 59.2432 86.0864 59.1525 85.8956 59.2319C83.7626 60.1182 81.6339 61.0164 79.4559 61.788C77.1429 62.6076 74.7627 63.2964 72.5595 64.3908C72.3747 64.4826 72.2985 64.7082 72.3909 64.8936C72.4827 65.0784 72.7083 65.1546 72.8937 65.0622Z" fill="#171718"/>
<path fill-rule="evenodd" clip-rule="evenodd" d="M74.4254 69.6018C78.1178 68.0664 81.9687 66.9642 85.6419 65.3598C85.8315 65.277 85.9178 65.0556 85.835 64.866C85.7522 64.6764 85.5309 64.5894 85.3413 64.6728C81.6723 66.2748 77.8262 67.3758 74.1374 68.9094C73.946 68.9892 73.8554 69.2088 73.9352 69.3996C74.0144 69.591 74.234 69.6816 74.4254 69.6018Z" fill="#171718"/>
<path fill-rule="evenodd" clip-rule="evenodd" d="M85.8554 70.6224C85.3448 71.3898 84.6277 71.9724 83.7835 72.4518C83.6035 72.5544 83.5406 72.783 83.6426 72.963C83.7452 73.143 83.9737 73.2066 84.1537 73.104C85.0009 72.6234 85.7287 72.0456 86.2843 71.3148C86.5327 71.5794 86.8532 71.7576 87.2528 71.7996C88.1384 71.8938 88.8307 71.1426 89.1943 70.4364C89.2825 70.2654 89.3558 70.0878 89.423 69.9078C89.6582 70.1112 89.9156 70.3008 90.2426 70.311C90.5042 70.3188 90.7424 70.221 90.9482 70.0578C91.1882 69.867 91.3825 69.582 91.5163 69.348C91.5373 69.3114 91.586 69.192 91.6184 69.1092C91.691 69.1032 91.7911 69.0942 91.8367 69.0846C92.0785 69.0372 92.3011 68.9376 92.5093 68.8092C92.6857 68.7006 92.7409 68.469 92.6317 68.2932C92.5237 68.1168 92.2921 68.0616 92.1163 68.1702C91.9837 68.2518 91.8445 68.319 91.6909 68.349C91.6219 68.3628 91.5074 68.3592 91.4156 68.3748C91.3202 68.3916 91.2368 68.4228 91.175 68.4624C91.1108 68.5032 91.0327 68.5848 90.9745 68.7024C90.9325 68.7876 90.8683 68.9616 90.8611 68.9832C90.7825 69.1194 90.6794 69.2826 90.5504 69.4098C90.4682 69.4902 90.3781 69.5646 90.2659 69.561C90.1651 69.558 90.0889 69.4962 90.0145 69.4344C89.9257 69.3612 89.8423 69.2778 89.7589 69.204C89.6551 69.1116 89.4871 68.955 89.3509 68.9166C89.3365 68.913 89.0126 68.8458 88.8956 69.1524C88.8764 69.2034 88.7875 69.462 88.7839 69.4722C88.7083 69.6828 88.6304 69.8934 88.5278 70.0926C88.3988 70.3434 88.22 70.6128 87.9926 70.809C87.8072 70.9686 87.5881 71.0814 87.3319 71.0538C87.0559 71.025 86.8574 70.8684 86.7134 70.6548C86.8568 70.3956 86.981 70.1184 87.0854 69.8232C87.1364 69.678 87.1789 69.5298 87.2197 69.3816C87.2479 69.279 87.2732 69.1764 87.2954 69.0726C87.3134 68.9874 87.3283 68.9016 87.3415 68.8152C87.3679 68.6364 87.4016 68.1852 87.305 67.8936C87.2348 67.6812 87.1021 67.533 86.9317 67.4652C86.8129 67.4172 86.6665 67.4016 86.4865 67.4604C86.2369 67.5414 86.045 67.7196 85.9082 67.9506C85.748 68.2206 85.667 68.5674 85.6328 68.8344C85.5674 69.3456 85.6226 70.0428 85.8554 70.6224ZM86.6132 68.244C86.5706 68.2914 86.5388 68.3532 86.5106 68.4156C86.4338 68.583 86.3965 68.7762 86.3767 68.9292C86.3521 69.1236 86.3485 69.3528 86.3719 69.5898L86.378 69.5742C86.423 69.4452 86.4607 69.3144 86.4967 69.183C86.5207 69.0948 86.5423 69.006 86.5615 68.916C86.5765 68.8464 86.5891 68.7756 86.5993 68.7048C86.6113 68.6238 86.6293 68.4594 86.6197 68.3004C86.6191 68.2836 86.6168 68.2644 86.6132 68.244Z" fill="#171718"/>
<path fill-rule="evenodd" clip-rule="evenodd" d="M86.2587 74.4599C87.6381 73.9163 88.9809 73.2689 90.3177 72.6275C90.5043 72.5375 90.5829 72.3137 90.4935 72.1271C90.4035 71.9405 90.1797 71.8613 89.9931 71.9513C88.6725 72.5849 87.3465 73.2251 85.9839 73.7621C85.7913 73.8377 85.6965 74.0561 85.7721 74.2487C85.8483 74.4413 86.0661 74.5361 86.2587 74.4599Z" fill="#171718"/>
<path fill-rule="evenodd" clip-rule="evenodd" d="M14.0771 76.6884C14.0771 76.6884 8.47007 107.456 7.58747 116.922C6.70487 126.388 10.8833 126.959 15.4781 128.44C20.0729 129.922 48.6347 135.227 57.4865 135.61C66.3389 135.991 67.0223 133.924 68.4527 128.686C69.8831 123.447 75.9617 93.4734 76.9061 87.8328C77.8505 82.1916 77.5661 77.8284 72.6539 76.4256C67.7423 75.0228 35.0459 68.4312 27.3077 67.4826C19.5695 66.534 16.3553 66.3912 14.0771 76.6884Z" fill="white"/>
<path fill-rule="evenodd" clip-rule="evenodd" d="M13.71 76.6074C13.7094 76.6122 13.7082 76.6164 13.7076 76.6212C13.7076 76.6212 8.09694 107.414 7.21314 116.887C6.84954 120.789 7.34216 123.221 8.34116 124.837C9.84236 127.265 12.5153 127.879 15.3629 128.797C19.9685 130.282 48.597 135.601 57.4698 135.984C62.0304 136.181 64.4807 135.71 65.9813 134.552C67.4933 133.385 68.0711 131.504 68.8139 128.785C70.2455 123.541 76.3301 93.5406 77.2757 87.8946C78.2573 82.0266 77.8655 77.5242 72.7565 76.065C67.8383 74.6604 35.1006 68.0598 27.3528 67.1106C23.3814 66.624 20.5727 66.3774 18.4631 67.5402C16.3445 68.7078 14.8842 71.301 13.71 76.6074ZM14.4438 76.7628C15.5478 71.7768 16.8336 69.2946 18.825 68.1972C20.8266 67.0938 23.4942 67.3932 27.2615 67.8546C34.9895 68.802 67.6446 75.3852 72.5502 76.7862C77.265 78.1326 77.4419 82.356 76.5359 87.771C75.5921 93.4068 69.5195 123.353 68.0903 128.587C67.4027 131.107 66.9239 132.877 65.5229 133.958C64.1111 135.048 61.7939 135.419 57.5021 135.235C48.6707 134.854 20.1768 129.562 15.5928 128.083C14.2296 127.644 12.903 127.287 11.7378 126.748C10.6266 126.233 9.66475 125.551 8.97895 124.442C8.03875 122.922 7.61815 120.628 7.96015 116.957C8.83435 107.582 14.3478 77.292 14.4438 76.7628Z" fill="#171718"/>
<path fill-rule="evenodd" clip-rule="evenodd" d="M19.9384 118.129L16.3477 126.413L24.3067 128.322L25.3766 120.344L19.9384 118.129Z" fill="white"/>
<path fill-rule="evenodd" clip-rule="evenodd" d="M20.08 117.781C19.8909 117.704 19.6756 117.792 19.5942 117.979L16.0034 126.264C15.9596 126.365 15.9627 126.481 16.0121 126.58C16.0616 126.68 16.1524 126.752 16.2601 126.778L24.2191 128.686C24.3224 128.711 24.4314 128.691 24.519 128.631C24.6066 128.571 24.6643 128.477 24.6787 128.372L25.7485 120.394C25.771 120.224 25.6765 120.061 25.5181 119.996L20.08 117.781ZM20.1363 118.614L24.9666 120.581L23.99 127.86L16.8692 126.152L20.1363 118.614Z" fill="#171718"/>
<path fill-rule="evenodd" clip-rule="evenodd" d="M104.178 148.04C104.525 149.112 104.838 150.193 105.163 151.271C105.223 151.469 105.432 151.582 105.63 151.522C105.828 151.462 105.941 151.253 105.881 151.055C105.554 149.972 105.24 148.886 104.892 147.809C104.829 147.613 104.617 147.505 104.42 147.568C104.223 147.632 104.115 147.843 104.178 148.04Z" fill="#171718"/>
<path fill-rule="evenodd" clip-rule="evenodd" d="M110.49 145.834C110.924 146.216 111.36 146.608 111.749 147.037C111.887 147.19 112.125 147.202 112.278 147.064C112.431 146.924 112.443 146.687 112.305 146.534C111.897 146.083 111.441 145.672 110.986 145.271C110.831 145.135 110.594 145.15 110.457 145.305C110.32 145.46 110.335 145.698 110.49 145.834Z" fill="#171718"/>
<path fill-rule="evenodd" clip-rule="evenodd" d="M96.3042 148.872C95.9964 149.438 95.7594 150.032 95.4942 150.618C95.409 150.806 95.493 151.028 95.6814 151.114C95.8704 151.199 96.0924 151.115 96.1776 150.926C96.435 150.357 96.6642 149.78 96.963 149.23C97.062 149.048 96.9942 148.82 96.8124 148.721C96.6306 148.622 96.4026 148.69 96.3042 148.872Z" fill="#171718"/>
<path fill-rule="evenodd" clip-rule="evenodd" d="M96.6827 110.672C97.0463 111.587 97.4303 112.502 97.7645 113.429C97.8347 113.623 98.0495 113.724 98.2445 113.654C98.4389 113.584 98.5403 113.369 98.4701 113.174C98.1329 112.241 97.7459 111.318 97.3799 110.396C97.3037 110.203 97.0853 110.109 96.8933 110.186C96.7007 110.262 96.6065 110.48 96.6827 110.672Z" fill="#171718"/>
<path fill-rule="evenodd" clip-rule="evenodd" d="M106.271 111.626C106.037 112.424 105.888 113.234 105.777 114.057C105.749 114.262 105.893 114.451 106.098 114.479C106.303 114.506 106.492 114.362 106.52 114.157C106.626 113.372 106.767 112.598 106.99 111.837C107.048 111.638 106.934 111.43 106.736 111.371C106.537 111.313 106.329 111.427 106.271 111.626Z" fill="#171718"/>
<path fill-rule="evenodd" clip-rule="evenodd" d="M90.1983 118.708C90.7977 119.216 91.3911 119.731 91.9641 120.269C92.1147 120.41 92.3523 120.403 92.4939 120.252C92.6355 120.101 92.6283 119.864 92.4777 119.722C91.8957 119.176 91.2927 118.652 90.6837 118.135C90.5259 118.001 90.2895 118.021 90.1557 118.179C90.0213 118.337 90.0411 118.573 90.1983 118.708Z" fill="#171718"/>
<path d="M115.547 68.5629C117.981 68.5629 119.954 66.5899 119.954 64.1562C119.954 61.7224 117.981 59.7494 115.547 59.7494C113.114 59.7494 111.141 61.7224 111.141 64.1562C111.141 66.5899 113.114 68.5629 115.547 68.5629Z" fill="white"/>
<path fill-rule="evenodd" clip-rule="evenodd" d="M115.548 59.3745C112.908 59.3745 110.766 61.5174 110.766 64.1562C110.766 66.7956 112.908 68.9382 115.548 68.9382C118.186 68.9382 120.329 66.7956 120.329 64.1562C120.329 61.5174 118.186 59.3745 115.548 59.3745ZM115.548 60.1248C117.772 60.1248 119.579 61.9308 119.579 64.1562C119.579 66.3816 117.772 68.1882 115.548 68.1882C113.322 68.1882 111.516 66.3816 111.516 64.1562C111.516 61.9308 113.322 60.1248 115.548 60.1248Z" fill="#171718"/>
<path fill-rule="evenodd" clip-rule="evenodd" d="M113.687 64.7724L115.35 65.7876C115.442 65.844 115.554 65.8578 115.656 65.826C115.76 65.7936 115.844 65.7186 115.888 65.6202L117.528 61.9374C117.612 61.7484 117.527 61.5264 117.338 61.4424C117.149 61.3584 116.927 61.4436 116.843 61.6326L115.376 64.9254L114.078 64.1322C113.901 64.0242 113.67 64.08 113.562 64.2564C113.455 64.4334 113.511 64.6644 113.687 64.7724Z" fill="#171718"/>
<path fill-rule="evenodd" clip-rule="evenodd" d="M120.259 134.126C120.259 134.126 121.245 136.764 119.492 138.383C119.492 138.383 122.523 139.097 123.562 141.14C123.562 141.14 122.701 137.619 124.102 135.972C124.102 135.972 121.643 136.301 120.259 134.126Z" fill="white"/>
<path fill-rule="evenodd" clip-rule="evenodd" d="M120.576 133.925C120.472 133.763 120.264 133.705 120.092 133.79C119.92 133.876 119.841 134.077 119.908 134.257C119.908 134.257 120.133 134.866 120.159 135.659C120.183 136.43 120.021 137.384 119.238 138.108C119.136 138.202 119.094 138.345 119.13 138.479C119.165 138.613 119.271 138.717 119.406 138.748C119.406 138.748 120.445 138.994 121.491 139.61C122.164 140.007 122.845 140.557 123.228 141.31C123.315 141.479 123.514 141.557 123.693 141.491C123.871 141.425 123.972 141.236 123.927 141.05C123.927 141.05 123.629 139.833 123.682 138.518C123.715 137.689 123.879 136.813 124.388 136.215C124.488 136.097 124.506 135.929 124.431 135.793C124.357 135.656 124.206 135.58 124.053 135.601C124.053 135.601 121.828 135.894 120.576 133.925ZM120.886 135.391C121.767 136.102 122.755 136.304 123.412 136.351C123.097 136.989 122.962 137.75 122.932 138.488C122.914 138.94 122.934 139.381 122.97 139.772C122.629 139.456 122.251 139.187 121.871 138.964C121.238 138.591 120.607 138.342 120.168 138.194C120.844 137.294 120.948 136.225 120.886 135.391Z" fill="#171718"/>
<path fill-rule="evenodd" clip-rule="evenodd" d="M83.5938 145.722C83.5938 145.722 86.0639 145.652 87.0527 143.342C87.0527 143.342 87.6354 145.14 89.3682 146.054C89.3682 146.054 87.5177 147.111 86.6039 150.917C86.6039 150.917 86.1065 146.47 83.5938 145.722Z" fill="white"/>
<path fill-rule="evenodd" clip-rule="evenodd" d="M83.5832 145.347C83.399 145.352 83.246 145.491 83.222 145.673C83.198 145.856 83.3102 146.029 83.4872 146.081C84.3914 146.351 84.989 147.169 85.4006 148.035C86.06 149.42 86.2316 150.959 86.2316 150.959C86.252 151.14 86.399 151.28 86.5808 151.292C86.7626 151.303 86.9264 151.182 86.969 151.005C87.8348 147.4 89.5544 146.38 89.5544 146.38C89.6732 146.312 89.7458 146.185 89.7434 146.048C89.741 145.912 89.6648 145.787 89.5436 145.723C87.9476 144.881 87.4094 143.227 87.4094 143.227C87.3614 143.078 87.2258 142.975 87.0698 142.967C86.9138 142.96 86.7697 143.051 86.7079 143.194C85.8145 145.282 83.5832 145.347 83.5832 145.347ZM84.7004 145.886C85.427 145.657 86.3642 145.178 87.0248 144.183C87.3278 144.738 87.8606 145.506 88.7084 146.092C88.1864 146.563 87.3344 147.55 86.675 149.369C86.5376 148.858 86.3449 148.274 86.0779 147.713C85.7431 147.009 85.2914 146.347 84.7004 145.886Z" fill="#171718"/>
<path fill-rule="evenodd" clip-rule="evenodd" d="M79.8828 115.033C79.8828 115.033 81.7315 114.826 81.8557 112.596C81.8557 112.596 82.8444 114.712 84.5022 114.826C84.5022 114.826 83.0322 115.452 82.5222 118.766C82.5222 118.766 82.0104 115.307 79.8828 115.033Z" fill="white"/>
<path fill-rule="evenodd" clip-rule="evenodd" d="M79.8415 114.66C79.6525 114.681 79.5096 114.839 79.5078 115.03C79.5066 115.219 79.647 115.38 79.8348 115.405C80.565 115.499 81.0589 116.048 81.4063 116.652C81.9781 117.647 82.1515 118.821 82.1515 118.821C82.1785 119.005 82.3356 119.141 82.5216 119.141C82.707 119.142 82.8649 119.006 82.8931 118.823C83.3617 115.777 84.6492 115.171 84.6492 115.171C84.8088 115.103 84.9012 114.934 84.8724 114.763C84.8436 114.592 84.7015 114.463 84.5281 114.451C83.9587 114.412 83.4859 114.088 83.1181 113.725C82.5247 113.14 82.1952 112.437 82.1952 112.437C82.122 112.282 81.9528 112.195 81.7842 112.228C81.6156 112.261 81.4903 112.403 81.4807 112.575C81.3763 114.461 79.8415 114.66 79.8415 114.66ZM80.9352 115.033C81.354 114.775 81.7981 114.342 82.0441 113.62C82.1959 113.827 82.3795 114.049 82.5913 114.259C82.8961 114.559 83.2597 114.83 83.6731 115.004C83.2957 115.405 82.8349 116.084 82.4887 117.209C82.3747 116.905 82.2325 116.584 82.0561 116.278C81.7729 115.786 81.4032 115.336 80.9352 115.033Z" fill="#171718"/>
<path fill-rule="evenodd" clip-rule="evenodd" d="M97.9922 103.866C97.9922 103.866 101.172 102.799 100.948 98.9892C100.948 98.9892 101.563 101.776 105.298 102.636C105.298 102.636 102.424 104.306 102.497 107.921C102.497 107.921 101.627 103.996 97.9922 103.866Z" fill="white"/>
<path fill-rule="evenodd" clip-rule="evenodd" d="M97.8691 103.511C97.6975 103.568 97.5913 103.741 97.6171 103.92C97.6435 104.099 97.7941 104.234 97.9753 104.241C101.335 104.361 102.127 108.002 102.127 108.002C102.169 108.191 102.347 108.317 102.538 108.293C102.73 108.271 102.873 108.106 102.868 107.914C102.8 104.528 105.483 102.96 105.483 102.96C105.616 102.883 105.688 102.732 105.665 102.58C105.642 102.428 105.528 102.305 105.378 102.271C101.907 101.471 101.311 98.9082 101.311 98.9082C101.269 98.7174 101.087 98.5908 100.893 98.6178C100.699 98.6448 100.559 98.8158 100.57 99.0108C100.776 102.517 97.8691 103.511 97.8691 103.511ZM99.1562 103.666C99.9392 103.124 100.925 102.133 101.234 100.466C101.781 101.27 102.756 102.23 104.455 102.791C103.75 103.389 102.673 104.557 102.273 106.345C101.74 105.338 100.781 104.116 99.1562 103.666Z" fill="#171718"/>
<path fill-rule="evenodd" clip-rule="evenodd" d="M113.289 85.863C113.289 85.863 117.571 85.515 118.655 86.8704C119.738 88.2258 120.004 95.073 120.004 95.073C120.004 95.073 123.077 83.0058 125.98 80.2872C128.882 77.5692 130.884 77.9328 132.231 77.8638L132.839 76.3248L137.433 75.465L137.641 76.7118C137.641 76.7118 143.597 73.5642 147.604 75.573C151.612 77.5818 153.802 81.3558 154.295 90.7866C154.789 100.217 154.901 119.543 133.095 127.436C133.095 127.436 129.041 115.504 125.019 111.985L139.2 104.548V102.811L128.689 105.842L127.577 98.2812C126.841 102.277 124.433 104.816 121.771 105.89C121.771 105.89 120.965 106.42 119 102.073C116.483 96.5052 113.289 85.863 113.289 85.863Z" fill="#335CFF"/>
<path fill-rule="evenodd" clip-rule="evenodd" d="M127.746 96.8424L126.625 89.2692C126.594 89.0646 126.404 88.923 126.199 88.9536C125.994 88.9836 125.853 89.1744 125.883 89.379L127.004 96.9522C127.034 97.1574 127.225 97.2984 127.43 97.2684C127.634 97.2378 127.777 97.047 127.746 96.8424Z" fill="#171718"/>
<path fill-rule="evenodd" clip-rule="evenodd" d="M139.575 102.81C139.575 102.81 139.525 90.6972 140.485 86.0538C141.424 81.516 142.865 79.809 142.865 79.809C143 79.6518 142.981 79.4148 142.824 79.2804C142.667 79.1454 142.43 79.164 142.295 79.3212C142.295 79.3212 140.742 81.1104 139.751 85.902C138.781 90.588 138.825 102.813 138.825 102.813C138.826 103.02 138.994 103.187 139.201 103.187C139.408 103.186 139.576 103.017 139.575 102.81Z" fill="#171718"/>
<path fill-rule="evenodd" clip-rule="evenodd" d="M131.144 77.9682L133.289 86.6862C133.329 86.8476 133.469 86.9634 133.636 86.9712C133.801 86.9796 133.952 86.8776 134.007 86.721L137.346 77.19C137.414 76.9944 137.311 76.7802 137.116 76.7118C136.921 76.6434 136.706 76.7466 136.638 76.9416L133.716 85.2828L131.872 77.7888C131.822 77.5878 131.619 77.4648 131.418 77.5146C131.217 77.5638 131.094 77.7672 131.144 77.9682Z" fill="#171718"/>
<path fill-rule="evenodd" clip-rule="evenodd" d="M128.76 78.1908L127.657 85.1496C127.631 85.3128 127.715 85.4742 127.865 85.5462L131.001 87.0594L129.781 89.5032C129.719 89.6274 129.731 89.7756 129.811 89.889L133.639 95.2386C133.759 95.4072 133.994 95.4462 134.162 95.3256C134.33 95.205 134.369 94.971 134.249 94.8024L130.553 89.6358L131.842 87.0546C131.886 86.9646 131.894 86.8608 131.861 86.766C131.829 86.6706 131.76 86.5926 131.669 86.5494L128.441 84.9918L129.501 78.3084C129.533 78.1038 129.393 77.9118 129.189 77.8794C128.985 77.847 128.792 77.9868 128.76 78.1908Z" fill="#171718"/>
<path fill-rule="evenodd" clip-rule="evenodd" d="M133.278 86.61L133.874 103.832C133.881 104.038 134.055 104.201 134.262 104.194C134.469 104.186 134.631 104.012 134.623 103.805L134.027 86.5836C134.02 86.3772 133.846 86.2146 133.639 86.2218C133.432 86.229 133.27 86.403 133.278 86.61Z" fill="#171718"/>
<path fill-rule="evenodd" clip-rule="evenodd" d="M134.27 95.4018L138.45 88.4772C138.53 88.3434 138.52 88.1742 138.424 88.0512L137.077 86.3418L139.451 84.1878C139.529 84.1164 139.574 84.0156 139.574 83.91V76.0212C139.574 75.8142 139.405 75.6462 139.199 75.6462C138.992 75.6462 138.824 75.8142 138.824 76.0212V83.7438L136.315 86.0214C136.169 86.1534 136.15 86.376 136.272 86.5308L137.674 88.3116L133.628 95.0142C133.521 95.1912 133.578 95.4216 133.756 95.529C133.933 95.6358 134.163 95.5788 134.27 95.4018Z" fill="#171718"/>
<path fill-rule="evenodd" clip-rule="evenodd" d="M133.613 77.4264L131.941 80.8488C131.849 81.0348 131.927 81.2598 132.113 81.3504C132.299 81.441 132.523 81.3642 132.614 81.1782L134.287 77.7558C134.378 77.5698 134.3 77.3448 134.114 77.2542C133.928 77.163 133.704 77.2404 133.613 77.4264Z" fill="#171718"/>
<path fill-rule="evenodd" clip-rule="evenodd" d="M133.626 77.7803L135.413 80.8325C135.518 81.0113 135.748 81.0713 135.926 80.9663C136.105 80.8619 136.165 80.6322 136.06 80.4534L134.273 77.4018C134.169 77.223 133.938 77.163 133.76 77.2674C133.581 77.3718 133.521 77.6021 133.626 77.7803Z" fill="#171718"/>
<path fill-rule="evenodd" clip-rule="evenodd" d="M112.868 85.5241L112.276 83.2422C112.276 83.2422 109.617 80.4984 110.876 77.8638C110.876 77.8638 105.059 75.6348 105.214 72.9648C105.369 70.2942 109.675 73.2313 109.675 73.2313L108.887 70.1844C108.887 70.1844 111.582 71.445 112.949 72.0042C114.315 72.5628 116.167 73.3189 116.486 77.5909C116.805 81.8629 116.412 85.7641 116.412 85.7641C116.412 85.7641 114.698 85.5043 112.868 85.5241Z" fill="white"/>
<path fill-rule="evenodd" clip-rule="evenodd" d="M112.505 85.6176C112.548 85.785 112.7 85.9008 112.872 85.8984C114.671 85.8798 116.355 86.1348 116.355 86.1348C116.457 86.1504 116.561 86.1234 116.642 86.0604C116.723 85.9974 116.774 85.9038 116.785 85.8018C116.785 85.8018 117.181 81.8694 116.86 77.5632C116.692 75.315 116.105 73.9968 115.396 73.1622C114.675 72.315 113.821 71.9556 113.091 71.6568C111.73 71.1006 109.045 69.8442 109.045 69.8442C108.914 69.783 108.759 69.8028 108.647 69.8958C108.536 69.9882 108.487 70.1376 108.523 70.278L109.08 72.4308C108.489 72.0984 107.664 71.6934 106.929 71.538C106.288 71.403 105.71 71.4648 105.327 71.7948C105.063 72.0234 104.872 72.3852 104.84 72.9426C104.787 73.8438 105.311 74.715 106.11 75.4722C107.451 76.7448 109.553 77.7138 110.385 78.0678C110.015 79.1022 110.15 80.1348 110.472 81.0234C110.912 82.2324 111.699 83.1636 111.936 83.4276L112.505 85.6176ZM113.157 85.1478L112.639 83.148C112.623 83.0856 112.59 83.028 112.545 82.9818C112.545 82.9818 111.644 82.0494 111.177 80.7672C110.88 79.9476 110.759 78.9786 111.214 78.0252C111.259 77.931 111.262 77.8224 111.223 77.7252C111.184 77.628 111.107 77.5512 111.009 77.514C111.009 77.514 108.965 76.731 107.363 75.5418C106.848 75.159 106.378 74.7348 106.046 74.2788C105.748 73.8696 105.562 73.4376 105.588 72.9864C105.606 72.6894 105.676 72.4842 105.818 72.3624C106.044 72.1668 106.395 72.1914 106.774 72.2718C107.988 72.528 109.463 73.5408 109.463 73.5408C109.592 73.629 109.762 73.6278 109.89 73.5378C110.018 73.4478 110.077 73.2882 110.038 73.137L109.448 70.8582C110.348 71.2728 111.881 71.9724 112.806 72.351C113.442 72.6114 114.197 72.9096 114.824 73.6476C115.463 74.3988 115.961 75.5952 116.112 77.619C116.369 81.0612 116.16 84.261 116.072 85.3404C115.499 85.2702 114.373 85.1538 113.157 85.1478Z" fill="#171718"/>
<path fill-rule="evenodd" clip-rule="evenodd" d="M109.512 73.5684C109.512 73.5684 111.415 74.4834 112.326 74.6586C112.529 74.6976 112.726 74.5644 112.765 74.361C112.804 74.1576 112.671 73.9614 112.467 73.9224C111.615 73.7586 109.839 72.8934 109.839 72.8934C109.653 72.8034 109.428 72.8814 109.338 73.0674C109.248 73.254 109.326 73.4784 109.512 73.5684Z" fill="#171718"/>
<path fill-rule="evenodd" clip-rule="evenodd" d="M106.094 59.404C106.094 59.404 137.172 52.3813 145.411 50.3965C153.641 48.4136 164.091 46.3812 164.091 46.3812C164.294 46.3417 164.427 46.1447 164.387 45.9415C164.348 45.7384 164.151 45.6055 163.947 45.645C163.947 45.645 153.48 47.6811 145.235 49.6674C136.998 51.6517 105.929 58.6725 105.929 58.6725C105.727 58.7181 105.6 58.919 105.646 59.1209C105.692 59.3227 105.893 59.4496 106.094 59.404Z" fill="#171718"/>
<path d="M21.8261 72.4645C22.4975 72.7576 23.2794 72.451 23.5725 71.7796C23.8656 71.1082 23.5589 70.3264 22.8875 70.0333C22.2162 69.7402 21.4343 70.0468 21.1412 70.7182C20.8481 71.3896 21.1548 72.1714 21.8261 72.4645Z" fill="white"/>
<path fill-rule="evenodd" clip-rule="evenodd" d="M23.0361 69.6896C22.1755 69.3139 21.1715 69.7075 20.7958 70.5681C20.4201 71.4287 20.814 72.4325 21.6746 72.8082C22.5352 73.1839 23.5391 72.7903 23.9148 71.9297C24.2905 71.0691 23.8966 70.0653 23.0361 69.6896ZM22.736 70.377C23.2171 70.587 23.4375 71.1484 23.2275 71.6296C23.0174 72.1109 22.4558 72.3309 21.9747 72.1209C21.4935 71.9108 21.2731 71.3494 21.4832 70.8682C21.6933 70.387 22.2548 70.1669 22.736 70.377Z" fill="#171718"/>
<path d="M27.1621 73.2182C27.8335 73.5113 28.6153 73.2046 28.9084 72.5333C29.2015 71.8619 28.8948 71.08 28.2235 70.7869C27.5521 70.4938 26.7702 70.8005 26.4771 71.4719C26.184 72.1432 26.4907 72.9251 27.1621 73.2182Z" fill="white"/>
<path fill-rule="evenodd" clip-rule="evenodd" d="M28.3759 70.4433C27.5153 70.0676 26.5114 70.4612 26.1357 71.3218C25.76 72.1824 26.1539 73.1862 27.0144 73.5619C27.875 73.9376 28.879 73.544 29.2547 72.6834C29.6304 71.8228 29.2365 70.8189 28.3759 70.4433ZM28.0758 71.1306C28.557 71.3407 28.7774 71.9021 28.5673 72.3833C28.3572 72.8646 27.7957 73.0846 27.3145 72.8745C26.8334 72.6645 26.6129 72.1031 26.823 71.6218C27.0331 71.1406 27.5947 70.9206 28.0758 71.1306Z" fill="#171718"/>
<path d="M32.1972 74.0773C32.8686 74.3704 33.6505 74.0638 33.9436 73.3924C34.2367 72.721 33.93 71.9392 33.2586 71.6461C32.5872 71.353 31.8054 71.6596 31.5123 72.331C31.2192 73.0024 31.5259 73.7842 32.1972 74.0773Z" fill="white"/>
<path fill-rule="evenodd" clip-rule="evenodd" d="M33.4111 71.3024C32.5505 70.9267 31.5465 71.3203 31.1708 72.1809C30.7951 73.0415 31.189 74.0453 32.0496 74.421C32.9102 74.7967 33.9141 74.4031 34.2898 73.5425C34.6655 72.6819 34.2716 71.6781 33.4111 71.3024ZM33.111 71.9897C33.5921 72.1998 33.8125 72.7612 33.6025 73.2424C33.3924 73.7237 32.8308 73.9437 32.3497 73.7337C31.8685 73.5236 31.6481 72.9622 31.8582 72.481C32.0683 71.9998 32.6298 71.7797 33.111 71.9897Z" fill="#171718"/>
<path fill-rule="evenodd" clip-rule="evenodd" d="M125.017 111.985L107.51 121.605C107.51 121.605 101.564 121.764 100.408 122.423C99.2508 123.083 90.8724 136.169 89.9982 137.328C89.124 138.487 91.1334 141.107 93.3648 140.022C93.3648 140.022 94.6608 143.15 97.2114 141.898C97.2114 141.898 98.907 144.481 100.931 143.228C102.956 141.974 112.153 134.368 112.153 134.368L132.43 125.603C130.813 120.439 128.374 115.876 125.017 111.985Z" fill="white"/>
<path fill-rule="evenodd" clip-rule="evenodd" d="M125.134 111.989L107.417 121.232C106.915 121.248 104.349 121.337 102.408 121.583C101.425 121.709 100.597 121.886 100.226 122.098C99.9785 122.239 99.4062 122.897 98.6676 123.892C95.9028 127.616 90.4014 136.175 89.7024 137.102C89.2674 137.678 89.3538 138.551 89.8548 139.298C90.4962 140.254 91.782 140.988 93.1872 140.503C93.3546 140.813 93.6509 141.287 94.0733 141.698C94.7621 142.369 95.7702 142.881 97.0926 142.363C97.2924 142.615 97.6415 143.009 98.0963 143.337C98.8805 143.904 99.9593 144.273 101.133 143.546C103.085 142.337 111.686 135.243 112.354 134.69L132.582 125.947C132.772 125.865 132.859 125.644 132.777 125.454C132.695 125.264 132.474 125.177 132.284 125.258L112.008 134.023C111.976 134.037 111.945 134.056 111.918 134.078C111.918 134.078 102.755 141.659 100.738 142.909C99.8861 143.436 99.1049 143.141 98.5355 142.729C97.9169 142.282 97.5287 141.693 97.5287 141.693C97.4249 141.535 97.2198 141.479 97.05 141.562C95.9634 142.094 95.1444 141.694 94.5966 141.161C94.0104 140.591 93.7146 139.879 93.7146 139.879C93.675 139.783 93.5975 139.708 93.5009 139.672C93.4043 139.635 93.2969 139.64 93.2039 139.685C92.4479 140.052 91.7225 139.918 91.1711 139.561C90.6719 139.238 90.3084 138.739 90.1992 138.26C90.1398 138 90.1553 137.746 90.3011 137.554C91.0007 136.627 96.504 128.065 99.2694 124.339C99.6762 123.791 100.022 123.35 100.283 123.057C100.422 122.901 100.525 122.791 100.597 122.749C100.92 122.565 101.647 122.437 102.503 122.328C104.632 122.057 107.524 121.979 107.524 121.979C107.581 121.978 107.636 121.964 107.687 121.937L125.481 112.654C125.665 112.558 125.736 112.331 125.64 112.148C125.545 111.965 125.318 111.893 125.134 111.989Z" fill="#171718"/>
<path fill-rule="evenodd" clip-rule="evenodd" d="M166.296 83.2476L167.192 84.876C167.292 85.0572 167.52 85.1232 167.702 85.0236C167.883 84.924 167.949 84.6954 167.849 84.5142L166.953 82.8858C166.854 82.7046 166.626 82.6386 166.444 82.7382C166.263 82.8378 166.197 83.0658 166.296 83.2476Z" fill="#171718"/>
<path fill-rule="evenodd" clip-rule="evenodd" d="M163.647 87.9648L165.283 89.4438C165.437 89.5824 165.674 89.5704 165.813 89.4168C165.952 89.2638 165.94 89.0262 165.786 88.8876L164.15 87.408C163.997 87.2694 163.759 87.2814 163.621 87.435C163.481 87.5886 163.493 87.8256 163.647 87.9648Z" fill="#171718"/>
<path fill-rule="evenodd" clip-rule="evenodd" d="M162.742 93.5082L164.323 93.936C164.523 93.99 164.729 93.8718 164.783 93.672C164.837 93.4722 164.718 93.2658 164.519 93.2118L162.938 92.784C162.738 92.73 162.532 92.8482 162.478 93.048C162.424 93.2478 162.542 93.4542 162.742 93.5082Z" fill="#171718"/>
<path fill-rule="evenodd" clip-rule="evenodd" d="M14.9616 74.0962C14.9616 74.0962 44.5013 79.6888 48.4698 80.4511C52.4376 81.2128 77.1241 86.1673 77.1241 86.1673C77.3269 86.2085 77.525 86.0766 77.5655 85.8736C77.6061 85.6706 77.4749 85.4731 77.2714 85.4319C77.2714 85.4319 52.5802 80.4762 48.6111 79.7145C44.6427 78.9522 15.1013 73.3596 15.1013 73.3596C14.8978 73.3208 14.7015 73.4545 14.6628 73.6581C14.6246 73.8616 14.7582 74.058 14.9616 74.0962Z" fill="#171718"/>
<path d="M44.6528 64.2819C49.6819 64.2819 53.7588 60.2051 53.7588 55.176C53.7588 50.1469 49.6819 46.0701 44.6528 46.0701C39.6237 46.0701 35.5469 50.1469 35.5469 55.176C35.5469 60.2051 39.6237 64.2819 44.6528 64.2819Z" fill="white"/>
<path fill-rule="evenodd" clip-rule="evenodd" d="M44.6523 45.6952C39.4197 45.6952 35.1719 49.9434 35.1719 55.1761C35.1719 60.4085 39.4197 64.6569 44.6523 64.6569C49.8849 64.6569 54.1333 60.4085 54.1333 55.1761C54.1333 49.9434 49.8849 45.6952 44.6523 45.6952ZM44.6523 46.4451C49.4712 46.4451 53.3832 50.3574 53.3832 55.1761C53.3832 59.9948 49.4712 63.9069 44.6523 63.9069C39.834 63.9069 35.9213 59.9948 35.9213 55.1761C35.9213 50.3574 39.834 46.4451 44.6523 46.4451Z" fill="#171718"/>
<path d="M44.6577 62.3459C48.6172 62.3459 51.8271 59.136 51.8271 55.1765C51.8271 51.2169 48.6172 48.0071 44.6577 48.0071C40.6981 48.0071 37.4883 51.2169 37.4883 55.1765C37.4883 59.136 40.6981 62.3459 44.6577 62.3459Z" fill="white"/>
<path fill-rule="evenodd" clip-rule="evenodd" d="M44.6575 47.6321C40.4938 47.6321 37.1133 51.0126 37.1133 55.1765C37.1133 59.3405 40.4938 62.7211 44.6575 62.7211C48.8217 62.7211 52.2022 59.3405 52.2022 55.1765C52.2022 51.0126 48.8217 47.6321 44.6575 47.6321ZM44.6575 48.3821C48.4077 48.3821 51.4522 51.4266 51.4522 55.1765C51.4522 58.9265 48.4077 61.971 44.6575 61.971C40.9078 61.971 37.8633 58.9265 37.8633 55.1765C37.8633 51.4266 40.9078 48.3821 44.6575 48.3821Z" fill="#171718"/>
<path fill-rule="evenodd" clip-rule="evenodd" d="M24.599 75.5144L22.8292 81.4643C22.7701 81.663 22.8829 81.8718 23.0814 81.9314C23.2801 81.99 23.4888 81.8774 23.548 81.6787L25.3178 75.7288C25.3769 75.5302 25.2635 75.3214 25.0648 75.2627C24.8669 75.2031 24.6574 75.3167 24.599 75.5144Z" fill="#171718"/>
<path fill-rule="evenodd" clip-rule="evenodd" d="M16.2109 86.7546L26.4745 89.334C26.4745 89.334 27.3787 82.7382 23.1889 81.57C18.9985 80.4012 16.6927 85.185 16.2109 86.7546Z" fill="#22C55E"/>
<path fill-rule="evenodd" clip-rule="evenodd" d="M18.7997 87.4049C18.7997 87.4049 18.0179 89.7107 20.2085 90.3125C22.3991 90.9137 23.1137 89.3063 23.1887 88.5083L18.7997 87.4049Z" fill="white"/>
<path fill-rule="evenodd" clip-rule="evenodd" d="M18.8912 87.0413C18.7022 86.9939 18.5078 87.0995 18.4448 87.2849C18.4448 87.2849 17.549 89.9711 20.1098 90.6737C21.116 90.9503 21.8498 90.8027 22.3748 90.4889C23.1812 90.0077 23.5094 89.1053 23.5622 88.5431C23.5796 88.3589 23.4595 88.1897 23.2801 88.1441L18.8912 87.0413ZM19.0748 87.8609L22.7563 88.7861C22.6549 89.1527 22.4233 89.5865 21.9907 89.8451C21.6007 90.0773 21.0542 90.1553 20.3084 89.9507C18.9638 89.5817 18.9764 88.4351 19.0748 87.8609Z" fill="#171718"/>
<path fill-rule="evenodd" clip-rule="evenodd" d="M31.0804 98.8632C31.0804 98.8632 30.6106 104.114 34.4818 105.198C38.353 106.283 40.5376 103.205 40.5598 99.1566L40.4746 95.5278L35.9182 94.1088L31.5508 96.3804L31.0804 98.8632Z" fill="white"/>
<path fill-rule="evenodd" clip-rule="evenodd" d="M30.711 98.793C30.7086 98.805 30.7068 98.8176 30.7062 98.8296C30.7062 98.8296 30.5293 100.81 31.2631 102.64C31.7701 103.901 32.7007 105.089 34.3795 105.559C36.0583 106.03 37.4425 105.764 38.5033 105.012C40.0543 103.912 40.92 101.726 40.9338 99.1584C40.9338 99.1548 40.9338 99.1512 40.9338 99.1476L40.8486 95.5194C40.845 95.358 40.7388 95.2176 40.5852 95.1696L36.0288 93.7506C35.9346 93.7212 35.8321 93.7302 35.7445 93.7764L31.3771 96.0474C31.2751 96.1008 31.203 96.1974 31.1814 96.3102L30.711 98.793ZM31.4514 98.913L31.8846 96.6288L35.9533 94.5126L40.1052 95.8062L40.1838 99.1596C40.17 101.449 39.4525 103.42 38.0695 104.4C37.1731 105.036 36 105.235 34.5822 104.837C32.799 104.338 32.0299 102.866 31.6921 101.532C31.3663 100.244 31.44 99.0678 31.4514 98.9136V98.913Z" fill="#171718"/>
<path fill-rule="evenodd" clip-rule="evenodd" d="M31.1528 100.724C31.1528 100.724 29.1596 101.142 28.781 99.2724C28.5566 98.1648 29.4866 97.3284 29.4866 97.3284C29.4866 97.3284 28.634 95.58 29.5184 94.2528C30.4022 92.9256 32.1152 93.2064 32.1152 93.2064C32.1152 93.2064 32.009 91.5084 33.8582 90.726C35.4824 90.0384 36.9482 91.3446 36.9482 91.3446C36.9482 91.3446 38.3828 89.721 40.2638 90.645C42.0698 91.5318 41.6282 93.6594 41.6282 93.6594C41.6282 93.6594 43.2614 93.8046 43.5176 95.1516C43.8128 96.6996 42.3248 97.3866 42.3248 97.3866C42.3248 97.3866 43.55 98.13 42.9962 99.612C42.395 101.221 40.3982 100.93 40.3982 100.93C40.3982 100.93 40.6502 99.6822 40.5578 98.8728C40.5578 98.8728 39.6776 98.4084 39.5984 97.251C39.5984 97.251 37.4198 97.245 36.9482 96.048C36.9482 96.048 35.4812 97.6644 33.8204 96.8976C33.8204 96.8976 32.8814 98.9292 31.0784 98.8632C31.0784 98.8632 30.9662 100.043 31.1528 100.724Z" fill="#171718"/>
<path fill-rule="evenodd" clip-rule="evenodd" d="M31.2289 101.091C31.3303 101.07 31.4179 101.008 31.4719 100.919C31.5259 100.831 31.5409 100.724 31.5139 100.625C31.4005 100.211 31.4083 99.6 31.4275 99.2268C32.0899 99.1608 32.6383 98.8542 33.0673 98.4834C33.5077 98.1024 33.8167 97.656 33.9913 97.365C34.8247 97.6242 35.5981 97.4052 36.1837 97.0908C36.4591 96.9426 36.6907 96.7746 36.8653 96.6318C37.1413 96.9618 37.5379 97.1922 37.9579 97.3416C38.4415 97.5144 38.9473 97.5822 39.2671 97.6086C39.4261 98.4198 39.9253 98.8854 40.1983 99.0858C40.2379 99.8424 40.0303 100.856 40.0303 100.856C40.0099 100.957 40.0315 101.062 40.0909 101.146C40.1503 101.23 40.2415 101.286 40.3435 101.301C40.3435 101.301 40.9057 101.385 41.5531 101.24C42.2311 101.089 42.9919 100.693 43.3465 99.7434C43.7683 98.616 43.3279 97.8456 42.9457 97.4304C43.4377 97.047 44.1145 96.2826 43.8853 95.0814C43.7305 94.2666 43.1671 93.8082 42.6337 93.5604C42.4171 93.4596 42.2071 93.3948 42.0385 93.3534C42.0817 92.6316 41.9791 91.0698 40.4287 90.3084C38.7937 89.5056 37.4557 90.3954 36.9193 90.855C36.3733 90.483 35.0923 89.796 33.7111 90.3804C32.2111 91.0152 31.8475 92.1852 31.7629 92.8098C31.1329 92.808 29.9281 92.9598 29.2051 94.0446C28.4257 95.2152 28.8373 96.678 29.0491 97.2492C28.7509 97.6014 28.2187 98.3892 28.4125 99.3468C28.8637 101.574 31.2289 101.091 31.2289 101.091ZM30.7111 100.393C30.2143 100.4 29.3611 100.252 29.1475 99.198C28.9633 98.2896 29.7367 97.6074 29.7367 97.6074C29.8609 97.4958 29.8963 97.3146 29.8231 97.1646C29.8231 97.1646 29.5477 96.5958 29.4985 95.883C29.4673 95.4312 29.5261 94.9158 29.8297 94.4604C30.5857 93.3258 32.0539 93.5766 32.0539 93.5766C32.1667 93.5946 32.2813 93.561 32.3659 93.4842C32.4505 93.408 32.4961 93.297 32.4889 93.183C32.4889 93.183 32.4181 91.7418 34.0033 91.0716C35.4211 90.4716 36.6979 91.6242 36.6979 91.6242C36.7723 91.6908 36.8701 91.725 36.9697 91.719C37.0693 91.713 37.1623 91.6674 37.2283 91.593C37.2283 91.593 38.4691 90.1818 40.0975 90.9816C41.6527 91.7454 41.2603 93.5832 41.2603 93.5832C41.2381 93.6876 41.2621 93.7968 41.3263 93.8826C41.3899 93.969 41.4877 94.0236 41.5939 94.0326C41.5939 94.0326 41.9419 94.0656 42.3181 94.2402C42.6655 94.4022 43.0471 94.6896 43.1485 95.2218C43.3903 96.4878 42.1669 97.0464 42.1669 97.0464C42.0409 97.104 41.9575 97.227 41.9497 97.3656C41.9419 97.5042 42.0109 97.6356 42.1297 97.707C42.1297 97.707 43.0843 98.3034 42.6439 99.4812C42.3979 100.14 41.8597 100.403 41.3893 100.508C41.1865 100.553 40.9951 100.57 40.8379 100.574C40.9075 100.115 40.9921 99.3774 40.9297 98.8302C40.9153 98.7072 40.8415 98.5992 40.7323 98.5416C40.7323 98.5416 40.0357 98.1588 39.9715 97.2252C39.9583 97.029 39.7957 96.8766 39.5983 96.876C39.5983 96.876 38.8789 96.8742 38.2099 96.6354C37.8259 96.498 37.4455 96.2892 37.2961 95.91C37.2487 95.7894 37.1425 95.7024 37.0147 95.679C36.8869 95.6556 36.7567 95.7 36.6697 95.796C36.6697 95.796 36.3409 96.1548 35.8291 96.4296C35.3425 96.6912 34.6807 96.882 33.9769 96.5568C33.7891 96.4704 33.5659 96.552 33.4789 96.7404C33.4789 96.7404 33.1729 97.4004 32.5765 97.9158C32.2015 98.2404 31.7065 98.511 31.0915 98.4882C30.8929 98.481 30.7231 98.6298 30.7045 98.8272C30.7045 98.8272 30.6271 99.6828 30.7111 100.393Z" fill="#171718"/>
<path fill-rule="evenodd" clip-rule="evenodd" d="M23.7376 130.275L24.8183 121.39L17.5391 118.277C17.5391 118.277 23.368 109.623 27.5362 107.91C31.705 106.197 40.9504 106.989 44.6638 109.406C48.3766 111.822 53.446 121.496 53.446 121.496L43.5562 125.006L42.4546 133.717C36.4828 132.76 30.2662 131.629 23.7376 130.275Z" fill="#EF4444"/>
<path fill-rule="evenodd" clip-rule="evenodd" d="M25.1915 121.445L25.7489 117.654C25.7789 117.449 25.6373 117.259 25.4327 117.228C25.2275 117.198 25.0373 117.34 25.0067 117.545L24.4493 121.336C24.4193 121.54 24.5609 121.731 24.7655 121.761C24.9707 121.791 25.1609 121.649 25.1915 121.445Z" fill="#171718"/>
<path fill-rule="evenodd" clip-rule="evenodd" d="M54.2781 96.1309L48.8921 98.7212L54.0199 99.035L53.9979 99.279C53.8671 100.753 54.956 102.055 56.4304 102.186C61.2339 102.613 71.2811 103.507 76.0846 103.934C77.559 104.066 78.8611 102.977 78.9919 101.502C79.2212 98.9279 79.5657 95.054 79.7944 92.4795C79.9258 91.0051 78.8369 89.7037 77.3625 89.5723C72.5585 89.1454 62.5118 88.2516 57.7077 87.8241C56.2333 87.6927 54.9319 88.7817 54.8005 90.2561L54.2781 96.1309Z" fill="white"/>
<path fill-rule="evenodd" clip-rule="evenodd" d="M53.6157 99.3856C53.5452 101.008 54.7639 102.414 56.3973 102.559C61.2014 102.987 71.248 103.881 76.0521 104.308C77.7326 104.458 79.2163 103.217 79.366 101.535C79.5948 98.9616 79.9399 95.087 80.1686 92.5125C80.3183 90.832 79.0765 89.3484 77.396 89.1987C72.5926 88.7717 62.5453 87.878 57.7418 87.4505C56.0608 87.3008 54.5771 88.542 54.428 90.223L53.9242 95.8851L48.7304 98.383C48.5765 98.4573 48.4918 98.6257 48.5249 98.7933C48.5574 98.961 48.6994 99.0853 48.8699 99.0954L53.6157 99.3856ZM54.4412 96.4685C54.5605 96.4112 54.6403 96.2954 54.6522 96.1639L55.1747 90.2897C55.2878 89.0213 56.407 88.0846 57.6753 88.1977C62.4787 88.6247 72.526 89.5184 77.3295 89.946C78.5978 90.0591 79.5344 91.1782 79.4213 92.4466C79.1925 95.0204 78.8481 98.895 78.6187 101.469C78.5062 102.737 77.3864 103.674 76.1187 103.561L56.464 101.813C55.1956 101.699 54.2595 100.58 54.372 99.312L54.3941 99.068C54.4026 98.9671 54.3707 98.8671 54.3048 98.7901C54.2383 98.7132 54.1442 98.6663 54.043 98.6603L50.3533 98.4347L54.4412 96.4685Z" fill="#171718"/>
<path fill-rule="evenodd" clip-rule="evenodd" d="M59.4604 93.1864L74.7337 94.5452C74.9401 94.5636 75.1225 94.411 75.1408 94.2049C75.1591 93.9988 75.0067 93.8163 74.8003 93.7979L59.5269 92.4392C59.3205 92.4207 59.1382 92.5733 59.1199 92.7794C59.1016 92.9855 59.254 93.168 59.4604 93.1864Z" fill="#171718"/>
<path fill-rule="evenodd" clip-rule="evenodd" d="M59.113 97.6039L70.2176 98.5917C70.4239 98.6103 70.6061 98.4574 70.6244 98.2513C70.6427 98.0452 70.4905 97.863 70.2842 97.8444L59.1795 96.8566C58.9733 96.8386 58.791 96.991 58.7727 97.1971C58.7544 97.4031 58.9067 97.5853 59.113 97.6039Z" fill="#171718"/>
<path fill-rule="evenodd" clip-rule="evenodd" d="M50.5488 116.86L70.0314 120.037C70.2354 120.07 70.4286 119.932 70.4616 119.727C70.4952 119.523 70.3561 119.33 70.1521 119.297L50.6694 116.119C50.4654 116.086 50.2722 116.225 50.2392 116.429C50.2062 116.633 50.3448 116.826 50.5488 116.86Z" fill="#171718"/>
<path fill-rule="evenodd" clip-rule="evenodd" d="M69.45 108.489C69.5506 107.267 68.6421 106.196 67.4204 106.095C64.6769 105.869 60.0257 105.486 57.2821 105.26C56.0604 105.159 54.9887 106.068 54.8881 107.289C54.7446 109.031 54.5454 111.448 54.4019 113.19C54.3012 114.412 55.2097 115.484 56.4314 115.584C59.175 115.81 63.8262 116.193 66.5698 116.419C67.7915 116.52 68.8631 115.612 68.9637 114.39C69.1073 112.648 69.3065 110.231 69.45 108.489Z" fill="white"/>
<path fill-rule="evenodd" clip-rule="evenodd" d="M69.8231 108.52C69.9407 107.092 68.8786 105.839 67.4506 105.721C64.707 105.495 60.0558 105.112 57.3122 104.886C55.8842 104.769 54.6312 105.831 54.5135 107.259C54.37 109 54.1709 111.417 54.0273 113.16C53.9097 114.587 54.9719 115.84 56.3999 115.958L66.5383 116.793C67.9663 116.911 69.2193 115.849 69.3369 114.421L69.8231 108.52ZM69.076 108.458L68.5898 114.36C68.5061 115.374 67.6152 116.13 66.5999 116.046L56.4615 115.211C55.4461 115.127 54.6909 114.236 54.7745 113.221L55.2607 107.32C55.3444 106.305 56.2353 105.55 57.2506 105.633L67.389 106.469C68.4043 106.552 69.1597 107.443 69.076 108.458Z" fill="#171718"/>
<path fill-rule="evenodd" clip-rule="evenodd" d="M67.8311 108.901C67.8987 108.08 67.2883 107.36 66.4676 107.293C64.2394 107.109 60.0574 106.765 57.8296 106.581C57.0089 106.514 56.289 107.124 56.2213 107.945C56.1102 109.294 55.9471 111.273 55.8359 112.622C55.7683 113.443 56.3787 114.163 57.1994 114.231C59.4272 114.414 63.6092 114.759 65.8374 114.942C66.6581 115.01 67.3781 114.4 67.4457 113.579C67.5569 112.23 67.72 110.25 67.8311 108.901Z" fill="white"/>
<path fill-rule="evenodd" clip-rule="evenodd" d="M68.2042 108.932C68.2888 107.905 67.525 107.004 66.4977 106.919C64.2695 106.735 60.0875 106.391 57.8597 106.207C56.8324 106.123 55.9314 106.887 55.8468 107.914C55.7356 109.263 55.5725 111.242 55.4614 112.592C55.3768 113.619 56.1405 114.52 57.1679 114.604C59.3956 114.788 63.5777 115.132 65.8058 115.316C66.8332 115.401 67.7342 114.637 67.8188 113.61L68.2042 108.932ZM67.4566 108.87L67.0712 113.548C67.0205 114.162 66.482 114.619 65.8674 114.569L57.2295 113.857C56.615 113.806 56.158 113.267 56.2086 112.653L56.594 107.975C56.6446 107.361 57.1836 106.904 57.7982 106.955L66.4361 107.666C67.0506 107.717 67.5072 108.256 67.4566 108.87Z" fill="#171718"/>
<path fill-rule="evenodd" clip-rule="evenodd" d="M65.8147 121.549C65.8349 121.304 65.7572 121.062 65.5988 120.875C65.44 120.688 65.2137 120.572 64.9694 120.551C63.3102 120.415 59.8382 120.129 58.1787 119.992C57.9344 119.972 57.6921 120.05 57.5052 120.208C57.3183 120.367 57.202 120.593 57.1819 120.837C57.1819 120.837 57.1819 120.837 57.1819 120.837C57.1618 121.082 57.2395 121.324 57.3979 121.511C57.5563 121.698 57.7826 121.814 58.0269 121.835C59.6864 121.971 63.1584 122.257 64.8176 122.394C65.0619 122.414 65.3042 122.336 65.4914 122.178C65.6783 122.019 65.7946 121.793 65.8147 121.549C65.8147 121.549 65.8147 121.549 65.8147 121.549Z" fill="white"/>
<path fill-rule="evenodd" clip-rule="evenodd" d="M66.192 121.579C66.2203 121.236 66.1108 120.895 65.8881 120.632C65.6652 120.369 65.3471 120.206 65.0035 120.178C63.3443 120.041 59.8723 119.755 58.2128 119.618C57.8695 119.59 57.529 119.699 57.266 119.922C57.0034 120.145 56.8396 120.463 56.8113 120.806C56.8113 120.807 56.8113 120.807 56.8113 120.807C56.783 121.15 56.8925 121.491 57.1151 121.754C57.3381 122.016 57.6561 122.18 57.9994 122.208C59.6589 122.345 63.1309 122.631 64.7901 122.768C65.1337 122.796 65.4742 122.687 65.7372 122.464C65.9999 122.241 66.1637 121.923 66.192 121.58L66.192 121.579ZM65.4444 121.518L65.4444 121.518C65.4324 121.663 65.3633 121.798 65.2522 121.892C65.141 121.986 64.997 122.032 64.8517 122.02C63.1925 121.884 59.7205 121.598 58.061 121.461C57.916 121.449 57.7815 121.38 57.6873 121.269C57.5931 121.157 57.5469 121.013 57.5588 120.868C57.5588 120.868 57.5588 120.868 57.5589 120.868C57.5708 120.723 57.64 120.588 57.7511 120.494C57.8622 120.4 58.0063 120.354 58.1513 120.366C59.8108 120.502 63.2828 120.788 64.9419 120.925C65.0872 120.937 65.2218 121.006 65.316 121.117C65.4102 121.229 65.4564 121.373 65.4444 121.518Z" fill="#171718"/>
<path d="M64.0735 116.217L59.1992 115.815L58.8602 119.929L63.7345 120.331L64.0735 116.217Z" fill="white"/>
<path fill-rule="evenodd" clip-rule="evenodd" d="M64.4465 116.248C64.4635 116.041 64.31 115.86 64.1035 115.843L59.2294 115.441C59.0229 115.424 58.8417 115.578 58.8247 115.784L58.4857 119.898C58.4687 120.105 58.6224 120.286 58.8288 120.303L63.703 120.704C63.9094 120.721 64.0905 120.568 64.1075 120.361L64.4465 116.248ZM63.6682 116.56L63.3908 119.926L59.2641 119.586L59.5415 116.22L63.6682 116.56Z" fill="#171718"/>
<path fill-rule="evenodd" clip-rule="evenodd" d="M53.0053 121.556L56.2765 125.513C56.2765 125.513 64.2912 126.375 69.8346 127.144C75.378 127.913 82.6309 128.148 85.5115 126.877C88.3915 125.607 92.691 122.732 96.3948 123.499C100.099 124.265 106.202 124.921 106.722 126.321C107.242 127.721 103.771 130.111 98.9022 128.716C98.9022 128.716 97.4215 131.852 93.6787 131.954C93.6787 131.954 91.1701 135.434 90.4645 136.656C89.7589 137.878 89.2405 137.847 90.6235 139.616C90.6235 139.616 70.8756 141.607 58.1598 140.643C49.0554 139.953 47.9653 138.455 46.3129 135.422C44.6605 132.391 43.1641 128.104 43.1641 128.104L43.5558 125.006L53.0053 121.556Z" fill="white"/>
<path fill-rule="evenodd" clip-rule="evenodd" d="M93.6619 131.579C92.9713 131.612 92.1517 131.527 91.2169 131.345C91.0135 131.305 90.8161 131.437 90.7765 131.641C90.7369 131.843 90.8695 132.041 91.0729 132.08C92.0755 132.277 92.9563 132.363 93.6967 132.329C93.9037 132.319 94.0633 132.143 94.0537 131.936C94.0441 131.73 93.8689 131.57 93.6619 131.579Z" fill="#171718"/>
<path fill-rule="evenodd" clip-rule="evenodd" d="M93.6471 140.272L97.6467 135.783C97.7841 135.628 97.7704 135.391 97.6162 135.253C97.4614 135.116 97.2243 135.13 97.0863 135.284L93.0873 139.773C92.9493 139.927 92.9631 140.165 93.1179 140.302C93.2721 140.44 93.5097 140.426 93.6471 140.272Z" fill="#171718"/>
<path fill-rule="evenodd" clip-rule="evenodd" d="M97.4185 142.125L100.911 138.205C101.049 138.05 101.035 137.813 100.881 137.675C100.726 137.537 100.489 137.551 100.351 137.706L96.8587 141.626C96.7209 141.78 96.7347 142.018 96.8889 142.155C97.0437 142.293 97.2807 142.279 97.4185 142.125Z" fill="#171718"/>
<path fill-rule="evenodd" clip-rule="evenodd" d="M106.755 140.313C106.755 140.313 103.697 137.414 102.494 137.6C101.291 137.786 100.572 139.198 100.637 139.9C100.702 140.601 103.343 142.904 104.899 143.076C106.456 143.248 107.732 140.863 106.755 140.313Z" fill="white"/>
<path fill-rule="evenodd" clip-rule="evenodd" d="M106.982 140.012C106.759 139.804 105.368 138.522 104.138 137.782C103.483 137.389 102.857 137.164 102.437 137.229C101.73 137.338 101.16 137.797 100.781 138.343C100.401 138.891 100.224 139.52 100.263 139.935C100.275 140.061 100.331 140.225 100.445 140.41C100.57 140.615 100.768 140.861 101.022 141.123C101.973 142.107 103.703 143.321 104.858 143.448C105.958 143.57 106.961 142.637 107.321 141.708C107.595 141.002 107.484 140.328 106.982 140.012ZM106.497 140.585C106.519 140.606 106.544 140.624 106.571 140.639C106.66 140.69 106.701 140.778 106.715 140.88C106.738 141.046 106.698 141.24 106.622 141.437C106.37 142.086 105.708 142.788 104.94 142.703C103.916 142.59 102.405 141.475 101.561 140.602C101.353 140.387 101.187 140.187 101.085 140.02C101.047 139.957 101.014 139.908 101.01 139.865C100.983 139.577 101.133 139.15 101.398 138.77C101.664 138.387 102.054 138.047 102.551 137.97C102.649 137.955 102.764 137.977 102.892 138.015C103.15 138.092 103.445 138.241 103.752 138.425C105.034 139.196 106.497 140.585 106.497 140.585Z" fill="#171718"/>
<path fill-rule="evenodd" clip-rule="evenodd" d="M47.2995 52.1801C46.728 51.6016 45.9506 50.9586 45.1377 50.7742C44.5037 50.6303 43.6477 50.7878 43.0384 51.2081C42.5975 51.5125 42.2858 51.948 42.2335 52.4859C42.1419 53.4307 42.84 54.1876 43.5788 54.6432C44.386 55.1411 45.2441 55.4623 45.9242 56.153C46.182 56.415 46.4395 56.7181 46.5011 57.09C46.5828 57.582 46.3123 57.9493 45.9363 58.1921C45.5056 58.4701 44.9364 58.5968 44.4747 58.5535C43.4959 58.4616 42.869 57.7309 42.3346 56.9744C42.215 56.8054 41.9811 56.7651 41.8121 56.8845C41.643 57.004 41.6029 57.2382 41.7219 57.4073C42.3824 58.3409 43.1959 59.1869 44.4049 59.3002C45.0172 59.3576 45.7722 59.1909 46.343 58.8222C46.9684 58.4184 47.3769 57.7861 47.241 56.9673C47.1542 56.4428 46.8227 55.9962 46.4587 55.6268C45.7349 54.8918 44.8315 54.5348 43.9721 54.005C43.4625 53.6906 42.9164 53.2103 42.9797 52.5584C43.0102 52.2454 43.208 52.0025 43.4648 51.8253C43.9022 51.5234 44.5161 51.4021 44.9718 51.5055C45.6522 51.6601 46.2874 52.2228 46.766 52.7073C46.9119 52.8544 47.1494 52.8559 47.2965 52.7104C47.4437 52.5649 47.4449 52.3273 47.2995 52.1801Z" fill="#171718"/>
<path fill-rule="evenodd" clip-rule="evenodd" d="M45.4955 50.4319C44.6524 53.4016 43.3351 56.2136 42.6382 59.2297C42.5918 59.4313 42.7177 59.6328 42.9195 59.6792C43.1209 59.7264 43.3225 59.6004 43.3689 59.3986C44.0629 56.3947 45.3771 53.5946 46.2172 50.6368C46.274 50.4376 46.158 50.2301 45.9592 50.1735C45.7598 50.117 45.5523 50.2328 45.4955 50.4319Z" fill="#171718"/>
<path fill-rule="evenodd" clip-rule="evenodd" d="M166.126 55.6033L170.3 48.1896C160.117 42.7558 140.549 32.396 140.549 32.396L131.777 32.7378L136.036 40.1531L166.126 55.6033Z" fill="white"/>
<path fill-rule="evenodd" clip-rule="evenodd" d="M165.955 55.937C166.134 56.029 166.354 55.963 166.453 55.7873L170.629 48.3736C170.677 48.2857 170.689 48.1815 170.659 48.0846C170.629 47.9878 170.563 47.9063 170.476 47.8588C160.293 42.4248 140.724 32.0647 140.724 32.0647C140.666 32.0338 140.6 32.0188 140.534 32.0214L131.763 32.3632C131.632 32.3683 131.512 32.4415 131.449 32.5564C131.386 32.6711 131.387 32.8108 131.452 32.9246L135.711 40.34C135.747 40.4027 135.8 40.4537 135.865 40.4868L165.955 55.937ZM165.976 55.105C165.976 55.105 138.175 40.83 136.306 39.8702C136.306 39.8702 133.381 34.7779 132.411 33.0884L140.463 32.7748C141.883 33.5267 159.922 43.079 169.784 48.34L165.976 55.105Z" fill="#171718"/>
<path fill-rule="evenodd" clip-rule="evenodd" d="M133.976 36.151L135.684 32.7677C135.777 32.583 135.703 32.3572 135.518 32.2639C135.333 32.1706 135.108 32.2449 135.014 32.4296L133.306 35.813C133.212 35.9977 133.287 36.2235 133.472 36.3168C133.656 36.4101 133.882 36.3358 133.976 36.151Z" fill="#171718"/>
<path fill-rule="evenodd" clip-rule="evenodd" d="M136.206 40.4869L139.327 38.8886C139.485 38.808 139.564 38.628 139.518 38.4572L138.914 36.2204L140.956 35.5031C141.119 35.4456 141.222 35.2835 141.204 35.111L140.921 32.3576C140.9 32.1518 140.716 32.0018 140.51 32.023C140.303 32.0442 140.154 32.2285 140.175 32.4344L140.428 34.8936L138.337 35.6282C138.152 35.6933 138.049 35.8902 138.1 36.0797L138.715 38.3595L135.864 39.8193C135.68 39.9137 135.607 40.1398 135.701 40.3241C135.796 40.5083 136.022 40.5812 136.206 40.4869Z" fill="#171718"/>
<path fill-rule="evenodd" clip-rule="evenodd" d="M140.652 35.4784L168.705 50.8082C168.886 50.9074 169.114 50.8406 169.214 50.659C169.313 50.4774 169.246 50.2493 169.064 50.1501L141.012 34.8202C140.83 34.721 140.602 34.7878 140.503 34.9695C140.404 35.1511 140.47 35.3791 140.652 35.4784Z" fill="#171718"/>
<path fill-rule="evenodd" clip-rule="evenodd" d="M138.986 38.8888L167.322 53.3733C167.507 53.4675 167.733 53.3943 167.827 53.2101C167.921 53.0258 167.848 52.7997 167.664 52.7055L139.327 38.2209C139.143 38.1267 138.917 38.1999 138.822 38.3842C138.728 38.5685 138.801 38.7945 138.986 38.8888Z" fill="#171718"/>
<path d="M35.5128 99.4646C35.7011 99.4646 35.8538 99.312 35.8538 99.1237C35.8538 98.9354 35.7011 98.7827 35.5128 98.7827C35.3245 98.7827 35.1719 98.9354 35.1719 99.1237C35.1719 99.312 35.3245 99.4646 35.5128 99.4646Z" fill="#171718"/>
<path d="M38.4464 99.6181C38.6347 99.6181 38.7874 99.4655 38.7874 99.2772C38.7874 99.0889 38.6347 98.9362 38.4464 98.9362C38.2581 98.9362 38.1055 99.0889 38.1055 99.2772C38.1055 99.4655 38.2581 99.6181 38.4464 99.6181Z" fill="#171718"/>
<path fill-rule="evenodd" clip-rule="evenodd" d="M14.6367 128.175C14.6367 128.175 16.0575 126.019 18.3849 125.387C20.7123 124.756 24.2469 124.127 26.2167 126.836C28.1865 129.546 28.4043 131.249 28.4043 131.249L24.8205 130.553C24.8205 130.553 24.9195 133.995 23.6577 134.739C22.3959 135.483 21.7521 134.046 21.8127 132.881C21.8127 132.881 21.2007 134.63 20.1999 134.58C19.1997 134.531 19.0899 132.94 19.0899 132.94C19.0899 132.94 19.0065 134.79 17.5413 134.513C16.4751 134.312 15.8271 130.699 15.6747 128.501L14.6367 128.175Z" fill="white"/>
<path fill-rule="evenodd" clip-rule="evenodd" d="M19.0793 134.218C19.3067 134.616 19.6619 134.929 20.1821 134.955C20.7005 134.98 21.1547 134.663 21.4937 134.237C21.5315 134.189 21.5687 134.14 21.6035 134.09C21.6773 134.311 21.7751 134.516 21.8945 134.689C22.1567 135.067 22.5203 135.305 22.9649 135.318C23.2259 135.326 23.5223 135.254 23.8487 135.062C24.2957 134.798 24.6185 134.262 24.8231 133.621C25.1093 132.721 25.1789 131.619 25.1939 131.008L28.3331 131.617C28.4513 131.641 28.5731 131.605 28.6607 131.523C28.7489 131.441 28.7915 131.321 28.7765 131.201C28.7765 131.201 28.5641 129.427 26.5199 126.616C25.4621 125.161 23.9879 124.595 22.4621 124.485C20.9975 124.379 19.4867 124.7 18.2867 125.026C15.8273 125.693 14.3237 127.969 14.3237 127.969C14.2589 128.066 14.2439 128.189 14.2835 128.3C14.3225 128.411 14.4119 128.497 14.5241 128.533L15.3203 128.783C15.4493 130.343 15.8045 132.461 16.3541 133.694C16.5221 134.071 16.7117 134.371 16.9127 134.569C17.0879 134.742 17.2775 134.845 17.4719 134.882C18.2981 135.038 18.7889 134.678 19.0793 134.218ZM15.2555 127.976C15.7691 127.351 16.9049 126.178 18.4835 125.749C19.6115 125.443 21.0311 125.134 22.4081 125.233C23.7239 125.328 25.0013 125.803 25.9133 127.057C27.1727 128.789 27.6941 130.091 27.9023 130.769L24.8927 130.185C24.7805 130.163 24.6653 130.193 24.5783 130.267C24.4913 130.341 24.4427 130.45 24.4463 130.564C24.4463 130.564 24.4805 131.757 24.2459 132.866C24.1709 133.219 24.0695 133.563 23.9267 133.853C23.8073 134.096 23.6627 134.301 23.4677 134.416C23.2157 134.565 23.0045 134.605 22.8275 134.537C22.6439 134.465 22.5107 134.293 22.4093 134.086C22.2401 133.744 22.1663 133.303 22.1873 132.901C22.1969 132.715 22.0685 132.549 21.8855 132.513C21.7019 132.477 21.5207 132.581 21.4589 132.757C21.4589 132.757 21.2609 133.325 20.9069 133.77C20.7221 134.002 20.5013 134.219 20.2187 134.206C19.9637 134.193 19.8137 134.005 19.7087 133.807C19.4969 133.405 19.4639 132.914 19.4639 132.914C19.4507 132.716 19.2845 132.563 19.0853 132.566C18.8867 132.568 18.7241 132.725 18.7151 132.923C18.7151 132.923 18.6977 133.311 18.5267 133.669C18.3851 133.966 18.1187 134.24 17.6111 134.144C17.5247 134.128 17.4527 134.057 17.3771 133.967C17.2553 133.822 17.1443 133.624 17.0393 133.388C16.4879 132.151 16.1531 129.974 16.0493 128.476C16.0385 128.321 15.9347 128.19 15.7877 128.144L15.2555 127.976Z" fill="#171718"/>
<path fill-rule="evenodd" clip-rule="evenodd" d="M19.4649 132.942L19.4805 129.357C19.4811 129.15 19.3143 128.981 19.1073 128.981C18.9003 128.98 18.7311 129.147 18.7305 129.354L18.7149 132.939C18.7137 133.146 18.8811 133.315 19.0881 133.315C19.2951 133.316 19.4637 133.149 19.4649 132.942Z" fill="#171718"/>
<path fill-rule="evenodd" clip-rule="evenodd" d="M22.1867 132.908L22.3973 130.012C22.4123 129.805 22.2569 129.625 22.0505 129.61C21.8441 129.595 21.6641 129.751 21.6491 129.957L21.4385 132.854C21.4235 133.06 21.5789 133.24 21.7859 133.255C21.9917 133.27 22.1717 133.115 22.1867 132.908Z" fill="#171718"/>
<path fill-rule="evenodd" clip-rule="evenodd" d="M30.7506 107.608L30.3942 110.194C30.3756 110.327 30.4302 110.459 30.5358 110.542C30.6426 110.624 30.7842 110.643 30.9084 110.591L35.7468 108.599L39.6804 111.748C39.7848 111.832 39.9264 111.853 40.0512 111.804C40.1766 111.755 40.2654 111.643 40.2852 111.511L40.767 108.289C40.7976 108.084 40.656 107.893 40.4514 107.862C40.2468 107.831 40.0554 107.973 40.0248 108.178L39.6402 110.755L36.0426 107.875C35.9358 107.789 35.7918 107.769 35.6652 107.821L31.2264 109.649L31.4934 107.71C31.5216 107.505 31.3782 107.315 31.173 107.287C30.9684 107.259 30.7788 107.402 30.7506 107.608Z" fill="#171718"/>
<path fill-rule="evenodd" clip-rule="evenodd" d="M35.4373 108.134L34.9741 113.355C34.9561 113.561 35.1085 113.743 35.3143 113.762C35.5207 113.78 35.7031 113.627 35.7211 113.421L36.1843 108.2C36.2029 107.995 36.0499 107.812 35.8441 107.794C35.6377 107.776 35.4553 107.928 35.4373 108.134Z" fill="#171718"/>
<path fill-rule="evenodd" clip-rule="evenodd" d="M43.9307 125.053L44.6801 119.167C44.7065 118.961 44.5607 118.774 44.3555 118.747C44.1503 118.721 43.9625 118.867 43.9361 119.072L43.1867 124.958C43.1603 125.164 43.3061 125.351 43.5113 125.378C43.7165 125.404 43.9043 125.258 43.9307 125.053Z" fill="#171718"/>
<path fill-rule="evenodd" clip-rule="evenodd" d="M33.6909 100.334C33.6909 100.334 33.8055 101.218 34.5711 101.833C35.0577 102.224 35.8143 102.522 36.9975 102.366C37.2027 102.339 37.3473 102.151 37.3203 101.945C37.2933 101.74 37.1049 101.596 36.8997 101.623C35.9967 101.741 35.4123 101.547 35.0409 101.249C34.5201 100.83 34.4343 100.234 34.4343 100.234C34.4067 100.029 34.2177 99.885 34.0125 99.9126C33.8073 99.9402 33.6633 100.129 33.6909 100.334Z" fill="#171718"/>
<path fill-rule="evenodd" clip-rule="evenodd" d="M36.9491 99.612C36.9491 99.612 40.3001 100.976 40.6727 101.128C41.5883 101.5 41.4701 102.791 39.9695 102.311C38.5757 101.864 36.5195 100.804 36.5195 100.804" fill="white"/>
<path fill-rule="evenodd" clip-rule="evenodd" d="M36.8076 99.9594C36.8076 99.9594 40.1592 101.324 40.5318 101.475C40.6962 101.542 40.8114 101.651 40.8588 101.774C40.884 101.84 40.8924 101.911 40.8486 101.96C40.8096 102.004 40.7442 102.025 40.6602 102.036C40.5096 102.055 40.3188 102.029 40.0842 101.954C38.7132 101.515 36.6918 100.47 36.6918 100.47C36.5076 100.375 36.2814 100.447 36.1866 100.631C36.0912 100.815 36.1638 101.042 36.3474 101.137C36.3474 101.137 38.4384 102.214 39.855 102.668C40.6638 102.927 41.1666 102.731 41.409 102.458C41.8194 101.997 41.6472 101.119 40.8138 100.78C40.4412 100.629 37.0902 99.2652 37.0902 99.2652C36.8988 99.1872 36.6798 99.279 36.6018 99.471C36.5238 99.6624 36.6156 99.8814 36.8076 99.9594Z" fill="#171718"/>
<path fill-rule="evenodd" clip-rule="evenodd" d="M52.716 121.795L55.9872 125.752C56.0496 125.828 56.139 125.876 56.2362 125.886C56.2362 125.886 64.2444 126.747 69.783 127.516C75.3984 128.295 82.7448 128.507 85.6626 127.22C87.1002 126.586 88.8918 125.551 90.7866 124.771C92.6136 124.019 94.5366 123.497 96.3186 123.866C98.8992 124.4 102.65 124.877 104.846 125.596C105.37 125.767 105.8 125.949 106.091 126.154C106.227 126.25 106.33 126.343 106.37 126.452C106.438 126.634 106.382 126.839 106.255 127.048C106.085 127.328 105.79 127.604 105.396 127.854C104.103 128.672 101.794 129.154 99.0054 128.356C98.829 128.305 98.6418 128.39 98.5632 128.556C98.5632 128.556 97.1724 131.484 93.6684 131.579C93.5514 131.582 93.4428 131.64 93.3744 131.735C93.3744 131.735 90.8502 135.239 90.1398 136.469C89.9286 136.834 89.7342 137.087 89.6028 137.309C89.4858 137.508 89.412 137.69 89.3886 137.885C89.3586 138.128 89.4024 138.397 89.5818 138.749C89.6634 138.91 89.7756 139.092 89.9256 139.307C86.397 139.639 69.5034 141.127 58.188 140.269C52.8408 139.864 50.3112 139.199 48.7992 138.071C47.8134 137.335 47.2746 136.403 46.6422 135.243C45.1362 132.481 43.7622 128.668 43.5474 128.062L43.9278 125.053C43.9536 124.847 43.8084 124.66 43.6026 124.634C43.3974 124.607 43.2096 124.753 43.1838 124.958L42.792 128.056C42.7848 128.114 42.7908 128.172 42.81 128.227C42.81 128.227 44.3184 132.547 45.9834 135.602C46.6728 136.867 47.2764 137.87 48.3504 138.672C49.9278 139.849 52.554 140.594 58.131 141.017C70.8732 141.983 90.6612 139.99 90.6612 139.99C90.7968 139.976 90.9144 139.889 90.9684 139.763C91.0218 139.638 91.0032 139.493 90.9186 139.385C90.5928 138.968 90.3774 138.659 90.2502 138.409C90.1596 138.231 90.1176 138.1 90.1326 137.977C90.1488 137.845 90.2214 137.729 90.3126 137.588C90.441 137.387 90.609 137.156 90.789 136.844C91.4034 135.781 93.3936 132.995 93.8766 132.322C97.0272 132.152 98.6172 129.946 99.0882 129.155C102.533 130.05 105.267 129.11 106.441 127.991C107.068 127.394 107.272 126.725 107.074 126.191C106.989 125.963 106.807 125.742 106.524 125.542C106.186 125.303 105.689 125.082 105.079 124.883C102.862 124.158 99.0762 123.671 96.471 123.131C94.926 122.812 93.2814 123.091 91.6728 123.636C89.3466 124.424 87.096 125.768 85.3596 126.534C82.5168 127.788 75.3576 127.532 69.8862 126.773C64.7868 126.065 57.5976 125.279 56.4684 125.157L53.2938 121.316C53.1624 121.157 52.9254 121.135 52.7658 121.267C52.6062 121.399 52.584 121.635 52.716 121.795Z" fill="#171718"/>
<path fill-rule="evenodd" clip-rule="evenodd" d="M109.34 137.781C109.34 137.781 106.062 134.673 104.772 134.872C103.483 135.072 102.712 136.585 102.782 137.338C102.852 138.09 105.682 140.557 107.35 140.742C109.019 140.926 110.386 138.37 109.34 137.781Z" fill="white"/>
<path fill-rule="evenodd" clip-rule="evenodd" d="M109.57 137.479C109.338 137.263 107.844 135.885 106.524 135.091C105.829 134.673 105.165 134.433 104.719 134.502C103.969 134.617 103.364 135.106 102.963 135.684C102.559 136.265 102.371 136.933 102.412 137.373C102.424 137.505 102.484 137.677 102.603 137.871C102.736 138.088 102.948 138.351 103.218 138.63C104.233 139.681 106.08 140.979 107.313 141.114C108.48 141.243 109.542 140.252 109.925 139.266C110.213 138.522 110.1 137.811 109.57 137.479ZM109.085 138.052C109.107 138.073 109.132 138.092 109.159 138.107C109.262 138.165 109.31 138.267 109.326 138.384C109.352 138.566 109.309 138.779 109.225 138.995C108.952 139.701 108.23 140.461 107.395 140.369C106.292 140.247 104.665 139.049 103.757 138.109C103.533 137.877 103.353 137.661 103.243 137.48C103.199 137.409 103.163 137.352 103.158 137.303C103.129 136.99 103.291 136.525 103.579 136.111C103.868 135.694 104.293 135.327 104.833 135.243C104.941 135.226 105.069 135.25 105.21 135.292C105.489 135.375 105.807 135.535 106.138 135.734C107.514 136.561 109.085 138.052 109.085 138.052Z" fill="#171718"/>
<path fill-rule="evenodd" clip-rule="evenodd" d="M111.847 134.621C111.847 134.621 108.57 131.513 107.28 131.713C105.991 131.912 105.22 133.426 105.29 134.178C105.36 134.93 108.19 137.398 109.858 137.582C111.526 137.766 112.894 135.21 111.847 134.621Z" fill="white"/>
<path fill-rule="evenodd" clip-rule="evenodd" d="M112.074 134.32C111.842 134.103 110.348 132.725 109.028 131.932C108.333 131.513 107.669 131.273 107.223 131.342C106.473 131.458 105.868 131.946 105.466 132.524C105.063 133.105 104.875 133.773 104.916 134.213C104.928 134.345 104.988 134.517 105.106 134.711C105.24 134.929 105.451 135.191 105.721 135.47C106.737 136.522 108.583 137.819 109.816 137.954C110.983 138.083 112.046 137.092 112.429 136.106C112.717 135.362 112.604 134.651 112.074 134.32ZM111.589 134.893C111.611 134.914 111.636 134.932 111.663 134.947C111.766 135.005 111.814 135.107 111.83 135.224C111.856 135.406 111.813 135.619 111.729 135.835C111.456 136.541 110.734 137.302 109.899 137.209C108.796 137.087 107.169 135.889 106.261 134.95C106.036 134.717 105.857 134.501 105.747 134.32C105.703 134.249 105.667 134.192 105.662 134.143C105.633 133.831 105.795 133.365 106.083 132.952C106.372 132.535 106.797 132.167 107.337 132.083C107.445 132.067 107.572 132.09 107.714 132.132C107.992 132.215 108.31 132.376 108.642 132.574C110.017 133.402 111.589 134.893 111.589 134.893Z" fill="#171718"/>
<path fill-rule="evenodd" clip-rule="evenodd" d="M127.375 67.9578C127.375 67.9578 128.688 72.9492 129.047 75.012C129.405 77.0742 131.487 79.0158 134.042 77.0418C134.042 77.0418 135.62 77.7702 137.366 76.8822C139.111 75.9936 139.295 72.5742 139.305 70.0962C139.305 70.0962 142.121 70.311 142.224 67.9104C142.317 65.7144 140.089 65.3196 139.305 65.7354L136.757 64.3992L128.759 65.901L127.375 67.9578Z" fill="white"/>
<path fill-rule="evenodd" clip-rule="evenodd" d="M127.064 67.7484C127.004 67.8378 126.985 67.9488 127.012 68.0532C127.012 68.0532 128.321 73.0224 128.678 75.0762C128.917 76.4526 129.863 77.7672 131.183 78.135C132.022 78.369 133.024 78.2358 134.101 77.4654C134.623 77.6436 136.022 77.9868 137.536 77.2158C138.316 76.8192 138.838 75.9852 139.159 74.9328C139.564 73.602 139.659 71.916 139.677 70.4712C139.977 70.4574 140.411 70.4088 140.848 70.2582C141.686 69.9702 142.538 69.33 142.598 67.9266C142.676 66.1284 141.418 65.3652 140.344 65.235C139.96 65.1882 139.6 65.2266 139.323 65.3214L136.931 64.0674C136.856 64.0278 136.77 64.0152 136.687 64.0308L128.69 65.532C128.591 65.5506 128.504 65.6082 128.447 65.6916L127.064 67.7484ZM127.781 68.0268L128.982 66.2406L136.698 64.7916L139.131 66.0678C139.241 66.1254 139.372 66.1248 139.481 66.0666C139.664 65.97 139.948 65.9418 140.254 65.979C141.016 66.072 141.903 66.618 141.849 67.8948C141.807 68.8914 141.2 69.3444 140.604 69.549C139.963 69.7692 139.334 69.7224 139.334 69.7224C139.23 69.7146 139.127 69.7506 139.051 69.8208C138.974 69.8916 138.931 69.9906 138.931 70.095C138.925 71.5476 138.862 73.3314 138.441 74.7138C138.187 75.5472 137.812 76.2336 137.195 76.548C135.622 77.3484 134.199 76.7016 134.199 76.7016C134.072 76.6428 133.924 76.6596 133.813 76.7448C132.911 77.442 132.082 77.6076 131.384 77.4126C130.332 77.1192 129.608 76.0458 129.417 74.9478C129.095 73.0992 128.011 68.907 127.781 68.0268Z" fill="#171718"/>
<path fill-rule="evenodd" clip-rule="evenodd" d="M139.302 65.859C139.302 65.859 139.384 63.8238 138.433 62.7108C137.482 61.5978 135.338 61.6716 134.445 62.94C134.445 62.94 131.773 60.4932 129.241 62.1528C126.71 63.8124 126.88 67.2618 122.887 66.618C122.887 66.618 126.309 69.8448 130.443 67.0206C130.443 67.0206 131.671 69.5772 135.105 65.661C135.105 65.661 137.478 68.2482 139.302 65.859Z" fill="#171718"/>
<path fill-rule="evenodd" clip-rule="evenodd" d="M139.6 66.0863C139.646 66.0251 139.673 65.9514 139.676 65.874C139.676 65.874 139.749 63.6731 138.718 62.4671C138.171 61.8257 137.283 61.5143 136.399 61.5575C135.652 61.5947 134.914 61.884 134.394 62.4162C134.09 62.1858 133.575 61.8402 132.934 61.5774C131.854 61.1334 130.426 60.9282 129.036 61.8396C127.978 62.5326 127.365 63.5171 126.751 64.4153C126.265 65.1269 125.786 65.7834 124.995 66.1086C124.473 66.3234 123.819 66.3888 122.946 66.2478C122.784 66.222 122.623 66.3048 122.55 66.4524C122.478 66.6 122.51 66.7781 122.629 66.8909C122.629 66.8909 126.093 70.1688 130.344 67.533C130.55 67.7754 130.897 68.0724 131.412 68.1768C132.175 68.3322 133.398 68.0652 135.126 66.1986C135.306 66.3564 135.56 66.5573 135.864 66.7403C136.455 67.0943 137.226 67.3691 138.018 67.1897C138.548 67.0691 139.095 66.7475 139.6 66.0863ZM138.93 65.7252C138.58 66.15 138.216 66.3756 137.851 66.4584C137.261 66.5922 136.69 66.3617 136.251 66.0971C135.729 65.7839 135.382 65.4071 135.382 65.4071C135.31 65.3285 135.208 65.2847 135.101 65.2859C134.995 65.2871 134.894 65.3333 134.824 65.4137C134.007 66.3455 133.324 66.897 132.755 67.1928C132.259 67.4514 131.867 67.5042 131.561 67.4418C131.013 67.3308 130.781 66.8586 130.781 66.8586C130.734 66.7596 130.646 66.6869 130.54 66.6587C130.435 66.6299 130.322 66.6491 130.232 66.7109C127.687 68.4491 125.43 67.7483 124.179 67.0613C125.49 66.9635 126.257 66.3125 126.908 65.4803C127.658 64.5203 128.219 63.2717 129.447 62.4665C130.588 61.7183 131.762 61.9061 132.65 62.2709C133.567 62.6477 134.191 63.2165 134.191 63.2165C134.271 63.2891 134.377 63.3239 134.485 63.3125C134.592 63.3011 134.689 63.2435 134.751 63.1559C135.132 62.6159 135.783 62.3393 136.436 62.3069C137.085 62.2745 137.745 62.4827 138.148 62.9543C138.888 63.8201 138.933 65.298 138.93 65.7252Z" fill="#171718"/>
<path fill-rule="evenodd" clip-rule="evenodd" d="M139.472 68.5151L140.781 67.8635C140.965 67.7711 141.041 67.5455 140.949 67.3601C140.856 67.1753 140.631 67.0997 140.446 67.1921L139.138 67.8437C138.952 67.9361 138.877 68.1611 138.969 68.3465C139.062 68.5319 139.287 68.6075 139.472 68.5151Z" fill="#171718"/>
<path fill-rule="evenodd" clip-rule="evenodd" d="M131.784 70.1382C131.784 70.1382 129.195 73.0914 128.869 73.6608C128.577 74.172 128.813 74.9268 129.338 75.1854C129.672 75.3504 130.142 75.3534 130.653 74.889C131.555 74.07 133.153 71.589 133.153 71.589C133.265 71.415 133.214 71.1828 133.04 71.0706C132.866 70.959 132.633 71.01 132.521 71.184C132.521 71.184 131.008 73.5534 130.149 74.3334C129.954 74.5098 129.797 74.5752 129.669 74.5128C129.504 74.4312 129.428 74.1942 129.52 74.0328C129.835 73.4826 132.347 70.6332 132.347 70.6332C132.484 70.4778 132.468 70.2408 132.313 70.104C132.158 69.9678 131.921 69.9828 131.784 70.1382Z" fill="#171718"/>
<path fill-rule="evenodd" clip-rule="evenodd" d="M131.263 74.1791C131.263 74.1791 134.021 75.1866 135.149 72.4158C135.227 72.2238 135.135 72.0048 134.943 71.9268C134.751 71.8488 134.532 71.9411 134.454 72.1325C133.602 74.2283 131.519 73.4741 131.519 73.4741C131.325 73.4033 131.109 73.5042 131.038 73.6986C130.968 73.893 131.068 74.1083 131.263 74.1791Z" fill="#171718"/>
<path d="M130.056 70.6983C130.244 70.6983 130.397 70.5456 130.397 70.3573C130.397 70.169 130.244 70.0164 130.056 70.0164C129.867 70.0164 129.715 70.169 129.715 70.3573C129.715 70.5456 129.867 70.6983 130.056 70.6983Z" fill="#171718"/>
<path d="M133.962 69.8609C134.15 69.8609 134.303 69.7082 134.303 69.5199C134.303 69.3316 134.15 69.179 133.962 69.179C133.774 69.179 133.621 69.3316 133.621 69.5199C133.621 69.7082 133.774 69.8609 133.962 69.8609Z" fill="#171718"/>
<path fill-rule="evenodd" clip-rule="evenodd" d="M172.415 49.3177L168.688 56.1987L168.398 56.7708L171.899 58.5677C171.899 58.5677 173.933 59.8816 175.355 58.135C176.777 56.3884 177.389 54.5194 177.389 54.5194C177.389 54.5194 178.259 52.5348 176.207 51.3625C175.841 51.1516 174.449 50.4027 172.415 49.3177Z" fill="white"/>
<path fill-rule="evenodd" clip-rule="evenodd" d="M172.59 48.9869C172.41 48.8898 172.182 48.9578 172.086 49.1391L168.359 56.02C168.357 56.0231 168.355 56.0262 168.354 56.0292L168.064 56.6014C167.971 56.7854 168.044 57.0101 168.227 57.1044L171.714 58.8951C171.942 59.0337 174.108 60.261 175.65 58.3719C177.042 56.659 177.684 54.8314 177.744 54.6506C177.828 54.4387 178.626 52.3146 176.394 51.0369C176.022 50.8255 174.63 50.0747 172.59 48.9869ZM172.566 49.824C174.42 50.8113 175.674 51.4892 176.022 51.6879C177.768 52.6862 177.048 54.3694 177.048 54.3694C177.042 54.3803 177.042 54.3915 177.036 54.4028C177.036 54.4028 176.442 56.2091 175.068 57.898C173.844 59.394 172.104 58.2526 172.104 58.2526C172.092 58.2459 172.08 58.2396 172.068 58.234L168.901 56.6075L169.02 56.3727L172.566 49.824Z" fill="#171718"/>
<path fill-rule="evenodd" clip-rule="evenodd" d="M170.299 48.1896L166.125 55.6033L168.399 56.7708L168.688 56.1986L172.416 49.3177L170.299 48.1896Z" fill="white"/>
<path fill-rule="evenodd" clip-rule="evenodd" d="M170.474 47.8587C170.295 47.7629 170.072 47.8282 169.971 48.0057L165.798 55.4194C165.748 55.5082 165.737 55.6136 165.766 55.7112C165.795 55.8089 165.863 55.8904 165.954 55.9369L168.227 57.1044C168.316 57.15 168.419 57.1583 168.515 57.1275C168.609 57.0967 168.688 57.0292 168.733 56.9402L169.02 56.3727L172.746 49.4964C172.794 49.4085 172.806 49.3053 172.776 49.2096C172.746 49.114 172.68 49.0338 172.59 48.9868L170.474 47.8587ZM170.445 48.6928L171.906 49.4712L168.359 56.02C168.357 56.0231 168.355 56.0262 168.354 56.0293L168.234 56.265L166.643 55.4478L170.445 48.6928Z" fill="#171718"/>
</g>
<defs>
<clipPath id="clip0_696_4426">
<rect width="180" height="180" fill="white"/>
</clipPath>
</defs>
</svg>
