<svg width="180" height="180" viewBox="0 0 180 180" fill="none" xmlns="http://www.w3.org/2000/svg">
<path fill-rule="evenodd" clip-rule="evenodd" d="M83.2308 56.5632L86.1684 112.738C86.1756 112.874 86.2908 112.982 86.4276 112.975C86.5644 112.968 86.6724 112.846 86.6652 112.709L83.7276 56.5344C83.7204 56.3976 83.6052 56.2896 83.4684 56.2968C83.3316 56.304 83.2236 56.4264 83.2308 56.5632Z" fill="#171718"/>
<path fill-rule="evenodd" clip-rule="evenodd" d="M151.057 72.4896L151.187 70.0416L149.646 68.436L147.501 69.9336L147.371 72.9791L149.113 73.116L151.057 72.4896Z" fill="white"/>
<path fill-rule="evenodd" clip-rule="evenodd" d="M151.135 72.7272C151.236 72.6984 151.301 72.6048 151.308 72.4968L151.438 70.0488C151.445 69.984 151.416 69.9192 151.366 69.8616L149.825 68.256C149.738 68.1624 149.602 68.1552 149.501 68.22L147.355 69.7176C147.29 69.768 147.254 69.84 147.247 69.9192L147.118 72.9648C147.11 73.1016 147.211 73.2168 147.348 73.2312L149.09 73.3608C149.126 73.368 149.155 73.3608 149.184 73.3464L151.135 72.7272ZM150.811 72.3024L149.076 72.864L147.622 72.7488L147.737 70.0632L149.602 68.76L150.919 70.1352L150.811 72.3024Z" fill="#171718"/>
<path fill-rule="evenodd" clip-rule="evenodd" d="M157.543 76.4136L159.372 73.404L162.072 72.6408L162.907 74.2104L162.72 75.2472L161.064 78.1776L157.543 76.4136Z" fill="white"/>
<path fill-rule="evenodd" clip-rule="evenodd" d="M157.333 76.2912C157.297 76.3488 157.289 76.4209 157.304 76.4929C157.325 76.5577 157.369 76.6224 157.433 76.6512L160.961 78.4224C161.084 78.48 161.228 78.4368 161.293 78.3216L162.949 75.384C162.963 75.3624 162.97 75.3337 162.977 75.3049L163.165 74.2752C163.172 74.2176 163.165 74.16 163.143 74.1096L162.301 72.5329C162.243 72.4321 162.128 72.3816 162.013 72.4104L159.313 73.1736C159.255 73.1952 159.197 73.2313 159.169 73.2889L157.333 76.2912ZM157.894 76.32L159.536 73.62L161.948 72.936L162.653 74.2536L162.488 75.1609L160.969 77.8536L157.894 76.32Z" fill="#171718"/>
<path fill-rule="evenodd" clip-rule="evenodd" d="M147.363 65.7648L147.63 64.5048C147.63 64.5048 153.8 63.36 159.38 64.7496L159.358 65.6568L149.84 66.7152L147.363 65.7648Z" fill="white"/>
<path fill-rule="evenodd" clip-rule="evenodd" d="M147.116 65.7144C147.087 65.8368 147.159 65.9592 147.274 66.0024L149.751 66.9528C149.787 66.9672 149.83 66.9743 149.866 66.9671L159.385 65.9088C159.507 65.8944 159.608 65.7935 159.608 65.6711L159.629 64.764C159.629 64.6416 159.55 64.5407 159.442 64.5191C153.812 63.1079 147.584 64.2671 147.584 64.2671C147.483 64.2887 147.404 64.3608 147.382 64.4616L147.116 65.7144ZM147.656 65.6136L147.843 64.728C148.837 64.5624 154.186 63.7703 159.133 64.9511L159.125 65.4408L149.881 66.4704L147.656 65.6136Z" fill="#171718"/>
<path fill-rule="evenodd" clip-rule="evenodd" d="M161.863 69.0768L162.418 68.256C162.418 68.256 169.279 71.2368 172.166 74.8656L171.619 75.8088L163.613 71.2512L161.863 69.0768Z" fill="white"/>
<path fill-rule="evenodd" clip-rule="evenodd" d="M161.654 68.94C161.589 69.0336 161.596 69.1488 161.668 69.2352L163.425 71.4024C163.447 71.424 163.468 71.4528 163.497 71.46L171.503 76.0176C171.626 76.0824 171.777 76.0464 171.842 75.924L172.389 74.9808C172.439 74.8944 172.432 74.7792 172.367 74.7C169.451 71.0352 162.518 68.0184 162.518 68.0184C162.41 67.968 162.28 68.0112 162.208 68.112L161.654 68.94ZM162.172 69.0696L162.511 68.5728C163.612 69.0696 169.243 71.7192 171.871 74.8944L171.539 75.4704L163.785 71.0568L162.172 69.0696Z" fill="#171718"/>
<path fill-rule="evenodd" clip-rule="evenodd" d="M147.364 65.7648C147.364 65.7648 147.292 68.58 147.494 69.9264C147.494 69.9264 149.733 68.7672 151.18 70.0344C151.18 70.0344 153.196 69.1632 155.63 68.7456C158.063 68.328 159.582 67.6512 159.366 65.6568C159.366 65.6568 154.398 64.4616 147.364 65.7648Z" fill="white"/>
<path fill-rule="evenodd" clip-rule="evenodd" d="M147.319 65.52C147.204 65.5416 147.117 65.6424 147.117 65.7576C147.117 65.7576 147.045 68.5944 147.254 69.9624C147.269 70.0416 147.319 70.1136 147.384 70.1496C147.456 70.1856 147.542 70.1856 147.614 70.1496C147.614 70.1496 148.377 69.7536 149.277 69.696C149.853 69.66 150.494 69.7608 151.02 70.2216C151.092 70.2792 151.193 70.3009 151.286 70.2649C151.286 70.2649 153.273 69.4008 155.678 68.9832C158.277 68.5368 159.854 67.752 159.617 65.6136C159.602 65.5128 159.53 65.4192 159.429 65.3976C159.422 65.412 154.411 64.2024 147.319 65.52ZM147.607 65.9736C153.713 64.872 158.205 65.664 159.127 65.8584C159.177 66.8232 158.738 67.428 157.939 67.824C157.327 68.1336 156.528 68.3352 155.577 68.4936C153.497 68.8536 151.718 69.5376 151.214 69.7392C150.602 69.2712 149.889 69.1488 149.234 69.192C148.601 69.228 148.032 69.4152 147.693 69.552C147.578 68.4 147.6 66.5856 147.607 65.9736Z" fill="#171718"/>
<path fill-rule="evenodd" clip-rule="evenodd" d="M159.309 73.5264C159.309 73.5264 160.259 71.0136 161.865 69.0768C161.865 69.0768 169.201 72.5904 171.628 75.7008C171.628 75.7008 171.095 77.2128 169.353 76.8312C167.61 76.4496 164.687 75.0456 162.736 75.3696C162.736 75.3768 162.124 73.4544 159.309 73.5264Z" fill="white"/>
<path fill-rule="evenodd" clip-rule="evenodd" d="M159.072 73.4328C159.043 73.512 159.05 73.5984 159.1 73.6632C159.151 73.728 159.23 73.7712 159.309 73.764C161.916 73.6992 162.492 75.4488 162.492 75.4488C162.528 75.5712 162.65 75.6432 162.772 75.6144C163.521 75.4848 164.421 75.6288 165.336 75.8736C166.768 76.248 168.244 76.8456 169.296 77.076C171.268 77.5008 171.859 75.78 171.859 75.78C171.888 75.6936 171.873 75.6072 171.823 75.5424C169.375 72.4104 161.973 68.8536 161.973 68.8536C161.872 68.796 161.75 68.832 161.671 68.9112C160.044 70.884 159.072 73.4328 159.072 73.4328ZM159.676 73.2744C159.979 72.5616 160.771 70.8408 161.937 69.3936C163.046 69.9408 169.087 72.9792 171.34 75.744C171.182 76.0536 170.635 76.8672 169.404 76.5936C168.36 76.3704 166.891 75.7728 165.465 75.3984C164.551 75.168 163.658 75.0168 162.888 75.1032C162.657 74.6136 161.851 73.3536 159.676 73.2744Z" fill="#171718"/>
<path fill-rule="evenodd" clip-rule="evenodd" d="M156.141 65.2536C156.141 65.2536 156.191 67.5144 156.854 68.5728C156.926 68.688 157.084 68.724 157.199 68.652C157.315 68.58 157.351 68.4216 157.279 68.3136C156.667 67.3344 156.638 65.2536 156.638 65.2536C156.638 65.1168 156.523 65.0016 156.386 65.0088C156.242 65.0016 156.134 65.1096 156.141 65.2536Z" fill="#171718"/>
<path fill-rule="evenodd" clip-rule="evenodd" d="M153.959 68.1551L154.513 69.4728C154.563 69.6024 154.715 69.66 154.844 69.6096C154.974 69.552 155.031 69.408 154.981 69.2784L154.427 67.9536C154.376 67.824 154.225 67.7664 154.095 67.824C153.966 67.8816 153.901 68.0255 153.959 68.1551Z" fill="#171718"/>
<path fill-rule="evenodd" clip-rule="evenodd" d="M152.443 68.5151L152.997 69.8328C153.048 69.9624 153.199 70.0199 153.321 69.9695C153.451 69.9119 153.509 69.768 153.458 69.6384L152.904 68.3135C152.853 68.1839 152.702 68.1264 152.58 68.184C152.457 68.2416 152.393 68.3855 152.443 68.5151Z" fill="#171718"/>
<path fill-rule="evenodd" clip-rule="evenodd" d="M168.539 76.6728C168.539 76.6728 169.194 75.4704 170.44 74.52C170.548 74.4336 170.569 74.2824 170.483 74.1744C170.397 74.0592 170.245 74.0448 170.13 74.124C168.798 75.1536 168.092 76.4352 168.092 76.4352C168.028 76.5576 168.071 76.7088 168.193 76.7736C168.316 76.8384 168.474 76.7952 168.539 76.6728Z" fill="#171718"/>
<path fill-rule="evenodd" clip-rule="evenodd" d="M166.409 75.3098L166.116 76.4334C166.079 76.5677 166.163 76.7003 166.293 76.7359C166.429 76.7719 166.561 76.6905 166.598 76.5562L166.892 75.4325C166.929 75.2983 166.845 75.1657 166.715 75.13C166.585 75.1006 166.446 75.1755 166.409 75.3098Z" fill="#171718"/>
<path fill-rule="evenodd" clip-rule="evenodd" d="M165.362 75.0309L165.069 76.1546C165.032 76.2889 165.116 76.4214 165.246 76.4571C165.382 76.493 165.514 76.4115 165.551 76.2773L165.845 75.1537C165.882 75.0194 165.798 74.8868 165.668 74.8512C165.539 74.8217 165.4 74.9028 165.362 75.0309Z" fill="#171718"/>
<path fill-rule="evenodd" clip-rule="evenodd" d="M103.938 137.938L110.59 133.474L114.118 128.923C114.118 128.923 122.549 127.786 126.214 127.584C126.214 127.584 127.762 129.19 126.682 130.889C126.682 130.889 127.186 133.193 125.883 134.1C125.883 134.1 126.07 135.626 124.745 136.778C123.421 137.923 117.401 139.81 115.997 140.573C114.593 141.336 110.439 144.662 110.439 144.662L103.938 137.938Z" fill="white"/>
<path fill-rule="evenodd" clip-rule="evenodd" d="M103.801 137.729C103.736 137.772 103.7 137.837 103.693 137.909C103.686 137.981 103.707 138.06 103.765 138.103L110.266 144.821C110.36 144.914 110.504 144.922 110.605 144.842C110.605 144.842 114.73 141.538 116.127 140.782C116.962 140.328 119.461 139.471 121.599 138.607C123.068 138.017 124.378 137.419 124.918 136.951C126.092 135.929 126.164 134.64 126.15 134.208C126.646 133.798 126.884 133.2 126.978 132.602C127.093 131.875 126.992 131.177 126.949 130.925C128.029 129.103 126.402 127.397 126.402 127.397C126.351 127.339 126.279 127.31 126.207 127.318C122.528 127.519 114.09 128.664 114.09 128.664C114.025 128.671 113.967 128.707 113.924 128.758L110.418 133.279L103.801 137.729ZM104.326 137.974L110.727 133.675C110.749 133.661 110.77 133.646 110.785 133.618L114.248 129.154C115.198 129.024 122.622 128.045 126.106 127.836C126.387 128.167 127.316 129.434 126.466 130.752C126.43 130.81 126.416 130.882 126.43 130.939C126.43 130.939 126.603 131.724 126.474 132.545C126.394 133.056 126.2 133.574 125.732 133.898C125.653 133.956 125.617 134.042 125.624 134.136C125.624 134.136 125.79 135.526 124.573 136.584C124.054 137.038 122.802 137.592 121.398 138.154C119.23 139.025 116.718 139.889 115.868 140.342C114.63 141.012 111.26 143.669 110.446 144.317L104.326 137.974Z" fill="#171718"/>
<path fill-rule="evenodd" clip-rule="evenodd" d="M121.154 117.936L116.222 123.862C116.222 123.862 113.082 126.18 112.672 127.253C112.262 128.326 111.491 130.63 111.491 130.63C111.491 130.63 111.318 133.963 111.93 134.755C112.542 135.533 114.22 134.748 114.609 130.644L115.638 128.722L126.23 127.584L129.297 122.803L121.154 117.936Z" fill="white"/>
<path fill-rule="evenodd" clip-rule="evenodd" d="M121.276 117.72C121.168 117.655 121.031 117.677 120.952 117.778L116.035 123.682C115.833 123.833 114.429 124.891 113.428 125.878C112.939 126.36 112.557 126.828 112.42 127.166C112.003 128.246 111.232 130.55 111.232 130.55C111.225 130.572 111.218 130.601 111.218 130.615C111.218 130.615 111.131 132.286 111.297 133.546C111.369 134.143 111.513 134.647 111.715 134.899C112.039 135.31 112.579 135.418 113.147 135.029C113.824 134.561 114.58 133.258 114.832 130.716L115.775 128.959L126.237 127.829C126.309 127.822 126.381 127.778 126.417 127.714L129.484 122.933C129.52 122.875 129.535 122.803 129.52 122.738C129.506 122.674 129.463 122.616 129.405 122.58L121.276 117.72ZM121.204 118.26L128.937 122.882L126.071 127.346L115.603 128.477C115.523 128.491 115.451 128.534 115.408 128.606L114.379 130.529C114.364 130.558 114.35 130.586 114.35 130.622C114.127 132.97 113.493 134.194 112.874 134.626C112.571 134.827 112.283 134.82 112.118 134.604C111.952 134.395 111.866 133.97 111.801 133.495C111.657 132.365 111.715 130.918 111.722 130.68C111.815 130.399 112.507 128.347 112.888 127.346C113.003 127.044 113.356 126.648 113.781 126.23C114.832 125.194 116.359 124.063 116.359 124.063C116.373 124.049 116.387 124.042 116.402 124.02L121.204 118.26Z" fill="#171718"/>
<path fill-rule="evenodd" clip-rule="evenodd" d="M125.322 136.411C125.322 136.411 125.142 138.132 124.393 138.845C123.644 139.558 122.506 139.334 122.175 137.909C121.844 136.483 121.556 135.439 121.75 134.849C121.938 134.258 123.327 133.927 123.954 134.827C124.58 135.72 124.71 136.807 124.71 136.807L125.322 136.411Z" fill="white"/>
<path fill-rule="evenodd" clip-rule="evenodd" d="M125.577 136.433C125.584 136.339 125.541 136.238 125.461 136.195C125.382 136.145 125.274 136.145 125.195 136.202L124.9 136.397C124.806 135.979 124.597 135.295 124.173 134.683C123.726 134.05 122.963 133.92 122.38 134.086C121.955 134.201 121.631 134.467 121.53 134.77C121.444 135.036 121.437 135.382 121.494 135.799C121.566 136.375 121.753 137.102 121.955 137.966C122.149 138.78 122.589 139.248 123.071 139.414C123.575 139.586 124.144 139.45 124.59 139.025C124.914 138.715 125.152 138.233 125.303 137.758C125.505 137.074 125.577 136.433 125.577 136.433ZM124.986 136.93C124.943 137.131 124.885 137.362 124.806 137.599C124.677 137.995 124.497 138.406 124.223 138.665C123.921 138.946 123.546 139.054 123.215 138.938C122.862 138.816 122.567 138.456 122.423 137.851C122.229 137.009 122.041 136.296 121.969 135.734C121.926 135.403 121.919 135.13 121.984 134.921C122.041 134.748 122.25 134.626 122.488 134.561C122.898 134.453 123.431 134.525 123.741 134.964C124.331 135.814 124.453 136.836 124.453 136.836C124.461 136.922 124.518 137.002 124.597 137.038C124.677 137.074 124.77 137.066 124.842 137.016L124.986 136.93Z" fill="#171718"/>
<path fill-rule="evenodd" clip-rule="evenodd" d="M122.551 138.737C122.551 138.737 122.048 141.034 120.37 141.278C118.7 141.523 118.347 139.298 118.145 138.341C117.944 137.383 117.843 136.073 118.663 135.67C119.484 135.274 120.636 136.13 121.097 138.463L122.227 138.11L122.551 138.737Z" fill="white"/>
<path fill-rule="evenodd" clip-rule="evenodd" d="M122.795 138.794C122.81 138.737 122.802 138.679 122.774 138.629L122.457 137.995C122.399 137.887 122.277 137.83 122.162 137.866L121.29 138.139C120.981 136.814 120.441 135.994 119.886 135.605C119.433 135.288 118.958 135.252 118.554 135.446C118.158 135.641 117.928 136.008 117.827 136.447C117.69 137.038 117.777 137.779 117.906 138.384C118.029 138.982 118.223 140.062 118.72 140.767C119.094 141.293 119.627 141.638 120.405 141.53C121.146 141.422 121.686 140.954 122.061 140.429C122.601 139.666 122.795 138.794 122.795 138.794ZM122.284 138.766C122.226 138.982 122.039 139.594 121.658 140.134C121.355 140.558 120.93 140.947 120.34 141.026C119.627 141.127 119.21 140.688 118.936 140.141C118.626 139.507 118.497 138.744 118.396 138.276C118.281 137.736 118.194 137.074 118.317 136.555C118.382 136.26 118.518 136.015 118.778 135.886C119.03 135.756 119.318 135.806 119.606 136.008C120.124 136.368 120.599 137.189 120.858 138.499C120.873 138.564 120.916 138.629 120.974 138.658C121.031 138.694 121.11 138.708 121.175 138.679L122.104 138.391L122.284 138.766Z" fill="#171718"/>
<path fill-rule="evenodd" clip-rule="evenodd" d="M119.102 140.846C119.102 140.846 117.885 142.308 116.661 141.962C115.43 141.617 115.084 140.666 114.832 139.032C114.58 137.405 115.394 136.894 116.106 136.966C116.819 137.045 117.287 137.88 117.597 139.838L118.418 139.464C118.41 139.471 118.576 140.278 119.102 140.846Z" fill="white"/>
<path fill-rule="evenodd" clip-rule="evenodd" d="M119.295 140.998C119.375 140.904 119.375 140.76 119.288 140.666C118.806 140.148 118.662 139.421 118.662 139.421C118.647 139.342 118.597 139.284 118.532 139.248C118.467 139.212 118.388 139.212 118.316 139.241L117.791 139.478C117.603 138.427 117.359 137.722 117.056 137.297C116.797 136.93 116.487 136.75 116.135 136.714C115.703 136.67 115.235 136.807 114.918 137.196C114.623 137.549 114.45 138.146 114.587 139.061C114.86 140.81 115.271 141.811 116.595 142.186C117.157 142.344 117.711 142.178 118.179 141.919C118.827 141.566 119.295 140.998 119.295 140.998ZM118.77 140.832C118.604 141.005 118.302 141.286 117.927 141.502C117.575 141.703 117.15 141.847 116.725 141.725C115.587 141.401 115.314 140.501 115.076 139.003C114.961 138.283 115.069 137.808 115.299 137.527C115.501 137.282 115.803 137.196 116.077 137.225C116.358 137.254 116.581 137.455 116.775 137.822C117.013 138.276 117.193 138.946 117.344 139.889C117.359 139.968 117.402 140.033 117.474 140.069C117.546 140.112 117.625 140.112 117.697 140.083L118.251 139.831C118.338 140.083 118.496 140.479 118.77 140.832Z" fill="#171718"/>
<path fill-rule="evenodd" clip-rule="evenodd" d="M81.7291 133.474C81.7291 133.474 84.3571 133.74 85.5955 133.862C85.7611 133.877 85.9123 133.963 86.0131 134.093C86.1139 134.222 86.1643 134.395 86.1427 134.554C86.1355 134.611 86.1283 134.676 86.1211 134.734C86.0779 135.05 85.8043 135.288 85.4803 135.266C84.2059 135.209 81.2539 135.065 81.2539 135.065L81.7291 133.474Z" fill="white"/>
<path fill-rule="evenodd" clip-rule="evenodd" d="M81.6994 133.718L85.5658 134.114C85.6666 134.122 85.753 134.165 85.8178 134.244C85.8826 134.323 85.9041 134.424 85.8969 134.518C85.8897 134.575 85.8826 134.64 85.8754 134.69C85.8538 134.885 85.6882 135.022 85.4938 135.014C84.2194 134.95 81.2674 134.813 81.2674 134.813C81.1306 134.798 81.0154 134.906 81.0082 135.043C81.001 135.18 81.109 135.302 81.2458 135.31C81.2458 135.31 84.205 135.454 85.4722 135.511C85.9258 135.533 86.3146 135.209 86.3722 134.755C86.3794 134.698 86.3866 134.633 86.3938 134.575C86.4226 134.345 86.3578 134.114 86.2138 133.927C86.0698 133.747 85.8538 133.632 85.6234 133.61L81.7569 133.214C81.6201 133.2 81.4978 133.308 81.4834 133.445C81.4618 133.582 81.5626 133.704 81.6994 133.718Z" fill="#171718"/>
<path fill-rule="evenodd" clip-rule="evenodd" d="M82.5492 127.584C82.5492 127.584 84.8748 125.827 85.1628 122.724C85.4508 119.628 83.118 119.606 81.7788 120.492C81.7788 120.492 82.4988 117.468 80.3604 116.719C78.222 115.97 76.5228 118.973 76.5228 118.973C76.5228 118.973 74.6868 116.59 72.6564 117.634C70.626 118.67 70.5108 121.579 70.5108 121.579C70.5108 121.579 68.4372 120.802 67.3284 122.234C66.2196 123.674 67.3572 126.288 67.3572 126.288C67.3572 126.288 65.9892 126.742 65.6076 127.908C65.226 129.074 65.1684 131.314 66.8604 133.474L69.9708 136.519L72.1596 136.98L78.4668 133.466L81.894 129.434L82.5492 127.584Z" fill="#171718"/>
<path fill-rule="evenodd" clip-rule="evenodd" d="M82.7562 127.735C83.1306 127.426 85.1394 125.662 85.4058 122.746C85.5354 121.392 85.1754 120.578 84.6354 120.146C83.9514 119.592 82.9362 119.65 82.101 120.017C82.1514 119.585 82.173 118.93 82.0218 118.303C81.8346 117.54 81.3882 116.813 80.4378 116.482C79.4946 116.15 78.6306 116.467 77.9322 116.978C77.2554 117.482 76.7442 118.159 76.485 118.548C76.197 118.238 75.6714 117.742 74.9946 117.425C74.289 117.086 73.425 116.942 72.5322 117.403C71.661 117.857 71.121 118.613 70.7826 119.369C70.4514 120.11 70.329 120.845 70.2786 121.255C70.0482 121.198 69.7098 121.126 69.3282 121.118C68.601 121.097 67.7298 121.291 67.1178 122.083C66.6354 122.71 66.5346 123.538 66.5994 124.301C66.6642 125.078 66.8946 125.791 67.0242 126.151C66.585 126.353 65.6706 126.871 65.361 127.829C64.965 129.038 64.893 131.378 66.657 133.625C66.6642 133.632 66.6714 133.639 66.6786 133.646L69.789 136.692C69.825 136.721 69.8682 136.75 69.9114 136.757L72.1002 137.21C72.1578 137.232 72.2226 137.218 72.273 137.189L78.5802 133.675C78.609 133.661 78.6306 133.646 78.6522 133.618L82.0722 129.586C82.0938 129.564 82.1082 129.535 82.1154 129.506L82.7562 127.735ZM82.3962 127.382C82.3602 127.411 82.3242 127.454 82.3098 127.505L81.669 129.319L78.3066 133.279L72.1218 136.721L70.0986 136.296L67.053 133.308C65.433 131.242 65.4834 129.11 65.8506 127.994C66.1962 126.936 67.4418 126.533 67.4418 126.533C67.5066 126.511 67.5642 126.461 67.593 126.396C67.6218 126.338 67.6218 126.266 67.593 126.194C67.593 126.194 67.197 125.287 67.1106 124.265C67.0602 123.617 67.125 122.911 67.5282 122.393C68.025 121.745 68.7378 121.608 69.3282 121.622C69.9402 121.637 70.4226 121.817 70.4226 121.817C70.4946 121.846 70.581 121.838 70.6458 121.795C70.7106 121.752 70.7538 121.673 70.7538 121.594C70.7538 121.594 70.7898 120.593 71.2434 119.57C71.5386 118.908 71.9994 118.238 72.7626 117.857C73.6842 117.382 74.5626 117.698 75.2106 118.123C75.8874 118.562 76.3194 119.124 76.3194 119.124C76.3698 119.189 76.449 119.225 76.5354 119.218C76.6218 119.21 76.6938 119.16 76.737 119.088C76.737 119.088 77.3202 118.058 78.2346 117.382C78.8034 116.964 79.509 116.676 80.2794 116.95C81.0426 117.223 81.3954 117.814 81.5466 118.426C81.7842 119.405 81.5394 120.427 81.5394 120.427C81.5178 120.528 81.5538 120.629 81.6402 120.694C81.7266 120.751 81.8346 120.751 81.921 120.701C82.641 120.218 83.6706 120.01 84.333 120.535C84.7794 120.888 85.0242 121.572 84.9234 122.695C84.6354 125.69 82.3962 127.382 82.3962 127.382Z" fill="#171718"/>
<path fill-rule="evenodd" clip-rule="evenodd" d="M90.0017 83.484C90.0017 83.484 92.7377 84.0024 93.7241 84.2256C93.7241 84.2256 95.9129 83.412 96.5609 83.484C97.2089 83.556 98.7857 84.8016 99.1601 85.1184C99.5345 85.4352 98.5985 86.3496 97.1801 85.4424L95.5457 85.7736L93.9257 87.4512L89.5625 87.2712L90.0017 83.484Z" fill="white"/>
<path fill-rule="evenodd" clip-rule="evenodd" d="M90.0522 83.2392C89.9802 83.2248 89.9154 83.2392 89.8578 83.2824C89.8002 83.3256 89.7642 83.3832 89.757 83.4552L89.3178 87.2352C89.3106 87.3072 89.3322 87.372 89.3754 87.4296C89.4186 87.4872 89.4834 87.516 89.5554 87.5232L93.9186 87.7032C93.9906 87.7032 94.0554 87.6816 94.1058 87.624L95.6754 86.004L97.137 85.716C98.2602 86.3784 99.1026 86.0184 99.3762 85.6512C99.5706 85.392 99.5418 85.1112 99.3258 84.9312C99.0594 84.708 98.1882 84.0168 97.4682 83.5992C97.1298 83.3976 96.813 83.2608 96.597 83.2392C96.381 83.2176 96.0138 83.2752 95.6106 83.376C94.8618 83.556 93.969 83.8728 93.717 83.9664C92.6658 83.7288 90.0522 83.2392 90.0522 83.2392ZM98.9946 85.3056C98.9874 85.3128 98.9874 85.3272 98.9802 85.3344C98.9586 85.3704 98.9298 85.3992 98.8866 85.428C98.613 85.6368 98.037 85.6944 97.317 85.2264C97.2594 85.1976 97.1946 85.176 97.1298 85.1976L95.4954 85.5216C95.445 85.536 95.4018 85.5576 95.3658 85.5936L93.825 87.192L89.8434 87.0264L90.2178 83.7792C90.9234 83.9088 92.8674 84.2832 93.6738 84.4632C93.7242 84.4776 93.7674 84.4776 93.8178 84.456C93.8178 84.456 94.8762 84.06 95.7258 83.8512C96.057 83.772 96.3594 83.7144 96.5394 83.7288C96.7122 83.7432 96.9498 83.8656 97.2162 84.024C97.9002 84.4272 98.7282 85.0752 98.9946 85.3056Z" fill="#171718"/>
<path fill-rule="evenodd" clip-rule="evenodd" d="M57.2963 92.6496L54.1211 96.8904L57.3251 101.606C57.3251 101.606 61.1483 95.7744 61.4939 95.1192L60.4787 92.9808L57.2963 92.6496Z" fill="white"/>
<path fill-rule="evenodd" clip-rule="evenodd" d="M57.3268 92.3975C57.2404 92.3831 57.154 92.4191 57.1036 92.4911L53.9284 96.732C53.8636 96.8184 53.8637 96.9336 53.9213 97.02L57.1253 101.736C57.1685 101.808 57.2477 101.844 57.3341 101.844C57.4205 101.844 57.4924 101.801 57.5428 101.729C57.5428 101.729 61.3805 95.8823 61.7261 95.2271C61.7621 95.1551 61.7621 95.0688 61.7333 95.004L60.7181 92.8655C60.6821 92.7863 60.6028 92.736 60.5164 92.7288L57.3268 92.3975ZM57.4133 92.9088L60.3148 93.2111L61.2148 95.1048C60.7108 95.976 58.0828 99.9863 57.3268 101.146L54.4324 96.8831L57.4133 92.9088Z" fill="#171718"/>
<path fill-rule="evenodd" clip-rule="evenodd" d="M32.6953 52.0776L31.2913 44.5752L28.8505 45.0936L28.9945 47.4049C28.9945 47.4049 23.6593 46.3824 20.9881 48.9024C20.1745 49.6728 27.5833 49.7809 28.2457 53.9209L32.6953 52.0776Z" fill="white"/>
<path fill-rule="evenodd" clip-rule="evenodd" d="M32.7871 52.3152C32.8951 52.272 32.9599 52.1496 32.9383 52.0416L31.5343 44.5392C31.5199 44.4744 31.4839 44.4096 31.4263 44.3736C31.3687 44.3304 31.3039 44.316 31.2391 44.3376L28.7983 44.856C28.6759 44.8776 28.5895 44.9856 28.6039 45.1152L28.7335 47.1096C28.0927 47.016 26.5735 46.8505 24.9391 47.0449C23.4775 47.2177 21.9295 47.6784 20.8207 48.7224C20.7199 48.816 20.6839 48.9168 20.6767 49.0032C20.6695 49.0968 20.7055 49.2048 20.7991 49.2984C20.8855 49.3848 21.0439 49.4712 21.2815 49.5576C22.1743 49.8888 24.2623 50.2776 25.9039 51.2424C26.9407 51.8616 27.8047 52.7041 27.9991 53.9569C28.0135 54.0361 28.0567 54.1009 28.1215 54.1369C28.1863 54.1729 28.2655 54.18 28.3375 54.1512L32.7871 52.3152ZM21.2455 48.996C22.2679 48.0888 23.6647 47.6928 24.9823 47.5344C27.0559 47.2896 28.9423 47.6496 28.9423 47.6496C29.0215 47.664 29.0935 47.6424 29.1511 47.592C29.2087 47.5416 29.2375 47.4624 29.2375 47.3904L29.1007 45.3024L31.0807 44.8849L32.4055 51.9336L28.4167 53.5752C28.1503 52.5024 27.4447 51.696 26.5591 51.084C25.1623 50.1264 23.3119 49.644 22.1311 49.3056C21.7927 49.2048 21.5119 49.1184 21.3175 49.0392C21.2959 49.0248 21.2671 49.0176 21.2455 48.996Z" fill="#171718"/>
<path fill-rule="evenodd" clip-rule="evenodd" d="M49.57 47.196L50.3908 40.392L47.7124 40.0536L47.4532 41.3712C47.4532 41.3712 43.8532 39.4632 40.354 40.284C39.1588 40.5648 45.4732 42.8616 44.9476 46.6344L49.57 47.196Z" fill="white"/>
<path fill-rule="evenodd" clip-rule="evenodd" d="M49.5434 47.448C49.6082 47.4552 49.673 47.4336 49.7306 47.3904C49.7882 47.3472 49.8169 47.2897 49.8241 47.2249L50.645 40.4209C50.6594 40.2841 50.5658 40.1544 50.429 40.1472L47.7506 39.8089C47.621 39.7873 47.4986 39.8736 47.477 40.0032L47.2826 40.9969C46.3322 40.5577 43.2866 39.3336 40.3058 40.032C40.0682 40.0896 39.9818 40.2337 39.9674 40.3489C39.9602 40.4065 39.9674 40.4785 40.0034 40.5649C40.0466 40.6441 40.133 40.752 40.2698 40.8744C40.8602 41.3856 42.509 42.3288 43.6394 43.6464C44.3522 44.4744 44.8633 45.468 44.7121 46.5912C44.7049 46.656 44.7194 46.728 44.7626 46.7784C44.8058 46.836 44.8633 46.872 44.9281 46.872L49.5434 47.448ZM40.5721 40.4929C43.9345 39.7873 47.3401 41.5944 47.3401 41.5944C47.4121 41.6304 47.4914 41.6304 47.5634 41.6016C47.6354 41.5656 47.6857 41.5008 47.7001 41.4216L47.909 40.3344L50.1121 40.608L49.349 46.9224L45.2161 46.4184C45.2809 45.396 44.8922 44.4744 44.2874 43.6752C43.3514 42.4296 41.9186 41.4792 41.0546 40.8672C40.8602 40.7232 40.6945 40.5937 40.5721 40.4929Z" fill="#171718"/>
<path fill-rule="evenodd" clip-rule="evenodd" d="M50.1626 46.7064C50.1626 46.7064 49.7378 54.5544 49.853 58.752C49.961 62.9496 50.2994 65.1456 53.1506 67.9032L46.7498 79.8624C46.7498 79.8624 35.2802 75.4129 32.465 71.3089C29.6498 67.2049 26.3594 54.2736 26.3594 54.2736L33.1634 51.696C33.1634 51.696 36.1802 61.0128 38.3762 63.9C40.565 66.7872 44.6186 68.9184 44.6186 68.9184C44.6186 68.9184 41.681 66.6793 41.5586 62.0569C41.429 57.4345 43.2002 45.9 43.2002 45.9L50.1626 46.7064Z" fill="white"/>
<path fill-rule="evenodd" clip-rule="evenodd" d="M50.4154 46.7136C50.4226 46.584 50.329 46.4688 50.1922 46.4544L43.2154 45.6408C43.0786 45.6264 42.9634 45.72 42.9418 45.8496C42.9418 45.8496 41.1706 57.4272 41.3002 62.0568C41.3722 64.7496 42.3802 66.6576 43.237 67.8024C41.8762 66.924 39.8818 65.4768 38.5714 63.7416C36.3898 60.876 33.4018 51.6096 33.4018 51.6096C33.3802 51.5448 33.337 51.4872 33.2722 51.4584C33.2074 51.4296 33.1426 51.4296 33.0778 51.4512L26.2738 54.0288C26.1586 54.0792 26.0866 54.2016 26.1226 54.324C26.1226 54.324 29.4274 67.3128 32.257 71.4456C33.1138 72.6984 34.7698 73.9872 36.6562 75.1752C41.0122 77.8968 46.657 80.0928 46.657 80.0928C46.7722 80.1432 46.909 80.0928 46.9666 79.9776L53.3674 68.0184C53.4178 67.9176 53.4034 67.7952 53.3242 67.716C50.5306 65.0088 50.2138 62.8632 50.1058 58.7376C49.9906 54.5544 50.4154 46.7136 50.4154 46.7136ZM49.9042 46.9296C49.8322 48.2688 49.5082 54.9864 49.6018 58.7592C49.7098 62.9783 50.0626 65.196 52.8346 67.9536L46.621 79.5528C45.577 79.1352 40.7386 77.1624 36.9082 74.7576C35.0794 73.6128 33.481 72.3816 32.653 71.172C30.061 67.3992 27.0874 56.1312 26.641 54.432L32.9914 52.0272C33.4882 53.532 36.1666 61.4376 38.161 64.0584C40.3858 66.9888 44.4826 69.1488 44.4826 69.1488C44.5978 69.2064 44.7418 69.1704 44.8066 69.0624C44.8786 68.9544 44.8498 68.8032 44.749 68.724C44.749 68.724 41.905 66.5424 41.7826 62.0496C41.6674 57.8376 43.1362 47.844 43.3882 46.1808L49.9042 46.9296Z" fill="#171718"/>
<path fill-rule="evenodd" clip-rule="evenodd" d="M61.1866 88.2936C61.1866 88.2936 57.8818 91.5336 56.5138 92.8656C56.5138 92.8656 60.4018 94.3272 61.6186 95.4864C61.6186 95.4864 63.217 93.0096 63.8218 92.4912C64.4266 91.9656 67.9762 89.7336 68.941 89.388C69.913 89.0424 74.485 86.4648 81.1954 87.084C87.8986 87.7104 90.0154 88.2504 90.0154 88.2504L90.5626 83.1168C90.5626 83.1168 83.5714 80.5608 73.9018 81.2664L56.665 71.7984C56.665 71.7984 55.5994 70.272 54.7642 69.6384C53.929 69.0048 55.117 66.3264 51.8194 67.3632C49.7458 68.0184 49.573 69.1848 48.3562 70.9488C47.1394 72.7128 44.0938 77.1192 45.3682 79.9848C45.3682 79.9848 48.3562 82.9728 51.373 84.4056C54.3898 85.8312 55.909 86.256 56.4418 86.9256C56.9674 87.6024 58.2346 88.9488 61.1866 88.2936Z" fill="#EF4444"/>
<path fill-rule="evenodd" clip-rule="evenodd" d="M112.404 91.836L107.465 111.715C107.429 111.845 107.516 111.989 107.645 112.018C107.782 112.054 107.912 111.967 107.948 111.838L112.887 91.9656C112.923 91.8288 112.836 91.692 112.707 91.656C112.57 91.6272 112.433 91.7064 112.404 91.836Z" fill="#171718"/>
<path fill-rule="evenodd" clip-rule="evenodd" d="M118.557 63.8508L115.295 77.8343C115.264 77.9708 115.349 78.106 115.479 78.1348C115.616 78.1634 115.747 78.0786 115.777 77.9496L119.04 63.9737C119.07 63.8371 118.985 63.702 118.855 63.6732C118.719 63.6294 118.588 63.7142 118.557 63.8508Z" fill="#171718"/>
<path fill-rule="evenodd" clip-rule="evenodd" d="M67.8728 105.898L71.8976 116.784C71.948 116.914 72.092 116.986 72.2216 116.935C72.3512 116.885 72.416 116.741 72.3656 116.611L68.3408 105.725C68.2904 105.602 68.1464 105.53 68.0168 105.581C67.8944 105.631 67.8296 105.775 67.8728 105.898Z" fill="#171718"/>
<path fill-rule="evenodd" clip-rule="evenodd" d="M40.9243 81.5832L49.9099 98.2656C49.9747 98.388 50.1259 98.4313 50.2483 98.3665C50.3707 98.3017 50.4139 98.1433 50.3491 98.0209L41.3707 81.3385C41.3059 81.2161 41.1547 81.1728 41.0323 81.2376C40.9027 81.3096 40.8595 81.4536 40.9243 81.5832Z" fill="#171718"/>
<path fill-rule="evenodd" clip-rule="evenodd" d="M55.0378 107.539L60.9634 118.627C61.0282 118.75 61.1794 118.793 61.3018 118.728C61.4242 118.663 61.4674 118.512 61.4026 118.39L55.477 107.302C55.4122 107.179 55.261 107.136 55.1386 107.201C55.0162 107.266 54.973 107.417 55.0378 107.539Z" fill="#171718"/>
<path fill-rule="evenodd" clip-rule="evenodd" d="M36.0506 109.361L38.7938 114.192C38.8586 114.314 39.017 114.358 39.1322 114.286C39.2546 114.221 39.2906 114.07 39.2258 113.947L36.4826 109.116C36.4178 108.994 36.2594 108.95 36.1442 109.022C36.0218 109.094 35.9786 109.246 36.0506 109.361Z" fill="#171718"/>
<path fill-rule="evenodd" clip-rule="evenodd" d="M103.747 107.453L104.452 102.463C104.474 102.334 104.38 102.204 104.243 102.182C104.107 102.161 103.977 102.262 103.963 102.398L103.257 107.388C103.235 107.518 103.329 107.654 103.466 107.669C103.595 107.69 103.725 107.59 103.747 107.453Z" fill="#171718"/>
<path fill-rule="evenodd" clip-rule="evenodd" d="M78.7816 67.8744L79.6744 78.3792C79.6888 78.516 79.804 78.6168 79.948 78.6096C80.0848 78.5952 80.1856 78.48 80.1784 78.336L79.2856 67.8312C79.2712 67.6944 79.156 67.5936 79.012 67.6008C78.8752 67.608 78.7744 67.7376 78.7816 67.8744Z" fill="#171718"/>
<path fill-rule="evenodd" clip-rule="evenodd" d="M148.033 102.312L143.224 111.542C143.159 111.665 143.209 111.816 143.332 111.881C143.454 111.946 143.605 111.902 143.67 111.773L148.48 102.55C148.544 102.42 148.494 102.276 148.372 102.211C148.249 102.146 148.098 102.19 148.033 102.312Z" fill="#171718"/>
<path fill-rule="evenodd" clip-rule="evenodd" d="M2.98637 165.586H177.133C177.27 165.586 177.385 165.478 177.385 165.341C177.385 165.204 177.27 165.089 177.133 165.089H2.98637C2.84957 165.089 2.73438 165.204 2.73438 165.341C2.73438 165.478 2.84957 165.586 2.98637 165.586Z" fill="#171718"/>
<path fill-rule="evenodd" clip-rule="evenodd" d="M7.766 141.113C31.2626 125.272 59.5668 116.02 90.0088 116.02C122.243 116.02 152.069 126.382 176.34 143.961C176.452 144.045 176.611 144.026 176.686 143.905C176.77 143.793 176.742 143.643 176.63 143.55C152.274 125.916 122.346 115.507 90.0088 115.507C59.4641 115.507 31.0666 124.786 7.48595 140.684C7.37392 140.759 7.3459 140.917 7.42058 141.039C7.49526 141.16 7.64464 141.188 7.766 141.113Z" fill="#171718"/>
<path fill-rule="evenodd" clip-rule="evenodd" d="M176.47 165.086H2.99421C2.85418 165.086 2.74219 165.198 2.74219 165.338C2.74219 165.469 2.85418 165.59 2.99421 165.59H176.479C176.619 165.59 176.731 165.469 176.731 165.338C176.722 165.198 176.61 165.086 176.47 165.086Z" fill="#171718"/>
<path fill-rule="evenodd" clip-rule="evenodd" d="M105.639 81.9144C105.639 81.9144 106.575 80.3449 108.001 78.9769C108.929 78.0841 110.074 77.2705 111.298 77.0689C114.344 76.5577 116.353 78.9264 116.353 78.9264C116.41 78.9984 116.504 79.0273 116.59 79.0129C116.677 78.9985 116.749 78.9336 116.777 78.8472C116.777 78.8472 118.016 75.3192 120.507 72.1224C122.156 70.0128 124.352 68.0401 127.102 67.3489C129.831 66.6721 131.753 67.032 133.071 67.7232C135.015 68.7456 135.641 70.4592 135.641 70.4592C135.677 70.5672 135.785 70.6321 135.893 70.6249C136.001 70.6105 136.095 70.5312 136.124 70.4232C136.124 70.4232 142.093 41.7888 176.465 43.2C176.602 43.2072 176.717 43.0992 176.725 42.9624C176.732 42.8256 176.624 42.7104 176.487 42.7032C144.814 41.4072 136.966 65.3041 135.8 69.6529C135.418 68.9977 134.655 67.9825 133.309 67.2769C131.912 66.5425 129.881 66.1392 126.987 66.8592C124.121 67.572 121.832 69.6169 120.118 71.8129C118.066 74.4481 116.842 77.3064 116.446 78.3072C115.755 77.6448 113.84 76.1328 111.212 76.572C109.887 76.788 108.656 77.652 107.648 78.6096C106.172 80.028 105.207 81.648 105.207 81.648C105.135 81.7704 105.178 81.9216 105.293 81.9864C105.416 82.0656 105.567 82.0296 105.639 81.9144Z" fill="#171718"/>
<path fill-rule="evenodd" clip-rule="evenodd" d="M3.17983 83.5544C3.17983 83.5544 8.46823 77.5551 17.4982 78.1726C19.6233 78.32 21.1562 79.0497 22.2292 80.1232C23.8457 81.7371 24.4031 84.1158 24.3613 86.3892C24.3195 88.9222 23.5322 91.3149 22.5776 92.3954C22.494 92.4867 22.494 92.627 22.5706 92.7252C22.6542 92.8165 22.7866 92.8445 22.8911 92.7744C22.8911 92.7744 25.0929 91.392 27.643 90.943C29.3083 90.6413 31.1198 90.7395 32.5552 91.9113C34.1089 93.1883 34.0392 94.8793 33.5933 96.2546C33.1404 97.665 32.2834 98.7525 32.2834 98.7525C32.2138 98.8437 32.2137 98.9561 32.2765 99.0543C32.3392 99.1455 32.4506 99.1806 32.5552 99.1525C32.5552 99.1525 35.9762 98.107 39.6273 98.079C42.0241 98.0579 44.5255 98.4649 46.1977 99.9243C46.358 100.065 46.4555 100.205 46.4764 100.352C46.4973 100.507 46.4485 100.654 46.344 100.808C46.0792 101.215 45.5009 101.629 44.6718 102.064C37.7042 105.762 13.7357 110.253 2.96383 110.688C2.82448 110.695 2.71997 110.807 2.72694 110.955C2.73391 111.088 2.85235 111.2 2.98474 111.193C13.8124 110.751 37.8993 106.218 44.9017 102.506C45.8215 102.022 46.4555 101.538 46.7551 101.082C46.9363 100.808 46.999 100.535 46.9641 100.282C46.9293 100.03 46.7899 99.777 46.5182 99.5455C44.7624 98.0088 42.1356 97.5597 39.6133 97.5737C36.8681 97.5948 34.2553 98.1842 33.0638 98.4859C33.3704 98.0088 33.7815 97.265 34.0602 96.409C34.5549 94.8653 34.6036 92.9567 32.8617 91.5253C31.3149 90.2483 29.3501 90.122 27.5455 90.4448C25.929 90.7395 24.4519 91.378 23.5461 91.8341C24.2707 90.522 24.8072 88.5082 24.8421 86.4032C24.8839 83.9964 24.2707 81.4845 22.5637 79.7724C21.421 78.6287 19.7836 77.8288 17.5122 77.6814C8.22436 77.0359 2.78964 83.2317 2.78964 83.2317C2.69906 83.3369 2.70603 83.4983 2.81055 83.5825C2.929 83.6737 3.08926 83.6597 3.17983 83.5544Z" fill="#171718"/>
<path fill-rule="evenodd" clip-rule="evenodd" d="M177.136 105.43C177.136 105.43 165.594 103.32 158.538 117.065C158.538 117.065 155.672 113.767 152.166 114.782C146.874 116.302 146.399 124.344 146.399 124.344C146.399 124.344 142.396 122.508 138.637 124.985C134.692 127.591 134.238 132.365 134.238 132.365C134.238 132.365 132.2 132.12 129.724 133.495C127.24 134.863 127.132 137.945 140.956 137.779C154.78 137.614 177.136 135.612 177.136 135.612V105.43Z" fill="white"/>
<path fill-rule="evenodd" clip-rule="evenodd" d="M177.176 105.178C177.176 105.178 165.634 103.039 158.47 116.633C158.067 116.23 157.189 115.452 156.022 114.912C154.921 114.401 153.56 114.106 152.091 114.53C149.902 115.164 148.498 116.856 147.62 118.685C146.583 120.83 146.266 123.134 146.173 123.984C145.129 123.602 141.723 122.638 138.49 124.776C134.984 127.087 134.17 131.083 134.012 132.098C133.385 132.077 131.636 132.142 129.591 133.272C128.756 133.733 128.187 134.395 128.18 135.05C128.173 135.504 128.425 135.994 129.073 136.418C130.477 137.354 133.947 138.11 140.945 138.024C154.777 137.858 177.147 135.864 177.147 135.864C177.284 135.85 177.385 135.734 177.37 135.59C177.356 135.454 177.233 135.353 177.097 135.36C177.097 135.36 154.755 137.362 140.931 137.52C134.105 137.606 130.714 136.901 129.339 135.994C128.878 135.684 128.662 135.367 128.669 135.043C128.669 134.806 128.792 134.575 128.972 134.359C129.181 134.114 129.476 133.891 129.821 133.697C132.219 132.372 134.185 132.602 134.185 132.602C134.249 132.61 134.321 132.588 134.372 132.545C134.422 132.502 134.458 132.437 134.465 132.372C134.465 132.372 134.905 127.706 138.749 125.179C142.393 122.782 146.273 124.553 146.273 124.553C146.345 124.589 146.439 124.582 146.504 124.538C146.576 124.495 146.619 124.416 146.626 124.337C146.626 124.337 146.792 121.486 148.052 118.886C148.873 117.18 150.169 115.582 152.213 114.991C153.553 114.61 154.791 114.876 155.799 115.344C157.333 116.05 158.326 117.202 158.326 117.202C158.384 117.259 158.463 117.295 158.542 117.288C158.621 117.274 158.693 117.23 158.737 117.158C165.699 103.601 177.068 105.653 177.068 105.653C177.205 105.674 177.334 105.588 177.356 105.451C177.399 105.329 177.313 105.206 177.176 105.178Z" fill="#171718"/>
<path fill-rule="evenodd" clip-rule="evenodd" d="M139.672 86.94C139.672 86.94 143.589 84.672 144.561 80.6184C145.533 76.5648 146.015 72.1368 146.015 72.1368L151.653 71.964C151.653 71.964 151.797 82.7208 148.722 86.9976C148.722 86.9976 152.128 85.788 153.431 83.4984C154.727 81.216 157.175 75.3912 157.175 75.3912L162.892 77.6016C162.892 77.6016 160.062 87.0624 156.39 91.0872C152.725 95.112 140.421 97.2 140.421 97.2L139.672 86.94Z" fill="white"/>
<path fill-rule="evenodd" clip-rule="evenodd" d="M139.545 86.724C139.466 86.7744 139.415 86.8608 139.423 86.9616L140.171 97.2216C140.179 97.2936 140.215 97.3584 140.265 97.4016C140.323 97.4448 140.395 97.4592 140.459 97.452C140.459 97.452 144.909 96.696 149.258 95.22C152.195 94.2264 155.075 92.8944 156.566 91.26C160.259 87.2064 163.125 77.6736 163.125 77.6736C163.161 77.544 163.096 77.4144 162.974 77.364L157.257 75.1536C157.127 75.1032 156.991 75.168 156.933 75.2904C156.933 75.2904 154.499 81.0864 153.203 83.376C152.311 84.9456 150.403 85.9896 149.351 86.4576C150.345 84.7224 150.95 82.2816 151.324 79.884C151.951 75.8448 151.9 71.9496 151.9 71.9496C151.9 71.8848 151.871 71.82 151.821 71.7696C151.771 71.7264 151.706 71.6976 151.641 71.7048L146.003 71.8704C145.881 71.8776 145.773 71.964 145.759 72.0936C145.759 72.0936 145.283 76.5072 144.311 80.5536C143.368 84.5136 139.545 86.724 139.545 86.724ZM139.934 87.0696C140.639 86.616 143.915 84.3768 144.808 80.676C145.658 77.1336 146.133 73.3104 146.241 72.3744L151.411 72.216C151.411 73.1376 151.367 76.4208 150.842 79.8192C150.431 82.4616 149.733 85.1688 148.523 86.8536C148.459 86.94 148.459 87.0552 148.523 87.1488C148.588 87.2424 148.703 87.2712 148.804 87.2352C148.804 87.2352 152.303 85.9824 153.643 83.628C154.795 81.5976 156.847 76.8024 157.307 75.7224L162.585 77.7528C162.139 79.1928 159.518 87.2928 156.206 90.9216C154.759 92.5056 151.951 93.78 149.107 94.7448C145.427 95.9904 141.676 96.7248 140.654 96.912L139.934 87.0696Z" fill="#171718"/>
<path fill-rule="evenodd" clip-rule="evenodd" d="M2.31188 153.814C2.31188 153.814 10.0519 157.471 16.1863 157.025C22.3135 156.571 26.3527 154.879 26.3527 154.879C26.3527 154.879 13.0111 163.44 6.63908 165.341H40.1983L51.5023 158.299L40.1983 144.194L28.2319 141.379C28.2319 141.379 19.3183 143.705 16.2295 143.647C13.1479 143.59 2.30469 138.622 2.30469 138.622V153.814H2.31188Z" fill="white"/>
<path fill-rule="evenodd" clip-rule="evenodd" d="M2.20146 154.037C2.20146 154.037 10.0135 157.723 16.1983 157.262C19.7623 157.003 22.6279 156.326 24.4135 155.801C20.5615 158.191 11.4823 163.634 6.57188 165.096C6.45668 165.132 6.37747 165.247 6.39907 165.37C6.42067 165.492 6.52148 165.578 6.64388 165.578H40.2031C40.2535 165.578 40.2967 165.564 40.3327 165.542L51.6367 158.501C51.6943 158.458 51.7375 158.4 51.7519 158.328C51.7663 158.256 51.7447 158.184 51.7015 158.126L40.3975 144.022C40.3615 143.971 40.3111 143.942 40.2607 143.928L28.2943 141.12C28.2511 141.106 28.2151 141.106 28.1719 141.12C28.1719 141.12 19.3087 143.431 16.2415 143.374C15.3343 143.352 13.7359 142.898 11.9503 142.272C7.71667 140.796 2.41746 138.362 2.41746 138.362C2.29506 138.305 2.14387 138.362 2.08627 138.485C2.02867 138.614 2.08627 138.758 2.20867 138.823C2.20867 138.823 7.52947 141.264 11.7847 142.747C13.6351 143.395 15.2911 143.849 16.2271 143.87C19.1791 143.928 27.4447 141.818 28.2367 141.617C28.2367 141.617 39.0007 144.151 40.0591 144.396L51.1327 158.22L40.1311 165.074H8.14146C14.9023 162.504 26.4871 155.081 26.4871 155.081C26.5951 155.016 26.6311 154.872 26.5735 154.757C26.5159 154.642 26.3719 154.591 26.2567 154.642C26.2567 154.642 22.2463 156.319 16.1623 156.758C10.0855 157.205 2.41746 153.569 2.41746 153.569C2.29506 153.511 2.14387 153.562 2.08627 153.691C2.02867 153.828 2.07906 153.979 2.20146 154.037Z" fill="#171718"/>
<path fill-rule="evenodd" clip-rule="evenodd" d="M61.7031 85.0464C61.7031 85.0464 65.2239 87.912 66.5271 90.6984L67.9311 89.8848C67.9311 89.8848 66.4911 86.22 63.8847 84.1464L61.7031 85.0464Z" fill="white"/>
<path fill-rule="evenodd" clip-rule="evenodd" d="M61.6114 84.8088C61.5322 84.8448 61.4746 84.9168 61.4602 85.0032C61.4458 85.0896 61.4818 85.176 61.5466 85.2336C61.5466 85.2336 65.017 88.056 66.2986 90.7992C66.3274 90.8568 66.385 90.9072 66.4498 90.9288C66.5146 90.9504 66.5866 90.9432 66.6514 90.9072L68.0554 90.0936C68.1634 90.036 68.2066 89.8992 68.1634 89.784C68.1634 89.784 66.6946 86.0544 64.0378 83.9376C63.9658 83.8872 63.8722 83.8656 63.7858 83.9016L61.6114 84.8088ZM62.1802 85.1184L63.8434 84.4344C65.9746 86.184 67.285 89.0136 67.6162 89.7768L66.637 90.3456C65.4922 88.1136 63.0514 85.8744 62.1802 85.1184Z" fill="#171718"/>
<path fill-rule="evenodd" clip-rule="evenodd" d="M52.1193 81.3096C52.1193 81.3096 51.9969 83.3112 52.4793 84.924L54.1785 85.6656C54.1785 85.6656 53.6961 83.304 53.7609 81.828L52.1193 81.3096Z" fill="white"/>
<path fill-rule="evenodd" clip-rule="evenodd" d="M52.1931 81.072C52.1211 81.0504 52.0419 81.0576 51.9771 81.1008C51.9123 81.1512 51.8763 81.2159 51.8691 81.2951C51.8691 81.2951 51.7466 83.3472 52.2362 84.996C52.2578 85.068 52.3083 85.1256 52.3731 85.1544L54.0722 85.896C54.1586 85.9392 54.2595 85.9175 54.3315 85.8671C54.4035 85.8095 54.4395 85.7088 54.4179 85.6224C54.4179 85.6224 53.9427 83.2967 54.0075 81.8351C54.0147 81.7199 53.9427 81.6192 53.8347 81.5904L52.1931 81.072ZM52.3587 81.648L53.5035 82.008C53.4891 83.088 53.7123 84.5208 53.8419 85.248L52.6827 84.744C52.3587 83.5776 52.3443 82.2456 52.3587 81.648Z" fill="#171718"/>
<path fill-rule="evenodd" clip-rule="evenodd" d="M48.707 76.4064C48.707 76.4064 48.8655 78.4296 48.9087 78.9696C48.9519 79.5024 55.043 84.2544 60.2414 86.0184C60.2414 86.0184 64.5902 85.608 69.299 81.3168V79.4592L48.707 76.4064Z" fill="white"/>
<path fill-rule="evenodd" clip-rule="evenodd" d="M48.7422 76.1616C48.6702 76.1472 48.591 76.176 48.5334 76.2192C48.4758 76.2768 48.447 76.3488 48.4542 76.4208C48.4542 76.4208 48.6126 78.4512 48.6558 78.984C48.663 79.0416 48.6918 79.1424 48.7782 79.2576C48.8862 79.4088 49.1166 79.6392 49.4406 79.9272C51.2046 81.4896 55.971 84.8376 60.1614 86.2632C60.1974 86.2776 60.2334 86.2776 60.2694 86.2776C60.2694 86.2776 64.6902 85.86 69.471 81.504C69.5214 81.4536 69.5502 81.3888 69.5502 81.324V79.4664C69.5502 79.3368 69.4566 79.236 69.3342 79.2216L48.7422 76.1616ZM49.1526 78.9192L48.9798 76.7016L69.039 79.6752V81.2016C64.7334 85.0896 60.759 85.7088 60.2622 85.7664C56.151 84.3552 51.4926 81.072 49.7646 79.5528C49.5414 79.3512 49.3614 79.1784 49.2534 79.056C49.2102 78.9984 49.167 78.9336 49.1526 78.9192Z" fill="#171718"/>
<path fill-rule="evenodd" clip-rule="evenodd" d="M60.2291 83.808L60.1068 85.2696C60.0924 85.4064 60.2003 85.5288 60.3371 85.5432C60.4739 85.5576 60.5964 85.4496 60.6108 85.3128L60.7331 83.8512C60.7475 83.7216 60.6396 83.592 60.5028 83.5776C60.366 83.5632 60.2435 83.6712 60.2291 83.808Z" fill="#171718"/>
<path fill-rule="evenodd" clip-rule="evenodd" d="M46.6211 109.318C46.6211 109.318 49.6379 104.501 49.7891 104.026C49.9403 103.543 51.1355 100.145 51.1355 100.145C51.1355 100.145 50.6963 97.3872 51.0851 96.4728C51.4739 95.5512 52.3091 95.9688 52.3091 95.9688C52.3091 95.9688 52.5611 94.9392 53.3675 94.7232C54.1739 94.5072 54.5195 95.0544 54.5195 95.0544C54.5195 95.0544 54.7427 94.0464 55.5203 93.8952C56.3051 93.7368 56.4347 94.176 56.6651 94.6584C56.8955 95.148 57.5363 98.2584 57.5363 98.2584C57.5363 98.2584 58.9403 101.203 58.1555 102.902C57.3635 104.602 55.8875 105.134 55.3187 106.373C54.7499 107.618 52.5179 112.298 52.5179 112.298L46.6211 109.318Z" fill="white"/>
<path fill-rule="evenodd" clip-rule="evenodd" d="M46.4022 109.181C46.3662 109.238 46.3518 109.31 46.3734 109.382C46.395 109.447 46.4383 109.505 46.5031 109.541L52.4071 112.514C52.4647 112.543 52.5366 112.55 52.6014 112.536C52.6662 112.514 52.7166 112.464 52.7454 112.406C52.7454 112.406 54.9846 107.719 55.5534 106.481C55.827 105.89 56.3167 105.473 56.8351 104.99C57.3967 104.472 57.9798 103.889 58.3902 103.003C58.7286 102.283 58.6998 101.347 58.5342 100.483C58.3182 99.3528 57.8718 98.352 57.7854 98.1792C57.7206 97.8624 57.123 95.0112 56.8998 94.5504C56.7342 94.212 56.5975 93.9096 56.3311 93.744C56.1367 93.6216 55.8774 93.5712 55.4814 93.6504C55.0998 93.7224 54.8262 93.96 54.6318 94.2264C54.5382 94.356 54.4662 94.4928 54.4158 94.608C54.1854 94.4568 53.8255 94.3344 53.3071 94.4784C52.9255 94.5792 52.6446 94.8384 52.4502 95.112C52.3134 95.3064 52.2127 95.508 52.1551 95.6592C51.9535 95.616 51.6798 95.6016 51.4134 95.7384C51.2118 95.8392 51.0031 96.0336 50.8591 96.3792C50.7295 96.6744 50.6791 97.1568 50.6791 97.668C50.6719 98.6688 50.8374 99.8424 50.8806 100.123C50.7222 100.577 49.6854 103.514 49.5486 103.954C49.3902 104.422 46.4022 109.181 46.4022 109.181ZM46.9711 109.21C47.5759 108.238 49.887 104.515 50.0166 104.09C50.1678 103.615 51.3631 100.217 51.3631 100.217C51.3775 100.174 51.3774 100.13 51.3702 100.087C51.3702 100.087 51.1614 98.7624 51.1614 97.6536C51.1614 97.2072 51.1974 96.804 51.3054 96.552C51.3918 96.3504 51.4998 96.2208 51.6222 96.1632C51.8958 96.0264 52.1911 96.1849 52.1911 96.1849C52.2559 96.2137 52.3423 96.2137 52.4071 96.1849C52.4791 96.1561 52.5294 96.0912 52.5438 96.0192C52.5438 96.0192 52.6231 95.6953 52.8391 95.3929C52.9759 95.1985 53.163 95.0184 53.4222 94.9464C54.027 94.7808 54.2934 95.1696 54.2934 95.1696C54.3438 95.2632 54.4446 95.2993 54.5454 95.2849C54.6462 95.2705 54.7255 95.1912 54.7471 95.0904C54.7471 95.0904 54.819 94.7809 55.0206 94.4929C55.143 94.3273 55.3158 94.1688 55.5606 94.1184C55.791 94.068 55.9494 94.0824 56.0574 94.1472C56.1366 94.1976 56.1942 94.2696 56.2374 94.356C56.3022 94.4712 56.3598 94.6008 56.4318 94.7376C56.655 95.2128 57.2886 98.28 57.2886 98.28C57.2958 98.3016 57.2958 98.3232 57.3102 98.3376C57.3102 98.3376 57.7998 99.3672 58.0302 100.555C58.1742 101.311 58.2174 102.132 57.9222 102.773C57.5406 103.586 56.9935 104.126 56.4751 104.602C55.9063 105.127 55.3806 105.602 55.0854 106.25C54.5958 107.323 52.8534 110.981 52.3926 111.938L46.9711 109.21Z" fill="#171718"/>
<path fill-rule="evenodd" clip-rule="evenodd" d="M54.3301 94.9248L55.1221 97.9344C55.1581 98.064 55.2949 98.1504 55.4245 98.1144C55.5613 98.0784 55.6405 97.9416 55.6045 97.8048L54.8125 94.8024C54.7765 94.6728 54.6397 94.5864 54.5101 94.6224C54.3805 94.6584 54.3013 94.7952 54.3301 94.9248Z" fill="#171718"/>
<path fill-rule="evenodd" clip-rule="evenodd" d="M52.0705 96.0336L52.848 98.6184C52.8912 98.748 53.0281 98.8272 53.1577 98.784C53.2873 98.7408 53.3665 98.604 53.3233 98.4744L52.5457 95.8896C52.5097 95.76 52.3656 95.688 52.236 95.724C52.1064 95.7672 52.0273 95.904 52.0705 96.0336Z" fill="#171718"/>
<path fill-rule="evenodd" clip-rule="evenodd" d="M50.9548 98.5536C50.9548 98.5536 50.0404 99.3312 49.9324 100.015C49.8244 100.685 50.566 101.614 51.3724 101.614C52.1788 101.606 52.258 100.606 51.7108 100.015C51.1636 99.4248 50.9548 98.5536 50.9548 98.5536Z" fill="white"/>
<path fill-rule="evenodd" clip-rule="evenodd" d="M51.198 98.496C51.1764 98.4024 51.1188 98.3376 51.0324 98.316C50.9532 98.2872 50.8596 98.3016 50.7948 98.3592C50.7948 98.3592 50.4492 98.6616 50.1468 99.0504C49.9308 99.3312 49.7364 99.6624 49.6932 99.972C49.6284 100.375 49.8012 100.858 50.1252 101.225C50.4492 101.599 50.9028 101.858 51.378 101.858C52.4076 101.851 52.5948 100.591 51.8964 99.8496C51.3852 99.3024 51.198 98.496 51.198 98.496ZM50.838 99.0072C50.9604 99.3384 51.1836 99.8136 51.522 100.181C51.738 100.418 51.8388 100.735 51.7956 100.994C51.7596 101.196 51.6228 101.362 51.3636 101.362C51.0324 101.362 50.7156 101.16 50.4924 100.908C50.2692 100.649 50.1324 100.332 50.1756 100.058C50.2116 99.8208 50.37 99.5832 50.5356 99.3672C50.6364 99.2232 50.7444 99.108 50.838 99.0072Z" fill="#171718"/>
<path fill-rule="evenodd" clip-rule="evenodd" d="M56.1524 99C56.1524 99 57.9452 97.7329 58.5212 97.6105C59.0972 97.4809 59.5075 98.6545 59.1835 99.0865C59.1835 99.0865 60.0188 100.08 59.2412 100.778C59.2412 100.778 59.6228 101.772 58.7588 102.24C57.8948 102.694 57.0668 102.967 56.6204 102.773C56.174 102.578 56.1884 101.902 56.5052 101.7C56.5052 101.7 55.6052 100.966 56.3828 100.404C56.3828 100.397 55.3604 99.6552 56.1524 99Z" fill="white"/>
<path fill-rule="evenodd" clip-rule="evenodd" d="M56.0089 98.7984C56.0017 98.8056 56.0017 98.8056 55.9945 98.8128C55.7353 99.0288 55.6273 99.2663 55.6057 99.4751C55.5841 99.6911 55.6489 99.9 55.7569 100.08C55.8361 100.21 55.9297 100.318 56.0161 100.411C55.9153 100.534 55.8577 100.656 55.8361 100.778C55.7785 101.059 55.8937 101.34 56.0377 101.556C56.0809 101.614 56.1241 101.671 56.1601 101.714C56.0953 101.815 56.0521 101.952 56.0305 102.089C55.9873 102.449 56.1457 102.845 56.5201 103.01C56.7361 103.104 57.0241 103.118 57.3625 103.054C57.8017 102.974 58.3345 102.758 58.8745 102.463C59.6881 102.031 59.6017 101.21 59.5153 100.858C59.8825 100.447 59.8609 99.9791 59.7313 99.5975C59.6593 99.3815 59.5513 99.1944 59.4649 99.072C59.5081 98.9568 59.5369 98.8199 59.5369 98.6831C59.5369 98.3951 59.4505 98.0712 59.2993 97.8264C59.0977 97.488 58.7881 97.3008 58.4497 97.3728C57.8665 97.4952 56.0089 98.7984 56.0089 98.7984ZM56.3041 99.2015C56.3905 99.1439 57.2041 98.568 57.8809 98.1864C58.1617 98.0208 58.4209 97.884 58.5793 97.848C58.7089 97.8192 58.8097 97.9416 58.8889 98.0784C58.9897 98.244 59.0545 98.4744 59.0545 98.676C59.0545 98.7768 59.0401 98.8704 58.9897 98.9424C58.9177 99.036 58.9249 99.1656 58.9969 99.252C58.9969 99.252 59.1769 99.468 59.2705 99.756C59.3569 100.008 59.3713 100.332 59.0761 100.598C58.9969 100.663 58.9753 100.778 59.0113 100.872C59.0113 100.872 59.3209 101.65 58.6441 102.017C58.1545 102.283 57.6721 102.478 57.2689 102.557C57.0457 102.6 56.8585 102.607 56.7145 102.542C56.5561 102.47 56.5057 102.29 56.5201 102.132C56.5345 102.038 56.5633 101.945 56.6353 101.902C56.7001 101.858 56.7433 101.786 56.7505 101.7C56.7577 101.621 56.7217 101.542 56.6569 101.498C56.6569 101.498 56.5417 101.398 56.4337 101.254C56.3617 101.146 56.2825 101.016 56.3113 100.872C56.3329 100.778 56.3977 100.692 56.5201 100.598C56.5849 100.548 56.6209 100.476 56.6209 100.397C56.6209 100.31 56.5849 100.238 56.5201 100.195C56.5201 100.195 56.3833 100.094 56.2609 99.936C56.1673 99.8136 56.0737 99.6624 56.0953 99.504C56.1169 99.4032 56.1817 99.3095 56.3041 99.2015Z" fill="#171718"/>
<path fill-rule="evenodd" clip-rule="evenodd" d="M56.5833 101.938L59.1321 101.095C59.2617 101.045 59.3337 100.908 59.2905 100.778C59.2473 100.649 59.1033 100.577 58.9737 100.62L56.4249 101.462C56.2953 101.513 56.2233 101.65 56.2665 101.779C56.3097 101.902 56.4537 101.974 56.5833 101.938Z" fill="#171718"/>
<path fill-rule="evenodd" clip-rule="evenodd" d="M56.549 100.534L59.1626 99.3168C59.285 99.2592 59.3426 99.108 59.285 98.9784C59.2274 98.856 59.0762 98.8056 58.9538 98.856L56.3402 100.073C56.2178 100.13 56.1602 100.282 56.2178 100.411C56.2754 100.534 56.4266 100.591 56.549 100.534Z" fill="#171718"/>
<path fill-rule="evenodd" clip-rule="evenodd" d="M46.1948 108.389C46.1948 108.389 52.3796 110.851 53.5388 111.708C53.5388 111.708 52.0556 115.985 52.0628 117.994C52.0628 119.995 55.0436 123.415 57.1172 125.05C59.1908 126.691 60.9044 128.066 63.1148 131.407L67.4708 140.198L71.1645 143.582C71.1645 143.582 80.51 146.556 83.7068 146.059C86.9108 145.562 104.04 137.174 104.04 137.174C104.04 137.174 111.326 143.266 112.96 146.304C112.96 146.304 103.024 153.331 93.434 157.594C83.8436 161.863 76.8021 158.774 72.2805 157.651C67.7517 156.521 63.3812 154.786 63.3812 154.786C63.3812 154.786 54.0644 158.695 48.5492 158.688C43.0412 158.681 38.6708 158.033 37.5332 157.5C36.3956 156.974 36.158 156.002 34.5668 155.297C32.9756 154.584 33.3284 152.143 32.5436 150.422C31.7588 148.709 28.67 148.478 27.5396 144.36C26.4092 140.242 25.4876 141.862 24.494 140.566C23.5004 139.277 23.7668 134.683 23.7668 134.683C23.7668 134.683 31.5644 139.19 46.3316 132.689C46.3316 132.689 42.5228 123.718 41.6372 120.679C40.7444 117.655 46.1948 108.389 46.1948 108.389Z" fill="#335CFF"/>
<path fill-rule="evenodd" clip-rule="evenodd" d="M82.5477 127.584C82.5477 127.584 82.4613 133.38 80.2797 137.246C78.0981 141.106 75.6141 140.076 74.2749 137.902L71.1934 139.594L69.9766 136.519C69.9766 136.519 72.6405 135.792 73.9221 134.374C73.9221 134.374 72.3885 134.266 71.9349 133.034C71.4813 131.803 72.9645 129.902 75.0381 131.501C75.0381 131.501 75.1245 133.668 76.0821 132.689C77.0325 131.702 77.9109 129.427 77.9109 129.427C77.9109 129.427 80.2221 129.564 82.5477 127.584Z" fill="white"/>
<path fill-rule="evenodd" clip-rule="evenodd" d="M82.7946 127.584C82.7946 127.49 82.737 127.397 82.6506 127.354C82.5642 127.31 82.4562 127.325 82.3842 127.39C80.1522 129.298 77.913 129.182 77.913 129.182C77.805 129.175 77.7042 129.24 77.6682 129.341C77.6682 129.341 76.8186 131.558 75.8898 132.516C75.8178 132.588 75.753 132.646 75.6954 132.674C75.6666 132.689 75.645 132.696 75.6234 132.696C75.5946 132.689 75.573 132.667 75.5514 132.638C75.501 132.574 75.4578 132.48 75.429 132.386C75.2994 131.998 75.2778 131.494 75.2778 131.494C75.2778 131.422 75.2418 131.35 75.177 131.306C74.2554 130.594 73.4346 130.529 72.8154 130.766C71.8578 131.141 71.3754 132.278 71.685 133.128C72.0162 134.021 72.8514 134.388 73.3986 134.532C72.081 135.691 69.9066 136.282 69.9066 136.282C69.8346 136.303 69.777 136.346 69.7482 136.411C69.7194 136.476 69.7122 136.548 69.741 136.613L70.9578 139.687C70.9866 139.752 71.037 139.81 71.109 139.831C71.181 139.853 71.253 139.853 71.3106 139.817L74.1906 138.233C74.9034 139.298 75.8826 140.04 76.9554 140.09C78.0786 140.148 79.3458 139.421 80.505 137.376C82.7082 133.459 82.7946 127.584 82.7946 127.584ZM82.2762 128.117C82.197 129.636 81.8154 134.006 80.0658 137.117C79.0434 138.931 77.9706 139.622 76.977 139.586C75.9906 139.543 75.1122 138.78 74.493 137.765C74.421 137.65 74.277 137.614 74.1618 137.671L71.325 139.234L70.3098 136.678C71.0298 136.44 73.0314 135.72 74.1042 134.539C74.169 134.467 74.1834 134.374 74.1474 134.28C74.1114 134.186 74.0322 134.129 73.9314 134.122C73.9314 134.122 72.5634 134.035 72.1602 132.948C71.8938 132.221 72.4338 131.213 73.377 131.141C73.7874 131.105 74.2626 131.242 74.7882 131.63C74.8098 131.882 74.8818 132.466 75.0762 132.811C75.1986 133.027 75.3714 133.164 75.573 133.193C75.753 133.214 75.9834 133.135 76.2498 132.862C77.0706 132.012 77.841 130.226 78.0642 129.679C78.6258 129.672 80.4114 129.514 82.2762 128.117Z" fill="#171718"/>
<path fill-rule="evenodd" clip-rule="evenodd" d="M72.9163 132.602L74.2051 133.265C74.3275 133.33 74.4787 133.286 74.5435 133.164C74.6083 133.034 74.5579 132.89 74.4355 132.818L73.1395 132.149C73.0171 132.084 72.8659 132.127 72.8011 132.257C72.7435 132.386 72.7939 132.538 72.9163 132.602Z" fill="#171718"/>
<path fill-rule="evenodd" clip-rule="evenodd" d="M74.5564 137.902C74.5564 137.902 74.1964 136.836 74.1388 136.26C74.1244 136.123 74.002 136.022 73.8652 136.03C73.7284 136.051 73.6276 136.166 73.642 136.303C73.6996 136.915 74.0812 138.053 74.0812 138.053C74.1244 138.182 74.2684 138.254 74.398 138.211C74.5348 138.168 74.5996 138.031 74.5564 137.902Z" fill="#171718"/>
<path fill-rule="evenodd" clip-rule="evenodd" d="M77.1826 135.166C77.1826 135.166 77.8882 136.771 79.573 136.375C79.7098 136.346 79.789 136.21 79.7602 136.073C79.7314 135.943 79.5946 135.857 79.4578 135.886C78.169 136.181 77.6362 134.957 77.6362 134.957C77.5786 134.834 77.4346 134.777 77.305 134.834C77.1826 134.885 77.125 135.036 77.1826 135.166Z" fill="#171718"/>
<path fill-rule="evenodd" clip-rule="evenodd" d="M82.2534 130.831C82.2534 130.831 79.7622 130.37 78.7182 130.55C77.667 130.723 77.6526 131.638 77.415 132.379C77.1846 133.121 77.2206 133.949 77.8542 134.15C78.4806 134.352 80.4606 134.374 80.4606 134.374C80.4606 134.374 81.0582 133.272 81.8214 133.286C81.8142 133.286 82.2318 131.256 82.2534 130.831Z" fill="white"/>
<path fill-rule="evenodd" clip-rule="evenodd" d="M82.4962 130.846C82.5034 130.716 82.417 130.608 82.2946 130.586C82.2946 130.586 79.7458 130.118 78.6658 130.306C77.9242 130.435 77.6147 130.867 77.4275 131.378C77.3195 131.681 77.2618 132.005 77.1682 132.3C77.0098 132.804 76.9738 133.337 77.1178 133.733C77.2258 134.042 77.4346 134.28 77.7658 134.388C78.4138 134.59 80.4442 134.618 80.4442 134.618C80.5378 134.618 80.6243 134.568 80.6675 134.489C80.6675 134.489 80.8618 134.129 81.1642 133.848C81.3442 133.682 81.553 133.538 81.7978 133.538C81.9202 133.546 82.0282 133.459 82.0498 133.337C82.057 133.337 82.4818 131.27 82.4962 130.846ZM81.9778 131.033C81.9058 131.551 81.697 132.624 81.6106 133.056C81.3226 133.106 81.0562 133.272 80.8402 133.474C80.6026 133.697 80.4154 133.963 80.3218 134.114C79.861 134.1 78.4427 134.071 77.9315 133.913C77.7083 133.841 77.6002 133.646 77.5642 133.423C77.5138 133.135 77.557 132.782 77.665 132.451C77.7586 132.156 77.8162 131.839 77.917 131.544C78.0466 131.184 78.2554 130.874 78.7666 130.795C79.5874 130.651 81.3514 130.925 81.9778 131.033Z" fill="#171718"/>
<path fill-rule="evenodd" clip-rule="evenodd" d="M64.2656 132.703C64.2656 132.703 65.1512 132.271 66.2888 132.631C67.4264 132.991 71.7032 136.044 72.0848 139.414L71.0984 141.761L64.2656 132.703Z" fill="#335CFF"/>
<path fill-rule="evenodd" clip-rule="evenodd" d="M122.775 131.738L126.721 131.141C126.858 131.119 126.951 130.99 126.93 130.853C126.908 130.723 126.779 130.622 126.642 130.644L122.696 131.249C122.559 131.263 122.466 131.393 122.487 131.53C122.516 131.666 122.639 131.753 122.775 131.738Z" fill="#171718"/>
<path fill-rule="evenodd" clip-rule="evenodd" d="M105.507 85.3776L104.996 90C104.996 90 113.859 91.4616 120.368 94.6944L121.686 95.58C121.686 95.58 120.598 97.9776 121.686 99.8208C122.773 101.664 127.431 108.792 127.431 108.792L119.101 118.678C119.101 118.678 125.365 120.132 129.282 123.538C129.282 123.538 137.526 114.048 137.821 109.836C138.116 105.617 132.709 99.5111 132.709 99.5111C132.709 99.5111 143.552 98.2224 145.518 95.0688C147.49 91.9224 145.95 92.3399 145.006 90.2231C144.063 88.1207 144.582 86.3208 143.703 86.5224C142.825 86.724 142.04 89.568 142.04 89.568C142.04 89.568 140.679 85.6872 139.254 85.7304C137.828 85.7808 137.986 86.7384 135.56 87.6528C133.126 88.5744 124.717 89.9928 124.717 89.9928C124.717 89.9928 115.71 85.4424 105.507 85.3776Z" fill="#22C55E"/>
<path fill-rule="evenodd" clip-rule="evenodd" d="M105.934 85.6729L101.722 85.3776C101.722 85.3776 98.388 84.2616 97.3584 84.0672C96.3288 83.8728 95.5152 85.7952 95.5152 85.7952L93.9168 87.4225C93.9168 87.4225 93.3192 88.092 93.6936 88.524C94.0752 88.9632 94.8816 88.6392 94.8816 88.6392C94.8816 88.6392 95.2272 89.5177 96.156 88.9705C96.156 88.9705 96.7608 89.748 97.7256 89.028C98.6904 88.3224 98.7408 88.2216 98.7408 88.2216L105.516 89.208L105.934 85.6729Z" fill="white"/>
<path fill-rule="evenodd" clip-rule="evenodd" d="M106.177 85.7016C106.184 85.6368 106.162 85.572 106.119 85.5144C106.076 85.4568 106.011 85.428 105.946 85.4208L101.763 85.1328C101.425 85.0176 98.372 84.0096 97.4 83.8224C96.9032 83.7288 96.4425 84.024 96.0753 84.4272C95.6649 84.888 95.3768 85.4856 95.3048 85.6512L93.7353 87.2424C93.7353 87.2496 93.728 87.2496 93.728 87.2568C93.728 87.2568 93.476 87.5376 93.368 87.876C93.2816 88.1496 93.2888 88.452 93.5048 88.6968C93.7064 88.9272 93.9945 89.0064 94.2753 89.0064C94.4553 89.0064 94.6352 88.9704 94.7648 88.9416C94.8512 89.064 94.9952 89.2296 95.204 89.316C95.4272 89.4168 95.7225 89.4528 96.1113 89.2728C96.2409 89.3808 96.4424 89.5104 96.7088 89.5608C97.0184 89.6184 97.4145 89.5752 97.8753 89.2296C98.4153 88.8264 98.6816 88.6032 98.8184 88.488L105.478 89.4528C105.543 89.4672 105.615 89.4456 105.666 89.4024C105.723 89.3592 105.752 89.3016 105.759 89.2368L106.177 85.7016ZM105.651 85.9032L105.291 88.9344L98.768 87.984L98.732 88.4808L98.5376 88.0704C98.5376 88.0704 98.3072 88.2792 97.5656 88.8336C97.256 89.064 96.9969 89.1072 96.7953 89.0712C96.5073 89.0208 96.3416 88.812 96.3416 88.812C96.2624 88.7112 96.1256 88.6824 96.0176 88.7544C95.8088 88.884 95.6361 88.92 95.4993 88.8984C95.2113 88.848 95.1033 88.5528 95.1033 88.5528C95.0817 88.4952 95.0312 88.4376 94.9664 88.416C94.9016 88.3872 94.8368 88.3872 94.772 88.4088C94.772 88.4088 94.5272 88.5096 94.2608 88.5096C94.124 88.5096 93.9656 88.4808 93.8648 88.3656C93.7784 88.2648 93.7928 88.1352 93.8288 88.0272C93.8936 87.804 94.052 87.6168 94.0808 87.588L95.672 85.968C95.6936 85.9464 95.708 85.9176 95.7224 85.8888C95.7224 85.8888 95.996 85.2408 96.428 84.7512C96.6728 84.4776 96.9608 84.2472 97.292 84.3048C98.3144 84.4992 101.619 85.608 101.619 85.608C101.641 85.6152 101.662 85.6224 101.684 85.6224L105.651 85.9032Z" fill="#171718"/>
<path fill-rule="evenodd" clip-rule="evenodd" d="M148.746 86.5152C148.134 87.0696 147.313 87.5376 146.384 87.948C146.255 88.0056 146.204 88.1496 146.262 88.2792C146.32 88.4088 146.463 88.4664 146.593 88.4088C147.579 87.9696 148.443 87.4728 149.091 86.8896C149.192 86.796 149.2 86.6376 149.106 86.5368C149.005 86.4288 148.847 86.4216 148.746 86.5152Z" fill="#171718"/>
<path fill-rule="evenodd" clip-rule="evenodd" d="M141.799 89.4816C141.799 89.4816 141.158 91.4544 140.258 92.8152C139.336 94.2048 137.716 96.3936 137.241 97.2792C137.176 97.4016 137.219 97.5528 137.342 97.6176C137.464 97.6824 137.615 97.6392 137.68 97.5168C138.148 96.6384 139.754 94.4712 140.668 93.096C141.604 91.6848 142.267 89.6472 142.267 89.6472C142.31 89.5176 142.238 89.3736 142.108 89.3376C141.986 89.28 141.842 89.3448 141.799 89.4816Z" fill="#171718"/>
<path fill-rule="evenodd" clip-rule="evenodd" d="M135.48 98.9911L137.352 94.1528L135.572 94.3749C135.088 95.8606 134.387 97.6779 133.705 99.3232L135.48 98.9911Z" fill="white"/>
<path fill-rule="evenodd" clip-rule="evenodd" d="M135.524 99.2378C135.606 99.221 135.681 99.1593 135.715 99.0771L137.587 94.2388C137.621 94.1565 137.605 94.0668 137.551 93.9932C137.495 93.9266 137.407 93.8844 137.324 93.9012L135.543 94.1304C135.447 94.1379 135.364 94.2056 135.335 94.3032C134.853 95.7818 134.161 97.5859 133.472 99.2302C133.438 99.3124 133.452 99.4092 133.508 99.4758C133.562 99.5494 133.659 99.5857 133.75 99.5628L135.524 99.2378ZM135.295 98.767L134.112 98.9908C134.719 97.5089 135.317 95.9384 135.764 94.6002L136.974 94.4458L135.295 98.767Z" fill="#171718"/>
<path fill-rule="evenodd" clip-rule="evenodd" d="M121.219 97.6248C121.219 97.6248 123.408 95.688 124.912 95.3352C124.912 95.3352 123.962 94.6728 123.739 94.4784C123.739 94.4784 122.169 95.1264 121.615 95.7744C121.615 95.7744 121.269 96.5376 121.219 97.6248Z" fill="white"/>
<path fill-rule="evenodd" clip-rule="evenodd" d="M120.965 97.6176C120.958 97.7184 121.016 97.812 121.109 97.8552C121.203 97.8984 121.311 97.8768 121.383 97.812C121.383 97.812 123.507 95.9185 124.969 95.5729C125.062 95.5513 125.141 95.4792 125.156 95.3712C125.177 95.2776 125.134 95.1768 125.055 95.1192C125.055 95.1192 124.126 94.4856 123.91 94.284C123.838 94.2264 123.737 94.2049 123.651 94.2409C123.651 94.2409 122.017 94.9176 121.433 95.6016C121.419 95.616 121.405 95.6376 121.397 95.6592C121.383 95.6736 121.023 96.4656 120.965 97.6176ZM121.527 97.0416C121.621 96.444 121.779 96.0192 121.829 95.904C122.276 95.4144 123.32 94.9249 123.694 94.7665C123.86 94.8961 124.126 95.0904 124.357 95.256C123.334 95.652 122.161 96.5304 121.527 97.0416Z" fill="#171718"/>
<path fill-rule="evenodd" clip-rule="evenodd" d="M95.0266 88.8335C95.0266 88.8335 95.7826 88.236 96.2578 87.444C96.3298 87.3288 96.2938 87.1704 96.1714 87.0984C96.0562 87.0264 95.8978 87.0696 95.8258 87.1848C95.3938 87.9048 94.7098 88.4448 94.7098 88.4448C94.6018 88.5312 94.5802 88.6824 94.6666 88.7904C94.7602 88.9056 94.9186 88.9271 95.0266 88.8335Z" fill="#171718"/>
<path fill-rule="evenodd" clip-rule="evenodd" d="M97.6438 89.4816C97.9519 89.3664 98.106 89.028 97.9988 88.7256C97.9185 88.488 97.8247 88.2072 97.7376 87.9624C97.684 87.804 97.5702 87.6816 97.4161 87.6096C97.2688 87.5376 97.0946 87.5232 96.9406 87.588C96.6258 87.7032 96.465 88.0416 96.5722 88.3584C96.6526 88.596 96.753 88.8696 96.8334 89.1072C96.887 89.2656 97.0076 89.388 97.1549 89.46C97.309 89.532 97.4831 89.5392 97.6438 89.4816Z" fill="white"/>
<path fill-rule="evenodd" clip-rule="evenodd" d="M97.7303 89.712C98.159 89.5464 98.3867 89.0784 98.2327 88.6392C98.1523 88.4016 98.0585 88.1208 97.9714 87.8832C97.8977 87.66 97.737 87.48 97.5227 87.3792C97.3084 87.2784 97.0672 87.2641 96.8529 87.3505C96.4108 87.5089 96.1831 87.9912 96.3372 88.4376C96.4175 88.6752 96.518 88.9489 96.5984 89.1865C96.6787 89.4097 96.8395 89.5897 97.0538 89.6905C97.2682 89.7841 97.5093 89.7984 97.7303 89.712ZM97.5495 89.244C97.4557 89.28 97.3485 89.2728 97.2615 89.2296C97.1744 89.1864 97.1007 89.1072 97.0672 89.0208C96.9801 88.7832 96.8864 88.5024 96.806 88.272C96.739 88.0848 96.8395 87.8833 97.0203 87.8185C97.1141 87.7825 97.2146 87.7896 97.3083 87.8328C97.3954 87.876 97.4691 87.9552 97.4959 88.0488L97.7571 88.8048C97.8241 88.9776 97.7303 89.1792 97.5495 89.244Z" fill="#171718"/>
<path fill-rule="evenodd" clip-rule="evenodd" d="M98.7153 89.1756C99.0302 89.075 99.2106 88.7559 99.1229 88.4322C99.0571 88.1895 98.9743 87.895 98.9085 87.6523C98.8646 87.4905 98.7584 87.3604 98.6157 87.2782C98.4731 87.1961 98.2997 87.1766 98.1425 87.2233C97.821 87.3234 97.633 87.6566 97.7211 87.9731C97.7936 88.2163 97.8702 88.503 97.9427 88.7462C97.9865 88.908 98.0927 89.0381 98.2421 89.1207C98.3847 89.2029 98.5514 89.2218 98.7153 89.1756C98.7086 89.1751 98.7086 89.1751 98.7153 89.1756Z" fill="white"/>
<path fill-rule="evenodd" clip-rule="evenodd" d="M98.7775 89.4185C99.2219 89.2837 99.4784 88.8183 99.358 88.3697C99.2922 88.1269 99.2094 87.8325 99.1436 87.5898C99.0836 87.3619 98.9337 87.1782 98.7326 87.0631C98.5311 86.9551 98.2914 86.9239 98.0727 86.9879C97.6153 87.1146 97.3512 87.5939 97.4846 88.0506C97.5571 88.2938 97.6336 88.5806 97.7061 88.8237C97.7661 89.0516 97.9227 89.2358 98.1238 89.3509C98.3186 89.4584 98.5592 89.4753 98.7775 89.4185ZM98.6388 88.9397C98.5434 88.9619 98.4432 88.9549 98.3589 88.9056C98.2747 88.8564 98.2055 88.7794 98.1844 88.6841C98.112 88.4409 98.0354 88.1542 97.9629 87.911C97.9074 87.7195 98.0199 87.5254 98.211 87.4738C98.3067 87.4445 98.4065 87.4587 98.4908 87.5079C98.5751 87.5571 98.6376 87.6337 98.6657 87.7222C98.7378 87.9726 98.8143 88.2594 98.8797 88.5093C98.9294 88.6859 98.8236 88.8806 98.6388 88.9397Z" fill="#171718"/>
<path fill-rule="evenodd" clip-rule="evenodd" d="M99.5641 89.0372C99.727 89.0287 99.8793 88.9568 99.9897 88.8342C100.1 88.7115 100.15 88.5546 100.147 88.3885C100.128 88.1272 100.111 87.8294 100.094 87.5612C100.073 87.2316 99.7976 86.9869 99.4653 87.0019C99.2979 87.0014 99.1437 87.0802 99.0332 87.2028C98.9209 87.3324 98.8627 87.4941 98.8789 87.6643C98.8981 87.9256 98.9142 88.2234 98.9334 88.4847C98.9567 88.8073 99.2364 89.061 99.5641 89.0372Z" fill="white"/>
<path fill-rule="evenodd" clip-rule="evenodd" d="M99.5776 89.2964C99.8059 89.2786 100.021 89.1816 100.174 89.0049C100.325 88.8351 100.403 88.6043 100.389 88.3747C100.369 88.1135 100.355 87.8087 100.336 87.5475C100.31 87.0814 99.9107 86.7298 99.4514 86.7496C99.2167 86.7653 99.0016 86.8623 98.8421 87.0369C98.6889 87.2136 98.6053 87.4424 98.6256 87.674C98.6448 87.9353 98.6674 88.2351 98.6802 88.4944C98.7125 88.9625 99.1184 89.3161 99.5776 89.2964ZM99.5547 88.7938C99.3623 88.8079 99.1942 88.6571 99.1836 88.4661C99.1626 88.2118 99.1483 87.907 99.1272 87.6526C99.1197 87.5527 99.1545 87.4511 99.2222 87.3825C99.2853 87.3049 99.3813 87.2602 99.4808 87.2542C99.6713 87.2469 99.8349 87.3888 99.8454 87.5798C99.8646 87.841 99.8807 88.1389 99.898 88.407C99.9056 88.507 99.8745 88.5948 99.8069 88.6634C99.7354 88.7459 99.6477 88.7857 99.5547 88.7938Z" fill="#171718"/>
<path fill-rule="evenodd" clip-rule="evenodd" d="M114.177 91.1952C114.177 91.1952 113.032 90.864 113.356 90.108C113.356 90.108 111.873 89.3304 111.729 88.2072C111.585 87.084 112.975 87.2856 114.292 87.3792C115.61 87.4728 118.144 86.9256 118.958 87.2064C119.771 87.4944 120.268 88.0704 120.614 89.0496L120.765 90.5976L116.143 91.08L114.177 91.1952Z" fill="#171718"/>
<path fill-rule="evenodd" clip-rule="evenodd" d="M114.111 91.4329C114.14 91.4401 114.169 91.4472 114.197 91.44L116.156 91.3176H116.163L120.785 90.8424C120.922 90.8208 121.023 90.7057 121.009 90.5689L120.857 89.0209C120.857 88.9993 120.85 88.9848 120.843 88.9632C120.469 87.8976 119.921 87.2785 119.036 86.9689C118.69 86.8465 118.049 86.8536 117.315 86.9184C116.3 87.0048 115.083 87.1848 114.298 87.1272C113.47 87.0696 112.613 86.976 112.095 87.1632C111.872 87.2424 111.699 87.3649 111.591 87.5449C111.483 87.7177 111.433 87.9408 111.469 88.236C111.533 88.74 111.829 89.1864 112.174 89.5392C112.491 89.856 112.844 90.1008 113.045 90.2232C112.988 90.54 113.117 90.7993 113.319 91.0009C113.629 91.2961 114.111 91.4329 114.111 91.4329ZM114.212 90.9432C114.133 90.9144 113.953 90.8496 113.794 90.7344C113.636 90.6192 113.485 90.4537 113.585 90.2089C113.636 90.0865 113.585 89.9496 113.47 89.892C113.47 89.892 112.973 89.6256 112.541 89.1936C112.275 88.92 112.03 88.5744 111.98 88.1856C111.958 88.0272 111.973 87.912 112.03 87.8184C112.117 87.6816 112.289 87.624 112.505 87.588C112.981 87.516 113.636 87.588 114.277 87.6384C115.076 87.696 116.321 87.516 117.365 87.4296C118.006 87.372 118.568 87.3432 118.877 87.4512C119.612 87.7104 120.051 88.2288 120.368 89.1144L120.49 90.3816L116.12 90.8352L114.212 90.9432Z" fill="#171718"/>
<path fill-rule="evenodd" clip-rule="evenodd" d="M122.986 91.4847C122.986 91.4847 122.704 92.452 122.862 93.5619C122.862 93.5619 123.808 95.4143 125.784 96.3477C125.784 96.3477 135.582 95.4758 138.738 94.7189C138.738 94.7189 139.344 93.5862 139.32 92.7058L122.986 91.4847Z" fill="white"/>
<path fill-rule="evenodd" clip-rule="evenodd" d="M123.004 91.2332C122.889 91.2208 122.777 91.3022 122.743 91.416C122.743 91.416 122.445 92.433 122.608 93.6008C122.614 93.6299 122.619 93.659 122.633 93.6813C122.633 93.6813 123.619 95.6002 125.672 96.5804C125.714 96.604 125.757 96.6059 125.8 96.6079C125.8 96.6079 135.621 95.7371 138.791 94.9664C138.864 94.9481 138.916 94.9073 138.955 94.8442C138.955 94.8442 139.594 93.6409 139.565 92.6954C139.564 92.5656 139.46 92.4671 139.331 92.454L123.004 91.2332ZM123.175 91.7456L139.057 92.9244C139.007 93.5564 138.687 94.2481 138.56 94.5018C135.464 95.211 126.685 96.014 125.824 96.0973C124.125 95.2629 123.236 93.7376 123.096 93.4862C123 92.7394 123.11 92.0669 123.175 91.7456Z" fill="#171718"/>
<path fill-rule="evenodd" clip-rule="evenodd" d="M126.023 94.6144C126.023 94.6144 138.02 93.4105 139.308 92.9864C139.784 92.8351 138.007 89.7628 136.033 89.0962C133.378 88.2038 125.866 89.8287 123.816 90.5351C121.766 91.2344 123.689 92.8429 126.023 94.6144Z" fill="white"/>
<path fill-rule="evenodd" clip-rule="evenodd" d="M125.876 94.8095C125.924 94.8478 125.988 94.8651 126.053 94.8608C126.053 94.8608 138.102 93.6449 139.39 93.2208C139.507 93.1829 139.597 93.1005 139.626 92.9504C139.645 92.8504 139.637 92.6987 139.581 92.5088C139.292 91.5802 137.769 89.4133 136.115 88.855C135.299 88.5799 134.026 88.529 132.594 88.6222C129.319 88.8403 125.182 89.7975 123.732 90.2935C123.139 90.5043 122.837 90.7932 122.736 91.1057C122.661 91.3401 122.685 91.5935 122.803 91.8584C122.946 92.1964 123.246 92.5777 123.653 92.9783C124.225 93.5449 125.019 94.165 125.876 94.8095ZM139.122 92.7761C137.481 93.1914 127.206 94.236 126.098 94.3512C124.984 93.5075 123.975 92.7047 123.48 92.0262C123.277 91.7431 123.158 91.4926 123.212 91.2716C123.265 91.0577 123.495 90.9025 123.898 90.7623C125.326 90.2653 129.405 89.3343 132.629 89.1211C133.981 89.0314 135.183 89.0718 135.957 89.3306C137.277 89.78 138.495 91.3564 138.963 92.3147C139.042 92.4841 139.098 92.6813 139.122 92.7761Z" fill="#171718"/>
<path fill-rule="evenodd" clip-rule="evenodd" d="M126.027 96.3804L126.272 94.6474C126.292 94.5114 126.197 94.3773 126.061 94.3639C125.925 94.3433 125.798 94.4456 125.777 94.5816L125.532 96.3218C125.512 96.4506 125.607 96.5847 125.743 96.6053C125.879 96.6187 126.006 96.5236 126.027 96.3804Z" fill="#171718"/>
<path fill-rule="evenodd" clip-rule="evenodd" d="M45.3242 154.606C45.3242 154.606 49.3994 158.062 50.8754 158.947C52.6754 158.89 54.0506 158.486 55.2026 157.896L49.6874 153.367L46.577 153.468L45.3242 154.606Z" fill="white"/>
<path fill-rule="evenodd" clip-rule="evenodd" d="M45.1504 154.426C45.1 154.476 45.064 154.541 45.0712 154.613C45.0712 154.685 45.1072 154.75 45.1576 154.8C45.1576 154.8 49.2545 158.278 50.7449 159.17C50.7881 159.192 50.8312 159.206 50.8816 159.206C52.7248 159.142 54.136 158.724 55.3096 158.126C55.3816 158.09 55.4392 158.018 55.4464 157.932C55.4536 157.846 55.4249 157.766 55.3529 157.709L49.8376 153.18C49.7944 153.137 49.7297 153.122 49.6721 153.122L46.5616 153.223C46.504 153.23 46.4464 153.245 46.4032 153.288L45.1504 154.426ZM45.6976 154.606L46.6696 153.72L49.5929 153.626L54.7336 157.853C53.704 158.328 52.4801 158.645 50.9321 158.702C49.6361 157.889 46.5472 155.318 45.6976 154.606Z" fill="#171718"/>
<path fill-rule="evenodd" clip-rule="evenodd" d="M70.8326 143.964L72.5318 143.662C72.5318 143.662 72.0134 141.89 71.4158 140.969L70.2422 141.358L70.8326 143.964Z" fill="white"/>
<path fill-rule="evenodd" clip-rule="evenodd" d="M70.5883 144.022C70.6171 144.151 70.7467 144.238 70.8763 144.216L72.5683 143.914C72.6403 143.899 72.6979 143.856 72.7339 143.798C72.7699 143.741 72.7843 143.669 72.7627 143.597C72.7627 143.597 72.2299 141.782 71.6179 140.839C71.5531 140.746 71.4379 140.71 71.3299 140.746L70.1563 141.127C70.0339 141.17 69.9619 141.293 69.9907 141.422L70.5883 144.022ZM71.0203 143.676L70.5307 141.523L71.3011 141.271C71.7043 141.962 72.0499 142.985 72.2083 143.467L71.0203 143.676Z" fill="#171718"/>
<path d="M79.7561 132.975C79.9386 132.975 80.0865 132.827 80.0865 132.645C80.0865 132.462 79.9386 132.314 79.7561 132.314C79.5737 132.314 79.4258 132.462 79.4258 132.645C79.4258 132.827 79.5737 132.975 79.7561 132.975Z" fill="#171718"/>
<path fill-rule="evenodd" clip-rule="evenodd" d="M48.707 76.4064C48.707 76.4064 58.8518 83.628 60.5654 83.8296C62.279 84.0312 68.4639 80.316 69.2919 79.4592C69.2919 79.4592 64.6047 75.3048 56.1159 71.0856C56.1159 71.0856 51.587 71.1792 48.707 76.4064Z" fill="white"/>
<path fill-rule="evenodd" clip-rule="evenodd" d="M48.4857 76.284C48.4209 76.392 48.4569 76.5288 48.5577 76.608C48.5577 76.608 53.5329 80.1504 57.1113 82.3464C58.6881 83.3112 59.9985 84.0096 60.5313 84.0744C61.0713 84.1392 62.0361 83.844 63.1449 83.3616C65.6361 82.2744 68.8761 80.244 69.4665 79.632C69.5169 79.5816 69.5385 79.5169 69.5385 79.4449C69.5385 79.3801 69.5025 79.3152 69.4521 79.272C69.4521 79.272 64.7433 75.1032 56.2257 70.8624C56.1897 70.8408 56.1465 70.8336 56.1105 70.8336C56.1105 70.8336 51.4449 70.92 48.4857 76.284ZM49.0329 76.3272C51.6465 71.7768 55.5417 71.3736 56.0601 71.3376C63.4257 75.0096 67.9113 78.624 68.9049 79.4592C68.0049 80.2008 65.1609 81.9289 62.9433 82.9009C61.9425 83.3401 61.0785 83.6352 60.5889 83.5704C60.0921 83.5128 58.8609 82.8288 57.3705 81.9144C54.2169 79.9776 49.9617 76.9896 49.0329 76.3272Z" fill="#171718"/>
<path fill-rule="evenodd" clip-rule="evenodd" d="M66.3782 84.24C66.3782 84.24 66.2342 83.232 65.8814 82.7208C65.5286 82.2096 66.155 80.892 65.0102 79.6752C63.8654 78.4584 64.4486 76.9176 64.3982 75.7584C64.3406 74.5992 62.9366 73.188 62.879 70.452C62.8214 67.7232 63.059 65.6424 64.2326 65.7504C65.4062 65.844 66.2486 65.6424 67.9838 64.764C69.719 63.8928 69.6974 65.772 71.627 65.1168C73.5566 64.4544 74.3198 65.2392 74.1974 65.8584C74.075 66.4848 74.3126 67.392 75.3422 68.364C76.3718 69.336 76.343 70.9704 75.5726 72.9216C74.8022 74.8656 75.119 76.4208 75.3422 77.9832C75.5654 79.5456 75.2054 81.5904 74.255 83.412L69.179 85.4136L67.4078 85.9608L66.371 85.1904L66.3782 84.24Z" fill="#171718"/>
<path fill-rule="evenodd" clip-rule="evenodd" d="M66.1256 84.2616L66.1328 85.1832C66.1328 85.2624 66.1688 85.3417 66.2336 85.3849L67.2704 86.148C67.3352 86.1984 67.4144 86.2056 67.4936 86.1912L69.2648 85.644C69.272 85.644 69.2792 85.6369 69.2864 85.6369L74.3624 83.6424C74.42 83.6208 74.4632 83.5776 74.492 83.5272C75.464 81.6408 75.8312 79.5456 75.6008 77.94C75.3776 76.4136 75.0608 74.9016 75.8168 73.008C76.6304 70.9416 76.616 69.2136 75.5288 68.184C74.5928 67.2984 74.3408 66.4705 74.456 65.9089C74.5208 65.5705 74.4056 65.2032 74.0744 64.944C73.6568 64.6128 72.8432 64.4472 71.5616 64.8792C70.7048 65.1744 70.28 64.9009 69.8768 64.6489C69.5672 64.4617 69.2648 64.2888 68.8616 64.2816C68.5952 64.2816 68.2784 64.3464 67.8824 64.548C66.2048 65.3904 65.3984 65.5992 64.2608 65.4984C63.6848 65.448 63.2672 65.8008 63.008 66.492C62.684 67.3488 62.6048 68.7816 62.6408 70.4592C62.6768 72.144 63.2096 73.3392 63.6416 74.2896C63.908 74.8656 64.1384 75.3408 64.16 75.78C64.1888 76.3632 64.0592 77.0328 64.0592 77.7096C64.0664 78.444 64.2176 79.1928 64.844 79.8552C65.4776 80.5248 65.5136 81.2305 65.5136 81.7849C65.5136 82.0441 65.5136 82.2744 65.5424 82.4544C65.564 82.62 65.6144 82.7569 65.6864 82.8649C65.9744 83.2969 66.1112 84.1248 66.1256 84.2616ZM66.6296 84.24C66.6296 84.2256 66.6296 84.2184 66.6296 84.204C66.6296 84.204 66.4712 83.1241 66.0896 82.5769C66.0392 82.5049 66.0248 82.4112 66.0176 82.3032C66.0032 82.152 66.0104 81.972 66.0032 81.7776C65.996 81.1152 65.9384 80.2872 65.1968 79.5024C64.6784 78.9408 64.556 78.3144 64.5488 77.688C64.5488 77.004 64.6784 76.3273 64.6496 75.7369C64.628 75.2473 64.3832 74.7072 64.0808 74.0592C63.6704 73.1592 63.1592 72.0216 63.1232 70.4376C63.0872 68.8392 63.152 67.464 63.4616 66.6504C63.6272 66.2256 63.8432 65.952 64.2104 65.988C65.4272 66.0888 66.2984 65.8944 68.0984 64.9872C68.4008 64.8288 68.6384 64.7712 68.84 64.7784C69.1424 64.7784 69.3656 64.9224 69.6032 65.0664C70.1072 65.376 70.64 65.7144 71.7128 65.3472C72.5912 65.0448 73.2032 65.0592 73.5848 65.232C73.8728 65.3616 74.0024 65.5849 73.9592 65.8009C73.8224 66.4777 74.06 67.4785 75.176 68.5369C76.1408 69.4585 76.0688 70.9848 75.3416 72.8136C74.5496 74.8152 74.8664 76.3993 75.0968 78.0049C75.3128 79.5025 74.9672 81.4464 74.0816 83.2032L69.1064 85.1689L67.4648 85.6729L66.6296 85.0536V84.24Z" fill="#171718"/>
<path fill-rule="evenodd" clip-rule="evenodd" d="M66.3491 84.06C66.3491 84.06 65.0963 83.9952 65.1755 85.0464C65.2691 86.2776 66.8171 85.9824 66.8171 85.9824C66.8171 85.9824 67.9403 90.3672 71.1875 90C74.4347 89.6328 74.2187 83.4624 74.2187 83.4624C74.2187 83.4624 73.9667 82.1736 72.2099 82.188C70.4459 82.2024 70.1075 82.1664 69.3875 82.1448C68.6675 82.1232 68.0195 82.4904 67.8683 82.9872C67.7171 83.484 67.0979 86.6088 66.3491 84.06Z" fill="white"/>
<path fill-rule="evenodd" clip-rule="evenodd" d="M66.9451 84.7872C66.9235 84.7656 66.8731 84.7008 66.8371 84.6432C66.7579 84.4992 66.6715 84.2832 66.5851 83.988C66.5563 83.8872 66.4627 83.8152 66.3547 83.808C66.3547 83.808 65.9875 83.7864 65.6347 83.9232C65.2459 84.0744 64.8643 84.3912 64.9147 85.0608C64.9723 85.824 65.4763 86.1192 65.9731 86.22C66.2179 86.2704 66.4627 86.2704 66.6283 86.256C66.7795 86.7384 67.2187 87.948 68.0467 88.9056C68.7811 89.7552 69.8107 90.4032 71.2003 90.2448C72.5971 90.0864 73.4179 88.956 73.8787 87.624C74.5339 85.7304 74.4547 83.4552 74.4547 83.4552C74.4547 83.4408 74.4546 83.4336 74.4474 83.4192C74.4474 83.4192 74.3467 82.872 73.8139 82.44C73.4755 82.1664 72.9643 81.936 72.1867 81.9432C70.4299 81.9648 70.0914 81.9216 69.3714 81.9C68.529 81.8784 67.7874 82.3464 67.6074 82.9224C67.5354 83.16 67.3483 84.0456 67.0891 84.5568C67.0459 84.6432 67.0026 84.7152 66.9594 84.7656C66.9666 84.7656 66.9523 84.78 66.9451 84.7872ZM66.1603 84.312C66.2899 84.7152 66.4267 84.9672 66.5419 85.0968C66.7003 85.2768 66.8659 85.32 67.0099 85.2984C67.1107 85.2768 67.2043 85.2264 67.2979 85.14C67.3915 85.0536 67.4779 84.9168 67.5643 84.7512C67.8307 84.2112 68.0251 83.3184 68.0971 83.0736C68.1403 82.9224 68.2554 82.8 68.3994 82.692C68.6442 82.512 68.997 82.404 69.3714 82.4112C70.0914 82.4328 70.4371 82.4688 72.2011 82.4544C72.8275 82.4544 73.245 82.62 73.5114 82.8432C73.8426 83.1096 73.9435 83.4408 73.9651 83.5056C73.9723 83.7432 74.0011 85.7664 73.4107 87.4728C73.0147 88.6104 72.3451 89.6256 71.1499 89.7624C69.9475 89.892 69.0619 89.316 68.4283 88.5888C67.4419 87.4512 67.0531 85.932 67.0531 85.932C67.0171 85.8096 66.8947 85.7304 66.7651 85.752C66.7651 85.752 66.4267 85.8096 66.0739 85.7376C65.7715 85.68 65.4547 85.5072 65.4187 85.032C65.4043 84.852 65.4403 84.7152 65.5123 84.6144C65.6203 84.456 65.8075 84.3912 65.9659 84.3552C66.0379 84.3336 66.1027 84.3192 66.1603 84.312Z" fill="#171718"/>
<path fill-rule="evenodd" clip-rule="evenodd" d="M71.3948 85.5C71.3948 85.5 73.274 86.2992 74.1596 86.6736C74.4116 86.7744 74.5269 87.0624 74.4261 87.3144C74.4189 87.3216 74.4188 87.336 74.4116 87.3432C74.3612 87.4728 74.2604 87.5736 74.1308 87.6168C74.0012 87.6744 73.8572 87.6672 73.7348 87.6024C72.7268 87.1272 70.4805 86.076 70.4805 86.076L71.3948 85.5Z" fill="white"/>
<path fill-rule="evenodd" clip-rule="evenodd" d="M71.2954 85.7304L74.0602 86.904C74.1826 86.9616 74.2474 87.0984 74.197 87.2208C74.1898 87.2352 74.1898 87.2423 74.1826 87.2495C74.1538 87.3143 74.1034 87.3647 74.0458 87.3935C73.981 87.4151 73.909 87.4152 73.8514 87.3864L70.597 85.8528C70.4746 85.7952 70.3234 85.8455 70.2658 85.9751C70.2082 86.0975 70.2586 86.2488 70.3882 86.3064C70.3882 86.3064 72.6346 87.3648 73.6426 87.84C73.8298 87.9336 74.0458 87.9335 74.233 87.8615C74.4274 87.7823 74.5786 87.6312 74.6506 87.444C74.6506 87.4296 74.6578 87.4295 74.665 87.4151C74.8162 87.0335 74.6362 86.6088 74.2618 86.4504C73.3762 86.076 71.497 85.2768 71.497 85.2768C71.3674 85.2192 71.2234 85.2768 71.173 85.4064C71.1082 85.5288 71.173 85.6728 71.2954 85.7304Z" fill="#171718"/>
<path fill-rule="evenodd" clip-rule="evenodd" d="M68.9322 86.688C68.9322 86.688 69.537 88.1064 70.9914 87.7896C71.1282 87.7608 71.2074 87.624 71.1786 87.4872C71.1498 87.3504 71.013 87.264 70.8834 87.2928C69.825 87.5232 69.393 86.4936 69.393 86.4936C69.3354 86.364 69.1914 86.3064 69.069 86.364C68.9394 86.4216 68.8818 86.5656 68.9322 86.688Z" fill="#171718"/>
<path fill-rule="evenodd" clip-rule="evenodd" d="M68.7329 83.3831C68.4881 83.3759 68.2793 83.4768 68.1137 83.6568C67.9121 83.8872 67.7826 84.24 67.7466 84.6144C67.7106 84.9744 67.7538 85.3488 67.8834 85.608C67.9914 85.8384 68.1641 85.9896 68.3657 86.0256C69.0713 86.1912 70.4394 86.1984 70.4394 86.1984C70.5114 86.1984 70.5905 86.1696 70.6337 86.1048C70.8353 85.86 71.037 85.7448 71.2242 85.716C71.6562 85.6512 72.0017 86.0111 72.0017 86.0111C72.0521 86.0615 72.1169 86.0904 72.1817 86.0904C72.9161 86.0832 73.5569 86.04 73.9169 85.896C74.1473 85.8024 74.2841 85.6656 74.3417 85.5144C74.4641 85.1688 74.3994 84.924 74.4426 84.4488C74.4642 84.1536 74.385 83.8583 74.1906 83.6351C74.0034 83.4119 73.701 83.2535 73.2762 83.2391C72.6066 83.2103 68.9417 83.3687 68.7329 83.3831ZM68.7257 83.88C68.7329 83.88 68.7402 83.88 68.7474 83.88C68.7474 83.88 72.5777 83.7144 73.2617 83.736C73.5209 83.7432 73.701 83.8295 73.8162 83.9591C73.9242 84.0887 73.9601 84.2472 73.9529 84.4056C73.9169 84.8232 73.9889 85.0464 73.8809 85.3488C73.8737 85.3704 73.8377 85.3847 73.8089 85.3991C73.7585 85.4279 73.6938 85.4495 73.6146 85.4711C73.2906 85.5575 72.8225 85.5864 72.2897 85.5864C72.1097 85.4424 71.6778 85.1472 71.1666 85.2264C70.9074 85.2624 70.6193 85.392 70.3457 85.7016C70.0145 85.6944 69.0354 85.6656 68.4882 85.536C68.3946 85.5144 68.3442 85.4064 68.3082 85.2984C68.2506 85.1184 68.2289 84.888 68.2577 84.6648C68.2793 84.4488 68.3441 84.2327 68.4449 84.0671C68.5097 83.9591 68.6033 83.8728 68.7257 83.88Z" fill="#171718"/>
<path fill-rule="evenodd" clip-rule="evenodd" d="M74.2031 83.412C74.2031 83.412 75.0599 83.3471 75.2903 83.9951C75.5279 84.6503 75.0311 85.3632 74.2031 85.4064V83.412Z" fill="white"/>
<path fill-rule="evenodd" clip-rule="evenodd" d="M74.216 83.6569C74.216 83.6569 74.3888 83.6424 74.5904 83.7C74.7632 83.7504 74.9648 83.844 75.0512 84.0816C75.2312 84.5856 74.828 85.1185 74.1872 85.1545C74.0504 85.1617 73.9424 85.2841 73.9496 85.4209C73.9568 85.5577 74.072 85.6584 74.216 85.6512C75.2312 85.5936 75.8144 84.7009 75.5264 83.9089C75.3752 83.4913 75.0368 83.304 74.7272 83.2176C74.4392 83.1384 74.1872 83.16 74.1872 83.16C74.0504 83.1744 73.9424 83.2896 73.9568 83.4336C73.9568 83.5704 74.0792 83.6713 74.216 83.6569Z" fill="#171718"/>
<path d="M72.7279 85.146C72.8797 85.146 73.0027 85.023 73.0027 84.8713C73.0027 84.7195 72.8797 84.5965 72.7279 84.5965C72.5761 84.5965 72.4531 84.7195 72.4531 84.8713C72.4531 85.023 72.5761 85.146 72.7279 85.146Z" fill="#171718"/>
<path d="M69.6264 85.0172C69.7781 85.0172 69.9012 84.8941 69.9012 84.7423C69.9012 84.5905 69.7781 84.4675 69.6264 84.4675C69.4746 84.4675 69.3516 84.5905 69.3516 84.7423C69.3516 84.8941 69.4746 85.0172 69.6264 85.0172Z" fill="#171718"/>
<path fill-rule="evenodd" clip-rule="evenodd" d="M70.2359 139.637L31.1111 140.537C31.1111 140.537 30.6863 141.811 30.9671 144.187C31.2407 146.563 36.6911 153.518 44.5895 154.685C44.5895 154.685 62.4671 151.106 70.8335 143.964C70.8335 143.964 71.1431 141.394 70.2359 139.637Z" fill="white"/>
<path fill-rule="evenodd" clip-rule="evenodd" d="M70.4589 139.522C70.4157 139.435 70.3293 139.385 70.2285 139.392L31.1037 140.285C30.9957 140.292 30.9093 140.357 30.8733 140.458C30.8733 140.458 30.4341 141.768 30.7149 144.216C30.8013 144.958 31.3557 146.124 32.3349 147.434C34.5597 150.408 38.9517 154.109 44.5461 154.937C44.5749 154.944 44.6037 154.944 44.6325 154.937C44.6325 154.937 62.5893 151.33 70.9917 144.158C71.0421 144.115 71.0709 144.058 71.0781 144C71.0781 143.993 71.3949 141.343 70.4589 139.522ZM70.0845 139.889C70.7757 141.386 70.6389 143.381 70.5957 143.834C62.4741 150.696 45.5397 154.231 44.5821 154.433C39.1533 153.612 34.8981 150.019 32.7381 147.132C31.8309 145.922 31.2909 144.842 31.2117 144.158C31.0029 142.344 31.2045 141.192 31.3053 140.789L70.0845 139.889Z" fill="#171718"/>
<path fill-rule="evenodd" clip-rule="evenodd" d="M60.5574 129.83C59.5854 129.19 58.3974 128.966 57.267 129.204C52.155 130.327 37.0206 134.1 31.1094 140.537C31.1094 140.537 37.0782 148.471 44.5806 150.494C44.5806 150.494 60.291 147.413 70.2342 139.637C70.2342 139.637 67.4406 134.359 60.5574 129.83Z" fill="white"/>
<path fill-rule="evenodd" clip-rule="evenodd" d="M60.7034 129.622C59.6738 128.945 58.421 128.707 57.2186 128.959C54.1442 129.636 47.4482 131.27 41.3066 133.862C37.1882 135.605 33.3146 137.772 30.9314 140.371C30.8522 140.465 30.845 140.594 30.917 140.688C30.917 140.688 36.9434 148.694 44.525 150.732C44.561 150.746 44.597 150.746 44.6402 150.739C44.6402 150.739 60.4154 147.643 70.4018 139.838C70.4954 139.766 70.5242 139.637 70.4666 139.529C70.4594 139.522 67.6442 134.194 60.7034 129.622ZM60.4226 130.039C66.4922 134.035 69.3578 138.614 69.9122 139.572C60.3506 146.945 45.6194 150.026 44.5898 150.235C37.8218 148.378 32.3282 141.689 31.4354 140.558C33.7898 138.067 37.5266 136.001 41.4938 134.323C47.5994 131.746 54.2594 130.126 57.3194 129.449C58.3922 129.226 59.5082 129.434 60.4226 130.039Z" fill="#171718"/>
<path fill-rule="evenodd" clip-rule="evenodd" d="M44.3351 150.474L44.1327 153.712C44.1245 153.858 44.2317 153.979 44.3686 153.978C44.5054 153.985 44.6286 153.878 44.6367 153.749L44.8391 150.51C44.8473 150.365 44.74 150.244 44.6032 150.245C44.4664 150.23 44.3433 150.336 44.3351 150.474Z" fill="#171718"/>
<path fill-rule="evenodd" clip-rule="evenodd" d="M114.176 91.1952C114.176 91.1952 115.465 97.0272 121.383 97.488L122.11 93.7584C122.11 93.7584 121.649 92.9376 121.059 91.656C121.059 91.656 122.254 90.9648 122.038 90.0072C121.822 89.0496 120.677 88.7688 120.123 89.5248C120.123 89.5248 120.375 91.9224 118.69 89.5248C118.69 89.5248 118.013 89.9208 117.445 89.6544C117.445 89.6544 116.782 90.7128 115.637 90.4176C115.637 90.4104 115.321 91.1376 114.176 91.1952Z" fill="white"/>
<path fill-rule="evenodd" clip-rule="evenodd" d="M119.799 90.3311C119.785 90.3311 119.77 90.324 119.756 90.3168C119.72 90.3024 119.684 90.2736 119.641 90.2376C119.453 90.0936 119.216 89.82 118.899 89.3736C118.827 89.2656 118.683 89.2368 118.568 89.3016C118.568 89.3016 118.021 89.64 117.553 89.4168C117.437 89.3664 117.301 89.4024 117.236 89.5104C117.236 89.5104 116.674 90.4176 115.702 90.1656C115.587 90.1368 115.457 90.1944 115.414 90.3024C115.414 90.3024 115.133 90.8928 114.169 90.936C114.097 90.9432 114.025 90.9792 113.981 91.0296C113.938 91.0872 113.917 91.1664 113.938 91.2384C113.938 91.2384 115.27 97.2504 121.369 97.7328C121.498 97.7472 121.606 97.6535 121.635 97.5311L122.362 93.8016C122.377 93.744 122.362 93.6864 122.333 93.636C122.333 93.636 121.923 92.8943 121.376 91.7351C121.541 91.6127 121.793 91.4112 121.988 91.1376C122.225 90.8136 122.384 90.4032 122.276 89.9424C122.002 88.7616 120.598 88.4376 119.914 89.3664C119.878 89.424 119.857 89.4816 119.864 89.5464C119.864 89.5464 119.893 89.8199 119.864 90.0791C119.857 90.1511 119.842 90.2232 119.813 90.2808C119.813 90.3024 119.806 90.3239 119.799 90.3311ZM114.493 91.4111C115.22 91.2959 115.594 90.9215 115.76 90.6911C116.667 90.8279 117.279 90.2376 117.531 89.9496C117.941 90.0576 118.366 89.928 118.604 89.8344C118.978 90.3456 119.266 90.612 119.468 90.7344C119.72 90.8784 119.907 90.8568 120.044 90.7704C120.181 90.6912 120.281 90.5256 120.332 90.3168C120.389 90.072 120.382 89.7624 120.375 89.604C120.821 89.1144 121.628 89.352 121.793 90.0576C121.865 90.3672 121.743 90.6336 121.585 90.8496C121.318 91.2096 120.937 91.4328 120.937 91.4328C120.821 91.4976 120.778 91.6344 120.836 91.7568C121.325 92.8152 121.729 93.564 121.858 93.8016L121.189 97.2216C116.386 96.7176 114.824 92.5271 114.493 91.4111Z" fill="#171718"/>
<path fill-rule="evenodd" clip-rule="evenodd" d="M114.695 92.6495C114.695 92.6495 115.653 91.7927 118.252 90.4391C118.389 90.3671 118.562 90.4032 118.655 90.5328C118.864 90.8136 119.239 91.3248 119.512 91.7784C119.591 91.9152 119.563 92.088 119.433 92.1888C118.965 92.5632 117.914 93.3984 117.914 93.3984C117.914 93.3984 117.575 92.7792 117.05 93.1248C116.791 93.3552 116.733 93.6144 116.783 93.888L115.783 94.4855C115.797 94.4855 115.012 93.4199 114.695 92.6495Z" fill="white"/>
<path fill-rule="evenodd" clip-rule="evenodd" d="M114.531 92.4624C114.452 92.5344 114.43 92.6423 114.466 92.7431C114.79 93.5351 115.589 94.6296 115.589 94.6296C115.669 94.7376 115.805 94.7592 115.92 94.6944L116.921 94.0968C117.008 94.0464 117.058 93.9384 117.036 93.8376C117 93.6504 117.044 93.4704 117.209 93.312C117.512 93.132 117.706 93.5136 117.706 93.5136C117.742 93.5784 117.807 93.6215 117.879 93.6431C117.951 93.6575 118.023 93.636 118.08 93.5928C118.08 93.5928 119.132 92.7503 119.6 92.3831C119.823 92.2103 119.88 91.8936 119.736 91.6488C119.736 91.6416 119.736 91.6416 119.736 91.6416C119.456 91.1808 119.074 90.6624 118.865 90.3744C118.7 90.1512 118.39 90.0792 118.145 90.2088C115.503 91.5912 114.531 92.4624 114.531 92.4624ZM115.006 92.7216C115.352 92.448 116.36 91.7064 118.368 90.6624C118.397 90.6408 118.433 90.6552 118.455 90.6768C118.664 90.9504 119.024 91.4544 119.304 91.9008C119.319 91.9296 119.312 91.9656 119.29 91.9944C118.952 92.268 118.289 92.7864 117.965 93.0528C117.764 92.844 117.396 92.6064 116.928 92.916C116.914 92.9304 116.907 92.9304 116.9 92.9376C116.626 93.1824 116.525 93.4631 116.532 93.7511L115.87 94.1471C115.654 93.8447 115.251 93.24 115.006 92.7216Z" fill="#171718"/>
<path d="M118.017 92.1739C118.169 92.1739 118.292 92.0509 118.292 91.8991C118.292 91.7473 118.169 91.6243 118.017 91.6243C117.865 91.6243 117.742 91.7473 117.742 91.8991C117.742 92.0509 117.865 92.1739 118.017 92.1739Z" fill="#171718"/>
<path d="M115.9 93.4117C116.052 93.4117 116.175 93.2887 116.175 93.137C116.175 92.9852 116.052 92.8622 115.9 92.8622C115.748 92.8622 115.625 92.9852 115.625 93.137C115.625 93.2887 115.748 93.4117 115.9 93.4117Z" fill="#171718"/>
<path fill-rule="evenodd" clip-rule="evenodd" d="M116.92 93.3696C116.92 93.3696 116.207 95.1624 115.869 96.0048C115.775 96.2424 115.89 96.5088 116.121 96.6024C116.236 96.6528 116.365 96.6528 116.481 96.5952C116.596 96.5448 116.689 96.4584 116.733 96.336C117.071 95.472 117.784 93.636 117.784 93.636L116.92 93.3696Z" fill="white"/>
<path fill-rule="evenodd" clip-rule="evenodd" d="M116.692 93.276C116.692 93.276 115.979 95.0616 115.641 95.904C115.497 96.2712 115.669 96.6816 116.029 96.8256C116.209 96.9048 116.404 96.8976 116.584 96.8256C116.764 96.7464 116.901 96.6025 116.973 96.4225L118.024 93.7225C118.074 93.5929 118.009 93.4489 117.88 93.3985C117.75 93.3481 117.606 93.4129 117.556 93.5425L116.505 96.2425C116.483 96.3001 116.44 96.3361 116.389 96.3649C116.339 96.3865 116.274 96.3865 116.224 96.3649C116.116 96.3217 116.065 96.1992 116.109 96.0912L117.16 93.456C117.21 93.3264 117.145 93.1824 117.023 93.132C116.886 93.0816 116.742 93.1464 116.692 93.276Z" fill="#171718"/>
<path fill-rule="evenodd" clip-rule="evenodd" d="M118.463 94.8095C118.463 94.8095 120.032 94.5143 119.831 92.9159C119.816 92.7791 119.687 92.6783 119.55 92.6999C119.413 92.7215 119.319 92.8439 119.334 92.9735C119.478 94.1039 118.369 94.3128 118.369 94.3128C118.232 94.3344 118.146 94.4712 118.167 94.6008C118.196 94.7376 118.326 94.8311 118.463 94.8095Z" fill="#171718"/>
<path d="M108.015 48.8802C113.094 48.8802 117.21 44.7635 117.21 39.6852C117.21 34.607 113.094 30.4902 108.015 30.4902C102.937 30.4902 98.8203 34.607 98.8203 39.6852C98.8203 44.7635 102.937 48.8802 108.015 48.8802Z" fill="white"/>
<path fill-rule="evenodd" clip-rule="evenodd" d="M108.018 30.241C102.804 30.241 98.5742 34.4712 98.5742 39.6852C98.5742 44.8992 102.804 49.1294 108.018 49.1294C113.232 49.1294 117.463 44.8992 117.463 39.6852C117.463 34.4712 113.232 30.241 108.018 30.241ZM108.018 30.7394C112.957 30.7394 116.964 34.7533 116.964 39.6852C116.964 44.6172 112.957 48.631 108.018 48.631C103.08 48.631 99.0727 44.6172 99.0727 39.6852C99.0727 34.7533 103.08 30.7394 108.018 30.7394Z" fill="#171718"/>
<path fill-rule="evenodd" clip-rule="evenodd" d="M107.766 23.7947V26.5033C107.766 26.641 107.877 26.7525 108.015 26.7525C108.153 26.7525 108.264 26.6345 108.264 26.5033V23.7947C108.264 23.6504 108.153 23.5455 108.015 23.5455C107.877 23.5455 107.766 23.657 107.766 23.7947Z" fill="#171718"/>
<path fill-rule="evenodd" clip-rule="evenodd" d="M107.766 51.3401V54.0487C107.766 54.1864 107.877 54.298 108.015 54.298C108.153 54.298 108.264 54.1799 108.264 54.0487V51.3401C108.264 51.1958 108.153 51.0909 108.015 51.0909C107.877 51.0843 107.766 51.1958 107.766 51.3401Z" fill="#171718"/>
<path fill-rule="evenodd" clip-rule="evenodd" d="M123.141 38.6654H120.433C120.295 38.6654 120.184 38.7769 120.184 38.9146C120.184 39.0523 120.302 39.1638 120.433 39.1638H123.141C123.286 39.1638 123.391 39.0523 123.391 38.9146C123.391 38.7769 123.286 38.6654 123.141 38.6654Z" fill="#171718"/>
<path fill-rule="evenodd" clip-rule="evenodd" d="M95.6024 38.6654H92.8937C92.756 38.6654 92.6444 38.7769 92.6444 38.9146C92.6444 39.0523 92.7625 39.1638 92.8937 39.1638H95.6024C95.7466 39.1638 95.8516 39.0523 95.8516 38.9146C95.8516 38.7769 95.7401 38.6654 95.6024 38.6654Z" fill="#171718"/>
<path fill-rule="evenodd" clip-rule="evenodd" d="M117.803 28.7816L116.62 29.9647C116.522 30.0621 116.521 30.2211 116.618 30.3185C116.716 30.4159 116.872 30.4174 116.972 30.3172L118.155 29.134C118.253 29.0366 118.254 28.8776 118.157 28.7802C118.059 28.6828 117.903 28.6813 117.803 28.7816Z" fill="#171718"/>
<path fill-rule="evenodd" clip-rule="evenodd" d="M99.0607 47.5217L97.8776 48.7048C97.7802 48.8022 97.7788 48.9613 97.8762 49.0587C97.9736 49.156 98.1326 49.1547 98.23 49.0573L99.4131 47.8742C99.5105 47.7768 99.5119 47.6177 99.4145 47.5203C99.3171 47.4229 99.1581 47.4243 99.0607 47.5217Z" fill="#171718"/>
<path fill-rule="evenodd" clip-rule="evenodd" d="M118.158 48.7019L116.975 47.5188C116.878 47.4214 116.719 47.42 116.621 47.5174C116.524 47.6148 116.525 47.7739 116.623 47.8713L117.806 49.0544C117.903 49.1518 118.062 49.1531 118.16 49.0558C118.257 48.9584 118.256 48.7993 118.158 48.7019Z" fill="#171718"/>
<path fill-rule="evenodd" clip-rule="evenodd" d="M99.4161 29.9619L98.233 28.7788C98.1356 28.6814 97.9766 28.68 97.8792 28.7774C97.7818 28.8748 97.7832 29.0338 97.8806 29.1312L99.0637 30.3143C99.1611 30.4117 99.3201 30.4131 99.4175 30.3157C99.512 30.2155 99.5135 30.0592 99.4161 29.9619Z" fill="#171718"/>
<path d="M107.115 41.8372C107.273 41.8372 107.402 41.7088 107.402 41.5505C107.402 41.3921 107.273 41.2637 107.115 41.2637C106.956 41.2637 106.828 41.3921 106.828 41.5505C106.828 41.7088 106.956 41.8372 107.115 41.8372Z" fill="#171718"/>
<path d="M104.982 42.8492C105.14 42.8492 105.269 42.7208 105.269 42.5625C105.269 42.4041 105.14 42.2758 104.982 42.2758C104.824 42.2758 104.695 42.4041 104.695 42.5625C104.695 42.7208 104.824 42.8492 104.982 42.8492Z" fill="#171718"/>
<path fill-rule="evenodd" clip-rule="evenodd" d="M106.133 44.8255C106.133 44.8255 107.645 45.3381 108.253 43.8462C108.308 43.7199 108.241 43.5748 108.115 43.5203C107.985 43.472 107.843 43.5327 107.792 43.6527C107.363 44.7085 106.301 44.3501 106.301 44.3501C106.171 44.3018 106.029 44.3787 105.984 44.5022C105.932 44.6383 106.003 44.7772 106.133 44.8255Z" fill="#171718"/>
</svg>
