<svg width="180" height="180" viewBox="0 0 180 180" fill="none" xmlns="http://www.w3.org/2000/svg">
<path fill-rule="evenodd" clip-rule="evenodd" d="M19.6057 129.26L21.5637 140.789L31.8714 135.157L24.0305 135.683L19.6057 129.26Z" fill="white"/>
<path fill-rule="evenodd" clip-rule="evenodd" d="M19.9138 129.05C19.8123 128.906 19.6289 128.847 19.4616 128.914C19.2942 128.98 19.2064 129.149 19.2348 129.322L21.1929 140.85C21.2111 140.971 21.2907 141.074 21.4005 141.127C21.5102 141.18 21.6358 141.176 21.7464 141.118L32.0541 135.486C32.207 135.401 32.2827 135.22 32.2354 135.05C32.1833 134.877 32.023 134.771 31.8478 134.78L24.22 135.291L19.9138 129.05ZM20.2585 130.87L23.721 135.898C23.7984 136.006 23.9224 136.066 24.0551 136.059L30.1932 135.646L21.8454 140.206L20.2585 130.87Z" fill="#171718"/>
<path fill-rule="evenodd" clip-rule="evenodd" d="M31.6293 119.773L20.6303 127.031L24.9768 133.616L32.9674 132.779L31.6293 119.773Z" fill="white"/>
<path fill-rule="evenodd" clip-rule="evenodd" d="M32.0043 119.737C31.9907 119.607 31.9061 119.489 31.7916 119.434C31.6723 119.377 31.5326 119.386 31.4198 119.461L20.4208 126.718C20.341 126.774 20.2781 126.855 20.2629 126.96C20.2405 127.055 20.2609 127.159 20.3165 127.239L24.6629 133.824C24.7427 133.939 24.8764 134.003 25.0136 133.987L32.9995 133.149C33.2054 133.125 33.357 132.945 33.3329 132.739L32.0043 119.737ZM31.3192 120.424L32.5537 132.439L25.1572 133.215L21.1376 127.135L31.3192 120.424Z" fill="#171718"/>
<path fill-rule="evenodd" clip-rule="evenodd" d="M90 41.418C90 41.418 86.3423 44.8164 85.5431 49.0788L81.2375 50.8788C81.2375 50.8788 78.9336 49.2156 77.2344 49.7844L79.0344 56.6748L88.6967 54.8172L94.428 46.2348L90 41.418Z" fill="white"/>
<path fill-rule="evenodd" clip-rule="evenodd" d="M90.2735 41.166C90.2087 41.094 90.1079 41.0508 90.0143 41.0436C89.9135 41.0364 89.8127 41.0725 89.7407 41.1445C89.7407 41.1445 86.0975 44.5285 85.2047 48.8125L81.2735 50.4613C80.9639 50.2597 80.2799 49.8492 79.4951 49.5756C78.7247 49.3092 77.8607 49.1796 77.1047 49.4316C76.9175 49.4964 76.8095 49.6909 76.8671 49.8853L78.6671 56.7756C78.7175 56.97 78.9047 57.0853 79.0991 57.0493L88.7615 55.1916C88.8551 55.17 88.9487 55.1125 88.9991 55.0333L94.7303 46.4508C94.8239 46.3068 94.8167 46.1196 94.6943 45.99L90.2735 41.166ZM89.9855 41.958L93.9527 46.2708L88.4735 54.4788C88.4735 54.4788 81.0143 55.9116 79.3079 56.2356L77.6951 50.058C78.2063 49.986 78.7607 50.1084 79.2575 50.274C80.2295 50.6124 81.0143 51.1813 81.0143 51.1813C81.1223 51.2605 81.2591 51.2749 81.3815 51.2245L85.6871 49.4245C85.8023 49.3741 85.8887 49.2732 85.9103 49.1508C86.5583 45.6876 89.1431 42.8148 89.9855 41.958Z" fill="#171718"/>
<path fill-rule="evenodd" clip-rule="evenodd" d="M92.9935 45.1332C92.9935 45.1332 89.0119 42.9876 85.5199 45.162C82.0279 47.3364 82.8847 53.6796 84.3175 57.8268C85.7503 61.974 87.1039 65.4588 87.1039 65.4588C87.1039 65.4588 82.4671 68.2956 81.6823 69.03C80.9047 69.7644 80.8183 70.5348 81.4519 70.8876L95.2255 66.4884L92.9935 45.1332Z" fill="white"/>
<path fill-rule="evenodd" clip-rule="evenodd" d="M93.3703 45.0972C93.3559 44.9748 93.2839 44.8668 93.1759 44.8092C93.1759 44.8092 88.9855 42.5628 85.3207 44.8452C83.8303 45.774 83.0671 47.4012 82.8079 49.3164C82.4263 52.0668 83.0815 55.4148 83.9671 57.9564C85.1551 61.398 86.2927 64.386 86.6455 65.3076C85.6447 65.9268 82.1095 68.1228 81.4327 68.7636C80.4031 69.7356 80.4463 70.7652 81.2743 71.2188C81.3679 71.2692 81.4759 71.2764 81.5695 71.2476L95.3431 66.8556C95.5087 66.798 95.6167 66.6396 95.6023 66.4596L93.3703 45.0972ZM92.6431 45.378L94.8175 66.2292L81.5263 70.4772C81.4111 70.362 81.3895 70.1964 81.4399 70.0236C81.5119 69.7932 81.6847 69.5556 81.9439 69.3108C82.7215 68.5836 87.2935 65.7828 87.2935 65.7828C87.4519 65.6892 87.5167 65.4948 87.4519 65.3292C87.4519 65.3292 86.0983 61.8516 84.6727 57.7116C83.8231 55.2708 83.1823 52.0596 83.5423 49.4244C83.7799 47.7468 84.4135 46.2996 85.7167 45.486C88.6111 43.6716 91.8655 45.0108 92.6431 45.378Z" fill="#171718"/>
<path fill-rule="evenodd" clip-rule="evenodd" d="M107.986 64.9188C107.986 64.9188 109.376 63.6012 110.24 62.5572L102.694 52.0452L99.7422 56.034L107.986 64.9188Z" fill="white"/>
<path fill-rule="evenodd" clip-rule="evenodd" d="M107.705 65.1708C107.777 65.2428 107.871 65.286 107.971 65.2932C108.072 65.2932 108.173 65.2572 108.245 65.1924C108.245 65.1924 109.656 63.8532 110.535 62.802C110.643 62.6724 110.65 62.4852 110.549 62.3412L103.003 51.8292C102.931 51.7284 102.823 51.6708 102.701 51.6708C102.579 51.6708 102.463 51.7284 102.391 51.822L99.4322 55.8108C99.3242 55.9548 99.3385 56.1564 99.4609 56.286L107.705 65.1708ZM108 64.3788C106.747 63.0324 101.362 57.2292 100.224 56.0052L102.694 52.6788L109.764 62.5356C109.167 63.2268 108.396 63.99 108 64.3788Z" fill="#171718"/>
<path d="M23.2563 99.0972C24.5089 99.0972 25.5243 98.0818 25.5243 96.8292C25.5243 95.5766 24.5089 94.5612 23.2563 94.5612C22.0037 94.5612 20.9883 95.5766 20.9883 96.8292C20.9883 98.0818 22.0037 99.0972 23.2563 99.0972Z" fill="white"/>
<path fill-rule="evenodd" clip-rule="evenodd" d="M23.2557 94.1868C21.7941 94.1868 20.6133 95.3676 20.6133 96.8292C20.6133 98.2908 21.7941 99.4716 23.2557 99.4716C24.7101 99.4716 25.8981 98.2908 25.8981 96.8292C25.8981 95.3748 24.7101 94.1868 23.2557 94.1868ZM23.2557 94.9428C24.2997 94.9428 25.1493 95.7924 25.1493 96.8364C25.1493 97.8804 24.2997 98.73 23.2557 98.73C22.2117 98.73 21.3621 97.8804 21.3621 96.8364C21.3693 95.7852 22.2117 94.9428 23.2557 94.9428Z" fill="#171718"/>
<path d="M151.928 98.2324C153.499 98.2324 154.773 96.9583 154.773 95.3868C154.773 93.8152 153.499 92.5411 151.928 92.5411C150.356 92.5411 149.082 93.8152 149.082 95.3868C149.082 96.9583 150.356 98.2324 151.928 98.2324Z" fill="white"/>
<path fill-rule="evenodd" clip-rule="evenodd" d="M151.927 92.1708C150.147 92.1708 148.711 93.6162 148.711 95.3868C148.711 97.1664 150.147 98.6028 151.927 98.6028C153.707 98.6028 155.152 97.1574 155.152 95.3868C155.143 93.6162 153.698 92.1708 151.927 92.1708ZM151.927 92.9206C153.291 92.9206 154.393 94.0227 154.393 95.3868C154.393 96.7509 153.282 97.853 151.927 97.853C150.572 97.853 149.461 96.7509 149.461 95.3868C149.452 94.0227 150.563 92.9206 151.927 92.9206Z" fill="#171718"/>
<path d="M129.323 36.7611C132.269 36.7611 134.657 34.3729 134.657 31.4269C134.657 28.4809 132.269 26.0927 129.323 26.0927C126.376 26.0927 123.988 28.4809 123.988 31.4269C123.988 34.3729 126.376 36.7611 129.323 36.7611Z" fill="#EF4444"/>
<path d="M97.7775 160.405C123.398 160.405 144.168 139.635 144.168 114.014C144.168 88.3932 123.398 67.6233 97.7775 67.6233C72.1566 67.6233 51.3867 88.3932 51.3867 114.014C51.3867 139.635 72.1566 160.405 97.7775 160.405Z" fill="white"/>
<path fill-rule="evenodd" clip-rule="evenodd" d="M97.7794 67.3285C72.0067 67.3285 51.0938 88.2415 51.0938 114.014C51.0938 139.787 72.0067 160.699 97.7794 160.699C123.552 160.699 144.612 139.787 144.612 114.014C144.612 88.2415 123.552 67.3285 97.7794 67.3285ZM97.7794 68.0649C123.258 68.0649 143.875 88.6833 143.875 114.014C143.875 139.345 123.258 159.963 97.7794 159.963C72.4485 159.963 51.8301 139.345 51.8301 114.014C51.9774 88.6833 72.5958 68.0649 97.7794 68.0649Z" fill="#171718"/>
<path d="M97.7358 151.076C118.223 151.076 134.831 134.468 134.831 113.981C134.831 93.4941 118.223 76.886 97.7358 76.886C77.2487 76.886 60.6406 93.4941 60.6406 113.981C60.6406 134.468 77.2487 151.076 97.7358 151.076Z" fill="white"/>
<path fill-rule="evenodd" clip-rule="evenodd" d="M97.7334 76.5323C77.125 76.5323 60.2852 93.255 60.2852 113.981C60.2852 134.707 77.125 151.429 97.7334 151.429C118.46 151.429 135.182 134.707 135.182 113.981C135.182 93.3727 118.46 76.5323 97.7334 76.5323ZM97.7334 77.3569C118.106 77.3569 134.476 93.8438 134.476 113.981C134.476 134.236 118.106 150.723 97.7334 150.723C77.4782 150.723 60.9913 134.236 60.9913 113.981C60.9913 93.726 77.4782 77.3569 97.7334 77.3569Z" fill="#171718"/>
<path d="M46.6033 142.554C47.573 142.554 48.359 141.768 48.359 140.799C48.359 139.829 47.573 139.043 46.6033 139.043C45.6337 139.043 44.8477 139.829 44.8477 140.799C44.8477 141.768 45.6337 142.554 46.6033 142.554Z" fill="white"/>
<path fill-rule="evenodd" clip-rule="evenodd" d="M46.6056 138.67C45.4296 138.67 44.4766 139.623 44.4766 140.799C44.4766 141.975 45.4296 142.928 46.6056 142.928C47.7817 142.928 48.7404 141.975 48.7404 140.799C48.7348 139.623 47.7761 138.67 46.6056 138.67ZM46.6056 139.417C47.3692 139.417 47.9879 140.035 47.9879 140.793C47.9879 141.557 47.3692 142.17 46.6056 142.17C45.842 142.17 45.2234 141.551 45.2234 140.793C45.2234 140.035 45.842 139.417 46.6056 139.417Z" fill="#171718"/>
<path d="M149.076 109.435C150.046 109.435 150.832 108.649 150.832 107.679C150.832 106.709 150.046 105.923 149.076 105.923C148.106 105.923 147.32 106.709 147.32 107.679C147.32 108.649 148.106 109.435 149.076 109.435Z" fill="white"/>
<path fill-rule="evenodd" clip-rule="evenodd" d="M149.078 105.55C147.902 105.55 146.949 106.503 146.949 107.679C146.949 108.855 147.902 109.808 149.078 109.808C150.254 109.808 151.213 108.855 151.213 107.679C151.213 106.503 150.254 105.55 149.078 105.55ZM149.078 106.302C149.842 106.302 150.461 106.921 150.461 107.679C150.461 108.443 149.842 109.056 149.078 109.056C148.315 109.056 147.696 108.437 147.696 107.679C147.702 106.915 148.32 106.302 149.078 106.302Z" fill="#171718"/>
<path fill-rule="evenodd" clip-rule="evenodd" d="M21.8669 47.6927H11.6278C10.7682 47.6927 9.94678 48.0366 9.33549 48.6415C8.73057 49.2464 8.38672 50.0742 8.38672 50.9338C8.38672 51.7934 8.73057 52.6149 9.33549 53.2262C9.94042 53.8311 10.7682 54.1749 11.6278 54.1749C18.8551 54.1749 29.4826 54.1749 36.7035 54.1749C37.5631 54.1749 38.3845 53.8311 38.9958 53.2262C39.6007 52.6212 39.9446 51.7934 39.9446 50.9338C39.9446 50.0742 39.6007 49.2528 38.9958 48.6415C38.3909 48.0366 37.5631 47.6927 36.7035 47.6927H33.2077C33.2586 47.6481 33.3095 47.6036 33.3541 47.5526C33.959 46.9477 34.3029 46.1199 34.3029 45.2603C34.3029 44.4007 33.959 43.5792 33.3541 42.9679C32.7492 42.363 31.9214 42.0192 31.0618 42.0192C28.9286 42.0192 26.1396 42.0192 24.0001 42.0192C23.1405 42.0192 22.319 42.363 21.7078 42.9679C21.1028 43.5729 20.759 44.4007 20.759 45.2603C20.759 46.1199 21.1028 46.9413 21.7078 47.5526C21.7651 47.6036 21.816 47.6481 21.8669 47.6927Z" fill="white"/>
<path fill-rule="evenodd" clip-rule="evenodd" d="M21.0349 47.317H11.63C10.6685 47.317 9.75152 47.699 9.07655 48.374C8.40159 49.0489 8.01953 49.9722 8.01953 50.9274C8.01953 51.8825 8.40159 52.8058 9.07655 53.4808C9.75152 54.1558 10.6748 54.5378 11.63 54.5378H36.7056C37.6671 54.5378 38.584 54.1558 39.259 53.4808C39.934 52.8058 40.316 51.8825 40.316 50.9274C40.316 49.9659 39.934 49.0489 39.259 48.374C38.584 47.699 37.6607 47.317 36.7056 47.317H34.0376C34.4515 46.7184 34.6807 45.9989 34.6807 45.2602C34.6807 44.2987 34.2986 43.3818 33.6237 42.7068C32.9487 42.0318 32.0254 41.6498 31.0703 41.6498C28.9371 41.6498 26.1481 41.6498 24.0086 41.6498C23.0471 41.6498 22.1301 42.0318 21.4552 42.7068C20.7802 43.3818 20.3982 44.3051 20.3982 45.2602C20.3918 45.9989 20.621 46.7184 21.0349 47.317ZM21.8691 48.0683C22.0283 48.0683 22.162 47.9728 22.2193 47.8264C22.2766 47.6799 22.232 47.5143 22.1174 47.4125C22.0728 47.3743 22.0283 47.3297 21.9837 47.2915C21.4488 46.7566 21.1432 46.0243 21.1432 45.2666C21.1432 44.5088 21.4424 43.7766 21.9837 43.2417C22.5186 42.7068 23.2508 42.4012 24.0086 42.4012C26.1417 42.4012 28.9308 42.4012 31.0703 42.4012C31.828 42.4012 32.5603 42.7004 33.0952 43.2417C33.63 43.7766 33.9357 44.5088 33.9357 45.2666C33.9357 46.0243 33.6364 46.7566 33.0952 47.2915C33.0506 47.3361 33.006 47.3743 32.9615 47.4125C32.8468 47.5143 32.8023 47.6799 32.8596 47.8264C32.9169 47.9728 33.057 48.0683 33.2098 48.0683H36.7056C37.4634 48.0683 38.1956 48.3676 38.7305 48.9089C39.2654 49.4437 39.571 50.176 39.571 50.9337C39.571 51.6915 39.2717 52.4238 38.7305 52.9587C38.1956 53.4935 37.4634 53.7992 36.7056 53.7992C29.4784 53.7992 18.8508 53.7992 11.63 53.7992C10.8722 53.7992 10.1399 53.4999 9.60507 52.9587C9.07019 52.4238 8.76454 51.6915 8.76454 50.9337C8.76454 50.176 9.06382 49.4437 9.60507 48.9089C10.1399 48.374 10.8722 48.0683 11.63 48.0683H21.8691Z" fill="#171718"/>
<path fill-rule="evenodd" clip-rule="evenodd" d="M130.028 55.6876H121.684C120.984 55.6876 120.314 55.9679 119.816 56.4608C119.323 56.9538 119.043 57.6283 119.043 58.3289C119.043 59.0294 119.323 59.6988 119.816 60.1969C120.309 60.6899 120.984 60.9701 121.684 60.9701C127.574 60.9701 141.724 60.9701 147.609 60.9701C148.309 60.9701 148.979 60.6899 149.477 60.1969C149.97 59.704 150.25 59.0294 150.25 58.3289C150.25 57.6283 149.97 56.959 149.477 56.4608C148.984 55.9679 148.309 55.6876 147.609 55.6876H139.27C139.311 55.6513 139.353 55.615 139.389 55.5735C139.882 55.0805 140.162 54.4059 140.162 53.7054C140.162 53.0049 139.882 52.3355 139.389 51.8374C138.896 51.3444 138.222 51.0642 137.521 51.0642C135.783 51.0642 133.51 51.0642 131.766 51.0642C131.066 51.0642 130.397 51.3444 129.898 51.8374C129.405 52.3303 129.125 53.0049 129.125 53.7054C129.125 54.4059 129.405 55.0753 129.898 55.5735C129.945 55.6098 129.987 55.6513 130.028 55.6876Z" fill="white"/>
<path fill-rule="evenodd" clip-rule="evenodd" d="M129.221 55.3088H121.687C120.888 55.3088 120.12 55.6253 119.554 56.1909C118.988 56.7565 118.672 57.5245 118.672 58.3236C118.672 59.1227 118.988 59.8907 119.554 60.4563C120.12 61.0219 120.888 61.3385 121.687 61.3385C127.576 61.3385 141.727 61.3385 147.611 61.3385C148.41 61.3385 149.178 61.0219 149.744 60.4563C150.309 59.8907 150.626 59.1227 150.626 58.3236C150.626 57.5245 150.309 56.7565 149.744 56.1909C149.178 55.6253 148.41 55.3088 147.611 55.3088H140.077C140.378 54.8314 140.538 54.2762 140.538 53.7054C140.538 52.9063 140.222 52.1383 139.656 51.5727C139.091 51.0071 138.323 50.6906 137.524 50.6906C135.785 50.6906 133.513 50.6906 131.769 50.6906C130.97 50.6906 130.202 51.0071 129.636 51.5727C129.071 52.1383 128.754 52.9063 128.754 53.7054C128.759 54.2762 128.92 54.8366 129.221 55.3088ZM130.031 56.0612C130.186 56.0612 130.326 55.9626 130.384 55.8173C130.441 55.672 130.399 55.506 130.28 55.4022C130.243 55.3711 130.207 55.3399 130.176 55.3036C129.75 54.8781 129.512 54.3021 129.512 53.7002C129.512 53.0983 129.75 52.5223 130.176 52.0968C130.601 51.6713 131.177 51.4326 131.779 51.4326C133.518 51.4326 135.791 51.4326 137.534 51.4326C138.136 51.4326 138.712 51.6713 139.137 52.0968C139.563 52.5223 139.802 53.0983 139.802 53.7002C139.802 54.3021 139.563 54.8781 139.137 55.3036C139.101 55.3399 139.07 55.3711 139.034 55.4022C138.914 55.506 138.878 55.672 138.93 55.8173C138.987 55.9626 139.127 56.0612 139.283 56.0612H147.627C148.229 56.0612 148.805 56.2999 149.23 56.7254C149.656 57.1509 149.894 57.7269 149.894 58.3288C149.894 58.9308 149.656 59.5067 149.23 59.9322C148.805 60.3577 148.229 60.5964 147.627 60.5964H121.702C121.1 60.5964 120.524 60.3577 120.099 59.9322C119.673 59.5067 119.435 58.9308 119.435 58.3288C119.435 57.7269 119.673 57.1509 120.099 56.7254C120.524 56.2999 121.1 56.0612 121.702 56.0612H130.031Z" fill="#171718"/>
<path fill-rule="evenodd" clip-rule="evenodd" d="M23.723 135.516L21.2654 140.603C21.1755 140.789 21.2544 141.016 21.4405 141.105C21.6266 141.195 21.8531 141.116 21.943 140.93L24.4006 135.844C24.4905 135.657 24.4116 135.431 24.2255 135.341C24.0394 135.251 23.8129 135.33 23.723 135.516Z" fill="#171718"/>
<path fill-rule="evenodd" clip-rule="evenodd" d="M25.3398 133.774L31.9749 120.041C32.0648 119.855 31.9858 119.628 31.7997 119.538C31.6136 119.448 31.3872 119.527 31.2972 119.713L24.6622 133.447C24.5723 133.633 24.6512 133.859 24.8373 133.949C25.0305 134.037 25.2499 133.96 25.3398 133.774Z" fill="#171718"/>
<path fill-rule="evenodd" clip-rule="evenodd" d="M89.3438 41.3028C89.3438 41.3028 94.391 34.9236 102.131 35.2836C109.878 35.6508 117.892 49.5396 111.347 64.134L99.5966 55.3788L89.3438 41.3028Z" fill="#335CFF"/>
<path fill-rule="evenodd" clip-rule="evenodd" d="M107.986 64.9188L99.9799 55.6525L97.4023 57.9061L99.0655 68.7348C99.0655 68.7348 104.782 69.1236 107.986 64.9188Z" fill="white"/>
<path fill-rule="evenodd" clip-rule="evenodd" d="M108.279 65.142C108.387 64.998 108.38 64.8036 108.258 64.6668L100.251 55.4076C100.186 55.3356 100.086 55.2852 99.9919 55.278C99.8911 55.2708 99.7903 55.3068 99.7183 55.3716L97.1408 57.6252C97.0472 57.7116 97.0039 57.8412 97.0183 57.9636L98.6815 68.7924C98.7103 68.9652 98.8543 69.0948 99.0271 69.1092C99.0415 69.1092 104.96 69.5052 108.279 65.142ZM107.494 64.926C104.823 68.1876 100.546 68.382 99.3871 68.3748C99.3871 68.3748 98.0263 59.5188 97.8031 58.0572L99.9343 56.1852L107.494 64.926Z" fill="#171718"/>
<path fill-rule="evenodd" clip-rule="evenodd" d="M97.4005 46.3284C97.4005 46.3284 94.9597 43.5564 91.2589 44.406C87.5581 45.2628 85.83 49.05 87.198 53.6292C88.5588 58.2084 91.2589 66.3012 91.2589 66.3012C91.2589 66.3012 84.5125 69.498 82.6045 70.4052C82.1869 70.6068 81.9709 71.082 82.1149 71.5212C82.2157 71.8524 82.4749 72.1476 83.0869 72.1332C83.0869 72.1332 82.2013 73.3788 83.5765 73.6812C83.5765 73.6812 83.202 75.294 84.534 75.2004C84.534 75.2004 84.3829 76.194 85.8229 75.9852C87.2629 75.7764 99.7117 69.5484 99.7405 69.0084L97.4076 57.906V46.3284H97.4005Z" fill="white"/>
<path fill-rule="evenodd" clip-rule="evenodd" d="M97.7748 46.3284C97.7748 46.2348 97.746 46.1484 97.6812 46.0836C97.6812 46.0836 95.1036 43.146 91.1796 44.046C87.2772 44.946 85.398 48.9132 86.838 53.7444C88.0476 57.7908 90.2868 64.5732 90.798 66.114L82.446 70.074C81.8556 70.3548 81.5604 71.0244 81.7548 71.6436C81.8268 71.8812 81.9636 72.1044 82.1868 72.27C82.2804 72.3348 82.3884 72.3996 82.5252 72.4428C82.5108 72.4788 82.5036 72.5076 82.4964 72.5436C82.4172 72.81 82.4028 73.1124 82.5252 73.386C82.6188 73.6092 82.8132 73.818 83.1588 73.962C83.1444 74.1348 83.1444 74.3508 83.1804 74.5596C83.2308 74.8332 83.346 75.0996 83.562 75.294C83.7132 75.4308 83.9076 75.5388 84.1812 75.582C84.2244 75.7476 84.3108 75.942 84.4908 76.0932C84.7212 76.302 85.1244 76.482 85.8732 76.374C86.2332 76.3236 87.2556 75.9204 88.5948 75.3156C91.6116 73.9548 96.3276 71.5788 98.6028 70.2612C99.3012 69.858 99.7764 69.5484 99.942 69.3756C100.072 69.2388 100.108 69.1092 100.108 69.03C100.108 69.0012 100.108 68.9652 100.1 68.9364C100.1 68.9364 97.9188 58.5756 97.7748 57.87V46.3284ZM99.33 68.9004C99.15 69.0228 98.6964 69.3324 98.2284 69.606C95.9676 70.9164 91.2804 73.2708 88.278 74.6244C87.0396 75.186 86.0964 75.5748 85.7652 75.6252C85.3548 75.6828 85.1244 75.6468 84.9948 75.5316C84.8724 75.4236 84.9012 75.2652 84.9012 75.2652C84.9156 75.15 84.8796 75.0348 84.8076 74.9556C84.7284 74.8692 84.6204 74.826 84.5052 74.8332C84.3108 74.8476 84.174 74.8188 84.0804 74.7396C83.9364 74.6172 83.9148 74.4084 83.9076 74.2356C83.8932 73.9836 83.9436 73.7748 83.9436 73.7748C83.9652 73.674 83.9508 73.5732 83.8932 73.4868C83.8356 73.4004 83.7564 73.3428 83.6556 73.3212C83.4036 73.2636 83.2596 73.1844 83.202 73.062C83.1516 72.954 83.1804 72.8388 83.2092 72.7308C83.2668 72.5148 83.3892 72.3492 83.3892 72.3492C83.4756 72.234 83.4828 72.0828 83.4108 71.9532C83.346 71.8308 83.2092 71.7516 83.0724 71.7516C82.698 71.7588 82.5252 71.6076 82.4604 71.406C82.3812 71.1396 82.5108 70.8516 82.7556 70.7364L91.4172 66.6324C91.5828 66.5532 91.6692 66.3516 91.6116 66.1716C91.6116 66.1716 88.9188 58.0932 87.558 53.514C86.262 49.1796 87.846 45.5724 91.3452 44.766C94.4124 44.0604 96.558 46.0044 97.0188 46.4724V57.906C97.0188 57.9348 97.0188 57.9564 97.026 57.9852L99.33 68.9004Z" fill="#171718"/>
<path fill-rule="evenodd" clip-rule="evenodd" d="M83.255 72.4788L85.019 71.6436C85.2062 71.5572 85.2854 71.3268 85.1918 71.1468C85.0982 70.9596 84.8822 70.8804 84.695 70.9668L82.931 71.802C82.7438 71.8884 82.6646 72.1116 82.7582 72.2988C82.8446 72.486 83.075 72.5652 83.255 72.4788Z" fill="#171718"/>
<path fill-rule="evenodd" clip-rule="evenodd" d="M83.9385 74.0044L85.7025 73.1692C85.8897 73.0828 85.969 72.8524 85.8754 72.6724C85.7818 72.4852 85.5657 72.406 85.3785 72.4924L83.6145 73.3276C83.4273 73.414 83.3482 73.6372 83.4418 73.8244C83.5282 74.0188 83.7513 74.098 83.9385 74.0044Z" fill="#171718"/>
<path fill-rule="evenodd" clip-rule="evenodd" d="M84.8018 75.5531L86.5658 74.718C86.753 74.6316 86.8322 74.4011 86.7386 74.2211C86.645 74.0339 86.429 73.9547 86.2418 74.0411L84.4778 74.8763C84.2906 74.9627 84.2115 75.1859 84.3051 75.3731C84.3843 75.5675 84.6146 75.6395 84.8018 75.5531Z" fill="#171718"/>
<path fill-rule="evenodd" clip-rule="evenodd" d="M77.6459 60.3108C78.2939 60.21 78.7475 59.6196 78.6755 58.9716C78.0995 54.4932 75.2195 38.3076 62.9723 32.346C52.4603 27.2268 41.3867 34.2684 41.3867 34.2684C41.3867 34.2684 52.2875 28.458 62.3603 33.462C71.8211 38.1708 75.3779 52.0812 76.2347 59.2308C76.2707 59.562 76.4435 59.8716 76.7099 60.0732C76.9763 60.2748 77.3147 60.3612 77.6459 60.3108Z" fill="white"/>
<path fill-rule="evenodd" clip-rule="evenodd" d="M77.6754 60.6852L77.7114 60.678C78.561 60.5484 79.1443 59.778 79.0578 58.9284V58.9212C78.4747 54.3924 75.537 38.034 63.153 32.0076C52.461 26.802 41.2074 33.9516 41.2074 33.9516C41.0418 34.0596 40.9842 34.2828 41.085 34.4556C41.1858 34.6284 41.409 34.6932 41.589 34.5996C41.589 34.5996 52.3099 28.8756 62.2099 33.8004C65.9323 35.6508 68.7114 38.9484 70.7706 42.6924C73.8954 48.3516 75.3642 55.026 75.8754 59.2812C75.9258 59.7132 76.149 60.1092 76.4946 60.3828C76.8186 60.6276 77.2506 60.7428 77.6754 60.6852ZM77.9563 60.0876C77.9851 60.1308 78.0066 60.1812 78.021 60.2388C77.9922 60.1308 77.9635 60.102 77.9563 60.0876ZM77.8266 59.9868C77.7618 59.9508 77.7043 59.9364 77.6323 59.9436C77.7115 59.9364 77.7762 59.9508 77.8266 59.9868ZM77.6106 59.9436H77.589C77.3514 59.9796 77.1211 59.922 76.9339 59.778C76.7467 59.634 76.6242 59.4252 76.6026 59.1948C76.6026 59.1948 76.6026 59.1948 76.6026 59.1876C76.0842 54.8604 74.5866 48.0852 71.4114 42.3252C69.273 38.4516 66.3786 35.0388 62.5266 33.1236C58.509 31.1292 54.369 30.8268 50.8194 31.1868C54.405 30.5676 58.653 30.6612 62.8074 32.6844C74.9106 38.574 77.733 54.5868 78.2946 59.0148C78.3522 59.4612 78.0426 59.8644 77.6106 59.9436Z" fill="#171718"/>
<path fill-rule="evenodd" clip-rule="evenodd" d="M41.0269 34.2756C41.0269 34.2756 42.1645 66.0204 41.9845 70.866C41.8621 74.2572 40.2708 78.8364 40.026 81.954C39.9108 83.43 40.1197 84.5964 40.7965 85.2516C41.7469 86.1588 42.3157 86.8716 42.4309 87.714C42.5461 88.5564 42.2077 89.5068 41.4373 90.8676C40.8757 91.854 40.7605 92.5164 40.8397 93.006C40.9261 93.5244 41.2357 93.8773 41.5813 94.2085C41.9053 94.5181 42.2869 94.7988 42.3229 95.3748C42.4165 97.0596 42.3733 97.7508 42.3733 97.7508C42.3589 97.9596 42.5101 98.1396 42.7189 98.154C42.9205 98.1684 43.1004 98.0101 43.122 97.8085C43.122 97.8085 43.1725 97.0884 43.0645 95.3316C43.0141 94.5324 42.5533 94.0933 42.1069 93.6685C41.8765 93.4453 41.6461 93.2292 41.5813 92.8836C41.5237 92.5092 41.6533 92.0052 42.0853 91.242C42.9709 89.6868 43.3093 88.5853 43.1797 87.6133C43.0429 86.6341 42.4308 85.7772 41.322 84.7116C41.0484 84.4452 40.8901 84.0636 40.8109 83.5956C40.6813 82.7964 40.7605 81.774 40.9477 80.622C41.4373 77.6196 42.6325 73.818 42.7333 70.8948C42.9061 66.042 41.7757 34.2468 41.7757 34.2468C41.7685 34.038 41.5957 33.8796 41.3869 33.8868C41.1781 33.9012 41.0197 34.074 41.0269 34.2756Z" fill="#171718"/>
<path fill-rule="evenodd" clip-rule="evenodd" d="M54.035 31.3616L53.6906 32.6303C53.6356 32.8271 53.7576 33.0349 53.9594 33.0918C54.1611 33.1488 54.363 33.0279 54.4176 32.8255L54.762 31.5567C54.817 31.36 54.695 31.1522 54.4932 31.0952C54.2985 31.0387 54.0896 31.1592 54.035 31.3616Z" fill="#171718"/>
<path fill-rule="evenodd" clip-rule="evenodd" d="M65.6286 35.5428L64.6998 36.3564C64.5414 36.4932 64.527 36.7308 64.6638 36.882C64.7934 37.0404 65.0382 37.0548 65.1894 36.918L66.1182 36.1044C66.2766 35.9676 66.291 35.73 66.1542 35.5716C66.0174 35.4204 65.787 35.406 65.6286 35.5428Z" fill="#171718"/>
<path fill-rule="evenodd" clip-rule="evenodd" d="M71.6752 43.6428L70.5017 44.2764C70.3145 44.3772 70.2496 44.6004 70.3432 44.7804C70.444 44.9604 70.6744 45.0323 70.8544 44.9315L72.028 44.298C72.208 44.1972 72.28 43.974 72.1792 43.7868C72.0856 43.614 71.8552 43.542 71.6752 43.6428Z" fill="#171718"/>
<path fill-rule="evenodd" clip-rule="evenodd" d="M20.6122 127.406L27.8546 127.667C28.5742 128.468 32.6917 133.03 32.6917 133.03C32.8289 133.184 33.0708 133.195 33.2206 133.056C33.3752 132.918 33.3861 132.677 33.2514 132.529L28.3131 127.047C28.2433 126.972 28.1479 126.926 28.0483 126.925L20.6494 126.658C20.4408 126.652 20.2629 126.813 20.2585 127.017C20.2423 127.221 20.4058 127.394 20.6122 127.406Z" fill="#171718"/>
<path fill-rule="evenodd" clip-rule="evenodd" d="M42.3291 101.002C42.3291 101.002 41.8683 106.294 40.9323 108.259C39.9963 110.225 37.2531 110.16 36.1155 108.893C34.9779 107.618 35.9139 104.616 37.7067 105.689C37.7067 105.689 37.9515 104.076 36.1011 104.501C34.2435 104.926 33.7035 107.582 34.7115 109.303C35.7195 111.017 39.2115 112.493 41.6379 109.879C44.0643 107.266 43.3443 100.85 43.3443 100.85L42.3291 101.002Z" fill="white"/>
<path fill-rule="evenodd" clip-rule="evenodd" d="M42.2776 100.627C42.1048 100.656 41.9752 100.793 41.9608 100.966C41.9608 100.966 41.5144 106.171 40.5928 108.094C40.1896 108.943 39.3904 109.346 38.5696 109.411C37.7488 109.476 36.8992 109.195 36.3952 108.641C35.9128 108.108 35.8912 107.208 36.1576 106.553C36.2944 106.207 36.5176 105.926 36.8272 105.854C37.0288 105.811 37.2592 105.862 37.5184 106.013C37.6264 106.078 37.756 106.085 37.864 106.027C37.9792 105.977 38.0584 105.869 38.08 105.746C38.08 105.746 38.1808 104.983 37.7488 104.486C37.468 104.17 36.964 103.918 36.0208 104.134C35.164 104.328 34.5376 104.933 34.1776 105.725C33.6736 106.848 33.724 108.36 34.3936 109.49C35.4952 111.355 39.2752 112.975 41.9176 110.131C42.9328 109.037 43.444 107.302 43.6672 105.617C43.984 103.162 43.7176 100.807 43.7176 100.807C43.7032 100.706 43.66 100.613 43.5736 100.555C43.4944 100.49 43.3864 100.469 43.2928 100.483L42.2776 100.627ZM42.6808 101.326L43.012 101.275C43.0696 102.024 43.1488 103.745 42.9184 105.516C42.7168 107.042 42.2848 108.626 41.3632 109.62C39.1456 112.01 35.956 110.678 35.0344 109.109C34.4872 108.18 34.444 106.949 34.8616 106.027C35.1208 105.451 35.5672 105.005 36.1864 104.861C36.7192 104.738 37.0288 104.796 37.18 104.976C37.216 105.019 37.2448 105.062 37.2736 105.106C37.0504 105.062 36.8488 105.07 36.6544 105.113C36.1288 105.235 35.6968 105.674 35.4592 106.258C35.092 107.158 35.1712 108.396 35.8408 109.13C36.4816 109.843 37.5688 110.232 38.6344 110.153C39.7 110.074 40.744 109.526 41.2768 108.41C42.0904 106.704 42.5584 102.478 42.6808 101.326Z" fill="#171718"/>
<path d="M42.8734 101.03C43.7808 101.03 44.5164 100.294 44.5164 99.3868C44.5164 98.4794 43.7808 97.7438 42.8734 97.7438C41.966 97.7438 41.2305 98.4794 41.2305 99.3868C41.2305 100.294 41.966 101.03 42.8734 101.03Z" fill="white"/>
<path fill-rule="evenodd" clip-rule="evenodd" d="M42.8734 97.3662C41.7604 97.3662 40.8594 98.2672 40.8594 99.3868C40.8594 100.5 41.767 101.401 42.8734 101.401C43.9864 101.401 44.894 100.5 44.894 99.3868C44.894 98.2738 43.9864 97.3662 42.8734 97.3662ZM42.8734 98.1148C43.5756 98.1148 44.1454 98.6846 44.1454 99.3802C44.1454 100.082 43.5756 100.646 42.8734 100.646C42.1778 100.646 41.608 100.076 41.608 99.3802C41.608 98.6846 42.1778 98.1148 42.8734 98.1148Z" fill="#171718"/>
<path d="M116.745 108.674C117.602 102.909 113.226 99.8187 107.228 97.7544L109.175 89.9512L104.423 88.7697L102.528 96.3651C101.281 96.0535 99.9958 95.7549 98.7234 95.4693L100.632 87.8219L95.88 86.6404L93.9325 94.4436C92.8938 94.2098 91.8811 93.9761 90.8944 93.7295V93.7035L84.3506 92.0676L83.0912 97.1441C83.0912 97.1441 86.6098 97.9491 86.5449 98.001C88.4664 98.4814 88.817 99.7538 88.7521 100.767L86.5319 109.647C86.6617 109.686 86.8305 109.725 87.0253 109.803L86.5189 109.673L83.4158 122.124C83.1821 122.709 82.5849 123.592 81.2346 123.254C81.2865 123.319 77.781 122.397 77.781 122.397L75.418 127.837L81.6241 129.369C82.7796 129.655 83.8962 129.954 85.0128 130.239L83.0523 138.133L87.7913 139.315L89.7388 131.512C91.0372 131.862 92.2966 132.187 93.517 132.498L91.5825 140.262L96.3345 141.444L98.295 133.563C106.397 135.095 112.486 134.472 115.044 127.149C117.108 121.255 114.94 117.853 110.681 115.633C113.784 114.932 116.121 112.893 116.745 108.674ZM105.89 123.89C104.423 129.785 94.4908 126.604 91.2709 125.799L93.8806 115.347C97.1005 116.152 107.422 117.736 105.89 123.89ZM107.357 108.596C106.02 113.958 97.7497 111.231 95.0751 110.569L97.4381 101.091C100.126 101.753 108.76 103 107.357 108.596Z" fill="#22C55E"/>
<path fill-rule="evenodd" clip-rule="evenodd" d="M154.652 136.531L155.364 139.105L157.747 135.675L166.171 133.344C167.365 133.014 168.062 131.782 167.734 130.596C167.273 128.93 166.636 126.626 166.173 124.954C165.845 123.767 164.613 123.07 163.42 123.4C160.214 124.287 154.232 125.942 151.033 126.827C149.84 127.157 149.142 128.388 149.47 129.575C149.933 131.247 150.568 133.544 151.031 135.217C151.359 136.403 152.591 137.101 153.784 136.771L154.652 136.531Z" fill="white"/>
<path fill-rule="evenodd" clip-rule="evenodd" d="M154.39 136.991L155.003 139.205C155.041 139.344 155.161 139.453 155.301 139.474C155.443 139.502 155.59 139.438 155.67 139.319L157.978 135.999C159.047 135.703 166.27 133.705 166.27 133.705C167.658 133.321 168.478 131.884 168.095 130.496C167.634 128.83 166.996 126.526 166.534 124.854C166.15 123.466 164.707 122.655 163.32 123.039C160.114 123.926 154.132 125.581 150.933 126.466C149.538 126.852 148.725 128.287 149.109 129.675C149.572 131.347 150.207 133.644 150.67 135.316C151.054 136.704 152.489 137.518 153.884 137.132L154.39 136.991ZM155.019 136.429C154.964 136.228 154.76 136.112 154.552 136.17L153.684 136.41C152.692 136.684 151.671 136.1 151.399 135.115L149.838 129.473C149.563 128.481 150.14 127.462 151.133 127.188L163.519 123.761C164.512 123.486 165.532 124.07 165.805 125.056L167.366 130.697C167.64 131.69 167.056 132.71 166.071 132.983L157.646 135.314C157.563 135.337 157.495 135.386 157.441 135.46L155.518 138.233L155.019 136.429Z" fill="#171718"/>
<path fill-rule="evenodd" clip-rule="evenodd" d="M152.986 130.441L163.541 127.521C163.742 127.465 163.858 127.262 163.802 127.061C163.746 126.859 163.543 126.744 163.341 126.799L152.787 129.72C152.592 129.773 152.47 129.979 152.526 130.18C152.581 130.382 152.792 130.495 152.986 130.441Z" fill="#171718"/>
<path fill-rule="evenodd" clip-rule="evenodd" d="M153.748 133.206L159.343 131.658C159.541 131.603 159.659 131.399 159.603 131.198C159.548 130.996 159.342 130.882 159.143 130.937L153.548 132.484C153.349 132.539 153.232 132.744 153.287 132.945C153.343 133.146 153.549 133.261 153.748 133.206Z" fill="#171718"/>
<path fill-rule="evenodd" clip-rule="evenodd" d="M133.035 20.7972C133.115 20.4804 133.201 20.1708 133.273 19.854C133.323 19.6524 133.194 19.4508 132.992 19.4076C132.791 19.3644 132.589 19.4868 132.539 19.6884C132.467 19.998 132.387 20.3076 132.308 20.6244C132.258 20.826 132.38 21.0276 132.582 21.078C132.783 21.114 132.985 20.9916 133.035 20.7972Z" fill="#171718"/>
<path fill-rule="evenodd" clip-rule="evenodd" d="M125.389 21.3156C125.151 20.9556 124.914 20.5956 124.712 20.214C124.611 20.034 124.381 19.962 124.201 20.0628C124.021 20.1636 123.949 20.3868 124.05 20.574C124.266 20.97 124.511 21.3516 124.763 21.7332C124.878 21.906 125.108 21.9492 125.288 21.834C125.454 21.7188 125.504 21.4884 125.389 21.3156Z" fill="#171718"/>
<path fill-rule="evenodd" clip-rule="evenodd" d="M118.031 28.8828C118.614 29.0412 119.219 29.0988 119.802 29.2716C119.997 29.3292 120.213 29.2212 120.27 29.0268C120.328 28.8252 120.22 28.6164 120.026 28.5588C119.435 28.3788 118.823 28.3212 118.226 28.1628C118.024 28.1124 117.815 28.2276 117.765 28.4292C117.707 28.6236 117.822 28.8252 118.031 28.8828Z" fill="#171718"/>
<path fill-rule="evenodd" clip-rule="evenodd" d="M121.731 36.3132C121.184 36.8244 120.629 37.3284 120.125 37.89C119.989 38.0412 120.003 38.2788 120.154 38.4228C120.305 38.5596 120.543 38.5524 120.68 38.394C121.169 37.854 121.709 37.3644 122.242 36.8676C122.393 36.7236 122.401 36.486 122.264 36.3348C122.113 36.1836 121.882 36.1764 121.731 36.3132Z" fill="#171718"/>
<path fill-rule="evenodd" clip-rule="evenodd" d="M126.643 40.4604C126.535 40.8564 126.42 41.2596 126.304 41.6556C126.247 41.8572 126.355 42.066 126.556 42.1236C126.758 42.1812 126.967 42.066 127.017 41.8716C127.14 41.4684 127.255 41.0652 127.363 40.662C127.42 40.4604 127.298 40.2588 127.096 40.2012C126.909 40.1436 126.7 40.2588 126.643 40.4604Z" fill="#171718"/>
<path fill-rule="evenodd" clip-rule="evenodd" d="M134.325 40.0356C134.627 40.302 134.922 40.5612 135.239 40.8132C135.405 40.9428 135.635 40.9212 135.765 40.7556C135.894 40.5972 135.873 40.3596 135.707 40.23C135.398 39.9852 135.11 39.726 134.822 39.4668C134.663 39.33 134.426 39.3444 134.289 39.5028C134.152 39.6612 134.166 39.8988 134.325 40.0356Z" fill="#171718"/>
<path fill-rule="evenodd" clip-rule="evenodd" d="M139.371 34.2612C139.587 34.2972 139.817 34.3331 140.033 34.3835C140.235 34.4267 140.436 34.3043 140.487 34.1027C140.537 33.9011 140.408 33.6996 140.206 33.6564C139.968 33.606 139.738 33.5627 139.5 33.5267C139.299 33.4907 139.104 33.6276 139.068 33.8292C139.032 34.0308 139.169 34.2252 139.371 34.2612Z" fill="#171718"/>
<path fill-rule="evenodd" clip-rule="evenodd" d="M138.729 26.2044C139.146 25.9308 139.578 25.6572 140.003 25.3908C140.176 25.2828 140.234 25.0452 140.118 24.8724C140.01 24.6996 139.773 24.6492 139.6 24.7572C139.175 25.0308 138.743 25.2972 138.318 25.578C138.146 25.6932 138.095 25.9236 138.21 26.0964C138.326 26.2692 138.563 26.3196 138.729 26.2044Z" fill="#171718"/>
<path fill-rule="evenodd" clip-rule="evenodd" d="M95.8117 47.9772C95.8117 47.9772 93.558 52.9164 92.3484 53.8596C91.1388 54.7956 79.698 52.146 79.698 52.146C79.698 52.146 79.4461 49.8996 77.0197 49.698C77.0197 49.698 75.846 51.0372 73.9524 49.9788C73.9524 49.9788 72.3252 50.7852 73.11 52.6068C73.11 52.6068 72.3397 53.982 73.4197 55.4724C73.4197 55.4724 72.966 57.0636 74.8812 57.7044C76.7892 58.3452 78.726 58.0284 78.726 58.0284C78.726 58.0284 85.314 60.8652 89.994 61.1964C94.6812 61.5276 96.6828 61.7796 101.55 52.9308V49.1004L95.8117 47.9772Z" fill="white"/>
<path fill-rule="evenodd" clip-rule="evenodd" d="M95.8897 47.61C95.7241 47.574 95.5441 47.6676 95.4721 47.8188C95.4721 47.8188 94.3777 50.2164 93.3121 51.9732C92.8801 52.686 92.4625 53.2908 92.1241 53.5572C92.0161 53.6436 91.7929 53.658 91.4905 53.6724C90.9001 53.7012 90.0721 53.6364 89.1289 53.5284C85.8313 53.1324 81.1225 52.0812 80.0209 51.8364C79.8625 51.174 79.2505 49.5036 77.0473 49.3308C76.9321 49.3236 76.8097 49.3668 76.7377 49.4604C76.7377 49.4604 75.7441 50.562 74.1313 49.662C74.0233 49.6044 73.8937 49.5972 73.7857 49.6548C73.7857 49.6548 72.8281 50.13 72.5833 51.1596C72.4897 51.5556 72.4897 52.038 72.7057 52.6068C72.5185 53.046 72.1585 54.2556 73.0153 55.566C72.9793 55.8252 72.9577 56.3076 73.2025 56.8116C73.4185 57.2796 73.8649 57.7692 74.7649 58.0644C76.4857 58.6404 78.2353 58.4748 78.6817 58.4172C79.5241 58.77 85.5793 61.2612 89.9713 61.578C91.9009 61.7148 93.3913 61.83 94.8097 61.3404C96.9193 60.6204 98.8921 58.5612 101.887 53.118C101.916 53.0604 101.931 53.0028 101.931 52.938V49.1076C101.931 48.9276 101.808 48.7764 101.628 48.7404L95.8897 47.61ZM96.0337 48.402L101.182 49.4172V52.8372C98.3665 57.9492 96.5665 59.9436 94.5721 60.6276C93.2473 61.0812 91.8505 60.9516 90.0361 60.822C85.3993 60.4908 78.8905 57.6828 78.8905 57.6828C78.8257 57.654 78.7537 57.6468 78.6817 57.654C78.6817 57.654 76.8313 57.9564 75.0097 57.3444C74.3761 57.1356 74.0521 56.8044 73.8865 56.4804C73.6705 56.0196 73.7929 55.5732 73.7929 55.5732C73.8217 55.4652 73.8073 55.3428 73.7353 55.2492C72.8137 53.9676 73.4545 52.7796 73.4545 52.7796C73.5121 52.6788 73.5193 52.5564 73.4761 52.4484C73.2817 51.9948 73.2601 51.6204 73.3321 51.3108C73.4473 50.8356 73.7857 50.5332 73.9873 50.3964C75.6433 51.2172 76.7881 50.418 77.1769 50.0724C79.1353 50.3316 79.3513 52.1676 79.3513 52.1676C79.3657 52.326 79.4809 52.4556 79.6393 52.4916C79.6393 52.4916 87.0049 54.198 90.5689 54.3924C91.1305 54.4212 91.6057 54.414 91.9513 54.3636C92.2537 54.3204 92.4697 54.234 92.6065 54.126C92.9881 53.8236 93.4849 53.1468 93.9745 52.3404C94.8241 50.9364 95.7097 49.086 96.0337 48.402Z" fill="#171718"/>
<path fill-rule="evenodd" clip-rule="evenodd" d="M99.3753 39.9204L95.4297 47.646L101.946 53.2764L105.409 47.5812L99.3753 39.9204Z" fill="#335CFF"/>
<path fill-rule="evenodd" clip-rule="evenodd" d="M99.0349 39.7476L95.0964 47.4732C95.0172 47.6244 95.0533 47.8116 95.1829 47.9268L101.699 53.5572C101.785 53.6292 101.893 53.658 102.001 53.6436C102.116 53.6292 102.21 53.5644 102.268 53.4708L105.731 47.7756C105.839 47.5956 105.781 47.3653 105.608 47.2645C105.436 47.1565 105.198 47.214 105.09 47.3868L101.864 52.7004C101.864 52.7004 97.0117 48.5101 95.9029 47.5525L99.7116 40.086C99.8052 39.8988 99.7332 39.6756 99.546 39.582C99.3588 39.4884 99.1285 39.5604 99.0349 39.7476Z" fill="#171718"/>
<path fill-rule="evenodd" clip-rule="evenodd" d="M91.7266 31.2084C91.7266 31.2084 92.0865 32.8068 93.8001 32.1372L99.0201 31.2876L100.575 29.8188C100.575 29.8188 100.547 28.9044 100.208 28.4436L91.7266 31.2084Z" fill="#171718"/>
<path fill-rule="evenodd" clip-rule="evenodd" d="M91.6048 30.8556C91.4176 30.9132 91.3096 31.1076 91.36 31.2948C91.36 31.2948 91.5904 32.2884 92.4688 32.5908C92.8216 32.7132 93.2896 32.7348 93.8944 32.5044L99.0713 31.662C99.1433 31.6476 99.2152 31.6188 99.2728 31.5612L100.828 30.0924C100.907 30.0204 100.95 29.9124 100.943 29.8116C100.943 29.8116 100.893 28.7604 100.504 28.2276C100.41 28.098 100.238 28.0404 100.086 28.0908L91.6048 30.8556ZM92.2168 31.446L100.022 28.8972C100.13 29.1636 100.166 29.4732 100.187 29.6676L98.8408 30.942L93.736 31.7772C93.7144 31.7844 93.6856 31.7916 93.664 31.7988C93.2536 31.9572 92.9513 31.9716 92.7137 31.8924C92.4689 31.7916 92.3104 31.6116 92.2168 31.446Z" fill="#171718"/>
<path fill-rule="evenodd" clip-rule="evenodd" d="M92.8926 30.834C92.8926 30.834 92.223 26.946 95.0742 25.7868C98.2926 24.4764 99.8694 27.27 100.294 28.4724L92.8926 30.834Z" fill="white"/>
<path fill-rule="evenodd" clip-rule="evenodd" d="M93.2615 30.7693C93.2615 30.7693 93.1103 29.8548 93.2831 28.8036C93.4559 27.7956 93.9311 26.6509 95.2127 26.1325C98.1287 24.9445 99.5543 27.5076 99.9359 28.5948C100.008 28.7892 100.224 28.8901 100.418 28.8253C100.613 28.7533 100.713 28.5445 100.649 28.3501C100.181 27.0397 98.4455 24.0157 94.9391 25.4413C93.3695 26.0749 92.7575 27.4573 92.5487 28.6813C92.3471 29.8621 92.5271 30.8988 92.5271 30.8988C92.5631 31.1004 92.7575 31.2373 92.9591 31.2085C93.1535 31.1653 93.2903 30.9709 93.2615 30.7693Z" fill="#171718"/>
<path fill-rule="evenodd" clip-rule="evenodd" d="M89.6271 32.2668L102.241 28.242C102.443 28.1772 102.551 27.9684 102.479 27.774C102.421 27.5796 102.205 27.4644 102.011 27.5292L89.3967 31.554C89.1951 31.6188 89.0871 31.8276 89.1591 32.022C89.2167 32.2236 89.4255 32.3316 89.6271 32.2668Z" fill="#171718"/>
<path fill-rule="evenodd" clip-rule="evenodd" d="M95.1977 25.9884C95.1977 25.9884 97.1344 27.1836 97.3432 29.3292C97.3648 29.538 97.5449 29.6892 97.7537 29.6676C97.9625 29.646 98.1136 29.466 98.092 29.2572C97.8544 26.7444 95.5937 25.3476 95.5937 25.3476C95.4209 25.2396 95.1904 25.29 95.0752 25.47C94.96 25.65 95.0177 25.8804 95.1977 25.9884Z" fill="#171718"/>
<path fill-rule="evenodd" clip-rule="evenodd" d="M93.8008 32.1372C93.8008 32.1372 94.6576 35.118 95.1184 36.018C95.5792 36.9108 96.4072 36.8748 96.9184 36.3564C96.9184 36.3564 100.648 38.2068 100.288 32.1012C100.288 32.1012 101.577 31.7844 101.49 30.8412C101.397 29.8188 100.065 29.3868 99.3448 30.3156C99.3448 30.3156 98.4952 30.582 97.948 30.0636C97.948 30.0636 96.5008 31.2228 95.1256 30.9564C95.1328 30.9492 94.78 31.8492 93.8008 32.1372Z" fill="white"/>
<path fill-rule="evenodd" clip-rule="evenodd" d="M93.6934 31.7772C93.4918 31.8348 93.3838 32.0436 93.4342 32.238C93.4342 32.238 94.3126 35.2764 94.7878 36.1836C95.0902 36.774 95.5294 37.0332 95.9614 37.0836C96.3214 37.1268 96.6886 37.0116 96.9982 36.7812C97.4878 36.954 98.6038 37.2276 99.4894 36.522C100.188 35.9748 100.771 34.8012 100.685 32.3532C100.879 32.274 101.138 32.1516 101.354 31.9644C101.678 31.6908 101.923 31.3092 101.88 30.7908C101.75 29.4804 100.109 28.8828 99.1509 29.97C98.9565 30.0132 98.5174 30.0636 98.2222 29.7828C98.0926 29.6532 97.8765 29.646 97.7325 29.7612C97.7325 29.7612 96.451 30.8196 95.2198 30.582C95.047 30.546 94.867 30.6468 94.8022 30.8124C94.7806 30.8124 94.4926 31.5468 93.6934 31.7772ZM94.2622 32.3676C94.831 32.094 95.1766 31.6476 95.3494 31.3596C96.4222 31.4388 97.4877 30.8268 97.9485 30.5244C98.6181 30.9204 99.4678 30.6684 99.4678 30.6684C99.5398 30.6468 99.6046 30.6036 99.6478 30.5388C100.145 29.9052 101.059 30.1716 101.124 30.87C101.153 31.1796 100.937 31.374 100.728 31.5036C100.469 31.6692 100.202 31.734 100.202 31.734C100.029 31.7772 99.907 31.9428 99.9214 32.1228C100.044 34.3692 99.6405 35.4636 99.0285 35.946C98.2005 36.594 97.0918 36.0252 97.0918 36.0252C96.9478 35.9532 96.775 35.982 96.6598 36.0972C96.487 36.27 96.271 36.378 96.0478 36.3492C95.8174 36.3204 95.6158 36.162 95.4574 35.8524C95.0902 35.1468 94.4854 33.1524 94.2622 32.3676Z" fill="#171718"/>
<path fill-rule="evenodd" clip-rule="evenodd" d="M95.5651 32.6915C95.5651 32.6915 94.5139 33.8507 93.8731 34.5635C93.7435 34.7003 93.686 34.8875 93.7076 35.0747C93.722 35.2619 93.8156 35.4347 93.9596 35.5499C94.2332 35.7587 94.6076 35.7156 94.8236 35.4564C95.3852 34.7796 96.3787 33.5987 96.3787 33.5987L95.5651 32.6915Z" fill="white"/>
<path fill-rule="evenodd" clip-rule="evenodd" d="M95.2856 32.4468C95.2856 32.4468 94.2416 33.606 93.6008 34.3188C93.3992 34.5348 93.3057 34.8228 93.3273 35.1108C93.3489 35.3988 93.5 35.6652 93.7304 35.8452C94.1552 36.1764 94.76 36.1116 95.1128 35.7012C95.6744 35.0244 96.668 33.8436 96.668 33.8436C96.7976 33.6852 96.7832 33.4476 96.6176 33.318C96.4592 33.1884 96.2216 33.2028 96.092 33.3612C96.092 33.3612 95.1056 34.542 94.5368 35.2188C94.4504 35.3196 94.2993 35.334 94.1913 35.2548C94.1265 35.2044 94.0832 35.1252 94.076 35.046C94.0688 34.9596 94.0905 34.8804 94.1553 34.8156C94.7889 34.1028 95.84 32.9436 95.84 32.9436C95.9768 32.7924 95.9696 32.5548 95.8184 32.4108C95.6672 32.274 95.4296 32.2884 95.2856 32.4468Z" fill="#171718"/>
<path fill-rule="evenodd" clip-rule="evenodd" d="M95.6244 34.5996C95.6244 34.5996 96.9852 35.4132 97.9572 34.038C98.0796 33.8724 98.0364 33.6348 97.8636 33.5124C97.698 33.39 97.4604 33.4332 97.338 33.606C96.7836 34.398 95.9988 33.9516 95.9988 33.9516C95.8188 33.8508 95.5884 33.9084 95.4804 34.0884C95.3868 34.2612 95.4516 34.4916 95.6244 34.5996Z" fill="#171718"/>
<path d="M96.9007 32.3938C97.0962 32.3938 97.2546 32.2353 97.2546 32.0399C97.2546 31.8445 97.0962 31.686 96.9007 31.686C96.7053 31.686 96.5469 31.8445 96.5469 32.0399C96.5469 32.2353 96.7053 32.3938 96.9007 32.3938Z" fill="#171718"/>
<path fill-rule="evenodd" clip-rule="evenodd" d="M10.2823 83.6964C10.2823 83.6964 16.496 80.6868 22.8752 83.2212C29.4776 85.8492 33.4087 87.1164 44.2879 84.15C49.5655 82.71 53.1871 83.6964 56.5927 84.9996C60.1063 86.346 63.4039 88.0164 67.9543 87.8724C72.4975 87.7284 75.824 86.6124 78.9632 85.59C82.0376 84.5964 84.9463 83.6892 88.6975 83.9412C91.7359 84.1428 94.3063 84.8124 96.9199 85.2588C100.923 85.95 105.02 86.1516 110.953 83.574C120.579 79.3908 125.54 81.4932 132.214 83.4732C139.062 85.5036 139.314 86.2524 148.364 83.6244C153.584 82.1052 156.27 83.5452 158.804 84.9132C160.59 85.878 162.31 86.7924 164.686 86.7492C164.895 86.742 165.061 86.5764 165.053 86.3676C165.046 86.1588 164.881 85.9932 164.672 86.0004C162.447 86.0436 160.842 85.1652 159.164 84.258C156.5 82.818 153.663 81.3132 148.162 82.9116C139.342 85.4748 139.105 84.7404 132.438 82.7604C125.605 80.73 120.522 78.606 110.665 82.89C104.912 85.3884 100.938 85.194 97.0639 84.5244C94.4215 84.0708 91.8223 83.4012 88.7623 83.1996C84.8959 82.9404 81.908 83.8548 78.7472 84.8772C75.6584 85.878 72.3967 86.9796 67.9399 87.1236C63.4975 87.2676 60.2935 85.6116 56.8663 84.3012C53.3239 82.9476 49.5727 81.9324 44.0935 83.4228C33.4519 86.3244 29.6143 85.0932 23.1559 82.5228C16.4743 79.866 9.95834 83.0196 9.95834 83.0196C9.77114 83.1132 9.69191 83.3364 9.78551 83.5236C9.87911 83.7108 10.0951 83.7828 10.2823 83.6964Z" fill="#171718"/>
</svg>
