<svg width="180" height="180" viewBox="0 0 180 180" fill="none" xmlns="http://www.w3.org/2000/svg">
<g clipPath="url(#clip0_696_4830)">
<path fill-rule="evenodd" clip-rule="evenodd" d="M39.5949 131.36C39.5949 131.36 37.7229 128.069 38.7021 125.96C39.6885 123.843 41.6469 128.148 41.9133 130.438C41.9133 130.438 43.7133 127.968 45.5133 128.012C47.3061 128.055 45.1965 131.194 44.2101 131.842C44.2101 131.842 46.7229 132.828 46.8597 134.765C46.9965 136.702 43.8213 135.399 42.4965 134.895C42.4965 134.895 41.6541 138.783 39.5661 138.581C37.4781 138.372 38.8173 135.032 39.7533 134.06C39.7533 134.06 36.5205 135.204 35.9013 134.031C35.2749 132.857 37.9677 131.007 39.5949 131.36Z" fill="#EF4444"/>
<path fill-rule="evenodd" clip-rule="evenodd" d="M131.648 128.336C131.648 128.336 131.944 123.182 134.058 123.075C136.172 122.969 134.206 128.287 134.206 128.287C134.206 128.287 136.671 127.122 137.555 127.938C138.446 128.761 136.723 130.387 135.372 130.522C135.372 130.522 137.617 132.487 136.188 134.241C134.76 136.001 133.024 133.643 132.761 132.493C132.761 132.493 129.918 135.012 128.456 134.086C127.002 133.161 128.829 131.159 130.211 130.99C130.211 130.99 127.532 129.27 128.322 127.893C129.106 126.516 131.003 127.514 131.648 128.336Z" fill="#EF4444"/>
<path fill-rule="evenodd" clip-rule="evenodd" d="M89.1091 154.078L90.4771 146.496L92.4355 154.078H118.204L113.964 131.276L61.5331 134.372L58.7539 154.078H89.1091Z" fill="white"/>
<path fill-rule="evenodd" clip-rule="evenodd" d="M89.1088 154.452C89.2888 154.452 89.4472 154.323 89.476 154.143L90.5416 148.239L92.0752 154.164C92.1184 154.33 92.2696 154.445 92.4352 154.445H118.204C118.312 154.445 118.42 154.395 118.492 154.308C118.564 154.222 118.593 154.107 118.571 153.999L114.33 131.189C114.294 131.002 114.129 130.872 113.942 130.887L61.5112 133.983C61.3312 133.99 61.1872 134.127 61.1584 134.307L58.3864 154.02C58.372 154.128 58.4008 154.236 58.4728 154.316C58.5448 154.395 58.6456 154.445 58.7536 154.445H89.1088V154.452ZM88.792 153.704H59.1856C59.1856 153.704 61.5112 137.18 61.8568 134.724L113.654 131.672L117.75 153.711C117.75 153.711 95.5312 153.711 92.7232 153.711L90.8368 146.41C90.7936 146.237 90.6352 146.122 90.4624 146.129C90.2896 146.136 90.1384 146.266 90.1096 146.439L88.792 153.704Z" fill="#171718"/>
<path fill-rule="evenodd" clip-rule="evenodd" d="M82.9662 64.222L79.899 51.8452C79.899 51.8452 76.2342 51.982 75.4638 49.1524C75.0678 47.7052 75.435 45.9052 77.6022 45.3148L78.9414 40.1524L94.9686 36.8692L96.6102 41.5276C96.6102 41.5276 97.4454 43.3924 96.8478 48.418C96.2574 53.4436 95.6742 63.0628 95.6742 63.0628L82.9662 64.222Z" fill="white"/>
<path fill-rule="evenodd" clip-rule="evenodd" d="M82.606 64.3084C82.6492 64.4884 82.822 64.6108 83.002 64.5892L95.71 63.4228C95.8972 63.4084 96.0412 63.2572 96.0484 63.07C96.0484 63.07 96.6316 53.4652 97.222 48.4468C97.798 43.5508 97.042 41.5708 96.9556 41.3764L95.3212 36.7324C95.2564 36.5524 95.0764 36.4516 94.8892 36.4876L78.862 39.7852C78.718 39.814 78.61 39.922 78.574 40.0588L77.2852 45.0196C76.4284 45.2932 75.8524 45.754 75.478 46.294C74.8804 47.1724 74.8228 48.2812 75.0892 49.2532C75.514 50.8156 76.7308 51.5644 77.8468 51.9172C78.5596 52.1404 79.222 52.2052 79.5964 52.2196L82.606 64.3084ZM83.254 63.8188L80.2588 51.7588C80.2156 51.586 80.0572 51.4708 79.8844 51.478C79.8844 51.478 79.0276 51.5068 78.0844 51.2116C77.1772 50.9236 76.1692 50.3332 75.8236 49.0588C75.6148 48.2956 75.6364 47.4172 76.1044 46.7188C76.4212 46.258 76.9324 45.8908 77.6956 45.682C77.8252 45.646 77.926 45.5452 77.962 45.4156L79.2436 40.4764L94.7236 37.3012L96.2572 41.65C96.2644 41.6572 96.2644 41.6716 96.2716 41.6788C96.2716 41.6788 97.0564 43.4932 96.4804 48.3748C95.9548 52.8604 95.4292 61.0036 95.3284 62.7172L83.254 63.8188Z" fill="#171718"/>
<path fill-rule="evenodd" clip-rule="evenodd" d="M51.2188 91.5532L70.5147 97.126L67.8363 113.16L61.6155 124.824L59.8011 135.257L117.106 133.148L109.524 89.6308L112.066 92.1148L124.025 79.7164C124.025 79.7164 110.453 59.6356 89.1556 62.6524C67.858 65.6548 55.6323 78.802 51.2188 91.5532Z" fill="#335CFF"/>
<path fill-rule="evenodd" clip-rule="evenodd" d="M88.3948 69.37C88.2148 69.37 88.0636 69.4996 88.0276 69.6724L85.1476 84.6196C85.126 84.7276 85.1548 84.8428 85.2268 84.9292C85.2988 85.0156 85.4068 85.066 85.522 85.066L92.3116 85.0084C92.4196 85.0084 92.5204 84.958 92.5924 84.8788C92.6644 84.7996 92.6932 84.6916 92.6788 84.5836L90.6052 69.694C90.5764 69.5068 90.418 69.37 90.2308 69.37H88.3948ZM88.7044 70.1188H89.9068L91.8724 84.2596L85.9684 84.31C86.4436 81.8476 88.7044 70.1188 88.7044 70.1188Z" fill="#171718"/>
<path fill-rule="evenodd" clip-rule="evenodd" d="M104.715 91.0957C104.952 90.2125 104.829 89.2776 104.37 88.4912C103.911 87.7047 103.167 87.1253 102.281 86.8878C97.3429 85.5648 88.1322 83.0968 83.1945 81.7737C82.3162 81.5384 81.3763 81.6593 80.5835 82.1177C79.7907 82.5761 79.217 83.3243 78.9822 84.2006C77.156 91.0162 72.9985 106.532 71.1704 113.355C70.9337 114.238 71.0564 115.173 71.5157 115.959C71.9731 116.753 72.7187 117.325 73.6049 117.563C78.5426 118.886 87.7533 121.354 92.691 122.677C93.5693 122.912 94.5092 122.791 95.302 122.333C96.093 121.881 96.6685 121.126 96.9033 120.25C98.7314 113.427 102.889 97.9113 104.715 91.0957Z" fill="white"/>
<path fill-rule="evenodd" clip-rule="evenodd" d="M105.073 91.1911C105.333 90.2175 105.197 89.1747 104.693 88.3017C104.189 87.4287 103.352 86.787 102.379 86.5262L83.2928 81.4121C82.3195 81.1513 81.2735 81.2885 80.4006 81.7925C79.5277 82.2966 78.8884 83.1316 78.6275 84.1052C76.8013 90.9208 72.6438 106.437 70.8157 113.259C70.5548 114.233 70.6909 115.276 71.1949 116.149C71.6988 117.022 72.5361 117.663 73.5094 117.924C78.4471 119.247 87.6577 121.715 92.5954 123.038C93.5687 123.299 94.6147 123.162 95.4876 122.658C96.3605 122.154 96.9998 121.319 97.2607 120.345L105.073 91.1911ZM104.352 90.9982L96.5407 120.152C96.3301 120.938 95.8202 121.607 95.1172 122.015C94.4142 122.422 93.5805 122.527 92.7971 122.317C87.8595 120.994 78.6488 118.526 73.7111 117.203C72.9277 116.993 72.2599 116.479 71.8532 115.781C71.4483 115.076 71.341 114.242 71.5516 113.457C73.3778 106.641 77.5353 91.125 79.3634 84.3024C79.574 83.5165 80.0838 82.8481 80.7868 82.4402C81.4898 82.0322 82.3235 81.9276 83.1069 82.1375L102.193 87.2516C102.976 87.4615 103.644 87.9759 104.051 88.6737C104.456 89.3785 104.563 90.2123 104.352 90.9982Z" fill="#171718"/>
<path fill-rule="evenodd" clip-rule="evenodd" d="M97.8108 85.7868C98.0587 84.8618 97.5123 83.9179 96.5859 83.6696C94.6952 83.163 91.6371 82.3436 89.7464 81.837C88.8199 81.5887 87.873 82.14 87.627 83.058C87.3791 83.983 87.9255 84.927 88.8519 85.1752C90.7426 85.6818 93.8007 86.5013 95.6914 87.0079C96.6085 87.261 97.563 86.7118 97.8108 85.7868Z" fill="white"/>
<path fill-rule="evenodd" clip-rule="evenodd" d="M98.1695 85.8836C98.4696 84.7639 97.8041 83.6017 96.6818 83.301L89.8423 81.4683C88.72 81.1676 87.5645 81.8345 87.2626 82.9611C86.9607 84.0878 87.628 85.2431 88.7503 85.5438L95.5898 87.3764C96.7121 87.6771 97.8676 87.0103 98.1695 85.8836ZM97.4464 85.6899C97.2526 86.4132 96.5086 86.8399 95.7854 86.6462L88.946 84.8136C88.2229 84.6198 87.7919 83.8782 87.9857 83.1549C88.1795 82.4316 88.9236 82.0048 89.6467 82.1986L96.4861 84.0312C97.2092 84.225 97.6402 84.9666 97.4464 85.6899Z" fill="#171718"/>
<path fill-rule="evenodd" clip-rule="evenodd" d="M132.105 154.078C132.105 154.078 136.807 137.389 142.517 135.949C148.219 134.501 139.313 151.321 136.353 154.078H132.105Z" fill="#22C55E"/>
<path fill-rule="evenodd" clip-rule="evenodd" d="M51.3039 154.08C51.3039 154.08 46.8254 135.986 51.6854 132.509C56.5454 129.031 54.3494 153.669 54.3494 153.669L51.3039 154.08Z" fill="#22C55E"/>
<path fill-rule="evenodd" clip-rule="evenodd" d="M23.676 69.2133H12.0984C11.1264 69.2133 10.1976 69.6021 9.50639 70.2861C8.82239 70.9701 8.43359 71.9061 8.43359 72.8781C8.43359 73.8501 8.82239 74.7789 9.50639 75.4701C10.1904 76.1541 11.1264 76.5429 12.0984 76.5429C20.2704 76.5429 39.9048 76.5429 48.0696 76.5429C49.0416 76.5429 49.9704 76.1541 50.6616 75.4701C51.3528 74.7861 51.7344 73.8501 51.7344 72.8781C51.7344 71.9061 51.3456 70.9773 50.6616 70.2861C49.9776 69.6021 49.0416 69.2133 48.0696 69.2133H36.4992C36.5568 69.1629 36.6144 69.1125 36.6648 69.0549C37.3488 68.3709 37.7376 67.4349 37.7376 66.4629C37.7376 65.4909 37.3488 64.5621 36.6648 63.8709C35.9808 63.1869 35.0448 62.7981 34.0728 62.7981C31.6608 62.7981 28.5072 62.7981 26.088 62.7981C25.116 62.7981 24.1872 63.1869 23.496 63.8709C22.812 64.5549 22.4232 65.4909 22.4232 66.4629C22.4232 67.4349 22.812 68.3637 23.496 69.0549C23.5608 69.1053 23.6184 69.1557 23.676 69.2133Z" fill="white"/>
<path fill-rule="evenodd" clip-rule="evenodd" d="M22.8264 68.8317H12.0984C11.0256 68.8317 10.0032 69.2565 9.24721 70.0125C8.49121 70.7685 8.06641 71.7981 8.06641 72.8709C8.06641 73.9437 8.49121 74.9661 9.24721 75.7293C10.0032 76.4853 11.0328 76.9101 12.0984 76.9101C20.2704 76.9101 39.9048 76.9101 48.0696 76.9101C49.1424 76.9101 50.1648 76.4853 50.9208 75.7293C51.6768 74.9733 52.1016 73.9437 52.1016 72.8709C52.1016 71.7981 51.6768 70.7757 50.9208 70.0125C50.1648 69.2565 49.1352 68.8317 48.0696 68.8317H37.3416C37.8384 68.1477 38.112 67.3197 38.112 66.4557C38.112 65.3829 37.6872 64.3605 36.9312 63.5973C36.1752 62.8413 35.1456 62.4165 34.08 62.4165C31.668 62.4165 28.5144 62.4165 26.0952 62.4165C25.0224 62.4165 24 62.8413 23.244 63.5973C22.488 64.3533 22.0632 65.3829 22.0632 66.4557C22.056 67.3197 22.3296 68.1477 22.8264 68.8317ZM23.676 69.5877C23.8344 69.5877 23.9712 69.4941 24.0288 69.3429C24.0864 69.1989 24.0432 69.0333 23.928 68.9325C23.8776 68.8893 23.8272 68.8389 23.7768 68.7885C23.1576 68.1693 22.812 67.3341 22.812 66.4629C22.812 65.5917 23.1576 64.7565 23.7768 64.1373C24.396 63.5181 25.2312 63.1725 26.1024 63.1725C28.5144 63.1725 31.668 63.1725 34.0872 63.1725C34.9584 63.1725 35.7936 63.5181 36.4128 64.1373C37.032 64.7565 37.3776 65.5917 37.3776 66.4629C37.3776 67.3341 37.032 68.1693 36.4128 68.7885C36.3624 68.8389 36.312 68.8821 36.2616 68.9325C36.1464 69.0333 36.1032 69.1989 36.1608 69.3429C36.2184 69.4869 36.3552 69.5877 36.5136 69.5877H48.0912C48.9624 69.5877 49.7976 69.9333 50.4168 70.5525C51.036 71.1717 51.3816 72.0069 51.3816 72.8781C51.3816 73.7493 51.036 74.5845 50.4168 75.2037C49.7976 75.8229 48.9624 76.1685 48.0912 76.1685C39.9192 76.1685 20.2848 76.1685 12.12 76.1685C11.2488 76.1685 10.4136 75.8229 9.79441 75.2037C9.17521 74.5845 8.82961 73.7493 8.82961 72.8781C8.82961 72.0069 9.17521 71.1717 9.79441 70.5525C10.4136 69.9333 11.2488 69.5877 12.12 69.5877H23.676Z" fill="#171718"/>
<path fill-rule="evenodd" clip-rule="evenodd" d="M145.536 105.765H137.192C136.491 105.765 135.822 106.045 135.324 106.538C134.831 107.031 134.551 107.706 134.551 108.406C134.551 109.107 134.831 109.776 135.324 110.274C135.817 110.767 136.491 111.047 137.192 111.047C143.082 111.047 157.232 111.047 163.116 111.047C163.817 111.047 164.486 110.767 164.985 110.274C165.477 109.781 165.758 109.107 165.758 108.406C165.758 107.706 165.477 107.036 164.985 106.538C164.492 106.045 163.817 105.765 163.116 105.765H154.778C154.819 105.729 154.861 105.692 154.897 105.651C155.39 105.158 155.67 104.483 155.67 103.783C155.67 103.082 155.39 102.413 154.897 101.915C154.404 101.422 153.729 101.142 153.029 101.142C151.291 101.142 149.018 101.142 147.274 101.142C146.574 101.142 145.904 101.422 145.406 101.915C144.913 102.408 144.633 103.082 144.633 103.783C144.633 104.483 144.913 105.153 145.406 105.651C145.453 105.687 145.494 105.729 145.536 105.765Z" fill="white"/>
<path fill-rule="evenodd" clip-rule="evenodd" d="M144.733 105.386H137.198C136.399 105.386 135.631 105.703 135.066 106.268C134.5 106.834 134.184 107.602 134.184 108.401C134.184 109.2 134.5 109.968 135.066 110.534C135.631 111.099 136.399 111.416 137.198 111.416C143.088 111.416 157.238 111.416 163.123 111.416C163.922 111.416 164.69 111.099 165.256 110.534C165.821 109.968 166.138 109.2 166.138 108.401C166.138 107.602 165.821 106.834 165.256 106.268C164.69 105.703 163.922 105.386 163.123 105.386H155.583C155.884 104.909 156.045 104.354 156.045 103.783C156.045 102.984 155.728 102.216 155.163 101.65C154.597 101.085 153.829 100.768 153.03 100.768C151.292 100.768 149.019 100.768 147.276 100.768C146.476 100.768 145.708 101.085 145.143 101.65C144.577 102.216 144.261 102.984 144.261 103.783C144.266 104.354 144.432 104.909 144.733 105.386ZM145.537 106.139C145.693 106.139 145.833 106.04 145.89 105.895C145.947 105.749 145.906 105.583 145.786 105.48C145.75 105.449 145.714 105.417 145.683 105.381C145.257 104.956 145.018 104.38 145.018 103.778C145.018 103.176 145.257 102.6 145.683 102.174C146.108 101.749 146.684 101.51 147.286 101.51C149.024 101.51 151.297 101.51 153.041 101.51C153.642 101.51 154.218 101.749 154.644 102.174C155.069 102.6 155.308 103.176 155.308 103.778C155.308 104.38 155.069 104.956 154.644 105.381C154.608 105.417 154.577 105.449 154.54 105.48C154.421 105.583 154.385 105.749 154.436 105.895C154.493 106.04 154.634 106.139 154.789 106.139H163.133C163.735 106.139 164.311 106.377 164.737 106.803C165.162 107.228 165.401 107.804 165.401 108.406C165.401 109.008 165.162 109.584 164.737 110.01C164.311 110.435 163.735 110.674 163.133 110.674C157.244 110.674 143.093 110.674 137.209 110.674C136.607 110.674 136.031 110.435 135.605 110.01C135.18 109.584 134.941 109.008 134.941 108.406C134.941 107.804 135.18 107.228 135.605 106.803C136.031 106.377 136.607 106.139 137.209 106.139H145.537Z" fill="#171718"/>
<path fill-rule="evenodd" clip-rule="evenodd" d="M77.6007 45.3148C77.6007 45.3148 73.9359 36.2068 81.4815 36.9844C81.4815 36.9844 87.4863 30.742 94.5063 32.2396C101.526 33.73 99.9063 39.0148 96.6087 41.5276C96.6087 41.5276 95.8887 39.1012 94.6071 37.8628C94.6071 37.8628 89.8695 43.2052 89.9991 38.9284C89.9991 38.9284 85.9023 43.0972 85.6503 39.5692C85.6503 39.5692 83.5407 41.4412 81.7983 42.3196C81.7983 42.3196 83.1159 47.3884 80.8551 47.158C80.8623 47.158 80.3295 45.5164 77.6007 45.3148Z" fill="#171718"/>
<path fill-rule="evenodd" clip-rule="evenodd" d="M77.2471 45.4588C77.3047 45.5884 77.4271 45.682 77.5711 45.6964C80.0047 45.8692 80.5015 47.2804 80.5015 47.2804C80.5447 47.4244 80.6743 47.5252 80.8183 47.5396C81.1855 47.5756 81.4807 47.5036 81.7183 47.3596C82.0567 47.1508 82.2871 46.7908 82.4167 46.3228C82.7407 45.142 82.3879 43.2484 82.2295 42.5284C83.4103 41.8804 84.6991 40.8652 85.3903 40.2964C85.5199 40.75 85.7431 41.0308 86.0023 41.1892C86.3839 41.4268 86.8807 41.4268 87.4135 41.2324C88.2055 40.9516 89.0983 40.2532 89.6671 39.7564C89.7607 40.282 89.9623 40.606 90.2071 40.7788C90.5887 41.0524 91.1287 41.0308 91.7191 40.7572C92.7703 40.2748 94.0519 39.0076 94.6063 38.4244C95.6647 39.6556 96.2479 41.6428 96.2479 41.6428C96.2839 41.758 96.3775 41.8516 96.4927 41.8948C96.6079 41.9308 96.7375 41.9092 96.8383 41.8372C98.9479 40.2316 100.366 37.5388 99.5815 35.3212C99.0631 33.8452 97.5727 32.5276 94.5847 31.8868C87.9967 30.4828 82.2727 35.71 81.3439 36.61C79.3999 36.4444 78.1759 36.9268 77.4199 37.7116C76.6351 38.5252 76.3471 39.6772 76.3327 40.8652C76.3039 43.1044 77.2471 45.4588 77.2471 45.4588ZM77.8663 44.962C77.6503 44.3572 77.0599 42.5788 77.0815 40.858C77.0959 39.8644 77.3047 38.8924 77.9599 38.2156C78.6151 37.5316 79.7095 37.1788 81.4447 37.3516C81.5599 37.366 81.6751 37.3228 81.7543 37.2364C81.7543 37.2364 87.5935 31.1452 94.4263 32.5996C97.0543 33.1612 98.4151 34.2484 98.8759 35.5444C99.5095 37.3444 98.4223 39.4612 96.7879 40.8868C96.4927 40.0732 95.8303 38.5108 94.8655 37.5892C94.7935 37.5172 94.6927 37.4812 94.5919 37.4812C94.4911 37.4884 94.3903 37.5316 94.3255 37.6108C94.3255 37.6108 92.6911 39.4684 91.4095 40.0588C91.2295 40.138 91.0639 40.1956 90.9127 40.21C90.8119 40.2172 90.7255 40.21 90.6535 40.1524C90.5671 40.0876 90.5095 39.9796 90.4591 39.8284C90.3943 39.6052 90.3655 39.3172 90.3799 38.9356C90.3871 38.7844 90.2935 38.6404 90.1495 38.5828C90.0055 38.5252 89.8399 38.554 89.7319 38.662C89.7319 38.662 88.3351 40.0948 87.1687 40.5124C86.8807 40.6132 86.6071 40.6708 86.4055 40.5412C86.1823 40.4044 86.0671 40.0804 86.0311 39.5476C86.0239 39.4036 85.9303 39.2812 85.8007 39.2236C85.6711 39.1732 85.5199 39.1948 85.4119 39.2884C85.4119 39.2884 83.3455 41.1244 81.6391 41.9812C81.4807 42.0604 81.4015 42.2404 81.4447 42.4132C81.4447 42.4132 81.9055 44.17 81.7975 45.5236C81.7471 46.15 81.6103 46.7116 81.1135 46.7836C80.8327 46.2796 80.0191 45.1924 77.8663 44.962Z" fill="#171718"/>
<path fill-rule="evenodd" clip-rule="evenodd" d="M77.1055 48.2884L78.9415 49.462C79.1143 49.57 79.3447 49.5196 79.4599 49.3468C79.5751 49.174 79.5175 48.9364 79.3447 48.8284L77.5087 47.6548C77.3359 47.5468 77.1055 47.5972 76.9903 47.77C76.8823 47.9428 76.9327 48.1732 77.1055 48.2884Z" fill="#171718"/>
<path fill-rule="evenodd" clip-rule="evenodd" d="M92.7448 46.0636C92.7448 46.0636 98.0656 48.814 99.0736 49.5052C100.082 50.1964 99.1168 51.7444 96.6544 50.2612C94.192 48.7852 92.5 47.9716 92.5 47.9716L92.7448 46.0636Z" fill="white"/>
<path fill-rule="evenodd" clip-rule="evenodd" d="M92.5697 46.3948C92.5697 46.3948 97.8617 49.1236 98.8553 49.8148C98.9921 49.9084 99.0785 50.0236 99.0857 50.146C99.0929 50.2396 99.0353 50.326 98.9489 50.3908C98.7977 50.4988 98.5601 50.5348 98.2505 50.4988C97.8689 50.4484 97.3937 50.2828 96.8393 49.9444C94.3553 48.454 92.6561 47.6404 92.6561 47.6404C92.4689 47.554 92.2457 47.6332 92.1521 47.8204C92.0657 48.0076 92.1449 48.2308 92.3321 48.3172C92.3321 48.3172 94.0097 49.1164 96.4577 50.5852C97.6313 51.2908 98.5097 51.3484 99.0425 51.1684C99.5177 51.01 99.7697 50.6716 99.8273 50.3116C99.8849 49.93 99.7265 49.5052 99.2873 49.1956C98.2721 48.4972 92.9153 45.7324 92.9153 45.7324C92.7281 45.6388 92.5049 45.7108 92.4113 45.8908C92.3177 46.0708 92.3897 46.3012 92.5697 46.3948Z" fill="#171718"/>
<path fill-rule="evenodd" clip-rule="evenodd" d="M88.1703 49.5052C88.1703 49.5052 89.9055 49.0444 91.7631 50.6068C91.9215 50.7364 92.1591 50.722 92.2887 50.5636C92.4183 50.4052 92.4039 50.1676 92.2455 50.038C90.0423 48.1804 87.9615 48.7852 87.9615 48.7852C87.7599 48.8428 87.6447 49.0444 87.7023 49.246C87.7599 49.4476 87.9687 49.5628 88.1703 49.5052Z" fill="#171718"/>
<path fill-rule="evenodd" clip-rule="evenodd" d="M86.6433 53.458C86.6721 53.5732 86.7081 53.6884 86.7657 53.7892C86.8665 53.962 87.0105 54.0988 87.2193 54.1708C87.3345 54.214 87.4497 54.2284 87.5721 54.2284C87.7089 54.2284 87.8457 54.2068 87.9753 54.1708C88.3065 54.0772 88.6161 53.8972 88.8897 53.6884C88.9833 53.9116 89.1489 54.0772 89.4585 54.1564C89.5737 54.1852 89.7033 54.1924 89.8185 54.178C90.1929 54.1276 90.5241 53.926 90.8265 53.7028C90.9345 53.9764 91.1073 54.1996 91.4313 54.2788C91.5465 54.3076 91.6617 54.3076 91.7769 54.3004C91.9209 54.286 92.0577 54.25 92.1873 54.1924C92.3385 54.1276 92.4753 54.0484 92.6049 53.9548C92.7705 53.8324 92.8137 53.602 92.6913 53.4292C92.5689 53.2636 92.3385 53.2204 92.1657 53.3428C92.0793 53.4004 91.9929 53.458 91.8993 53.494C91.8417 53.5156 91.7697 53.5372 91.7049 53.5444C91.6689 53.5444 91.6329 53.5444 91.5969 53.5372C91.5537 53.53 91.5393 53.4868 91.5249 53.458C91.4889 53.3788 91.4745 53.2924 91.4529 53.2132C91.4385 53.1628 91.4313 53.0692 91.4097 52.9972C91.3809 52.9036 91.3377 52.8316 91.2873 52.7812C91.2873 52.7812 91.0209 52.5436 90.7689 52.7668C90.7473 52.7812 90.6537 52.8676 90.6465 52.8748C90.5745 52.9396 90.4953 52.9972 90.4161 53.062C90.2073 53.2204 89.9841 53.3932 89.7105 53.4292C89.6817 53.4292 89.6529 53.4292 89.6169 53.422C89.5737 53.4076 89.5593 53.3788 89.5521 53.35C89.5377 53.2996 89.5305 53.242 89.5161 53.1772C89.5089 53.1196 89.5017 52.9972 89.4801 52.918C89.4585 52.8388 89.4225 52.7812 89.3865 52.738C89.2497 52.5868 89.1057 52.5724 88.9617 52.6228C88.9113 52.6372 88.8609 52.666 88.8105 52.7164C88.7889 52.738 88.7385 52.8028 88.7169 52.8388C88.6521 52.9036 88.5801 52.9612 88.5081 53.0188C88.2849 53.1988 88.0329 53.3644 87.7521 53.4436C87.6873 53.4652 87.6225 53.4796 87.5505 53.4724C87.5073 53.4724 87.4713 53.4652 87.4353 53.458C87.3849 53.4436 87.3777 53.386 87.3633 53.3428C87.3417 53.2564 87.3273 53.1628 87.3201 53.0836C87.3129 52.9828 87.3129 52.8244 87.2697 52.7308C87.1689 52.5076 86.6217 52.6444 86.6217 52.6444C86.6217 52.6444 86.6577 52.6156 86.6721 52.6012C86.6433 52.6228 86.6073 52.6372 86.5713 52.6588C86.4705 52.7092 86.3697 52.7524 86.2617 52.7812C86.1249 52.8172 85.9593 52.8388 85.8081 52.8172C85.6929 52.8028 85.5777 52.7596 85.5849 52.6156C85.5849 52.5364 85.6137 52.4644 85.6353 52.3852C85.6929 52.1908 85.5849 51.9748 85.3905 51.9172C85.1961 51.8524 84.9801 51.9676 84.9225 52.162C84.8721 52.3132 84.8361 52.45 84.8361 52.6084C84.8289 53.1196 85.1169 53.3932 85.5057 53.5156C85.8009 53.6092 86.1681 53.5876 86.4633 53.5084C86.5353 53.494 86.5857 53.4796 86.6433 53.458Z" fill="#171718"/>
<path d="M90.0152 45.3961C90.2308 45.3961 90.4055 45.2214 90.4055 45.0058C90.4055 44.7903 90.2308 44.6156 90.0152 44.6156C89.7997 44.6156 89.625 44.7903 89.625 45.0058C89.625 45.2214 89.7997 45.3961 90.0152 45.3961Z" fill="#171718"/>
<path d="M94.2418 45.3961C94.4573 45.3961 94.632 45.2214 94.632 45.0058C94.632 44.7903 94.4573 44.6156 94.2418 44.6156C94.0263 44.6156 93.8516 44.7903 93.8516 45.0058C93.8516 45.2214 94.0263 45.3961 94.2418 45.3961Z" fill="#171718"/>
<path fill-rule="evenodd" clip-rule="evenodd" d="M58.845 53.3356C56.8074 54.6388 54.3882 55.3876 51.7962 55.3876C44.5458 55.3876 38.6562 49.498 38.6562 42.2476C38.6562 34.9972 44.5458 29.1076 51.7962 29.1076C59.0466 29.1076 64.9362 34.9972 64.9362 42.2476C64.9362 45.6748 63.6258 48.7924 61.473 51.1324L63.1074 53.0908L64.9362 50.6716L70.7826 58.9948L65.613 55.3804L63.489 57.5836L58.845 53.3356Z" fill="white"/>
<path fill-rule="evenodd" clip-rule="evenodd" d="M58.8039 53.8036L63.2319 57.8716C63.3831 58.0084 63.6135 58.0012 63.7575 57.8572L65.6583 55.8844L70.5615 59.3116C70.7127 59.4196 70.9143 59.398 71.0439 59.2684C71.1735 59.1388 71.1879 58.9372 71.0871 58.786L65.2335 50.4628C65.1615 50.362 65.0535 50.3044 64.9311 50.3044C64.8087 50.3044 64.7007 50.3548 64.6287 50.4556L63.0807 52.5004L61.9575 51.154C64.0383 48.778 65.2983 45.6676 65.2983 42.262C65.2983 34.8028 59.2431 28.7476 51.7839 28.7476C44.3247 28.7476 38.2695 34.8028 38.2695 42.262C38.2695 49.7212 44.3247 55.7764 51.7839 55.7764C54.3543 55.7692 56.7591 55.0492 58.8039 53.8036ZM59.0991 53.062C58.9767 52.9468 58.7895 52.9324 58.6455 53.0188C56.6655 54.2788 54.3183 55.0132 51.7983 55.0132C44.7567 55.0132 39.0327 49.2964 39.0327 42.2476C39.0327 35.1988 44.7495 29.4892 51.7911 29.4892C58.8327 29.4892 64.5567 35.206 64.5567 42.2548C64.5567 45.5812 63.2823 48.6124 61.1943 50.8876C61.0647 51.0244 61.0647 51.2332 61.1799 51.3772L62.8143 53.3356C62.8863 53.422 62.9943 53.4724 63.1095 53.4724C63.2247 53.4724 63.3327 53.4148 63.3975 53.3212L64.9167 51.3124L69.2439 57.4756L65.8239 55.0852C65.6727 54.9772 65.4639 54.9988 65.3415 55.1356L63.4695 57.0724L59.0991 53.062Z" fill="#171718"/>
<path fill-rule="evenodd" clip-rule="evenodd" d="M102.031 44.6236L147.837 33.8596L147.967 48.9076L102.542 49.2892C102.535 49.2892 100.375 47.7052 102.031 44.6236Z" fill="white"/>
<path fill-rule="evenodd" clip-rule="evenodd" d="M101.944 44.2564C101.836 44.278 101.75 44.35 101.699 44.4436C100.979 45.7828 100.936 46.87 101.131 47.6764C101.433 48.9436 102.319 49.5844 102.319 49.5844C102.383 49.6348 102.463 49.6564 102.542 49.6564L147.967 49.2748C148.067 49.2748 148.161 49.2316 148.233 49.1596C148.305 49.0876 148.341 48.994 148.341 48.8932L148.211 33.8452C148.211 33.73 148.161 33.622 148.067 33.55C147.981 33.478 147.859 33.4564 147.751 33.478L101.944 44.2564ZM102.283 44.9476L147.47 34.3276C147.47 34.3276 147.571 46.2508 147.592 48.5332C147.592 48.5332 105.4 48.886 102.679 48.9076C102.491 48.7348 102.045 48.2668 101.865 47.5036C101.707 46.8556 101.75 46.006 102.283 44.9476Z" fill="#171718"/>
<path fill-rule="evenodd" clip-rule="evenodd" d="M111.117 42.4589C111.117 42.4589 110.505 44.0085 110.512 45.8082C110.519 47.0451 110.814 48.3862 111.757 49.4493C111.894 49.6022 112.132 49.6161 112.283 49.4841C112.434 49.3451 112.449 49.1088 112.312 48.9559C111.498 48.0387 111.261 46.8713 111.261 45.8082C111.253 44.1613 111.815 42.7368 111.815 42.7368C111.894 42.5423 111.793 42.3269 111.606 42.2504C111.412 42.174 111.196 42.2713 111.117 42.4589Z" fill="#171718"/>
<path d="M147.961 48.9128C150.347 48.9128 152.281 45.544 152.281 41.3883C152.281 37.2327 150.347 33.8639 147.961 33.8639C145.575 33.8639 143.641 37.2327 143.641 41.3883C143.641 45.544 145.575 48.9128 147.961 48.9128Z" fill="white"/>
<path fill-rule="evenodd" clip-rule="evenodd" d="M147.959 33.485C146.896 33.485 145.91 34.065 145.113 35.078C143.999 36.5009 143.262 38.79 143.262 41.3806C143.262 43.9713 143.999 46.2603 145.113 47.6832C145.91 48.6963 146.896 49.2762 147.959 49.2762C149.022 49.2762 150.008 48.6963 150.805 47.6832C151.919 46.2603 152.657 43.9713 152.657 41.3806C152.657 38.79 151.919 36.5009 150.805 35.078C150.016 34.065 149.022 33.485 147.959 33.485ZM147.959 34.2351C148.808 34.2351 149.579 34.73 150.214 35.542C151.242 36.8567 151.902 38.9833 151.902 41.3806C151.902 43.7779 151.242 45.9046 150.214 47.2192C149.579 48.0312 148.808 48.5261 147.959 48.5261C147.111 48.5261 146.339 48.0312 145.705 47.2192C144.676 45.9046 144.016 43.7779 144.016 41.3806C144.016 38.9833 144.676 36.8567 145.705 35.542C146.339 34.73 147.119 34.2351 147.959 34.2351Z" fill="#171718"/>
<path fill-rule="evenodd" clip-rule="evenodd" d="M142.142 34.9468C142.142 34.9468 138.311 42.6436 142.732 49.1596C142.847 49.3324 143.085 49.3756 143.25 49.2604C143.423 49.1452 143.466 48.9076 143.351 48.742C139.168 42.5716 142.811 35.2852 142.811 35.2852C142.905 35.098 142.826 34.8748 142.646 34.7812C142.458 34.6876 142.235 34.7596 142.142 34.9468Z" fill="#171718"/>
<path fill-rule="evenodd" clip-rule="evenodd" d="M100.491 27.106C100.484 26.7028 100.463 26.3068 100.448 25.9036C100.441 25.6948 100.268 25.5364 100.059 25.5436C99.8507 25.5508 99.6923 25.7236 99.6995 25.9324C99.7139 26.3284 99.7355 26.7244 99.7427 27.1204C99.7499 27.3292 99.9155 27.4948 100.124 27.4876C100.333 27.4876 100.499 27.3148 100.491 27.106Z" fill="#171718"/>
<path fill-rule="evenodd" clip-rule="evenodd" d="M104.212 28.7836C104.687 28.0636 105.234 27.3868 105.709 26.6596C105.825 26.4868 105.774 26.2564 105.601 26.1412C105.429 26.026 105.198 26.0764 105.083 26.2492C104.608 26.9764 104.061 27.646 103.585 28.3732C103.47 28.546 103.521 28.7764 103.693 28.8916C103.866 29.0068 104.097 28.9564 104.212 28.7836Z" fill="#171718"/>
<path fill-rule="evenodd" clip-rule="evenodd" d="M106.085 33.802C106.712 33.514 107.324 33.2188 107.921 32.866C108.101 32.758 108.159 32.5276 108.051 32.3548C107.943 32.1748 107.712 32.1172 107.54 32.2252C106.971 32.5708 106.38 32.8444 105.776 33.1252C105.588 33.2116 105.502 33.4348 105.588 33.622C105.675 33.802 105.898 33.8884 106.085 33.802Z" fill="#171718"/>
<path fill-rule="evenodd" clip-rule="evenodd" d="M132.497 131.895L126.859 153.992C126.809 154.193 126.931 154.395 127.133 154.445C127.334 154.496 127.536 154.373 127.586 154.172L133.224 132.075C133.274 131.873 133.152 131.672 132.95 131.621C132.749 131.571 132.547 131.693 132.497 131.895Z" fill="#171718"/>
<path fill-rule="evenodd" clip-rule="evenodd" d="M42.0708 134.525C42.0708 134.525 45.4548 150.048 45.8364 154.116C45.858 154.325 46.038 154.476 46.2468 154.454C46.4556 154.433 46.6068 154.253 46.5852 154.044C46.2036 149.961 42.8052 134.366 42.8052 134.366C42.762 134.165 42.5604 134.035 42.3588 134.078C42.1572 134.121 42.0276 134.323 42.0708 134.525Z" fill="#171718"/>
<path fill-rule="evenodd" clip-rule="evenodd" d="M55.3457 92.7412C55.3457 92.7412 48.5489 116.105 61.4657 125.616C74.3897 135.128 87.6161 116.307 87.6161 116.307C87.6161 116.307 97.2137 115.133 99.8057 113.074C102.398 111.015 101.771 108.862 101.771 108.862C101.771 108.862 103.83 105.86 103.175 103.404C103.175 103.404 105.717 99.2428 103.269 97.846C100.821 96.4492 96.5225 98.3428 96.5225 98.3428C96.5225 98.3428 99.6473 95.8588 99.0929 93.6412C98.5385 91.4236 96.4793 92.4892 94.3337 93.0508C92.1881 93.6124 87.6233 95.5204 84.9593 97.3276C73.5329 105.075 68.3633 109.971 68.3633 109.971L70.5089 97.126L55.3457 92.7412Z" fill="white"/>
<path fill-rule="evenodd" clip-rule="evenodd" d="M54.986 92.6404C54.986 92.6404 52.5164 101.122 53.3588 109.978C53.9276 115.932 55.9868 122.052 61.25 125.926C66.5564 129.836 71.9132 129.094 76.4276 126.79C82.5548 123.665 87.1124 117.646 87.8252 116.667C88.6892 116.552 92.8076 115.99 96.134 115.047C97.7828 114.579 99.2372 114.01 100.044 113.376C102.405 111.497 102.276 109.539 102.175 108.948C102.391 108.603 102.952 107.66 103.327 106.515C103.636 105.564 103.809 104.484 103.586 103.476C103.824 103.059 104.5 101.763 104.673 100.467C104.832 99.3148 104.587 98.1772 103.464 97.5292C102.42 96.9316 101.052 96.8812 99.7916 97.054C99.1436 97.1404 98.5244 97.2916 97.9988 97.4428C98.2508 97.1548 98.5172 96.8236 98.7476 96.4708C99.3236 95.5852 99.7124 94.5484 99.4676 93.562C99.302 92.8924 99.0068 92.482 98.6396 92.23C98.2724 91.9852 97.8188 91.8988 97.3004 91.9348C96.4292 91.9924 95.3492 92.4028 94.2548 92.6908C92.0804 93.2596 87.458 95.1964 84.7652 97.018C75.8948 103.03 70.7828 107.336 68.9252 108.97L70.898 97.1908C70.934 96.9892 70.7972 96.7948 70.5884 96.7588C70.3868 96.7228 70.1924 96.8596 70.1564 97.0684L68.0108 109.913C67.982 110.072 68.0612 110.23 68.2052 110.309C68.3492 110.388 68.522 110.36 68.6372 110.252C68.6372 110.252 73.7996 105.37 85.19 97.6516C87.818 95.8732 92.3252 93.9868 94.442 93.4324C95.4932 93.1588 96.5156 92.7556 97.3508 92.698C97.682 92.6764 97.9844 92.7052 98.222 92.8636C98.4596 93.022 98.6324 93.31 98.7404 93.7492C98.9348 94.5412 98.5892 95.362 98.1212 96.0676C97.3724 97.2124 96.2996 98.0692 96.2996 98.0692C96.1484 98.1844 96.1124 98.3932 96.2132 98.5588C96.3068 98.7172 96.5156 98.782 96.6884 98.71C96.6884 98.71 98.1932 98.0476 99.9068 97.81C101.001 97.6588 102.189 97.6732 103.104 98.1916C103.932 98.6668 104.054 99.5308 103.939 100.373C103.744 101.799 102.873 103.232 102.873 103.232C102.823 103.318 102.808 103.426 102.83 103.52C103.075 104.427 102.902 105.42 102.621 106.284C102.189 107.624 101.476 108.66 101.476 108.66C101.412 108.754 101.397 108.869 101.426 108.977C101.426 108.977 101.952 110.914 99.59 112.786C98.8412 113.384 97.4804 113.895 95.9468 114.327C92.2604 115.371 87.5876 115.947 87.5876 115.947C87.4796 115.961 87.386 116.019 87.3284 116.105C87.3284 116.105 82.6268 122.801 76.1036 126.128C71.8196 128.309 66.7436 129.029 61.7108 125.328C56.6348 121.592 54.6692 115.666 54.122 109.913C53.294 101.201 55.7204 92.8564 55.7204 92.8564C55.778 92.6548 55.6628 92.446 55.4684 92.3884C55.2524 92.3236 55.0436 92.4388 54.986 92.6404Z" fill="#171718"/>
<path fill-rule="evenodd" clip-rule="evenodd" d="M92.9653 93.5116C92.9653 93.5116 93.0589 93.9724 93.3397 94.426C93.6493 94.9156 94.1605 95.3908 94.9813 95.362C95.6941 95.3332 96.5653 94.9732 97.0693 94.4548C97.4725 94.0444 97.6525 93.5404 97.4797 93.0292C97.3861 92.734 97.1629 92.4244 96.7525 92.1292C96.5869 92.0068 96.3493 92.0428 96.2269 92.2156C96.1045 92.3812 96.1405 92.6188 96.3133 92.7412C96.6013 92.95 96.7525 93.1444 96.7885 93.346C96.8317 93.6412 96.6085 93.9004 96.3277 94.1092C95.9389 94.4044 95.4061 94.5988 94.9525 94.6132C94.4629 94.6348 94.1605 94.3252 93.9733 94.03C93.7645 93.6988 93.6925 93.3604 93.6925 93.3604C93.6493 93.1588 93.4549 93.0292 93.2533 93.0652C93.0517 93.1156 92.9221 93.31 92.9653 93.5116Z" fill="#171718"/>
<path fill-rule="evenodd" clip-rule="evenodd" d="M85.9013 67.0804C85.8077 67.2244 85.8221 67.4044 85.9373 67.534L88.1117 69.9892C88.1837 70.0684 88.2845 70.1188 88.3925 70.1188H90.2285C90.3509 70.1188 90.4589 70.0612 90.5309 69.9604L92.3597 67.4404C92.4533 67.3108 92.4533 67.1452 92.3669 67.0156L89.4509 62.5876C89.3789 62.4796 89.2637 62.422 89.1341 62.422C89.0045 62.422 88.8893 62.4868 88.8245 62.5948L85.9013 67.0804ZM86.6861 67.2532L89.1413 63.4804L91.6037 67.2172L90.0413 69.37H88.5581L86.6861 67.2532Z" fill="#171718"/>
<path fill-rule="evenodd" clip-rule="evenodd" d="M150.195 153.705H29.6021C29.3991 153.705 29.2188 153.863 29.2188 154.088C29.2188 154.291 29.3766 154.472 29.6021 154.472H150.195C150.398 154.472 150.578 154.291 150.578 154.088C150.578 153.863 150.42 153.705 150.195 153.705Z" fill="#171718"/>
<path fill-rule="evenodd" clip-rule="evenodd" d="M64.5491 134.393L61.7771 153.704C61.7483 153.905 61.8923 154.1 62.0939 154.128C62.2955 154.157 62.4899 154.013 62.5187 153.812L65.2907 134.501C65.3195 134.3 65.1755 134.105 64.9739 134.076C64.7651 134.048 64.5779 134.192 64.5491 134.393Z" fill="#171718"/>
<path fill-rule="evenodd" clip-rule="evenodd" d="M63.6179 144.624C63.6179 144.624 71.9051 142.608 72.6179 135.027C72.6395 134.818 72.4883 134.638 72.2795 134.616C72.0707 134.595 71.8907 134.746 71.8691 134.955C71.2067 142.04 63.4451 143.897 63.4451 143.897C63.2435 143.948 63.1211 144.149 63.1715 144.351C63.2147 144.552 63.4163 144.675 63.6179 144.624Z" fill="#171718"/>
<path fill-rule="evenodd" clip-rule="evenodd" d="M105.588 133.508C105.588 133.508 107.957 142.277 116.05 143.048C116.259 143.069 116.439 142.918 116.46 142.709C116.482 142.5 116.331 142.32 116.122 142.299C108.519 141.579 106.316 133.313 106.316 133.313C106.265 133.112 106.056 132.996 105.855 133.047C105.653 133.104 105.531 133.313 105.588 133.508Z" fill="#171718"/>
<path fill-rule="evenodd" clip-rule="evenodd" d="M96.3993 97.9972L92.5689 99.286C92.3745 99.3508 92.2665 99.5668 92.3313 99.7612C92.3961 99.9556 92.6121 100.064 92.8065 99.9988L96.6369 98.71C96.8313 98.6452 96.9393 98.4292 96.8745 98.2348C96.8097 98.0332 96.5937 97.9324 96.3993 97.9972Z" fill="#171718"/>
<path fill-rule="evenodd" clip-rule="evenodd" d="M70.8752 97.2333L71.9768 91.7685C72.02 91.5669 71.8832 91.3653 71.6816 91.3293C71.48 91.2861 71.2784 91.4229 71.2424 91.6245L70.1408 97.0893C70.0976 97.2909 70.2344 97.4925 70.436 97.5285C70.6376 97.5645 70.8392 97.4349 70.8752 97.2333Z" fill="#171718"/>
<path fill-rule="evenodd" clip-rule="evenodd" d="M68.3057 109.449C68.3057 109.449 67.1969 110.364 64.2953 114.252C64.1729 114.417 64.2089 114.655 64.3745 114.777C64.5401 114.9 64.7778 114.864 64.9002 114.698C67.7153 110.918 68.7809 110.025 68.7809 110.025C68.9393 109.896 68.9609 109.658 68.8313 109.5C68.7017 109.341 68.4713 109.32 68.3057 109.449Z" fill="#171718"/>
<path fill-rule="evenodd" clip-rule="evenodd" d="M161.934 88.7524C161.934 88.7524 164.245 81.4372 170.689 81.1636C177.126 80.8972 172.222 93.022 161.934 88.7524Z" fill="white"/>
<path fill-rule="evenodd" clip-rule="evenodd" d="M161.583 88.6444C161.526 88.8316 161.619 89.026 161.799 89.1052C168.251 91.7836 172.664 88.234 173.715 85.0732C174.169 83.7124 174.003 82.4092 173.204 81.61C172.671 81.0772 171.843 80.746 170.677 80.7964C167.322 80.9404 165.039 82.906 163.599 84.8428C162.174 86.758 161.583 88.6444 161.583 88.6444ZM162.411 88.5436C162.635 87.946 163.203 86.6284 164.197 85.2892C165.522 83.5036 167.617 81.6748 170.706 81.5452C171.606 81.5092 172.254 81.7252 172.671 82.1428C173.291 82.762 173.355 83.7772 173.003 84.8356C172.052 87.6652 168.128 90.7324 162.411 88.5436Z" fill="#171718"/>
<path fill-rule="evenodd" clip-rule="evenodd" d="M26.9289 94.1221C26.9289 94.1221 33.0053 88.2672 39.3762 91.3881C45.7402 94.5052 34.6285 103.653 26.9289 94.1221Z" fill="white"/>
<path fill-rule="evenodd" clip-rule="evenodd" d="M26.6697 93.8544C26.534 93.988 26.5122 94.2105 26.6382 94.3601C31.4519 100.312 37.5496 99.2102 40.2183 96.7219C41.364 95.6591 41.881 94.3267 41.5317 93.1453C41.293 92.3575 40.677 91.6169 39.5373 91.0605C36.2332 89.4445 33.0057 90.1418 30.6074 91.2538C28.2275 92.3486 26.6697 93.8544 26.6697 93.8544ZM27.4494 94.1611C27.9645 93.711 29.2285 92.7125 30.9244 91.9309C33.1534 90.8981 36.1496 90.2284 39.2095 91.7296C40.1121 92.1752 40.628 92.7351 40.8122 93.358C41.0884 94.2924 40.6171 95.3252 39.7056 96.1728C37.2931 98.4218 31.8399 99.3333 27.4494 94.1611Z" fill="#171718"/>
<path fill-rule="evenodd" clip-rule="evenodd" d="M166.867 86.9308C166.867 86.9308 172.174 84.7492 175.039 80.3212C175.154 80.1484 175.104 79.918 174.931 79.8028C174.758 79.6876 174.528 79.738 174.413 79.9108C171.67 84.1516 166.586 86.2324 166.586 86.2324C166.392 86.3116 166.306 86.5276 166.385 86.722C166.464 86.9164 166.68 87.01 166.867 86.9308Z" fill="#171718"/>
<path fill-rule="evenodd" clip-rule="evenodd" d="M32.6515 94.9173C32.6515 94.9173 38.9147 95.6 43.9993 92.8296C44.18 92.7295 44.2479 92.505 44.1516 92.3174C44.0515 92.1368 43.827 92.0689 43.6464 92.169C38.7531 94.8361 32.7408 94.1727 32.7408 94.1727C32.536 94.1515 32.3466 94.3009 32.3254 94.5057C32.2972 94.7067 32.4505 94.8892 32.6515 94.9173Z" fill="#171718"/>
<path d="M47.0508 38.8391C47.0508 38.2352 47.2366 37.6312 47.6082 37.0273C47.9799 36.4234 48.5373 35.9124 49.2806 35.4943C50.0239 35.0762 50.8601 34.8904 51.8821 34.8904C52.8112 34.8904 53.601 35.0762 54.2978 35.4014C54.9946 35.7266 55.5521 36.1911 55.9237 36.795C56.2954 37.3525 56.4812 38.0029 56.4812 38.6997C56.4812 39.2572 56.3883 39.7217 56.156 40.0934C55.9237 40.5115 55.6914 40.8367 55.3662 41.1154C55.0875 41.3941 54.53 41.9051 53.7403 42.6019C53.508 42.7878 53.3687 42.9736 53.2293 43.113C53.09 43.2523 52.9971 43.3917 52.9506 43.531C52.9041 43.6704 52.8577 43.7633 52.8112 43.9027C52.7648 44.0421 52.7183 44.2279 52.6718 44.5531C52.5325 45.2034 52.1609 45.5286 51.5569 45.5286C51.2318 45.5286 50.953 45.4357 50.7207 45.2034C50.4884 44.9712 50.3956 44.6924 50.3956 44.2279C50.3956 43.7169 50.4885 43.2523 50.6278 42.8342C50.8137 42.4626 50.9995 42.0909 51.2782 41.8122C51.5569 41.5335 51.9286 41.1618 52.3931 40.7902C52.8112 40.4186 53.0899 40.1863 53.2758 40.0005C53.4616 39.8146 53.6009 39.6288 53.7403 39.3965C53.8797 39.1643 53.9261 38.932 53.9261 38.6997C53.9261 38.1887 53.7403 37.7706 53.3687 37.4454C52.997 37.1202 52.5325 36.9344 51.9286 36.9344C51.2317 36.9344 50.7207 37.1202 50.3956 37.4454C50.0704 37.8171 49.7916 38.3281 49.5593 38.9784C49.3271 39.6753 48.9554 40.0469 48.3515 40.0469C47.9799 40.0469 47.7011 39.9075 47.4689 39.6753C47.1901 39.3965 47.0508 39.1178 47.0508 38.8391ZM51.6963 49.1986C51.3247 49.1986 50.9995 49.0592 50.6743 48.8269C50.3955 48.5947 50.2562 48.223 50.2562 47.8049C50.2562 47.3868 50.3955 47.0616 50.6743 46.7829C50.953 46.5042 51.2782 46.3648 51.6963 46.3648C52.1144 46.3648 52.4396 46.5042 52.7183 46.7829C52.9971 47.0616 53.1364 47.3868 53.1364 47.8049C53.1364 48.223 52.9971 48.5947 52.7183 48.8269C52.3931 49.0592 52.0679 49.1986 51.6963 49.1986Z" fill="#171718"/>
<path fill-rule="evenodd" clip-rule="evenodd" d="M78.7101 65.449L84.3698 70.0377C84.4485 70.108 84.5558 70.1362 84.6631 70.1151C84.7705 70.094 84.8635 70.0377 84.9207 69.9532L89.4499 63.0068C89.5644 62.8309 89.5143 62.5986 89.3426 62.486C89.1709 62.3734 88.9347 62.4227 88.8203 62.5986L84.5129 69.2002L79.1751 64.8719C79.0106 64.7452 78.7744 64.7663 78.6457 64.9282C78.524 65.076 78.5526 65.3153 78.7101 65.449Z" fill="#171718"/>
<path fill-rule="evenodd" clip-rule="evenodd" d="M88.8245 62.9983L93.2237 69.6799C93.2885 69.7807 93.4037 69.8455 93.5261 69.8455C93.6485 69.8527 93.7637 69.7951 93.8357 69.7015L99.2069 62.7391C99.3365 62.5735 99.3005 62.3431 99.1421 62.2135C98.9765 62.0839 98.7461 62.1199 98.6165 62.2783L93.5621 68.8231L89.4509 62.5735C89.3357 62.4007 89.1053 62.3503 88.9325 62.4655C88.7597 62.5951 88.7165 62.8255 88.8245 62.9983Z" fill="#171718"/>
<path fill-rule="evenodd" clip-rule="evenodd" d="M112.062 92.1076C112.062 92.1076 124.151 104.499 135.592 100.258C147.026 96.0244 144.678 70.2844 140.949 57.4324C140.949 57.4324 144.218 52.1908 143.735 48.9436L128.558 49.0732C128.558 49.0732 129.465 43.7236 126.801 43.3276C124.137 42.9388 122.294 47.5612 121.207 50.3548C120.112 53.1484 120.674 56.7988 124.684 61.702C128.694 66.6052 128.01 77.6284 127.089 83.8636L123.366 80.3932L112.062 92.1076Z" fill="white"/>
<path fill-rule="evenodd" clip-rule="evenodd" d="M111.789 91.8484C111.645 91.9924 111.652 92.2228 111.789 92.374C111.789 92.374 116.188 96.8812 122.207 99.5668C126.261 101.374 131.042 102.346 135.715 100.618C140.402 98.8828 142.879 93.6484 143.858 87.118C145.291 77.5708 143.577 65.2588 141.352 57.49C141.64 57.0004 142.598 55.3516 143.311 53.4724C143.894 51.9388 144.304 50.2468 144.103 48.8932C144.074 48.706 143.915 48.5692 143.728 48.5764C143.728 48.5764 131.467 48.6772 128.99 48.6988C129.069 48.0148 129.177 46.654 128.939 45.4516C128.702 44.1988 128.083 43.1404 126.859 42.9604C125.671 42.7876 124.605 43.4716 123.705 44.5948C122.474 46.1356 121.523 48.5116 120.861 50.218C119.731 53.098 120.263 56.878 124.396 61.9324C125.959 63.8476 126.779 66.7204 127.161 69.8596C127.701 74.3596 127.327 79.414 126.823 83.0932L123.626 80.1124C123.475 79.9756 123.244 79.9828 123.1 80.1268L111.789 91.8484ZM112.588 92.1004L123.381 80.9116L126.837 84.1372C126.938 84.2308 127.089 84.2596 127.219 84.2164C127.348 84.1732 127.449 84.058 127.463 83.914C128.025 80.1484 128.493 74.6404 127.903 69.7732C127.507 66.4756 126.621 63.466 124.979 61.4572C121.099 56.7124 120.501 53.1916 121.559 50.4916C122.2 48.8428 123.107 46.5532 124.295 45.0628C125.008 44.17 125.815 43.5652 126.758 43.702C127.658 43.8316 128.039 44.674 128.212 45.5956C128.515 47.158 128.198 49.0156 128.198 49.0156C128.176 49.1236 128.212 49.2388 128.284 49.3252C128.356 49.4116 128.464 49.4548 128.572 49.4548L143.404 49.3324C143.483 50.5132 143.102 51.9172 142.619 53.2132C141.791 55.3876 140.639 57.2452 140.639 57.2452C140.582 57.3388 140.567 57.4468 140.596 57.5476C142.821 65.2228 144.556 77.506 143.123 87.01C142.187 93.2308 139.927 98.2636 135.463 99.9196C130.984 101.576 126.405 100.618 122.524 98.89C117.477 96.6292 113.603 93.0796 112.588 92.1004Z" fill="#171718"/>
<path fill-rule="evenodd" clip-rule="evenodd" d="M128.212 48.9508C128.212 48.9508 127.298 51.7012 126.463 52.9468C126.391 53.0548 126.376 53.1916 126.434 53.314C126.492 53.4292 126.6 53.5156 126.736 53.53C126.736 53.53 129.206 53.8324 131.409 57.2524C131.524 57.4252 131.755 57.4756 131.928 57.3676C132.1 57.2524 132.151 57.022 132.043 56.8492C130.264 54.0844 128.299 53.1916 127.37 52.9108C128.155 51.4924 128.932 49.1884 128.932 49.1884C128.997 48.994 128.889 48.778 128.695 48.7132C128.486 48.6484 128.277 48.7564 128.212 48.9508Z" fill="#171718"/>
<path fill-rule="evenodd" clip-rule="evenodd" d="M126.721 83.7916L126.088 87.298C126.052 87.4996 126.189 87.694 126.39 87.7372C126.592 87.7732 126.786 87.6364 126.829 87.4348L127.463 83.9284C127.499 83.7268 127.362 83.5324 127.161 83.4964C126.952 83.4532 126.757 83.59 126.721 83.7916Z" fill="#171718"/>
<path fill-rule="evenodd" clip-rule="evenodd" d="M112.318 91.836L109.777 89.352C109.625 89.208 109.388 89.208 109.244 89.3592C109.1 89.5104 109.1 89.748 109.251 89.892L111.793 92.376C111.944 92.52 112.181 92.52 112.325 92.3688C112.469 92.2176 112.469 91.9872 112.318 91.836Z" fill="#171718"/>
<path fill-rule="evenodd" clip-rule="evenodd" d="M122.178 48.1032C122.178 48.1032 124.144 48.744 125.289 47.2104C125.598 46.7928 125.678 46.4184 125.634 46.1016C125.577 45.6336 125.238 45.2592 124.886 45.0144C124.54 44.7696 124.187 44.6472 124.187 44.6472C123.993 44.5824 123.777 44.6832 123.712 44.8776C123.647 45.072 123.748 45.288 123.942 45.3528L124.461 45.6264C124.655 45.7632 124.864 45.9432 124.893 46.1952C124.914 46.3608 124.85 46.548 124.691 46.764C123.856 47.88 122.416 47.3904 122.416 47.3904C122.222 47.3256 122.006 47.4336 121.941 47.628C121.876 47.8224 121.984 48.0384 122.178 48.1032Z" fill="#171718"/>
<path fill-rule="evenodd" clip-rule="evenodd" d="M146.131 34.6752C146.131 34.6752 148.298 36.5256 148.917 39.8808C149.335 42.1488 149.039 45.0936 146.937 48.6144C146.829 48.7944 146.887 49.0248 147.067 49.1256C147.247 49.2336 147.477 49.176 147.578 48.996C149.81 45.2592 150.098 42.1416 149.651 39.7368C148.982 36.0936 146.613 34.0992 146.613 34.0992C146.455 33.9624 146.217 33.984 146.087 34.1424C145.958 34.3008 145.972 34.5384 146.131 34.6752Z" fill="#171718"/>
</g>
<defs>
<clipPath id="clip0_696_4830">
<rect width="180" height="180" fill="white"/>
</clipPath>
</defs>
</svg>
