<svg width="180" height="180" viewBox="0 0 180 180" fill="none" xmlns="http://www.w3.org/2000/svg">
<path fill-rule="evenodd" clip-rule="evenodd" d="M56.3251 144.523C56.3251 144.523 61.3629 142.871 66.1335 139.151C66.8439 138.602 67.7319 138.335 68.6333 138.397C72.6163 138.712 83.4409 139.883 83.7557 143.148C83.9964 145.605 74.6764 144.723 74.6764 144.723C74.6764 144.723 79.6349 145.771 80.0479 147.414C80.4693 149.064 75.6558 149.257 72.8851 148.398C72.8851 148.398 76.4179 150.013 76.082 151.438C75.7452 152.855 68.64 152.407 62.6085 147.861C62.6085 147.861 56.9523 149.08 54.7313 149.287L56.3251 144.523Z" fill="white"/>
<path fill-rule="evenodd" clip-rule="evenodd" d="M56.2069 144.166C56.0951 144.201 56.0045 144.288 55.9706 144.4L54.3768 149.164C54.3361 149.285 54.3589 149.421 54.4393 149.52C54.512 149.62 54.6414 149.675 54.7709 149.661C56.7778 149.47 61.5639 148.47 62.528 148.263C66.7955 151.431 71.566 152.592 74.1721 152.52C74.9101 152.5 75.4831 152.383 75.8556 152.195C76.1985 152.019 76.3883 151.782 76.4519 151.52C76.5783 150.99 76.3137 150.41 75.8172 149.894C75.5735 149.643 75.285 149.405 74.9829 149.184C76.6138 149.359 78.3305 149.261 79.3506 148.863C80.1853 148.532 80.5876 147.986 80.4213 147.318C80.2726 146.741 79.6889 146.204 78.8927 145.768C78.5323 145.576 78.1345 145.397 77.7317 145.241C79.1367 145.255 80.7575 145.199 81.9849 144.932C82.6097 144.794 83.1354 144.597 83.5003 144.341C83.9508 144.021 84.1829 143.61 84.1349 143.106C84.0903 142.633 83.8654 142.203 83.4966 141.796C82.9984 141.265 82.2208 140.789 81.2511 140.387C77.6699 138.894 71.4748 138.237 68.6666 138.015C67.6713 137.94 66.6944 138.241 65.9128 138.844C61.1846 142.528 56.2069 144.166 56.2069 144.166ZM56.6179 144.814C57.5601 144.479 62.0697 142.793 66.3645 139.442C67.0038 138.947 67.802 138.704 68.6027 138.762C71.3643 138.981 77.4487 139.612 80.9579 141.082C81.6696 141.382 82.2846 141.714 82.7127 142.099C83.0959 142.427 83.3437 142.785 83.3799 143.182C83.4051 143.41 83.2706 143.587 83.0707 143.733C82.7702 143.943 82.3316 144.092 81.8271 144.202C79.2072 144.777 74.7181 144.348 74.7181 144.348C74.5235 144.331 74.3457 144.466 74.3058 144.663C74.2736 144.86 74.4097 145.045 74.6068 145.085C74.6068 145.085 76.9672 145.58 78.5266 146.433C78.8388 146.606 79.1215 146.791 79.3356 146.983C79.5158 147.149 79.6425 147.32 79.6856 147.5C79.7253 147.65 79.6703 147.779 79.5509 147.885C79.4323 147.998 79.2722 148.085 79.0724 148.161C77.6832 148.708 74.8581 148.612 72.9904 148.04C72.8067 147.983 72.601 148.075 72.5298 148.268C72.4501 148.454 72.5423 148.66 72.7208 148.74C72.7208 148.74 73.947 149.299 74.8548 150.047C75.1348 150.278 75.3937 150.527 75.5527 150.779C75.6736 150.966 75.7564 151.158 75.708 151.348C75.6979 151.395 75.6555 151.431 75.6056 151.467C75.5412 151.513 75.4607 151.553 75.3642 151.586C75.0679 151.696 74.6506 151.758 74.1504 151.767C71.6129 151.832 66.9661 150.672 62.828 147.559C62.7434 147.491 62.6325 147.465 62.5276 147.492C62.5276 147.492 57.7525 148.521 55.2665 148.843L56.6179 144.814Z" fill="#171718"/>
<path fill-rule="evenodd" clip-rule="evenodd" d="M74.7422 144.345L71.8063 143.876C71.6024 143.844 71.4093 143.981 71.3779 144.185C71.3388 144.39 71.4835 144.582 71.6875 144.614L74.6234 145.083C74.8273 145.115 75.0204 144.978 75.0518 144.774C75.0765 144.578 74.947 144.384 74.7422 144.345Z" fill="#171718"/>
<path fill-rule="evenodd" clip-rule="evenodd" d="M72.9929 148.033L70.4667 147.572C70.2619 147.533 70.0765 147.669 70.0298 147.875C69.9908 148.08 70.1353 148.272 70.3325 148.312L72.8511 148.774C73.0559 148.813 73.2489 148.676 73.288 148.471C73.3279 148.274 73.1901 148.073 72.9929 148.033Z" fill="#171718"/>
<path fill-rule="evenodd" clip-rule="evenodd" d="M29.1467 137.311C29.1467 137.311 24.1224 132.877 21.82 127.117C21.4041 126.076 20.5158 125.295 19.4292 125.022C15.8038 124.104 7.87995 122.25 5.45127 122.951C2.25226 123.867 7.81957 127.493 14.1867 129.495C14.1867 129.495 9.27194 129.121 8.07194 130.333C6.87195 131.546 11.1484 133.818 15.9503 134.706C15.9503 134.706 13.0309 135.083 12.6402 136.013C12.2571 136.942 16.9122 138.733 23.3133 137.416C23.3133 137.416 26.2098 140.041 28.0317 140.896L29.1467 137.311Z" fill="white"/>
<path fill-rule="evenodd" clip-rule="evenodd" d="M29.5046 137.417C29.5503 137.274 29.503 137.125 29.3913 137.021C29.3913 137.021 24.4355 132.649 22.1652 126.971C21.6986 125.819 20.7164 124.956 19.5105 124.65C16.964 124.006 12.3002 122.903 8.88949 122.532C7.37538 122.368 6.0947 122.363 5.33199 122.578C4.71149 122.755 4.36603 123.047 4.21604 123.365C4.06097 123.706 4.10729 124.125 4.38889 124.579C4.79058 125.213 5.7001 125.976 6.96503 126.747C8.27143 127.543 9.97302 128.357 11.8254 129.07C11.1796 129.087 10.4829 129.134 9.84724 129.242C8.96099 129.387 8.19664 129.656 7.79438 130.063C7.29474 130.566 7.37554 131.228 8.0599 131.908C9.03865 132.879 11.4045 133.982 14.1591 134.696C13.8823 134.772 13.6149 134.864 13.3651 134.976C12.8352 135.204 12.4304 135.519 12.2838 135.867C12.1922 136.085 12.2124 136.337 12.3951 136.595C12.5592 136.823 12.8959 137.079 13.3918 137.31C15.0427 138.083 18.6895 138.706 23.1869 137.815C23.8019 138.356 26.2408 140.469 27.8596 141.231C27.9569 141.274 28.0728 141.277 28.1685 141.236C28.2642 141.194 28.3395 141.109 28.3743 141.005L29.5046 137.417ZM28.719 137.427L27.8092 140.358C26.0188 139.368 23.5663 137.133 23.5663 137.133C23.48 137.05 23.3531 137.018 23.2405 137.046C18.86 137.947 15.3191 137.374 13.7257 136.633C13.4253 136.496 13.2011 136.351 13.0699 136.212C13.0437 136.184 13.0166 136.148 12.9988 136.127C13.1081 135.93 13.3706 135.793 13.6804 135.666C14.6219 135.254 15.9982 135.078 15.9982 135.078C16.181 135.058 16.3182 134.904 16.3208 134.719C16.3235 134.533 16.1898 134.371 16.0087 134.337C12.742 133.734 9.71265 132.488 8.60279 131.377C8.44714 131.225 8.33045 131.076 8.27635 130.935C8.22395 130.81 8.23408 130.693 8.33908 130.597C8.65835 130.276 9.27975 130.107 9.99163 129.99C11.8014 129.69 14.166 129.875 14.166 129.875C14.353 129.893 14.5234 129.759 14.5641 129.569C14.6048 129.38 14.4923 129.199 14.301 129.143C10.5462 127.962 7.06768 126.211 5.57034 124.803C5.30302 124.548 5.10003 124.316 4.98251 124.089C4.90472 123.944 4.86752 123.817 4.90906 123.704C4.9811 123.519 5.20802 123.409 5.55171 123.309C6.25432 123.108 7.42998 123.14 8.81883 123.288C12.1974 123.647 16.8214 124.739 19.3374 125.386C20.3131 125.633 21.1 126.333 21.4804 127.262C23.541 132.44 27.791 136.566 28.719 137.427Z" fill="#171718"/>
<path fill-rule="evenodd" clip-rule="evenodd" d="M14.1034 129.859L15.7849 130.213C15.9897 130.252 16.1837 130.123 16.2312 129.925C16.2702 129.72 16.1408 129.526 15.9351 129.479L14.2536 129.126C14.0488 129.086 13.8548 129.216 13.8073 129.414C13.7759 129.618 13.9062 129.819 14.1034 129.859Z" fill="#171718"/>
<path fill-rule="evenodd" clip-rule="evenodd" d="M15.5576 135.135L17.9733 135.292C18.1832 135.307 18.3584 135.149 18.3737 134.939C18.3891 134.729 18.2309 134.554 18.021 134.539L15.6131 134.381C15.4032 134.365 15.228 134.524 15.2126 134.733C15.1964 134.936 15.3554 135.119 15.5576 135.135Z" fill="#171718"/>
<path fill-rule="evenodd" clip-rule="evenodd" d="M159.801 116.703C160.008 116.956 161.893 114.442 162.966 112.265C163.265 111.637 163.825 111.161 164.491 110.978C166.898 110.295 172.554 108.709 174.279 108.364C176.486 107.927 174.8 111.759 171.52 112.932C171.52 112.932 173.727 112.648 173.888 113.583C174.057 114.518 170.378 115.584 170.163 115.638C169.948 115.684 172.669 115.615 172.731 116.603C172.792 117.592 167.542 118.979 163.472 117.768L160.437 119.761L159.801 116.703Z" fill="white"/>
<path fill-rule="evenodd" clip-rule="evenodd" d="M159.777 116.327C159.731 116.327 159.685 116.343 159.639 116.366C159.478 116.442 159.394 116.611 159.424 116.779L160.06 119.838C160.083 119.96 160.168 120.06 160.283 120.106C160.398 120.152 160.528 120.144 160.628 120.075L163.525 118.174C166.422 118.987 169.855 118.55 171.649 117.875C172.27 117.646 172.707 117.37 172.906 117.117C173.044 116.94 173.105 116.757 173.09 116.58C173.067 116.182 172.791 115.875 172.354 115.668C172.193 115.599 172.001 115.538 171.802 115.484C172.346 115.277 172.936 115.024 173.381 114.748C173.703 114.549 173.948 114.342 174.094 114.135C174.232 113.928 174.285 113.721 174.247 113.514C174.178 113.101 173.856 112.817 173.419 112.671C173.297 112.633 173.167 112.602 173.044 112.579C173.841 112.058 174.485 111.399 174.937 110.771C175.427 110.073 175.673 109.391 175.65 108.916C175.634 108.556 175.481 108.28 175.213 108.111C174.991 107.973 174.653 107.904 174.201 107.996C172.469 108.341 166.797 109.928 164.383 110.617C163.609 110.832 162.965 111.376 162.62 112.104C161.954 113.453 160.98 114.925 160.298 115.775C160.099 116.013 159.861 116.235 159.777 116.327ZM172.354 116.603C172.331 116.626 172.262 116.71 172.193 116.764C172.009 116.902 171.733 117.04 171.396 117.17C169.672 117.822 166.345 118.236 163.578 117.408C163.471 117.377 163.356 117.393 163.264 117.454L160.689 119.148L160.229 116.933C160.275 116.902 160.321 116.864 160.367 116.826C161.003 116.228 162.421 114.22 163.302 112.434C163.31 112.434 163.31 112.434 163.31 112.426C163.555 111.897 164.03 111.499 164.598 111.338C166.997 110.656 172.63 109.077 174.355 108.732C174.492 108.709 174.6 108.694 174.692 108.709C174.768 108.717 174.83 108.74 174.86 108.778C174.96 108.901 174.922 109.1 174.853 109.337C174.546 110.387 173.228 111.92 171.396 112.579C171.22 112.641 171.112 112.832 171.158 113.016C171.204 113.2 171.381 113.323 171.572 113.3C171.572 113.3 172.3 113.2 172.921 113.315C173.097 113.346 173.259 113.392 173.389 113.468C173.45 113.514 173.511 113.56 173.527 113.645C173.534 113.691 173.488 113.721 173.45 113.76C173.35 113.875 173.19 113.99 173.006 114.105C172.009 114.718 170.231 115.231 170.085 115.262C169.94 115.293 169.879 115.369 169.863 115.4C169.771 115.507 169.764 115.622 169.794 115.729C169.81 115.768 169.871 115.982 170.147 116.013C170.315 116.028 171.143 116.044 171.787 116.243C171.963 116.297 172.132 116.358 172.247 116.458C172.293 116.504 172.339 116.542 172.354 116.603Z" fill="#171718"/>
<path fill-rule="evenodd" clip-rule="evenodd" d="M171.438 112.564L168.771 113.147C168.571 113.193 168.441 113.392 168.479 113.591C168.525 113.79 168.732 113.921 168.924 113.875L171.591 113.292C171.79 113.246 171.921 113.047 171.875 112.848C171.844 112.648 171.637 112.518 171.438 112.564Z" fill="#171718"/>
<path fill-rule="evenodd" clip-rule="evenodd" d="M170.125 115.262L167.872 115.638C167.665 115.668 167.527 115.867 167.565 116.067C167.596 116.274 167.787 116.412 167.994 116.373L170.248 115.998C170.454 115.967 170.592 115.768 170.554 115.569C170.516 115.362 170.324 115.224 170.125 115.262Z" fill="#171718"/>
<path fill-rule="evenodd" clip-rule="evenodd" d="M147.653 118.772C147.653 118.772 144.717 117.477 143.192 116.005C143.192 116.005 132.324 115.316 131.036 115.622C129.749 115.929 130.829 118.266 134.301 118.673C134.301 118.673 132.224 119.201 132.623 120.305C133.014 121.409 137.497 121.562 137.497 121.562C137.497 121.562 135.459 122.359 135.344 123.394C135.229 124.429 140.885 124.061 144.909 121.899C146.327 122.183 147.369 122.198 148.174 122.037L147.653 118.772Z" fill="white"/>
<path fill-rule="evenodd" clip-rule="evenodd" d="M148.023 118.719C148 118.596 147.923 118.489 147.808 118.435C147.808 118.435 144.942 117.178 143.455 115.737C143.394 115.676 143.309 115.638 143.217 115.63C143.217 115.63 132.25 114.948 130.954 115.254C130.655 115.323 130.441 115.477 130.31 115.668C130.172 115.86 130.119 116.105 130.142 116.381C130.196 116.772 130.441 117.262 130.931 117.707C131.407 118.136 132.104 118.542 133.031 118.803C132.955 118.849 132.878 118.903 132.809 118.956C132.334 119.316 132.043 119.822 132.257 120.428C132.326 120.627 132.472 120.811 132.702 120.964C132.955 121.141 133.315 121.294 133.737 121.416C134.48 121.631 135.407 121.761 136.151 121.838C136.074 121.892 135.997 121.938 135.928 121.999C135.43 122.367 135.024 122.842 134.97 123.356C134.932 123.7 135.185 124.061 135.814 124.214C137.362 124.59 141.661 124.03 144.965 122.298C146.375 122.566 147.433 122.574 148.237 122.413C148.437 122.375 148.567 122.183 148.536 121.984L148.023 118.719ZM147.318 119.033L147.755 121.731C147.042 121.815 146.145 121.769 144.988 121.531C144.903 121.516 144.812 121.531 144.735 121.57C141.983 123.049 138.45 123.67 136.626 123.562C136.335 123.547 136.097 123.509 135.913 123.455C135.852 123.432 135.775 123.402 135.737 123.379C135.798 123.08 136.089 122.827 136.388 122.604C136.956 122.183 137.638 121.915 137.638 121.915C137.806 121.853 137.898 121.677 137.875 121.501C137.845 121.325 137.699 121.194 137.515 121.187C137.515 121.187 135.377 121.118 133.959 120.704C133.675 120.619 133.438 120.527 133.246 120.42C133.116 120.343 133.016 120.282 132.985 120.183C132.886 119.914 133.077 119.715 133.277 119.554C133.737 119.209 134.403 119.041 134.403 119.041C134.58 118.995 134.695 118.834 134.687 118.65C134.672 118.466 134.541 118.32 134.357 118.305C132.457 118.082 131.322 117.27 130.985 116.557C130.908 116.381 130.87 116.228 130.939 116.113C130.977 116.051 131.046 116.013 131.138 115.998C132.334 115.722 141.807 116.304 143.049 116.381C144.382 117.615 146.651 118.726 147.318 119.033Z" fill="#171718"/>
<path fill-rule="evenodd" clip-rule="evenodd" d="M134.286 119.048L136.44 119.148C136.654 119.155 136.823 118.994 136.839 118.795C136.846 118.588 136.685 118.412 136.478 118.404L134.317 118.305C134.11 118.297 133.941 118.458 133.926 118.665C133.918 118.857 134.072 119.033 134.286 119.048Z" fill="#171718"/>
<path fill-rule="evenodd" clip-rule="evenodd" d="M137.497 121.938L139.351 121.93C139.558 121.93 139.719 121.761 139.719 121.554C139.719 121.347 139.551 121.179 139.344 121.179L137.489 121.187C137.282 121.187 137.121 121.355 137.121 121.562C137.121 121.769 137.29 121.938 137.497 121.938Z" fill="#171718"/>
<path fill-rule="evenodd" clip-rule="evenodd" d="M35.237 95.3255C35.237 95.3255 33.8651 92.5586 34.1947 88.3815C34.233 87.9446 34.1334 87.5154 33.9264 87.1322C33.2673 85.9366 31.8187 83.0241 31.0523 79.3682C30.0406 74.5473 26.2007 79.1919 28.3084 86.0975C28.3084 86.0975 26.3845 82.4646 24.798 82.9858C23.2115 83.4993 25.6872 87.8527 26.7295 89.5082C26.7295 89.5082 24.2616 87.2242 23.043 87.6841C21.8243 88.1439 24.3383 93.486 30.9373 95.2565C30.9373 95.2565 32.5622 97.4945 34.2713 98.123L35.237 95.3255Z" fill="white"/>
<path fill-rule="evenodd" clip-rule="evenodd" d="M35.581 95.4481C35.6116 95.3561 35.6039 95.2488 35.5579 95.1569C35.5579 95.1569 34.232 92.4667 34.5615 88.4122C34.5999 87.9064 34.4926 87.4005 34.2397 86.956C33.5959 85.7757 32.1626 82.9015 31.4039 79.2916C31.1203 77.9503 30.5914 77.2758 30.0779 77.0842C29.664 76.931 29.2119 77.0229 28.7903 77.3831C28.2998 77.8046 27.84 78.6324 27.564 79.7668C27.2805 80.9394 27.1961 82.4416 27.4643 84.1661C27.1654 83.7905 26.8282 83.4227 26.4756 83.1391C25.8931 82.6716 25.257 82.4416 24.6668 82.6332C24.0307 82.8402 23.7931 83.4763 23.9387 84.3731C24.1073 85.4077 24.7665 86.8333 25.418 88.0366C25.1268 87.845 24.8201 87.6687 24.5135 87.5384C23.9234 87.2702 23.341 87.1706 22.8888 87.3392C22.6282 87.4388 22.4441 87.6534 22.3751 87.9753C22.3138 88.2972 22.3675 88.7724 22.5898 89.3319C23.3486 91.2174 25.9927 94.2908 30.691 95.5861C31.0589 96.0536 32.5535 97.9007 34.1247 98.4755C34.2167 98.5139 34.3239 98.5062 34.4159 98.4602C34.5079 98.4142 34.5768 98.3376 34.6075 98.2456L35.581 95.4481ZM34.8298 95.3485L34.0405 97.6248C32.5536 96.8814 31.2275 95.0419 31.2275 95.0419C31.1739 94.9729 31.105 94.9193 31.0206 94.8963C26.5523 93.7006 24.0153 90.8341 23.2949 89.0483C23.1569 88.7188 23.0956 88.4275 23.1109 88.2129C23.1109 88.1669 23.1186 88.1286 23.134 88.0903C23.1416 88.0673 23.1493 88.0443 23.1646 88.029C23.3409 87.96 23.5555 87.9906 23.7854 88.052C24.069 88.1286 24.3756 88.2742 24.6668 88.4428C25.6096 88.9793 26.4603 89.7765 26.4603 89.7765C26.5983 89.9067 26.8129 89.9144 26.9509 89.7918C27.0965 89.6692 27.1272 89.4622 27.0275 89.3012C26.514 88.4888 25.6556 87.0096 25.1114 85.676C24.8585 85.0399 24.6668 84.442 24.6438 83.9669C24.6285 83.6603 24.6668 83.415 24.8968 83.3384C25.119 83.2617 25.349 83.323 25.5789 83.438C25.8702 83.5836 26.1614 83.8289 26.4296 84.1124C27.2957 85.0092 27.9625 86.2662 27.9625 86.2662C28.0545 86.4348 28.2537 86.5114 28.4377 86.4348C28.6139 86.3582 28.706 86.1666 28.6523 85.9749C27.9165 83.5683 27.9165 81.4453 28.2844 79.9277C28.5066 78.985 28.8669 78.2875 29.2731 77.935C29.4111 77.8123 29.5567 77.7433 29.6946 77.7433C29.8326 77.751 29.9629 77.8353 30.0855 77.9733C30.3308 78.2569 30.5301 78.7321 30.6758 79.4219C31.4499 83.1238 32.9215 86.0822 33.5806 87.2932C33.5806 87.2932 33.5806 87.2932 33.5882 87.2932C33.7645 87.6074 33.8412 87.9676 33.8105 88.3279C33.5193 92.0757 34.5462 94.7123 34.8298 95.3485Z" fill="#171718"/>
<path fill-rule="evenodd" clip-rule="evenodd" d="M26.4234 89.7228L27.3891 91.0718C27.5118 91.2404 27.7494 91.2787 27.9104 91.1561C28.0713 91.0334 28.1172 90.8035 28.0023 90.6349L27.029 89.2859C26.914 89.1173 26.6763 89.079 26.5077 89.2016C26.3391 89.3243 26.3008 89.5542 26.4234 89.7228Z" fill="#171718"/>
<path fill-rule="evenodd" clip-rule="evenodd" d="M27.9528 86.2432L28.635 87.8987C28.7116 88.0903 28.9337 88.1823 29.1254 88.1056C29.317 88.029 29.409 87.8067 29.3324 87.6151L28.6502 85.9596C28.5659 85.768 28.3513 85.676 28.1597 85.7526C27.9681 85.837 27.8761 86.0516 27.9528 86.2432Z" fill="#171718"/>
<path fill-rule="evenodd" clip-rule="evenodd" d="M45.7505 100.928C45.7505 100.928 49.4371 100.89 53.7674 98.3759C53.7674 98.3759 58.7954 98.9431 62.5203 98.123C66.2528 97.3029 67.1188 101.695 58.3661 103.128C58.3661 103.128 62.2903 103.511 62.1064 105.029C61.9224 106.546 56.8716 106.378 54.5262 105.964C54.5262 105.964 58.7647 107.198 58.7954 108.516C58.8184 109.842 53.4149 109.972 48.3488 104.707C48.3488 104.707 45.7505 104.408 44.3633 103.787L45.7505 100.928Z" fill="white"/>
<path fill-rule="evenodd" clip-rule="evenodd" d="M45.7448 100.553C45.6068 100.553 45.4765 100.637 45.4152 100.76L44.0203 103.626C43.9743 103.718 43.9667 103.825 44.005 103.917C44.0357 104.009 44.1046 104.094 44.2043 104.132C45.4382 104.691 47.6072 104.998 48.1743 105.067C51.7919 108.792 55.5936 109.811 57.5327 109.65C58.1229 109.604 58.552 109.436 58.8126 109.229C59.0579 109.029 59.1728 108.784 59.1728 108.516C59.1651 108.286 59.0809 108.056 58.9199 107.834C58.736 107.573 58.437 107.313 58.0614 107.075C57.8162 106.914 57.5326 106.753 57.2414 106.615C58.5673 106.661 59.9469 106.6 60.9279 106.347C61.4338 106.217 61.8324 106.025 62.1006 105.787C62.3229 105.588 62.4532 105.351 62.4839 105.082C62.5605 104.484 62.1926 103.994 61.5794 103.634C61.2115 103.419 60.7517 103.25 60.2995 103.128C62.4685 102.584 63.8711 101.84 64.6682 101.097C65.4423 100.384 65.6876 99.6482 65.5803 99.0657C65.5037 98.6365 65.2507 98.2686 64.8291 98.0157C64.2926 97.6861 63.4649 97.5482 62.4608 97.7704C58.7819 98.5752 53.8231 98.0157 53.8231 98.0157C53.7388 98.008 53.6621 98.0233 53.5932 98.0617C49.3471 100.514 45.7448 100.553 45.7448 100.553ZM45.99 101.296C46.8714 101.242 50.1212 100.905 53.8538 98.7668C54.6585 98.8434 59.1728 99.2497 62.6065 98.4909C64.0934 98.1613 65.1051 98.7209 64.7756 99.6559C64.6299 100.07 64.2543 100.514 63.6181 100.951C62.5681 101.672 60.859 102.338 58.3068 102.76C58.1228 102.791 57.9849 102.952 57.9926 103.143C58.0002 103.335 58.1381 103.488 58.3297 103.503C58.3297 103.503 59.6863 103.634 60.7287 104.055C61.0506 104.186 61.3342 104.331 61.5258 104.523C61.6638 104.653 61.7557 104.806 61.7403 104.99C61.7173 105.121 61.633 105.213 61.5104 105.305C61.3188 105.442 61.0506 105.542 60.7363 105.626C59.0808 106.063 56.1914 105.887 54.5972 105.603C54.3979 105.565 54.2063 105.695 54.1604 105.887C54.1144 106.079 54.2292 106.278 54.4208 106.332C54.4208 106.332 56.4367 106.914 57.6553 107.704C57.8929 107.857 58.0998 108.018 58.2454 108.186C58.345 108.301 58.4217 108.416 58.4217 108.531C58.4217 108.608 58.3604 108.654 58.2684 108.7C58.0922 108.807 57.8162 108.876 57.479 108.907C55.6395 109.06 52.0525 108.025 48.6342 104.454C48.5729 104.392 48.4962 104.354 48.4043 104.339C48.4043 104.339 46.2737 104.101 44.8864 103.595L45.99 101.296Z" fill="#171718"/>
<path fill-rule="evenodd" clip-rule="evenodd" d="M54.6039 105.603L52.8718 105.22C52.6649 105.174 52.4655 105.305 52.4272 105.504C52.3812 105.703 52.5116 105.902 52.7185 105.948L54.4506 106.332C54.6499 106.378 54.8569 106.247 54.8952 106.048C54.9335 105.849 54.8109 105.649 54.6039 105.603Z" fill="#171718"/>
<path fill-rule="evenodd" clip-rule="evenodd" d="M58.3807 102.752L56.3956 102.63C56.1887 102.614 56.0124 102.775 55.9971 102.982C55.9818 103.189 56.1427 103.365 56.3496 103.381L58.3347 103.503C58.5417 103.519 58.7179 103.358 58.7332 103.151C58.7486 102.944 58.5953 102.768 58.3807 102.752Z" fill="#171718"/>
<path fill-rule="evenodd" clip-rule="evenodd" d="M110.606 103.794C110.606 103.794 111.541 100.522 109.479 99.2416C109.479 99.2492 107.655 102.246 110.606 103.794Z" fill="white"/>
<path fill-rule="evenodd" clip-rule="evenodd" d="M110.43 104.131C110.53 104.185 110.652 104.193 110.759 104.147C110.859 104.101 110.936 104.016 110.974 103.909C110.974 103.909 111.334 102.652 111.15 101.357C111.02 100.445 110.621 99.5175 109.694 98.935C109.602 98.8813 109.502 98.8659 109.403 98.8889C109.303 98.9119 109.227 98.9733 109.173 99.0576C109.165 99.0499 107.134 102.399 110.43 104.131ZM110.345 103.204C108.843 102.131 109.295 100.537 109.61 99.8164C110.093 100.261 110.307 100.866 110.392 101.457C110.491 102.123 110.422 102.775 110.345 103.204Z" fill="#171718"/>
<path fill-rule="evenodd" clip-rule="evenodd" d="M110.855 103.716C110.855 103.716 112.657 101.073 115.042 101.857C115.036 101.849 114.06 105.369 110.855 103.716Z" fill="white"/>
<path fill-rule="evenodd" clip-rule="evenodd" d="M110.542 103.502C110.478 103.592 110.454 103.696 110.481 103.801C110.515 103.907 110.58 103.996 110.68 104.041C111.764 104.599 112.624 104.619 113.292 104.393C114.848 103.869 115.401 101.95 115.401 101.95C115.452 101.757 115.348 101.553 115.156 101.495C114.089 101.147 113.122 101.398 112.355 101.845C111.234 102.482 110.542 103.502 110.542 103.502ZM111.444 103.571C111.708 103.268 112.159 102.821 112.721 102.492C113.234 102.199 113.861 102.003 114.548 102.118C114.343 102.596 113.892 103.409 113.05 103.687C112.618 103.835 112.087 103.823 111.444 103.571Z" fill="#171718"/>
<path fill-rule="evenodd" clip-rule="evenodd" d="M103.808 105.059C103.808 105.059 102.137 103.35 103.785 101.664C104.797 100.637 107.065 101.327 107.364 102.591C107.364 102.591 114.224 102.875 111.396 111.497C111.396 111.497 113.067 110.976 113.718 112.256C114.285 113.375 113.419 114.701 113.419 114.701C113.419 114.701 116.048 114.548 116.585 116.533C117.144 118.61 115.174 120.174 113.036 120.296L105.448 117.169L103.808 105.059Z" fill="#171718"/>
<path fill-rule="evenodd" clip-rule="evenodd" d="M103.45 105.22C103.618 106.439 105.075 117.215 105.075 117.215C105.09 117.345 105.174 117.46 105.297 117.514L112.892 120.641C112.946 120.664 113 120.672 113.061 120.672C115.437 120.534 117.568 118.748 116.947 116.433C116.64 115.291 115.736 114.747 114.9 114.509C114.579 114.418 114.264 114.372 114.011 114.341C114.096 114.149 114.172 113.919 114.226 113.666C114.326 113.176 114.326 112.609 114.05 112.08C113.651 111.298 112.954 111.053 112.341 111.014C112.203 111.007 112.065 111.007 111.934 111.014C112.885 107.742 112.409 105.695 111.505 104.408C110.317 102.714 108.347 102.315 107.642 102.231C107.374 101.603 106.707 101.112 105.948 100.897C105.082 100.66 104.124 100.783 103.519 101.396C101.871 103.089 103.097 104.799 103.45 105.22ZM104.178 105.013C104.163 104.937 104.132 104.86 104.078 104.799C104.078 104.799 102.66 103.358 104.055 101.925C104.469 101.503 105.151 101.465 105.742 101.626C106.339 101.787 106.876 102.162 106.991 102.668C107.029 102.837 107.175 102.952 107.343 102.959C107.343 102.959 109.627 103.051 110.892 104.845C111.758 106.079 112.118 108.094 111.038 111.375C110.992 111.505 111.03 111.651 111.129 111.758C111.229 111.858 111.382 111.896 111.505 111.85C111.505 111.85 111.865 111.743 112.295 111.766C112.678 111.789 113.138 111.927 113.383 112.417C113.567 112.785 113.559 113.176 113.483 113.521C113.368 114.073 113.099 114.494 113.099 114.494C113.015 114.609 113.015 114.762 113.084 114.885C113.153 115.008 113.291 115.077 113.429 115.069C113.429 115.069 114.027 115.038 114.686 115.23C115.299 115.406 115.981 115.789 116.211 116.633C116.702 118.449 114.962 119.775 113.084 119.921L105.772 116.908L104.178 105.013Z" fill="#171718"/>
<path fill-rule="evenodd" clip-rule="evenodd" d="M37.8371 56.5489H26.0677C25.079 56.5489 24.1342 56.9443 23.4311 57.6401C22.7353 58.3359 22.3398 59.288 22.3398 60.2767C22.3398 61.2654 22.7353 62.2102 23.4311 62.9133C24.1269 63.609 25.079 64.0045 26.0677 64.0045C34.3802 64.0045 46.6037 64.0045 54.909 64.0045C55.8977 64.0045 56.8425 63.609 57.5455 62.9133C58.2413 62.2175 58.6368 61.2654 58.6368 60.2767C58.6368 59.288 58.2413 58.3432 57.5455 57.6401C56.8498 56.9443 55.8977 56.5489 54.909 56.5489H50.8882C50.9468 56.4976 51.0054 56.4463 51.0566 56.3877C51.7524 55.692 52.1479 54.7399 52.1479 53.7512C52.1479 52.7624 51.7524 51.8177 51.0566 51.1146C50.3609 50.4188 49.4088 50.0233 48.42 50.0233C45.9666 50.0233 42.7587 50.0233 40.2979 50.0233C39.3092 50.0233 38.3644 50.4188 37.6613 51.1146C36.9656 51.8103 36.5701 52.7624 36.5701 53.7512C36.5701 54.7399 36.9656 55.6846 37.6613 56.3877C37.7199 56.439 37.7785 56.4976 37.8371 56.5489Z" fill="white"/>
<path fill-rule="evenodd" clip-rule="evenodd" d="M36.9899 56.1753H26.0701C24.9862 56.1753 23.9389 56.6074 23.1699 57.3764C22.4009 58.1454 21.9688 59.1854 21.9688 60.2767C21.9688 61.3606 22.4009 62.4079 23.1699 63.1769C23.9389 63.9459 24.9788 64.378 26.0701 64.378C34.3827 64.378 46.6061 64.378 54.9114 64.378C55.9953 64.378 57.0426 63.9459 57.8116 63.1769C58.5806 62.4079 59.0127 61.3679 59.0127 60.2767C59.0127 59.1927 58.5806 58.1454 57.8116 57.3764C57.0426 56.6074 56.0026 56.1753 54.9114 56.1753H51.7328C52.2455 55.4796 52.5238 54.63 52.5238 53.7585C52.5238 52.6745 52.0917 51.6272 51.3227 50.8582C50.5537 50.0892 49.5137 49.6571 48.4225 49.6571C45.969 49.6571 42.7611 49.6571 40.3003 49.6571C39.2164 49.6571 38.1691 50.0892 37.4001 50.8582C36.6311 51.6272 36.199 52.6672 36.199 53.7585C36.2063 54.63 36.4846 55.4722 36.9899 56.1753ZM37.8395 56.9224C37.9933 56.9224 38.1325 56.8271 38.1911 56.6807C38.2496 56.5342 38.2057 56.3731 38.0885 56.2632C38.0373 56.2193 37.986 56.168 37.9347 56.1167C37.3049 55.4869 36.9533 54.6373 36.9533 53.7511C36.9533 52.8649 37.3049 52.0081 37.9347 51.3855C38.5646 50.7557 39.4141 50.4041 40.3003 50.4041C42.7538 50.4041 45.9617 50.4041 48.4225 50.4041C49.3086 50.4041 50.1655 50.7557 50.7881 51.3855C51.4179 52.0154 51.7695 52.8649 51.7695 53.7511C51.7695 54.6373 51.4179 55.4942 50.7881 56.1167C50.7368 56.168 50.6855 56.2119 50.6343 56.2632C50.5171 56.3657 50.4731 56.5342 50.5317 56.6807C50.5903 56.8271 50.7295 56.9224 50.8833 56.9224H54.9041C55.7902 56.9224 56.6471 57.2739 57.2697 57.9037C57.8995 58.5336 58.2511 59.3832 58.2511 60.2694C58.2511 61.1555 57.8995 62.0124 57.2697 62.6349C56.6398 63.2648 55.7902 63.6163 54.9041 63.6163C46.5915 63.6163 34.368 63.6163 26.0628 63.6163C25.1766 63.6163 24.3197 63.2648 23.6972 62.6349C23.0673 62.0051 22.7158 61.1555 22.7158 60.2694C22.7158 59.3832 23.0673 58.5263 23.6972 57.9037C24.327 57.2739 25.1766 56.9224 26.0628 56.9224H37.8395Z" fill="#171718"/>
<path fill-rule="evenodd" clip-rule="evenodd" d="M132.036 74.4162H118.968C117.871 74.4162 116.823 74.855 116.043 75.6271C115.271 76.3991 114.832 77.4556 114.832 78.5527C114.832 79.6497 115.271 80.6981 116.043 81.4782C116.815 82.2503 117.871 82.6891 118.968 82.6891C128.192 82.6891 150.354 82.6891 159.569 82.6891C160.666 82.6891 161.715 82.2503 162.495 81.4782C163.267 80.7062 163.706 79.6497 163.706 78.5527C163.706 77.4556 163.267 76.4072 162.495 75.6271C161.723 74.855 160.666 74.4162 159.569 74.4162H146.51C146.575 74.3593 146.64 74.3024 146.697 74.2374C147.469 73.4654 147.907 72.4089 147.907 71.3118C147.907 70.2147 147.469 69.1664 146.697 68.3862C145.925 67.6142 144.868 67.1754 143.771 67.1754C141.049 67.1754 137.489 67.1754 134.759 67.1754C133.661 67.1754 132.613 67.6142 131.833 68.3862C131.061 69.1583 130.622 70.2147 130.622 71.3118C130.622 72.4089 131.061 73.4572 131.833 74.2374C131.906 74.3024 131.971 74.3593 132.036 74.4162Z" fill="white"/>
<path fill-rule="evenodd" clip-rule="evenodd" d="M131.173 74.0423H118.967C117.772 74.0423 116.627 74.5137 115.781 75.367C114.936 76.2122 114.465 77.358 114.465 78.5526C114.465 79.7472 114.936 80.8931 115.781 81.7383C116.627 82.5835 117.772 83.0548 118.967 83.0548C128.191 83.0548 150.352 83.0548 159.568 83.0548C160.762 83.0548 161.908 82.5835 162.753 81.7383C163.599 80.8931 164.078 79.7472 164.078 78.5526C164.078 77.358 163.607 76.2122 162.753 75.367C161.908 74.5218 160.762 74.0423 159.568 74.0423H147.37C147.963 73.2622 148.288 72.3032 148.288 71.3118C148.288 70.1172 147.817 68.9713 146.963 68.1262C146.118 67.281 144.972 66.8015 143.778 66.8015C141.055 66.8015 137.496 66.8015 134.765 66.8015C133.571 66.8015 132.425 67.281 131.58 68.1262C130.734 68.9713 130.263 70.1172 130.263 71.3118C130.255 72.3114 130.588 73.2622 131.173 74.0423ZM132.035 74.7981C132.189 74.7981 132.327 74.7006 132.384 74.5543C132.441 74.4081 132.4 74.2455 132.278 74.1399C132.222 74.083 132.165 74.0342 132.108 73.9773C131.401 73.2703 131.011 72.3195 131.011 71.3199C131.011 70.3203 131.409 69.3695 132.108 68.6625C132.815 67.9555 133.766 67.5654 134.765 67.5654C137.488 67.5654 141.047 67.5654 143.778 67.5654C144.777 67.5654 145.728 67.9636 146.435 68.6625C147.142 69.3695 147.532 70.3203 147.532 71.3199C147.532 72.3195 147.134 73.2703 146.435 73.9773C146.378 74.0342 146.321 74.0911 146.264 74.1399C146.151 74.2455 146.11 74.4081 146.159 74.5543C146.216 74.7006 146.354 74.7981 146.508 74.7981H159.576C160.575 74.7981 161.526 75.1963 162.233 75.8952C162.94 76.6022 163.33 77.5531 163.33 78.5526C163.33 79.5522 162.932 80.503 162.233 81.2101C161.526 81.9171 160.575 82.3153 159.576 82.3153C150.352 82.3153 128.191 82.3153 118.975 82.3153C117.976 82.3153 117.025 81.9171 116.318 81.2101C115.611 80.503 115.221 79.5522 115.221 78.5526C115.221 77.5531 115.619 76.6022 116.318 75.8952C117.025 75.1882 117.976 74.7981 118.975 74.7981H132.035Z" fill="#171718"/>
<path fill-rule="evenodd" clip-rule="evenodd" d="M86.8716 71.7114C86.9482 73.4283 86.8639 75.2218 86.565 76.9693C86.5267 77.1762 86.6646 77.3677 86.8716 77.4061C87.0785 77.4444 87.2702 77.3064 87.3085 77.0995C87.6151 75.2984 87.6994 73.4513 87.6227 71.6808C87.6151 71.4739 87.4388 71.3129 87.2319 71.3206C87.0173 71.3282 86.8562 71.5045 86.8716 71.7114Z" fill="#171718"/>
<path fill-rule="evenodd" clip-rule="evenodd" d="M80.8007 86.4155C79.6128 87.7875 78.4631 89.19 77.5741 90.7842C75.8802 93.7964 75.4357 97.4217 75.6656 100.832C75.6809 101.039 75.8573 101.193 76.0719 101.177C76.2788 101.162 76.4321 100.986 76.4168 100.779C76.1945 97.506 76.616 94.034 78.2332 91.1445C79.0992 89.5963 80.2182 88.2397 81.3756 86.9061C81.5135 86.7528 81.4905 86.5152 81.3372 86.3772C81.1686 86.2393 80.931 86.2622 80.8007 86.4155Z" fill="#171718"/>
<path fill-rule="evenodd" clip-rule="evenodd" d="M78.4645 54.5968C77.5064 53.0256 76.2494 51.6537 74.7701 50.55C69.6427 46.7332 66.3164 40.617 66.3164 33.742C66.3164 22.1764 75.7053 12.7875 87.2709 12.7875C98.8288 12.7875 108.218 22.1764 108.218 33.742C108.218 40.6246 104.899 46.7332 99.7715 50.55C98.2923 51.6537 97.0429 53.0256 96.0772 54.5968C95.0042 56.352 93.8009 58.3217 93.8009 58.3217H80.7331C80.7331 58.314 79.5375 56.352 78.4645 54.5968Z" fill="white"/>
<path fill-rule="evenodd" clip-rule="evenodd" d="M78.1395 54.7885L80.4159 58.5134C80.4849 58.6283 80.6075 58.6897 80.7378 58.6897H93.8132C93.9435 58.6897 94.0662 58.6207 94.1352 58.5134C94.1352 58.5134 95.3385 56.5513 96.4115 54.7885C97.3465 53.2556 98.5729 51.922 100.006 50.849C105.233 46.9554 108.613 40.7396 108.613 33.7344C108.613 21.9619 99.0557 12.4044 87.2832 12.4044C75.5107 12.4044 65.9531 21.9619 65.9531 33.7344C65.9531 40.7396 69.3408 46.9554 74.5603 50.849C75.9782 51.922 77.1968 53.2556 78.1395 54.7885ZM78.7757 54.3976C77.7947 52.7881 76.4994 51.3778 74.9895 50.2435C69.954 46.488 66.689 40.4867 66.689 33.7344C66.689 22.3757 75.9093 13.1555 87.2679 13.1555C98.6266 13.1555 107.847 22.3757 107.847 33.7344C107.847 40.4944 104.582 46.4956 99.5463 50.2435C98.0287 51.3702 96.7411 52.7804 95.76 54.3976C94.8786 55.8385 93.913 57.4174 93.5911 57.9385H80.937L78.7757 54.3976Z" fill="#171718"/>
<path fill-rule="evenodd" clip-rule="evenodd" d="M83.1167 39.7356C83.1397 39.8276 83.1475 39.9272 83.1705 40.0192C84.1975 45.5222 83.2318 52.2285 82.9865 57.8236C82.9712 58.0305 83.1321 58.2068 83.3467 58.2145C83.5536 58.2221 83.7299 58.0612 83.7375 57.8542C83.9905 52.2056 84.9486 45.4302 83.9139 39.8812L83.8908 39.7816C85.2934 39.8046 86.7421 39.5747 87.9684 39.1608C88.5969 39.5287 89.3633 39.7433 90.1604 39.8199C90.6585 39.8659 91.1721 39.8659 91.678 39.8199C91.655 39.9885 91.6243 40.1571 91.609 40.3334C91.3024 43.2382 91.5859 46.189 91.5552 49.1015C91.5322 52.1902 91.2027 55.256 91.0877 58.3448C91.0801 58.5517 91.2411 58.728 91.4557 58.7356C91.6626 58.7433 91.8312 58.5823 91.8465 58.3754C91.9615 55.2867 92.291 52.2056 92.314 49.1168C92.337 46.2273 92.0534 43.2996 92.36 40.4254C92.383 40.1955 92.4214 39.9579 92.4597 39.7279C93.2108 39.59 93.9159 39.36 94.4984 39.0765C95.0655 38.8005 95.8856 38.0111 96.1539 37.2217C96.3685 36.6008 96.2766 35.98 95.6328 35.5355C95.2725 35.2902 94.9276 35.2059 94.6057 35.2366C94.1458 35.2749 93.7166 35.5355 93.3411 35.9417C92.5287 36.8231 91.9692 38.3867 91.8313 39.0611L91.8235 39.0688C91.3023 39.1301 90.7658 39.1455 90.2523 39.0918C89.7847 39.0458 89.3327 38.9538 88.9188 38.7929C89.187 38.6549 89.417 38.4633 89.5703 38.1951C89.9382 37.5436 89.9075 37.0071 89.6929 36.6085C89.3786 36.026 88.6198 35.6965 87.93 35.7348C87.4012 35.7654 86.926 36.003 86.6961 36.4169C86.5122 36.7541 86.4585 37.2293 86.7344 37.8425C86.8571 38.1261 87.0486 38.3867 87.2632 38.6089C86.1671 38.9232 84.9409 39.0841 83.753 39.0381C83.4464 37.7429 82.9405 36.3556 81.8752 35.5738C81.423 35.2442 80.7025 35.068 80.074 35.1599C79.3689 35.2596 78.7864 35.6658 78.6714 36.4476C78.5794 37.0377 78.7711 37.5589 79.116 37.9958C79.5682 38.5859 80.3193 39.0151 80.9478 39.2604C81.584 39.5057 82.335 39.6666 83.1167 39.7356ZM82.9482 38.9692C82.6876 37.9038 82.2738 36.8001 81.4077 36.164C81.0934 35.9341 80.5876 35.8191 80.1507 35.8881C79.7828 35.9417 79.4456 36.1257 79.3842 36.5472C79.3153 37.0224 79.5451 37.421 79.867 37.7429C80.2426 38.1108 80.7485 38.379 81.1854 38.5553C81.7219 38.7546 82.3274 38.8925 82.9482 38.9692ZM92.6053 38.9078C93.1725 38.7852 93.7013 38.6013 94.1458 38.379C94.5827 38.1644 95.2111 37.5589 95.4257 36.9611C95.5254 36.6545 95.5024 36.3479 95.1805 36.1333C94.6824 35.7884 94.2379 36.026 93.8623 36.4246C93.2415 37.099 92.7969 38.2257 92.6053 38.9078ZM88.0603 38.3177C88.1676 38.2794 88.275 38.2334 88.3823 38.1874C88.5816 38.1031 88.7884 38.0034 88.8957 37.8042C89.072 37.4976 89.118 37.237 89.0414 37.0224C88.9341 36.7082 88.5968 36.5396 88.2595 36.4782C87.8916 36.4169 87.4855 36.4706 87.3245 36.7542C87.2249 36.9304 87.2479 37.1834 87.3935 37.5129C87.5008 37.7659 87.6924 38.0034 87.907 38.1874C87.9606 38.241 88.0066 38.2794 88.0603 38.3177Z" fill="#171718"/>
<path d="M39.8089 106.99C43.5973 106.99 46.6685 103.919 46.6685 100.131C46.6685 96.342 43.5973 93.2709 39.8089 93.2709C36.0204 93.2709 32.9492 96.342 32.9492 100.131C32.9492 103.919 36.0204 106.99 39.8089 106.99Z" fill="white"/>
<path fill-rule="evenodd" clip-rule="evenodd" d="M39.8056 92.8953C35.8201 92.8953 32.5781 96.1374 32.5781 100.123C32.5781 104.108 35.8201 107.358 39.8056 107.358C43.7987 107.358 47.0408 104.116 47.0408 100.123C47.0408 96.1297 43.7987 92.8953 39.8056 92.8953ZM39.8056 93.6464C43.3925 93.6464 46.2896 96.5512 46.2896 100.13C46.2896 103.71 43.3925 106.615 39.8056 106.615C36.2263 106.615 33.3291 103.71 33.3291 100.13C33.3291 96.5512 36.234 93.6464 39.8056 93.6464Z" fill="#171718"/>
<path d="M152.566 126.336C148.901 125.377 146.706 121.63 147.664 117.964C148.622 114.299 152.37 112.104 156.035 113.062C159.701 114.02 161.895 117.768 160.937 121.434C159.979 125.099 156.231 127.294 152.566 126.336Z" fill="white"/>
<path fill-rule="evenodd" clip-rule="evenodd" d="M156.133 112.699C152.269 111.689 148.313 114.006 147.305 117.862C146.297 121.718 148.612 125.682 152.475 126.692C156.331 127.699 160.287 125.383 161.297 121.519C162.307 117.656 159.988 113.707 156.133 112.699ZM155.943 113.426C159.405 114.331 161.474 117.874 160.569 121.337C159.664 124.8 156.126 126.877 152.663 125.972C149.193 125.065 147.124 121.522 148.03 118.059C148.935 114.596 152.48 112.521 155.943 113.426Z" fill="#171718"/>
<path fill-rule="evenodd" clip-rule="evenodd" d="M43.0348 97.9733C42.3603 97.1081 41.2472 96.2306 40.0949 96.28C39.3684 96.3131 38.6769 96.6203 38.4791 97.4051C38.2861 98.1735 38.6991 98.9311 39.2648 99.4188C39.6359 99.7399 40.1718 100.108 40.609 100.534C40.9707 100.888 41.2701 101.285 41.2421 101.766C41.2292 102.033 41.0489 102.238 40.8348 102.386C40.5721 102.568 40.2502 102.682 39.9774 102.724C38.7283 102.924 37.723 102.081 37.1063 101.065C37.0036 100.889 36.7669 100.832 36.591 100.934C36.409 101.046 36.3576 101.274 36.4603 101.45C37.2265 102.727 38.532 103.717 40.0991 103.466C40.5526 103.39 41.106 103.178 41.4854 102.827C41.7718 102.564 41.966 102.224 41.9915 101.814C42.0268 101.246 41.7861 100.745 41.4152 100.299C40.9364 99.7332 40.2246 99.2569 39.7614 98.8593C39.4067 98.543 39.0872 98.0799 39.2146 97.5887C39.323 97.1633 39.7381 97.0476 40.1398 97.0278C41.0589 96.9825 41.9167 97.7436 42.4494 98.4323C42.5808 98.595 42.8119 98.6224 42.9761 98.4985C43.1327 98.376 43.1587 98.1374 43.0348 97.9733Z" fill="#171718"/>
<path fill-rule="evenodd" clip-rule="evenodd" d="M155.459 116.191C154.398 115.915 152.98 115.896 152.096 116.636C151.54 117.104 151.178 117.769 151.498 118.512C151.818 119.234 152.602 119.589 153.347 119.632C153.837 119.661 154.487 119.627 155.093 119.699C155.595 119.76 156.074 119.892 156.344 120.291C156.497 120.511 156.479 120.783 156.399 121.031C156.301 121.335 156.115 121.621 155.924 121.821C155.055 122.74 153.744 122.683 152.636 122.252C152.448 122.175 152.225 122.273 152.148 122.462C152.072 122.661 152.169 122.873 152.358 122.95C153.743 123.497 155.381 123.488 156.472 122.336C156.786 121.999 157.096 121.495 157.184 120.985C157.251 120.602 157.198 120.214 156.969 119.873C156.646 119.407 156.155 119.15 155.59 119.022C154.865 118.864 154.01 118.919 153.401 118.886C152.927 118.851 152.392 118.678 152.194 118.21C152.021 117.807 152.28 117.462 152.587 117.202C153.288 116.607 154.432 116.689 155.274 116.911C155.477 116.96 155.677 116.841 155.732 116.643C155.787 116.445 155.663 116.24 155.459 116.191Z" fill="#171718"/>
<path fill-rule="evenodd" clip-rule="evenodd" d="M41.4684 95.8521C40.3257 98.5261 39.093 101.224 37.668 103.776C37.5594 103.955 37.6332 104.184 37.8098 104.288C37.994 104.39 38.226 104.324 38.3179 104.141C39.7555 101.571 41.007 98.8471 42.1532 96.1497C42.2362 95.9601 42.1485 95.7414 41.9593 95.6552C41.7626 95.5703 41.5424 95.6566 41.4684 95.8521Z" fill="#171718"/>
<path fill-rule="evenodd" clip-rule="evenodd" d="M152.922 115.468C153.642 118.286 154.306 121.177 154.728 124.069C154.751 124.277 154.949 124.414 155.152 124.389C155.361 124.358 155.505 124.165 155.466 123.963C155.043 121.049 154.378 118.126 153.646 115.288C153.597 115.087 153.394 114.967 153.192 115.013C152.984 115.066 152.867 115.273 152.922 115.468Z" fill="#171718"/>
<path fill-rule="evenodd" clip-rule="evenodd" d="M103.808 105.059C103.808 105.059 103.057 111.206 103.256 114.831L108.522 116.824L110.2 110.547C110.2 110.547 111.925 110.999 112.132 109.528C112.285 108.462 110.997 107.711 110.17 108.47C110.17 108.47 107.855 108.317 107.694 106.355C107.694 106.355 105.065 106.347 103.808 105.059Z" fill="white"/>
<path fill-rule="evenodd" clip-rule="evenodd" d="M104.076 104.799C103.977 104.699 103.824 104.661 103.686 104.707C103.548 104.753 103.448 104.875 103.433 105.013C103.433 105.013 102.674 111.198 102.873 114.854C102.881 115 102.973 115.13 103.118 115.184L108.384 117.177C108.484 117.215 108.599 117.207 108.691 117.161C108.782 117.115 108.851 117.023 108.882 116.924L110.476 110.976C110.66 110.999 110.905 110.999 111.151 110.969C111.749 110.877 112.377 110.547 112.507 109.589C112.699 108.24 111.151 107.282 110.062 108.087C109.878 108.056 109.518 107.987 109.158 107.818C108.66 107.581 108.139 107.144 108.062 106.332C108.047 106.14 107.886 105.987 107.694 105.987C107.694 105.987 106.79 105.987 105.816 105.718C105.196 105.542 104.536 105.266 104.076 104.799ZM104.1 105.78C104.559 106.086 105.096 106.293 105.617 106.431C106.314 106.623 106.981 106.692 107.365 106.715C107.556 107.65 108.2 108.186 108.836 108.485C109.503 108.799 110.147 108.845 110.147 108.845C110.254 108.853 110.354 108.815 110.43 108.746C110.99 108.225 111.871 108.746 111.764 109.474C111.695 109.987 111.358 110.164 111.036 110.217C110.66 110.279 110.3 110.187 110.3 110.187C110.101 110.133 109.901 110.256 109.84 110.455L108.269 116.326L103.617 114.571C103.494 111.689 103.923 107.42 104.1 105.78Z" fill="#171718"/>
<path fill-rule="evenodd" clip-rule="evenodd" d="M104.682 111.283C104.682 111.283 106.706 112.172 107.848 110.593C107.963 110.424 107.924 110.187 107.756 110.072C107.587 109.949 107.349 109.988 107.235 110.156C106.437 111.275 104.989 110.601 104.989 110.601C104.805 110.516 104.583 110.601 104.498 110.785C104.406 110.976 104.491 111.198 104.682 111.283Z" fill="#171718"/>
<path fill-rule="evenodd" clip-rule="evenodd" d="M105.44 108.485C105.44 108.485 103.01 108.209 101.929 108.087C101.638 108.056 101.377 108.24 101.316 108.524C101.286 108.677 101.316 108.846 101.408 108.976C101.508 109.106 101.646 109.19 101.807 109.213C102.956 109.367 105.317 109.673 105.317 109.673L105.44 108.485Z" fill="white"/>
<path fill-rule="evenodd" clip-rule="evenodd" d="M105.48 108.11C105.48 108.11 103.051 107.834 101.978 107.711C101.495 107.657 101.058 107.972 100.958 108.439C100.897 108.7 100.951 108.968 101.104 109.19C101.257 109.405 101.495 109.551 101.756 109.581L105.266 110.033C105.473 110.056 105.664 109.918 105.687 109.711C105.71 109.505 105.565 109.321 105.358 109.29L101.847 108.83C101.786 108.822 101.74 108.792 101.709 108.746C101.679 108.7 101.671 108.646 101.679 108.592C101.702 108.501 101.786 108.432 101.886 108.447L105.396 108.845C105.603 108.868 105.787 108.723 105.81 108.516C105.841 108.317 105.695 108.133 105.48 108.11Z" fill="#171718"/>
<path fill-rule="evenodd" clip-rule="evenodd" d="M115.404 120.38C115.404 120.38 130.219 138.062 136.159 146.654C136.159 146.654 141.049 150.471 143.402 153.736C145.763 157.001 145.265 158.013 143.916 158.618C143.916 158.618 143.87 159.385 143.203 159.699C142.544 160.021 141.915 159.27 141.203 158.411C140.49 157.553 138.198 155.782 138.198 155.782C138.198 155.782 140.559 160.09 140.812 161.055C141.065 162.021 139.601 163.24 138.313 161.117C137.026 158.994 133.055 154.671 133.055 154.671C133.055 154.671 133.415 157.024 133.507 158.135C133.507 158.135 134.757 159.921 134.573 160.772C134.374 161.714 133.025 161.952 131.913 160.097C130.503 157.737 129.844 156.028 129.453 154.886C129.062 153.744 128.518 151.666 126.977 149.007C125.445 146.347 112.706 131.203 112.706 131.203L111.457 123.653L115.404 120.38Z" fill="white"/>
<path fill-rule="evenodd" clip-rule="evenodd" d="M115.69 120.143C115.552 119.982 115.322 119.967 115.161 120.097L111.229 123.354C111.13 123.438 111.076 123.576 111.099 123.707L112.348 131.256C112.356 131.325 112.387 131.386 112.433 131.44C112.433 131.44 125.14 146.539 126.673 149.191C128.183 151.82 128.719 153.874 129.11 155.008C129.501 156.165 130.168 157.913 131.601 160.297C132.099 161.132 132.659 161.584 133.15 161.768C133.594 161.929 133.993 161.891 134.299 161.73C134.629 161.561 134.859 161.255 134.951 160.864C135.012 160.55 134.943 160.128 134.782 159.699C134.521 158.994 134.039 158.258 133.878 158.005C133.816 157.415 133.701 156.549 133.609 155.836C134.836 157.216 137.089 159.814 138.001 161.308C138.607 162.32 139.289 162.65 139.825 162.665C140.76 162.688 141.396 161.761 141.182 160.956C141.029 160.373 140.117 158.58 139.404 157.231C139.994 157.721 140.607 158.273 140.914 158.641C141.381 159.201 141.818 159.699 142.232 159.944C142.607 160.166 142.983 160.212 143.366 160.028C143.956 159.745 144.171 159.185 144.248 158.863C144.807 158.58 145.198 158.212 145.351 157.675C145.451 157.323 145.451 156.894 145.29 156.357C145.075 155.652 144.585 154.732 143.703 153.506C141.458 150.394 136.928 146.784 136.43 146.386C130.467 137.771 115.69 120.143 115.69 120.143ZM115.353 120.909C117.284 123.216 130.36 138.928 135.847 146.869C135.87 146.899 135.901 146.93 135.924 146.953C135.924 146.953 140.768 150.724 143.098 153.958C143.887 155.054 144.355 155.882 144.562 156.526C144.731 157.055 144.715 157.43 144.531 157.706C144.37 157.959 144.094 158.12 143.765 158.266C143.634 158.327 143.55 158.442 143.542 158.587C143.542 158.587 143.519 159.132 143.052 159.354C142.845 159.454 142.661 159.346 142.454 159.193C142.148 158.955 141.826 158.572 141.496 158.166C140.768 157.292 138.438 155.491 138.438 155.491C138.3 155.384 138.101 155.391 137.963 155.506C137.825 155.621 137.794 155.813 137.871 155.966C137.871 155.966 140.201 160.205 140.454 161.155C140.569 161.577 140.139 162.067 139.603 161.876C139.289 161.761 138.967 161.469 138.637 160.933C137.35 158.787 133.334 154.418 133.334 154.418C133.226 154.295 133.042 154.265 132.897 154.334C132.751 154.403 132.659 154.564 132.682 154.725C132.682 154.725 133.035 157.062 133.127 158.166C133.134 158.227 133.157 158.296 133.196 158.342C133.196 158.342 133.625 158.963 133.931 159.63C134.108 160.021 134.261 160.419 134.207 160.695C134.146 160.971 133.916 161.14 133.625 161.109C133.203 161.063 132.705 160.688 132.23 159.898C130.835 157.576 130.191 155.89 129.808 154.755C129.409 153.598 128.865 151.498 127.302 148.808C125.822 146.255 114.05 132.207 113.061 131.026L111.858 123.783L115.353 120.909Z" fill="#171718"/>
<path fill-rule="evenodd" clip-rule="evenodd" d="M144.107 158.212C144.107 158.212 142.467 155.2 141.049 153.912C140.895 153.774 140.658 153.782 140.52 153.935C140.382 154.088 140.39 154.326 140.543 154.464C141.892 155.69 143.44 158.564 143.44 158.564C143.54 158.748 143.762 158.817 143.954 158.718C144.13 158.633 144.199 158.404 144.107 158.212Z" fill="#171718"/>
<path fill-rule="evenodd" clip-rule="evenodd" d="M125.883 147.39L132.574 141.687L133.785 143.328L126.987 148.976L125.883 147.39Z" fill="white"/>
<path fill-rule="evenodd" clip-rule="evenodd" d="M125.635 147.099C125.49 147.221 125.459 147.436 125.574 147.597L126.67 149.191C126.731 149.275 126.823 149.336 126.931 149.352C127.03 149.367 127.145 149.337 127.222 149.268L134.02 143.619C134.174 143.489 134.204 143.266 134.081 143.105L132.871 141.465C132.809 141.381 132.71 141.327 132.61 141.312C132.51 141.297 132.403 141.335 132.319 141.396L125.635 147.099ZM126.379 147.451L132.51 142.232L133.269 143.266L127.053 148.432L126.379 147.451Z" fill="#171718"/>
<path fill-rule="evenodd" clip-rule="evenodd" d="M100.382 113.927C100.382 113.927 94.488 106.102 93.6066 103.113C92.7175 100.123 89.989 83.6756 89.989 83.6756C89.989 83.6756 90.3263 79.146 89.9124 78.4638C89.4985 77.7817 86.4557 76.908 85.4823 76.4711C84.5089 76.0342 83.505 76.4864 83.551 77.5441C83.551 77.5441 82.6312 77.1915 81.8801 78.0269C81.1366 78.8547 81.29 79.5291 81.29 79.5291C81.29 79.5291 79.6958 79.7054 79.5655 81.4069C79.5655 81.4069 77.6264 82.1504 78.1476 83.9439L78.9445 84.8253C78.9445 84.8253 80.1172 87.9677 82.5008 88.6421C82.5008 88.6421 83.4129 100.737 85.1067 106.316C86.8006 111.888 91.7595 118.848 94.6336 121.469L99.945 117.866L100.382 113.927Z" fill="white"/>
<path fill-rule="evenodd" clip-rule="evenodd" d="M100.751 113.973C100.766 113.881 100.736 113.781 100.682 113.705C100.682 113.705 94.8342 105.971 93.9604 103.013C93.102 100.123 90.5191 84.5953 90.3581 83.6679C90.3811 83.346 90.5191 81.3379 90.4807 79.8894C90.4578 79.1306 90.3659 78.5098 90.2279 78.2798C90.0823 78.0346 89.6684 77.751 89.1089 77.4904C88.0129 76.9692 86.3114 76.448 85.6293 76.1414C84.8935 75.8119 84.15 75.9115 83.6825 76.3101C83.4525 76.5093 83.2763 76.7776 83.2073 77.1148C82.7858 77.0842 82.1496 77.1761 81.6055 77.7893C81.0766 78.3794 80.931 78.9083 80.908 79.2455C80.3792 79.3988 79.4135 79.8664 79.2219 81.1693C78.67 81.4529 77.298 82.3573 77.7809 84.0588C77.8039 84.1125 77.8268 84.1661 77.8652 84.2044L78.6163 85.0399C78.7236 85.3081 79.1605 86.3121 79.9269 87.2548C80.4864 87.9523 81.2375 88.6038 82.1496 88.9334C82.2876 90.6962 83.192 101.311 84.7479 106.431C86.457 112.064 91.4771 119.1 94.382 121.752C94.5122 121.867 94.7038 121.883 94.8495 121.783L100.161 118.181C100.253 118.119 100.314 118.02 100.329 117.912L100.751 113.973ZM99.9924 114.034L99.5937 117.652L94.6656 120.994C91.8068 118.257 87.0931 111.582 85.4606 106.209C83.7744 100.66 82.8701 88.6191 82.8701 88.6191C82.8548 88.4659 82.7475 88.3278 82.5942 88.2895C81.7205 88.0443 81.0229 87.4235 80.5018 86.7797C79.6893 85.7756 79.2907 84.7026 79.2907 84.7026C79.2677 84.6566 79.2447 84.6183 79.2141 84.58L78.4783 83.7675C78.1334 82.3496 79.6894 81.7671 79.6894 81.7671C79.8273 81.7135 79.9192 81.5908 79.9346 81.4452C80.0342 80.0656 81.3218 79.9123 81.3218 79.9123C81.4291 79.897 81.5287 79.8434 81.59 79.7591C81.6514 79.6747 81.6744 79.5598 81.6514 79.4602C81.6514 79.4602 81.5671 78.9467 82.1572 78.2952C82.7167 77.6667 83.4142 77.912 83.4142 77.912C83.5292 77.9579 83.6671 77.9349 83.7668 77.8659C83.8664 77.7893 83.9277 77.6744 83.92 77.5441C83.9047 77.2528 83.9968 77.0305 84.1654 76.8849C84.449 76.6473 84.8858 76.632 85.3227 76.8312C86.0048 77.1378 87.6909 77.659 88.7946 78.1725C89.0475 78.2951 89.2775 78.4101 89.4308 78.5327C89.4998 78.5864 89.561 78.6324 89.5917 78.6784C89.6224 78.7321 89.6377 78.824 89.6607 78.9389C89.699 79.1919 89.722 79.5291 89.7374 79.9123C89.7757 81.4605 89.6148 83.6603 89.6148 83.6603C89.6071 83.6909 89.6148 83.7216 89.6148 83.7522C89.6148 83.7522 92.3585 100.238 93.2399 103.235C94.0677 106.025 99.2413 113.038 99.9924 114.034Z" fill="#171718"/>
<path fill-rule="evenodd" clip-rule="evenodd" d="M90.3803 144.293L87.4219 166.865H98.152L100.635 155.031L100.068 166.865H111.473L113.496 146.539L103.264 142.783L90.3803 144.293Z" fill="#335CFF"/>
<path fill-rule="evenodd" clip-rule="evenodd" d="M30.4958 132.404L24.6536 146.938C24.6536 146.938 35.7073 158.13 53.8899 155.827L58.1768 140.478C58.1768 140.478 39.2274 138.217 30.4958 132.404Z" fill="#22C55E"/>
<path fill-rule="evenodd" clip-rule="evenodd" d="M33.8973 136.617C33.6819 137.164 33.2464 137.591 32.695 137.801C32.1492 138.011 31.5373 137.987 31.0031 137.73C30.1522 139.858 28.8896 142.992 28.1562 144.832C28.9325 145.407 29.224 146.433 28.8634 147.329C31.9261 149.507 40.0473 154.449 50.0773 153.73C50.3155 152.871 51.0748 152.252 51.9643 152.188C52.5091 150.254 53.4887 146.744 54.1346 144.425C53.5429 144.324 53.0221 143.979 52.6962 143.475C52.376 142.97 52.2843 142.348 52.4442 141.767C48.2439 141.048 39.3664 139.299 33.8973 136.617Z" fill="white"/>
<path fill-rule="evenodd" clip-rule="evenodd" d="M34.07 136.282C33.9729 136.235 33.8689 136.229 33.7642 136.27C33.6651 136.309 33.5924 136.381 33.5514 136.477C33.3713 136.928 33.0135 137.278 32.5561 137.455C32.1043 137.631 31.6016 137.607 31.1645 137.396C31.0731 137.349 30.9632 137.344 30.8642 137.384C30.7651 137.423 30.6926 137.494 30.6521 137.597C29.7956 139.726 28.5387 142.859 27.7996 144.7C27.7365 144.856 27.7912 145.04 27.923 145.14C28.5611 145.61 28.7986 146.457 28.5118 147.19C28.4436 147.353 28.4984 147.536 28.6415 147.635C31.7358 149.839 39.9491 154.833 50.0932 154.108C50.2528 154.096 50.3841 153.984 50.4302 153.829C50.628 153.124 51.2447 152.619 51.9739 152.561C52.1342 152.555 52.2654 152.443 52.3058 152.289C52.8513 150.361 53.8303 146.844 54.4763 144.526C54.5053 144.425 54.4927 144.311 54.4316 144.226C54.3755 144.134 54.2828 144.076 54.1775 144.059C53.6911 143.974 53.263 143.688 52.9932 143.276C52.7285 142.857 52.6492 142.348 52.7864 141.873C52.8154 141.772 52.8029 141.659 52.7418 141.574C52.6857 141.482 52.5929 141.423 52.4876 141.406C48.3327 140.682 39.5026 138.946 34.07 136.282ZM34.0703 137.115C39.4247 139.644 47.7426 141.322 51.9977 142.07C51.9388 142.628 52.0703 143.194 52.376 143.672C52.6761 144.15 53.1351 144.507 53.6611 144.69C53.0437 146.902 52.1884 149.98 51.6594 151.849C50.8204 152.005 50.1142 152.583 49.799 153.371C40.2328 153.969 32.4614 149.385 29.3034 147.177C29.5385 146.289 29.2671 145.342 28.6001 144.714C29.3081 142.958 30.4079 140.221 31.2145 138.213C31.738 138.373 32.3109 138.356 32.8289 138.155C33.3526 137.953 33.7836 137.589 34.0703 137.115Z" fill="#171718"/>
<path d="M42.1897 150.946C44.8043 150.36 46.4493 147.766 45.864 145.152C45.2787 142.537 42.6848 140.892 40.0702 141.477C37.4556 142.063 35.8104 144.657 36.3957 147.271C36.981 149.886 39.5751 151.531 42.1897 150.946Z" fill="white"/>
<path fill-rule="evenodd" clip-rule="evenodd" d="M40.4998 141.304C37.7954 141.603 35.8372 144.048 36.1362 146.752C36.4351 149.457 38.8802 151.415 41.5846 151.116C44.2966 150.816 46.248 148.379 45.9482 145.667C45.6492 142.963 43.2118 141.004 40.4998 141.304ZM40.5823 142.051C42.8829 141.796 44.948 143.457 45.2015 145.75C45.4551 148.043 43.8027 150.115 41.502 150.369C39.2014 150.624 37.1363 148.963 36.8828 146.67C36.6293 144.377 38.2817 142.305 40.5823 142.051Z" fill="#171718"/>
<path fill-rule="evenodd" clip-rule="evenodd" d="M43.2389 144.699C42.7803 143.567 41.6392 143.331 41.0066 143.427C40.0382 143.573 39.3483 144.469 39.8822 145.406C40.1569 145.904 40.709 146.162 41.2261 146.437C41.5763 146.622 41.9191 146.809 41.9792 147.245C42.0238 147.503 41.8487 147.739 41.6371 147.899C41.4073 148.078 41.0947 148.185 40.843 148.133C40.0637 147.975 39.7515 147.336 39.4633 146.937C39.3401 146.771 39.109 146.737 38.9361 146.862C38.7705 146.986 38.7367 147.216 38.8598 147.382C39.2501 147.897 39.6997 148.666 40.6972 148.869C41.141 148.958 41.6799 148.807 42.0901 148.5C42.526 148.17 42.8052 147.668 42.7195 147.136C42.6149 146.442 42.1374 146.077 41.5736 145.775C41.1784 145.57 40.7392 145.409 40.522 145.038C40.2742 144.612 40.6594 144.241 41.1103 144.177C41.5147 144.117 42.2436 144.265 42.5309 144.989C42.6062 145.184 42.8287 145.275 43.0209 145.193C43.2205 145.108 43.3196 144.883 43.2389 144.699Z" fill="#171718"/>
<path fill-rule="evenodd" clip-rule="evenodd" d="M41.7987 143.01C40.9819 144.924 40.3224 146.923 39.6719 148.895C39.6059 149.095 39.7167 149.303 39.9092 149.371C40.109 149.437 40.3176 149.326 40.3855 149.134C41.0252 147.18 41.6811 145.198 42.4871 143.304C42.5718 143.115 42.4812 142.893 42.2922 142.808C42.1052 142.731 41.8834 142.822 41.7987 143.01Z" fill="#171718"/>
<path fill-rule="evenodd" clip-rule="evenodd" d="M86.5843 5.38503C86.638 6.04417 86.6916 6.70329 86.7376 7.36243C86.7529 7.56937 86.9292 7.72267 87.1361 7.715C87.3507 7.69967 87.5041 7.52338 87.4888 7.31644C87.4428 6.64964 87.3891 5.99051 87.3355 5.33137C87.3202 5.12443 87.1362 4.97114 86.9292 4.98647C86.7146 4.99413 86.5613 5.17809 86.5843 5.38503Z" fill="#171718"/>
<path fill-rule="evenodd" clip-rule="evenodd" d="M64.1035 14.1455C64.571 14.5363 65.0386 14.9196 65.5061 15.3028C65.6671 15.4331 65.9047 15.4101 66.035 15.2568C66.1729 15.0958 66.1422 14.8583 65.9812 14.728C65.5214 14.3447 65.0463 13.9615 64.5787 13.5706C64.4178 13.4327 64.1802 13.4557 64.0499 13.6166C63.9272 13.7699 63.9425 14.0075 64.1035 14.1455Z" fill="#171718"/>
<path fill-rule="evenodd" clip-rule="evenodd" d="M57.4591 33.521C58.2638 33.5823 59.0609 33.59 59.8657 33.682C60.0726 33.705 60.2566 33.5594 60.2796 33.3524C60.3026 33.1455 60.1569 32.9616 59.95 32.9386C59.1376 32.8389 58.3251 32.8389 57.5126 32.7776C57.298 32.7623 57.1219 32.9156 57.1065 33.1225C57.0912 33.3218 57.2445 33.5057 57.4591 33.521Z" fill="#171718"/>
<path fill-rule="evenodd" clip-rule="evenodd" d="M64.9773 49.8999C64.4791 50.3981 63.9733 50.8963 63.4598 51.3868C63.3065 51.5324 63.2988 51.77 63.4444 51.9156C63.5824 52.0689 63.82 52.0689 63.9733 51.9309C64.4944 51.4404 64.9927 50.9346 65.4985 50.4287C65.6441 50.2831 65.6441 50.0455 65.4985 49.8999C65.3682 49.7542 65.1229 49.7542 64.9773 49.8999Z" fill="#171718"/>
<path fill-rule="evenodd" clip-rule="evenodd" d="M108.276 50.5743C108.736 51.0112 109.18 51.4634 109.625 51.9233C109.763 52.0766 110.001 52.0766 110.154 51.9309C110.299 51.7853 110.307 51.5477 110.161 51.4021C109.717 50.9345 109.257 50.4747 108.797 50.0302C108.652 49.8846 108.406 49.8922 108.268 50.0455C108.123 50.1912 108.123 50.4287 108.276 50.5743Z" fill="#171718"/>
<path fill-rule="evenodd" clip-rule="evenodd" d="M115.893 33.751C116.72 33.7816 117.556 33.7816 118.376 33.8429C118.583 33.8583 118.759 33.705 118.782 33.498C118.797 33.2911 118.644 33.1148 118.437 33.0995C117.602 33.0382 116.766 33.0382 115.931 33.0075C115.716 32.9999 115.548 33.1608 115.54 33.3677C115.525 33.567 115.686 33.7433 115.893 33.751Z" fill="#171718"/>
<path fill-rule="evenodd" clip-rule="evenodd" d="M109.148 18.0082C109.891 17.6174 110.589 17.1729 111.294 16.7283C111.47 16.621 111.524 16.3911 111.417 16.2148C111.309 16.0385 111.079 15.9848 110.895 16.0921C110.198 16.5214 109.523 16.9659 108.795 17.3491C108.611 17.4487 108.542 17.671 108.634 17.855C108.742 18.0312 108.964 18.1002 109.148 18.0082Z" fill="#171718"/>
<path fill-rule="evenodd" clip-rule="evenodd" d="M83.2621 77.8124C83.2621 77.8124 84.0975 79.7514 86.7034 80.3493C86.9027 80.3953 87.1096 80.2726 87.1479 80.0657C87.1939 79.8664 87.0636 79.6595 86.8644 79.6135C84.6723 79.1153 83.9443 77.5058 83.9443 77.5058C83.86 77.3142 83.6377 77.2299 83.4461 77.3142C83.2698 77.3985 83.1778 77.6208 83.2621 77.8124Z" fill="#171718"/>
<path fill-rule="evenodd" clip-rule="evenodd" d="M86.4863 79.9123C86.4863 79.9123 85.3674 81.3993 85.582 83.8136C85.605 84.0205 85.7889 84.1737 85.9882 84.1507C86.1951 84.1354 86.3484 83.9515 86.3254 83.7445C86.1415 81.6522 87.0766 80.3569 87.0766 80.3569C87.1992 80.1882 87.1686 79.9583 86.9999 79.8357C86.8467 79.7131 86.609 79.7437 86.4863 79.9123Z" fill="#171718"/>
<path fill-rule="evenodd" clip-rule="evenodd" d="M78.6153 85.0246C78.6153 85.0246 79.6882 85.9596 80.6999 86.5421C81.1751 86.818 81.6427 87.0097 81.9952 87.0327C82.6007 87.071 82.9533 86.7184 83.1373 86.2585C83.2599 85.9519 83.2981 85.5994 83.3134 85.3465C83.6737 85.2469 84.2179 85.0169 84.5628 84.4727C84.7468 84.1662 84.8771 83.7676 84.8541 83.2311C85.2297 83.0625 85.9117 82.6946 86.2566 82.1581C86.3716 81.9818 86.3179 81.7519 86.1493 81.6369C85.9807 81.5219 85.7432 81.568 85.6282 81.7442C85.2373 82.3344 84.3329 82.6256 84.3329 82.6256C84.1566 82.687 84.0492 82.8556 84.0799 83.0318C84.1412 83.4917 84.0723 83.8289 83.919 84.0742C83.5894 84.6107 82.9073 84.6567 82.9073 84.6567C82.7004 84.672 82.5471 84.8483 82.5624 85.0553C82.5624 85.0553 82.6008 85.5687 82.4398 85.9673C82.3708 86.1359 82.2635 86.2892 82.0412 86.2739C81.7729 86.2585 81.4281 86.09 81.0602 85.883C80.1175 85.3312 79.098 84.4498 79.098 84.4498C78.9447 84.3118 78.7073 84.3271 78.5693 84.4881C78.439 84.649 78.462 84.8866 78.6153 85.0246Z" fill="#171718"/>
<path fill-rule="evenodd" clip-rule="evenodd" d="M83.1993 84.7793L80.854 82.457C80.7084 82.3114 80.4708 82.3114 80.3251 82.457C80.1872 82.6026 80.1873 82.8402 80.3329 82.9859L82.6706 85.3082C82.8162 85.4538 83.0537 85.4538 83.1993 85.3082C83.3449 85.1625 83.3449 84.9249 83.1993 84.7793Z" fill="#171718"/>
<path fill-rule="evenodd" clip-rule="evenodd" d="M84.732 82.7482L82.678 80.3799C82.54 80.2189 82.3101 80.2036 82.1491 80.3416C81.9958 80.4795 81.9728 80.7171 82.1108 80.8704L84.1571 83.2387C84.2951 83.392 84.525 83.415 84.686 83.277C84.847 83.1391 84.8623 82.9014 84.732 82.7482Z" fill="#171718"/>
<path d="M106.842 108.626C107.051 108.626 107.22 108.457 107.22 108.249C107.22 108.04 107.051 107.871 106.842 107.871C106.634 107.871 106.465 108.04 106.465 108.249C106.465 108.457 106.634 108.626 106.842 108.626Z" fill="#171718"/>
<path d="M104.58 107.86C104.789 107.86 104.958 107.691 104.958 107.483C104.958 107.275 104.789 107.106 104.58 107.106C104.372 107.106 104.203 107.275 104.203 107.483C104.203 107.691 104.372 107.86 104.58 107.86Z" fill="#171718"/>
<path fill-rule="evenodd" clip-rule="evenodd" d="M82.8105 69.3355C82.8182 70.4775 83.7456 71.4049 84.8875 71.4049H89.057C90.199 71.4049 91.1264 70.4775 91.134 69.3355H93.5024C94.0772 69.3355 94.6367 69.0826 95.0429 68.638C95.4491 68.1935 95.6791 67.588 95.6791 66.9595C95.6791 66.331 95.4491 65.7256 95.0429 65.2811C94.9739 65.2044 94.8974 65.1354 94.8207 65.0741C94.8974 65.0128 94.9739 64.9361 95.0429 64.8671C95.4491 64.4226 95.6791 63.8171 95.6791 63.1886C95.6791 62.5601 95.4491 61.9547 95.0429 61.5102C94.9662 61.4258 94.882 61.3492 94.7977 61.2802C94.882 61.2112 94.9662 61.1346 95.0429 61.0503C95.4491 60.6058 95.6791 60.0002 95.6791 59.3718C95.6791 58.7433 95.4491 58.1378 95.0429 57.6933C94.6367 57.2488 94.0772 56.9958 93.5024 56.9958H80.4422C79.8597 56.9958 79.3156 57.2488 78.9017 57.6933C78.4955 58.1378 78.2656 58.7433 78.2656 59.3718C78.2656 60.0002 78.4955 60.6058 78.9017 61.0503C78.9783 61.1346 79.0627 61.2112 79.147 61.2802C79.0627 61.3492 78.9783 61.4258 78.9017 61.5102C78.4955 61.9547 78.2656 62.5601 78.2656 63.1886C78.2656 63.8171 78.4955 64.4226 78.9017 64.8671C78.9707 64.9438 79.0397 65.0128 79.1163 65.0741C79.0397 65.1354 78.9707 65.2121 78.9017 65.2811C78.4955 65.7256 78.2656 66.331 78.2656 66.9595C78.2656 67.588 78.4955 68.1935 78.9017 68.638C79.3079 69.0826 79.8597 69.3355 80.4422 69.3355H82.8105Z" fill="#335CFF"/>
<path fill-rule="evenodd" clip-rule="evenodd" d="M79.1686 61.5331H82.0198C82.2267 61.5331 82.3952 61.3645 82.3952 61.1576C82.3952 60.9506 82.2267 60.782 82.0198 60.782H79.1686C78.9616 60.782 78.793 60.9506 78.793 61.1576C78.793 61.3645 78.9616 61.5331 79.1686 61.5331Z" fill="#171718"/>
<path fill-rule="evenodd" clip-rule="evenodd" d="M94.8304 64.7062H91.7778C91.5671 64.7062 91.3984 64.8748 91.3984 65.0817C91.3984 65.2887 91.5671 65.4573 91.7778 65.4573H94.8304C95.0352 65.4573 95.2098 65.2887 95.2098 65.0817C95.2098 64.8748 95.0352 64.7062 94.8304 64.7062Z" fill="#171718"/>
<path fill-rule="evenodd" clip-rule="evenodd" d="M100.069 112.854C100.069 112.854 96.8733 119.261 94.1908 121.17L92.336 137.648C92.336 137.648 90.2436 138.53 89.8221 140.959C89.3852 143.489 90.3586 145.382 93.3324 146.133C96.3062 146.884 107.527 149.076 111.811 147.865C116.103 146.654 115.007 142.776 113.451 141.825C113.451 141.825 113.382 132.406 113.589 129.018C113.804 125.631 115.222 121.323 115.935 120.304C115.942 120.296 111.796 116.15 100.069 112.854Z" fill="#EF4444"/>
<path fill-rule="evenodd" clip-rule="evenodd" d="M95.7097 125.109C95.7097 125.109 97.4571 128.367 101.136 127.271C101.335 127.209 101.45 127.002 101.389 126.803C101.328 126.604 101.121 126.489 100.922 126.55C97.8328 127.47 96.3765 124.757 96.3765 124.757C96.2768 124.573 96.0469 124.504 95.863 124.604C95.6791 124.695 95.6101 124.925 95.7097 125.109Z" fill="#171718"/>
<path fill-rule="evenodd" clip-rule="evenodd" d="M104.75 127.899C104.75 127.899 107.685 130.674 110.805 129.095C110.989 129.003 111.058 128.773 110.966 128.589C110.874 128.405 110.644 128.328 110.467 128.428C107.785 129.785 105.271 127.363 105.271 127.363C105.125 127.217 104.888 127.225 104.742 127.378C104.597 127.516 104.604 127.754 104.75 127.899Z" fill="#171718"/>
<path fill-rule="evenodd" clip-rule="evenodd" d="M108.469 107.826C108.469 107.826 109.68 105.006 109.871 103.396C109.871 103.396 110.806 104.086 111.075 104.461C111.075 104.461 110.071 107.236 109.105 108.202L108.469 107.826Z" fill="white"/>
<path d="M129.83 147.885C131.239 147.885 132.382 146.742 132.382 145.333C132.382 143.923 131.239 142.781 129.83 142.781C128.42 142.781 127.277 143.923 127.277 145.333C127.277 146.742 128.42 147.885 129.83 147.885Z" fill="white"/>
<path fill-rule="evenodd" clip-rule="evenodd" d="M129.83 142.405C128.213 142.405 126.902 143.716 126.902 145.333C126.902 146.95 128.213 148.261 129.83 148.261C131.447 148.261 132.766 146.95 132.766 145.333C132.766 143.716 131.447 142.405 129.83 142.405ZM129.83 143.156C131.041 143.156 132.007 144.13 132.007 145.333C132.007 146.536 131.034 147.51 129.83 147.51C128.627 147.51 127.661 146.536 127.661 145.333C127.661 144.13 128.627 143.156 129.83 143.156Z" fill="#171718"/>
<path fill-rule="evenodd" clip-rule="evenodd" d="M26.6212 167.233H165.819C166.027 167.233 166.194 167.064 166.194 166.865C166.194 166.65 166.027 166.49 165.819 166.49H26.6212C26.4128 166.49 26.2461 166.658 26.2461 166.865C26.2461 167.064 26.4128 167.233 26.6212 167.233Z" fill="#171718"/>
</svg>
