<svg width="92" height="31" viewBox="0 0 92 31" fill="none" xmlns="http://www.w3.org/2000/svg">
<path opacity="0.2" d="M17.8891 16.9989C10.7125 16.6354 1 22.3324 1 22.3324V31H91V16.9989C91 16.9989 84.0839 20.343 79.3653 19.7745C71.8334 18.8671 76.0931 9.45021 68.7815 7.85557C63.4855 6.70053 60.0462 11.3284 54.8949 9.86928C49.7117 8.40107 51.4773 3.38089 46.563 1.48793C35.4488 -2.79321 44.5837 22.511 32.0008 22.3324C25.7872 22.2443 24.0888 17.3129 17.8891 16.9989Z" fill="url(#paint0_linear_3_13)"/>
<path d="M1 21.9991C1 21.9991 10.7125 16.391 17.8891 16.7488C24.0888 17.058 25.7872 21.9123 32.0008 21.9991C44.5837 22.1748 35.4488 -2.73393 46.563 1.4803C51.4773 3.34368 49.7117 8.28541 54.8949 9.73067C60.0462 11.167 63.4855 6.61144 68.7815 7.74844C76.0931 9.31815 71.8334 18.5878 79.3653 19.4811C84.0839 20.0407 91 16.7488 91 16.7488" stroke="#EAB308" stroke-linecap="round"/>
<defs>
<linearGradient id="paint0_linear_3_13" x1="46" y1="1" x2="46" y2="41" gradientUnits="userSpaceOnUse">
<stop stop-color="#EAB308"/>
<stop offset="1" stop-color="#EAB308" stop-opacity="0"/>
</linearGradient>
</defs>
</svg>
