<svg width="26" height="26" viewBox="0 0 26 26" fill="none" xmlns="http://www.w3.org/2000/svg">
<path d="M8.79208 11.2712L12.9998 7.06365L17.2097 11.2734L19.658 8.82507L12.9998 2.16666L6.34375 8.82285L8.79208 11.2712Z" fill="#F3BA2F"/>
<path d="M7.06303 12.9996L4.61475 10.5514L2.16634 12.9998L4.61463 15.4481L7.06303 12.9996Z" fill="#F3BA2F"/>
<path d="M8.79225 14.7288L12.9999 18.9363L17.2097 14.7267L19.6594 17.1737L19.6582 17.1751L12.9999 23.8333L6.34375 17.1773L6.34033 17.1739L8.79225 14.7288Z" fill="#F3BA2F"/>
<path d="M21.3851 15.4493L23.8335 13.0009L21.3852 10.5526L18.9368 13.001L21.3851 15.4493Z" fill="#F3BA2F"/>
<path d="M15.4832 12.9988H15.4842L12.9998 10.5143L11.1638 12.3504H11.1636L10.9528 12.5614L10.5176 12.9966L10.5142 13L10.5176 13.0036L12.9998 15.4858L15.4842 13.0013L15.4854 13L15.4832 12.9988Z" fill="#F3BA2F"/>
</svg>
