<svg width="92" height="30" viewBox="0 0 92 30" fill="none" xmlns="http://www.w3.org/2000/svg">
<path opacity="0.2" d="M13.6052 11.4C10.0171 15.4277 4.04232 19.1691 1 20.7748V30H91V21.7336L82.3166 4.29614C81.3759 2.40712 78.7333 2.26852 77.6002 4.04876L68.7848 17.8983L57.5823 11.9855L48.2785 19.3365L37.2659 16.1404L25.8735 17.8983L18.1669 10.9318C16.8674 9.7571 14.7705 10.092 13.6052 11.4Z" fill="url(#paint0_linear_1212_8028)"/>
<path d="M1 21.0295C4.21313 19.3128 10.6972 15.1848 14.1861 10.8506C15.0017 9.83732 16.5496 9.58585 17.5092 10.464L25.1644 17.4688C25.6126 17.8789 26.2229 18.0631 26.8232 17.9693L36.8233 16.4074C37.1147 16.3619 37.4127 16.3814 37.6957 16.4645L47.2791 19.28C47.9054 19.464 48.5822 19.3307 49.092 18.9229L56.5531 12.9556C57.1775 12.4561 58.0395 12.3766 58.7448 12.7534L67.1834 17.262C68.0918 17.7474 69.2202 17.4635 69.7908 16.6061L78.2927 3.83162C79.1379 2.56166 81.0366 2.66748 81.7355 4.0235L91 22" stroke="url(#paint1_linear_1212_8028)" stroke-linecap="round"/>
<defs>
<linearGradient id="paint0_linear_1212_8028" x1="46" y1="0" x2="46" y2="30" gradientUnits="userSpaceOnUse">
<stop stop-color="#7C3AED"/>
<stop offset="1" stop-color="#A78BFA" stop-opacity="0"/>
</linearGradient>
<linearGradient id="paint1_linear_1212_8028" x1="1" y1="11.5" x2="91" y2="11.5" gradientUnits="userSpaceOnUse">
<stop stop-color="#7C3AED"/>
<stop offset="1" stop-color="#A78BFA"/>
</linearGradient>
</defs>
</svg>
