<svg width="263" height="159" viewBox="0 0 263 159" fill="none" xmlns="http://www.w3.org/2000/svg">
<g clip-path="url(#clip0_1647_22745)">
<rect x="1" y="1" width="261" height="157" rx="8" fill="#C4DAEE"/>
<rect width="261" height="95" transform="translate(1 1)" fill="#C4DAEE"/>
<path opacity="0.5" d="M188.731 66.876C202.015 86.5591 206.756 104.11 199.36 112.705C187.478 126.514 148.765 111.974 112.893 80.2293C77.0214 48.4842 57.5743 11.5551 69.4569 -2.25401C78.0915 -12.2884 100.893 -7.35395 126.477 8.27368" stroke="#91B7D9" stroke-width="0.824059"/>
<path d="M162.218 83.4775C175.501 103.161 180.242 120.712 172.847 129.307C160.964 143.116 122.251 128.576 86.3795 96.8309C50.5077 65.0858 31.0606 28.1567 42.9433 14.3476C51.5778 4.31312 74.3791 9.24761 99.9629 24.8752" stroke="#91B7D9" stroke-width="0.824059"/>
<path opacity="0.7" d="M211.721 52.4873C225.005 72.1705 229.746 89.7217 222.35 98.3166C210.468 112.126 171.755 97.5858 135.883 65.8406C100.012 34.0955 80.5645 -2.83352 92.4472 -16.6427C101.082 -26.6771 123.883 -21.7426 149.467 -6.11499" stroke="#91B7D9" stroke-width="0.824059"/>
<path d="M25.0577 22.1759C25.4013 21.8916 25.8953 21.9591 26.161 22.3266C29.9516 27.5677 29.9407 34.4242 26.162 39.672C25.897 40.0401 25.4032 40.1087 25.059 39.8252C24.7148 39.5418 24.6507 39.0136 24.9157 38.6455C28.2604 34.0004 28.2673 27.9887 24.9168 23.3559C24.651 22.9885 24.7141 22.4601 25.0577 22.1759Z" fill="#191B1F"/>
<path d="M21.9185 24.3458C22.2619 24.0613 22.756 24.1283 23.022 24.4955C25.8654 28.4202 25.8538 33.5714 23.0234 37.5016C22.7583 37.8697 22.2645 37.9383 21.9204 37.6548C21.5762 37.3713 21.5121 36.8431 21.7772 36.475C24.1741 33.1467 24.1802 28.841 21.7786 25.526C21.5125 25.1588 21.5752 24.6304 21.9185 24.3458Z" fill="#191B1F"/>
<path d="M20.4099 27.483C20.1449 27.1148 19.6511 27.0461 19.3069 27.3294C18.9626 27.6128 18.8983 28.1409 19.1633 28.5091C20.2491 30.0181 20.2557 31.956 19.1636 33.4713C18.8984 33.8392 18.9623 34.3674 19.3064 34.6511C19.6504 34.9347 20.1443 34.8663 20.4095 34.4984C21.94 32.3749 21.9288 29.5938 20.4099 27.483Z" fill="#191B1F"/>
<path d="M19.8867 68.728C22.0307 67.864 22.7667 65.944 22.7987 63.72H25.4547V75H24.1427V65L24.3667 64.088H23.9827C23.8227 66.584 23.1027 68.936 20.3027 69.848L19.8867 68.728ZM27.6214 69.16C27.6214 65.096 29.7654 63.56 32.4694 63.56C34.8694 63.56 36.5014 64.888 36.5014 67.352C36.5014 71.016 32.8214 72.984 28.1654 73.72V74.088L29.0934 73.88H36.5014V75H27.7814V72.712C28.9334 72.552 35.1894 71.464 35.1894 67.336C35.1894 65.592 34.2134 64.68 32.5014 64.68C30.4214 64.68 28.9334 65.8 28.9334 69.16H27.6214ZM37.9842 70.984H39.2802C39.2802 72.968 40.4162 74.04 42.6722 74.04C44.7522 74.04 45.9522 72.888 45.9522 70.808C45.9522 69.08 45.1362 68.008 43.4082 68.008C41.9682 68.008 41.0882 68.712 40.5442 69.528L38.8642 68.664V63.72H46.4642V64.84H40.1602V67.576L39.9522 68.488L40.2722 68.664C40.8802 67.688 42.0642 66.888 43.6642 66.888C45.8882 66.888 47.2642 68.424 47.2642 70.872C47.2642 73.576 45.4242 75.16 42.6722 75.16C39.7762 75.16 37.9842 73.656 37.9842 70.984ZM49.2334 70.696H50.5454C50.5454 73.144 51.6014 74.04 53.8734 74.04C55.9214 74.04 56.7854 73.208 56.7854 71.688C56.7854 70.2 55.9694 69.624 54.6094 69.624H53.0414V68.504H54.6094C55.9694 68.504 56.6254 67.944 56.6254 66.728C56.6254 65.512 55.9214 64.68 53.8734 64.68C51.6014 64.68 50.7054 65.576 50.7054 67.416H49.3934C49.3934 64.904 50.9774 63.56 53.8734 63.56C56.5774 63.56 57.9374 64.824 57.9374 66.552C57.9374 67.928 57.2014 68.648 55.7614 68.872V69.24C57.2014 69.528 58.0974 70.152 58.0974 71.88C58.0974 73.896 56.5774 75.16 53.8734 75.16C50.9774 75.16 49.2334 73.816 49.2334 70.696ZM70.7186 70.984H72.0146C72.0146 72.968 73.1506 74.04 75.4066 74.04C77.4866 74.04 78.6866 72.888 78.6866 70.808C78.6866 69.08 77.8706 68.008 76.1426 68.008C74.7026 68.008 73.8226 68.712 73.2786 69.528L71.5986 68.664V63.72H79.1986V64.84H72.8946V67.576L72.6866 68.488L73.0066 68.664C73.6146 67.688 74.7986 66.888 76.3986 66.888C78.6226 66.888 79.9986 68.424 79.9986 70.872C79.9986 73.576 78.1586 75.16 75.4066 75.16C72.5106 75.16 70.7186 73.656 70.7186 70.984ZM90.7366 71.384V72.504H89.2806V75H87.9686V72.504H81.9846V70.168C84.5446 69.08 86.6726 66.824 87.0086 63.72H88.3206C87.9046 66.872 86.1766 69.528 82.3686 71.224V71.608L83.2966 71.384H87.9686V67.288H89.2806V71.384H90.7366ZM92.4209 70.696H93.7329C93.7329 73.144 94.7889 74.04 97.0609 74.04C99.1089 74.04 99.9729 73.208 99.9729 71.688C99.9729 70.2 99.1569 69.624 97.7969 69.624H96.2289V68.504H97.7969C99.1569 68.504 99.8129 67.944 99.8129 66.728C99.8129 65.512 99.1089 64.68 97.0609 64.68C94.7889 64.68 93.8929 65.576 93.8929 67.416H92.5809C92.5809 64.904 94.1649 63.56 97.0609 63.56C99.7649 63.56 101.125 64.824 101.125 66.552C101.125 67.928 100.389 68.648 98.9489 68.872V69.24C100.389 69.528 101.285 70.152 101.285 71.88C101.285 73.896 99.7649 75.16 97.0609 75.16C94.1649 75.16 92.4209 73.816 92.4209 70.696ZM103.137 69.16C103.137 65.096 105.281 63.56 107.985 63.56C110.385 63.56 112.017 64.888 112.017 67.352C112.017 71.016 108.337 72.984 103.681 73.72V74.088L104.609 73.88H112.017V75H103.297V72.712C104.449 72.552 110.705 71.464 110.705 67.336C110.705 65.592 109.729 64.68 108.017 64.68C105.937 64.68 104.449 65.8 104.449 69.16H103.137ZM124.577 70.696H125.889C125.889 73.144 126.945 74.04 129.217 74.04C131.265 74.04 132.129 73.208 132.129 71.688C132.129 70.2 131.313 69.624 129.953 69.624H128.385V68.504H129.953C131.313 68.504 131.969 67.944 131.969 66.728C131.969 65.512 131.265 64.68 129.217 64.68C126.945 64.68 126.049 65.576 126.049 67.416H124.737C124.737 64.904 126.321 63.56 129.217 63.56C131.921 63.56 133.281 64.824 133.281 66.552C133.281 67.928 132.545 68.648 131.105 68.872V69.24C132.545 69.528 133.441 70.152 133.441 71.88C133.441 73.896 131.921 75.16 129.217 75.16C126.321 75.16 124.577 73.816 124.577 70.696ZM135.437 70.984H136.733C136.733 72.968 137.869 74.04 140.125 74.04C142.205 74.04 143.405 72.888 143.405 70.808C143.405 69.08 142.589 68.008 140.861 68.008C139.421 68.008 138.541 68.712 137.997 69.528L136.317 68.664V63.72H143.917V64.84H137.613V67.576L137.405 68.488L137.725 68.664C138.333 67.688 139.517 66.888 141.117 66.888C143.341 66.888 144.717 68.424 144.717 70.872C144.717 73.576 142.877 75.16 140.125 75.16C137.229 75.16 135.437 73.656 135.437 70.984ZM146.293 69.16C146.293 65.096 148.437 63.56 151.141 63.56C153.541 63.56 155.173 64.888 155.173 67.352C155.173 71.016 151.493 72.984 146.837 73.72V74.088L147.765 73.88H155.173V75H146.453V72.712C147.605 72.552 153.861 71.464 153.861 67.336C153.861 65.592 152.885 64.68 151.173 64.68C149.093 64.68 147.605 65.8 147.605 69.16H146.293ZM156.855 68.728C158.999 67.864 159.735 65.944 159.767 63.72H162.423V75H161.111V65L161.335 64.088H160.951C160.791 66.584 160.071 68.936 157.271 69.848L156.855 68.728ZM175.327 70.696H176.639C176.639 73.144 177.695 74.04 179.967 74.04C182.015 74.04 182.879 73.208 182.879 71.688C182.879 70.2 182.063 69.624 180.703 69.624H179.135V68.504H180.703C182.063 68.504 182.719 67.944 182.719 66.728C182.719 65.512 182.015 64.68 179.967 64.68C177.695 64.68 176.799 65.576 176.799 67.416H175.487C175.487 64.904 177.071 63.56 179.967 63.56C182.671 63.56 184.031 64.824 184.031 66.552C184.031 67.928 183.295 68.648 181.855 68.872V69.24C183.295 69.528 184.191 70.152 184.191 71.88C184.191 73.896 182.671 75.16 179.967 75.16C177.071 75.16 175.327 73.816 175.327 70.696ZM190.878 63.56C194.014 63.56 195.662 66.04 195.662 69.352C195.662 72.68 194.014 75.16 190.878 75.16C187.71 75.16 186.062 72.68 186.062 69.352C186.062 66.04 187.71 63.56 190.878 63.56ZM190.878 64.68C188.526 64.68 187.358 66.632 187.358 69.352C187.358 70.408 187.534 71.336 187.87 72.088L193.182 65.608C192.606 65.016 191.854 64.68 190.878 64.68ZM190.878 74.04C193.214 74.04 194.366 72.088 194.366 69.352C194.366 68.296 194.19 67.368 193.854 66.616L188.542 73.096C189.118 73.704 189.886 74.04 190.878 74.04ZM206.383 69C206.383 72.664 205.055 75.528 201.423 75.16L198.159 74.84V73.72L201.423 74.04C204.143 74.312 205.023 72.232 205.327 69.992L205.711 69.08H205.327C205.007 70.712 203.391 71.832 201.375 71.832C198.847 71.832 197.343 70.136 197.343 67.768C197.343 65.32 199.055 63.56 201.855 63.56C204.559 63.56 206.383 65.368 206.383 69ZM205.071 67.608C205.071 66.168 203.919 64.68 201.855 64.68C199.823 64.68 198.655 65.8 198.655 67.768C198.655 69.544 199.695 70.712 201.551 70.712C203.551 70.712 205.071 69.528 205.071 67.608ZM213.175 63.56C216.311 63.56 217.959 66.04 217.959 69.352C217.959 72.68 216.311 75.16 213.175 75.16C210.007 75.16 208.359 72.68 208.359 69.352C208.359 66.04 210.007 63.56 213.175 63.56ZM213.175 64.68C210.823 64.68 209.655 66.632 209.655 69.352C209.655 70.408 209.831 71.336 210.167 72.088L215.479 65.608C214.903 65.016 214.151 64.68 213.175 64.68ZM213.175 74.04C215.511 74.04 216.663 72.088 216.663 69.352C216.663 68.296 216.487 67.368 216.151 66.616L210.839 73.096C211.415 73.704 212.183 74.04 213.175 74.04Z" fill="#171718"/>
<rect width="261" height="62" transform="translate(1 96)" fill="white"/>
<path d="M26.491 119.366C26.491 120.697 25.556 121.61 23.169 121.61C20.375 121.61 19.33 120.466 19.33 118.508H21.09C21.09 119.696 21.684 120.07 23.224 120.07C24.357 120.07 24.731 119.806 24.731 119.388C24.731 118.827 23.785 118.574 22.652 118.189C21.013 117.639 19.682 117.199 19.682 115.681C19.682 114.361 20.727 113.635 22.729 113.635C25.105 113.635 26.172 114.845 26.172 116.385H24.412C24.412 115.439 23.686 115.175 22.729 115.175C21.937 115.175 21.442 115.351 21.442 115.747C21.442 116.099 21.629 116.231 22.872 116.649C24.302 117.133 26.491 117.749 26.491 119.366ZM27.4855 118.717C27.4855 116.781 28.8715 115.835 30.6205 115.835C32.3585 115.835 33.7445 116.781 33.7445 118.717C33.7445 120.664 32.3585 121.61 30.6205 121.61C28.8715 121.61 27.4855 120.664 27.4855 118.717ZM29.2455 118.717C29.2455 119.652 29.7845 120.07 30.6205 120.07C31.4455 120.07 31.9845 119.652 31.9845 118.717C31.9845 117.793 31.4455 117.375 30.6205 117.375C29.7845 117.375 29.2455 117.793 29.2455 118.717ZM34.956 121.5V116.781C34.956 116.176 35.297 115.846 35.902 115.857L39.543 115.945V117.485L36.716 117.419V121.5H34.956ZM40.4289 118.717C40.4289 116.781 41.8149 115.835 43.5639 115.835C45.3019 115.835 46.6879 116.781 46.6879 118.717C46.6879 120.664 45.3019 121.61 43.5639 121.61C41.8149 121.61 40.4289 120.664 40.4289 118.717ZM42.1889 118.717C42.1889 119.652 42.7279 120.07 43.5639 120.07C44.3889 120.07 44.9279 119.652 44.9279 118.717C44.9279 117.793 44.3889 117.375 43.5639 117.375C42.7279 117.375 42.1889 117.793 42.1889 118.717ZM50.6935 120.07C51.6505 120.07 52.2775 119.564 52.2775 118.002V115.945H54.0375V121.5H52.2775V120.829L52.6075 119.839H52.1675C51.9475 120.829 51.2545 121.61 50.0665 121.61C48.6475 121.61 47.7895 120.664 47.7895 118.948V115.945H49.5495V118.673C49.5495 119.685 49.8465 120.07 50.6935 120.07ZM60.6533 119.971C60.6533 120.906 59.9823 121.61 58.0683 121.61C56.0223 121.61 55.1423 120.785 55.1423 119.487H56.9023C56.9023 119.916 57.1993 120.29 58.1233 120.29C58.5963 120.29 58.8933 120.18 58.8933 119.916C58.8933 119.63 58.5853 119.553 57.6943 119.256C56.6603 118.915 55.3953 118.64 55.3953 117.397C55.3953 116.407 56.2863 115.835 57.8153 115.835C59.6963 115.835 60.4663 116.77 60.4663 117.848H58.7063C58.7063 117.452 58.4093 117.155 57.8043 117.155C57.3863 117.155 57.1553 117.254 57.1553 117.474C57.1553 117.738 57.7053 117.903 58.5853 118.189C59.6633 118.541 60.6533 118.816 60.6533 119.971ZM65.7271 115.835C67.1461 115.835 68.0041 116.781 68.0041 118.497V121.5H66.2441V118.772C66.2441 117.76 65.9471 117.375 65.1001 117.375C64.1431 117.375 63.5161 117.881 63.5161 119.443V121.5H61.7561V113.415H63.5161V116.616L63.1861 117.606H63.6261C63.8461 116.616 64.5391 115.835 65.7271 115.835ZM73.1741 121.5V113.745H76.6391L78.9821 121.06H79.4221L79.0921 119.96V113.745H80.8521V121.5H77.3871L75.0441 114.185H74.6041L74.9341 115.285V121.5H73.1741ZM82.0631 119.982C82.0631 119.025 82.6351 118.464 84.2851 118.233L86.0341 117.991C86.0341 117.54 85.6821 117.265 84.9231 117.265C84.2191 117.265 83.8231 117.562 83.8231 118.068H82.1731C82.1731 116.66 83.3721 115.835 84.9231 115.835C86.4521 115.835 87.7941 116.572 87.7941 118.398V119.96H88.5971V121.5H87.3761C86.8481 121.5 86.5511 121.203 86.5511 120.675V120.565L86.8261 119.905H86.3861C86.1771 120.829 85.6381 121.61 84.0871 121.61C82.3601 121.61 82.0631 120.554 82.0631 119.982ZM83.8231 119.652C83.8231 119.971 84.1311 120.07 84.4281 120.07C85.3961 120.07 86.0341 119.663 86.0341 118.981L84.6151 119.179C84.0871 119.256 83.8231 119.333 83.8231 119.652ZM94.8758 119.971C94.8758 120.906 94.2048 121.61 92.2908 121.61C90.2448 121.61 89.3648 120.785 89.3648 119.487H91.1248C91.1248 119.916 91.4218 120.29 92.3458 120.29C92.8188 120.29 93.1158 120.18 93.1158 119.916C93.1158 119.63 92.8078 119.553 91.9168 119.256C90.8828 118.915 89.6178 118.64 89.6178 117.397C89.6178 116.407 90.5088 115.835 92.0378 115.835C93.9188 115.835 94.6888 116.77 94.6888 117.848H92.9288C92.9288 117.452 92.6318 117.155 92.0268 117.155C91.6088 117.155 91.3778 117.254 91.3778 117.474C91.3778 117.738 91.9278 117.903 92.8078 118.189C93.8858 118.541 94.8758 118.816 94.8758 119.971ZM95.9785 121.5V116.781C95.9785 116.176 96.3195 115.846 96.9245 115.857L100.566 115.945V117.485L97.7385 117.419V121.5H95.9785ZM101.779 115.945H103.539V116.286L103.209 117.276H103.649C103.935 116.539 104.463 115.835 105.838 115.835C107.444 115.835 108.247 117.155 108.247 118.728C108.247 120.301 107.444 121.61 105.838 121.61C104.463 121.61 103.935 120.906 103.649 120.169H103.209L103.539 121.159V123.59H101.779V115.945ZM103.539 118.728C103.539 119.674 104.067 120.07 105.013 120.07C105.959 120.07 106.487 119.674 106.487 118.728C106.487 117.782 105.959 117.375 105.013 117.375C104.067 117.375 103.539 117.782 103.539 118.728ZM109.239 118.717C109.239 116.781 110.625 115.835 112.374 115.835C114.112 115.835 115.498 116.781 115.498 118.717C115.498 120.664 114.112 121.61 112.374 121.61C110.625 121.61 109.239 120.664 109.239 118.717ZM110.999 118.717C110.999 119.652 111.538 120.07 112.374 120.07C113.199 120.07 113.738 119.652 113.738 118.717C113.738 117.793 113.199 117.375 112.374 117.375C111.538 117.375 110.999 117.793 110.999 118.717ZM119.504 120.07C120.461 120.07 121.088 119.564 121.088 118.002V115.945H122.848V121.5H121.088V120.829L121.418 119.839H120.978C120.758 120.829 120.065 121.61 118.877 121.61C117.458 121.61 116.6 120.664 116.6 118.948V115.945H118.36V118.673C118.36 119.685 118.657 120.07 119.504 120.07ZM124.164 121.5V116.781C124.164 116.176 124.505 115.846 125.11 115.857L128.751 115.945V117.485L125.924 117.419V121.5H124.164Z" fill="#171718"/>
<path d="M19.73 138.5V131.45H24.1V132.15H20.55V134.62H23.6V135.32H20.55V137.8H24.1V138.5H19.73ZM24.9476 138.5L26.8176 136.13V135.89L24.9476 133.53H25.9176L27.4276 135.53L28.9376 133.53H29.9076L28.0376 135.89V136.13L29.9076 138.5H28.9376L27.4276 136.49L25.9176 138.5H24.9476ZM31.0386 133.53H31.8586V134.26L31.7286 134.83H31.9586C32.1686 134.05 32.8286 133.43 33.9686 133.43C35.4086 133.43 36.3386 134.54 36.3386 136.02C36.3386 137.49 35.4086 138.6 33.9686 138.6C32.8286 138.6 32.1686 137.98 31.9586 137.21H31.7286L31.8586 137.77V140.32H31.0386V133.53ZM31.8586 136.02C31.8586 137.34 32.7086 137.9 33.7286 137.9C34.7586 137.9 35.5186 137.32 35.5186 136.02C35.5186 134.71 34.7586 134.13 33.7286 134.13C32.7086 134.13 31.8586 134.69 31.8586 136.02Z" fill="#525866"/>
<path d="M44.8 131.35C46.93 131.35 48.19 132.82 48.19 134.97C48.19 137.13 46.93 138.6 44.8 138.6C42.66 138.6 41.4 137.13 41.4 134.97C41.4 132.82 42.66 131.35 44.8 131.35ZM44.8 132.75C43.67 132.75 43 133.52 43 134.97C43 135.32 43.04 135.62 43.11 135.89L45.8 133.02C45.53 132.84 45.19 132.75 44.8 132.75ZM44.8 137.2C45.93 137.2 46.59 136.43 46.59 134.97C46.59 134.63 46.55 134.32 46.48 134.05L43.79 136.92C44.07 137.11 44.41 137.2 44.8 137.2ZM55.7179 134.92C55.7179 137.12 54.7479 138.81 52.2279 138.6L49.8579 138.4V137L52.2279 137.2C53.5079 137.31 54.2879 136.94 54.5879 135.62L54.9879 134.72H54.5879C54.4679 135.9 53.3979 136.6 52.0779 136.6C50.3279 136.6 49.2879 135.63 49.2879 134.02C49.2879 132.45 50.4979 131.35 52.4979 131.35C54.4379 131.35 55.7179 132.48 55.7179 134.92ZM54.1179 133.92C54.1179 133.31 53.6179 132.75 52.4979 132.75C51.3979 132.75 50.8879 133.08 50.8879 134.02C50.8879 134.84 51.3779 135.2 52.4579 135.2C53.6279 135.2 54.1179 134.75 54.1179 133.92ZM60.4945 130.36L61.6245 130.8L58.2445 139.59L57.1145 139.15L60.4945 130.36ZM62.9223 134.68C62.9223 132.31 64.4023 131.35 66.2523 131.35C67.9223 131.35 69.0823 132.18 69.0823 133.72C69.0823 136.09 66.7223 136.39 63.4223 137V137.4L64.4223 137.1H69.0823V138.5H63.0223V135.7C63.7423 135.6 67.4823 135.21 67.4823 133.65C67.4823 133.2 67.1823 132.75 66.2723 132.75C65.0623 132.75 64.5223 133.33 64.5223 134.68H62.9223ZM76.0348 135.91V137.31H75.2648V138.5H73.6648V137.31H69.9848V134.4C71.6648 134.14 72.6948 133.12 72.8148 131.45H74.4148C74.3048 133.78 72.8848 135.29 70.3848 135.81V136.21L71.3848 135.91H73.6648V134.35H75.2648V135.91H76.0348Z" fill="#171718"/>
<path d="M213.599 135.181H209.4L212.024 118.761H216.222L213.599 135.181Z" fill="#0056A0"/>
<path d="M205.866 118.761L201.862 130.055L201.387 127.621L199.976 120.224C199.976 120.224 199.804 118.761 197.983 118.761H191.364L191.286 119.037C192.836 119.434 194.317 120.068 195.679 120.918L199.329 135.181H203.705L210.384 118.761H205.866Z" fill="#0056A0"/>
<path d="M238.897 135.18H242.754L239.393 118.76H236.014C235.605 118.728 235.197 118.83 234.849 119.05C234.5 119.271 234.23 119.598 234.077 119.986L227.812 135.18H232.191L233.054 132.742H238.405L238.897 135.18ZM234.275 129.373L236.485 123.223L237.723 129.373H234.275Z" fill="#0056A0"/>
<path d="M228.14 122.71L228.74 119.196C227.528 118.749 226.253 118.503 224.965 118.466C222.88 118.466 217.931 119.393 217.931 123.905C217.931 128.148 223.739 128.201 223.739 130.428C223.739 132.655 218.531 132.255 216.809 130.867L216.184 134.535C217.685 135.177 219.302 135.494 220.93 135.466C223.795 135.466 228.119 133.955 228.119 129.844C228.119 125.574 222.259 125.174 222.259 123.32C222.259 121.467 226.345 121.699 228.14 122.71Z" fill="#0056A0"/>
<path d="M201.387 127.625L199.976 120.224C199.976 120.224 199.804 118.761 197.983 118.761H191.364L191.286 119.037C193.566 119.629 195.693 120.716 197.521 122.222C199.257 123.643 200.591 125.508 201.387 127.625Z" fill="#FAA713"/>
</g>
<rect x="0.5" y="0.5" width="262" height="158" rx="8.5" stroke="#C4DAEE"/>
<defs>
<clipPath id="clip0_1647_22745">
<rect x="1" y="1" width="261" height="157" rx="8" fill="white"/>
</clipPath>
</defs>
</svg>
