<svg width="340" height="261" viewBox="0 0 340 261" fill="none" xmlns="http://www.w3.org/2000/svg">
<path d="M52.7728 107.303L169.819 22.2644L286.865 107.303L242.157 244.899H97.4803L52.7728 107.303Z" stroke="#E2E8F0" strokeWidth="1.23835"/>
<path opacity="0.8" d="M78.8137 115.807L169.688 49.7832L260.562 115.807L225.851 222.636H113.524L78.8137 115.807Z" stroke="#E2E8F0" strokeWidth="1.23835"/>
<path opacity="0.6" d="M104.986 124.311L169.688 77.302L234.39 124.311L209.676 200.372H129.7L104.986 124.311Z" stroke="#E2E8F0" strokeWidth="1.23835"/>
<path opacity="0.4" d="M131.158 132.815L169.688 104.821L208.218 132.815L193.501 178.109H145.875L131.158 132.815Z" stroke="#E2E8F0" strokeWidth="1.23835"/>
<path opacity="0.2" d="M182.046 141.318L169.688 132.34L157.33 141.318L162.05 155.846H177.326L182.046 141.318Z" stroke="#E2E8F0" strokeWidth="1.23835"/>
<path d="M155.766 12V3.06H161.706V4.5H157.398V6.792H161.466V8.232H157.398V10.56H161.706V12H155.766ZM165.807 12.144C165.175 12.144 164.611 11.996 164.115 11.7C163.619 11.396 163.227 10.984 162.939 10.464C162.651 9.944 162.507 9.368 162.507 8.736C162.507 8.096 162.651 7.52 162.939 7.008C163.227 6.496 163.619 6.088 164.115 5.784C164.619 5.48 165.179 5.328 165.795 5.328C166.291 5.328 166.731 5.428 167.115 5.628C167.507 5.82 167.815 6.092 168.039 6.444L167.799 6.768V2.916H169.371V12H167.883V10.74L168.051 11.052C167.827 11.404 167.515 11.676 167.115 11.868C166.715 12.052 166.279 12.144 165.807 12.144ZM165.975 10.704C166.335 10.704 166.651 10.62 166.923 10.452C167.195 10.284 167.407 10.052 167.559 9.756C167.719 9.46 167.799 9.12 167.799 8.736C167.799 8.36 167.719 8.024 167.559 7.728C167.407 7.424 167.195 7.188 166.923 7.02C166.651 6.852 166.335 6.768 165.975 6.768C165.623 6.768 165.307 6.856 165.027 7.032C164.747 7.2 164.527 7.432 164.367 7.728C164.215 8.016 164.139 8.352 164.139 8.736C164.139 9.12 164.215 9.46 164.367 9.756C164.527 10.052 164.747 10.284 165.027 10.452C165.307 10.62 165.623 10.704 165.975 10.704ZM174.001 14.64C173.513 14.64 173.061 14.56 172.645 14.4C172.229 14.24 171.869 14.016 171.565 13.728C171.269 13.448 171.053 13.116 170.917 12.732L172.381 12.18C172.477 12.484 172.665 12.728 172.945 12.912C173.233 13.104 173.585 13.2 174.001 13.2C174.321 13.2 174.601 13.14 174.841 13.02C175.089 12.9 175.281 12.724 175.417 12.492C175.553 12.268 175.621 11.996 175.621 11.676V10.188L175.921 10.548C175.697 10.94 175.397 11.236 175.021 11.436C174.645 11.636 174.217 11.736 173.737 11.736C173.129 11.736 172.585 11.596 172.105 11.316C171.625 11.036 171.249 10.652 170.977 10.164C170.705 9.676 170.569 9.128 170.569 8.52C170.569 7.904 170.705 7.356 170.977 6.876C171.249 6.396 171.621 6.02 172.093 5.748C172.565 5.468 173.101 5.328 173.701 5.328C174.189 5.328 174.617 5.432 174.985 5.64C175.361 5.84 175.673 6.132 175.921 6.516L175.705 6.912V5.472H177.193V11.676C177.193 12.244 177.053 12.752 176.773 13.2C176.501 13.648 176.125 14 175.645 14.256C175.173 14.512 174.625 14.64 174.001 14.64ZM173.929 10.284C174.265 10.284 174.557 10.212 174.805 10.068C175.061 9.916 175.261 9.708 175.405 9.444C175.549 9.18 175.621 8.876 175.621 8.532C175.621 8.196 175.545 7.896 175.393 7.632C175.249 7.36 175.049 7.148 174.793 6.996C174.545 6.844 174.257 6.768 173.929 6.768C173.601 6.768 173.305 6.844 173.041 6.996C172.777 7.148 172.569 7.36 172.417 7.632C172.273 7.896 172.201 8.196 172.201 8.532C172.201 8.868 172.273 9.168 172.417 9.432C172.569 9.696 172.773 9.904 173.029 10.056C173.293 10.208 173.593 10.284 173.929 10.284ZM181.757 12.144C181.085 12.144 180.497 11.992 179.993 11.688C179.489 11.384 179.097 10.972 178.817 10.452C178.537 9.932 178.397 9.356 178.397 8.724C178.397 8.068 178.537 7.488 178.817 6.984C179.105 6.472 179.493 6.068 179.981 5.772C180.477 5.476 181.029 5.328 181.637 5.328C182.149 5.328 182.597 5.412 182.981 5.58C183.373 5.748 183.705 5.98 183.977 6.276C184.249 6.572 184.457 6.912 184.601 7.296C184.745 7.672 184.817 8.08 184.817 8.52C184.817 8.632 184.809 8.748 184.793 8.868C184.785 8.988 184.765 9.092 184.733 9.18H179.693V7.98H183.845L183.101 8.544C183.173 8.176 183.153 7.848 183.041 7.56C182.937 7.272 182.761 7.044 182.513 6.876C182.273 6.708 181.981 6.624 181.637 6.624C181.309 6.624 181.017 6.708 180.761 6.876C180.505 7.036 180.309 7.276 180.173 7.596C180.045 7.908 179.997 8.288 180.029 8.736C179.997 9.136 180.049 9.492 180.185 9.804C180.329 10.108 180.537 10.344 180.809 10.512C181.089 10.68 181.409 10.764 181.769 10.764C182.129 10.764 182.433 10.688 182.681 10.536C182.937 10.384 183.137 10.18 183.281 9.924L184.553 10.548C184.425 10.86 184.225 11.136 183.953 11.376C183.681 11.616 183.357 11.804 182.981 11.94C182.613 12.076 182.205 12.144 181.757 12.144Z" fill="#525866"/>
<path d="M296.11 104.229C295.47 104.229 294.878 104.113 294.334 103.881C293.798 103.649 293.326 103.325 292.918 102.909C292.518 102.493 292.206 102.005 291.982 101.445C291.758 100.885 291.646 100.273 291.646 99.6088C291.646 98.9448 291.754 98.3328 291.97 97.7728C292.194 97.2048 292.506 96.7168 292.906 96.3088C293.314 95.8928 293.79 95.5728 294.334 95.3488C294.878 95.1168 295.47 95.0008 296.11 95.0008C296.75 95.0008 297.322 95.1088 297.826 95.3248C298.338 95.5408 298.77 95.8288 299.122 96.1888C299.474 96.5408 299.726 96.9288 299.878 97.3528L298.414 98.0368C298.246 97.5888 297.962 97.2208 297.562 96.9328C297.162 96.6368 296.678 96.4888 296.11 96.4888C295.55 96.4888 295.054 96.6208 294.622 96.8848C294.198 97.1488 293.866 97.5128 293.626 97.9768C293.394 98.4408 293.278 98.9848 293.278 99.6088C293.278 100.233 293.394 100.781 293.626 101.253C293.866 101.717 294.198 102.081 294.622 102.345C295.054 102.609 295.55 102.741 296.11 102.741C296.678 102.741 297.162 102.597 297.562 102.309C297.962 102.013 298.246 101.641 298.414 101.193L299.878 101.877C299.726 102.301 299.474 102.693 299.122 103.053C298.77 103.405 298.338 103.689 297.826 103.905C297.322 104.121 296.75 104.229 296.11 104.229ZM301.071 104.085V95.0008H302.643V98.8408L302.427 98.6128C302.579 98.2208 302.827 97.9248 303.171 97.7248C303.523 97.5168 303.931 97.4128 304.395 97.4128C304.875 97.4128 305.299 97.5168 305.667 97.7248C306.043 97.9328 306.335 98.2248 306.543 98.6008C306.751 98.9688 306.855 99.3968 306.855 99.8848V104.085H305.283V100.257C305.283 99.9688 305.227 99.7208 305.115 99.5128C305.003 99.3048 304.847 99.1448 304.647 99.0328C304.455 98.9128 304.227 98.8528 303.963 98.8528C303.707 98.8528 303.479 98.9128 303.279 99.0328C303.079 99.1448 302.923 99.3048 302.811 99.5128C302.699 99.7208 302.643 99.9688 302.643 100.257V104.085H301.071ZM308.184 104.085V97.5568H309.66V99.0088L309.54 98.7928C309.692 98.3048 309.928 97.9648 310.248 97.7728C310.576 97.5808 310.968 97.4848 311.424 97.4848H311.808V98.8768H311.244C310.796 98.8768 310.436 99.0168 310.164 99.2968C309.892 99.5688 309.756 99.9528 309.756 100.449V104.085H308.184ZM315.864 104.229C315.224 104.229 314.64 104.081 314.112 103.785C313.592 103.489 313.176 103.085 312.864 102.573C312.56 102.061 312.408 101.477 312.408 100.821C312.408 100.165 312.56 99.5808 312.864 99.0688C313.176 98.5568 313.592 98.1528 314.112 97.8568C314.632 97.5608 315.216 97.4128 315.864 97.4128C316.504 97.4128 317.084 97.5608 317.604 97.8568C318.124 98.1528 318.536 98.5568 318.84 99.0688C319.152 99.5728 319.308 100.157 319.308 100.821C319.308 101.477 319.152 102.061 318.84 102.573C318.528 103.085 318.112 103.489 317.592 103.785C317.072 104.081 316.496 104.229 315.864 104.229ZM315.864 102.789C316.216 102.789 316.524 102.705 316.788 102.537C317.06 102.369 317.272 102.137 317.424 101.841C317.584 101.537 317.664 101.197 317.664 100.821C317.664 100.437 317.584 100.101 317.424 99.8128C317.272 99.5168 317.06 99.2848 316.788 99.1168C316.524 98.9408 316.216 98.8528 315.864 98.8528C315.504 98.8528 315.188 98.9408 314.916 99.1168C314.644 99.2848 314.428 99.5168 314.268 99.8128C314.116 100.101 314.04 100.437 314.04 100.821C314.04 101.197 314.116 101.537 314.268 101.841C314.428 102.137 314.644 102.369 314.916 102.537C315.188 102.705 315.504 102.789 315.864 102.789ZM320.501 104.085V97.5568H321.977V99.0688L321.809 98.8168C321.929 98.3448 322.169 97.9928 322.529 97.7608C322.889 97.5288 323.313 97.4128 323.801 97.4128C324.337 97.4128 324.809 97.5528 325.217 97.8328C325.625 98.1128 325.889 98.4808 326.009 98.9368L325.565 98.9728C325.765 98.4528 326.065 98.0648 326.465 97.8088C326.865 97.5448 327.325 97.4128 327.845 97.4128C328.309 97.4128 328.721 97.5168 329.081 97.7248C329.449 97.9328 329.737 98.2248 329.945 98.6008C330.153 98.9688 330.257 99.3968 330.257 99.8848V104.085H328.685V100.257C328.685 99.9688 328.633 99.7208 328.529 99.5128C328.425 99.3048 328.281 99.1448 328.097 99.0328C327.913 98.9128 327.689 98.8528 327.425 98.8528C327.177 98.8528 326.957 98.9128 326.765 99.0328C326.573 99.1448 326.425 99.3048 326.321 99.5128C326.217 99.7208 326.165 99.9688 326.165 100.257V104.085H324.593V100.257C324.593 99.9688 324.541 99.7208 324.437 99.5128C324.333 99.3048 324.185 99.1448 323.993 99.0328C323.809 98.9128 323.589 98.8528 323.333 98.8528C323.085 98.8528 322.865 98.9128 322.673 99.0328C322.481 99.1448 322.333 99.3048 322.229 99.5128C322.125 99.7208 322.073 99.9688 322.073 100.257V104.085H320.501ZM334.682 104.229C334.01 104.229 333.422 104.077 332.918 103.773C332.414 103.469 332.022 103.057 331.742 102.537C331.462 102.017 331.322 101.441 331.322 100.809C331.322 100.153 331.462 99.5728 331.742 99.0688C332.03 98.5568 332.418 98.1528 332.906 97.8568C333.402 97.5608 333.954 97.4128 334.562 97.4128C335.074 97.4128 335.522 97.4968 335.906 97.6648C336.298 97.8328 336.63 98.0648 336.902 98.3608C337.174 98.6568 337.382 98.9968 337.526 99.3808C337.67 99.7568 337.742 100.165 337.742 100.605C337.742 100.717 337.734 100.833 337.718 100.953C337.71 101.073 337.69 101.177 337.658 101.265H332.618V100.065H336.77L336.026 100.629C336.098 100.261 336.078 99.9328 335.966 99.6448C335.862 99.3568 335.686 99.1288 335.438 98.9608C335.198 98.7928 334.906 98.7088 334.562 98.7088C334.234 98.7088 333.942 98.7928 333.686 98.9608C333.43 99.1208 333.234 99.3608 333.098 99.6808C332.97 99.9928 332.922 100.373 332.954 100.821C332.922 101.221 332.974 101.577 333.11 101.889C333.254 102.193 333.462 102.429 333.734 102.597C334.014 102.765 334.334 102.849 334.694 102.849C335.054 102.849 335.358 102.773 335.606 102.621C335.862 102.469 336.062 102.265 336.206 102.009L337.478 102.633C337.35 102.945 337.15 103.221 336.878 103.461C336.606 103.701 336.282 103.889 335.906 104.025C335.538 104.161 335.13 104.229 334.682 104.229Z" fill="#525866"/>
<path d="M244.853 257.64V248.7H246.485V257.64H244.853ZM248.204 257.64V248.7H254.144V250.14H249.836V252.432H253.904V253.872H249.836V256.2H254.144V257.64H248.204ZM255.605 257.64L258.641 253.728L258.917 254.016C258.797 254.104 258.681 254.176 258.569 254.232C258.457 254.288 258.337 254.328 258.209 254.352C258.081 254.376 257.945 254.388 257.801 254.388C257.257 254.388 256.773 254.264 256.349 254.016C255.925 253.768 255.589 253.432 255.341 253.008C255.101 252.576 254.981 252.088 254.981 251.544C254.981 250.968 255.113 250.456 255.377 250.008C255.649 249.56 256.017 249.208 256.481 248.952C256.953 248.688 257.489 248.556 258.089 248.556C258.697 248.556 259.233 248.684 259.697 248.94C260.161 249.196 260.525 249.548 260.789 249.996C261.061 250.436 261.197 250.944 261.197 251.52C261.197 251.808 261.165 252.096 261.101 252.384C261.037 252.672 260.921 252.98 260.753 253.308C260.593 253.628 260.361 253.992 260.057 254.4L257.561 257.64H255.605ZM258.089 253.02C258.369 253.02 258.617 252.96 258.833 252.84C259.057 252.712 259.233 252.536 259.361 252.312C259.489 252.08 259.553 251.82 259.553 251.532C259.553 251.228 259.485 250.964 259.349 250.74C259.221 250.516 259.049 250.34 258.833 250.212C258.617 250.084 258.369 250.02 258.089 250.02C257.817 250.02 257.569 250.084 257.345 250.212C257.121 250.34 256.941 250.516 256.805 250.74C256.677 250.964 256.613 251.228 256.613 251.532C256.613 251.82 256.677 252.08 256.805 252.312C256.941 252.536 257.121 252.712 257.345 252.84C257.569 252.96 257.817 253.02 258.089 253.02ZM264.984 257.64V255.312H262.656V253.956H264.984V251.64H266.34V253.956H268.656V255.312H266.34V257.64H264.984Z" fill="#525866"/>
<path d="M1.00072 109.176V100.236H6.96472V101.676H2.63272V104.148H6.42472V105.588H2.63272V109.176H1.00072ZM7.89997 109.176V102.648H9.47197V109.176H7.89997ZM7.89997 101.916V100.236H9.47197V101.916H7.89997ZM10.9234 109.176V102.648H12.3994V104.1L12.2794 103.884C12.4314 103.396 12.6674 103.056 12.9874 102.864C13.3154 102.672 13.7074 102.576 14.1634 102.576H14.5474V103.968H13.9834C13.5354 103.968 13.1754 104.108 12.9034 104.388C12.6314 104.66 12.4954 105.044 12.4954 105.54V109.176H10.9234ZM18.5077 109.32C17.8357 109.32 17.2477 109.168 16.7437 108.864C16.2397 108.56 15.8477 108.148 15.5677 107.628C15.2877 107.108 15.1477 106.532 15.1477 105.9C15.1477 105.244 15.2877 104.664 15.5677 104.16C15.8557 103.648 16.2437 103.244 16.7317 102.948C17.2277 102.652 17.7797 102.504 18.3877 102.504C18.8997 102.504 19.3477 102.588 19.7317 102.756C20.1237 102.924 20.4557 103.156 20.7277 103.452C20.9997 103.748 21.2077 104.088 21.3517 104.472C21.4957 104.848 21.5677 105.256 21.5677 105.696C21.5677 105.808 21.5597 105.924 21.5437 106.044C21.5357 106.164 21.5157 106.268 21.4837 106.356H16.4437V105.156H20.5957L19.8517 105.72C19.9237 105.352 19.9037 105.024 19.7917 104.736C19.6877 104.448 19.5117 104.22 19.2637 104.052C19.0237 103.884 18.7317 103.8 18.3877 103.8C18.0597 103.8 17.7677 103.884 17.5117 104.052C17.2557 104.212 17.0597 104.452 16.9237 104.772C16.7957 105.084 16.7477 105.464 16.7797 105.912C16.7477 106.312 16.7997 106.668 16.9357 106.98C17.0797 107.284 17.2877 107.52 17.5597 107.688C17.8397 107.856 18.1597 107.94 18.5197 107.94C18.8797 107.94 19.1837 107.864 19.4317 107.712C19.6877 107.56 19.8877 107.356 20.0317 107.1L21.3037 107.724C21.1757 108.036 20.9757 108.312 20.7037 108.552C20.4317 108.792 20.1077 108.98 19.7317 109.116C19.3637 109.252 18.9557 109.32 18.5077 109.32ZM23.5153 109.176V104.052H22.3633V102.648H23.5153V102.432C23.5153 101.936 23.6153 101.516 23.8153 101.172C24.0233 100.82 24.3113 100.552 24.6793 100.368C25.0473 100.184 25.4833 100.092 25.9873 100.092C26.0833 100.092 26.1873 100.1 26.2993 100.116C26.4193 100.124 26.5193 100.136 26.5993 100.152V101.508C26.5193 101.492 26.4433 101.484 26.3713 101.484C26.3073 101.476 26.2473 101.472 26.1913 101.472C25.8393 101.472 25.5673 101.552 25.3753 101.712C25.1833 101.864 25.0873 102.104 25.0873 102.432V102.648H26.5393V104.052H25.0873V109.176H23.5153ZM30.6388 109.32C29.9988 109.32 29.4148 109.172 28.8868 108.876C28.3668 108.58 27.9508 108.176 27.6388 107.664C27.3348 107.152 27.1828 106.568 27.1828 105.912C27.1828 105.256 27.3348 104.672 27.6388 104.16C27.9508 103.648 28.3668 103.244 28.8868 102.948C29.4068 102.652 29.9908 102.504 30.6388 102.504C31.2788 102.504 31.8588 102.652 32.3788 102.948C32.8988 103.244 33.3108 103.648 33.6148 104.16C33.9268 104.664 34.0828 105.248 34.0828 105.912C34.0828 106.568 33.9268 107.152 33.6148 107.664C33.3028 108.176 32.8868 108.58 32.3668 108.876C31.8468 109.172 31.2708 109.32 30.6388 109.32ZM30.6388 107.88C30.9908 107.88 31.2988 107.796 31.5628 107.628C31.8348 107.46 32.0468 107.228 32.1988 106.932C32.3588 106.628 32.4388 106.288 32.4388 105.912C32.4388 105.528 32.3588 105.192 32.1988 104.904C32.0468 104.608 31.8348 104.376 31.5628 104.208C31.2988 104.032 30.9908 103.944 30.6388 103.944C30.2788 103.944 29.9628 104.032 29.6908 104.208C29.4188 104.376 29.2028 104.608 29.0428 104.904C28.8908 105.192 28.8148 105.528 28.8148 105.912C28.8148 106.288 28.8908 106.628 29.0428 106.932C29.2028 107.228 29.4188 107.46 29.6908 107.628C29.9628 107.796 30.2788 107.88 30.6388 107.88ZM34.4526 109.176L36.7326 105.9L34.4406 102.648H36.2886L38.0766 105.288H37.2486L39.0366 102.648H40.8726L38.5926 105.9L40.8606 109.176H39.0246L37.2606 106.548H38.0646L36.3006 109.176H34.4526Z" fill="#525866"/>
<path d="M54.2842 257.64V248.7H60.2482V250.14H55.9162V252.612H59.7082V254.052H55.9162V257.64H54.2842ZM61.1834 257.64V251.112H62.7554V257.64H61.1834ZM61.1834 250.38V248.7H62.7554V250.38H61.1834ZM64.2069 257.64V251.112H65.6829V252.564L65.5629 252.348C65.7149 251.86 65.9509 251.52 66.2709 251.328C66.5989 251.136 66.9909 251.04 67.4469 251.04H67.8309V252.432H67.2669C66.8189 252.432 66.4589 252.572 66.1869 252.852C65.9149 253.124 65.7789 253.508 65.7789 254.004V257.64H64.2069ZM71.7911 257.784C71.1191 257.784 70.5311 257.632 70.0271 257.328C69.5231 257.024 69.1311 256.612 68.8511 256.092C68.5711 255.572 68.4311 254.996 68.4311 254.364C68.4311 253.708 68.5711 253.128 68.8511 252.624C69.1391 252.112 69.5271 251.708 70.0151 251.412C70.5111 251.116 71.0631 250.968 71.6711 250.968C72.1831 250.968 72.6311 251.052 73.0151 251.22C73.4071 251.388 73.7391 251.62 74.0111 251.916C74.2831 252.212 74.4911 252.552 74.6351 252.936C74.7791 253.312 74.8511 253.72 74.8511 254.16C74.8511 254.272 74.8431 254.388 74.8271 254.508C74.8191 254.628 74.7991 254.732 74.7671 254.82H69.7271V253.62H73.8791L73.1351 254.184C73.2071 253.816 73.1871 253.488 73.0751 253.2C72.9711 252.912 72.7951 252.684 72.5471 252.516C72.3071 252.348 72.0151 252.264 71.6711 252.264C71.3431 252.264 71.0511 252.348 70.7951 252.516C70.5391 252.676 70.3431 252.916 70.2071 253.236C70.0791 253.548 70.0311 253.928 70.0631 254.376C70.0311 254.776 70.0831 255.132 70.2191 255.444C70.3631 255.748 70.5711 255.984 70.8431 256.152C71.1231 256.32 71.4431 256.404 71.8031 256.404C72.1631 256.404 72.4671 256.328 72.7151 256.176C72.9711 256.024 73.1711 255.82 73.3151 255.564L74.5871 256.188C74.4591 256.5 74.2591 256.776 73.9871 257.016C73.7151 257.256 73.3911 257.444 73.0151 257.58C72.6471 257.716 72.2391 257.784 71.7911 257.784ZM76.7988 257.64V252.516H75.6468V251.112H76.7988V250.896C76.7988 250.4 76.8988 249.98 77.0988 249.636C77.3068 249.284 77.5948 249.016 77.9628 248.832C78.3308 248.648 78.7668 248.556 79.2708 248.556C79.3668 248.556 79.4708 248.564 79.5828 248.58C79.7028 248.588 79.8028 248.6 79.8828 248.616V249.972C79.8028 249.956 79.7268 249.948 79.6548 249.948C79.5908 249.94 79.5308 249.936 79.4748 249.936C79.1228 249.936 78.8508 250.016 78.6588 250.176C78.4668 250.328 78.3708 250.568 78.3708 250.896V251.112H79.8228V252.516H78.3708V257.64H76.7988ZM83.9223 257.784C83.2823 257.784 82.6983 257.636 82.1703 257.34C81.6503 257.044 81.2343 256.64 80.9223 256.128C80.6183 255.616 80.4663 255.032 80.4663 254.376C80.4663 253.72 80.6183 253.136 80.9223 252.624C81.2343 252.112 81.6503 251.708 82.1703 251.412C82.6903 251.116 83.2743 250.968 83.9223 250.968C84.5623 250.968 85.1423 251.116 85.6623 251.412C86.1823 251.708 86.5943 252.112 86.8983 252.624C87.2103 253.128 87.3663 253.712 87.3663 254.376C87.3663 255.032 87.2103 255.616 86.8983 256.128C86.5863 256.64 86.1703 257.044 85.6503 257.34C85.1303 257.636 84.5543 257.784 83.9223 257.784ZM83.9223 256.344C84.2743 256.344 84.5823 256.26 84.8463 256.092C85.1183 255.924 85.3303 255.692 85.4823 255.396C85.6423 255.092 85.7223 254.752 85.7223 254.376C85.7223 253.992 85.6423 253.656 85.4823 253.368C85.3303 253.072 85.1183 252.84 84.8463 252.672C84.5823 252.496 84.2743 252.408 83.9223 252.408C83.5623 252.408 83.2463 252.496 82.9743 252.672C82.7023 252.84 82.4863 253.072 82.3263 253.368C82.1743 253.656 82.0983 253.992 82.0983 254.376C82.0983 254.752 82.1743 255.092 82.3263 255.396C82.4863 255.692 82.7023 255.924 82.9743 256.092C83.2463 256.26 83.5623 256.344 83.9223 256.344ZM87.736 257.64L90.016 254.364L87.724 251.112H89.572L91.36 253.752H90.532L92.32 251.112H94.156L91.876 254.364L94.144 257.64H92.308L90.544 255.012H91.348L89.584 257.64H87.736Z" fill="#525866"/>
<g filter="url(#filter0_d_1088_6677)">
<path d="M95.7312 121.064L170.127 78.2565L276.53 110.79L222.896 216.951L163.206 154.453L95.7312 121.064Z" fill="url(#paint0_linear_1088_6677)"/>
<path d="M95.1136 119.99C94.7175 120.218 94.4792 120.646 94.4935 121.102C94.5078 121.559 94.7724 121.971 95.182 122.173L162.461 155.466L222 217.807C222.278 218.097 222.68 218.235 223.077 218.176C223.475 218.117 223.82 217.869 224.001 217.51L277.635 111.348C277.8 111.022 277.812 110.64 277.669 110.304C277.526 109.968 277.241 109.712 276.892 109.606L170.489 77.0723C170.161 76.9721 169.806 77.0122 169.509 77.1832L95.1136 119.99Z" stroke="white" strokeWidth="2.47669" strokeLinejoin="round"/>
</g>
<circle opacity="0.2" cx="275.795" cy="111.267" r="8.66842" fill="#EAB308"/>
<circle cx="275.795" cy="111.267" r="4.33421" fill="#EAB308"/>
<defs>
<filter id="filter0_d_1088_6677" x="68.4875" y="51.0129" width="235.286" height="193.182" filterUnits="userSpaceOnUse" color-interpolation-filters="sRGB">
<feFlood flood-opacity="0" result="BackgroundImageFix"/>
<feColorMatrix in="SourceAlpha" type="matrix" values="0 0 0 0 0 0 0 0 0 0 0 0 0 0 0 0 0 0 127 0" result="hardAlpha"/>
<feOffset/>
<feGaussianBlur stdDeviation="12.3835"/>
<feComposite in2="hardAlpha" operator="out"/>
<feColorMatrix type="matrix" values="0 0 0 0 0 0 0 0 0 0 0 0 0 0 0 0 0 0 0.1 0"/>
<feBlend mode="normal" in2="BackgroundImageFix" result="effect1_dropShadow_1088_6677"/>
<feBlend mode="normal" in="SourceGraphic" in2="effect1_dropShadow_1088_6677" result="shape"/>
</filter>
<linearGradient id="paint0_linear_1088_6677" x1="95.7312" y1="147.604" x2="276.53" y2="147.604" gradientUnits="userSpaceOnUse">
<stop stop-color="#7C3AED"/>
<stop offset="1" stop-color="#A78BFA"/>
</linearGradient>
</defs>
</svg>
