<svg width="455" height="102" viewBox="0 0 455 102" fill="none" xmlns="http://www.w3.org/2000/svg">
<rect width="455" height="102" rx="8" fill="#7780A1" fill-opacity="0.08"/>
<path d="M19.8271 23.4307L14.0166 25.6182L19.8271 27.7852V29.0361L12.6016 26.1787V25.0439L19.8271 22.1865V23.4307ZM27.6201 25.2559V30H26.3555V25.2559C26.3555 24.5677 26.2347 24.0618 25.9932 23.7383C25.7516 23.4147 25.3734 23.2529 24.8584 23.2529C24.2705 23.2529 23.8171 23.4626 23.498 23.8818C23.1836 24.2965 23.0264 24.8936 23.0264 25.6729V30H21.7686V19.3633H23.0264V23.4922C23.2497 23.0547 23.5527 22.7243 23.9355 22.501C24.3184 22.2731 24.7718 22.1592 25.2959 22.1592C26.0752 22.1592 26.6562 22.4167 27.0391 22.9316C27.4264 23.4421 27.6201 24.2168 27.6201 25.2559ZM36.4727 25.8574V26.4727H31.0244V26.5137C31.0244 27.3477 31.2409 27.9925 31.6738 28.4482C32.1113 28.904 32.7266 29.1318 33.5195 29.1318C33.9206 29.1318 34.3398 29.068 34.7773 28.9404C35.2148 28.8128 35.682 28.6191 36.1787 28.3594V29.6104C35.7002 29.8063 35.2376 29.9521 34.791 30.0479C34.349 30.1481 33.9206 30.1982 33.5059 30.1982C32.3164 30.1982 31.3867 29.8428 30.7168 29.1318C30.0469 28.4163 29.7119 27.432 29.7119 26.1787C29.7119 24.9574 30.04 23.9821 30.6963 23.2529C31.3525 22.5238 32.2275 22.1592 33.3213 22.1592C34.2965 22.1592 35.0645 22.4896 35.625 23.1504C36.1901 23.8112 36.4727 24.7135 36.4727 25.8574ZM35.2148 25.4883C35.1966 24.75 35.0212 24.1895 34.6885 23.8066C34.3604 23.4193 33.8864 23.2256 33.2666 23.2256C32.6605 23.2256 32.1615 23.4261 31.7695 23.8271C31.3776 24.2282 31.1452 24.7842 31.0723 25.4951L35.2148 25.4883ZM42.1055 26.1514H41.6885C40.9548 26.1514 40.401 26.2812 40.0273 26.541C39.6582 26.7962 39.4736 27.179 39.4736 27.6895C39.4736 28.1497 39.6126 28.5075 39.8906 28.7627C40.1686 29.0179 40.5537 29.1455 41.0459 29.1455C41.7386 29.1455 42.2832 28.9062 42.6797 28.4277C43.0762 27.9447 43.2767 27.2793 43.2812 26.4316V26.1514H42.1055ZM44.5459 25.6318V30H43.2812V28.8652C43.0124 29.321 42.6729 29.6582 42.2627 29.877C41.8571 30.0911 41.3626 30.1982 40.7793 30.1982C40 30.1982 39.3779 29.9795 38.9131 29.542C38.4482 29.0999 38.2158 28.5098 38.2158 27.7715C38.2158 26.9193 38.5007 26.2721 39.0703 25.8301C39.6445 25.388 40.4854 25.167 41.5928 25.167H43.2812V24.9688C43.2767 24.3581 43.1217 23.916 42.8164 23.6426C42.5111 23.3646 42.0234 23.2256 41.3535 23.2256C40.9251 23.2256 40.4922 23.2871 40.0547 23.4102C39.6172 23.5332 39.1911 23.7132 38.7764 23.9502V22.6924C39.2412 22.5146 39.6855 22.3825 40.1094 22.2959C40.5378 22.2048 40.9525 22.1592 41.3535 22.1592C41.987 22.1592 42.527 22.2526 42.9736 22.4395C43.4248 22.6263 43.7894 22.9066 44.0674 23.2803C44.2406 23.5081 44.3636 23.7907 44.4365 24.1279C44.5094 24.4606 44.5459 24.9619 44.5459 25.6318ZM51.6074 23.3213V19.3633H52.8652V30H51.6074V29.0361C51.3978 29.4144 51.1175 29.7038 50.7666 29.9043C50.4202 30.1003 50.0192 30.1982 49.5635 30.1982C48.6383 30.1982 47.9092 29.8405 47.376 29.125C46.8473 28.4049 46.583 27.4137 46.583 26.1514C46.583 24.9072 46.8496 23.932 47.3828 23.2256C47.916 22.5146 48.6429 22.1592 49.5635 22.1592C50.0238 22.1592 50.4294 22.2594 50.7803 22.46C51.1312 22.6559 51.4069 22.943 51.6074 23.3213ZM47.9092 26.1787C47.9092 27.154 48.0641 27.89 48.374 28.3867C48.6839 28.8835 49.1419 29.1318 49.748 29.1318C50.3542 29.1318 50.8145 28.8812 51.1289 28.3799C51.4479 27.8786 51.6074 27.1449 51.6074 26.1787C51.6074 25.208 51.4479 24.4743 51.1289 23.9775C50.8145 23.4762 50.3542 23.2256 49.748 23.2256C49.1419 23.2256 48.6839 23.474 48.374 23.9707C48.0641 24.4674 47.9092 25.2035 47.9092 26.1787ZM54.7793 23.4307V22.1865L62.0049 25.0439V26.1787L54.7793 29.0361V27.7852L60.5898 25.6182L54.7793 23.4307ZM36.6982 49.4307L30.8877 51.6182L36.6982 53.7852V55.0361L29.4727 52.1787V51.0439L36.6982 48.1865V49.4307ZM41.9277 49.123C42.0827 48.7949 42.2786 48.5534 42.5156 48.3984C42.7572 48.2389 43.0465 48.1592 43.3838 48.1592C43.999 48.1592 44.432 48.3984 44.6826 48.877C44.9378 49.3509 45.0654 50.2464 45.0654 51.5635V56H43.917V51.6182C43.917 50.5381 43.8555 49.8682 43.7324 49.6084C43.6139 49.3441 43.3952 49.2119 43.0762 49.2119C42.7116 49.2119 42.4609 49.3532 42.3242 49.6357C42.1921 49.9137 42.126 50.5745 42.126 51.6182V56H40.9775V51.6182C40.9775 50.5244 40.9115 49.8499 40.7793 49.5947C40.6517 49.3395 40.4193 49.2119 40.082 49.2119C39.7493 49.2119 39.5169 49.3532 39.3848 49.6357C39.2572 49.9137 39.1934 50.5745 39.1934 51.6182V56H38.0518V48.3438H39.1934V49C39.3438 48.7266 39.5306 48.5192 39.7539 48.3779C39.9818 48.2321 40.2393 48.1592 40.5264 48.1592C40.8727 48.1592 41.1598 48.2389 41.3877 48.3984C41.6201 48.5579 41.8001 48.7995 41.9277 49.123ZM53.3438 51.8574V52.4727H47.8955V52.5137C47.8955 53.3477 48.112 53.9925 48.5449 54.4482C48.9824 54.904 49.5977 55.1318 50.3906 55.1318C50.7917 55.1318 51.2109 55.068 51.6484 54.9404C52.0859 54.8128 52.5531 54.6191 53.0498 54.3594V55.6104C52.5713 55.8063 52.1087 55.9521 51.6621 56.0479C51.2201 56.1481 50.7917 56.1982 50.377 56.1982C49.1875 56.1982 48.2578 55.8428 47.5879 55.1318C46.918 54.4163 46.583 53.432 46.583 52.1787C46.583 50.9574 46.9111 49.9821 47.5674 49.2529C48.2236 48.5238 49.0986 48.1592 50.1924 48.1592C51.1676 48.1592 51.9355 48.4896 52.4961 49.1504C53.0612 49.8112 53.3438 50.7135 53.3438 51.8574ZM52.0859 51.4883C52.0677 50.75 51.8923 50.1895 51.5596 49.8066C51.2314 49.4193 50.7575 49.2256 50.1377 49.2256C49.5316 49.2256 49.0326 49.4261 48.6406 49.8271C48.2487 50.2282 48.0163 50.7842 47.9434 51.4951L52.0859 51.4883ZM58.375 46.1699V48.3438H61.2324V49.3213H58.375V53.4775C58.375 54.0426 58.4821 54.4368 58.6963 54.6602C58.9105 54.8835 59.2842 54.9951 59.8174 54.9951H61.2324V56H59.6943C58.751 56 58.0856 55.8109 57.6982 55.4326C57.3109 55.0544 57.1172 54.4027 57.1172 53.4775V49.3213H55.0732V48.3438H57.1172V46.1699H58.375ZM67.4121 52.1514H66.9951C66.2614 52.1514 65.7077 52.2812 65.334 52.541C64.9648 52.7962 64.7803 53.179 64.7803 53.6895C64.7803 54.1497 64.9193 54.5075 65.1973 54.7627C65.4753 55.0179 65.8604 55.1455 66.3525 55.1455C67.0452 55.1455 67.5898 54.9062 67.9863 54.4277C68.3828 53.9447 68.5833 53.2793 68.5879 52.4316V52.1514H67.4121ZM69.8525 51.6318V56H68.5879V54.8652C68.319 55.321 67.9795 55.6582 67.5693 55.877C67.1637 56.0911 66.6693 56.1982 66.0859 56.1982C65.3066 56.1982 64.6846 55.9795 64.2197 55.542C63.7549 55.0999 63.5225 54.5098 63.5225 53.7715C63.5225 52.9193 63.8073 52.2721 64.377 51.8301C64.9512 51.388 65.792 51.167 66.8994 51.167H68.5879V50.9688C68.5833 50.3581 68.4284 49.916 68.123 49.6426C67.8177 49.3646 67.3301 49.2256 66.6602 49.2256C66.2318 49.2256 65.7988 49.2871 65.3613 49.4102C64.9238 49.5332 64.4977 49.7132 64.083 49.9502V48.6924C64.5479 48.5146 64.9922 48.3825 65.416 48.2959C65.8444 48.2048 66.2591 48.1592 66.6602 48.1592C67.2936 48.1592 67.8337 48.2526 68.2803 48.4395C68.7314 48.6263 69.096 48.9066 69.374 49.2803C69.5472 49.5081 69.6702 49.7907 69.7432 50.1279C69.8161 50.4606 69.8525 50.9619 69.8525 51.6318ZM36.6982 75.4307L30.8877 77.6182L36.6982 79.7852V81.0361L29.4727 78.1787V77.0439L36.6982 74.1865V75.4307ZM41.9277 75.123C42.0827 74.7949 42.2786 74.5534 42.5156 74.3984C42.7572 74.2389 43.0465 74.1592 43.3838 74.1592C43.999 74.1592 44.432 74.3984 44.6826 74.877C44.9378 75.3509 45.0654 76.2464 45.0654 77.5635V82H43.917V77.6182C43.917 76.5381 43.8555 75.8682 43.7324 75.6084C43.6139 75.3441 43.3952 75.2119 43.0762 75.2119C42.7116 75.2119 42.4609 75.3532 42.3242 75.6357C42.1921 75.9137 42.126 76.5745 42.126 77.6182V82H40.9775V77.6182C40.9775 76.5244 40.9115 75.8499 40.7793 75.5947C40.6517 75.3395 40.4193 75.2119 40.082 75.2119C39.7493 75.2119 39.5169 75.3532 39.3848 75.6357C39.2572 75.9137 39.1934 76.5745 39.1934 77.6182V82H38.0518V74.3438H39.1934V75C39.3438 74.7266 39.5306 74.5192 39.7539 74.3779C39.9818 74.2321 40.2393 74.1592 40.5264 74.1592C40.8727 74.1592 41.1598 74.2389 41.3877 74.3984C41.6201 74.5579 41.8001 74.7995 41.9277 75.123ZM53.3438 77.8574V78.4727H47.8955V78.5137C47.8955 79.3477 48.112 79.9925 48.5449 80.4482C48.9824 80.904 49.5977 81.1318 50.3906 81.1318C50.7917 81.1318 51.2109 81.068 51.6484 80.9404C52.0859 80.8128 52.5531 80.6191 53.0498 80.3594V81.6104C52.5713 81.8063 52.1087 81.9521 51.6621 82.0479C51.2201 82.1481 50.7917 82.1982 50.377 82.1982C49.1875 82.1982 48.2578 81.8428 47.5879 81.1318C46.918 80.4163 46.583 79.432 46.583 78.1787C46.583 76.9574 46.9111 75.9821 47.5674 75.2529C48.2236 74.5238 49.0986 74.1592 50.1924 74.1592C51.1676 74.1592 51.9355 74.4896 52.4961 75.1504C53.0612 75.8112 53.3438 76.7135 53.3438 77.8574ZM52.0859 77.4883C52.0677 76.75 51.8923 76.1895 51.5596 75.8066C51.2314 75.4193 50.7575 75.2256 50.1377 75.2256C49.5316 75.2256 49.0326 75.4261 48.6406 75.8271C48.2487 76.2282 48.0163 76.7842 47.9434 77.4951L52.0859 77.4883ZM58.375 72.1699V74.3438H61.2324V75.3213H58.375V79.4775C58.375 80.0426 58.4821 80.4368 58.6963 80.6602C58.9105 80.8835 59.2842 80.9951 59.8174 80.9951H61.2324V82H59.6943C58.751 82 58.0856 81.8109 57.6982 81.4326C57.3109 81.0544 57.1172 80.4027 57.1172 79.4775V75.3213H55.0732V74.3438H57.1172V72.1699H58.375ZM67.4121 78.1514H66.9951C66.2614 78.1514 65.7077 78.2812 65.334 78.541C64.9648 78.7962 64.7803 79.179 64.7803 79.6895C64.7803 80.1497 64.9193 80.5075 65.1973 80.7627C65.4753 81.0179 65.8604 81.1455 66.3525 81.1455C67.0452 81.1455 67.5898 80.9062 67.9863 80.4277C68.3828 79.9447 68.5833 79.2793 68.5879 78.4316V78.1514H67.4121ZM69.8525 77.6318V82H68.5879V80.8652C68.319 81.321 67.9795 81.6582 67.5693 81.877C67.1637 82.0911 66.6693 82.1982 66.0859 82.1982C65.3066 82.1982 64.6846 81.9795 64.2197 81.542C63.7549 81.0999 63.5225 80.5098 63.5225 79.7715C63.5225 78.9193 63.8073 78.2721 64.377 77.8301C64.9512 77.388 65.792 77.167 66.8994 77.167H68.5879V76.9688C68.5833 76.3581 68.4284 75.916 68.123 75.6426C67.8177 75.3646 67.3301 75.2256 66.6602 75.2256C66.2318 75.2256 65.7988 75.2871 65.3613 75.4102C64.9238 75.5332 64.4977 75.7132 64.083 75.9502V74.6924C64.5479 74.5146 64.9922 74.3825 65.416 74.2959C65.8444 74.2048 66.2591 74.1592 66.6602 74.1592C67.2936 74.1592 67.8337 74.2526 68.2803 74.4395C68.7314 74.6263 69.096 74.9066 69.374 75.2803C69.5472 75.5081 69.6702 75.7907 69.7432 76.1279C69.8161 76.4606 69.8525 76.9619 69.8525 77.6318ZM274.104 78.418H281.329V79.5938H274.104V78.418ZM274.104 75.6426H281.329V76.8047H274.104V75.6426Z" fill="#0B0C27"/>
<path d="M288.056 71.7939V75.5879H286.866V71.7939H288.056ZM285.438 71.7939V75.5879H284.248V71.7939H285.438ZM290.373 74.3438H291.617L292.95 80.5303L294.044 76.5791H295.117L296.225 80.5303L297.558 74.3438H298.802L297.011 82H295.808L294.584 77.8027L293.367 82H292.164L290.373 74.3438ZM300.559 74.3438H303.778V81.0225H306.273V82H300.025V81.0225H302.521V75.3213H300.559V74.3438ZM302.521 71.3633H303.778V72.9561H302.521V71.3633ZM313.109 75.3213V71.3633H314.367V82H313.109V81.0361C312.9 81.4144 312.619 81.7038 312.269 81.9043C311.922 82.1003 311.521 82.1982 311.065 82.1982C310.14 82.1982 309.411 81.8405 308.878 81.125C308.349 80.4049 308.085 79.4137 308.085 78.1514C308.085 76.9072 308.352 75.932 308.885 75.2256C309.418 74.5146 310.145 74.1592 311.065 74.1592C311.526 74.1592 311.931 74.2594 312.282 74.46C312.633 74.6559 312.909 74.943 313.109 75.3213ZM309.411 78.1787C309.411 79.154 309.566 79.89 309.876 80.3867C310.186 80.8835 310.644 81.1318 311.25 81.1318C311.856 81.1318 312.316 80.8812 312.631 80.3799C312.95 79.8786 313.109 79.1449 313.109 78.1787C313.109 77.208 312.95 76.4743 312.631 75.9775C312.316 75.4762 311.856 75.2256 311.25 75.2256C310.644 75.2256 310.186 75.474 309.876 75.9707C309.566 76.4674 309.411 77.2035 309.411 78.1787ZM319.877 72.1699V74.3438H322.734V75.3213H319.877V79.4775C319.877 80.0426 319.984 80.4368 320.198 80.6602C320.412 80.8835 320.786 80.9951 321.319 80.9951H322.734V82H321.196C320.253 82 319.588 81.8109 319.2 81.4326C318.813 81.0544 318.619 80.4027 318.619 79.4775V75.3213H316.575V74.3438H318.619V72.1699H319.877ZM331.3 77.2559V82H330.035V77.2559C330.035 76.5677 329.914 76.0618 329.673 75.7383C329.431 75.4147 329.053 75.2529 328.538 75.2529C327.95 75.2529 327.497 75.4626 327.178 75.8818C326.863 76.2965 326.706 76.8936 326.706 77.6729V82H325.448V71.3633H326.706V75.4922C326.929 75.0547 327.232 74.7243 327.615 74.501C327.998 74.2731 328.451 74.1592 328.976 74.1592C329.755 74.1592 330.336 74.4167 330.719 74.9316C331.106 75.4421 331.3 76.2168 331.3 77.2559ZM333.152 78.418H340.378V79.5938H333.152V78.418ZM333.152 75.6426H340.378V76.8047H333.152V75.6426ZM346.852 75.3213V71.3633H348.109V82H346.852V81.0361C346.642 81.4144 346.362 81.7038 346.011 81.9043C345.664 82.1003 345.263 82.1982 344.808 82.1982C343.882 82.1982 343.153 81.8405 342.62 81.125C342.091 80.4049 341.827 79.4137 341.827 78.1514C341.827 76.9072 342.094 75.932 342.627 75.2256C343.16 74.5146 343.887 74.1592 344.808 74.1592C345.268 74.1592 345.674 74.2594 346.024 74.46C346.375 74.6559 346.651 74.943 346.852 75.3213ZM343.153 78.1787C343.153 79.154 343.308 79.89 343.618 80.3867C343.928 80.8835 344.386 81.1318 344.992 81.1318C345.598 81.1318 346.059 80.8812 346.373 80.3799C346.692 79.8786 346.852 79.1449 346.852 78.1787C346.852 77.208 346.692 76.4743 346.373 75.9775C346.059 75.4762 345.598 75.2256 344.992 75.2256C344.386 75.2256 343.928 75.474 343.618 75.9707C343.308 76.4674 343.153 77.2035 343.153 78.1787ZM357.023 77.8574V78.4727H351.575V78.5137C351.575 79.3477 351.792 79.9925 352.225 80.4482C352.662 80.904 353.277 81.1318 354.07 81.1318C354.471 81.1318 354.891 81.068 355.328 80.9404C355.766 80.8128 356.233 80.6191 356.729 80.3594V81.6104C356.251 81.8063 355.788 81.9521 355.342 82.0479C354.9 82.1481 354.471 82.1982 354.057 82.1982C352.867 82.1982 351.938 81.8428 351.268 81.1318C350.598 80.4163 350.263 79.432 350.263 78.1787C350.263 76.9574 350.591 75.9821 351.247 75.2529C351.903 74.5238 352.778 74.1592 353.872 74.1592C354.847 74.1592 355.615 74.4896 356.176 75.1504C356.741 75.8112 357.023 76.7135 357.023 77.8574ZM355.766 77.4883C355.747 76.75 355.572 76.1895 355.239 75.8066C354.911 75.4193 354.437 75.2256 353.817 75.2256C353.211 75.2256 352.712 75.4261 352.32 75.8271C351.928 76.2282 351.696 76.7842 351.623 77.4951L355.766 77.4883ZM358.541 74.3438H359.847L362.068 80.7695L364.297 74.3438H365.603L362.882 82H361.262L358.541 74.3438ZM368.043 74.3438H371.263V81.0225H373.758V82H367.51V81.0225H370.005V75.3213H368.043V74.3438ZM370.005 71.3633H371.263V72.9561H370.005V71.3633ZM381.981 81.6104C381.644 81.8063 381.296 81.9521 380.936 82.0479C380.58 82.1481 380.215 82.1982 379.842 82.1982C378.657 82.1982 377.729 81.8428 377.06 81.1318C376.394 80.4209 376.062 79.4365 376.062 78.1787C376.062 76.9209 376.394 75.9365 377.06 75.2256C377.729 74.5146 378.657 74.1592 379.842 74.1592C380.211 74.1592 380.571 74.207 380.922 74.3027C381.273 74.3984 381.626 74.5465 381.981 74.7471V76.0664C381.649 75.7702 381.314 75.556 380.977 75.4238C380.644 75.2917 380.266 75.2256 379.842 75.2256C379.053 75.2256 378.447 75.4808 378.023 75.9912C377.6 76.5016 377.388 77.2308 377.388 78.1787C377.388 79.1221 377.6 79.8512 378.023 80.3662C378.452 80.8766 379.058 81.1318 379.842 81.1318C380.279 81.1318 380.671 81.0658 381.018 80.9336C381.364 80.7969 381.685 80.5872 381.981 80.3047V81.6104ZM390.766 77.8574V78.4727H385.317V78.5137C385.317 79.3477 385.534 79.9925 385.967 80.4482C386.404 80.904 387.02 81.1318 387.812 81.1318C388.214 81.1318 388.633 81.068 389.07 80.9404C389.508 80.8128 389.975 80.6191 390.472 80.3594V81.6104C389.993 81.8063 389.531 81.9521 389.084 82.0479C388.642 82.1481 388.214 82.1982 387.799 82.1982C386.609 82.1982 385.68 81.8428 385.01 81.1318C384.34 80.4163 384.005 79.432 384.005 78.1787C384.005 76.9574 384.333 75.9821 384.989 75.2529C385.646 74.5238 386.521 74.1592 387.614 74.1592C388.59 74.1592 389.357 74.4896 389.918 75.1504C390.483 75.8112 390.766 76.7135 390.766 77.8574ZM389.508 77.4883C389.49 76.75 389.314 76.1895 388.981 75.8066C388.653 75.4193 388.179 75.2256 387.56 75.2256C386.953 75.2256 386.454 75.4261 386.062 75.8271C385.671 76.2282 385.438 76.7842 385.365 77.4951L389.508 77.4883ZM394.033 77.6045H397.595V78.7256H394.033V77.6045ZM400.035 74.3438H401.279L402.612 80.5303L403.706 76.5791H404.779L405.887 80.5303L407.22 74.3438H408.464L406.673 82H405.47L404.246 77.8027L403.029 82H401.826L400.035 74.3438ZM410.221 74.3438H413.44V81.0225H415.936V82H409.688V81.0225H412.183V75.3213H410.221V74.3438ZM412.183 71.3633H413.44V72.9561H412.183V71.3633ZM422.771 75.3213V71.3633H424.029V82H422.771V81.0361C422.562 81.4144 422.282 81.7038 421.931 81.9043C421.584 82.1003 421.183 82.1982 420.728 82.1982C419.802 82.1982 419.073 81.8405 418.54 81.125C418.011 80.4049 417.747 79.4137 417.747 78.1514C417.747 76.9072 418.014 75.932 418.547 75.2256C419.08 74.5146 419.807 74.1592 420.728 74.1592C421.188 74.1592 421.593 74.2594 421.944 74.46C422.295 74.6559 422.571 74.943 422.771 75.3213ZM419.073 78.1787C419.073 79.154 419.228 79.89 419.538 80.3867C419.848 80.8835 420.306 81.1318 420.912 81.1318C421.518 81.1318 421.979 80.8812 422.293 80.3799C422.612 79.8786 422.771 79.1449 422.771 78.1787C422.771 77.208 422.612 76.4743 422.293 75.9775C421.979 75.4762 421.518 75.2256 420.912 75.2256C420.306 75.2256 419.848 75.474 419.538 75.9707C419.228 76.4674 419.073 77.2035 419.073 78.1787ZM429.539 72.1699V74.3438H432.396V75.3213H429.539V79.4775C429.539 80.0426 429.646 80.4368 429.86 80.6602C430.075 80.8835 430.448 80.9951 430.981 80.9951H432.396V82H430.858C429.915 82 429.25 81.8109 428.862 81.4326C428.475 81.0544 428.281 80.4027 428.281 79.4775V75.3213H426.237V74.3438H428.281V72.1699H429.539ZM440.962 77.2559V82H439.697V77.2559C439.697 76.5677 439.576 76.0618 439.335 75.7383C439.093 75.4147 438.715 75.2529 438.2 75.2529C437.612 75.2529 437.159 75.4626 436.84 75.8818C436.525 76.2965 436.368 76.8936 436.368 77.6729V82H435.11V71.3633H436.368V75.4922C436.591 75.0547 436.895 74.7243 437.277 74.501C437.66 74.2731 438.114 74.1592 438.638 74.1592C439.417 74.1592 439.998 74.4167 440.381 74.9316C440.768 75.4421 440.962 76.2168 440.962 77.2559Z" fill="#005CC5"/>
<path d="M86.7373 55.6104C86.4001 55.8063 86.0514 55.9521 85.6914 56.0479C85.3359 56.1481 84.9714 56.1982 84.5977 56.1982C83.4128 56.1982 82.4854 55.8428 81.8154 55.1318C81.1501 54.4209 80.8174 53.4365 80.8174 52.1787C80.8174 50.9209 81.1501 49.9365 81.8154 49.2256C82.4854 48.5146 83.4128 48.1592 84.5977 48.1592C84.9668 48.1592 85.3268 48.207 85.6777 48.3027C86.0286 48.3984 86.3818 48.5465 86.7373 48.7471V50.0664C86.4046 49.7702 86.0697 49.556 85.7324 49.4238C85.3997 49.2917 85.0215 49.2256 84.5977 49.2256C83.8092 49.2256 83.2031 49.4808 82.7793 49.9912C82.3555 50.5016 82.1436 51.2308 82.1436 52.1787C82.1436 53.1221 82.3555 53.8512 82.7793 54.3662C83.2077 54.8766 83.8138 55.1318 84.5977 55.1318C85.0352 55.1318 85.4271 55.0658 85.7734 54.9336C86.1198 54.7969 86.4411 54.5872 86.7373 54.3047V55.6104ZM95.1045 51.2559V56H93.8398V51.2559C93.8398 50.5677 93.7191 50.0618 93.4775 49.7383C93.236 49.4147 92.8577 49.2529 92.3428 49.2529C91.7549 49.2529 91.3014 49.4626 90.9824 49.8818C90.668 50.2965 90.5107 50.8936 90.5107 51.6729V56H89.2529V45.3633H90.5107V49.4922C90.734 49.0547 91.0371 48.7243 91.4199 48.501C91.8027 48.2731 92.2562 48.1592 92.7803 48.1592C93.5596 48.1592 94.1406 48.4167 94.5234 48.9316C94.9108 49.4421 95.1045 50.2168 95.1045 51.2559ZM101.154 52.1514H100.737C100.004 52.1514 99.4499 52.2812 99.0762 52.541C98.707 52.7962 98.5225 53.179 98.5225 53.6895C98.5225 54.1497 98.6615 54.5075 98.9395 54.7627C99.2174 55.0179 99.6025 55.1455 100.095 55.1455C100.787 55.1455 101.332 54.9062 101.729 54.4277C102.125 53.9447 102.326 53.2793 102.33 52.4316V52.1514H101.154ZM103.595 51.6318V56H102.33V54.8652C102.061 55.321 101.722 55.6582 101.312 55.877C100.906 56.0911 100.411 56.1982 99.8281 56.1982C99.0488 56.1982 98.4268 55.9795 97.9619 55.542C97.4971 55.0999 97.2646 54.5098 97.2646 53.7715C97.2646 52.9193 97.5495 52.2721 98.1191 51.8301C98.6934 51.388 99.5342 51.167 100.642 51.167H102.33V50.9688C102.326 50.3581 102.171 49.916 101.865 49.6426C101.56 49.3646 101.072 49.2256 100.402 49.2256C99.974 49.2256 99.541 49.2871 99.1035 49.4102C98.666 49.5332 98.2399 49.7132 97.8252 49.9502V48.6924C98.29 48.5146 98.7344 48.3825 99.1582 48.2959C99.5866 48.2048 100.001 48.1592 100.402 48.1592C101.036 48.1592 101.576 48.2526 102.022 48.4395C102.474 48.6263 102.838 48.9066 103.116 49.2803C103.289 49.5081 103.412 49.7907 103.485 50.1279C103.558 50.4606 103.595 50.9619 103.595 51.6318ZM112.687 49.9229C112.418 49.7132 112.144 49.5605 111.866 49.4648C111.588 49.3691 111.283 49.3213 110.95 49.3213C110.166 49.3213 109.567 49.5674 109.152 50.0596C108.738 50.5518 108.53 51.2627 108.53 52.1924V56H107.266V48.3438H108.53V49.8408C108.74 49.2985 109.061 48.8838 109.494 48.5967C109.932 48.305 110.449 48.1592 111.046 48.1592C111.356 48.1592 111.645 48.1979 111.914 48.2754C112.183 48.3529 112.44 48.4736 112.687 48.6377V49.9229ZM119.878 48.6104V49.8408C119.518 49.6312 119.156 49.474 118.791 49.3691C118.426 49.2643 118.055 49.2119 117.677 49.2119C117.107 49.2119 116.681 49.3053 116.398 49.4922C116.12 49.6745 115.981 49.9548 115.981 50.333C115.981 50.6748 116.086 50.93 116.296 51.0986C116.506 51.2673 117.027 51.4313 117.861 51.5908L118.367 51.6865C118.992 51.805 119.463 52.042 119.782 52.3975C120.106 52.7529 120.268 53.2155 120.268 53.7852C120.268 54.5417 119.999 55.1341 119.461 55.5625C118.923 55.9863 118.176 56.1982 117.219 56.1982C116.84 56.1982 116.444 56.1572 116.029 56.0752C115.615 55.9977 115.166 55.8792 114.683 55.7197V54.4209C115.152 54.6624 115.601 54.8447 116.029 54.9678C116.458 55.0863 116.863 55.1455 117.246 55.1455C117.802 55.1455 118.233 55.0339 118.538 54.8105C118.843 54.5827 118.996 54.266 118.996 53.8604C118.996 53.277 118.438 52.8737 117.321 52.6504L117.267 52.6367L116.795 52.541C116.07 52.3997 115.542 52.1628 115.209 51.8301C114.876 51.4928 114.71 51.0348 114.71 50.4561C114.71 49.7223 114.958 49.1572 115.455 48.7607C115.952 48.3597 116.66 48.1592 117.581 48.1592C117.991 48.1592 118.385 48.1979 118.764 48.2754C119.142 48.3483 119.513 48.46 119.878 48.6104ZM129.264 51.8574V52.4727H123.815V52.5137C123.815 53.3477 124.032 53.9925 124.465 54.4482C124.902 54.904 125.518 55.1318 126.311 55.1318C126.712 55.1318 127.131 55.068 127.568 54.9404C128.006 54.8128 128.473 54.6191 128.97 54.3594V55.6104C128.491 55.8063 128.029 55.9521 127.582 56.0479C127.14 56.1481 126.712 56.1982 126.297 56.1982C125.107 56.1982 124.178 55.8428 123.508 55.1318C122.838 54.4163 122.503 53.432 122.503 52.1787C122.503 50.9574 122.831 49.9821 123.487 49.2529C124.144 48.5238 125.019 48.1592 126.112 48.1592C127.088 48.1592 127.855 48.4896 128.416 49.1504C128.981 49.8112 129.264 50.7135 129.264 51.8574ZM128.006 51.4883C127.988 50.75 127.812 50.1895 127.479 49.8066C127.151 49.4193 126.677 49.2256 126.058 49.2256C125.451 49.2256 124.952 49.4261 124.561 49.8271C124.169 50.2282 123.936 50.7842 123.863 51.4951L128.006 51.4883ZM153.087 45.7939V49.5879H151.897V45.7939H153.087ZM150.469 45.7939V49.5879H149.279V45.7939H150.469ZM156.409 52.083V45.7939H157.797V52.7119C157.797 53.2087 157.811 53.5641 157.838 53.7783C157.865 53.988 157.913 54.1497 157.981 54.2637C158.127 54.5326 158.337 54.7354 158.61 54.8721C158.888 55.0088 159.223 55.0771 159.615 55.0771C160.012 55.0771 160.347 55.0088 160.62 54.8721C160.894 54.7354 161.105 54.5326 161.256 54.2637C161.324 54.1497 161.372 53.988 161.399 53.7783C161.427 53.5687 161.44 53.2178 161.44 52.7256V45.7939H162.821V52.083C162.821 53.1266 162.755 53.8695 162.623 54.3115C162.495 54.749 162.272 55.1113 161.953 55.3984C161.652 55.6673 161.308 55.8678 160.921 56C160.534 56.1322 160.098 56.1982 159.615 56.1982C159.137 56.1982 158.704 56.1322 158.316 56C157.929 55.8678 157.583 55.6673 157.277 55.3984C156.963 55.1159 156.74 54.7513 156.607 54.3047C156.475 53.8535 156.409 53.113 156.409 52.083ZM164.161 45.7939H171.947V46.9561H168.755V56H167.367V46.9561H164.161V45.7939ZM173.868 45.7939H179.877V46.9561H175.256V49.9639H179.446V51.126H175.256V56H173.868V45.7939ZM183.145 51.6045H186.706V52.7256H183.145V51.6045ZM193.357 51.1533C192.742 51.1533 192.266 51.3265 191.929 51.6729C191.596 52.0146 191.43 52.5 191.43 53.1289C191.43 53.7578 191.598 54.2477 191.936 54.5986C192.277 54.945 192.751 55.1182 193.357 55.1182C193.977 55.1182 194.453 54.9473 194.786 54.6055C195.123 54.2591 195.292 53.7669 195.292 53.1289C195.292 52.5046 195.121 52.0192 194.779 51.6729C194.442 51.3265 193.968 51.1533 193.357 51.1533ZM192.154 50.5791C191.566 50.4287 191.106 50.1484 190.773 49.7383C190.445 49.3281 190.281 48.8337 190.281 48.2549C190.281 47.4437 190.557 46.8011 191.108 46.3271C191.66 45.8486 192.41 45.6094 193.357 45.6094C194.31 45.6094 195.062 45.8486 195.613 46.3271C196.165 46.8011 196.44 47.4437 196.44 48.2549C196.44 48.8337 196.274 49.3281 195.941 49.7383C195.613 50.1484 195.155 50.4287 194.567 50.5791C195.251 50.7295 195.773 51.0326 196.133 51.4883C196.497 51.944 196.68 52.5342 196.68 53.2588C196.68 54.1794 196.386 54.8994 195.798 55.4189C195.21 55.9385 194.396 56.1982 193.357 56.1982C192.318 56.1982 191.505 55.9408 190.917 55.4258C190.334 54.9062 190.042 54.1885 190.042 53.2725C190.042 52.5433 190.222 51.9508 190.582 51.4951C190.947 51.0348 191.471 50.7295 192.154 50.5791ZM191.655 48.3848C191.655 48.9316 191.801 49.3486 192.093 49.6357C192.384 49.9229 192.806 50.0664 193.357 50.0664C193.913 50.0664 194.337 49.9229 194.629 49.6357C194.921 49.3486 195.066 48.9316 195.066 48.3848C195.066 47.8288 194.921 47.4049 194.629 47.1133C194.342 46.8216 193.918 46.6758 193.357 46.6758C192.806 46.6758 192.384 46.8239 192.093 47.1201C191.801 47.4118 191.655 47.8333 191.655 48.3848ZM203.7 45.7939V49.5879H202.511V45.7939H203.7ZM201.082 45.7939V49.5879H199.893V45.7939H201.082ZM127.78 71.7939V75.5879H126.591V71.7939H127.78ZM125.162 71.7939V75.5879H123.973V71.7939H125.162ZM130.781 74.3438H132.087L134.309 80.7695L136.537 74.3438H137.843L135.122 82H133.502L130.781 74.3438ZM140.283 74.3438H143.503V81.0225H145.998V82H139.75V81.0225H142.245V75.3213H140.283V74.3438ZM142.245 71.3633H143.503V72.9561H142.245V71.3633ZM154.57 77.8574V78.4727H149.122V78.5137C149.122 79.3477 149.339 79.9925 149.771 80.4482C150.209 80.904 150.824 81.1318 151.617 81.1318C152.018 81.1318 152.438 81.068 152.875 80.9404C153.312 80.8128 153.78 80.6191 154.276 80.3594V81.6104C153.798 81.8063 153.335 81.9521 152.889 82.0479C152.447 82.1481 152.018 82.1982 151.604 82.1982C150.414 82.1982 149.484 81.8428 148.814 81.1318C148.145 80.4163 147.81 79.432 147.81 78.1787C147.81 76.9574 148.138 75.9821 148.794 75.2529C149.45 74.5238 150.325 74.1592 151.419 74.1592C152.394 74.1592 153.162 74.4896 153.723 75.1504C154.288 75.8112 154.57 76.7135 154.57 77.8574ZM153.312 77.4883C153.294 76.75 153.119 76.1895 152.786 75.8066C152.458 75.4193 151.984 75.2256 151.364 75.2256C150.758 75.2256 150.259 75.4261 149.867 75.8271C149.475 76.2282 149.243 76.7842 149.17 77.4951L153.312 77.4883ZM155.404 74.3438H156.648L157.981 80.5303L159.075 76.5791H160.148L161.256 80.5303L162.589 74.3438H163.833L162.042 82H160.839L159.615 77.8027L158.398 82H157.195L155.404 74.3438ZM166.403 81.0361V84.9121H165.139V74.3438H166.403V75.3213C166.613 74.943 166.891 74.6559 167.237 74.46C167.588 74.2594 167.992 74.1592 168.447 74.1592C169.372 74.1592 170.097 74.5169 170.621 75.2324C171.15 75.9479 171.414 76.9391 171.414 78.2061C171.414 79.4502 171.15 80.4277 170.621 81.1387C170.092 81.8451 169.368 82.1982 168.447 82.1982C167.982 82.1982 167.575 82.1003 167.224 81.9043C166.877 81.7038 166.604 81.4144 166.403 81.0361ZM170.095 78.1787C170.095 77.2035 169.94 76.4674 169.63 75.9707C169.325 75.474 168.869 75.2256 168.263 75.2256C167.652 75.2256 167.189 75.4762 166.875 75.9775C166.561 76.4743 166.403 77.208 166.403 78.1787C166.403 79.1449 166.561 79.8786 166.875 80.3799C167.189 80.8812 167.652 81.1318 168.263 81.1318C168.869 81.1318 169.325 80.8835 169.63 80.3867C169.94 79.89 170.095 79.154 170.095 78.1787ZM176.486 75.2256C175.848 75.2256 175.365 75.474 175.037 75.9707C174.709 76.4674 174.545 77.2035 174.545 78.1787C174.545 79.1494 174.709 79.8854 175.037 80.3867C175.365 80.8835 175.848 81.1318 176.486 81.1318C177.129 81.1318 177.614 80.8835 177.942 80.3867C178.271 79.8854 178.435 79.1494 178.435 78.1787C178.435 77.2035 178.271 76.4674 177.942 75.9707C177.614 75.474 177.129 75.2256 176.486 75.2256ZM176.486 74.1592C177.548 74.1592 178.359 74.5033 178.92 75.1914C179.485 75.8796 179.768 76.8753 179.768 78.1787C179.768 79.4867 179.487 80.4847 178.927 81.1729C178.366 81.8564 177.553 82.1982 176.486 82.1982C175.424 82.1982 174.613 81.8564 174.053 81.1729C173.492 80.4847 173.212 79.4867 173.212 78.1787C173.212 76.8753 173.492 75.8796 174.053 75.1914C174.613 74.5033 175.424 74.1592 176.486 74.1592ZM188.606 75.9229C188.338 75.7132 188.064 75.5605 187.786 75.4648C187.508 75.3691 187.203 75.3213 186.87 75.3213C186.086 75.3213 185.487 75.5674 185.072 76.0596C184.658 76.5518 184.45 77.2627 184.45 78.1924V82H183.186V74.3438H184.45V75.8408C184.66 75.2985 184.981 74.8838 185.414 74.5967C185.852 74.305 186.369 74.1592 186.966 74.1592C187.276 74.1592 187.565 74.1979 187.834 74.2754C188.103 74.3529 188.36 74.4736 188.606 74.6377V75.9229ZM193.344 72.1699V74.3438H196.201V75.3213H193.344V79.4775C193.344 80.0426 193.451 80.4368 193.665 80.6602C193.879 80.8835 194.253 80.9951 194.786 80.9951H196.201V82H194.663C193.72 82 193.054 81.8109 192.667 81.4326C192.28 81.0544 192.086 80.4027 192.086 79.4775V75.3213H190.042V74.3438H192.086V72.1699H193.344ZM203.7 71.7939V75.5879H202.511V71.7939H203.7ZM201.082 71.7939V75.5879H199.893V71.7939H201.082Z" fill="#6F42C1"/>
<path d="M130.699 52.418H137.925V53.5938H130.699V52.418ZM130.699 49.6426H137.925V50.8047H130.699V49.6426ZM86.6689 77.2559V82H85.4043V77.2559C85.4043 76.5677 85.2835 76.0618 85.042 75.7383C84.8005 75.4147 84.4222 75.2529 83.9072 75.2529C83.3193 75.2529 82.8659 75.4626 82.5469 75.8818C82.2324 76.2965 82.0752 76.8936 82.0752 77.6729V82H80.8174V74.3438H82.0752V75.4922C82.2985 75.0547 82.6016 74.7243 82.9844 74.501C83.3672 74.2731 83.8206 74.1592 84.3447 74.1592C85.124 74.1592 85.7051 74.4167 86.0879 74.9316C86.4753 75.4421 86.6689 76.2168 86.6689 77.2559ZM92.7188 78.1514H92.3018C91.568 78.1514 91.0143 78.2812 90.6406 78.541C90.2715 78.7962 90.0869 79.179 90.0869 79.6895C90.0869 80.1497 90.2259 80.5075 90.5039 80.7627C90.7819 81.0179 91.167 81.1455 91.6592 81.1455C92.3519 81.1455 92.8965 80.9062 93.293 80.4277C93.6895 79.9447 93.89 79.2793 93.8945 78.4316V78.1514H92.7188ZM95.1592 77.6318V82H93.8945V80.8652C93.6257 81.321 93.2861 81.6582 92.876 81.877C92.4704 82.0911 91.9759 82.1982 91.3926 82.1982C90.6133 82.1982 89.9912 81.9795 89.5264 81.542C89.0615 81.0999 88.8291 80.5098 88.8291 79.7715C88.8291 78.9193 89.1139 78.2721 89.6836 77.8301C90.2578 77.388 91.0986 77.167 92.2061 77.167H93.8945V76.9688C93.89 76.3581 93.735 75.916 93.4297 75.6426C93.1243 75.3646 92.6367 75.2256 91.9668 75.2256C91.5384 75.2256 91.1055 75.2871 90.668 75.4102C90.2305 75.5332 89.8044 75.7132 89.3896 75.9502V74.6924C89.8545 74.5146 90.2988 74.3825 90.7227 74.2959C91.151 74.2048 91.5658 74.1592 91.9668 74.1592C92.6003 74.1592 93.1403 74.2526 93.5869 74.4395C94.0381 74.6263 94.4027 74.9066 94.6807 75.2803C94.8538 75.5081 94.9769 75.7907 95.0498 76.1279C95.1227 76.4606 95.1592 76.9619 95.1592 77.6318ZM100.977 75.123C101.132 74.7949 101.327 74.5534 101.564 74.3984C101.806 74.2389 102.095 74.1592 102.433 74.1592C103.048 74.1592 103.481 74.3984 103.731 74.877C103.987 75.3509 104.114 76.2464 104.114 77.5635V82H102.966V77.6182C102.966 76.5381 102.904 75.8682 102.781 75.6084C102.663 75.3441 102.444 75.2119 102.125 75.2119C101.76 75.2119 101.51 75.3532 101.373 75.6357C101.241 75.9137 101.175 76.5745 101.175 77.6182V82H100.026V77.6182C100.026 76.5244 99.9603 75.8499 99.8281 75.5947C99.7005 75.3395 99.4681 75.2119 99.1309 75.2119C98.7982 75.2119 98.5658 75.3532 98.4336 75.6357C98.306 75.9137 98.2422 76.5745 98.2422 77.6182V82H97.1006V74.3438H98.2422V75C98.3926 74.7266 98.5794 74.5192 98.8027 74.3779C99.0306 74.2321 99.2881 74.1592 99.5752 74.1592C99.9215 74.1592 100.209 74.2389 100.437 74.3984C100.669 74.5579 100.849 74.7995 100.977 75.123ZM112.393 77.8574V78.4727H106.944V78.5137C106.944 79.3477 107.161 79.9925 107.594 80.4482C108.031 80.904 108.646 81.1318 109.439 81.1318C109.84 81.1318 110.26 81.068 110.697 80.9404C111.135 80.8128 111.602 80.6191 112.099 80.3594V81.6104C111.62 81.8063 111.158 81.9521 110.711 82.0479C110.269 82.1481 109.84 82.1982 109.426 82.1982C108.236 82.1982 107.307 81.8428 106.637 81.1318C105.967 80.4163 105.632 79.432 105.632 78.1787C105.632 76.9574 105.96 75.9821 106.616 75.2529C107.272 74.5238 108.147 74.1592 109.241 74.1592C110.216 74.1592 110.984 74.4896 111.545 75.1504C112.11 75.8112 112.393 76.7135 112.393 77.8574ZM111.135 77.4883C111.117 76.75 110.941 76.1895 110.608 75.8066C110.28 75.4193 109.806 75.2256 109.187 75.2256C108.58 75.2256 108.081 75.4261 107.689 75.8271C107.298 76.2282 107.065 76.7842 106.992 77.4951L111.135 77.4883ZM113.828 78.418H121.054V79.5938H113.828V78.418ZM113.828 75.6426H121.054V76.8047H113.828V75.6426ZM221.706 81.6104C221.369 81.8063 221.02 81.9521 220.66 82.0479C220.305 82.1481 219.94 82.1982 219.566 82.1982C218.382 82.1982 217.454 81.8428 216.784 81.1318C216.119 80.4209 215.786 79.4365 215.786 78.1787C215.786 76.9209 216.119 75.9365 216.784 75.2256C217.454 74.5146 218.382 74.1592 219.566 74.1592C219.936 74.1592 220.296 74.207 220.646 74.3027C220.997 74.3984 221.351 74.5465 221.706 74.7471V76.0664C221.373 75.7702 221.038 75.556 220.701 75.4238C220.368 75.2917 219.99 75.2256 219.566 75.2256C218.778 75.2256 218.172 75.4808 217.748 75.9912C217.324 76.5016 217.112 77.2308 217.112 78.1787C217.112 79.1221 217.324 79.8512 217.748 80.3662C218.176 80.8766 218.783 81.1318 219.566 81.1318C220.004 81.1318 220.396 81.0658 220.742 80.9336C221.089 80.7969 221.41 80.5872 221.706 80.3047V81.6104ZM227.1 75.2256C226.462 75.2256 225.979 75.474 225.65 75.9707C225.322 76.4674 225.158 77.2035 225.158 78.1787C225.158 79.1494 225.322 79.8854 225.65 80.3867C225.979 80.8835 226.462 81.1318 227.1 81.1318C227.742 81.1318 228.228 80.8835 228.556 80.3867C228.884 79.8854 229.048 79.1494 229.048 78.1787C229.048 77.2035 228.884 76.4674 228.556 75.9707C228.228 75.474 227.742 75.2256 227.1 75.2256ZM227.1 74.1592C228.161 74.1592 228.973 74.5033 229.533 75.1914C230.098 75.8796 230.381 76.8753 230.381 78.1787C230.381 79.4867 230.101 80.4847 229.54 81.1729C228.979 81.8564 228.166 82.1982 227.1 82.1982C226.038 82.1982 225.227 81.8564 224.666 81.1729C224.105 80.4847 223.825 79.4867 223.825 78.1787C223.825 76.8753 224.105 75.8796 224.666 75.1914C225.227 74.5033 226.038 74.1592 227.1 74.1592ZM238.509 77.2559V82H237.244V77.2559C237.244 76.5677 237.123 76.0618 236.882 75.7383C236.64 75.4147 236.262 75.2529 235.747 75.2529C235.159 75.2529 234.706 75.4626 234.387 75.8818C234.072 76.2965 233.915 76.8936 233.915 77.6729V82H232.657V74.3438H233.915V75.4922C234.138 75.0547 234.441 74.7243 234.824 74.501C235.207 74.2731 235.66 74.1592 236.185 74.1592C236.964 74.1592 237.545 74.4167 237.928 74.9316C238.315 75.4421 238.509 76.2168 238.509 77.2559ZM243.957 72.1699V74.3438H246.814V75.3213H243.957V79.4775C243.957 80.0426 244.064 80.4368 244.278 80.6602C244.493 80.8835 244.866 80.9951 245.399 80.9951H246.814V82H245.276C244.333 82 243.668 81.8109 243.28 81.4326C242.893 81.0544 242.699 80.4027 242.699 79.4775V75.3213H240.655V74.3438H242.699V72.1699H243.957ZM255.797 77.8574V78.4727H250.349V78.5137C250.349 79.3477 250.565 79.9925 250.998 80.4482C251.436 80.904 252.051 81.1318 252.844 81.1318C253.245 81.1318 253.664 81.068 254.102 80.9404C254.539 80.8128 255.006 80.6191 255.503 80.3594V81.6104C255.024 81.8063 254.562 81.9521 254.115 82.0479C253.673 82.1481 253.245 82.1982 252.83 82.1982C251.641 82.1982 250.711 81.8428 250.041 81.1318C249.371 80.4163 249.036 79.432 249.036 78.1787C249.036 76.9574 249.364 75.9821 250.021 75.2529C250.677 74.5238 251.552 74.1592 252.646 74.1592C253.621 74.1592 254.389 74.4896 254.949 75.1504C255.514 75.8112 255.797 76.7135 255.797 77.8574ZM254.539 77.4883C254.521 76.75 254.345 76.1895 254.013 75.8066C253.685 75.4193 253.211 75.2256 252.591 75.2256C251.985 75.2256 251.486 75.4261 251.094 75.8271C250.702 76.2282 250.469 76.7842 250.396 77.4951L254.539 77.4883ZM263.815 77.2559V82H262.551V77.2559C262.551 76.5677 262.43 76.0618 262.188 75.7383C261.947 75.4147 261.569 75.2529 261.054 75.2529C260.466 75.2529 260.012 75.4626 259.693 75.8818C259.379 76.2965 259.222 76.8936 259.222 77.6729V82H257.964V74.3438H259.222V75.4922C259.445 75.0547 259.748 74.7243 260.131 74.501C260.514 74.2731 260.967 74.1592 261.491 74.1592C262.271 74.1592 262.852 74.4167 263.234 74.9316C263.622 75.4421 263.815 76.2168 263.815 77.2559ZM269.264 72.1699V74.3438H272.121V75.3213H269.264V79.4775C269.264 80.0426 269.371 80.4368 269.585 80.6602C269.799 80.8835 270.173 80.9951 270.706 80.9951H272.121V82H270.583C269.64 82 268.974 81.8109 268.587 81.4326C268.2 81.0544 268.006 80.4027 268.006 79.4775V75.3213H265.962V74.3438H268.006V72.1699H269.264Z" fill="#D73A49"/>
<path d="M206.619 49.4307V48.1865L213.845 51.0439V52.1787L206.619 55.0361V53.7852L212.43 51.6182L206.619 49.4307Z" fill="#0B0C27"/>
</svg>
