<svg width="526" height="261" viewBox="0 0 526 261" fill="none" xmlns="http://www.w3.org/2000/svg">
<rect x="27.5" y="20" width="1" height="211" rx="0.5" fill="#E2E8F0"/>
<path d="M28.0131 255.644C27.3011 255.644 26.6771 255.452 26.1411 255.068C25.6051 254.676 25.1851 254.136 24.8811 253.448C24.5851 252.752 24.4371 251.944 24.4371 251.024C24.4371 250.096 24.5851 249.288 24.8811 248.6C25.1851 247.912 25.6011 247.376 26.1291 246.992C26.6651 246.608 27.2891 246.416 28.0011 246.416C28.7131 246.416 29.3331 246.608 29.8611 246.992C30.3971 247.376 30.8131 247.916 31.1091 248.612C31.4131 249.3 31.5651 250.104 31.5651 251.024C31.5651 251.944 31.4171 252.752 31.1211 253.448C30.8251 254.136 30.4091 254.676 29.8731 255.068C29.3451 255.452 28.7251 255.644 28.0131 255.644ZM28.0131 254.348C28.4531 254.348 28.8331 254.212 29.1531 253.94C29.4731 253.668 29.7211 253.284 29.8971 252.788C30.0731 252.292 30.1611 251.704 30.1611 251.024C30.1611 250.344 30.0731 249.756 29.8971 249.26C29.7211 248.764 29.4731 248.38 29.1531 248.108C28.8331 247.836 28.4491 247.7 28.0011 247.7C27.5611 247.7 27.1811 247.836 26.8611 248.108C26.5411 248.38 26.2931 248.764 26.1171 249.26C25.9411 249.756 25.8531 250.344 25.8531 251.024C25.8531 251.696 25.9411 252.284 26.1171 252.788C26.2931 253.284 26.5411 253.668 26.8611 253.94C27.1891 254.212 27.5731 254.348 28.0131 254.348Z" fill="#6B7280"/>
<rect x="121.5" y="20" width="1" height="211" rx="0.5" fill="#E2E8F0"/>
<path d="M110.694 255.5V254.48L113.142 251.864C113.622 251.352 113.998 250.94 114.27 250.628C114.55 250.308 114.75 250.028 114.87 249.788C114.998 249.548 115.062 249.296 115.062 249.032C115.062 248.6 114.93 248.268 114.666 248.036C114.402 247.796 114.062 247.676 113.646 247.676C113.214 247.676 112.842 247.8 112.53 248.048C112.218 248.288 112.002 248.64 111.882 249.104L110.634 248.744C110.73 248.272 110.922 247.864 111.21 247.52C111.498 247.168 111.85 246.896 112.266 246.704C112.69 246.512 113.146 246.416 113.634 246.416C114.202 246.416 114.698 246.524 115.122 246.74C115.546 246.948 115.874 247.24 116.106 247.616C116.346 247.992 116.466 248.428 116.466 248.924C116.466 249.252 116.402 249.572 116.274 249.884C116.154 250.188 115.966 250.512 115.71 250.856C115.454 251.192 115.126 251.572 114.726 251.996L112.566 254.3H116.634V255.5H110.694ZM121.574 255.644C120.862 255.644 120.238 255.452 119.702 255.068C119.166 254.676 118.746 254.136 118.442 253.448C118.146 252.752 117.998 251.944 117.998 251.024C117.998 250.096 118.146 249.288 118.442 248.6C118.746 247.912 119.162 247.376 119.69 246.992C120.226 246.608 120.85 246.416 121.562 246.416C122.274 246.416 122.894 246.608 123.422 246.992C123.958 247.376 124.374 247.916 124.67 248.612C124.974 249.3 125.126 250.104 125.126 251.024C125.126 251.944 124.978 252.752 124.682 253.448C124.386 254.136 123.97 254.676 123.434 255.068C122.906 255.452 122.286 255.644 121.574 255.644ZM121.574 254.348C122.014 254.348 122.394 254.212 122.714 253.94C123.034 253.668 123.282 253.284 123.458 252.788C123.634 252.292 123.722 251.704 123.722 251.024C123.722 250.344 123.634 249.756 123.458 249.26C123.282 248.764 123.034 248.38 122.714 248.108C122.394 247.836 122.01 247.7 121.562 247.7C121.122 247.7 120.742 247.836 120.422 248.108C120.102 248.38 119.854 248.764 119.678 249.26C119.502 249.756 119.414 250.344 119.414 251.024C119.414 251.696 119.502 252.284 119.678 252.788C119.854 253.284 120.102 253.668 120.422 253.94C120.75 254.212 121.134 254.348 121.574 254.348ZM126.779 255.5V246.56H128.195V251.408L127.823 251.264L131.867 246.56H133.631L130.055 250.748L130.127 249.74L133.775 255.5H132.107L129.491 251.408L128.195 252.92V255.5H126.779Z" fill="#6B7280"/>
<rect x="215.5" y="20" width="1" height="211" rx="0.5" fill="#E2E8F0"/>
<path d="M208.529 255.5V253.484H204.269V252.308L208.469 246.56H209.873V252.308H211.109V253.484H209.873V255.5H208.529ZM205.313 252.824L205.085 252.308H208.529V247.688L208.913 247.808L205.313 252.824ZM215.867 255.644C215.155 255.644 214.531 255.452 213.995 255.068C213.459 254.676 213.039 254.136 212.735 253.448C212.439 252.752 212.291 251.944 212.291 251.024C212.291 250.096 212.439 249.288 212.735 248.6C213.039 247.912 213.455 247.376 213.983 246.992C214.519 246.608 215.143 246.416 215.855 246.416C216.567 246.416 217.187 246.608 217.715 246.992C218.251 247.376 218.667 247.916 218.963 248.612C219.267 249.3 219.419 250.104 219.419 251.024C219.419 251.944 219.271 252.752 218.975 253.448C218.679 254.136 218.263 254.676 217.727 255.068C217.199 255.452 216.579 255.644 215.867 255.644ZM215.867 254.348C216.307 254.348 216.687 254.212 217.007 253.94C217.327 253.668 217.575 253.284 217.751 252.788C217.927 252.292 218.015 251.704 218.015 251.024C218.015 250.344 217.927 249.756 217.751 249.26C217.575 248.764 217.327 248.38 217.007 248.108C216.687 247.836 216.303 247.7 215.855 247.7C215.415 247.7 215.035 247.836 214.715 248.108C214.395 248.38 214.147 248.764 213.971 249.26C213.795 249.756 213.707 250.344 213.707 251.024C213.707 251.696 213.795 252.284 213.971 252.788C214.147 253.284 214.395 253.668 214.715 253.94C215.043 254.212 215.427 254.348 215.867 254.348ZM221.072 255.5V246.56H222.488V251.408L222.116 251.264L226.16 246.56H227.924L224.348 250.748L224.42 249.74L228.068 255.5H226.4L223.784 251.408L222.488 252.92V255.5H221.072Z" fill="#6B7280"/>
<rect x="309.5" y="20" width="1" height="211" rx="0.5" fill="#E2E8F0"/>
<path d="M301.688 255.644C301.104 255.644 300.584 255.516 300.128 255.26C299.672 255.004 299.312 254.652 299.048 254.204C298.792 253.756 298.664 253.248 298.664 252.68C298.664 252.384 298.696 252.088 298.76 251.792C298.824 251.496 298.936 251.188 299.096 250.868C299.264 250.548 299.488 250.204 299.768 249.836L302.264 246.56H303.956L300.896 250.52L300.656 250.364C300.768 250.236 300.888 250.136 301.016 250.064C301.152 249.992 301.292 249.94 301.436 249.908C301.588 249.876 301.748 249.86 301.916 249.86C302.452 249.86 302.932 249.984 303.356 250.232C303.78 250.48 304.112 250.816 304.352 251.24C304.6 251.664 304.724 252.152 304.724 252.704C304.724 253.264 304.592 253.768 304.328 254.216C304.064 254.656 303.704 255.004 303.248 255.26C302.8 255.516 302.28 255.644 301.688 255.644ZM301.688 254.384C302 254.384 302.276 254.312 302.516 254.168C302.756 254.024 302.948 253.828 303.092 253.58C303.236 253.324 303.308 253.036 303.308 252.716C303.308 252.388 303.236 252.1 303.092 251.852C302.956 251.604 302.764 251.412 302.516 251.276C302.276 251.132 302 251.06 301.688 251.06C301.384 251.06 301.108 251.132 300.86 251.276C300.62 251.412 300.428 251.604 300.284 251.852C300.14 252.1 300.068 252.388 300.068 252.716C300.068 253.036 300.14 253.324 300.284 253.58C300.428 253.828 300.62 254.024 300.86 254.168C301.108 254.312 301.384 254.384 301.688 254.384ZM309.591 255.644C308.879 255.644 308.255 255.452 307.719 255.068C307.183 254.676 306.763 254.136 306.459 253.448C306.163 252.752 306.015 251.944 306.015 251.024C306.015 250.096 306.163 249.288 306.459 248.6C306.763 247.912 307.179 247.376 307.707 246.992C308.243 246.608 308.867 246.416 309.579 246.416C310.291 246.416 310.911 246.608 311.439 246.992C311.975 247.376 312.391 247.916 312.687 248.612C312.991 249.3 313.143 250.104 313.143 251.024C313.143 251.944 312.995 252.752 312.699 253.448C312.403 254.136 311.987 254.676 311.451 255.068C310.923 255.452 310.303 255.644 309.591 255.644ZM309.591 254.348C310.031 254.348 310.411 254.212 310.731 253.94C311.051 253.668 311.299 253.284 311.475 252.788C311.651 252.292 311.739 251.704 311.739 251.024C311.739 250.344 311.651 249.756 311.475 249.26C311.299 248.764 311.051 248.38 310.731 248.108C310.411 247.836 310.027 247.7 309.579 247.7C309.139 247.7 308.759 247.836 308.439 248.108C308.119 248.38 307.871 248.764 307.695 249.26C307.519 249.756 307.431 250.344 307.431 251.024C307.431 251.696 307.519 252.284 307.695 252.788C307.871 253.284 308.119 253.668 308.439 253.94C308.767 254.212 309.151 254.348 309.591 254.348ZM314.797 255.5V246.56H316.213V251.408L315.841 251.264L319.885 246.56H321.649L318.073 250.748L318.145 249.74L321.793 255.5H320.125L317.509 251.408L316.213 252.92V255.5H314.797Z" fill="#6B7280"/>
<rect x="403.5" y="20" width="1" height="211" rx="0.5" fill="#E2E8F0"/>
<path d="M395.675 255.644C395.051 255.644 394.503 255.524 394.031 255.284C393.567 255.036 393.207 254.708 392.951 254.3C392.695 253.884 392.567 253.424 392.567 252.92C392.567 252.344 392.723 251.848 393.035 251.432C393.355 251.008 393.803 250.7 394.379 250.508L394.319 250.868C393.895 250.708 393.559 250.44 393.311 250.064C393.071 249.68 392.951 249.26 392.951 248.804C392.951 248.348 393.067 247.94 393.299 247.58C393.539 247.22 393.863 246.936 394.271 246.728C394.687 246.52 395.155 246.416 395.675 246.416C396.203 246.416 396.671 246.52 397.079 246.728C397.487 246.928 397.807 247.208 398.039 247.568C398.279 247.928 398.399 248.34 398.399 248.804C398.399 249.276 398.275 249.7 398.027 250.076C397.787 250.444 397.459 250.708 397.043 250.868L396.983 250.508C397.559 250.708 398.007 251.016 398.327 251.432C398.647 251.848 398.807 252.344 398.807 252.92C398.807 253.424 398.675 253.884 398.411 254.3C398.155 254.708 397.791 255.036 397.319 255.284C396.847 255.524 396.299 255.644 395.675 255.644ZM395.675 254.444C396.019 254.444 396.319 254.38 396.575 254.252C396.831 254.116 397.031 253.932 397.175 253.7C397.319 253.468 397.391 253.196 397.391 252.884C397.391 252.572 397.319 252.3 397.175 252.068C397.031 251.836 396.831 251.656 396.575 251.528C396.319 251.4 396.019 251.336 395.675 251.336C395.339 251.336 395.043 251.4 394.787 251.528C394.531 251.656 394.331 251.836 394.187 252.068C394.043 252.3 393.971 252.572 393.971 252.884C393.971 253.196 394.043 253.468 394.187 253.7C394.331 253.932 394.531 254.116 394.787 254.252C395.043 254.38 395.339 254.444 395.675 254.444ZM395.675 250.136C395.931 250.136 396.155 250.084 396.347 249.98C396.547 249.868 396.703 249.716 396.815 249.524C396.927 249.332 396.983 249.116 396.983 248.876C396.983 248.628 396.927 248.412 396.815 248.228C396.703 248.036 396.547 247.888 396.347 247.784C396.155 247.672 395.931 247.616 395.675 247.616C395.427 247.616 395.203 247.672 395.003 247.784C394.803 247.888 394.647 248.036 394.535 248.228C394.423 248.412 394.367 248.628 394.367 248.876C394.367 249.116 394.423 249.332 394.535 249.524C394.647 249.716 394.803 249.868 395.003 249.98C395.203 250.084 395.427 250.136 395.675 250.136ZM403.773 255.644C403.061 255.644 402.437 255.452 401.901 255.068C401.365 254.676 400.945 254.136 400.641 253.448C400.345 252.752 400.197 251.944 400.197 251.024C400.197 250.096 400.345 249.288 400.641 248.6C400.945 247.912 401.361 247.376 401.889 246.992C402.425 246.608 403.049 246.416 403.761 246.416C404.473 246.416 405.093 246.608 405.621 246.992C406.157 247.376 406.573 247.916 406.869 248.612C407.173 249.3 407.325 250.104 407.325 251.024C407.325 251.944 407.177 252.752 406.881 253.448C406.585 254.136 406.169 254.676 405.633 255.068C405.105 255.452 404.485 255.644 403.773 255.644ZM403.773 254.348C404.213 254.348 404.593 254.212 404.913 253.94C405.233 253.668 405.481 253.284 405.657 252.788C405.833 252.292 405.921 251.704 405.921 251.024C405.921 250.344 405.833 249.756 405.657 249.26C405.481 248.764 405.233 248.38 404.913 248.108C404.593 247.836 404.209 247.7 403.761 247.7C403.321 247.7 402.941 247.836 402.621 248.108C402.301 248.38 402.053 248.764 401.877 249.26C401.701 249.756 401.613 250.344 401.613 251.024C401.613 251.696 401.701 252.284 401.877 252.788C402.053 253.284 402.301 253.668 402.621 253.94C402.949 254.212 403.333 254.348 403.773 254.348ZM408.979 255.5V246.56H410.395V251.408L410.023 251.264L414.067 246.56H415.831L412.255 250.748L412.327 249.74L415.975 255.5H414.307L411.691 251.408L410.395 252.92V255.5H408.979Z" fill="#6B7280"/>
<rect x="497.5" y="20" width="1" height="211" rx="0.5" fill="#E2E8F0"/>
<path d="M485.147 255.5V247.76H483.431V246.56H486.551V255.5H485.147ZM492.042 255.644C491.33 255.644 490.706 255.452 490.17 255.068C489.634 254.676 489.214 254.136 488.91 253.448C488.614 252.752 488.466 251.944 488.466 251.024C488.466 250.096 488.614 249.288 488.91 248.6C489.214 247.912 489.63 247.376 490.158 246.992C490.694 246.608 491.318 246.416 492.03 246.416C492.742 246.416 493.362 246.608 493.89 246.992C494.426 247.376 494.842 247.916 495.138 248.612C495.442 249.3 495.594 250.104 495.594 251.024C495.594 251.944 495.446 252.752 495.15 253.448C494.854 254.136 494.438 254.676 493.902 255.068C493.374 255.452 492.754 255.644 492.042 255.644ZM492.042 254.348C492.482 254.348 492.862 254.212 493.182 253.94C493.502 253.668 493.75 253.284 493.926 252.788C494.102 252.292 494.19 251.704 494.19 251.024C494.19 250.344 494.102 249.756 493.926 249.26C493.75 248.764 493.502 248.38 493.182 248.108C492.862 247.836 492.478 247.7 492.03 247.7C491.59 247.7 491.21 247.836 490.89 248.108C490.57 248.38 490.322 248.764 490.146 249.26C489.97 249.756 489.882 250.344 489.882 251.024C489.882 251.696 489.97 252.284 490.146 252.788C490.322 253.284 490.57 253.668 490.89 253.94C491.218 254.212 491.602 254.348 492.042 254.348ZM500.632 255.644C499.92 255.644 499.296 255.452 498.76 255.068C498.224 254.676 497.804 254.136 497.5 253.448C497.204 252.752 497.056 251.944 497.056 251.024C497.056 250.096 497.204 249.288 497.5 248.6C497.804 247.912 498.22 247.376 498.748 246.992C499.284 246.608 499.908 246.416 500.62 246.416C501.332 246.416 501.952 246.608 502.48 246.992C503.016 247.376 503.432 247.916 503.728 248.612C504.032 249.3 504.184 250.104 504.184 251.024C504.184 251.944 504.036 252.752 503.74 253.448C503.444 254.136 503.028 254.676 502.492 255.068C501.964 255.452 501.344 255.644 500.632 255.644ZM500.632 254.348C501.072 254.348 501.452 254.212 501.772 253.94C502.092 253.668 502.34 253.284 502.516 252.788C502.692 252.292 502.78 251.704 502.78 251.024C502.78 250.344 502.692 249.756 502.516 249.26C502.34 248.764 502.092 248.38 501.772 248.108C501.452 247.836 501.068 247.7 500.62 247.7C500.18 247.7 499.8 247.836 499.48 248.108C499.16 248.38 498.912 248.764 498.736 249.26C498.56 249.756 498.472 250.344 498.472 251.024C498.472 251.696 498.56 252.284 498.736 252.788C498.912 253.284 499.16 253.668 499.48 253.94C499.808 254.212 500.192 254.348 500.632 254.348ZM505.838 255.5V246.56H507.254V251.408L506.882 251.264L510.926 246.56H512.69L509.114 250.748L509.186 249.74L512.834 255.5H511.166L508.55 251.408L507.254 252.92V255.5H505.838Z" fill="#6B7280"/>
<path d="M3.078 48.0001V37.5701H6.494C7.57667 37.5701 8.51467 37.7894 9.308 38.2281C10.1107 38.6574 10.7313 39.2641 11.17 40.0481C11.6087 40.8321 11.828 41.7421 11.828 42.7781C11.828 43.8047 11.6087 44.7147 11.17 45.5081C10.7313 46.2921 10.1107 46.9034 9.308 47.3421C8.51467 47.7807 7.57667 48.0001 6.494 48.0001H3.078ZM4.73 46.5301H6.522C7.25933 46.5301 7.89867 46.3761 8.44 46.0681C8.99067 45.7601 9.41533 45.3261 9.714 44.7661C10.0127 44.2061 10.162 43.5434 10.162 42.7781C10.162 42.0127 10.008 41.3547 9.7 40.8041C9.40133 40.2441 8.98133 39.8101 8.44 39.5021C7.89867 39.1941 7.25933 39.0401 6.522 39.0401H4.73V46.5301ZM16.857 48.1681C16.101 48.1681 15.429 47.9954 14.841 47.6501C14.2623 47.2954 13.8096 46.8194 13.483 46.2221C13.1563 45.6154 12.993 44.9387 12.993 44.1921C12.993 43.4267 13.1563 42.7501 13.483 42.1621C13.819 41.5741 14.267 41.1121 14.827 40.7761C15.387 40.4307 16.0216 40.2581 16.731 40.2581C17.3003 40.2581 17.809 40.3561 18.257 40.5521C18.705 40.7481 19.083 41.0187 19.391 41.3641C19.699 41.7001 19.9323 42.0874 20.091 42.5261C20.259 42.9647 20.343 43.4314 20.343 43.9261C20.343 44.0474 20.3383 44.1734 20.329 44.3041C20.3196 44.4347 20.301 44.5561 20.273 44.6681H14.239V43.4081H19.377L18.621 43.9821C18.7143 43.5247 18.6816 43.1187 18.523 42.7641C18.3736 42.4001 18.1403 42.1154 17.823 41.9101C17.515 41.6954 17.151 41.5881 16.731 41.5881C16.311 41.5881 15.9376 41.6954 15.611 41.9101C15.2843 42.1154 15.0323 42.4141 14.855 42.8061C14.6776 43.1887 14.6076 43.6554 14.645 44.2061C14.5983 44.7194 14.6683 45.1674 14.855 45.5501C15.051 45.9327 15.3216 46.2314 15.667 46.4461C16.0216 46.6607 16.423 46.7681 16.871 46.7681C17.3283 46.7681 17.7156 46.6654 18.033 46.4601C18.3596 46.2547 18.6163 45.9887 18.803 45.6621L20.091 46.2921C19.9416 46.6467 19.7083 46.9687 19.391 47.2581C19.083 47.5381 18.7096 47.7621 18.271 47.9301C17.8416 48.0887 17.3703 48.1681 16.857 48.1681ZM24.6869 48.1681C23.9122 48.1681 23.2309 47.9767 22.6429 47.5941C22.0642 47.2114 21.6582 46.6981 21.4249 46.0541L22.6429 45.4801C22.8482 45.9094 23.1282 46.2501 23.4829 46.5021C23.8469 46.7541 24.2482 46.8801 24.6869 46.8801C25.0602 46.8801 25.3636 46.7961 25.5969 46.6281C25.8302 46.4601 25.9469 46.2314 25.9469 45.9421C25.9469 45.7554 25.8956 45.6061 25.7929 45.4941C25.6902 45.3727 25.5596 45.2747 25.4009 45.2001C25.2516 45.1254 25.0976 45.0694 24.9389 45.0321L23.7489 44.6961C23.0956 44.5094 22.6056 44.2294 22.2789 43.8561C21.9616 43.4734 21.8029 43.0301 21.8029 42.5261C21.8029 42.0687 21.9196 41.6721 22.1529 41.3361C22.3862 40.9907 22.7082 40.7247 23.1189 40.5381C23.5296 40.3514 23.9916 40.2581 24.5049 40.2581C25.1956 40.2581 25.8116 40.4307 26.3529 40.7761C26.8942 41.1121 27.2769 41.5834 27.5009 42.1901L26.2829 42.7641C26.1336 42.4001 25.8956 42.1107 25.5689 41.8961C25.2516 41.6814 24.8922 41.5741 24.4909 41.5741C24.1456 41.5741 23.8702 41.6581 23.6649 41.8261C23.4596 41.9847 23.3569 42.1947 23.3569 42.4561C23.3569 42.6334 23.4036 42.7827 23.4969 42.9041C23.5902 43.0161 23.7116 43.1094 23.8609 43.1841C24.0102 43.2494 24.1642 43.3054 24.3229 43.3521L25.5549 43.7161C26.1802 43.8934 26.6609 44.1734 26.9969 44.5561C27.3329 44.9294 27.5009 45.3774 27.5009 45.9001C27.5009 46.3481 27.3796 46.7447 27.1369 47.0901C26.9036 47.4261 26.5769 47.6921 26.1569 47.8881C25.7369 48.0747 25.2469 48.1681 24.6869 48.1681ZM29.051 48.0001V40.4261H30.633V48.0001H29.051ZM29.051 39.3901V37.5701H30.633V39.3901H29.051ZM36.1366 51.0801C35.5859 51.0801 35.0773 50.9914 34.6106 50.8141C34.1439 50.6367 33.7426 50.3894 33.4066 50.0721C33.0706 49.7641 32.8186 49.4001 32.6506 48.9801L34.1066 48.3781C34.2373 48.7327 34.4753 49.0267 34.8206 49.2601C35.1753 49.4934 35.6093 49.6101 36.1226 49.6101C36.5239 49.6101 36.8833 49.5307 37.2006 49.3721C37.5179 49.2227 37.7699 48.9987 37.9566 48.7001C38.1433 48.4107 38.2366 48.0607 38.2366 47.6501V45.9421L38.5166 46.2641C38.2553 46.7494 37.8913 47.1181 37.4246 47.3701C36.9673 47.6221 36.4493 47.7481 35.8706 47.7481C35.1706 47.7481 34.5406 47.5847 33.9806 47.2581C33.4206 46.9314 32.9773 46.4834 32.6506 45.9141C32.3333 45.3447 32.1746 44.7054 32.1746 43.9961C32.1746 43.2774 32.3333 42.6381 32.6506 42.0781C32.9773 41.5181 33.4159 41.0747 33.9666 40.7481C34.5173 40.4214 35.1473 40.2581 35.8566 40.2581C36.4353 40.2581 36.9486 40.3841 37.3966 40.6361C37.8539 40.8787 38.2273 41.2334 38.5166 41.7001L38.3066 42.0921V40.4261H39.8046V47.6501C39.8046 48.3034 39.6459 48.8867 39.3286 49.4001C39.0206 49.9227 38.5913 50.3334 38.0406 50.6321C37.4899 50.9307 36.8553 51.0801 36.1366 51.0801ZM36.0526 46.2781C36.4726 46.2781 36.8459 46.1801 37.1726 45.9841C37.4993 45.7787 37.7559 45.5081 37.9426 45.1721C38.1386 44.8267 38.2366 44.4394 38.2366 44.0101C38.2366 43.5807 38.1386 43.1934 37.9426 42.8481C37.7466 42.5027 37.4853 42.2321 37.1586 42.0361C36.8319 41.8307 36.4633 41.7281 36.0526 41.7281C35.6233 41.7281 35.2406 41.8307 34.9046 42.0361C34.5686 42.2321 34.3026 42.5027 34.1066 42.8481C33.9199 43.1841 33.8266 43.5714 33.8266 44.0101C33.8266 44.4301 33.9199 44.8127 34.1066 45.1581C34.3026 45.5034 34.5686 45.7787 34.9046 45.9841C35.2406 46.1801 35.6233 46.2781 36.0526 46.2781ZM41.6564 48.0001V40.4261H43.1684V41.9101L42.9864 41.7141C43.1731 41.2381 43.4718 40.8787 43.8824 40.6361C44.2931 40.3841 44.7691 40.2581 45.3104 40.2581C45.8704 40.2581 46.3651 40.3794 46.7944 40.6221C47.2238 40.8647 47.5598 41.2007 47.8024 41.6301C48.0451 42.0594 48.1664 42.5541 48.1664 43.1141V48.0001H46.5984V43.5341C46.5984 43.1514 46.5284 42.8294 46.3884 42.5681C46.2484 42.2974 46.0478 42.0921 45.7864 41.9521C45.5344 41.8027 45.2451 41.7281 44.9184 41.7281C44.5918 41.7281 44.2978 41.8027 44.0364 41.9521C43.7844 42.0921 43.5884 42.2974 43.4484 42.5681C43.3084 42.8387 43.2384 43.1607 43.2384 43.5341V48.0001H41.6564Z" fill="#525866"/>
<rect x="524" y="61.0001" width="30" height="400" rx="10" transform="rotate(90 524 61.0001)" fill="#F5F7FA"/>
<rect x="342" y="61.0001" width="30" height="340" rx="10" transform="rotate(90 342 61.0001)" fill="#EAB308"/>
<rect x="220" y="61.0001" width="30" height="218" rx="10" transform="rotate(90 220 61.0001)" fill="#22C55E"/>
<path d="M3.078 116V105.57H9.952V107.04H4.73V110.036H9.672V111.506H4.73V114.53H9.952V116H3.078ZM14.8322 116.168C14.1042 116.168 13.4509 115.995 12.8722 115.65C12.3029 115.295 11.8502 114.819 11.5142 114.222C11.1875 113.625 11.0242 112.953 11.0242 112.206C11.0242 111.459 11.1922 110.787 11.5282 110.19C11.8642 109.593 12.3169 109.121 12.8862 108.776C13.4555 108.431 14.0995 108.258 14.8182 108.258C15.4249 108.258 15.9615 108.379 16.4282 108.622C16.8949 108.865 17.2635 109.201 17.5342 109.63L17.2962 109.994V105.402H18.8642V116H17.3662V114.46L17.5482 114.754C17.2869 115.211 16.9135 115.561 16.4282 115.804C15.9429 116.047 15.4109 116.168 14.8322 116.168ZM14.9862 114.698C15.4249 114.698 15.8169 114.591 16.1622 114.376C16.5169 114.161 16.7922 113.867 16.9882 113.494C17.1935 113.111 17.2962 112.682 17.2962 112.206C17.2962 111.73 17.1935 111.305 16.9882 110.932C16.7922 110.559 16.5169 110.265 16.1622 110.05C15.8169 109.835 15.4249 109.728 14.9862 109.728C14.5475 109.728 14.1509 109.835 13.7962 110.05C13.4415 110.265 13.1662 110.559 12.9702 110.932C12.7742 111.305 12.6762 111.73 12.6762 112.206C12.6762 112.682 12.7742 113.111 12.9702 113.494C13.1662 113.867 13.4369 114.161 13.7822 114.376C14.1369 114.591 14.5382 114.698 14.9862 114.698ZM20.7111 116V108.426H22.2931V116H20.7111ZM20.7111 107.39V105.57H22.2931V107.39H20.7111ZM27.4188 116.084C26.6254 116.084 26.0094 115.86 25.5708 115.412C25.1321 114.964 24.9128 114.334 24.9128 113.522V109.854H23.5828V108.426H23.7928C24.1474 108.426 24.4228 108.323 24.6188 108.118C24.8148 107.913 24.9128 107.633 24.9128 107.278V106.69H26.4948V108.426H28.2168V109.854H26.4948V113.452C26.4948 113.713 26.5368 113.937 26.6208 114.124C26.7048 114.301 26.8401 114.441 27.0268 114.544C27.2134 114.637 27.4561 114.684 27.7548 114.684C27.8294 114.684 27.9134 114.679 28.0068 114.67C28.1001 114.661 28.1888 114.651 28.2728 114.642V116C28.1421 116.019 27.9974 116.037 27.8388 116.056C27.6801 116.075 27.5401 116.084 27.4188 116.084ZM29.8166 116V108.426H31.3986V116H29.8166ZM29.8166 107.39V105.57H31.3986V107.39H29.8166ZM33.2482 116V108.426H34.7602V109.91L34.5782 109.714C34.7649 109.238 35.0636 108.879 35.4742 108.636C35.8849 108.384 36.3609 108.258 36.9022 108.258C37.4622 108.258 37.9569 108.379 38.3862 108.622C38.8156 108.865 39.1516 109.201 39.3942 109.63C39.6369 110.059 39.7582 110.554 39.7582 111.114V116H38.1902V111.534C38.1902 111.151 38.1202 110.829 37.9802 110.568C37.8402 110.297 37.6396 110.092 37.3782 109.952C37.1262 109.803 36.8369 109.728 36.5102 109.728C36.1836 109.728 35.8896 109.803 35.6282 109.952C35.3762 110.092 35.1802 110.297 35.0402 110.568C34.9002 110.839 34.8302 111.161 34.8302 111.534V116H33.2482ZM45.1053 119.08C44.5547 119.08 44.046 118.991 43.5793 118.814C43.1127 118.637 42.7113 118.389 42.3753 118.072C42.0393 117.764 41.7873 117.4 41.6193 116.98L43.0753 116.378C43.206 116.733 43.444 117.027 43.7893 117.26C44.144 117.493 44.578 117.61 45.0913 117.61C45.4927 117.61 45.852 117.531 46.1693 117.372C46.4867 117.223 46.7387 116.999 46.9253 116.7C47.112 116.411 47.2053 116.061 47.2053 115.65V113.942L47.4853 114.264C47.224 114.749 46.86 115.118 46.3933 115.37C45.936 115.622 45.418 115.748 44.8393 115.748C44.1393 115.748 43.5093 115.585 42.9493 115.258C42.3893 114.931 41.946 114.483 41.6193 113.914C41.302 113.345 41.1433 112.705 41.1433 111.996C41.1433 111.277 41.302 110.638 41.6193 110.078C41.946 109.518 42.3847 109.075 42.9353 108.748C43.486 108.421 44.116 108.258 44.8253 108.258C45.404 108.258 45.9173 108.384 46.3653 108.636C46.8227 108.879 47.196 109.233 47.4853 109.7L47.2753 110.092V108.426H48.7733V115.65C48.7733 116.303 48.6147 116.887 48.2973 117.4C47.9893 117.923 47.56 118.333 47.0093 118.632C46.4587 118.931 45.824 119.08 45.1053 119.08ZM45.0213 114.278C45.4413 114.278 45.8147 114.18 46.1413 113.984C46.468 113.779 46.7247 113.508 46.9113 113.172C47.1073 112.827 47.2053 112.439 47.2053 112.01C47.2053 111.581 47.1073 111.193 46.9113 110.848C46.7153 110.503 46.454 110.232 46.1273 110.036C45.8007 109.831 45.432 109.728 45.0213 109.728C44.592 109.728 44.2093 109.831 43.8733 110.036C43.5373 110.232 43.2713 110.503 43.0753 110.848C42.8887 111.184 42.7953 111.571 42.7953 112.01C42.7953 112.43 42.8887 112.813 43.0753 113.158C43.2713 113.503 43.5373 113.779 43.8733 113.984C44.2093 114.18 44.592 114.278 45.0213 114.278Z" fill="#525866"/>
<rect x="524" y="129" width="30" height="440" rx="10" transform="rotate(90 524 129)" fill="#F5F7FA"/>
<rect x="232" y="129" width="30" height="230" rx="10" transform="rotate(90 232 129)" fill="#EAB308"/>
<rect x="150" y="129" width="30" height="148" rx="10" transform="rotate(90 150 129)" fill="#22C55E"/>
<path d="M3.078 184V173.57H6.872C7.572 173.57 8.188 173.701 8.72 173.962C9.26133 174.214 9.68133 174.587 9.98 175.082C10.2787 175.567 10.428 176.151 10.428 176.832C10.428 177.504 10.274 178.083 9.966 178.568C9.66733 179.053 9.252 179.427 8.72 179.688C8.188 179.949 7.572 180.08 6.872 180.08H4.73V184H3.078ZM4.73 178.61H6.914C7.28733 178.61 7.614 178.535 7.894 178.386C8.174 178.237 8.39333 178.031 8.552 177.77C8.71067 177.499 8.79 177.182 8.79 176.818C8.79 176.454 8.71067 176.141 8.552 175.88C8.39333 175.609 8.174 175.404 7.894 175.264C7.614 175.115 7.28733 175.04 6.914 175.04H4.73V178.61ZM11.9748 184V176.426H13.4868V177.952L13.3468 177.728C13.5148 177.233 13.7854 176.879 14.1588 176.664C14.5321 176.44 14.9801 176.328 15.5028 176.328H15.9648V177.77H15.3068C14.7841 177.77 14.3594 177.933 14.0328 178.26C13.7154 178.577 13.5568 179.035 13.5568 179.632V184H11.9748ZM20.701 184.168C19.973 184.168 19.3057 183.995 18.699 183.65C18.1017 183.305 17.6257 182.833 17.271 182.236C16.9164 181.639 16.739 180.962 16.739 180.206C16.739 179.441 16.9164 178.764 17.271 178.176C17.6257 177.579 18.1017 177.112 18.699 176.776C19.2964 176.431 19.9637 176.258 20.701 176.258C21.4477 176.258 22.115 176.431 22.703 176.776C23.3004 177.112 23.7717 177.579 24.117 178.176C24.4717 178.764 24.649 179.441 24.649 180.206C24.649 180.971 24.4717 181.653 24.117 182.25C23.7624 182.847 23.2864 183.319 22.689 183.664C22.0917 184 21.429 184.168 20.701 184.168ZM20.701 182.698C21.149 182.698 21.5457 182.591 21.891 182.376C22.2364 182.161 22.507 181.867 22.703 181.494C22.9084 181.111 23.011 180.682 23.011 180.206C23.011 179.73 22.9084 179.305 22.703 178.932C22.507 178.559 22.2364 178.265 21.891 178.05C21.5457 177.835 21.149 177.728 20.701 177.728C20.2624 177.728 19.8657 177.835 19.511 178.05C19.1657 178.265 18.8904 178.559 18.685 178.932C18.489 179.305 18.391 179.73 18.391 180.206C18.391 180.682 18.489 181.111 18.685 181.494C18.8904 181.867 19.1657 182.161 19.511 182.376C19.8657 182.591 20.2624 182.698 20.701 182.698ZM29.8475 187.08C29.2969 187.08 28.7882 186.991 28.3215 186.814C27.8549 186.637 27.4535 186.389 27.1175 186.072C26.7815 185.764 26.5295 185.4 26.3615 184.98L27.8175 184.378C27.9482 184.733 28.1862 185.027 28.5315 185.26C28.8862 185.493 29.3202 185.61 29.8335 185.61C30.2349 185.61 30.5942 185.531 30.9115 185.372C31.2289 185.223 31.4809 184.999 31.6675 184.7C31.8542 184.411 31.9475 184.061 31.9475 183.65V181.942L32.2275 182.264C31.9662 182.749 31.6022 183.118 31.1355 183.37C30.6782 183.622 30.1602 183.748 29.5815 183.748C28.8815 183.748 28.2515 183.585 27.6915 183.258C27.1315 182.931 26.6882 182.483 26.3615 181.914C26.0442 181.345 25.8855 180.705 25.8855 179.996C25.8855 179.277 26.0442 178.638 26.3615 178.078C26.6882 177.518 27.1269 177.075 27.6775 176.748C28.2282 176.421 28.8582 176.258 29.5675 176.258C30.1462 176.258 30.6595 176.384 31.1075 176.636C31.5649 176.879 31.9382 177.233 32.2275 177.7L32.0175 178.092V176.426H33.5155V183.65C33.5155 184.303 33.3569 184.887 33.0395 185.4C32.7315 185.923 32.3022 186.333 31.7515 186.632C31.2009 186.931 30.5662 187.08 29.8475 187.08ZM29.7635 182.278C30.1835 182.278 30.5569 182.18 30.8835 181.984C31.2102 181.779 31.4669 181.508 31.6535 181.172C31.8495 180.827 31.9475 180.439 31.9475 180.01C31.9475 179.581 31.8495 179.193 31.6535 178.848C31.4575 178.503 31.1962 178.232 30.8695 178.036C30.5429 177.831 30.1742 177.728 29.7635 177.728C29.3342 177.728 28.9515 177.831 28.6155 178.036C28.2795 178.232 28.0135 178.503 27.8175 178.848C27.6309 179.184 27.5375 179.571 27.5375 180.01C27.5375 180.43 27.6309 180.813 27.8175 181.158C28.0135 181.503 28.2795 181.779 28.6155 181.984C28.9515 182.18 29.3342 182.278 29.7635 182.278ZM35.3674 184V176.426H36.8794V177.952L36.7394 177.728C36.9074 177.233 37.178 176.879 37.5514 176.664C37.9247 176.44 38.3727 176.328 38.8954 176.328H39.3574V177.77H38.6994C38.1767 177.77 37.752 177.933 37.4254 178.26C37.108 178.577 36.9494 179.035 36.9494 179.632V184H35.3674ZM42.7076 184.168C42.1943 184.168 41.7416 184.079 41.3496 183.902C40.967 183.715 40.6683 183.463 40.4536 183.146C40.239 182.819 40.1316 182.437 40.1316 181.998C40.1316 181.587 40.2203 181.219 40.3976 180.892C40.5843 180.565 40.869 180.29 41.2516 180.066C41.6343 179.842 42.115 179.683 42.6936 179.59L45.3256 179.156V180.402L43.0016 180.808C42.5816 180.883 42.2736 181.018 42.0776 181.214C41.8816 181.401 41.7836 181.643 41.7836 181.942C41.7836 182.231 41.891 182.469 42.1056 182.656C42.3296 182.833 42.6143 182.922 42.9596 182.922C43.389 182.922 43.7623 182.829 44.0796 182.642C44.4063 182.455 44.6583 182.208 44.8356 181.9C45.013 181.583 45.1016 181.233 45.1016 180.85V178.904C45.1016 178.531 44.9616 178.227 44.6816 177.994C44.411 177.751 44.047 177.63 43.5896 177.63C43.1696 177.63 42.801 177.742 42.4836 177.966C42.1756 178.181 41.947 178.461 41.7976 178.806L40.4816 178.148C40.6216 177.775 40.8503 177.448 41.1676 177.168C41.485 176.879 41.8536 176.655 42.2736 176.496C42.703 176.337 43.1556 176.258 43.6316 176.258C44.229 176.258 44.7563 176.37 45.2136 176.594C45.6803 176.818 46.0396 177.131 46.2916 177.532C46.553 177.924 46.6836 178.381 46.6836 178.904V184H45.1716V182.628L45.4936 182.67C45.3163 182.978 45.0876 183.244 44.8076 183.468C44.537 183.692 44.2243 183.865 43.8696 183.986C43.5243 184.107 43.137 184.168 42.7076 184.168ZM48.5334 184V176.426H50.0454V178.064L49.8494 177.812C50.008 177.299 50.2974 176.911 50.7174 176.65C51.1374 176.389 51.618 176.258 52.1594 176.258C52.766 176.258 53.3027 176.421 53.7694 176.748C54.2454 177.065 54.5627 177.49 54.7214 178.022L54.2734 178.064C54.4974 177.457 54.838 177.005 55.2954 176.706C55.762 176.407 56.294 176.258 56.8914 176.258C57.414 176.258 57.8854 176.379 58.3054 176.622C58.7347 176.865 59.0754 177.201 59.3274 177.63C59.5794 178.059 59.7054 178.549 59.7054 179.1V184H58.1234V179.534C58.1234 179.151 58.0534 178.829 57.9134 178.568C57.7827 178.297 57.596 178.092 57.3534 177.952C57.12 177.803 56.8447 177.728 56.5274 177.728C56.21 177.728 55.93 177.803 55.6874 177.952C55.4447 178.092 55.2534 178.297 55.1134 178.568C54.9734 178.839 54.9034 179.161 54.9034 179.534V184H53.3354V179.534C53.3354 179.151 53.2654 178.829 53.1254 178.568C52.9947 178.297 52.808 178.092 52.5654 177.952C52.332 177.803 52.052 177.728 51.7254 177.728C51.408 177.728 51.128 177.803 50.8854 177.952C50.6427 178.092 50.4514 178.297 50.3114 178.568C50.1807 178.839 50.1154 179.161 50.1154 179.534V184H48.5334ZM61.3986 184V176.426H62.9106V178.064L62.7146 177.812C62.8733 177.299 63.1626 176.911 63.5826 176.65C64.0026 176.389 64.4833 176.258 65.0246 176.258C65.6313 176.258 66.1679 176.421 66.6346 176.748C67.1106 177.065 67.4279 177.49 67.5866 178.022L67.1386 178.064C67.3626 177.457 67.7033 177.005 68.1606 176.706C68.6273 176.407 69.1593 176.258 69.7566 176.258C70.2793 176.258 70.7506 176.379 71.1706 176.622C71.5999 176.865 71.9406 177.201 72.1926 177.63C72.4446 178.059 72.5706 178.549 72.5706 179.1V184H70.9886V179.534C70.9886 179.151 70.9186 178.829 70.7786 178.568C70.6479 178.297 70.4613 178.092 70.2186 177.952C69.9853 177.803 69.7099 177.728 69.3926 177.728C69.0753 177.728 68.7953 177.803 68.5526 177.952C68.3099 178.092 68.1186 178.297 67.9786 178.568C67.8386 178.839 67.7686 179.161 67.7686 179.534V184H66.2006V179.534C66.2006 179.151 66.1306 178.829 65.9906 178.568C65.8599 178.297 65.6733 178.092 65.4306 177.952C65.1973 177.803 64.9173 177.728 64.5906 177.728C64.2733 177.728 63.9933 177.803 63.7506 177.952C63.5079 178.092 63.3166 178.297 63.1766 178.568C63.0459 178.839 62.9806 179.161 62.9806 179.534V184H61.3986ZM74.2638 184V176.426H75.8458V184H74.2638ZM74.2638 175.39V173.57H75.8458V175.39H74.2638ZM77.6955 184V176.426H79.2075V177.91L79.0255 177.714C79.2122 177.238 79.5108 176.879 79.9215 176.636C80.3322 176.384 80.8082 176.258 81.3495 176.258C81.9095 176.258 82.4042 176.379 82.8335 176.622C83.2628 176.865 83.5988 177.201 83.8415 177.63C84.0842 178.059 84.2055 178.554 84.2055 179.114V184H82.6375V179.534C82.6375 179.151 82.5675 178.829 82.4275 178.568C82.2875 178.297 82.0868 178.092 81.8255 177.952C81.5735 177.803 81.2842 177.728 80.9575 177.728C80.6308 177.728 80.3368 177.803 80.0755 177.952C79.8235 178.092 79.6275 178.297 79.4875 178.568C79.3475 178.839 79.2775 179.161 79.2775 179.534V184H77.6955ZM89.5526 187.08C89.0019 187.08 88.4933 186.991 88.0266 186.814C87.5599 186.637 87.1586 186.389 86.8226 186.072C86.4866 185.764 86.2346 185.4 86.0666 184.98L87.5226 184.378C87.6533 184.733 87.8913 185.027 88.2366 185.26C88.5913 185.493 89.0253 185.61 89.5386 185.61C89.9399 185.61 90.2993 185.531 90.6166 185.372C90.9339 185.223 91.1859 184.999 91.3726 184.7C91.5593 184.411 91.6526 184.061 91.6526 183.65V181.942L91.9326 182.264C91.6713 182.749 91.3073 183.118 90.8406 183.37C90.3833 183.622 89.8653 183.748 89.2866 183.748C88.5866 183.748 87.9566 183.585 87.3966 183.258C86.8366 182.931 86.3933 182.483 86.0666 181.914C85.7493 181.345 85.5906 180.705 85.5906 179.996C85.5906 179.277 85.7493 178.638 86.0666 178.078C86.3933 177.518 86.8319 177.075 87.3826 176.748C87.9333 176.421 88.5633 176.258 89.2726 176.258C89.8513 176.258 90.3646 176.384 90.8126 176.636C91.2699 176.879 91.6433 177.233 91.9326 177.7L91.7226 178.092V176.426H93.2206V183.65C93.2206 184.303 93.0619 184.887 92.7446 185.4C92.4366 185.923 92.0073 186.333 91.4566 186.632C90.9059 186.931 90.2713 187.08 89.5526 187.08ZM89.4686 182.278C89.8886 182.278 90.2619 182.18 90.5886 181.984C90.9153 181.779 91.1719 181.508 91.3586 181.172C91.5546 180.827 91.6526 180.439 91.6526 180.01C91.6526 179.581 91.5546 179.193 91.3586 178.848C91.1626 178.503 90.9013 178.232 90.5746 178.036C90.2479 177.831 89.8793 177.728 89.4686 177.728C89.0393 177.728 88.6566 177.831 88.3206 178.036C87.9846 178.232 87.7186 178.503 87.5226 178.848C87.3359 179.184 87.2426 179.571 87.2426 180.01C87.2426 180.43 87.3359 180.813 87.5226 181.158C87.7186 181.503 87.9846 181.779 88.3206 181.984C88.6566 182.18 89.0393 182.278 89.4686 182.278Z" fill="#525866"/>
<rect x="524" y="197" width="30" height="422" rx="10" transform="rotate(90 524 197)" fill="#F5F7FA"/>
<rect x="202" y="197" width="30" height="200" rx="10" transform="rotate(90 202 197)" fill="#EAB308"/>
<rect x="102" y="197" width="30" height="100" rx="10" transform="rotate(90 102 197)" fill="#22C55E"/>
</svg>
