<svg width="526" height="208" viewBox="0 0 526 208" fill="none" xmlns="http://www.w3.org/2000/svg">
<rect x="12" y="32" width="12" height="146" rx="6" fill="#22C55E"/>
<rect x="28" width="12" height="178" rx="6" fill="#335CFF"/>
<path d="M17.1589 202.5V201.18H17.6749C18.0749 201.18 18.3949 201.064 18.6349 200.832C18.8749 200.592 18.9949 200.272 18.9949 199.872V193.56H20.3989V199.824C20.3989 200.368 20.2869 200.84 20.0629 201.24C19.8469 201.64 19.5309 201.952 19.1149 202.176C18.7069 202.392 18.2269 202.5 17.6749 202.5H17.1589ZM24.4146 202.644C23.9266 202.644 23.4986 202.536 23.1306 202.32C22.7626 202.096 22.4746 201.788 22.2666 201.396C22.0666 200.996 21.9666 200.536 21.9666 200.016V196.008H23.3226V199.896C23.3226 200.192 23.3826 200.452 23.5026 200.676C23.6226 200.9 23.7906 201.076 24.0066 201.204C24.2226 201.324 24.4706 201.384 24.7506 201.384C25.0386 201.384 25.2906 201.32 25.5066 201.192C25.7226 201.064 25.8906 200.884 26.0106 200.652C26.1386 200.42 26.2026 200.148 26.2026 199.836V196.008H27.5466V202.5H26.2626V201.228L26.4066 201.396C26.2546 201.796 26.0026 202.104 25.6506 202.32C25.2986 202.536 24.8866 202.644 24.4146 202.644ZM29.1299 202.5V196.008H30.4259V197.28L30.2699 197.112C30.4299 196.704 30.6859 196.396 31.0379 196.188C31.3899 195.972 31.7979 195.864 32.2619 195.864C32.7419 195.864 33.1659 195.968 33.5339 196.176C33.9019 196.384 34.1899 196.672 34.3979 197.04C34.6059 197.408 34.7099 197.832 34.7099 198.312V202.5H33.3659V198.672C33.3659 198.344 33.3059 198.068 33.1859 197.844C33.0659 197.612 32.8939 197.436 32.6699 197.316C32.4539 197.188 32.2059 197.124 31.9259 197.124C31.6459 197.124 31.3939 197.188 31.1699 197.316C30.9539 197.436 30.7859 197.612 30.6659 197.844C30.5459 198.076 30.4859 198.352 30.4859 198.672V202.5H29.1299Z" fill="#6B7280"/>
<rect x="91" y="32" width="12" height="146" rx="6" fill="#22C55E"/>
<rect x="107" width="12" height="178" rx="6" fill="#335CFF"/>
<path d="M98.2038 202.5V201.18H98.7198C99.1198 201.18 99.4398 201.064 99.6798 200.832C99.9198 200.592 100.04 200.272 100.04 199.872V193.56H101.444V199.824C101.444 200.368 101.332 200.84 101.108 201.24C100.892 201.64 100.576 201.952 100.16 202.176C99.7518 202.392 99.2718 202.5 98.7198 202.5H98.2038ZM105.46 202.644C104.972 202.644 104.544 202.536 104.176 202.32C103.808 202.096 103.52 201.788 103.312 201.396C103.112 200.996 103.012 200.536 103.012 200.016V196.008H104.368V199.896C104.368 200.192 104.428 200.452 104.548 200.676C104.668 200.9 104.836 201.076 105.052 201.204C105.268 201.324 105.516 201.384 105.796 201.384C106.084 201.384 106.336 201.32 106.552 201.192C106.768 201.064 106.936 200.884 107.056 200.652C107.184 200.42 107.248 200.148 107.248 199.836V196.008H108.592V202.5H107.308V201.228L107.452 201.396C107.3 201.796 107.048 202.104 106.696 202.32C106.344 202.536 105.932 202.644 105.46 202.644ZM110.175 202.5V193.416H111.531V202.5H110.175Z" fill="#6B7280"/>
<rect x="170" y="32" width="12" height="146" rx="6" fill="#22C55E"/>
<rect x="186" width="12" height="178" rx="6" fill="#335CFF"/>
<path d="M172.589 202.5L175.733 193.56H177.485L180.629 202.5H179.117L178.433 200.496H174.797L174.101 202.5H172.589ZM175.205 199.236H178.001L176.417 194.556H176.813L175.205 199.236ZM183.756 202.644C183.268 202.644 182.84 202.536 182.472 202.32C182.104 202.096 181.816 201.788 181.608 201.396C181.408 200.996 181.308 200.536 181.308 200.016V196.008H182.664V199.896C182.664 200.192 182.724 200.452 182.844 200.676C182.964 200.9 183.132 201.076 183.348 201.204C183.564 201.324 183.812 201.384 184.092 201.384C184.38 201.384 184.632 201.32 184.848 201.192C185.064 201.064 185.232 200.884 185.352 200.652C185.48 200.42 185.544 200.148 185.544 199.836V196.008H186.888V202.5H185.604V201.228L185.748 201.396C185.596 201.796 185.344 202.104 184.992 202.32C184.64 202.536 184.228 202.644 183.756 202.644ZM191.604 205.14C191.132 205.14 190.696 205.064 190.296 204.912C189.896 204.76 189.552 204.548 189.264 204.276C188.976 204.012 188.76 203.7 188.616 203.34L189.864 202.824C189.976 203.128 190.18 203.38 190.476 203.58C190.78 203.78 191.152 203.88 191.592 203.88C191.936 203.88 192.244 203.812 192.516 203.676C192.788 203.548 193.004 203.356 193.164 203.1C193.324 202.852 193.404 202.552 193.404 202.2V200.736L193.644 201.012C193.42 201.428 193.108 201.744 192.708 201.96C192.316 202.176 191.872 202.284 191.376 202.284C190.776 202.284 190.236 202.144 189.756 201.864C189.276 201.584 188.896 201.2 188.616 200.712C188.344 200.224 188.208 199.676 188.208 199.068C188.208 198.452 188.344 197.904 188.616 197.424C188.896 196.944 189.272 196.564 189.744 196.284C190.216 196.004 190.756 195.864 191.364 195.864C191.86 195.864 192.3 195.972 192.684 196.188C193.076 196.396 193.396 196.7 193.644 197.1L193.464 197.436V196.008H194.748V202.2C194.748 202.76 194.612 203.26 194.34 203.7C194.076 204.148 193.708 204.5 193.236 204.756C192.764 205.012 192.22 205.14 191.604 205.14ZM191.532 201.024C191.892 201.024 192.212 200.94 192.492 200.772C192.772 200.596 192.992 200.364 193.152 200.076C193.32 199.78 193.404 199.448 193.404 199.08C193.404 198.712 193.32 198.38 193.152 198.084C192.984 197.788 192.76 197.556 192.48 197.388C192.2 197.212 191.884 197.124 191.532 197.124C191.164 197.124 190.836 197.212 190.548 197.388C190.26 197.556 190.032 197.788 189.864 198.084C189.704 198.372 189.624 198.704 189.624 199.08C189.624 199.44 189.704 199.768 189.864 200.064C190.032 200.36 190.26 200.596 190.548 200.772C190.836 200.94 191.164 201.024 191.532 201.024Z" fill="#6B7280"/>
<rect x="249" y="32" width="12" height="146" rx="6" fill="#22C55E"/>
<rect x="265" width="12" height="178" rx="6" fill="#335CFF"/>
<path d="M255.472 202.644C254.912 202.644 254.392 202.54 253.912 202.332C253.432 202.116 253.024 201.824 252.688 201.456C252.352 201.088 252.104 200.664 251.944 200.184L253.144 199.68C253.36 200.232 253.676 200.656 254.092 200.952C254.508 201.248 254.988 201.396 255.532 201.396C255.852 201.396 256.132 201.348 256.372 201.252C256.612 201.148 256.796 201.004 256.924 200.82C257.06 200.636 257.128 200.424 257.128 200.184C257.128 199.856 257.036 199.596 256.852 199.404C256.668 199.212 256.396 199.06 256.036 198.948L254.356 198.42C253.684 198.212 253.172 197.896 252.82 197.472C252.468 197.04 252.292 196.536 252.292 195.96C252.292 195.456 252.416 195.016 252.664 194.64C252.912 194.256 253.252 193.956 253.684 193.74C254.124 193.524 254.624 193.416 255.184 193.416C255.72 193.416 256.208 193.512 256.648 193.704C257.088 193.888 257.464 194.144 257.776 194.472C258.096 194.8 258.328 195.18 258.472 195.612L257.296 196.128C257.12 195.656 256.844 195.292 256.468 195.036C256.1 194.78 255.672 194.652 255.184 194.652C254.888 194.652 254.628 194.704 254.404 194.808C254.18 194.904 254.004 195.048 253.876 195.24C253.756 195.424 253.696 195.64 253.696 195.888C253.696 196.176 253.788 196.432 253.972 196.656C254.156 196.88 254.436 197.048 254.812 197.16L256.372 197.652C257.084 197.868 257.62 198.18 257.98 198.588C258.34 198.988 258.52 199.488 258.52 200.088C258.52 200.584 258.388 201.024 258.124 201.408C257.868 201.792 257.512 202.096 257.056 202.32C256.6 202.536 256.072 202.644 255.472 202.644ZM263.026 202.644C262.378 202.644 261.802 202.496 261.298 202.2C260.802 201.896 260.414 201.488 260.134 200.976C259.854 200.456 259.714 199.876 259.714 199.236C259.714 198.58 259.854 198 260.134 197.496C260.422 196.992 260.806 196.596 261.286 196.308C261.766 196.012 262.31 195.864 262.918 195.864C263.406 195.864 263.842 195.948 264.226 196.116C264.61 196.284 264.934 196.516 265.198 196.812C265.462 197.1 265.662 197.432 265.798 197.808C265.942 198.184 266.014 198.584 266.014 199.008C266.014 199.112 266.01 199.22 266.002 199.332C265.994 199.444 265.978 199.548 265.954 199.644H260.782V198.564H265.186L264.538 199.056C264.618 198.664 264.59 198.316 264.454 198.012C264.326 197.7 264.126 197.456 263.854 197.28C263.59 197.096 263.278 197.004 262.918 197.004C262.558 197.004 262.238 197.096 261.958 197.28C261.678 197.456 261.462 197.712 261.31 198.048C261.158 198.376 261.098 198.776 261.13 199.248C261.09 199.688 261.15 200.072 261.31 200.4C261.478 200.728 261.71 200.984 262.006 201.168C262.31 201.352 262.654 201.444 263.038 201.444C263.43 201.444 263.762 201.356 264.034 201.18C264.314 201.004 264.534 200.776 264.694 200.496L265.798 201.036C265.67 201.34 265.47 201.616 265.198 201.864C264.934 202.104 264.614 202.296 264.238 202.44C263.87 202.576 263.466 202.644 263.026 202.644ZM267.337 204.9V196.008H268.633V197.352L268.477 197.04C268.717 196.672 269.037 196.384 269.437 196.176C269.837 195.968 270.293 195.864 270.805 195.864C271.421 195.864 271.973 196.012 272.461 196.308C272.957 196.604 273.345 197.008 273.625 197.52C273.913 198.032 274.057 198.608 274.057 199.248C274.057 199.888 273.913 200.464 273.625 200.976C273.345 201.488 272.961 201.896 272.473 202.2C271.985 202.496 271.429 202.644 270.805 202.644C270.301 202.644 269.841 202.54 269.425 202.332C269.017 202.124 268.701 201.824 268.477 201.432L268.693 201.18V204.9H267.337ZM270.673 201.384C271.057 201.384 271.397 201.292 271.693 201.108C271.989 200.924 272.221 200.672 272.389 200.352C272.565 200.024 272.653 199.656 272.653 199.248C272.653 198.84 272.565 198.476 272.389 198.156C272.221 197.836 271.989 197.584 271.693 197.4C271.397 197.216 271.057 197.124 270.673 197.124C270.297 197.124 269.957 197.216 269.653 197.4C269.357 197.584 269.121 197.836 268.945 198.156C268.777 198.476 268.693 198.84 268.693 199.248C268.693 199.656 268.777 200.024 268.945 200.352C269.121 200.672 269.357 200.924 269.653 201.108C269.957 201.292 270.297 201.384 270.673 201.384Z" fill="#6B7280"/>
<rect x="328" y="32" width="12" height="146" rx="6" fill="#22C55E"/>
<rect x="344" width="12" height="178" rx="6" fill="#335CFF"/>
<path d="M335.93 202.644C335.282 202.644 334.678 202.528 334.118 202.296C333.566 202.064 333.078 201.74 332.654 201.324C332.238 200.908 331.91 200.42 331.67 199.86C331.438 199.3 331.322 198.688 331.322 198.024C331.322 197.36 331.438 196.748 331.67 196.188C331.91 195.62 332.238 195.132 332.654 194.724C333.07 194.308 333.558 193.988 334.118 193.764C334.678 193.532 335.282 193.416 335.93 193.416C336.586 193.416 337.19 193.532 337.742 193.764C338.302 193.988 338.79 194.308 339.206 194.724C339.63 195.14 339.958 195.628 340.19 196.188C340.422 196.748 340.538 197.36 340.538 198.024C340.538 198.688 340.418 199.3 340.178 199.86C339.946 200.42 339.622 200.908 339.206 201.324C338.79 201.74 338.302 202.064 337.742 202.296C337.182 202.528 336.578 202.644 335.93 202.644ZM335.93 201.348C336.394 201.348 336.818 201.264 337.202 201.096C337.594 200.928 337.934 200.696 338.222 200.4C338.51 200.096 338.734 199.744 338.894 199.344C339.054 198.936 339.134 198.496 339.134 198.024C339.134 197.552 339.054 197.116 338.894 196.716C338.734 196.316 338.51 195.964 338.222 195.66C337.934 195.356 337.594 195.12 337.202 194.952C336.818 194.784 336.394 194.7 335.93 194.7C335.466 194.7 335.038 194.784 334.646 194.952C334.262 195.12 333.926 195.356 333.638 195.66C333.35 195.964 333.126 196.316 332.966 196.716C332.814 197.116 332.738 197.552 332.738 198.024C332.738 198.496 332.814 198.936 332.966 199.344C333.126 199.744 333.35 200.096 333.638 200.4C333.926 200.696 334.266 200.928 334.658 201.096C335.05 201.264 335.474 201.348 335.93 201.348ZM345.073 202.644C344.425 202.644 343.849 202.496 343.345 202.2C342.849 201.896 342.453 201.488 342.157 200.976C341.869 200.464 341.725 199.884 341.725 199.236C341.725 198.596 341.869 198.02 342.157 197.508C342.445 196.996 342.841 196.596 343.345 196.308C343.849 196.012 344.425 195.864 345.073 195.864C345.513 195.864 345.925 195.944 346.309 196.104C346.693 196.256 347.025 196.468 347.305 196.74C347.593 197.012 347.805 197.328 347.941 197.688L346.753 198.24C346.617 197.904 346.397 197.636 346.093 197.436C345.797 197.228 345.457 197.124 345.073 197.124C344.705 197.124 344.373 197.216 344.077 197.4C343.789 197.576 343.561 197.828 343.393 198.156C343.225 198.476 343.141 198.84 343.141 199.248C343.141 199.656 343.225 200.024 343.393 200.352C343.561 200.672 343.789 200.924 344.077 201.108C344.373 201.292 344.705 201.384 345.073 201.384C345.465 201.384 345.805 201.284 346.093 201.084C346.389 200.876 346.609 200.6 346.753 200.256L347.941 200.82C347.813 201.164 347.605 201.476 347.317 201.756C347.037 202.028 346.705 202.244 346.321 202.404C345.937 202.564 345.521 202.644 345.073 202.644ZM352.075 202.572C351.395 202.572 350.867 202.38 350.491 201.996C350.115 201.612 349.927 201.072 349.927 200.376V197.232H348.787V196.008H348.967C349.271 196.008 349.507 195.92 349.675 195.744C349.843 195.568 349.927 195.328 349.927 195.024V194.52H351.283V196.008H352.759V197.232H351.283V200.316C351.283 200.54 351.319 200.732 351.391 200.892C351.463 201.044 351.579 201.164 351.739 201.252C351.899 201.332 352.107 201.372 352.363 201.372C352.427 201.372 352.499 201.368 352.579 201.36C352.659 201.352 352.735 201.344 352.807 201.336V202.5C352.695 202.516 352.571 202.532 352.435 202.548C352.299 202.564 352.179 202.572 352.075 202.572Z" fill="#6B7280"/>
<rect x="407" y="32" width="12" height="146" rx="6" fill="#22C55E"/>
<rect x="423" width="12" height="178" rx="6" fill="#335CFF"/>
<path d="M410.158 202.5V193.56H413.086C414.014 193.56 414.818 193.748 415.498 194.124C416.186 194.492 416.718 195.012 417.094 195.684C417.47 196.356 417.658 197.136 417.658 198.024C417.658 198.904 417.47 199.684 417.094 200.364C416.718 201.036 416.186 201.56 415.498 201.936C414.818 202.312 414.014 202.5 413.086 202.5H410.158ZM411.574 201.24H413.11C413.742 201.24 414.29 201.108 414.754 200.844C415.226 200.58 415.59 200.208 415.846 199.728C416.102 199.248 416.23 198.68 416.23 198.024C416.23 197.368 416.098 196.804 415.834 196.332C415.578 195.852 415.218 195.48 414.754 195.216C414.29 194.952 413.742 194.82 413.11 194.82H411.574V201.24ZM421.969 202.644C421.321 202.644 420.745 202.496 420.241 202.2C419.745 201.896 419.357 201.488 419.077 200.976C418.797 200.456 418.657 199.876 418.657 199.236C418.657 198.58 418.797 198 419.077 197.496C419.365 196.992 419.749 196.596 420.229 196.308C420.709 196.012 421.253 195.864 421.861 195.864C422.349 195.864 422.785 195.948 423.169 196.116C423.553 196.284 423.877 196.516 424.141 196.812C424.405 197.1 424.605 197.432 424.741 197.808C424.885 198.184 424.957 198.584 424.957 199.008C424.957 199.112 424.953 199.22 424.945 199.332C424.937 199.444 424.921 199.548 424.897 199.644H419.725V198.564H424.129L423.481 199.056C423.561 198.664 423.533 198.316 423.397 198.012C423.269 197.7 423.069 197.456 422.797 197.28C422.533 197.096 422.221 197.004 421.861 197.004C421.501 197.004 421.181 197.096 420.901 197.28C420.621 197.456 420.405 197.712 420.253 198.048C420.101 198.376 420.041 198.776 420.073 199.248C420.033 199.688 420.093 200.072 420.253 200.4C420.421 200.728 420.653 200.984 420.949 201.168C421.253 201.352 421.597 201.444 421.981 201.444C422.373 201.444 422.705 201.356 422.977 201.18C423.257 201.004 423.477 200.776 423.637 200.496L424.741 201.036C424.613 201.34 424.413 201.616 424.141 201.864C423.877 202.104 423.557 202.296 423.181 202.44C422.813 202.576 422.409 202.644 421.969 202.644ZM429.364 202.644C428.716 202.644 428.14 202.496 427.636 202.2C427.14 201.896 426.744 201.488 426.448 200.976C426.16 200.464 426.016 199.884 426.016 199.236C426.016 198.596 426.16 198.02 426.448 197.508C426.736 196.996 427.132 196.596 427.636 196.308C428.14 196.012 428.716 195.864 429.364 195.864C429.804 195.864 430.216 195.944 430.6 196.104C430.984 196.256 431.316 196.468 431.596 196.74C431.884 197.012 432.096 197.328 432.232 197.688L431.044 198.24C430.908 197.904 430.688 197.636 430.384 197.436C430.088 197.228 429.748 197.124 429.364 197.124C428.996 197.124 428.664 197.216 428.368 197.4C428.08 197.576 427.852 197.828 427.684 198.156C427.516 198.476 427.432 198.84 427.432 199.248C427.432 199.656 427.516 200.024 427.684 200.352C427.852 200.672 428.08 200.924 428.368 201.108C428.664 201.292 428.996 201.384 429.364 201.384C429.756 201.384 430.096 201.284 430.384 201.084C430.68 200.876 430.9 200.6 431.044 200.256L432.232 200.82C432.104 201.164 431.896 201.476 431.608 201.756C431.328 202.028 430.996 202.244 430.612 202.404C430.228 202.564 429.812 202.644 429.364 202.644Z" fill="#6B7280"/>
<rect x="486" y="32" width="12" height="146" rx="6" fill="#22C55E"/>
<rect x="502" width="12" height="178" rx="6" fill="#335CFF"/>
<path d="M489.158 202.5V193.56H492.086C493.014 193.56 493.818 193.748 494.498 194.124C495.186 194.492 495.718 195.012 496.094 195.684C496.47 196.356 496.658 197.136 496.658 198.024C496.658 198.904 496.47 199.684 496.094 200.364C495.718 201.036 495.186 201.56 494.498 201.936C493.818 202.312 493.014 202.5 492.086 202.5H489.158ZM490.574 201.24H492.11C492.742 201.24 493.29 201.108 493.754 200.844C494.226 200.58 494.59 200.208 494.846 199.728C495.102 199.248 495.23 198.68 495.23 198.024C495.23 197.368 495.098 196.804 494.834 196.332C494.578 195.852 494.218 195.48 493.754 195.216C493.29 194.952 492.742 194.82 492.11 194.82H490.574V201.24ZM500.969 202.644C500.321 202.644 499.745 202.496 499.241 202.2C498.745 201.896 498.357 201.488 498.077 200.976C497.797 200.456 497.657 199.876 497.657 199.236C497.657 198.58 497.797 198 498.077 197.496C498.365 196.992 498.749 196.596 499.229 196.308C499.709 196.012 500.253 195.864 500.861 195.864C501.349 195.864 501.785 195.948 502.169 196.116C502.553 196.284 502.877 196.516 503.141 196.812C503.405 197.1 503.605 197.432 503.741 197.808C503.885 198.184 503.957 198.584 503.957 199.008C503.957 199.112 503.953 199.22 503.945 199.332C503.937 199.444 503.921 199.548 503.897 199.644H498.725V198.564H503.129L502.481 199.056C502.561 198.664 502.533 198.316 502.397 198.012C502.269 197.7 502.069 197.456 501.797 197.28C501.533 197.096 501.221 197.004 500.861 197.004C500.501 197.004 500.181 197.096 499.901 197.28C499.621 197.456 499.405 197.712 499.253 198.048C499.101 198.376 499.041 198.776 499.073 199.248C499.033 199.688 499.093 200.072 499.253 200.4C499.421 200.728 499.653 200.984 499.949 201.168C500.253 201.352 500.597 201.444 500.981 201.444C501.373 201.444 501.705 201.356 501.977 201.18C502.257 201.004 502.477 200.776 502.637 200.496L503.741 201.036C503.613 201.34 503.413 201.616 503.141 201.864C502.877 202.104 502.557 202.296 502.181 202.44C501.813 202.576 501.409 202.644 500.969 202.644ZM508.364 202.644C507.716 202.644 507.14 202.496 506.636 202.2C506.14 201.896 505.744 201.488 505.448 200.976C505.16 200.464 505.016 199.884 505.016 199.236C505.016 198.596 505.16 198.02 505.448 197.508C505.736 196.996 506.132 196.596 506.636 196.308C507.14 196.012 507.716 195.864 508.364 195.864C508.804 195.864 509.216 195.944 509.6 196.104C509.984 196.256 510.316 196.468 510.596 196.74C510.884 197.012 511.096 197.328 511.232 197.688L510.044 198.24C509.908 197.904 509.688 197.636 509.384 197.436C509.088 197.228 508.748 197.124 508.364 197.124C507.996 197.124 507.664 197.216 507.368 197.4C507.08 197.576 506.852 197.828 506.684 198.156C506.516 198.476 506.432 198.84 506.432 199.248C506.432 199.656 506.516 200.024 506.684 200.352C506.852 200.672 507.08 200.924 507.368 201.108C507.664 201.292 507.996 201.384 508.364 201.384C508.756 201.384 509.096 201.284 509.384 201.084C509.68 200.876 509.9 200.6 510.044 200.256L511.232 200.82C511.104 201.164 510.896 201.476 510.608 201.756C510.328 202.028 509.996 202.244 509.612 202.404C509.228 202.564 508.812 202.644 508.364 202.644Z" fill="#6B7280"/>
</svg>
