<svg width="38" height="38" viewBox="0 0 38 38" fill="none" xmlns="http://www.w3.org/2000/svg">
<rect width="38" height="38" rx="10" fill="#D40511" fill-opacity="0.04"/>
<path fill-rule="evenodd" clip-rule="evenodd" d="M4 16.6284C4.40697 16.6284 4.81393 16.6266 5.2209 16.6302C5.32906 16.6321 5.43721 16.6284 5.54537 16.6339C5.95417 16.6339 6.36297 16.6321 6.7736 16.6339C6.7901 16.6302 6.8011 16.6431 6.8121 16.6541C6.97525 16.8172 7.13841 16.9785 7.30156 17.1417C7.31806 17.16 7.34372 17.1765 7.34006 17.204C7.34006 18.3858 7.34006 19.567 7.34006 20.7475C7.33639 20.7805 7.35105 20.8209 7.32356 20.8447C7.1549 21.0134 6.98808 21.1838 6.81943 21.3525C6.80843 21.3617 6.79743 21.3763 6.78277 21.3763C6.33547 21.38 5.89001 21.3818 5.44271 21.38C5.28873 21.3763 5.13291 21.38 4.97892 21.38C4.65261 21.3763 4.32631 21.3763 4.00183 21.3745C4.28598 21.3727 4.57195 21.3745 4.85793 21.3745C4.93676 21.3727 5.01558 21.3763 5.09441 21.3708C5.09441 21.0739 5.09441 20.7769 5.09441 20.4781C5.09441 20.4139 5.09624 20.3479 5.09258 20.2819C4.72838 20.2807 4.36419 20.2807 4 20.2819C4 19.0647 4 17.8456 4 16.6284ZM5.09808 17.7265C5.09624 18.1701 5.09808 18.6119 5.09624 19.0555C5.09808 19.4643 5.09624 19.8731 5.09808 20.2801C5.31806 20.2892 5.53987 20.2783 5.75985 20.2856C5.92117 20.2856 6.08066 20.2819 6.24198 20.2838C6.24198 19.4332 6.24381 18.5807 6.24198 17.7301C6.06233 17.7301 5.88268 17.732 5.70302 17.7283C5.50138 17.7283 5.29973 17.7283 5.09808 17.7265Z" fill="#231F20"/>
<path d="M8.69474 16.6191H10.8304C10.8359 16.7346 10.8286 16.8483 10.8304 16.9638C10.8322 17.2149 10.8267 17.4661 10.8267 17.719C10.6562 17.719 10.4858 17.7209 10.3134 17.7172C10.1283 17.7154 9.94314 17.719 9.75615 17.7135C9.549 17.7135 9.34186 17.7154 9.13471 17.7172C9.13348 17.9653 9.13348 18.2128 9.13471 18.4597C9.53434 18.4615 9.93397 18.4597 10.3318 18.4615C10.333 18.8269 10.333 19.1923 10.3318 19.5577C9.93397 19.5596 9.53434 19.5577 9.13471 19.5577C9.13471 19.796 9.13287 20.0325 9.13471 20.269C9.32291 20.269 9.51173 20.269 9.70116 20.269C9.89364 20.2745 10.0843 20.2708 10.2768 20.2727C10.4619 20.2763 10.6471 20.2727 10.8322 20.2745C10.8341 20.39 10.8286 20.5037 10.8304 20.6191C10.8322 20.8685 10.8267 21.1196 10.8267 21.3707C10.6874 21.3744 10.5481 21.3671 10.4069 21.3689C10.2621 21.3689 10.1155 21.3707 9.97064 21.3671C9.51845 21.3671 9.06566 21.3671 8.61225 21.3671C8.59392 21.3689 8.57742 21.3597 8.56459 21.3451C8.39777 21.1783 8.23095 21.0096 8.0623 20.8428C8.04946 20.83 8.03663 20.8153 8.03846 20.7951C8.03846 19.595 8.03846 18.3949 8.03846 17.1948C8.0348 17.1673 8.05863 17.1489 8.07513 17.1324C8.22545 16.9858 8.3721 16.8336 8.52059 16.6851C8.54076 16.665 8.56092 16.6411 8.58658 16.6265C8.62325 16.621 8.65991 16.6246 8.69474 16.6191ZM24.9166 16.6191H26.3336C26.5738 16.6246 26.8139 16.6191 27.0522 16.6246C27.0485 16.8465 27.054 17.0683 27.0485 17.2883C27.0485 17.4312 27.0504 17.5742 27.0485 17.719C26.7259 17.7209 26.4033 17.7154 26.0806 17.7172C25.8386 17.7099 25.5967 17.7172 25.3547 17.7172C25.3547 17.9653 25.3547 18.2128 25.3547 18.4597C25.7543 18.4615 26.154 18.4597 26.5536 18.4615C26.5548 18.8269 26.5548 19.1923 26.5536 19.5577C26.154 19.5596 25.7543 19.5577 25.3547 19.5577C25.3547 19.796 25.3529 20.0325 25.3565 20.269C25.5912 20.2708 25.8258 20.2672 26.0605 20.2727C26.2419 20.2727 26.4216 20.269 26.6013 20.2745C26.7516 20.2745 26.9019 20.2727 27.054 20.2745C27.0467 20.4908 27.0559 20.709 27.0485 20.9253C27.0485 21.0738 27.0504 21.2223 27.0485 21.3707C26.8469 21.3726 26.6452 21.3671 26.4418 21.3689C25.9065 21.3652 25.3694 21.3671 24.8341 21.3671C24.8139 21.3689 24.7974 21.3597 24.7864 21.3451C24.6269 21.1856 24.4674 21.0261 24.3061 20.8666C24.2859 20.8446 24.2529 20.8226 24.2584 20.786C24.2584 19.6366 24.2584 18.4853 24.2584 17.3359C24.2603 17.2809 24.2529 17.2259 24.2621 17.1709C24.2951 17.1288 24.3391 17.0939 24.3758 17.0536C24.4845 16.9424 24.5939 16.8318 24.7039 16.7218C24.7387 16.6906 24.7681 16.6503 24.8084 16.6265C24.8432 16.621 24.8799 16.6246 24.9166 16.6191ZM28.3336 16.6191H30.3721C30.3721 16.9839 30.3721 17.3487 30.3721 17.7135C29.8771 17.7154 29.3804 17.7135 28.8854 17.7154C28.8836 18.9253 28.8854 20.1352 28.8854 21.3451C28.5188 21.3469 28.154 21.3469 27.7892 21.3451C27.7873 19.961 27.7892 18.5788 27.7873 17.1948C27.7837 17.1563 27.8203 17.1343 27.8423 17.1086C28.0073 16.9473 28.1686 16.7805 28.3336 16.6191ZM30.9257 16.6191H32.0201C32.0201 17.2302 32.0201 17.8413 32.0201 18.4523C32.0165 18.4817 32.0385 18.5055 32.0568 18.5275C32.1925 18.6906 32.3263 18.8556 32.4638 19.0188C32.5884 18.8703 32.7112 18.72 32.8359 18.5696C32.8597 18.5403 32.8891 18.5128 32.9056 18.478C32.9111 18.4377 32.9074 18.3973 32.9074 18.3588C32.9074 17.8895 32.9056 17.4221 32.9074 16.9546C32.9056 16.8428 32.9074 16.731 32.9056 16.6191H32.9111C32.9098 16.9833 32.9098 17.3469 32.9111 17.7099C33.274 17.7135 33.637 17.7117 34 17.7117V18.8813C33.6902 19.2589 33.3785 19.6347 33.0669 20.0105C33.0467 20.0399 33.01 20.0655 33.0119 20.1059C33.0119 20.5256 33.0137 20.9436 33.0119 21.3634C32.6471 21.3652 32.2823 21.3652 31.9156 21.3634C31.9138 20.9454 31.9156 20.5256 31.9156 20.1059C31.9175 20.071 31.89 20.049 31.8698 20.0234C31.5692 19.6604 31.2704 19.2974 30.9697 18.9344C30.9514 18.9088 30.9221 18.8868 30.9257 18.852C30.9257 18.1077 30.9257 17.3634 30.9257 16.6191ZM11.4482 16.6338C11.813 16.6338 12.1778 16.632 12.5426 16.6338C12.5426 17.8474 12.5426 19.0609 12.5426 20.2745C13.0394 20.2745 13.5343 20.2727 14.0311 20.2745C14.0311 20.6399 14.0311 21.0053 14.0311 21.3707C13.362 21.3726 12.6929 21.3707 12.0238 21.3726C12.0091 21.3707 11.9908 21.3726 11.9816 21.3597C11.8093 21.1874 11.637 21.0151 11.4647 20.8428C11.439 20.8226 11.45 20.786 11.4482 20.7585C11.4482 19.3836 11.4482 18.0087 11.4482 16.6338ZM14.5628 16.6338C14.9282 16.6326 15.2936 16.6326 15.659 16.6338C15.659 17.2424 15.659 17.851 15.659 18.4597C15.9853 18.4615 16.3116 18.4615 16.6379 18.4597C16.6379 17.8547 16.6379 17.2498 16.6379 16.6466C17.0027 16.643 17.3694 16.6448 17.7342 16.6448C17.736 17.6696 17.7342 18.6925 17.7342 19.7154C17.7342 20.269 17.736 20.8208 17.7342 21.3726C17.3694 21.3744 17.0027 21.3744 16.6379 21.3726C16.6379 20.7676 16.6379 20.1627 16.6379 19.5577C16.3116 19.5577 15.9853 19.5577 15.659 19.5577C15.659 20.1627 15.6608 20.7676 15.659 21.3726C15.2936 21.3738 14.9282 21.3738 14.5628 21.3726C14.5628 19.7942 14.5628 18.214 14.5628 16.6338ZM18.4729 16.6448C18.8371 16.6436 19.2013 16.6436 19.5655 16.6448C19.5673 17.6476 19.5655 18.6485 19.5655 19.6512C19.5655 20.225 19.5673 20.7988 19.5655 21.3726C19.2013 21.3738 18.8371 21.3738 18.4729 21.3726C18.4711 20.3277 18.4711 19.2828 18.4711 18.2378C18.4711 17.7062 18.4711 17.1764 18.4729 16.6448ZM20.3501 16.6448C20.7143 16.6436 21.0785 16.6436 21.4427 16.6448C21.4445 17.4331 21.4427 18.2213 21.4445 19.0096C21.4445 19.2131 21.4408 19.4166 21.4463 19.6201C21.4793 19.6696 21.5215 19.7117 21.5563 19.7575C21.6682 19.8914 21.7745 20.0252 21.8881 20.1553C22.0275 19.9885 22.165 19.818 22.3061 19.6512C22.3171 19.6366 22.3299 19.6219 22.3281 19.6036C22.3299 18.6173 22.3281 17.6311 22.3299 16.6448C22.6954 16.6448 23.0602 16.6448 23.4243 16.6448C23.428 17.6971 23.4262 18.7475 23.4262 19.7997C23.4243 19.8712 23.428 19.9427 23.4243 20.0142C23.3914 20.0637 23.3474 20.1077 23.3125 20.1553C22.9984 20.5354 22.6844 20.9155 22.3703 21.2956C22.3501 21.3176 22.3336 21.3432 22.3134 21.3616C22.2309 21.3689 22.1466 21.3634 22.0641 21.3652C21.8625 21.3634 21.6627 21.3652 21.461 21.3634C21.1054 20.9344 20.7516 20.5037 20.3959 20.0747C20.3758 20.0472 20.3428 20.0234 20.3483 19.9867C20.3501 18.8721 20.3483 17.7594 20.3501 16.6448Z" fill="#231F20"/>
<path d="M32.9111 16.6191H34V17.7117C33.637 17.7117 33.274 17.7135 32.9111 17.7099C32.9099 17.3469 32.9099 16.9833 32.9111 16.6191Z" fill="#EF4136"/>
<path d="M4 20.2822C4.36419 20.2809 4.72838 20.2809 5.09258 20.2822C5.09624 20.3482 5.09441 20.4142 5.09441 20.4783C5.09441 20.7771 5.09441 21.0741 5.09441 21.3711C5.01558 21.3766 4.93676 21.3729 4.85793 21.3747C4.57195 21.3747 4.28598 21.3729 4.00183 21.3747C4 21.0099 4.00183 20.647 4 20.2822Z" fill="#EF4136"/>
</svg>
