<svg width="38" height="38" viewBox="0 0 38 38" fill="none" xmlns="http://www.w3.org/2000/svg">
<rect width="38" height="38" rx="10" fill="#D40511" fill-opacity="0.04"/>
<path d="M4 20.7861H7.63509L7.42618 21.0786H4V20.7861Z" fill="#D40511"/>
<path d="M33.9792 21.0786H29.5293L29.7591 20.7861H34V21.0786H33.9792Z" fill="#D40511"/>
<path d="M4 20.2427H8.05292L7.82311 20.5352H4V20.2427Z" fill="#D40511"/>
<path d="M4 19.6997H8.47075L8.24094 19.9922H4V19.6997Z" fill="#D40511"/>
<path d="M33.9788 20.5352H29.9468L30.1766 20.2427H33.9997V20.5352H33.9788Z" fill="#D40511"/>
<path d="M30.5736 19.6997H33.9788V19.9922H30.3438L30.5736 19.6997Z" fill="#D40511"/>
<path d="M7.92773 21.0789L9.84974 18.5093C9.84974 18.5093 11.9807 18.5093 12.2313 18.5093C12.5029 18.5093 12.5029 18.6137 12.3567 18.7809C12.2313 18.948 12.0015 19.2614 11.8762 19.4285C11.8135 19.533 11.6882 19.6792 12.0851 19.6792C12.5238 19.6792 15.2815 19.6792 15.2815 19.6792C15.0308 20.0552 14.1534 21.0998 12.6074 21.0998C11.3539 21.0789 7.92773 21.0789 7.92773 21.0789Z" fill="#D40511"/>
<path d="M18.9371 19.6997L17.8925 21.0994H15.1558L16.2003 19.6997H18.9371Z" fill="#D40511"/>
<path d="M22.9277 19.6997L21.8831 21.0994H19.1255L20.1701 19.6997H22.9277Z" fill="#D40511"/>
<path d="M23.8259 19.6997C23.8259 19.6997 23.617 19.9713 23.5334 20.0966C23.1783 20.5563 23.4916 21.0994 24.6198 21.0994C25.915 21.0994 29.0487 21.0994 29.0487 21.0994L30.0933 19.6997H23.8259Z" fill="#D40511"/>
<path d="M9.28571 16.9213L8.32471 18.1957C8.32471 18.1957 13.276 18.1957 13.5475 18.1957C13.8191 18.1957 13.8191 18.3001 13.6729 18.4672C13.5475 18.6344 13.3177 18.9477 13.1924 19.1149C13.1297 19.1984 13.0044 19.3656 13.4013 19.3656C13.84 19.3656 15.5322 19.3656 15.5322 19.3656C15.5322 19.3656 15.8874 18.906 16.159 18.509C16.5559 17.9867 16.2007 16.9004 14.801 16.9004C13.5475 16.9213 9.28571 16.9213 9.28571 16.9213Z" fill="#D40511"/>
<path d="M23.1572 19.3657H16.4302L18.2686 16.9214H21.0263L19.9817 18.3211H21.2143L22.2589 16.9214H25.0165L23.1572 19.3657Z" fill="#D40511"/>
<path d="M28.8189 16.9214L26.9805 19.3657H24.0557L25.8941 16.9214H28.8189Z" fill="#D40511"/>
</svg>
