<svg width="38" height="38" viewBox="0 0 38 38" fill="none" xmlns="http://www.w3.org/2000/svg">
<rect width="38" height="38" rx="10" fill="#C21319" fill-opacity="0.04"/>
<path fill-rule="evenodd" clip-rule="evenodd" d="M27.4385 14.2498C27.4385 15.0202 27.4385 14.7634 27.6952 15.2769C27.952 15.7905 27.952 17.3311 27.6952 17.8447C27.6952 18.3582 27.6952 17.5879 27.6952 18.3582C27.4385 18.615 27.4385 18.8718 27.4385 19.1285H28.9791C28.9791 18.3582 28.9791 17.5879 28.9791 16.8176C28.9791 15.7905 29.2359 15.2769 30.263 15.2769C30.5198 16.304 30.263 17.8447 30.263 19.1285H31.5468C31.5468 17.8447 30.7765 14.7634 32.5739 15.2769C32.8307 16.304 32.5739 18.1014 32.8307 19.1285H33.8578C34.1146 15.2769 34.3713 13.2228 31.2901 14.5066C30.5198 14.2498 30.5198 13.9931 29.7494 14.2498C28.9791 14.5066 29.2359 14.2498 28.7223 14.2498C28.4656 14.2498 27.952 14.2498 27.4385 14.2498Z" fill="#C21319"/>
<path fill-rule="evenodd" clip-rule="evenodd" d="M11.518 19.1283H15.8831V17.5877C14.5993 17.5877 15.1128 17.8444 14.5993 17.8444C14.0857 18.1012 13.0586 18.1012 12.8019 17.8444V16.5606H14.8561V15.5335L12.8019 15.2767V13.9928C13.0586 13.9928 14.0857 13.7361 14.3425 13.9928C15.3696 13.9928 14.5993 14.5064 15.8831 14.2496V12.9658L11.2612 12.709C11.2612 13.4793 11.2612 13.4793 11.518 13.9928C11.7748 14.5064 11.518 17.8444 11.518 19.1283Z" fill="#C21319"/>
<path fill-rule="evenodd" clip-rule="evenodd" d="M23.5866 15.2765C25.384 14.5062 26.6679 17.0739 24.8704 17.8442C23.3298 18.6145 21.5324 16.3036 23.5866 15.2765ZM23.5866 14.2494C19.9918 15.2765 21.5324 20.1552 25.1272 19.1281C26.1543 18.6145 27.4382 17.3307 26.9246 15.79C26.4111 14.7629 25.1272 13.7358 23.5866 14.2494Z" fill="#C21319"/>
<path fill-rule="evenodd" clip-rule="evenodd" d="M5.35576 19.6418C6.8964 19.1283 6.8964 19.8986 8.18027 19.8986V18.6147H4.0719C3.81512 20.1554 4.32867 18.358 4.32867 21.1825C4.32867 22.2096 4.32867 23.2367 4.32867 24.2638L8.18027 24.007V22.7231C6.63963 22.7231 7.66672 23.2367 6.12608 23.2367C5.09899 23.2367 5.35576 22.9799 5.35576 21.9528C6.12608 21.696 6.38285 21.9528 7.15317 21.696V20.9257L5.35576 20.6689V19.6418Z" fill="#222078"/>
<path fill-rule="evenodd" clip-rule="evenodd" d="M14.3425 22.4661C14.3425 21.439 14.3425 20.4119 15.8831 20.9255C16.6534 22.2093 15.8831 22.9797 14.856 23.2364C14.3425 23.2364 14.3425 22.9797 14.3425 22.4661ZM13.3154 21.1822C13.5721 21.439 13.5721 22.2093 13.5721 22.7229C13.5721 23.2364 13.5721 23.75 13.3154 24.2635C13.3154 24.5203 13.0586 24.5203 13.0586 25.2906H14.3425C14.5992 24.7771 14.3425 24.2635 14.5992 24.2635C15.1128 24.0067 17.167 24.0067 17.4237 21.6958C17.4237 18.8713 14.5992 19.8984 14.5992 19.8984C14.3425 19.8984 13.5721 19.6416 13.0586 19.6416C13.0586 20.1551 13.0586 20.1551 13.0586 20.4119C13.3154 21.1822 13.3154 20.4119 13.3154 21.1822Z" fill="#222078"/>
<path fill-rule="evenodd" clip-rule="evenodd" d="M22.5593 21.4394C23.0729 20.4123 24.3567 20.4123 24.6135 21.4394H22.5593ZM25.127 22.7232C25.127 22.7232 23.0729 24.0071 22.5593 22.4665H25.6406C26.1541 19.642 22.8161 18.6149 21.789 20.9258C21.0187 22.2097 21.789 25.291 25.3838 23.7503C25.3838 23.2368 25.127 23.2368 25.127 22.7232Z" fill="#222078"/>
<path fill-rule="evenodd" clip-rule="evenodd" d="M21.0189 18.6148L20.5053 17.5877C19.9918 17.8445 19.735 18.3581 18.7079 18.1013C16.6537 17.5877 17.6808 14.5065 19.4782 15.2768C20.2486 15.5335 19.9918 15.5335 20.7621 15.5335V14.5065C19.735 14.2497 18.9647 13.9929 17.6808 14.5065C17.1673 14.7632 16.397 15.5335 16.397 16.8174C16.397 18.8716 19.2215 19.8987 21.0189 18.6148Z" fill="#C21319"/>
<path fill-rule="evenodd" clip-rule="evenodd" d="M27.6945 20.6689C27.9513 20.1554 28.7216 20.9257 28.9784 20.9257C29.2351 20.9257 29.4919 20.9257 29.7487 20.9257C29.7487 20.4122 29.7487 20.1554 29.2351 19.8986C28.9784 19.6418 27.181 19.3851 26.6674 20.4122C26.1539 22.2096 28.4648 21.9528 28.7216 22.9799C27.9513 23.4934 27.4377 22.9799 26.9242 22.9799C26.6674 23.2367 26.6674 23.2367 26.4106 23.7502C27.181 24.2638 29.4919 24.5205 29.7487 23.2367C30.0055 21.4392 27.9513 21.696 27.6945 20.6689Z" fill="#222078"/>
<path fill-rule="evenodd" clip-rule="evenodd" d="M31.8034 20.6689C32.5737 20.1554 32.0602 20.9257 33.6008 20.9257C33.6008 20.1554 33.8576 20.1554 33.344 19.8986C32.8305 19.6418 31.2899 19.3851 30.7763 20.4122C30.006 22.2096 32.5737 21.9528 32.8305 23.2367C31.8034 23.4934 31.8034 22.9799 30.7763 22.9799C30.7763 23.2367 30.5195 23.2367 30.5195 23.7502C31.2899 24.2638 33.344 24.5205 33.8576 23.2367C34.1144 22.4663 33.6008 21.9528 33.0873 21.696C31.8034 20.9257 31.8034 21.4392 31.8034 20.6689Z" fill="#222078"/>
<path fill-rule="evenodd" clip-rule="evenodd" d="M21.0189 19.6416C20.2486 19.6416 19.9918 19.8984 19.4783 19.8984C18.9647 19.8984 18.4512 19.6416 17.9376 19.6416C17.6808 21.439 18.1944 20.1551 18.1944 21.439C18.1944 24.5203 17.6808 22.2093 17.9376 24.0067H19.2215V21.1822C19.9918 20.4119 19.9918 20.9255 20.7621 20.4119L21.0189 19.6416Z" fill="#222078"/>
<path fill-rule="evenodd" clip-rule="evenodd" d="M10.4907 20.9255V21.1822L11.261 21.9526L11.5178 21.439C12.2881 20.1551 12.5449 21.1822 12.2881 19.6416C11.0043 19.6416 11.5178 20.1551 10.4907 20.9255Z" fill="#222078"/>
<path fill-rule="evenodd" clip-rule="evenodd" d="M9.97722 21.9526C10.234 21.6958 9.97722 21.6958 10.234 21.439H10.4908C10.4908 21.1822 10.4908 21.1822 10.4908 21.1822V20.9255C10.234 20.6687 10.234 20.6687 9.97722 20.1551C9.72045 19.6416 9.72045 19.6416 8.69336 19.6416C8.69336 21.1822 8.69336 20.4119 9.20691 20.9255C9.46368 21.1822 9.72045 21.439 9.97722 21.9526Z" fill="#C21319"/>
<path fill-rule="evenodd" clip-rule="evenodd" d="M10.7475 22.9797V22.723C10.234 22.723 10.4908 22.9797 10.4908 22.723C10.234 22.723 10.234 22.4662 10.234 22.4662C9.97722 22.2094 9.97722 22.2094 9.97722 21.9526C9.97722 22.2094 9.46368 22.723 9.20691 22.9797C8.69336 23.75 8.69336 22.9797 8.69336 24.2636C10.4908 24.2636 9.72045 23.4933 10.7475 22.9797Z" fill="#222078"/>
<path fill-rule="evenodd" clip-rule="evenodd" d="M10.748 22.723V22.9797C11.5184 23.75 11.0048 24.2636 12.2887 24.2636C12.2887 22.9797 12.5455 23.75 11.5184 22.4662L11.2616 21.9526C11.0048 22.4662 11.0048 22.4662 10.748 22.723Z" fill="#C21319"/>
<path fill-rule="evenodd" clip-rule="evenodd" d="M9.97754 21.9529C9.97754 22.2097 9.97754 22.2097 10.2343 22.4665C10.2343 22.4665 10.2343 22.7233 10.4911 22.7233C10.4911 22.98 10.2343 22.7233 10.7479 22.7233C11.0046 22.4665 11.0046 22.4665 11.2614 21.9529L10.4911 21.1826C10.4911 21.1826 10.4911 21.1826 10.4911 21.4394H10.2343C9.97754 21.6962 10.2343 21.6962 9.97754 21.9529Z" fill="#18020A"/>
</svg>
