<svg width="92" height="31" viewBox="0 0 92 31" fill="none" xmlns="http://www.w3.org/2000/svg">
<path opacity="0.2" d="M12.9287 8.29668C6.625 8.29668 1 11.5529 1 11.5529V31H91V4.15569C91 4.15569 88.075 1.8669 83.4496 1.12571C75.1125 -0.21025 73.9489 9.54285 66.625 9.54285C61.2454 9.54286 60.8738 3.44869 53.7009 2.8932C46.528 2.3377 43.2924 16.3324 31.7292 16.1746C23.067 16.0565 17.8 8.29668 12.9287 8.29668Z" fill="url(#paint0_linear_2_4)"/>
<path d="M1 11.6734C1 11.6734 6.48414 8.397 12.7983 8.397C18.0534 8.397 22.9536 16.2635 31.6303 16.3833C43.2127 16.5432 46.4538 2.35609 53.6387 2.91923C60.8235 3.48236 61.1957 9.66031 66.5843 9.6603C73.9204 9.6603 75.086 -0.226889 83.437 1.12743C88.0701 1.87881 91 4.19908 91 4.19908" stroke="#22C55E" stroke-linecap="round"/>
<defs>
<linearGradient id="paint0_linear_2_4" x1="46" y1="1" x2="46" y2="31" gradientUnits="userSpaceOnUse">
<stop stop-color="#22C55E"/>
<stop offset="1" stop-color="#22C55E" stop-opacity="0"/>
</linearGradient>
</defs>
</svg>
