<svg width="38" height="38" viewBox="0 0 38 38" fill="none" xmlns="http://www.w3.org/2000/svg">
<rect width="38" height="38" rx="10" fill="#2A007C" fill-opacity="0.04"/>
<path d="M28.9794 17.6431L30.2203 19.0106L31.4149 17.6431H33.9657L31.4728 20.4465L33.9999 23.2728H31.3461L30.1169 21.8944L28.899 23.2728H26.3364L28.8415 20.4581L26.3364 17.6431H28.9794Z" fill="#FF5900"/>
<path d="M26.3362 17.6427V19.5448H23.4991V21.2903H26.3362V23.2724H21.4141V14.4043H26.3362V16.381H23.4991V17.6427H26.3362Z" fill="#FF5900"/>
<path d="M19.3382 14.4048V18.034H19.3153C18.8553 17.5057 18.2811 17.3219 17.6149 17.3219C16.2498 17.3219 15.2215 18.2503 14.8606 19.477C14.4485 18.1253 13.3869 17.2965 11.8127 17.2965C10.5343 17.2965 9.5247 17.8703 8.99802 18.8053V17.6432H6.35547V16.3815H9.23927V14.4048H4V23.2729H6.35547V19.5453H8.70343C8.63343 19.8191 8.59593 20.1124 8.59593 20.422C8.59593 22.2716 10.0093 23.57 11.8127 23.57C13.3294 23.57 14.329 22.8579 14.8573 21.5599H12.8385C12.5656 21.9504 12.3585 22.0658 11.8127 22.0658C11.1797 22.0658 10.6339 21.5137 10.6339 20.8591H14.7444C14.9227 22.3283 16.0673 23.5954 17.6378 23.5954C18.3153 23.5954 18.9357 23.2621 19.3149 22.6995H19.3378V23.2737H21.4141V14.4048H19.3382ZM10.6997 19.5716C10.8306 19.0082 11.2676 18.6403 11.8131 18.6403C12.4135 18.6403 12.8281 18.997 12.9373 19.5716C12.9831 19.5716 10.6997 19.5716 10.6997 19.5716ZM18.0778 21.9229C17.3124 21.9229 16.8365 21.2095 16.8365 20.4649C16.8365 19.6691 17.2503 18.9036 18.0778 18.9036C18.9357 18.9036 19.2774 19.6691 19.2774 20.4649C19.2774 21.2195 18.9153 21.9229 18.0778 21.9229Z" fill="#2A007C"/>
</svg>
