<svg width="74" height="74" viewBox="0 0 74 74" fill="none" xmlns="http://www.w3.org/2000/svg">
<g filter="url(#filter0_dd_3_695)">
<path d="M24.0788 12.6637C27.1103 9.63221 31.5288 8.44827 35.6699 9.55788L51.2634 13.7361C55.4045 14.8458 58.6391 18.0803 59.7487 22.2214L63.927 37.8149C65.0366 41.956 63.8526 46.3746 60.8211 49.406L49.4059 60.8213C46.3744 63.8528 41.9559 65.0367 37.8148 63.9271L22.2213 59.7489C18.0802 58.6392 14.8456 55.4047 13.736 51.2636L9.55772 35.6701C8.44812 31.529 9.63205 27.1104 12.6636 24.0789L24.0788 12.6637Z" fill="white"/>
<g clip-path="url(#clip0_3_695)">
<path d="M32.4056 23.9437C32.3508 23.9638 32.1772 24.0295 32.02 24.0853C28.4052 25.4117 25.471 28.3398 24.0965 32.0002C23.3304 34.0359 23.0668 36.1829 23.3209 38.314C23.4083 39.0583 23.4522 39.2733 23.7125 40.2445C23.9727 41.2156 24.0421 41.4238 24.3386 42.112C26.3593 46.8187 30.9467 49.999 36.0816 50.2568C37.0011 50.3028 37.9432 50.2498 38.9879 50.0901C39.3947 50.0275 41.1028 49.5698 41.4863 49.4206C43.1858 48.7576 44.5534 47.9267 45.8166 46.7878C46.0103 46.6129 46.0454 46.5707 46.008 46.5535C45.9835 46.5436 44.6839 45.5176 43.1214 44.2753L40.2814 42.0174L36.6321 38.8508C34.6247 37.1102 32.976 35.6887 32.9658 35.6915C32.9549 35.6916 33.405 37.4124 33.962 39.5116C34.9386 43.1867 34.9757 43.3352 34.953 43.4342C34.9202 43.5769 34.8829 43.6415 34.7908 43.7263C34.7202 43.7889 34.6508 43.8157 34.2659 43.9188L33.8248 44.037L33.6877 43.9945C33.5983 43.9666 33.5251 43.9179 33.4671 43.8542L33.3828 43.7538L32.0185 38.6418L30.656 33.5264L30.7084 33.4058C30.7349 33.3414 30.8031 33.2493 30.8554 33.1998C30.9463 33.1208 30.9857 33.1048 31.4268 32.9866C31.9468 32.8473 32.039 32.8444 32.2137 32.9561C32.2629 32.9866 34.2488 34.7384 36.6293 36.8517C39.0099 38.9649 42.2638 41.8496 43.8619 43.2655L46.7649 45.8398L46.851 45.7429C47.6152 44.8934 48.3647 43.7746 48.9006 42.6748C50.0426 40.339 50.4869 37.7447 50.184 35.1868C50.0966 34.4425 50.0527 34.2275 49.7925 33.2563C49.5322 32.2852 49.4628 32.077 49.1663 31.3888C47.1456 26.6821 42.5582 23.5018 37.4233 23.244C36.5172 23.1971 35.5802 23.2488 34.5559 23.403C34.3043 23.4431 32.6117 23.8666 32.4056 23.9437ZM39.8571 30.3999C39.9959 30.4283 40.1267 30.5189 40.1952 30.6317C40.2334 30.6925 40.6182 32.1083 41.4689 35.3036L42.6893 39.8887L41.5492 38.8665L40.4066 37.8449L39.5139 34.5133C38.9368 32.3594 38.6225 31.1459 38.6221 31.0832C38.6247 30.9295 38.6838 30.7935 38.7884 30.6944C38.8786 30.6129 38.9155 30.5975 39.3157 30.4903C39.6931 30.3892 39.7607 30.3765 39.8571 30.3999Z" fill="#171718"/>
</g>
</g>
<defs>
<filter id="filter0_dd_3_695" x="-2" y="-0.999756" width="77.4847" height="77.4846" filterUnits="userSpaceOnUse" color-interpolation-filters="sRGB">
<feFlood flood-opacity="0" result="BackgroundImageFix"/>
<feColorMatrix in="SourceAlpha" type="matrix" values="0 0 0 0 0 0 0 0 0 0 0 0 0 0 0 0 0 0 127 0" result="hardAlpha"/>
<feOffset dy="1"/>
<feGaussianBlur stdDeviation="1"/>
<feComposite in2="hardAlpha" operator="out"/>
<feColorMatrix type="matrix" values="0 0 0 0 0.372549 0 0 0 0 0.290196 0 0 0 0 0.180392 0 0 0 0.08 0"/>
<feBlend mode="normal" in2="BackgroundImageFix" result="effect1_dropShadow_3_695"/>
<feColorMatrix in="SourceAlpha" type="matrix" values="0 0 0 0 0 0 0 0 0 0 0 0 0 0 0 0 0 0 127 0" result="hardAlpha"/>
<feMorphology radius="1" operator="dilate" in="SourceAlpha" result="effect2_dropShadow_3_695"/>
<feOffset/>
<feComposite in2="hardAlpha" operator="out"/>
<feColorMatrix type="matrix" values="0 0 0 0 0.890196 0 0 0 0 0.882353 0 0 0 0 0.870588 0 0 0 0.4 0"/>
<feBlend mode="normal" in2="effect1_dropShadow_3_695" result="effect2_dropShadow_3_695"/>
<feBlend mode="normal" in="SourceGraphic" in2="effect2_dropShadow_3_695" result="shape"/>
</filter>
<clipPath id="clip0_3_695">
<rect width="27" height="27" fill="white" transform="translate(20.2177 27.2019) rotate(-15)"/>
</clipPath>
</defs>
</svg>
