<svg width="142" height="110" viewBox="0 0 142 110" fill="none" xmlns="http://www.w3.org/2000/svg">
<path d="M90.8899 11.9313L89.5383 11.638L89.2316 10.288C89.2264 10.2647 89.2135 10.2438 89.1948 10.2289C89.1762 10.2139 89.153 10.2058 89.1291 10.2058C89.1052 10.2058 89.082 10.2139 89.0634 10.2289C89.0448 10.2438 89.0318 10.2647 89.0266 10.288L88.7183 11.643L87.3666 11.9647C87.3431 11.9697 87.3221 11.9828 87.3072 12.0016C87.2923 12.0205 87.2844 12.0439 87.2849 12.068C87.2858 12.0917 87.2944 12.1145 87.3094 12.1329C87.3245 12.1513 87.3452 12.1642 87.3683 12.1696L88.7199 12.463L89.0266 13.8113C89.0318 13.8346 89.0448 13.8555 89.0634 13.8704C89.082 13.8854 89.1052 13.8935 89.1291 13.8935C89.153 13.8935 89.1762 13.8854 89.1948 13.8704C89.2135 13.8555 89.2264 13.8346 89.2316 13.8113L89.5399 12.4563L90.8916 12.1363C90.9149 12.1311 90.9358 12.1182 90.9507 12.0995C90.9657 12.0809 90.9738 12.0577 90.9738 12.0338C90.9738 12.0099 90.9657 11.9867 90.9507 11.9681C90.9358 11.9495 90.9149 11.9365 90.8916 11.9313H90.8899ZM15.5083 17.7863L17.3666 17.3813L17.7966 15.5263C17.8043 15.4948 17.8224 15.4668 17.8479 15.4467C17.8735 15.4267 17.905 15.4158 17.9374 15.4158C17.9699 15.4158 18.0014 15.4267 18.0269 15.4467C18.0525 15.4668 18.0706 15.4948 18.0783 15.5263L18.5016 17.3896L20.3616 17.8313C20.3936 17.8386 20.4222 17.8566 20.4425 17.8824C20.4629 17.9082 20.4737 17.9401 20.4733 17.973C20.4724 18.0055 20.4608 18.0369 20.4403 18.0622C20.4198 18.0875 20.3916 18.1053 20.3599 18.113L18.4999 18.5163L18.0783 20.3713C18.0706 20.4028 18.0525 20.4309 18.0269 20.4509C18.0014 20.4709 17.9699 20.4818 17.9374 20.4818C17.905 20.4818 17.8735 20.4709 17.8479 20.4509C17.8224 20.4309 17.8043 20.4028 17.7966 20.3713L17.3733 18.508L15.5149 18.0663C15.483 18.0593 15.4545 18.0416 15.434 18.0161C15.4135 17.9907 15.4023 17.959 15.4023 17.9263C15.4023 17.8936 15.4135 17.8619 15.434 17.8365C15.4545 17.811 15.483 17.7933 15.5149 17.7863H15.5083ZM23.3216 2.12965L24.2816 1.92132L24.4999 0.961314C24.5035 0.944535 24.5128 0.929499 24.5261 0.918711C24.5395 0.907924 24.5561 0.902039 24.5733 0.902039C24.5904 0.902039 24.6071 0.907924 24.6204 0.918711C24.6338 0.929499 24.643 0.944535 24.6466 0.961314L24.8649 1.92465L25.8266 2.15298C25.8439 2.15562 25.8598 2.16438 25.8712 2.17768C25.8826 2.19098 25.8889 2.20795 25.8889 2.22548C25.8889 2.24302 25.8826 2.25998 25.8712 2.27328C25.8598 2.28658 25.8439 2.29535 25.8266 2.29798L24.8666 2.50798L24.6483 3.46798C24.6447 3.48476 24.6354 3.4998 24.6221 3.51058C24.6087 3.52137 24.5921 3.52726 24.5749 3.52726C24.5578 3.52726 24.5411 3.52137 24.5278 3.51058C24.5145 3.4998 24.5052 3.48476 24.5016 3.46798L24.2833 2.50298L23.3216 2.27465C23.3049 2.27115 23.2899 2.26191 23.2792 2.24851C23.2686 2.23512 23.2629 2.21842 23.2633 2.20131C23.2641 2.18473 23.2703 2.16885 23.2808 2.15597C23.2912 2.14308 23.3055 2.13387 23.3216 2.12965Z" fill="#171718"/>
<path d="M6.39062 47.0578L13.384 108.598H97.914L104.907 47.0578H6.39062Z" fill="#E0F2FE"/>
<path d="M98.362 109.098H12.9387L12.8887 108.655L5.83203 46.558H105.464L105.4 47.1146L98.362 109.098ZM13.832 108.098H97.4637L104.344 47.558H6.95203L13.832 108.098Z" fill="#171718"/>
<path d="M104.907 40.2396H6.56687C3.38019 40.2396 0.796875 42.8225 0.796875 46.0088C0.796875 49.195 3.38019 51.7779 6.56687 51.7779H104.907C108.094 51.7779 110.677 49.195 110.677 46.0088C110.677 42.8225 108.094 40.2396 104.907 40.2396Z" fill="white"/>
<path d="M104.909 52.278H6.57535C5.74346 52.2915 4.9172 52.1394 4.14471 51.8304C3.37221 51.5215 2.66894 51.0619 2.07585 50.4784C1.48277 49.8949 1.01175 49.1992 0.690226 48.4318C0.368707 47.6645 0.203125 46.8408 0.203125 46.0088C0.203125 45.1768 0.368707 44.3531 0.690226 43.5858C1.01175 42.8184 1.48277 42.1227 2.07585 41.5392C2.66894 40.9558 3.37221 40.4961 4.14471 40.1872C4.9172 39.8782 5.74346 39.7261 6.57535 39.7396H104.909C106.554 39.7665 108.122 40.4388 109.276 41.6115C110.43 42.7843 111.076 44.3636 111.076 46.0088C111.076 47.654 110.43 49.2333 109.276 50.4061C108.122 51.5789 106.554 52.2512 104.909 52.278ZM6.57535 40.7396C5.8755 40.7272 5.18019 40.8543 4.53001 41.1135C3.87982 41.3727 3.28778 41.7588 2.78846 42.2494C2.28914 42.7399 1.89253 43.325 1.6218 43.9704C1.35107 44.6159 1.21163 45.3089 1.21163 46.0088C1.21163 46.7088 1.35107 47.4017 1.6218 48.0472C1.89253 48.6926 2.28914 49.2777 2.78846 49.7682C3.28778 50.2588 3.87982 50.6449 4.53001 50.9041C5.18019 51.1633 5.8755 51.2904 6.57535 51.278H104.909C106.29 51.2534 107.606 50.6875 108.574 49.702C109.543 48.7165 110.085 47.3903 110.085 46.0088C110.085 44.6273 109.543 43.3011 108.574 42.3156C107.606 41.3301 106.29 40.7642 104.909 40.7396H6.57535Z" fill="#171718"/>
<path d="M46.7336 11.7603L26.7371 44.9482C26.1423 45.9353 26.4604 47.2177 27.4475 47.8124L31.2848 50.1245C32.2719 50.7192 33.5542 50.4012 34.149 49.4141L54.1455 16.2261C54.7403 15.239 54.4222 13.9567 53.4351 13.3619L49.5978 11.0498C48.6107 10.4551 47.3284 10.7731 46.7336 11.7603Z" fill="#E0F2FE"/>
<path d="M32.3553 50.9178C31.8852 50.9183 31.424 50.7897 31.022 50.5462L27.1887 48.2345C26.6012 47.88 26.1785 47.3068 26.0135 46.6408C25.8485 45.9748 25.9546 45.2706 26.3087 44.6828L46.2953 11.4945C46.6498 10.907 47.223 10.4843 47.889 10.3193C48.555 10.1543 49.2592 10.2605 49.847 10.6145L53.6803 12.9245C53.9715 13.0997 54.2254 13.3306 54.4272 13.604C54.6291 13.8774 54.7751 14.188 54.8568 14.5179C54.9386 14.8477 54.9545 15.1905 54.9036 15.5265C54.8527 15.8626 54.7361 16.1853 54.5603 16.4762L34.5603 49.6645C34.386 49.9565 34.1553 50.2108 33.8818 50.4128C33.6083 50.6148 33.2973 50.7604 32.967 50.8412C32.7669 50.8909 32.5615 50.9166 32.3553 50.9178ZM48.522 11.2512C48.3922 11.2511 48.263 11.2667 48.137 11.2978C47.9345 11.3473 47.7438 11.4366 47.5761 11.5605C47.4085 11.6844 47.2671 11.8404 47.1603 12.0195L27.1603 45.2078C27.0525 45.3862 26.9809 45.5842 26.9497 45.7903C26.9185 45.9964 26.9282 46.2067 26.9784 46.409C27.0286 46.6114 27.1181 46.8018 27.242 46.9695C27.3659 47.1372 27.5216 47.2788 27.7003 47.3862L31.5337 49.6978C31.8942 49.9147 32.3261 49.9797 32.7345 49.8784C33.1429 49.7772 33.4945 49.518 33.712 49.1578L53.712 15.9695C53.9288 15.6085 53.9935 15.1762 53.892 14.7675C53.7904 14.3588 53.5309 14.0071 53.1703 13.7895L49.337 11.4795C49.0912 11.3267 48.808 11.2448 48.5187 11.2428L48.522 11.2512Z" fill="#171718"/>
<path d="M61.4169 10.8389L57.5641 13.1685C56.573 13.7678 56.2553 15.057 56.8546 16.0481L77.0029 49.3703C77.6021 50.3614 78.8914 50.679 79.8825 50.0797L83.7353 47.7501C84.7264 47.1509 85.044 45.8616 84.4447 44.8705L64.2965 11.5484C63.6972 10.5573 62.408 10.2397 61.4169 10.8389Z" fill="#E0F2FE"/>
<path d="M78.0675 50.9162C77.6208 50.9176 77.1813 50.803 76.7922 50.5836C76.403 50.3642 76.0775 50.0475 75.8475 49.6645L55.8475 16.4762C55.4958 15.8883 55.3915 15.1849 55.5578 14.5203C55.724 13.8557 56.1471 13.2842 56.7342 12.9312L60.5675 10.6212C60.8586 10.4441 61.1817 10.3261 61.5184 10.2741C61.8551 10.2222 62.1988 10.2372 62.5297 10.3183C62.8606 10.3994 63.1722 10.5451 63.4467 10.747C63.7212 10.9488 63.9531 11.2029 64.1292 11.4945L84.1292 44.6829C84.3046 44.9739 84.421 45.2967 84.4716 45.6328C84.5223 45.9688 84.5062 46.3116 84.4243 46.6414C84.3424 46.9712 84.1964 47.2817 83.9945 47.5551C83.7925 47.8284 83.5387 48.0593 83.2475 48.2345L79.4142 50.5462C79.0081 50.7916 78.542 50.9197 78.0675 50.9162ZM61.9009 11.2495C61.6134 11.2493 61.3314 11.3283 61.0859 11.4779L57.2525 13.7879C56.892 14.0054 56.6324 14.3571 56.5309 14.7658C56.4293 15.1745 56.494 15.6068 56.7109 15.9679L76.7109 49.1562C76.9287 49.5165 77.2805 49.7757 77.6892 49.8769C78.0979 49.9782 78.53 49.9132 78.8909 49.6962L82.7242 47.3845C82.9029 47.2771 83.0586 47.1356 83.1825 46.9679C83.3064 46.8002 83.396 46.6097 83.4461 46.4074C83.4963 46.2051 83.506 45.9948 83.4748 45.7887C83.4436 45.5826 83.372 45.3846 83.2642 45.2062L63.2642 12.0179C63.1572 11.839 63.0158 11.6831 62.8481 11.5592C62.6805 11.4354 62.49 11.346 62.2875 11.2962C62.1618 11.263 62.0325 11.2451 61.9025 11.2429L61.9009 11.2495Z" fill="#171718"/>
<path d="M31.828 47.3197C33.228 47.3197 34.363 46.1847 34.363 44.7847C34.363 43.3847 33.228 42.2497 31.828 42.2497C30.4279 42.2497 29.293 43.3847 29.293 44.7847C29.293 46.1847 30.4279 47.3197 31.828 47.3197Z" fill="white"/>
<path d="M31.828 47.8197C31.2277 47.8197 30.6409 47.6417 30.1418 47.3082C29.6427 46.9747 29.2537 46.5007 29.024 45.9461C28.7943 45.3916 28.7342 44.7813 28.8513 44.1926C28.9684 43.6039 29.2575 43.0631 29.6819 42.6386C30.1064 42.2142 30.6471 41.9251 31.2359 41.808C31.8246 41.6909 32.4348 41.751 32.9894 41.9807C33.544 42.2104 34.018 42.5994 34.3515 43.0985C34.685 43.5976 34.863 44.1844 34.863 44.7847C34.8621 45.5894 34.542 46.3608 33.9731 46.9298C33.4041 47.4988 32.6326 47.8188 31.828 47.8197ZM31.828 42.7497C31.4255 42.7497 31.032 42.8691 30.6974 43.0927C30.3627 43.3163 30.1019 43.6341 29.9479 44.0059C29.7939 44.3778 29.7535 44.787 29.8321 45.1817C29.9106 45.5765 30.1044 45.9391 30.389 46.2237C30.6736 46.5083 31.0362 46.7021 31.431 46.7806C31.8257 46.8591 32.2349 46.8188 32.6067 46.6648C32.9786 46.5108 33.2964 46.2499 33.52 45.9153C33.7436 45.5806 33.863 45.1872 33.863 44.7847C33.8621 44.2453 33.6474 43.7282 33.266 43.3467C32.8845 42.9653 32.3674 42.7506 31.828 42.7497Z" fill="#171718"/>
<path d="M78.3319 47.1449C79.7319 47.1449 80.8669 46.0099 80.8669 44.6099C80.8669 43.2099 79.7319 42.0749 78.3319 42.0749C76.9318 42.0749 75.7969 43.2099 75.7969 44.6099C75.7969 46.0099 76.9318 47.1449 78.3319 47.1449Z" fill="white"/>
<path d="M78.3319 47.6449C77.7316 47.6449 77.1448 47.4669 76.6457 47.1334C76.1466 46.7999 75.7576 46.3259 75.5279 45.7713C75.2982 45.2168 75.2381 44.6065 75.3552 44.0178C75.4723 43.4291 75.7613 42.8883 76.1858 42.4638C76.6103 42.0394 77.151 41.7503 77.7398 41.6332C78.3285 41.5161 78.9387 41.5762 79.4933 41.8059C80.0479 42.0356 80.5219 42.4246 80.8554 42.9237C81.1889 43.4228 81.3669 44.0096 81.3669 44.6099C81.366 45.4146 81.046 46.186 80.477 46.755C79.908 47.324 79.1365 47.644 78.3319 47.6449ZM78.3319 42.5749C77.9294 42.5749 77.5359 42.6942 77.2013 42.9179C76.8666 43.1415 76.6058 43.4593 76.4518 43.8311C76.2978 44.203 76.2575 44.6121 76.336 45.0069C76.4145 45.4016 76.6083 45.7643 76.8929 46.0489C77.1775 46.3335 77.5401 46.5273 77.9349 46.6058C78.3296 46.6843 78.7388 46.644 79.1106 46.49C79.4825 46.336 79.8003 46.0751 80.0239 45.7405C80.2475 45.4058 80.3669 45.0124 80.3669 44.6099C80.366 44.0704 80.1513 43.5533 79.7699 43.1719C79.3884 42.7905 78.8713 42.5758 78.3319 42.5749Z" fill="#171718"/>
<path d="M20.5508 57.6345H26.4958V77.7395H20.5508V57.6345Z" fill="white"/>
<path d="M26.9958 78.2411H20.0508V57.1345H26.9958V78.2411ZM21.0508 77.2411H25.9958V58.1345H21.0508V77.2411Z" fill="#171718"/>
<path d="M36.9883 57.6345H42.9333V77.7395H36.9883V57.6345Z" fill="white"/>
<path d="M43.4316 78.2411H36.4883V57.1345H43.4316V78.2411ZM37.4883 77.2411H42.4316V58.1345H37.4883V77.2411Z" fill="#171718"/>
<path d="M53.4219 57.6345H59.3669V77.7395H53.4219V57.6345Z" fill="white"/>
<path d="M59.8669 78.2411H52.9219V57.1345H59.8669V78.2411ZM53.9219 77.2411H58.8669V58.1345H53.9219V77.2411Z" fill="#171718"/>
<path d="M69.6797 57.6345H75.6247V77.7395H69.6797V57.6345Z" fill="white"/>
<path d="M76.1297 78.2411H69.1797V57.1345H76.1297V78.2411ZM70.1864 77.2411H75.1297V58.1345H70.1797L70.1864 77.2411Z" fill="#171718"/>
<path d="M86.1133 57.6346H92.0583V77.7396H86.1133V57.6346Z" fill="white"/>
<path d="M92.5583 78.2413H85.6133V57.1346H92.5583V78.2413ZM86.6133 77.2413H91.5583V58.1346H86.6133V77.2413Z" fill="#171718"/>
<path d="M20.5508 82.2863H26.4958V102.391H20.5508V82.2863Z" fill="white"/>
<path d="M26.9958 102.891H20.0508V81.7863H26.9958V102.891ZM21.0508 101.891H25.9958V82.7863H21.0508V101.891Z" fill="#171718"/>
<path d="M36.9883 82.2863H42.9333V102.391H36.9883V82.2863Z" fill="white"/>
<path d="M43.4316 102.891H36.4883V81.7863H43.4316V102.891ZM37.4883 101.891H42.4316V82.7863H37.4883V101.891Z" fill="#171718"/>
<path d="M53.4219 82.2863H59.3669V102.391H53.4219V82.2863Z" fill="white"/>
<path d="M59.8669 102.891H52.9219V81.7863H59.8669V102.891ZM53.9219 101.891H58.8669V82.7863H53.9219V101.891Z" fill="#171718"/>
<path d="M69.6797 82.2863H75.6247V102.391H69.6797V82.2863Z" fill="white"/>
<path d="M76.1297 102.891H69.1797V81.7863H76.1297V102.891ZM70.1864 101.891H75.1297V82.7863H70.1797L70.1864 101.891Z" fill="#171718"/>
<path d="M86.1133 82.2863H92.0583V102.391H86.1133V82.2863Z" fill="white"/>
<path d="M92.5583 102.891H85.6133V81.7863H92.5583V102.891ZM86.6133 101.891H91.5583V82.7863H86.6133V101.891Z" fill="#171718"/>
<path d="M103.269 62.3163C112.684 62.3163 120.316 54.6843 120.316 45.2697C120.316 35.8551 112.684 28.223 103.269 28.223C93.8547 28.223 86.2227 35.8551 86.2227 45.2697C86.2227 54.6843 93.8547 62.3163 103.269 62.3163Z" fill="white"/>
<path d="M103.269 62.8147C99.7991 62.8147 96.4067 61.7856 93.5213 59.8577C90.6358 57.9298 88.3868 55.1896 87.0586 51.9836C85.7305 48.7775 85.3828 45.2497 86.0596 41.846C86.7363 38.4424 88.4072 35.3159 90.8608 32.8618C93.3144 30.4077 96.4406 28.7363 99.8441 28.0589C103.248 27.3815 106.776 27.7285 109.982 29.056C113.188 30.3836 115.929 32.6321 117.857 35.5172C119.786 38.4023 120.815 41.7944 120.816 45.2647C120.812 49.9175 118.963 54.3789 115.673 57.6693C112.383 60.9597 107.922 62.8102 103.269 62.8147ZM103.269 28.723C99.9965 28.723 96.7972 29.6936 94.076 31.512C91.3548 33.3303 89.234 35.9149 87.9817 38.9387C86.7295 41.9625 86.4021 45.2897 87.041 48.4996C87.6798 51.7095 89.2562 54.6578 91.5708 56.9717C93.8854 59.2856 96.8342 60.8611 100.044 61.499C103.254 62.1369 106.582 61.8085 109.605 60.5553C112.628 59.3022 115.212 57.1806 117.03 54.4588C118.847 51.7371 119.817 48.5375 119.816 45.2647C119.81 40.8786 118.064 36.674 114.962 33.573C111.861 30.472 107.655 28.7278 103.269 28.723ZM112.363 7.45966H113.363V24.943H112.363V7.45966Z" fill="#171718"/>
<path d="M120.645 27.8244L133.057 15.762L133.754 16.4791L121.341 28.5416L120.645 27.8244Z" fill="#171718"/>
<path d="M124.141 35.5432H141.799V36.5432H124.141V35.5432Z" fill="#171718"/>
<path d="M99.6852 52.8296C98.6363 52.1551 97.8108 51.1707 97.2085 49.8762C96.6063 48.5818 96.3024 47.0446 96.2969 45.2646C96.2969 43.4868 96.5985 41.9507 97.2019 40.6562C97.8052 39.3618 98.6308 38.3773 99.6785 37.7029C100.755 37.0417 101.993 36.6916 103.256 36.6916C104.519 36.6916 105.757 37.0417 106.834 37.7029C107.89 38.3785 108.72 39.3629 109.324 40.6562C109.927 41.9496 110.23 43.4857 110.234 45.2646C110.234 47.0423 109.932 48.5779 109.33 49.8712C108.728 51.1646 107.898 52.149 106.84 52.8246C105.764 53.4858 104.526 53.8359 103.263 53.8359C102 53.8359 100.761 53.4858 99.6852 52.8246V52.8296ZM106.079 49.6746C106.769 48.689 107.114 47.2207 107.115 45.2696C107.116 43.3185 106.771 41.8496 106.079 40.8629C105.773 40.3968 105.353 40.0165 104.86 39.7581C104.366 39.4996 103.814 39.3716 103.257 39.3862C102.082 39.3862 101.15 39.8785 100.459 40.8629C99.7674 41.8473 99.4224 43.3146 99.4235 45.2646C99.4235 47.2168 99.7685 48.6851 100.459 49.6696C100.772 50.125 101.192 50.4975 101.681 50.7548C102.171 51.012 102.716 51.1465 103.269 51.1465C103.822 51.1465 104.366 51.012 104.856 50.7548C105.345 50.4975 105.765 50.125 106.079 49.6696V49.6746Z" fill="#E0F2FE"/>
<path d="M103.257 54.3414C101.897 54.3603 100.561 53.9808 99.4135 53.2497C98.2902 52.5264 97.3952 51.4631 96.7469 50.0831C96.0985 48.7031 95.7969 47.1131 95.7969 45.2648C95.7969 43.4164 96.1169 41.7998 96.7485 40.4448C97.3802 39.0898 98.2835 38.0064 99.4152 37.2781C100.572 36.5649 101.904 36.1872 103.264 36.1872C104.623 36.1872 105.955 36.5649 107.112 37.2781C108.286 38.0556 109.212 39.155 109.779 40.4448C110.41 41.7998 110.73 43.4214 110.73 45.2648C110.73 47.1081 110.41 48.7281 109.779 50.0831C109.147 51.4381 108.239 52.5231 107.112 53.2497C105.96 53.9797 104.621 54.359 103.257 54.3414ZM103.257 37.1964C102.092 37.1806 100.948 37.5044 99.9635 38.1281C99.0019 38.7481 98.2285 39.6714 97.6702 40.8731C97.1119 42.0748 96.7969 43.5731 96.7969 45.2648C96.7969 46.9564 97.0852 48.4398 97.6552 49.6614C98.2252 50.8831 98.9885 51.7848 99.9485 52.4048C100.944 53.0147 102.089 53.3375 103.257 53.3375C104.425 53.3375 105.57 53.0147 106.565 52.4048C107.534 51.7864 108.31 50.8631 108.87 49.6631C109.43 48.4631 109.727 46.9614 109.727 45.2664C109.727 43.5714 109.439 42.0998 108.87 40.8698C108.381 39.7533 107.581 38.8011 106.565 38.1264C105.576 37.5031 104.426 37.18 103.257 37.1964ZM103.257 51.6514C101.924 51.6514 100.835 51.0831 100.05 49.9614C99.3019 48.8964 98.9219 47.3181 98.9219 45.2698C98.9219 43.2214 99.3019 41.6431 100.05 40.5764C100.41 40.0556 100.891 39.6299 101.452 39.3359C102.013 39.0418 102.636 38.8882 103.269 38.8882C103.903 38.8882 104.526 39.0418 105.087 39.3359C105.648 39.6299 106.129 40.0556 106.489 40.5764C107.235 41.6414 107.615 43.2214 107.615 45.2698C107.615 47.3181 107.235 48.8964 106.489 49.9614C106.138 50.4943 105.657 50.929 105.091 51.2247C104.526 51.5203 103.895 51.6672 103.257 51.6514ZM103.257 39.8881C102.784 39.8753 102.315 39.9849 101.897 40.2062C101.478 40.4275 101.124 40.7531 100.869 41.1514C100.24 42.0448 99.9219 43.4314 99.9219 45.2698C99.9219 47.1081 100.24 48.4931 100.869 49.3881C101.136 49.7776 101.495 50.0961 101.913 50.3161C102.331 50.5361 102.797 50.6511 103.269 50.6511C103.742 50.6511 104.208 50.5361 104.626 50.3161C105.044 50.0961 105.402 49.7776 105.67 49.3881C106.297 48.4931 106.615 47.1081 106.615 45.2698C106.615 43.4314 106.297 42.0448 105.67 41.1514C105.411 40.7511 105.052 40.4246 104.629 40.2033C104.206 39.982 103.734 39.8734 103.257 39.8881Z" fill="#171718"/>
</svg>
