<svg width="108" height="126" viewBox="0 0 108 126" fill="none" xmlns="http://www.w3.org/2000/svg">
<path d="M43.5878 41.3228C43.4961 41.1795 41.3378 37.7445 40.9828 32.8478C40.6495 28.3161 41.8545 21.6378 49.4311 15.5611L49.7211 15.3295C53.3878 12.4078 55.0695 10.0778 52.7795 6.80779C51.6995 5.26446 49.8661 4.37612 47.8711 4.40779C46.7191 4.41912 45.5873 4.71208 44.5745 5.26112C44.2634 5.42972 43.9031 5.48387 43.5562 5.41413C43.2093 5.34439 42.8979 5.15518 42.6761 4.87946C42.5363 4.70787 42.4357 4.50776 42.3814 4.29316C42.3272 4.07857 42.3205 3.8547 42.362 3.63726C42.4034 3.41983 42.492 3.2141 42.6214 3.03453C42.7508 2.85496 42.918 2.70589 43.1111 2.59779C44.554 1.81337 46.1657 1.39073 47.8078 1.36612C50.8078 1.30946 53.6061 2.68612 55.2695 5.06112C57.1411 7.72779 57.3545 10.5395 55.8845 13.1728C54.7478 15.2128 52.8611 16.7145 51.6128 17.7078L51.3311 17.9311C46.0761 22.1461 43.6145 27.0978 44.0145 32.6261C44.1899 35.1096 44.9201 37.5221 46.1511 39.6861L43.5878 41.3228Z" fill="white"/>
<path d="M43.4362 42.0128L43.1678 41.5911C43.0728 41.4445 40.8495 37.9045 40.4862 32.8845C40.1528 28.2328 41.3745 21.3845 49.1195 15.1711L49.4095 14.9378C53.4695 11.7078 54.2178 9.72946 52.3712 7.09446C51.3928 5.69613 49.7045 4.88113 47.8712 4.9078C46.8041 4.91942 45.7561 5.19117 44.8178 5.69946C44.4808 5.88062 44.0993 5.96242 43.7176 5.93535C43.3359 5.90828 42.9698 5.77346 42.6617 5.54654C42.3536 5.31962 42.1163 5.00993 41.9772 4.65347C41.8381 4.297 41.8031 3.90839 41.8762 3.5328C41.9322 3.24573 42.0509 2.97456 42.2237 2.73861C42.3966 2.50267 42.6193 2.30776 42.8762 2.1678C44.3872 1.34047 46.077 0.8937 47.7995 0.866129C50.9845 0.799463 53.9262 2.2678 55.6812 4.77446C57.6712 7.6078 57.8945 10.6078 56.3245 13.4161C55.1395 15.5428 53.2062 17.0828 51.9262 18.0995L51.6428 18.3228C46.5228 22.4295 44.1245 27.2311 44.5128 32.5928C44.685 34.9948 45.388 37.3287 46.5712 39.4261L46.8362 39.8461L43.4362 42.0128ZM47.9762 3.9078C50.1012 3.9078 52.0445 4.87947 53.1945 6.51947C55.6945 10.0978 53.8428 12.6861 50.0362 15.7211L49.7478 15.9511C42.3412 21.8911 41.1678 28.3995 41.4878 32.8111C41.6911 35.5455 42.4662 38.2068 43.7628 40.6228L45.4878 39.5211C44.3746 37.3925 43.706 35.0596 43.5228 32.6645C43.1095 26.9561 45.6345 21.8678 51.0228 17.5428L51.3028 17.3178C52.5212 16.3495 54.3628 14.8845 55.4512 12.9311C56.8212 10.4761 56.6178 7.85446 54.8628 5.34946C53.2978 3.11613 50.6695 1.82113 47.8195 1.8678C46.2579 1.88804 44.7248 2.28848 43.3528 3.03446C43.2248 3.10468 43.1136 3.2021 43.0272 3.31986C42.9409 3.43763 42.8813 3.57289 42.8528 3.71613C42.824 3.86403 42.8278 4.01645 42.8641 4.16271C42.9004 4.30897 42.9682 4.44552 43.0628 4.56279C43.2106 4.74797 43.4188 4.8753 43.6509 4.92252C43.8831 4.96974 44.1245 4.93385 44.3328 4.82113C45.4162 4.23306 46.6269 3.91893 47.8595 3.90613L47.9762 3.9078Z" fill="#171718"/>
<path d="M36.4896 32.4646L35.9896 22.6546C35.9498 21.8744 35.6017 21.142 35.0219 20.6184C34.4421 20.0949 33.6781 19.8231 32.8979 19.8629C32.1177 19.9027 31.3853 20.2508 30.8618 20.8306C30.3382 21.4104 30.0665 22.1744 30.1063 22.9546L30.6063 32.8196L28.9062 52.6712C28.9062 52.6712 37.1979 55.9129 40.6896 51.7196C43.7746 48.0162 42.5646 37.1696 36.4896 32.4646Z" fill="white"/>
<path d="M35.1439 54.3746C31.9539 54.3746 28.9356 53.218 28.7256 53.1363L28.3789 52.9996L30.1089 32.8113L29.6089 22.978C29.5775 22.5212 29.6373 22.0628 29.785 21.6295C29.9327 21.1961 30.1652 20.7965 30.4691 20.454C30.7729 20.1116 31.1419 19.833 31.5545 19.6347C31.9672 19.4364 32.4152 19.3223 32.8724 19.2991C33.3296 19.2758 33.7869 19.3439 34.2175 19.4993C34.6482 19.6547 35.0435 19.8944 35.3805 20.2043C35.7175 20.5142 35.9894 20.8881 36.1803 21.3043C36.3711 21.7204 36.4772 22.1704 36.4922 22.628L36.9806 32.2113C40.0606 34.6963 42.2006 38.988 42.7189 43.7496C43.1006 47.2496 42.4872 50.348 41.0789 52.038C39.5806 53.8347 37.3222 54.3746 35.1439 54.3746ZM29.4389 52.3297C31.0106 52.8663 37.4772 54.7996 40.3106 51.3996C41.5489 49.913 42.0789 47.0946 41.7256 43.8596C41.2256 39.2696 39.1539 35.158 36.1872 32.8596L36.0056 32.7196L35.4939 22.6796C35.4542 22.0365 35.1623 21.435 34.6816 21.0057C34.201 20.5765 33.5704 20.3542 32.9269 20.3871C32.2833 20.42 31.6788 20.7055 31.2444 21.1816C30.8101 21.6576 30.5812 22.2858 30.6072 22.9296L31.1072 32.8296V32.863L29.4389 52.3297Z" fill="#171718"/>
<path d="M61.6001 45.6562L61.0618 35.1212C61.0221 34.342 60.675 33.6104 60.0967 33.0868C59.5184 32.5631 58.756 32.2902 57.9768 32.3278C57.1963 32.3679 56.4636 32.7163 55.9398 33.2963C55.416 33.8764 55.144 34.6406 55.1835 35.4212L55.7218 45.9562L61.6001 45.6562Z" fill="white"/>
<path d="M55.2411 46.4812L54.6778 35.4462C54.6472 34.5429 54.9727 33.6637 55.5841 32.9981C56.1955 32.3324 57.0439 31.9336 57.9466 31.8875C58.8492 31.8414 59.7339 32.1517 60.41 32.7515C61.086 33.3514 61.4994 34.1928 61.5611 35.0945L62.1244 46.1295L55.2411 46.4812ZM58.1211 32.8245H57.9944C57.3466 32.8582 56.7386 33.1475 56.3039 33.6291C55.8692 34.1106 55.6434 34.745 55.6761 35.3929L56.1878 45.4279L61.0744 45.1795L60.5628 35.1429C60.5291 34.5176 60.2573 33.929 59.8033 33.4978C59.3492 33.0667 58.7472 32.8258 58.1211 32.8245Z" fill="#171718"/>
<path d="M58.8828 32.5558L59.5486 32.5219L59.7865 37.1858L59.1207 37.2198L58.8828 32.5558Z" fill="#171718"/>
<path d="M57.1602 32.3688L57.826 32.3349L58.0583 36.8906L57.3925 36.9246L57.1602 32.3688Z" fill="#171718"/>
<path d="M28.5234 24.2077H29.1901V28.8777H28.5234V24.2077Z" fill="#171718"/>
<path d="M33.0352 19.8557L33.701 19.8217L33.9333 24.3774L33.2675 24.4114L33.0352 19.8557Z" fill="#171718"/>
<path d="M71.3563 94.9109C70.8166 91.7198 69.5135 88.7064 67.5579 86.1276C64.6446 82.2659 63.4996 80.2309 63.4996 80.2309L48.5779 80.1543V80.1359L46.773 80.1459L44.9663 80.1359V80.1543L30.0463 80.2309C30.0463 80.2309 28.9013 82.2659 25.988 86.1276C24.0325 88.7067 22.7289 91.7199 22.188 94.9109C21.1146 101.361 21.778 113.779 29.9513 121.763C29.9513 121.763 32.6029 125.073 45.6296 124.596C46.3918 124.567 47.1535 124.567 47.9146 124.596C60.943 125.081 63.5946 121.763 63.5946 121.763C71.768 113.779 72.4296 101.366 71.3563 94.9109Z" fill="white"/>
<path d="M50.4287 125.136C49.6298 125.136 48.7854 125.119 47.8954 125.086C47.1487 125.059 46.3954 125.059 45.6487 125.086C33.0221 125.556 29.9071 122.469 29.5854 122.104C21.1421 113.848 20.6537 101.078 21.6937 94.8294C22.2503 91.5604 23.5857 88.4734 25.5871 85.8294C28.4404 82.0461 29.5987 80.0078 29.6087 79.9961L29.7521 79.7428L44.4654 79.6678V79.6428L46.7737 79.6561L49.0771 79.6428V79.6678L63.7921 79.7428L63.9337 79.9961C63.9454 80.0161 65.1004 82.0544 67.9554 85.8294C69.9571 88.4733 71.2925 91.5603 71.8487 94.8294C72.8887 101.078 72.3954 113.848 63.9587 122.104C63.6587 122.443 60.9471 125.136 50.4287 125.136ZM30.3321 80.7294C29.9387 81.3961 28.7404 83.3094 26.3854 86.4294C24.481 88.9451 23.2102 91.8823 22.6804 94.9928C21.6721 101.054 22.1421 113.436 30.2987 121.404L30.3404 121.449C30.3621 121.474 33.1321 124.554 45.6104 124.088C46.3804 124.059 47.1621 124.059 47.9321 124.088C60.4104 124.553 63.1804 121.474 63.2071 121.444L63.2437 121.404C71.4021 113.436 71.8721 101.054 70.8621 94.9928C70.3323 91.8823 69.0615 88.9451 67.1571 86.4294C64.8037 83.3094 63.6037 81.3878 63.2104 80.7294L48.0771 80.6528V80.6394H45.4654V80.6528L30.3321 80.7294Z" fill="#171718"/>
<path d="M31.5821 116.366L31.3555 115.391C32.1305 115.211 50.4538 111.034 62.0571 115.411L61.7038 116.346C50.3871 112.071 31.7688 116.314 31.5821 116.366ZM66.3555 93.2378C65.9822 92.2812 65.5474 91.3498 65.0538 90.4494L65.9305 89.9694C66.445 90.908 66.8982 91.8789 67.2871 92.8761L66.3555 93.2378ZM65.3488 105.831L64.3488 105.756C64.5515 103.191 64.248 100.611 63.4555 98.1628L64.4071 97.8528C65.2406 100.425 65.5606 103.136 65.3488 105.831Z" fill="#171718"/>
<path d="M33.3741 40.6011C33.3741 40.6011 19.8741 48.3945 28.4308 74.4345C28.4308 74.4345 28.2408 86.4078 31.0975 93.0611C31.0975 93.0611 29.3875 98.9528 30.3375 103.134C30.3375 103.134 37.7508 101.994 40.4108 98.7628C40.4108 98.7628 48.3941 100.854 54.4775 98.7628C54.4775 98.7628 59.2291 101.234 62.6441 101.234C62.6441 101.234 62.8341 97.8128 61.8841 92.1111C61.8841 92.1111 64.1658 81.6561 63.2175 75.0045C63.2175 75.0045 69.1091 55.9961 62.0758 44.7828C62.0741 44.7828 51.4308 31.4778 33.3741 40.6011Z" fill="white"/>
<path d="M29.9475 103.7L29.8442 103.246C28.9575 99.3412 30.2825 94.1246 30.5642 93.0946C27.8675 86.6179 27.9175 75.6729 27.9308 74.5112C25.9792 68.5479 25.0258 63.0462 25.0975 58.1546C25.1525 54.2012 25.8742 50.6329 27.2392 47.5496C29.5825 42.2579 32.9825 40.2512 33.1258 40.1679L33.1492 40.1546C42.6492 35.3529 50.1142 36.7746 54.7008 38.8129C59.6725 41.0229 62.3542 44.3312 62.4675 44.4696L62.4992 44.5162C66.2075 50.4296 66.3325 58.4546 65.7808 64.1462C65.4216 67.8323 64.7344 71.4789 63.7275 75.0429C64.6042 81.4479 62.6342 91.0012 62.3942 92.1229C63.3242 97.7579 63.1525 101.123 63.1442 101.263L63.1175 101.735H62.6442C59.4942 101.735 55.3742 99.7746 54.4325 99.3046C48.9125 101.111 42.1108 99.6829 40.5825 99.3212C37.6875 102.478 30.7108 103.583 30.4158 103.63L29.9475 103.7ZM33.6142 41.0329C33.4125 41.1546 30.2642 43.1312 28.1142 48.0196C26.0708 52.6862 24.5475 61.0196 28.9008 74.2712L28.9258 74.3512V74.4346C28.9258 74.5546 28.7708 86.3812 31.5475 92.8579L31.6175 93.0246L31.5675 93.1912C31.5525 93.2462 30.0275 98.5779 30.7208 102.548C32.3675 102.236 37.8875 101.025 40.0158 98.4362L40.2192 98.1896L40.5275 98.2696C40.6058 98.2896 48.4392 100.296 54.3042 98.2812L54.5075 98.2112L54.6975 98.3096C54.7408 98.3329 58.9392 100.496 62.1525 100.708C62.1658 99.5762 62.1125 96.5412 61.3858 92.1829L61.3708 92.0879L61.3908 91.9946C61.4142 91.8912 63.6408 81.5512 62.7242 75.0646L62.7075 74.9529L62.7408 74.8462C62.7992 74.6579 68.4742 55.9562 61.6708 45.0646C61.4408 44.7879 58.8225 41.7179 54.2542 39.6996C47.8825 36.8946 40.9392 37.3429 33.6142 41.0329Z" fill="#171718"/>
<path d="M39.5548 96.8944H39.2648L39.2148 96.8794C34.6015 95.4761 32.3098 82.7728 32.2148 82.2328L33.1998 82.0661C33.8165 85.5661 36.1365 94.8111 39.4515 95.9128C39.7015 95.9211 40.8748 95.9228 41.4515 95.1578C41.9515 94.4911 41.9215 93.3461 41.3598 91.8244V91.7961C41.3032 91.6144 40.0065 87.2961 40.0065 83.0978H41.0065C41.0065 87.0461 42.2332 91.2244 42.3115 91.4911C43.0032 93.3661 42.9782 94.8028 42.2532 95.7611C41.4565 96.7828 40.1015 96.8944 39.5548 96.8944ZM57.8915 96.4228C57.8018 96.4236 57.7121 96.418 57.6232 96.4061H57.6032C57.1987 96.3387 56.8124 96.1889 56.4683 95.9658C56.1242 95.7427 55.8297 95.4512 55.6032 95.1094C54.7698 93.8211 55.0732 92.0944 55.1232 91.8444C55.4608 88.991 55.4608 86.1078 55.1232 83.2544L56.1115 83.1061C56.1365 83.2728 56.6865 87.0311 56.1115 91.9811V92.0328C56.1115 92.0461 55.7882 93.5594 56.4448 94.5678C56.599 94.7954 56.7985 94.9888 57.0307 95.136C57.263 95.2831 57.5231 95.3807 57.7948 95.4228C57.8748 95.4228 58.7082 95.5044 59.6548 94.7094C60.8215 93.7328 62.2482 91.3511 62.4765 85.5428L63.4765 85.5811C63.2798 90.5811 62.1965 93.9144 60.2532 95.5111C59.5961 96.0806 58.7609 96.4031 57.8915 96.4228Z" fill="#171718"/>
<path d="M49.1236 89.0436C50.0144 88.9981 50.7105 88.4516 50.6784 87.8228C50.6463 87.194 49.8982 86.7211 49.0074 86.7665C48.1167 86.812 47.4205 87.3585 47.4526 87.9873C47.4847 88.6161 48.2328 89.089 49.1236 89.0436Z" fill="#171718"/>
<path d="M48.6291 87.3343C48.6175 85.8343 49.0475 84.6577 49.9041 83.8343C51.2175 82.566 53.0458 82.6327 53.1241 82.636L53.0825 83.636C53.0675 83.636 51.5908 83.5927 50.5908 84.5627C49.9441 85.191 49.6208 86.1227 49.6291 87.3327L48.6291 87.3343Z" fill="#171718"/>
<path d="M48.4433 87.3877C48.3283 86.1794 47.9083 85.2827 47.1966 84.7211C46.0949 83.8561 44.6483 84.0544 44.6333 84.0544L44.4883 83.0644C44.5649 83.0527 46.3766 82.8027 47.8133 83.9294C48.7499 84.6644 49.2966 85.7927 49.4383 87.2861L48.4433 87.3877Z" fill="#171718"/>
<path d="M28.6887 74.5628C32.9704 74.7561 53.992 75.0994 62.892 74.6428C62.9908 74.6326 63.0907 74.643 63.1853 74.6732C63.2799 74.7035 63.3673 74.7529 63.4419 74.8185C63.5165 74.884 63.5768 74.9643 63.619 75.0542C63.6612 75.1441 63.6843 75.2418 63.687 75.3411V79.5078C63.687 79.676 63.6539 79.8426 63.5894 79.998C63.525 80.1534 63.4306 80.2946 63.3115 80.4135C63.1925 80.5323 63.0512 80.6266 62.8957 80.6908C62.7402 80.755 62.5736 80.788 62.4054 80.7878H29.2387C29.0705 80.788 28.9038 80.755 28.7484 80.6908C28.5929 80.6266 28.4516 80.5323 28.3325 80.4135C28.2135 80.2946 28.1191 80.1534 28.0546 79.998C27.9902 79.8426 27.957 79.676 27.957 79.5078V75.2661C27.957 75.1713 27.976 75.0775 28.0131 74.9902C28.0503 74.903 28.1046 74.8242 28.1729 74.7585C28.2413 74.6928 28.3222 74.6416 28.4108 74.608C28.4995 74.5743 28.594 74.5589 28.6887 74.5628Z" fill="white"/>
<path d="M62.4054 81.2895H29.2387C28.7666 81.289 28.3139 81.1014 27.9799 80.7677C27.646 80.4341 27.4579 79.9816 27.457 79.5095V75.2662C27.4573 75.1035 27.4905 74.9426 27.5545 74.7932C27.6186 74.6437 27.7122 74.5087 27.8297 74.3963C27.9473 74.2839 28.0863 74.1964 28.2385 74.1391C28.3907 74.0818 28.5529 74.0558 28.7154 74.0628C33.1754 74.2645 54.192 74.5878 62.8704 74.1428C63.0446 74.1329 63.219 74.1584 63.3831 74.2177C63.5473 74.277 63.6977 74.3689 63.8254 74.4878C63.9417 74.5974 64.0342 74.7296 64.0973 74.8764C64.1603 75.0232 64.1926 75.1814 64.192 75.3411V79.5078C64.1918 79.7421 64.1454 79.9741 64.0555 80.1905C63.9656 80.4069 63.8339 80.6035 63.6679 80.7689C63.502 80.9344 63.3051 81.0655 63.0885 81.1549C62.8718 81.2442 62.6397 81.2899 62.4054 81.2895ZM28.6554 75.0628C28.6035 75.0634 28.5537 75.083 28.5154 75.1178C28.4956 75.1371 28.4798 75.1602 28.4689 75.1857C28.458 75.2111 28.4523 75.2385 28.452 75.2662V79.5095C28.4525 79.7165 28.535 79.9149 28.6816 80.0611C28.8281 80.2074 29.0267 80.2895 29.2337 80.2895H62.4004C62.6074 80.2895 62.806 80.2074 62.9525 80.0611C63.099 79.9149 63.1816 79.7165 63.182 79.5095V75.3428C63.1827 75.3187 63.1781 75.2948 63.1686 75.2726C63.1591 75.2505 63.1449 75.2306 63.127 75.2145C63.0979 75.1887 63.0638 75.1691 63.0268 75.1571C62.9898 75.1451 62.9508 75.1408 62.912 75.1445C54.2054 75.5895 33.1304 75.2645 28.6604 75.0645H28.6504L28.6554 75.0628Z" fill="#171718"/>
<path d="M49.7247 77.3046C41.1414 77.3046 29.333 77.0279 29.1797 77.0246L29.203 76.0246C29.403 76.0246 49.318 76.4963 56.1614 76.2146L56.2014 77.2146C54.6097 77.2796 52.3097 77.3046 49.7247 77.3046ZM47.0114 79.5796C40.773 79.5796 35.3647 79.4979 35.2647 79.4963L35.2814 78.4963C35.4647 78.4963 53.6997 78.7746 61.8547 78.3063L61.913 79.3063C58.158 79.5213 52.288 79.5796 47.0114 79.5796Z" fill="#171718"/>
<path d="M44.0891 92.9664C44.8761 92.9664 45.5141 92.3284 45.5141 91.5414C45.5141 90.7544 44.8761 90.1164 44.0891 90.1164C43.3021 90.1164 42.6641 90.7544 42.6641 91.5414C42.6641 92.3284 43.3021 92.9664 44.0891 92.9664Z" fill="#171718"/>
<path d="M53.7102 92.9664C54.4972 92.9664 55.1352 92.3284 55.1352 91.5414C55.1352 90.7544 54.4972 90.1164 53.7102 90.1164C52.9232 90.1164 52.2852 90.7544 52.2852 91.5414C52.2852 92.3284 52.9232 92.9664 53.7102 92.9664Z" fill="#171718"/>
<path d="M38.027 109.693C38.3418 109.693 38.597 109.438 38.597 109.123C38.597 108.808 38.3418 108.553 38.027 108.553C37.7122 108.553 37.457 108.808 37.457 109.123C37.457 109.438 37.7122 109.693 38.027 109.693Z" fill="#171718"/>
<path d="M36.4136 107.601C36.8858 107.601 37.2686 107.219 37.2686 106.746C37.2686 106.274 36.8858 105.891 36.4136 105.891C35.9414 105.891 35.5586 106.274 35.5586 106.746C35.5586 107.219 35.9414 107.601 36.4136 107.601Z" fill="#171718"/>
<path d="M22.6214 107.199L22.1797 106.303L23.7114 105.551C24.0894 105.364 24.5115 105.284 24.9317 105.32C25.3519 105.357 25.7541 105.507 26.0947 105.756L26.2314 105.856C26.456 106.02 26.7268 106.108 27.0047 106.108C27.2826 106.108 27.5534 106.02 27.778 105.856C28.1611 105.579 28.6198 105.425 29.0928 105.415C29.5657 105.405 30.0304 105.54 30.4247 105.801L30.6864 105.968C30.8956 106.107 31.1403 106.184 31.3916 106.188C31.643 106.193 31.8904 106.126 32.1047 105.994L33.5864 105.083L34.1097 105.934L32.6297 106.846C32.2521 107.078 31.8161 107.197 31.3731 107.189C30.9302 107.181 30.4987 107.046 30.1297 106.801L29.8697 106.634C29.6458 106.487 29.3826 106.411 29.1148 106.417C28.8469 106.423 28.5871 106.51 28.3697 106.666C27.9742 106.954 27.4974 107.11 27.008 107.11C26.5186 107.11 26.0418 106.954 25.6464 106.666L25.5097 106.566C25.3161 106.425 25.0874 106.339 24.8485 106.318C24.6096 106.298 24.3696 106.343 24.1547 106.449L22.6214 107.199ZM60.0647 107.574L59.6247 106.678L61.1547 105.926C61.5328 105.739 61.9548 105.66 62.375 105.696C62.7951 105.732 63.1973 105.883 63.538 106.131L63.6764 106.231C63.9008 106.395 64.1716 106.484 64.4497 106.484C64.7277 106.484 64.9986 106.395 65.223 106.231C65.6061 105.954 66.0648 105.8 66.5378 105.79C67.0107 105.78 67.4754 105.915 67.8697 106.176L68.1297 106.343C68.3395 106.482 68.5845 106.558 68.836 106.562C69.0876 106.567 69.3352 106.499 69.5497 106.368L71.0297 105.456L71.5547 106.308L70.0747 107.219C69.6972 107.451 69.2611 107.57 68.8181 107.562C68.3751 107.555 67.9436 107.42 67.5747 107.174L67.313 107.008C67.0895 106.86 66.8263 106.784 66.5583 106.789C66.2904 106.794 66.0304 106.881 65.813 107.038C65.4179 107.327 64.941 107.483 64.4514 107.483C63.9617 107.483 63.4848 107.327 63.0897 107.038L62.9514 106.938C62.7579 106.797 62.5295 106.711 62.291 106.691C62.0524 106.67 61.8128 106.715 61.598 106.821L60.0647 107.574Z" fill="#171718"/>
<path d="M12.2003 74.4612L10.4286 74.0745L10.0253 72.3062C10.0184 72.2759 10.0015 72.2488 9.9773 72.2295C9.95307 72.2101 9.92296 72.1995 9.89193 72.1995C9.86076 72.1997 9.83056 72.2103 9.80611 72.2297C9.78165 72.249 9.76435 72.2759 9.75693 72.3062L9.35359 74.0828L7.58193 74.5028C7.55138 74.5103 7.52424 74.5279 7.50489 74.5527C7.48554 74.5775 7.47511 74.6081 7.47526 74.6395C7.47542 74.6706 7.48628 74.7006 7.50601 74.7246C7.52575 74.7486 7.55315 74.765 7.58359 74.7712L9.35526 75.1578L9.75693 76.9262C9.76435 76.9564 9.78165 76.9834 9.80611 77.0027C9.83056 77.022 9.86076 77.0326 9.89193 77.0328C9.92296 77.0328 9.95307 77.0223 9.9773 77.0029C10.0015 76.9835 10.0184 76.9564 10.0253 76.9262L10.4303 75.1495L12.2019 74.7295C12.2331 74.7235 12.2612 74.7068 12.2813 74.6823C12.3015 74.6578 12.3126 74.6271 12.3126 74.5953C12.3126 74.5636 12.3015 74.5329 12.2813 74.5084C12.2612 74.4839 12.2331 74.4672 12.2019 74.4612H12.2003ZM80.0336 45.7945L78.2619 45.4078L77.8586 43.6395C77.8518 43.6092 77.8349 43.5822 77.8106 43.5628C77.7864 43.5434 77.7563 43.5328 77.7253 43.5328C77.6941 43.5331 77.6639 43.5437 77.6395 43.563C77.615 43.5823 77.5977 43.6092 77.5903 43.6395L77.1869 45.4162L75.4153 45.8362C75.3847 45.8437 75.3576 45.8612 75.3382 45.886C75.3189 45.9108 75.3084 45.9414 75.3086 45.9728C75.3088 46.0039 75.3196 46.034 75.3393 46.0579C75.3591 46.0819 75.3865 46.0984 75.4169 46.1045L77.1886 46.4912L77.5903 48.2595C77.5977 48.2898 77.615 48.3167 77.6395 48.336C77.6639 48.3553 77.6941 48.366 77.7253 48.3662C77.7563 48.3662 77.7864 48.3556 77.8106 48.3362C77.8349 48.3168 77.8518 48.2898 77.8586 48.2595L78.2636 46.4828L80.0353 46.0628C80.0664 46.0568 80.0945 46.0401 80.1147 46.0156C80.1349 45.9911 80.1459 45.9604 80.1459 45.9287C80.1459 45.8969 80.1349 45.8662 80.1147 45.8417C80.0945 45.8172 80.0664 45.8005 80.0353 45.7945H80.0336ZM3.25193 67.3662L2.33526 67.1662L2.1286 66.2512C2.12509 66.2352 2.11624 66.2209 2.10351 66.2107C2.09078 66.2005 2.07493 66.1949 2.05859 66.1949C2.04226 66.1949 2.02641 66.2005 2.01368 66.2107C2.00095 66.2209 1.9921 66.2352 1.98859 66.2512L1.78026 67.1712L0.863592 67.3878C0.847875 67.3916 0.833893 67.4006 0.823909 67.4133C0.813925 67.426 0.808527 67.4417 0.808594 67.4578C0.808683 67.474 0.814381 67.4897 0.824713 67.5021C0.835044 67.5146 0.849371 67.5231 0.86526 67.5262L1.78193 67.7262L1.98859 68.6412C1.9921 68.6571 2.00095 68.6714 2.01368 68.6817C2.02641 68.6919 2.04226 68.6975 2.05859 68.6975C2.07493 68.6975 2.09078 68.6919 2.10351 68.6817C2.11624 68.6714 2.12509 68.6571 2.1286 68.6412L2.33693 67.7212L3.2536 67.5045C3.26917 67.5005 3.283 67.4915 3.29293 67.4788C3.30287 67.4662 3.30837 67.4506 3.30859 67.4345C3.30851 67.4183 3.30281 67.4027 3.29248 67.3902C3.28214 67.3778 3.26782 67.3693 3.25193 67.3662Z" fill="#171718"/>
<path d="M46.0046 114.856C46.0046 114.856 45.6579 116.816 46.6996 118.306C46.6996 118.306 49.5163 117.695 48.2296 114.428L46.0046 114.856Z" fill="#171718"/>
<path d="M47.3088 114.775C47.3088 114.775 47.2272 119.368 50.1872 121.288C50.1872 121.288 51.9838 117.326 48.7372 114.428L47.3088 114.775Z" fill="#E0F2FE"/>
<path d="M50.4053 122.023L49.9186 121.706C46.762 119.66 46.8086 114.965 46.8086 114.766V114.38L48.8686 113.88L49.0636 114.046C52.5436 117.155 50.6553 121.443 50.6353 121.485L50.4053 122.023ZM47.8236 115.165C47.8786 116.165 48.1903 118.92 49.947 120.475C50.2653 119.365 50.6253 116.946 48.597 114.975L47.8236 115.165Z" fill="#171718"/>
<path d="M51.5281 112.453C51.5281 112.453 54.3515 109.119 58.6948 109.119C58.6948 109.119 59.6181 111.518 55.4748 113.743C55.4748 113.743 56.9848 116.743 56.5765 119.173C56.5765 119.173 53.4098 118.461 51.4531 114.189L51.5281 112.453Z" fill="#E0F2FE"/>
<path d="M56.9848 119.78L56.4698 119.663C56.3315 119.631 53.0381 118.846 51.0031 114.4L50.9531 114.29L51.0365 112.261L51.1481 112.13C51.2698 111.986 54.1731 108.63 58.6981 108.63H59.0415L59.1648 108.95C59.2081 109.06 60.1331 111.616 56.1248 113.961C56.5381 114.913 57.4131 117.241 57.0731 119.265L56.9848 119.78ZM51.9615 114.091C53.3115 116.966 55.2215 118.091 56.1465 118.495C56.2248 116.378 55.0431 113.995 55.0315 113.97L54.8081 113.533L55.2365 113.303C58.0531 111.79 58.3215 110.281 58.2831 109.636C54.8981 109.803 52.5415 112.101 52.0165 112.658L51.9615 114.091Z" fill="#171718"/>
<path d="M45.125 107.446C45.125 107.446 47.43 103.843 51.495 106.28C51.5971 106.341 51.6814 106.428 51.7396 106.532C51.7977 106.637 51.8278 106.754 51.8268 106.873C51.8258 106.992 51.7937 107.109 51.7338 107.212C51.6739 107.316 51.5881 107.401 51.485 107.461C50.8183 107.848 50.0917 108.683 49.8617 110.48L45.125 107.446Z" fill="#E0F2FE"/>
<path d="M50.2608 111.336L44.4375 107.596L44.7075 107.176C44.7325 107.136 47.3258 103.194 51.7542 105.859C51.931 105.966 52.0772 106.116 52.1782 106.296C52.2791 106.475 52.3314 106.678 52.3299 106.885C52.3284 107.091 52.2731 107.293 52.1695 107.471C52.0659 107.65 51.9176 107.798 51.7392 107.901C51.0042 108.331 50.5275 109.248 50.3608 110.551L50.2608 111.336ZM45.8558 107.319L49.5058 109.663C49.8658 108.138 50.6225 107.396 51.2342 107.038C51.2638 107.022 51.2884 106.997 51.3052 106.968C51.322 106.938 51.3303 106.905 51.3292 106.871C51.3309 106.838 51.3235 106.805 51.3076 106.775C51.2917 106.746 51.268 106.721 51.2392 106.705C48.3958 105.006 46.5508 106.533 45.8558 107.319Z" fill="#171718"/>
<path d="M39.3611 110.315C39.2895 111.1 41.4128 116.571 47.5061 115.356C47.9628 115.266 48.2961 115.013 49.1611 114.643C49.6928 114.415 50.9561 114.418 51.4461 114.418C51.7175 114.084 51.9068 113.691 51.9989 113.271C52.0909 112.851 52.0831 112.415 51.9761 111.998C50.9473 111.295 50.0923 110.366 49.4761 109.283C49.4761 109.283 47.0995 105.616 43.0878 107.711C41.1278 108.731 39.4478 109.366 39.3611 110.315Z" fill="#E0F2FE"/>
<path d="M45.808 116.033C44.0718 116.059 42.3899 115.428 41.0997 114.266C39.5163 112.843 38.798 110.908 38.8547 110.266C38.9513 109.213 40.1547 108.613 41.8197 107.784C42.153 107.618 42.4863 107.451 42.848 107.264C47.213 104.991 49.8613 108.966 49.888 109.008L49.9013 109.029C50.4741 110.04 51.2671 110.908 52.2213 111.569L52.3997 111.678L52.4463 111.881C52.5741 112.377 52.5829 112.897 52.4719 113.397C52.361 113.897 52.1335 114.364 51.808 114.759L51.6597 114.918H51.4197C50.333 114.918 49.638 114.979 49.353 115.101C49.0197 115.243 48.778 115.364 48.5613 115.471C48.2598 115.64 47.9361 115.767 47.5997 115.846C47.0101 115.968 46.4099 116.03 45.808 116.033ZM39.8513 110.366C39.8513 110.639 40.3597 112.346 41.9147 113.658C43.383 114.899 45.2297 115.309 47.4013 114.876C47.6503 114.811 47.8896 114.714 48.113 114.586C48.3297 114.478 48.5997 114.344 48.9463 114.193C49.4463 113.978 50.3347 113.934 51.1813 113.928C51.4862 113.447 51.6003 112.869 51.5013 112.308C50.4973 111.571 49.6573 110.634 49.0347 109.556C48.8847 109.333 46.7947 106.344 43.3013 108.164C42.9413 108.353 42.5897 108.528 42.2563 108.693C41.0563 109.288 39.908 109.866 39.858 110.356L39.8513 110.366Z" fill="#171718"/>
<path d="M42.3519 110.604C42.7274 110.604 43.0319 110.3 43.0319 109.924C43.0319 109.549 42.7274 109.244 42.3519 109.244C41.9763 109.244 41.6719 109.549 41.6719 109.924C41.6719 110.3 41.9763 110.604 42.3519 110.604Z" fill="#171718"/>
<path d="M94.2874 56.0861C91.4082 55.5651 88.4396 55.8913 85.7422 57.025C83.0448 58.1588 80.7346 60.0513 79.0921 62.4728C77.4497 64.8943 76.5456 67.7406 76.4898 70.6661C76.4339 73.5915 77.2286 76.4703 78.7774 78.9527L75.1641 85.4644L82.5207 83.0327C84.344 84.4028 86.4537 85.3424 88.6917 85.781C90.9297 86.2196 93.238 86.146 95.4436 85.5655C97.6491 84.9851 99.6946 83.9129 101.427 82.4294C103.159 80.9459 104.533 79.0895 105.445 76.9995C106.358 74.9094 106.786 72.6399 106.696 70.361C106.607 68.0821 106.003 65.853 104.929 63.8409C103.856 61.8287 102.341 60.0856 100.498 58.7423C98.6548 57.399 96.5316 56.4903 94.2874 56.0844V56.0861Z" fill="white"/>
<path d="M74.1055 86.3394L78.1988 78.9644C76.2169 75.6467 75.5369 71.7115 76.2908 67.9211C77.0446 64.1307 79.1785 60.7551 82.279 58.4482C85.3796 56.1413 89.226 55.0674 93.0731 55.4345C96.9203 55.8017 100.494 57.5837 103.102 60.4355C105.711 63.2872 107.168 67.0055 107.191 70.87C107.214 74.7345 105.802 78.4702 103.228 81.3531C100.655 84.236 97.1025 86.061 93.2601 86.4744C89.4177 86.8879 85.5586 85.8604 82.4305 83.591L74.1055 86.3394ZM94.1988 56.5777C91.4148 56.074 88.5444 56.3893 85.9361 57.4854C83.3279 58.5816 81.094 60.4114 79.5056 62.7526C77.9172 65.0939 77.0427 67.846 76.9882 70.6747C76.9338 73.5034 77.7017 76.287 79.1988 78.6877L79.3555 78.9377L76.2205 84.5877L82.6105 82.4777L82.8188 82.6344C84.6364 84.0078 86.7528 84.9324 88.9955 85.3327C92.7895 85.9776 96.6847 85.0997 99.8353 82.8896C102.986 80.6794 105.137 77.3156 105.822 73.5286C106.507 69.7417 105.671 65.8373 103.494 62.6635C101.317 59.4898 97.9767 57.3029 94.1971 56.5777H94.1988Z" fill="#171718"/>
<path d="M98.8056 76.9112C95.5006 74.0429 92.004 73.1662 88.4123 74.3062C86.7649 74.8389 85.2508 75.7187 83.9723 76.8862L83.2656 76.1796C84.654 74.8922 86.3079 73.925 88.1106 73.3462C90.824 72.4862 94.9973 72.2729 99.464 76.1479L98.8056 76.9112ZM86.389 69.6996C85.9769 69.6996 85.5741 69.5774 85.2315 69.3485C84.8889 69.1195 84.6219 68.7942 84.4642 68.4135C84.3065 68.0328 84.2653 67.6139 84.3457 67.2098C84.426 66.8057 84.6245 66.4345 84.9158 66.1431C85.2072 65.8517 85.5784 65.6533 85.9825 65.5729C86.3867 65.4925 86.8055 65.5338 87.1862 65.6915C87.5669 65.8492 87.8923 66.1162 88.1212 66.4588C88.3501 66.8014 88.4723 67.2042 88.4723 67.6162C88.4714 68.1685 88.2516 68.6979 87.8611 69.0884C87.4706 69.4789 86.9412 69.6987 86.389 69.6996ZM86.389 66.5329C86.1747 66.5329 85.9652 66.5964 85.7871 66.7155C85.6089 66.8345 85.4701 67.0037 85.3881 67.2017C85.3061 67.3996 85.2846 67.6174 85.3264 67.8276C85.3682 68.0377 85.4714 68.2308 85.6229 68.3823C85.7744 68.5338 85.9675 68.637 86.1776 68.6788C86.3878 68.7206 86.6056 68.6991 86.8035 68.6171C87.0015 68.5351 87.1707 68.3963 87.2897 68.2181C87.4088 68.0399 87.4723 67.8305 87.4723 67.6162C87.4718 67.3291 87.3576 67.0538 87.1545 66.8507C86.9514 66.6476 86.6761 66.5333 86.389 66.5329ZM95.889 69.6996C95.4769 69.6996 95.0741 69.5774 94.7315 69.3485C94.3889 69.1195 94.1219 68.7942 93.9642 68.4135C93.8065 68.0328 93.7653 67.6139 93.8457 67.2098C93.926 66.8057 94.1245 66.4345 94.4158 66.1431C94.7072 65.8517 95.0784 65.6533 95.4825 65.5729C95.8867 65.4925 96.3055 65.5338 96.6862 65.6915C97.0669 65.8492 97.3923 66.1162 97.6212 66.4588C97.8501 66.8014 97.9723 67.2042 97.9723 67.6162C97.9714 68.1685 97.7516 68.6979 97.3611 69.0884C96.9706 69.4789 96.4412 69.6987 95.889 69.6996ZM95.889 66.5329C95.6747 66.5329 95.4652 66.5964 95.2871 66.7155C95.1089 66.8345 94.9701 67.0037 94.8881 67.2017C94.8061 67.3996 94.7846 67.6174 94.8264 67.8276C94.8682 68.0377 94.9714 68.2308 95.1229 68.3823C95.2744 68.5338 95.4675 68.637 95.6776 68.6788C95.8878 68.7206 96.1056 68.6991 96.3035 68.6171C96.5015 68.5351 96.6707 68.3963 96.7897 68.2181C96.9088 68.0399 96.9723 67.8305 96.9723 67.6162C96.9718 67.3291 96.8576 67.0538 96.6545 66.8507C96.4514 66.6476 96.1761 66.5333 95.889 66.5329Z" fill="#171718"/>
</svg>
