<svg width="110" height="124" viewBox="0 0 110 124" fill="none" xmlns="http://www.w3.org/2000/svg">
<path d="M71.944 115.419C71.944 119.453 63.3056 122.721 52.649 122.721C42.3306 122.721 33.904 119.656 33.379 115.803C33.3039 115.565 33.2657 115.317 33.2656 115.068V87.2611C33.2656 82.1335 35.3025 77.216 38.9282 73.5903C42.5539 69.9646 47.4714 67.9277 52.599 67.9277C57.7265 67.9277 62.644 69.9646 66.2697 73.5903C69.8954 77.216 71.9323 82.1335 71.9323 87.2611V115.086C71.9428 115.197 71.9467 115.308 71.944 115.419Z" fill="white"/>
<path d="M52.6529 123.221C41.9862 123.221 33.5145 120.081 32.8929 115.911C32.8113 115.637 32.7697 115.353 32.7695 115.068V87.2611C32.7695 82.001 34.8591 76.9563 38.5786 73.2368C42.298 69.5174 47.3427 67.4278 52.6029 67.4278C57.863 67.4278 62.9077 69.5174 66.6271 73.2368C70.3466 76.9563 72.4362 82.001 72.4362 87.2611V115.073C72.4481 115.188 72.4542 115.304 72.4545 115.419C72.4445 119.794 63.7495 123.221 52.6529 123.221ZM52.5995 68.4295C50.1258 68.4277 47.676 68.9137 45.3902 69.8595C43.1045 70.8053 41.0276 72.1925 39.2784 73.9417C37.5293 75.6909 36.1421 77.7678 35.1962 80.0535C34.2504 82.3393 33.7644 84.7891 33.7662 87.2628V115.068C33.767 115.266 33.7973 115.463 33.8562 115.653L33.8745 115.734C34.3629 119.311 42.7845 122.221 52.6529 122.221C62.8412 122.221 71.4479 119.106 71.4479 115.419C71.448 115.329 71.4424 115.238 71.4312 115.148V87.2611C71.4312 82.2662 69.447 77.4759 65.915 73.9439C62.3831 70.412 57.5928 68.4278 52.5979 68.4278L52.5995 68.4295ZM72.4329 115.141V115.149C72.4329 115.149 72.4212 115.144 72.4212 115.141H72.4329Z" fill="#171718"/>
<path d="M39.9453 88.6079H64.122V105.818H39.9453V88.6079Z" fill="white"/>
<path d="M64.6236 106.318H39.4453V88.1079H64.6236V106.318ZM40.4453 105.318H63.6236V89.1079H40.4453V105.318Z" fill="#171718"/>
<path d="M4.23438 29.4165L7.32194 28.9131L10.3428 47.4418L7.25528 47.9452L4.23438 29.4165Z" fill="white"/>
<path d="M6.84349 48.5178L3.66016 29.0011L7.73683 28.3345L10.9185 47.8511L6.84349 48.5178ZM4.80849 29.8278L7.66849 47.3695L9.77016 47.0361L6.91016 29.4845L4.80849 29.8278Z" fill="#171718"/>
<path d="M5.09375 44.4224L11.4416 43.3874L13.092 53.5104L6.7442 54.5454L5.09375 44.4224Z" fill="white"/>
<path d="M6.33344 55.118L4.52344 44.008L11.8568 42.813L13.6684 53.9213L6.33344 55.118ZM5.66677 44.8347L7.15677 53.9697L12.5184 53.0963L11.0284 43.9597L5.66677 44.8347Z" fill="#171718"/>
<path d="M8.87109 38.9624L16.4198 37.7317L19.4967 56.6041L11.9481 57.8349L8.87109 38.9624Z" fill="#171718"/>
<path d="M79.2109 17.1934L82.2985 16.69L85.3194 35.2187L82.2318 35.722L79.2109 17.1934Z" fill="white"/>
<path d="M81.8184 36.291L78.6367 16.776L82.7117 16.1094L85.8934 35.626L81.8184 36.291ZM79.7834 17.601L82.6517 35.1444L84.7534 34.801L81.8851 17.2594L79.7834 17.601Z" fill="#171718"/>
<path d="M79.8984 32.2275L86.2463 31.1926L87.8967 41.3156L81.5489 42.3505L79.8984 32.2275Z" fill="white"/>
<path d="M81.1398 42.9194L79.3281 31.8094L86.6615 30.6144L88.4748 41.7211L81.1398 42.9194ZM80.4731 32.6361L81.9631 41.7711L87.3198 40.8978L85.8298 31.7628L80.4731 32.6361Z" fill="#171718"/>
<path d="M73.6836 28.7563L81.2554 27.5326L84.3149 46.4631L76.7431 47.6868L73.6836 28.7563Z" fill="#171718"/>
<path d="M33.4727 16.9883L51.4881 14.0511L52.5791 20.7428L34.5637 23.68L33.4727 16.9883Z" fill="#171718"/>
<path d="M44.4648 17.8978C44.4015 17.6011 42.9565 10.5928 45.7748 7.27279C46.4617 6.45589 47.4085 5.89984 48.4565 5.69779C48.9565 4.64779 50.0165 3.51113 52.0648 2.4928C53.5319 1.76672 55.2178 1.61687 56.7898 2.07279C56.9415 1.95779 57.1015 1.84113 57.2748 1.72446L57.3232 1.69613C57.3798 1.66613 63.1065 -1.26221 66.7715 3.50446L65.9882 4.11446C64.6665 2.39613 62.8932 1.61446 60.7198 1.78113C59.7599 1.86483 58.8208 2.10876 57.9415 2.5028C58.1587 2.6103 58.3691 2.73108 58.5715 2.86446C59.6682 3.59446 60.2615 4.54613 60.2015 5.47613C60.1649 6.05446 59.8549 6.87446 58.5865 7.49946C57.5365 8.0178 55.9032 7.40279 55.2248 6.23613C54.9098 5.69279 54.4698 4.42946 55.8915 2.88946C54.7399 2.69681 53.5569 2.87115 52.5098 3.38779C51.2148 4.03113 50.2648 4.77446 49.6882 5.57613H50.0615C51.4315 5.64113 54.0532 7.4978 54.3215 9.28613C54.4115 9.88613 54.3065 10.9811 52.5865 11.5995C51.1632 12.1095 49.1515 10.8961 48.3665 9.05113C48.071 8.3485 47.978 7.57718 48.0982 6.82446C47.4898 7.04045 46.9505 7.41572 46.5365 7.91113C44.0365 10.8611 45.4282 17.6128 45.4432 17.6811L44.4648 17.8978ZM49.1632 6.60113C48.9511 7.28203 48.995 8.01694 49.2865 8.66779C49.8948 10.0978 51.4248 10.9611 52.2482 10.6678C53.4515 10.2361 53.3632 9.64113 53.3332 9.44613C53.1448 8.19113 50.9998 6.63113 50.0165 6.58613C49.7321 6.57166 49.4469 6.57667 49.1632 6.60113ZM56.9965 3.19613C55.9832 4.10113 55.6465 5.00279 56.0765 5.74113C56.5065 6.47946 57.6048 6.87113 58.1315 6.61113C58.5948 6.38279 59.1532 5.99113 59.1898 5.41946C59.2265 4.8728 58.7715 4.21613 58.0032 3.70613C57.6899 3.49833 57.3538 3.32721 57.0015 3.19613H56.9965ZM40.4148 19.2428C40.2808 17.2654 39.7717 15.3316 38.9148 13.5445C37.0332 9.65113 33.8115 7.26113 29.3398 6.44113L29.5198 5.4578C35.5198 6.5578 38.4398 10.2445 39.8315 13.1445C40.7479 15.0483 41.2851 17.1122 41.4132 19.2211L40.4148 19.2428ZM66.3415 73.6678L35.0998 79.0395C36.4237 76.2232 38.4078 73.7681 40.8835 71.8827C43.3593 69.9974 46.2536 68.7375 49.3205 68.2102C52.3874 67.6829 55.5363 67.9037 58.4996 68.8538C61.4629 69.804 64.1531 71.4554 66.3415 73.6678Z" fill="#171718"/>
<path d="M69.0402 15.24L16.3493 23.8307C13.6538 24.2702 11.825 26.8116 12.2645 29.507L19.1766 71.9023C19.616 74.5977 22.1574 76.4265 24.8528 75.9871L77.5438 67.3964C80.2393 66.9569 82.0681 64.4156 81.6286 61.7201L74.7165 19.3249C74.2771 16.6294 71.7357 14.8006 69.0402 15.24Z" fill="white"/>
<path d="M24.0458 76.5544C22.7554 76.5515 21.5078 76.0905 20.5256 75.2536C19.5434 74.4166 18.8902 73.2581 18.6825 71.9844L11.7691 29.5861C11.5387 28.1606 11.883 26.7019 12.7266 25.5299C13.5702 24.3579 14.8442 23.5684 16.2691 23.3344L68.9575 14.7428C70.383 14.5123 71.8417 14.8566 73.0137 15.7002C74.1857 16.5438 74.9752 17.8178 75.2091 19.2428L82.1225 61.6378C82.353 63.0633 82.0086 64.522 81.165 65.694C80.3214 66.866 79.0474 67.6555 77.6225 67.8894L24.9325 76.4794C24.6394 76.5284 24.3429 76.5535 24.0458 76.5544ZM69.8358 15.6711C69.5952 15.6716 69.355 15.6911 69.1175 15.7294L16.4275 24.3211C15.2655 24.5137 14.2272 25.1588 13.54 26.1154C12.8527 27.0719 12.5726 28.2618 12.7608 29.4244L19.6741 71.8195C19.865 72.9822 20.5098 74.0216 21.4668 74.7092C22.4238 75.3967 23.6146 75.6762 24.7775 75.4861L77.4658 66.8944C78.6282 66.7027 79.667 66.0577 80.3544 65.101C81.0418 64.1443 81.3217 62.9539 81.1325 61.7911L74.2208 19.4028C74.0496 18.3625 73.5151 17.4166 72.7122 16.7333C71.9093 16.0501 70.8901 15.6737 69.8358 15.6711Z" fill="#171718"/>
<path d="M17.0438 23.7212L25.5438 75.8879L24.8488 76.0012C23.5541 76.2118 22.2287 75.8997 21.1642 75.1333C20.0997 74.3669 19.3831 73.2091 19.1721 71.9145L12.2638 29.5062C12.0526 28.2115 12.3643 26.886 13.1304 25.8211C13.8964 24.7562 15.0541 24.0393 16.3488 23.8279L17.0438 23.7212Z" fill="white"/>
<path d="M24.0458 76.5544C22.7554 76.5515 21.5078 76.0905 20.5256 75.2536C19.5434 74.4166 18.8902 73.2581 18.6825 71.9844L11.7691 29.5861C11.5387 28.1606 11.883 26.7019 12.7266 25.5299C13.5702 24.3579 14.8442 23.5684 16.2691 23.3344L17.4575 23.1411L26.1241 76.2844L24.9358 76.4794C24.6417 76.5285 24.344 76.5536 24.0458 76.5544ZM16.6291 24.2928L16.4275 24.3244C15.2655 24.517 14.2272 25.1622 13.54 26.1187C12.8527 27.0752 12.5726 28.2651 12.7608 29.4278L19.6741 71.8228C19.865 72.9856 20.5098 74.025 21.4668 74.7125C22.4238 75.4001 23.6146 75.6795 24.7775 75.4894L24.9791 75.4578L16.6291 24.2928Z" fill="#171718"/>
<path d="M74.7143 19.3211L81.6277 61.7211C81.8354 63.0142 81.5219 64.3369 80.7558 65.3992C79.9897 66.4615 78.8336 67.1766 77.541 67.3877L76.8477 67.5011L68.3477 15.3444L69.0427 15.2311C70.337 15.0224 71.6612 15.3359 72.7246 16.1027C73.788 16.8696 74.5036 18.0271 74.7143 19.3211Z" fill="white"/>
<path d="M76.4362 68.0809L67.7695 14.9359L68.9579 14.7425C70.3834 14.5116 71.8424 14.8558 73.0145 15.6994C74.1866 16.5431 74.976 17.8174 75.2095 19.2425L82.1229 61.6375C82.3533 63.063 82.009 64.5218 81.1654 65.6937C80.3218 66.8657 79.0478 67.6553 77.6229 67.8892L76.4362 68.0809ZM68.9179 15.7625L77.2612 66.9292L77.4629 66.8959C78.6252 66.7041 79.6641 66.0592 80.3515 65.1024C81.0389 64.1457 81.3187 62.9553 81.1295 61.7925L74.2229 19.4025C74.0307 18.2404 73.3856 17.2018 72.429 16.5145C71.4724 15.8271 70.2823 15.5471 69.1195 15.7359L68.9179 15.7625Z" fill="#171718"/>
<path d="M15.2369 31.2146C15.9567 31.2146 16.5403 30.6311 16.5403 29.9112C16.5403 29.1914 15.9567 28.6079 15.2369 28.6079C14.5171 28.6079 13.9336 29.1914 13.9336 29.9112C13.9336 30.6311 14.5171 31.2146 15.2369 31.2146Z" fill="#171718"/>
<path d="M72.026 21.9529C72.7458 21.9529 73.3293 21.3693 73.3293 20.6495C73.3293 19.9297 72.7458 19.3462 72.026 19.3462C71.3062 19.3462 70.7227 19.9297 70.7227 20.6495C70.7227 21.3693 71.3062 21.9529 72.026 21.9529Z" fill="#171718"/>
<path d="M21.8932 72.0476C22.613 72.0476 23.1965 71.4641 23.1965 70.7443C23.1965 70.0244 22.613 69.4409 21.8932 69.4409C21.1734 69.4409 20.5898 70.0244 20.5898 70.7443C20.5898 71.4641 21.1734 72.0476 21.8932 72.0476Z" fill="#171718"/>
<path d="M78.6861 62.7859C79.406 62.7859 79.9895 62.2023 79.9895 61.4825C79.9895 60.7627 79.406 60.1792 78.6861 60.1792C77.9663 60.1792 77.3828 60.7627 77.3828 61.4825C77.3828 62.2023 77.9663 62.7859 78.6861 62.7859Z" fill="#171718"/>
<path d="M37.1544 34.2914L34.0194 32.103L30.2194 37.5447L24.8877 33.5914L22.6094 36.663L28.0294 40.6814L24.1677 46.2147L27.3027 48.403L31.1027 42.9614L36.4344 46.9147L38.7127 43.843L33.2927 39.823L37.1544 34.2914Z" fill="white"/>
<path d="M27.4268 49.0995L23.4702 46.3378L27.3402 40.7945L21.9102 36.7662L24.7835 32.8878L30.1035 36.8328L33.8952 31.4028L37.8502 34.1645L33.9852 39.7112L39.4168 43.7378L36.5435 47.6128L31.2218 43.6678L27.4268 49.0995ZM24.8635 46.0895L27.1785 47.7078L30.9852 42.2528L36.3302 46.2212L38.0118 43.9528L32.6035 39.9428L36.4585 34.4212L34.1418 32.8045L30.3335 38.2595L24.9852 34.2912L23.3085 36.5545L28.7168 40.5645L24.8635 46.0895Z" fill="#171718"/>
<path d="M69.0799 38.8894L63.6599 34.8711L67.5216 29.3394L64.3866 27.1494L60.5866 32.5927L55.2549 28.6394L52.9766 31.7111L58.3966 35.7294L54.5332 41.2627L57.6699 43.4511L61.4699 38.0094L66.8016 41.9627L69.0799 38.8894Z" fill="white"/>
<path d="M57.794 44.1475L53.839 41.3875L57.709 35.8442L52.2773 31.8159L55.1523 27.9392L60.4723 31.8875L64.2623 26.4575L68.219 29.2209L64.349 34.7642L69.779 38.7909L66.9057 42.6659L61.5857 38.7208L57.794 44.1475ZM55.2307 41.1375L57.5473 42.7542L61.354 37.3009L66.6973 41.2625L68.3807 38.9942L62.9723 34.9842L66.819 29.4625L64.504 27.8459L60.7023 33.3009L55.359 29.3375L53.6773 31.6075L59.0857 35.6175L55.2307 41.1375Z" fill="#171718"/>
<path d="M28.3516 60.0884L69.5279 53.375L69.7516 54.7469L28.5752 61.4603L28.3516 60.0884Z" fill="#171718"/>
<path d="M80.3815 19.1326C83.1659 19.1326 85.4232 16.8754 85.4232 14.091C85.4232 11.3065 83.1659 9.04932 80.3815 9.04932C77.5971 9.04932 75.3398 11.3065 75.3398 14.091C75.3398 16.8754 77.5971 19.1326 80.3815 19.1326Z" fill="#171718"/>
<path d="M55.4709 61.1597L54.7109 56.4931L65.2909 54.7681L66.0509 59.4347C66.2794 60.8377 65.9412 62.274 65.1107 63.4276C64.2803 64.5813 63.0256 65.3578 61.6226 65.5864C60.928 65.7 60.2178 65.6756 59.5326 65.5145C58.8474 65.3535 58.2007 65.059 57.6294 64.6479C57.0581 64.2368 56.5734 63.7171 56.2031 63.1186C55.8327 62.5201 55.5839 61.8544 55.4709 61.1597Z" fill="#E0F2FE"/>
<path d="M60.7495 66.158C59.361 66.1541 58.0188 65.6577 56.9619 64.7571C55.9051 63.8565 55.202 62.6101 54.9779 61.2397L54.1445 56.0847L65.7112 54.1997L66.5529 59.353C66.8025 60.887 66.4327 62.4574 65.5248 63.7188C64.6168 64.9802 63.2451 65.8294 61.7112 66.0797C61.3933 66.1317 61.0717 66.1579 60.7495 66.158ZM55.9662 61.078C56.0688 61.7078 56.2945 62.3113 56.6304 62.8538C56.9662 63.3964 57.4057 63.8675 57.9236 64.2403C58.4415 64.613 59.0278 64.8801 59.6489 65.0263C60.2701 65.1725 60.9139 65.1949 61.5437 65.0922C62.1735 64.9896 62.7769 64.7639 63.3195 64.428C63.8621 64.0922 64.3332 63.6527 64.7059 63.1348C65.0787 62.6169 65.3458 62.0306 65.4919 61.4095C65.6381 60.7884 65.6605 60.1445 65.5579 59.5147L64.8795 55.348L55.2862 56.913L55.9662 61.078Z" fill="#171718"/>
<path d="M5.23307 31.3875C8.01751 31.3875 10.2747 29.1303 10.2747 26.3459C10.2747 23.5614 8.01751 21.3042 5.23307 21.3042C2.44864 21.3042 0.191406 23.5614 0.191406 26.3459C0.191406 29.1303 2.44864 31.3875 5.23307 31.3875Z" fill="#171718"/>
<path d="M59.3516 55.7495L60.3807 55.578L61.3307 61.2794L60.3016 61.4509L59.3516 55.7495Z" fill="#171718"/>
<path d="M48.2301 98.6813H47.1834V100.03H45.2434V98.6813H41.5234V97.3879L44.6801 92.9929H46.7418L43.8751 97.1063H45.3034V95.9096H47.1834V97.1063H48.2301V98.6813ZM50.1301 99.7379C49.6473 99.4343 49.2642 98.9956 49.0284 98.4763C48.7667 97.8539 48.6318 97.1856 48.6318 96.5104C48.6318 95.8353 48.7667 95.1669 49.0284 94.5446C49.2637 94.0245 49.6469 93.5851 50.1301 93.2813C50.6174 92.9985 51.1709 92.8496 51.7343 92.8496C52.2977 92.8496 52.8511 92.9985 53.3384 93.2813C53.8207 93.5858 54.2032 94.025 54.4384 94.5446C54.7013 95.1666 54.8368 95.8351 54.8368 96.5104C54.8368 97.1857 54.7013 97.8542 54.4384 98.4763C54.2027 98.9951 53.8203 99.4337 53.3384 99.7379C52.8511 100.021 52.2977 100.17 51.7343 100.17C51.1709 100.17 50.6174 100.021 50.1301 99.7379ZM52.5384 98.0546C52.7362 97.729 52.8351 97.2146 52.8351 96.5113C52.8351 95.8079 52.7362 95.2935 52.5384 94.9679C52.4618 94.8208 52.3464 94.6976 52.2046 94.6115C52.0628 94.5255 51.9001 94.48 51.7343 94.48C51.5684 94.48 51.4058 94.5255 51.264 94.6115C51.1222 94.6976 51.0067 94.8208 50.9301 94.9679C50.7323 95.2924 50.6334 95.8068 50.6334 96.5113C50.6334 97.2157 50.7323 97.7302 50.9301 98.0546C51.0067 98.2017 51.1222 98.325 51.264 98.411C51.4058 98.497 51.5684 98.5425 51.7343 98.5425C51.9001 98.5425 52.0628 98.497 52.2046 98.411C52.3464 98.325 52.4618 98.2017 52.5384 98.0546ZM62.1518 98.6813H61.1051V100.03H59.1701V98.6813H55.4501V97.3879L58.6068 92.9929H60.6684L57.8018 97.1063H59.2301V95.9096H61.1101V97.1063H62.1518V98.6813Z" fill="#E0F2FE"/>
<path d="M103.306 114.555C102.038 114.555 100.908 114.241 100.173 113.806C99.6981 113.53 99.2515 113.209 98.8394 112.846C97.5844 113.616 96.146 114.078 94.8277 113.928C94.0483 113.854 93.296 113.604 92.6277 113.196C92.0862 113.55 91.4906 113.812 90.8644 113.973C89.0594 114.436 87.301 113.973 86.261 113.276C83.3944 114.491 81.0594 114.578 79.3177 113.53C76.756 111.991 76.496 108.608 76.4844 108.465L77.4844 108.396C77.4844 108.426 77.7244 111.41 79.8394 112.676C81.2027 113.493 83.0744 113.448 85.4077 112.545C84.8086 111.935 84.3911 111.17 84.2021 110.337C84.0131 109.503 84.06 108.633 84.3377 107.825C84.781 106.593 85.7127 105.825 86.7077 105.848C88.601 105.906 89.1144 107.085 89.251 107.78C89.5844 109.446 88.506 111.656 87.261 112.7C88.3109 113.187 89.4972 113.295 90.6177 113.005C91.0361 112.896 91.4384 112.733 91.8144 112.52C91.3411 112.003 91.0002 111.379 90.821 110.701C90.321 108.855 90.8677 106.56 92.0227 105.688C92.651 105.215 93.9911 105.188 94.9094 105.91C95.4977 106.375 96.3377 107.496 95.3394 109.8C94.9186 110.83 94.288 111.761 93.4877 112.535C93.9477 112.753 94.4424 112.89 94.9494 112.94C95.9594 113.055 97.1044 112.7 98.1377 112.106C96.9544 110.606 97.051 109.026 97.706 107.853C98.481 106.46 99.9327 105.7 100.873 106.186C102.029 106.791 102.469 107.87 102.078 109.143C101.744 110.216 100.851 111.358 99.6944 112.26C100.01 112.514 100.344 112.744 100.694 112.946C101.763 113.58 103.811 113.843 105.661 113.125C106.759 112.698 108.204 111.741 108.854 109.605L109.811 109.896C109.044 112.416 107.328 113.55 106.023 114.063C105.156 114.394 104.234 114.561 103.306 114.555ZM86.6544 106.853C86.116 106.853 85.5677 107.376 85.2827 108.168C84.9044 109.22 84.991 110.845 86.3944 112.11C87.4494 111.433 88.5444 109.351 88.2727 107.978C88.1294 107.25 87.606 106.881 86.6794 106.853H86.6544ZM93.231 106.353C93.0224 106.34 92.8146 106.388 92.6327 106.491C91.8977 107.046 91.371 108.893 91.7994 110.443C91.9473 111.009 92.2409 111.526 92.651 111.943C93.4309 111.244 94.0408 110.377 94.4344 109.406C94.8194 108.52 95.101 107.331 94.3044 106.7C93.9947 106.467 93.6167 106.343 93.2294 106.348L93.231 106.353ZM100.231 107.041C99.8094 107.041 99.051 107.5 98.5827 108.341C98.2627 108.913 97.821 110.175 98.9711 111.56C100.016 110.775 100.843 109.773 101.124 108.858C101.374 108.045 101.141 107.461 100.411 107.08C100.353 107.05 100.288 107.035 100.223 107.036L100.231 107.041Z" fill="#171718"/>
<path d="M14.0703 103.344V108.406C14.0703 110.083 16.7903 111.443 20.1453 111.443C23.5003 111.443 26.2186 110.083 26.2186 108.406V103.344H14.0703Z" fill="white"/>
<path d="M20.1453 111.943C16.4586 111.943 13.5703 110.389 13.5703 108.404V102.844H26.7186V108.404C26.7186 110.388 23.8303 111.943 20.1453 111.943ZM14.5703 103.844V108.404C14.5703 109.604 16.8603 110.943 20.1453 110.943C23.4303 110.943 25.7186 109.609 25.7186 108.404V103.844H14.5703Z" fill="#171718"/>
<path d="M20.1441 106.381C23.7919 106.381 26.7491 104.902 26.7491 103.078C26.7491 101.253 23.7919 99.7744 20.1441 99.7744C16.4962 99.7744 13.5391 101.253 13.5391 103.078C13.5391 104.902 16.4962 106.381 20.1441 106.381Z" fill="#171718"/>
<path d="M20.144 104.279C21.8027 104.279 23.1473 103.607 23.1473 102.778C23.1473 101.948 21.8027 101.276 20.144 101.276C18.4853 101.276 17.1406 101.948 17.1406 102.778C17.1406 103.607 18.4853 104.279 20.144 104.279Z" fill="white"/>
</svg>
