<svg width="112" height="94" viewBox="0 0 112 94" fill="none" xmlns="http://www.w3.org/2000/svg">
<path d="M18.0336 20.7501L16.2619 20.3634L15.8586 18.5951C15.8518 18.5648 15.8349 18.5377 15.8106 18.5184C15.7864 18.499 15.7563 18.4884 15.7253 18.4884C15.6941 18.4886 15.6639 18.4992 15.6394 18.5185C15.615 18.5379 15.5977 18.5648 15.5903 18.5951L15.1869 20.3717L13.4153 20.7917C13.3847 20.7992 13.3576 20.8168 13.3382 20.8416C13.3189 20.8664 13.3084 20.897 13.3086 20.9284C13.3088 20.9595 13.3196 20.9895 13.3393 21.0135C13.3591 21.0375 13.3865 21.0539 13.4169 21.0601L15.1886 21.4467L15.5903 23.2151C15.5977 23.2453 15.615 23.2723 15.6394 23.2916C15.6639 23.3109 15.6941 23.3215 15.7253 23.3217C15.7563 23.3217 15.7864 23.3112 15.8106 23.2918C15.8349 23.2724 15.8518 23.2453 15.8586 23.2151L16.2636 21.4384L18.0353 21.0184C18.0664 21.0124 18.0945 20.9957 18.1147 20.9712C18.1349 20.9467 18.1459 20.916 18.1459 20.8842C18.1459 20.8525 18.1349 20.8218 18.1147 20.7973C18.0945 20.7728 18.0664 20.7561 18.0353 20.7501H18.0336Z" fill="#171718"/>
<path d="M77.5336 3.41676L75.7619 3.03009L75.3586 1.26176C75.3518 1.23148 75.3349 1.20442 75.3106 1.18504C75.2864 1.16565 75.2563 1.15509 75.2253 1.15509C75.1941 1.15531 75.1639 1.16592 75.1394 1.18524C75.115 1.20456 75.0977 1.23149 75.0903 1.26176L74.6869 3.03842L72.9153 3.45843C72.8847 3.46591 72.8576 3.48347 72.8382 3.50826C72.8189 3.53305 72.8084 3.56364 72.8086 3.59509C72.8088 3.62615 72.8196 3.65621 72.8393 3.68019C72.8591 3.70418 72.8865 3.72062 72.9169 3.72676L74.6886 4.11342L75.0903 5.88175C75.0977 5.91202 75.115 5.93896 75.1394 5.95828C75.1639 5.9776 75.1941 5.98821 75.2253 5.98842C75.2563 5.98842 75.2864 5.97786 75.3106 5.95848C75.3349 5.93909 75.3518 5.91203 75.3586 5.88175L75.7636 4.10509L77.5353 3.68509C77.5664 3.67905 77.5945 3.66236 77.6147 3.63788C77.6349 3.6134 77.6459 3.58265 77.6459 3.55092C77.6459 3.51919 77.6349 3.48845 77.6147 3.46397C77.5945 3.43949 77.5664 3.4228 77.5353 3.41676H77.5336Z" fill="#171718"/>
<path d="M21.2519 13.1551L20.3353 12.9551L20.1286 12.0401C20.1251 12.0241 20.1162 12.0098 20.1035 11.9996C20.0908 11.9893 20.0749 11.9838 20.0586 11.9838C20.0423 11.9838 20.0264 11.9893 20.0137 11.9996C20.0009 12.0098 19.9921 12.0241 19.9886 12.0401L19.7803 12.9601L18.8636 13.1767C18.8479 13.1805 18.8339 13.1895 18.8239 13.2022C18.8139 13.2149 18.8085 13.2306 18.8086 13.2467C18.8087 13.2629 18.8144 13.2786 18.8247 13.291C18.835 13.3035 18.8494 13.312 18.8653 13.3151L19.7819 13.5151L19.9886 14.4301C19.9921 14.446 20.0009 14.4603 20.0137 14.4705C20.0264 14.4808 20.0423 14.4864 20.0586 14.4864C20.0749 14.4864 20.0908 14.4808 20.1035 14.4705C20.1162 14.4603 20.1251 14.446 20.1286 14.4301L20.3369 13.5101L21.2536 13.2934C21.2692 13.2894 21.283 13.2803 21.2929 13.2677C21.3029 13.2551 21.3084 13.2395 21.3086 13.2234C21.3085 13.2072 21.3028 13.1916 21.2925 13.1791C21.2821 13.1666 21.2678 13.1581 21.2519 13.1551Z" fill="#171718"/>
<path d="M96.4153 91.2501L98.1869 90.8634L98.5886 89.0951C98.596 89.0648 98.6133 89.0379 98.6378 89.0186C98.6622 88.9992 98.6924 88.9886 98.7236 88.9884C98.7546 88.9884 98.7847 88.999 98.809 89.0184C98.8332 89.0377 98.8501 89.0648 98.8569 89.0951L99.2619 90.8717L101.034 91.2917C101.065 91.2978 101.093 91.3145 101.113 91.3389C101.133 91.3634 101.144 91.3942 101.144 91.4259C101.144 91.4576 101.133 91.4884 101.113 91.5129C101.093 91.5373 101.065 91.554 101.034 91.5601L99.2619 91.9467L98.8586 93.7151C98.8518 93.7453 98.8349 93.7724 98.8106 93.7918C98.7864 93.8112 98.7563 93.8217 98.7253 93.8217C98.6941 93.8215 98.6639 93.8109 98.6394 93.7916C98.615 93.7723 98.5977 93.7453 98.5903 93.7151L98.1869 91.9384L96.4153 91.5184C96.3847 91.5109 96.3576 91.4934 96.3382 91.4686C96.3189 91.4438 96.3084 91.4132 96.3086 91.3817C96.3087 91.3509 96.3193 91.321 96.3387 91.2971C96.3581 91.2731 96.3851 91.2565 96.4153 91.2501Z" fill="#171718"/>
<path d="M93.1973 83.6553L94.114 83.4553L94.3206 82.5403C94.3241 82.5244 94.333 82.5101 94.3457 82.4998C94.3584 82.4896 94.3743 82.484 94.3906 82.484C94.407 82.484 94.4228 82.4896 94.4355 82.4998C94.4483 82.5101 94.4571 82.5244 94.4606 82.5403L94.669 83.4603L95.5856 83.677C95.6012 83.681 95.615 83.69 95.625 83.7027C95.6349 83.7153 95.6404 83.7309 95.6406 83.747C95.6405 83.7632 95.6348 83.7788 95.6245 83.7913C95.6142 83.8037 95.5998 83.8122 95.584 83.8153L94.6673 84.0153L94.4606 84.9303C94.4571 84.9463 94.4483 84.9606 94.4355 84.9708C94.4228 84.981 94.407 84.9866 94.3906 84.9866C94.3743 84.9866 94.3584 84.981 94.3457 84.9708C94.333 84.9606 94.3241 84.9463 94.3206 84.9303L94.1123 84.0103L93.1956 83.7937C93.1799 83.7899 93.1659 83.7809 93.1559 83.7682C93.146 83.7555 93.1406 83.7398 93.1406 83.7236C93.1407 83.7075 93.1464 83.6918 93.1567 83.6794C93.1671 83.6669 93.1814 83.6584 93.1973 83.6553Z" fill="#171718"/>
<path d="M89.2519 27.8218L88.3353 27.6217L88.1286 26.7068C88.1251 26.6908 88.1162 26.6765 88.1035 26.6663C88.0908 26.656 88.0749 26.6505 88.0586 26.6505C88.0423 26.6505 88.0264 26.656 88.0137 26.6663C88.001 26.6765 87.9921 26.6908 87.9886 26.7068L87.7803 27.6267L86.8636 27.8434C86.8479 27.8472 86.8339 27.8561 86.8239 27.8688C86.8139 27.8816 86.8085 27.8973 86.8086 27.9134C86.8087 27.9296 86.8144 27.9453 86.8247 27.9577C86.835 27.9702 86.8494 27.9787 86.8653 27.9818L87.7819 28.1818L87.9886 29.0968C87.9921 29.1127 88.001 29.127 88.0137 29.1372C88.0264 29.1475 88.0423 29.1531 88.0586 29.1531C88.0749 29.1531 88.0908 29.1475 88.1035 29.1372C88.1162 29.127 88.1251 29.1127 88.1286 29.0968L88.3369 28.1768L89.2536 27.9601C89.2692 27.9561 89.283 27.947 89.2929 27.9344C89.3029 27.9217 89.3084 27.9062 89.3086 27.8901C89.3085 27.8739 89.3028 27.8582 89.2925 27.8458C89.2821 27.8333 89.2678 27.8248 89.2519 27.8218Z" fill="#171718"/>
<path d="M33.2016 90.4166L31.4299 90.0299L31.0266 88.2616C31.0197 88.2313 31.0028 88.2042 30.9786 88.1849C30.9544 88.1655 30.9243 88.1549 30.8932 88.1549C30.8621 88.1551 30.8319 88.1657 30.8074 88.1851C30.783 88.2044 30.7657 88.2313 30.7582 88.2616L30.3549 90.0382L28.5832 90.4582C28.5527 90.4657 28.5255 90.4833 28.5062 90.5081C28.4868 90.5329 28.4764 90.5635 28.4766 90.5949C28.4767 90.626 28.4876 90.656 28.5073 90.68C28.5271 90.704 28.5544 90.7204 28.5849 90.7266L30.3566 91.1132L30.7582 92.8816C30.7657 92.9118 30.783 92.9388 30.8074 92.9581C30.8319 92.9774 30.8621 92.988 30.8932 92.9882C30.9243 92.9882 30.9544 92.9777 30.9786 92.9583C31.0028 92.9389 31.0197 92.9118 31.0266 92.8816L31.4316 91.1049L33.2032 90.6849C33.2344 90.6789 33.2625 90.6622 33.2826 90.6377C33.3028 90.6132 33.3139 90.5825 33.3139 90.5507C33.3139 90.519 33.3028 90.4883 33.2826 90.4638C33.2625 90.4393 33.2344 90.4226 33.2032 90.4166H33.2016Z" fill="#171718"/>
<path d="M92.6937 14.3716C92.6937 14.3716 93.6337 11.9883 91.9771 8.30165C91.9541 8.24995 91.9159 8.20648 91.8676 8.17703C91.8193 8.14758 91.7632 8.13356 91.7067 8.13681C91.6502 8.14007 91.5961 8.16046 91.5515 8.19527C91.5069 8.23008 91.474 8.27765 91.4571 8.33164C91.1904 9.17331 90.7188 10.56 90.3438 11.115L92.6937 14.3716Z" fill="#E0F2FE"/>
<path d="M89.0797 16.0649C89.0797 16.0649 86.643 15.2616 84.8763 11.6266C84.8513 11.5758 84.8423 11.5186 84.8507 11.4625C84.859 11.4065 84.8843 11.3544 84.923 11.3131C84.9618 11.2718 85.0122 11.2433 85.0676 11.2314C85.123 11.2195 85.1807 11.2248 85.233 11.2466C86.0497 11.5799 87.4163 12.1066 88.083 12.1733L89.0797 16.0649Z" fill="#E0F2FE"/>
<path d="M91.2542 11.6417C91.0342 11.3584 90.8025 11.0684 90.5608 10.775L87.6875 12.1217C87.7575 12.495 87.8325 12.8584 87.9092 13.2084C89.0858 18.5317 91.0308 21.0784 92.5408 22.2934L95.2858 21.0067C95.3108 19.0717 94.5908 15.9517 91.2542 11.6417Z" fill="#171718"/>
<path d="M92.5251 19.955C93.2228 19.955 93.7884 19.3894 93.7884 18.6917C93.7884 17.994 93.2228 17.4283 92.5251 17.4283C91.8273 17.4283 91.2617 17.994 91.2617 18.6917C91.2617 19.3894 91.8273 19.955 92.5251 19.955Z" fill="white"/>
<path d="M92.5391 22.2931L95.2841 21.0065C95.2607 22.5881 94.7407 23.3781 94.7407 23.3781L94.7174 23.3881C94.7174 23.3881 93.7724 23.2865 92.5391 22.2931Z" fill="#E0F2FE"/>
<path d="M90.9131 15.1066C90.8361 15.143 90.7483 15.1493 90.6669 15.1243C90.5856 15.0993 90.5164 15.0449 90.4731 14.9716L89.4281 13.1899C89.213 12.8235 89.0323 12.4379 88.8881 12.0383L88.1897 10.0949C88.1594 10.0152 88.1608 9.92681 88.1937 9.84805C88.2266 9.76929 88.2884 9.70614 88.3664 9.67161C88.4431 9.63387 88.5313 9.62701 88.6129 9.65244C88.6944 9.67787 88.7631 9.73366 88.8047 9.80828L89.8497 11.5883C90.0652 11.9545 90.2459 12.3401 90.3897 12.7399L91.0898 14.6833C91.1201 14.763 91.1187 14.8514 91.0858 14.9302C91.0529 15.0089 90.9911 15.0721 90.9131 15.1066Z" fill="#E0F2FE"/>
<path d="M88.7648 8.86826C88.7431 8.82159 86.6398 4.13826 83.4531 3.40159L83.6048 2.75159C87.1165 3.56492 89.2831 8.39326 89.3748 8.59826L88.7648 8.86826Z" fill="#171718"/>
<path d="M86.956 9.32183C86.956 9.30517 86.1943 7.6285 84.5977 6.80517L84.9027 6.2135C86.7143 7.1485 87.5327 8.97683 87.5693 9.04683L86.956 9.32183Z" fill="#171718"/>
<path d="M34.2933 24.8601L39.65 50.8368L71.8167 44.2035L66.4517 18.2268C66.376 17.8595 66.2287 17.5107 66.0182 17.2004C65.8077 16.89 65.5382 16.6241 65.2249 16.418C64.9116 16.2118 64.5608 16.0694 64.1925 15.9989C63.8242 15.9283 63.4456 15.931 63.0783 16.0068L36.5117 21.4885C36.1446 21.5641 35.796 21.7114 35.4859 21.9218C35.1757 22.1322 34.91 22.4016 34.704 22.7147C34.498 23.0279 34.3557 23.3785 34.2853 23.7466C34.2148 24.1147 34.2175 24.4931 34.2933 24.8601Z" fill="white"/>
<path d="M35.6917 29.4218L41.37 55.3301L73.445 48.3001L67.7667 22.3918C67.604 21.6521 67.1543 21.0073 66.5166 20.5988C65.8788 20.1904 65.105 20.0518 64.365 20.2135L37.865 26.0218C37.4991 26.1023 37.1526 26.2542 36.8453 26.4686C36.538 26.6831 36.276 26.956 36.0742 27.2717C35.8724 27.5874 35.7347 27.9398 35.6691 28.3087C35.6035 28.6776 35.6112 29.0558 35.6917 29.4218Z" fill="#171718"/>
<path d="M90.6779 60.3216C89.2246 77.6549 73.9913 90.5332 56.6563 89.0782C52.5343 88.7339 48.5205 87.5808 44.8442 85.6849C41.168 83.7889 37.9013 81.1872 35.2308 78.0284C32.5604 74.8696 30.5384 71.2156 29.2805 67.2752C28.0226 63.3347 27.5533 59.1851 27.8996 55.0632C29.3529 37.7299 44.5863 24.8516 61.9213 26.3066C66.0445 26.6475 70.0601 27.7983 73.738 29.6931C77.4159 31.588 80.684 34.1897 83.3551 37.3492C86.0263 40.5088 88.048 44.1641 89.3045 48.1061C90.5611 52.048 91.0278 56.199 90.6779 60.3216Z" fill="#E0F2FE"/>
<path d="M59.3456 89.6984C58.439 89.6984 57.529 89.66 56.6156 89.5834C50.3008 89.0592 44.2833 86.6735 39.3247 82.7283C34.3661 78.783 30.6893 73.4555 28.7596 67.4199C26.8298 61.3843 26.7339 54.9119 28.4838 48.8217C30.2338 42.7316 33.751 37.2974 38.5904 33.2069C43.4298 29.1163 49.3739 26.5533 55.6705 25.8421C61.967 25.131 68.3331 26.3036 73.963 29.2117C79.5928 32.1197 84.2335 36.6325 87.2978 42.1789C90.3621 47.7253 91.7122 54.056 91.1773 60.37C90.5093 68.3579 86.8678 75.8042 80.9731 81.236C75.0784 86.6678 67.3597 89.6895 59.344 89.7034L59.3456 89.6984ZM59.2356 26.6984C51.4721 26.713 43.9966 29.6401 38.2873 34.901C32.578 40.1619 29.0505 47.3736 28.4023 55.11C27.4873 66.0134 32.2356 76.3667 41.0973 82.8034C45.5462 86.0275 50.772 88.0114 56.2397 88.5517C61.7074 89.0921 67.2205 88.1696 72.2144 85.8786C77.2083 83.5877 81.5037 80.0107 84.6606 75.5138C87.8175 71.017 89.7225 65.7619 90.1806 60.2867C90.5264 56.229 90.0681 52.143 88.8321 48.2626C87.5962 44.3823 85.6068 40.784 82.9779 37.6738C80.349 34.5635 77.1323 32.0026 73.5121 30.1375C69.8919 28.2725 65.9392 27.14 61.8806 26.805C60.9962 26.7306 60.1145 26.6934 59.2356 26.6934V26.6984Z" fill="#171718"/>
<path d="M45.9391 26.07C44.735 26.8535 43.6576 27.8163 42.7441 28.925C42.5241 29.185 42.3041 29.4617 42.0891 29.7584L42.0691 29.7834C41.6625 30.3445 41.2971 30.9344 40.9758 31.5484C40.8891 31.715 40.8091 31.8817 40.7224 32.0484C40.5724 32.365 40.4308 32.6934 40.3008 33.035C39.9454 33.9668 39.6966 34.9357 39.5591 35.9234C39.5074 36.275 39.4708 36.6384 39.4491 37.01C39.3656 38.5276 39.5043 40.0492 39.8608 41.5267L32.6941 44.705C31.7776 42.2015 31.3373 39.5487 31.3958 36.8834C31.3958 36.52 31.4191 36.1484 31.4474 35.7717C31.5638 34.1632 31.8928 32.5772 32.4258 31.055C32.5541 30.695 32.6941 30.3334 32.8524 29.9717C33.0691 29.4717 33.3158 28.9634 33.5941 28.4617C34.035 27.6713 34.5365 26.9162 35.0941 26.2034L35.1624 26.1184C35.4113 25.8017 35.6763 25.4878 35.9574 25.1767C37.3494 23.6568 38.9505 22.3426 40.7124 21.2734L45.9391 26.07Z" fill="white"/>
<path d="M32.4329 45.3786L32.2379 44.9053C31.2918 42.3388 30.8394 39.6166 30.9046 36.882C30.9046 36.5003 30.9296 36.117 30.9579 35.742C31.0761 34.1186 31.4044 32.5175 31.9346 30.9786L31.9629 30.8953C32.1079 30.4903 32.2513 30.1253 32.4029 29.7803C32.6296 29.2553 32.8863 28.732 33.1663 28.227C33.6182 27.4148 34.1319 26.6386 34.7029 25.9053L34.7779 25.812C35.0229 25.4986 35.2979 25.1736 35.5896 24.8503C37.0137 23.294 38.6511 21.9473 40.4529 20.8503L40.7746 20.652L46.7746 26.152L46.1963 26.4953C45.0426 27.2526 44.009 28.1784 43.1296 29.242C42.9346 29.4736 42.7563 29.6953 42.5913 29.917V29.9286L42.4696 30.0836C42.0792 30.6214 41.7282 31.1868 41.4196 31.7753C41.3329 31.942 41.2529 32.1086 41.1746 32.2653C41.0246 32.5836 40.8879 32.9036 40.7679 33.217C40.4267 34.114 40.1875 35.0465 40.0546 35.997C40.0046 36.3303 39.9696 36.6853 39.9496 37.042C39.8692 38.5119 40.0034 39.9857 40.3479 41.417L40.4429 41.8186L32.4329 45.3786ZM32.9196 31.1803L32.9029 31.2303C32.3852 32.7124 32.0652 34.2562 31.9513 35.822C31.9246 36.177 31.9079 36.542 31.9013 36.9053C31.8596 39.3288 32.2264 41.742 32.9863 44.0436L39.2829 41.247C38.9823 39.8499 38.8702 38.4188 38.9496 36.992C38.9713 36.607 39.0096 36.227 39.0629 35.862C39.2057 34.8362 39.4641 33.8298 39.8329 32.862C39.9613 32.5286 40.1079 32.182 40.2696 31.8403C40.3513 31.6736 40.4363 31.487 40.5313 31.312C40.8647 30.6778 41.2435 30.0684 41.6646 29.4886L41.6846 29.462C41.8929 29.1753 42.1146 28.892 42.3629 28.5986C43.1773 27.6252 44.1076 26.7549 45.1329 26.007L40.6563 21.9036C39.0567 22.9082 37.5993 24.123 36.3229 25.5153C36.0463 25.822 35.7863 26.1286 35.5496 26.4303L35.4846 26.5103C34.944 27.2047 34.4576 27.9397 34.0296 28.7086C33.7652 29.1843 33.5255 29.6733 33.3113 30.1736C33.1796 30.4886 33.0513 30.822 32.9196 31.1803Z" fill="#171718"/>
<path d="M74.9632 36.3485L67.1565 35.6935C67.0072 34.1619 66.6308 32.661 66.0398 31.2402C65.9032 30.9068 65.7532 30.5902 65.5965 30.2852C65.1704 29.4559 64.6581 28.6738 64.0682 27.9518C63.846 27.6741 63.6132 27.4107 63.3698 27.1618C62.7727 26.5366 62.1194 25.9675 61.4182 25.4618C61.1198 25.2468 60.8248 25.0502 60.5332 24.8685C59.2399 24.0519 57.8242 23.4476 56.3398 23.0785L59.7065 16.8385C61.8071 17.289 63.8292 18.0489 65.7065 19.0935C66.0932 19.3157 66.4643 19.5446 66.8198 19.7802C68.0254 20.5785 69.1247 21.5267 70.0915 22.6018C70.356 22.8963 70.6071 23.1957 70.8448 23.5002C71.8374 24.7757 72.6572 26.1767 73.2832 27.6668C73.4276 28.0124 73.561 28.3541 73.6832 28.6918C74.5731 31.1447 75.0069 33.7396 74.9632 36.3485Z" fill="white"/>
<path d="M75.4326 36.89L66.7026 36.155L66.6593 35.7434C66.5139 34.2613 66.15 32.8089 65.5793 31.4334C65.4526 31.1284 65.3143 30.8284 65.1509 30.5117C64.7406 29.7141 64.2479 28.9617 63.6809 28.2667C63.4676 28.0017 63.2426 27.7484 63.0143 27.5067C62.4376 26.9029 61.8066 26.3534 61.1293 25.865C60.8543 25.6667 60.5659 25.4734 60.2726 25.2917C59.0288 24.5074 57.6686 23.9252 56.2426 23.5667L55.5859 23.43L59.4509 16.2634L59.8193 16.345C61.9668 16.8091 64.034 17.5875 65.9543 18.655C66.3609 18.8867 66.7459 19.1234 67.0993 19.3617C68.339 20.1835 69.4697 21.159 70.4643 22.265C70.7376 22.5667 70.9976 22.8784 71.2393 23.1884C72.2573 24.5 73.0979 25.9402 73.7393 27.4717C73.8876 27.825 74.0259 28.1784 74.1493 28.5234C75.0655 31.037 75.509 33.6984 75.4576 36.3734L75.4326 36.89ZM67.5993 35.2234L74.4759 35.805C74.4374 33.4387 74.0129 31.0946 73.2193 28.865C73.1009 28.5317 72.9693 28.1984 72.8276 27.865C72.2191 26.4151 71.4223 25.0517 70.4576 23.81C70.2293 23.5167 69.9826 23.2234 69.7259 22.9384C68.7869 21.8947 67.7195 20.9741 66.5493 20.1984C66.2159 19.9734 65.8493 19.7484 65.4659 19.5317C63.7407 18.5722 61.8893 17.8597 59.9659 17.415L57.0826 22.76C58.3886 23.1594 59.6374 23.7263 60.7976 24.4467C61.1109 24.6417 61.4176 24.8467 61.7109 25.06C62.4366 25.5844 63.1127 26.1741 63.7309 26.8217C63.9809 27.08 64.2309 27.3584 64.4559 27.6417C65.0669 28.3911 65.5981 29.2022 66.0409 30.0617C66.2159 30.4034 66.3743 30.7284 66.5009 31.0617C67.057 32.3945 67.4288 33.7968 67.6059 35.23L67.5993 35.2234Z" fill="#171718"/>
<path d="M73.3085 33.4966C71.6085 32.9232 69.0852 32.4749 66.8285 33.6632C66.8285 33.6632 62.5835 37.4049 62.5352 38.9966C62.5352 38.9966 62.7618 41.2733 65.8002 39.9383C65.8002 39.9383 64.3002 46.9216 70.0185 47.4849C70.0185 47.4849 74.1852 48.1516 75.2318 42.8299C75.2654 42.6598 75.2816 42.4867 75.2802 42.3133L75.2935 36.2833C75.2978 35.669 75.1083 35.0691 74.7519 34.5687C74.3955 34.0684 73.8904 33.6933 73.3085 33.4966Z" fill="white"/>
<path d="M70.4202 47.9884C70.267 47.9898 70.1139 47.9814 69.9618 47.9634C68.3385 47.7967 67.0935 47.1434 66.2652 46.0067C65.0118 44.2901 65.0485 41.9334 65.1802 40.6734C64.3052 40.9234 63.5785 40.8834 63.0135 40.5534C62.1468 40.0534 62.0402 39.0634 62.0352 39.0217V38.9901V38.9567C62.0885 37.2434 65.7618 33.9201 66.4968 33.2717L66.5418 33.2317L66.5952 33.2034C69.0035 31.9401 71.6618 32.4017 73.4685 33.0117C74.1482 33.2407 74.7387 33.6778 75.156 34.2612C75.5733 34.8445 75.7964 35.5445 75.7935 36.2617L75.7802 42.2917C75.7807 42.497 75.7618 42.7018 75.7235 42.9034C74.8102 47.5351 71.6435 47.9884 70.4202 47.9884ZM66.4935 39.0767L66.2868 40.0334C66.2868 40.0651 65.5918 43.3967 67.0752 45.4267C67.7302 46.3234 68.7418 46.8451 70.0652 46.9751H70.0968C70.2452 46.9967 73.7952 47.4751 74.7402 42.7167C74.7672 42.5784 74.78 42.4377 74.7785 42.2967L74.7918 36.2667C74.7929 35.7596 74.6342 35.2649 74.3383 34.853C74.0425 34.4411 73.6244 34.1327 73.1435 33.9717C71.5368 33.4284 69.1902 33.0101 67.1085 34.0734C65.4418 35.5534 63.1202 38.0001 63.0318 38.9617C63.0576 39.1128 63.1144 39.2569 63.1988 39.3848C63.2831 39.5128 63.3931 39.6218 63.5218 39.7051C63.9585 39.9551 64.6752 39.8717 65.5952 39.4701L66.4935 39.0767Z" fill="#171718"/>
<path d="M73.686 28.6951C71.916 28.6184 68.5443 28.8401 66.041 31.2401C65.9043 30.9068 65.7543 30.5901 65.5977 30.2851C68.1427 28.0001 71.331 27.6368 73.286 27.6701C73.4315 28.0156 73.5649 28.3573 73.686 28.6951Z" fill="#E0F2FE"/>
<path d="M70.8478 23.5C69.2844 23.625 66.0994 24.3417 64.0694 27.9517C63.8472 27.6739 63.6144 27.4106 63.3711 27.1617C64.0839 25.951 65.0569 24.9138 66.2197 24.1252C67.3824 23.3365 68.7059 22.8162 70.0944 22.6017C70.3589 22.8972 70.61 23.1967 70.8478 23.5Z" fill="#E0F2FE"/>
<path d="M66.8196 19.78C65.4162 20.1134 62.3196 21.3284 61.4162 25.4617C61.1179 25.2467 60.8229 25.05 60.5312 24.8684C61.4696 21.2617 63.9862 19.7317 65.6979 19.0934C66.0901 19.3134 66.464 19.5423 66.8196 19.78Z" fill="#E0F2FE"/>
<path d="M39.559 35.9314C39.5073 36.2831 39.4707 36.6464 39.449 37.0181C36.1523 35.0364 32.7823 36.2314 31.4023 36.8914C31.4023 36.5281 31.4257 36.1564 31.454 35.7798C33.1523 35.0731 36.3507 34.2214 39.559 35.9314Z" fill="#E0F2FE"/>
<path d="M40.7197 32.0568C40.5697 32.3735 40.428 32.7019 40.298 33.0435C37.7064 30.3635 33.9647 30.7585 32.4297 31.0618C32.558 30.7018 32.698 30.3402 32.8564 29.9785C34.7447 29.7052 38.1414 29.6552 40.7197 32.0568Z" fill="#E0F2FE"/>
<path d="M42.7418 28.9249C42.5218 29.1849 42.3018 29.4616 42.0868 29.7582C40.1685 26.5782 36.7218 26.1466 35.1602 26.1249C35.409 25.8082 35.674 25.4943 35.9552 25.1832C37.8402 25.3599 40.8585 26.1049 42.7418 28.9249Z" fill="#E0F2FE"/>
<path d="M33.3285 41.4784C34.7469 40.3784 36.9835 39.1268 39.5035 39.5051C39.5035 39.5051 44.7402 41.6468 45.3069 43.1284C45.3069 43.1284 45.8385 45.3534 42.5319 45.0901C42.5319 45.0901 46.2435 51.1918 41.0219 53.6018C41.0219 53.6018 37.3152 55.6018 34.5685 50.9151C34.4828 50.7647 34.4108 50.6068 34.3535 50.4434L32.3635 44.7518C32.1611 44.1739 32.1453 43.5469 32.3185 42.9596C32.4916 42.3722 32.845 41.8541 33.3285 41.4784Z" fill="white"/>
<path d="M39.1106 54.5151C37.6606 54.5151 35.7289 53.8851 34.1373 51.1667C34.0345 50.9893 33.9491 50.8023 33.8823 50.6084L31.8923 44.9167C31.6546 44.24 31.6359 43.5057 31.8387 42.8177C32.0415 42.1298 32.4556 41.523 33.0223 41.0834C34.5223 39.9167 36.8906 38.6067 39.5789 39.0101H39.6373L39.6939 39.0334C40.6023 39.4051 45.1623 41.3384 45.7739 42.9417L45.7939 43.0034C45.8039 43.0434 46.0239 44.0034 45.3723 44.7701C44.9456 45.2701 44.2723 45.5434 43.3639 45.6034C43.9006 46.7451 44.7073 48.9584 44.0873 50.9917C43.6773 52.3384 42.7173 53.3684 41.2373 54.0534C40.5701 54.3592 39.8445 54.5168 39.1106 54.5151ZM33.6423 41.8734C33.2412 42.1846 32.9481 42.614 32.8045 43.101C32.6609 43.5879 32.6742 44.1077 32.8423 44.5867L34.8339 50.2784C34.8776 50.411 34.9334 50.5393 35.0006 50.6617C37.4573 54.8551 40.6523 53.2317 40.7873 53.1617L40.8089 53.1551C42.0239 52.5951 42.8089 51.7717 43.1273 50.7084C43.8639 48.2967 42.1189 45.3867 42.1006 45.3584L41.6006 44.5251L42.5756 44.6034C43.5756 44.6834 44.2806 44.5251 44.6123 44.1467C44.7063 44.0257 44.7742 43.8865 44.8118 43.7379C44.8494 43.5893 44.8558 43.4346 44.8306 43.2834C44.4289 42.4017 41.4389 40.8517 39.3773 40.0017C37.0606 39.6784 34.9823 40.8451 33.6406 41.8851L33.6423 41.8734Z" fill="#171718"/>
<path d="M58.5117 7.7519L60.2417 7.41856C60.4605 7.37597 60.6855 7.37695 60.9039 7.42144C61.1223 7.46592 61.3298 7.55305 61.5145 7.67783C61.6992 7.80261 61.8575 7.96258 61.9802 8.1486C62.103 8.33462 62.1879 8.54303 62.2301 8.7619L62.9967 12.7252C63.0818 13.167 62.9878 13.6245 62.7356 13.9971C62.4834 14.3696 62.0935 14.6268 61.6517 14.7119L59.9217 15.0452L58.5117 7.7519Z" fill="#171718"/>
<path d="M36.2371 12.0553L34.5071 12.3886C34.2883 12.431 34.08 12.516 33.8941 12.6388C33.7082 12.7617 33.5483 12.9199 33.4236 13.1046C33.2989 13.2892 33.2117 13.4966 33.1671 13.7149C33.1225 13.9332 33.1214 14.1582 33.1638 14.377L33.9288 18.3386C34.0143 18.7805 34.2718 19.1704 34.6446 19.4226C35.0174 19.6748 35.4751 19.7687 35.9171 19.6836L37.6471 19.3503L36.2371 12.0553Z" fill="#171718"/>
<path d="M48.1299 26.5066C55.2498 26.5066 61.0216 20.7348 61.0216 13.6149C61.0216 6.49506 55.2498 0.723267 48.1299 0.723267C41.0101 0.723267 35.2383 6.49506 35.2383 13.6149C35.2383 20.7348 41.0101 26.5066 48.1299 26.5066Z" fill="white"/>
<path d="M48.1014 27.0117C44.6549 27.012 41.3404 25.6859 38.8452 23.3085C36.35 20.931 34.8654 17.6845 34.6992 14.242C34.533 10.7995 35.698 7.42503 37.9526 4.81827C40.2072 2.2115 43.3785 0.572357 46.809 0.240659C50.2395 -0.0910389 53.6661 0.910157 56.3784 3.03667C59.0907 5.16318 60.8806 8.2519 61.377 11.6625C61.8735 15.073 61.0384 18.5439 59.0449 21.3554C57.0514 24.1668 54.0524 26.1033 50.6697 26.7634C49.8234 26.9276 48.9634 27.0108 48.1014 27.0117ZM48.1547 1.22005C46.3265 1.21892 44.5206 1.62185 42.8662 2.40003C41.2119 3.1782 39.7499 4.31238 38.585 5.72142C37.4201 7.13047 36.581 8.77955 36.1277 10.5507C35.6745 12.3219 35.6182 14.1713 35.963 15.9667C36.41 18.2717 37.5028 20.4023 39.1142 22.11C40.7255 23.8178 42.7889 25.0325 45.0641 25.6126C47.3393 26.1927 49.7325 26.1143 51.9648 25.3865C54.1971 24.6587 56.1766 23.3116 57.6727 21.502C59.1687 19.6923 60.1198 17.4949 60.4149 15.1655C60.71 12.8362 60.3371 10.4709 59.3396 8.34541C58.3422 6.21987 56.7612 4.42156 54.7809 3.16003C52.8006 1.89851 50.5026 1.22571 48.1547 1.22005Z" fill="#171718"/>
<path d="M50.9329 5.37279L42.5367 6.99574C39.632 7.55718 37.7325 10.367 38.2939 13.2716L39.1151 17.5197C39.6765 20.4243 42.4863 22.3239 45.391 21.7624L53.7872 20.1395C56.6919 19.578 58.5914 16.7682 58.0299 13.8636L57.2088 9.61551C56.6474 6.71087 53.8376 4.81134 50.9329 5.37279Z" fill="#171718"/>
<path d="M54.6121 12.3382C55.3062 12.3382 55.8688 11.7755 55.8688 11.0815C55.8688 10.3875 55.3062 9.82483 54.6121 9.82483C53.9181 9.82483 53.3555 10.3875 53.3555 11.0815C53.3555 11.7755 53.9181 12.3382 54.6121 12.3382Z" fill="white"/>
<path d="M52.6716 9.71825C53.1244 9.71825 53.4916 9.35112 53.4916 8.89824C53.4916 8.44537 53.1244 8.07825 52.6716 8.07825C52.2187 8.07825 51.8516 8.44537 51.8516 8.89824C51.8516 9.35112 52.2187 9.71825 52.6716 9.71825Z" fill="white"/>
<path d="M69.0454 64.405C66.287 64.6417 63.8504 63.0134 63.2787 60.6784C63.0284 59.653 63.1525 58.572 63.6287 57.63C64.4237 56.035 66.137 54.8517 68.2087 54.6734C70.1654 54.5067 71.9604 55.2767 73.042 56.5717C73.2529 56.824 73.4367 57.0977 73.5904 57.3884C73.8686 57.9095 74.0387 58.4815 74.0904 59.07C74.317 61.7567 72.0587 64.145 69.0454 64.405Z" fill="white"/>
<path d="M68.5243 64.9265C65.7959 64.9265 63.3859 63.2248 62.7926 60.7964C62.7323 60.5517 62.6911 60.3026 62.6693 60.0515C62.5941 59.1397 62.7705 58.2249 63.1793 57.4065C64.0809 55.5998 65.9909 54.3615 68.1643 54.1748C70.2276 53.9981 72.1926 54.7748 73.4226 56.2515C73.656 56.5304 73.8594 56.8332 74.0293 57.1548C74.3384 57.7348 74.5266 58.3716 74.5826 59.0264C74.8376 61.9831 72.3726 64.6198 69.0826 64.9031C68.8976 64.9198 68.7093 64.9265 68.5243 64.9265ZM68.7409 55.1548C68.5743 55.1548 68.4076 55.1548 68.2409 55.1765C66.4076 55.3331 64.8126 56.3614 64.0743 57.8581C63.6525 58.6942 63.542 59.653 63.7626 60.5631C64.2826 62.6848 66.5343 64.1231 69.0009 63.9114C71.7376 63.6748 73.7943 61.5248 73.5859 59.1181C73.5419 58.5936 73.3922 58.0834 73.1459 57.6181C73.0086 57.3583 72.8443 57.1137 72.6559 56.8881C71.7309 55.7831 70.2926 55.1548 68.7409 55.1548Z" fill="#171718"/>
<path d="M90.6786 60.3217C89.2253 77.6551 73.9919 90.5334 56.6569 89.0784C50.9359 88.608 45.4539 86.5758 40.8086 83.2034C54.4753 87.4884 85.8086 84.9884 90.4119 52.7867C90.8019 55.2787 90.8914 57.8085 90.6786 60.3217Z" fill="#171718"/>
<path d="M73.0404 56.5717C67.9837 56.2767 64.932 58.6634 63.2787 60.6784C63.0284 59.653 63.1525 58.572 63.6287 57.63C64.4237 56.035 66.137 54.8517 68.2087 54.6734C70.1654 54.5067 71.9604 55.2767 73.0404 56.5717Z" fill="#171718"/>
<path d="M54.6046 43.0768C52.5146 43.2568 50.6696 42.0234 50.2363 40.2551C50.0468 39.4781 50.1407 38.659 50.5013 37.9451C51.1046 36.7384 52.4013 35.8418 53.9713 35.7068C55.453 35.5801 56.8046 36.1634 57.6296 37.1434C57.7898 37.335 57.9295 37.5428 58.0463 37.7634C58.256 38.1582 58.3835 38.5913 58.4213 39.0367C58.598 41.0717 56.8863 42.8801 54.6046 43.0768Z" fill="white"/>
<path d="M54.2118 43.5932C52.0901 43.5932 50.2118 42.2598 49.7518 40.3732C49.5324 39.482 49.64 38.5417 50.0551 37.7232C50.7551 36.3165 52.2401 35.3532 53.9284 35.2082C55.5301 35.0715 57.0568 35.6748 58.0151 36.8232C58.197 37.041 58.3556 37.2773 58.4884 37.5282C58.7301 37.9822 58.8769 38.4806 58.9201 38.9932C59.1201 41.2998 57.2034 43.3548 54.6484 43.5748C54.5018 43.5882 54.3551 43.5932 54.2118 43.5932ZM54.3784 36.1882C54.2584 36.1882 54.1384 36.1882 54.0168 36.2048C52.6734 36.3198 51.5001 37.0732 50.9534 38.1682C50.7147 38.6433 50.6115 39.1749 50.6551 39.7048C50.6677 39.8498 50.6917 39.9936 50.7268 40.1348C51.1051 41.6832 52.7551 42.7348 54.5601 42.5782C56.5601 42.4115 58.0734 40.8365 57.9218 39.0782C57.8898 38.6991 57.781 38.3304 57.6018 37.9948C57.5028 37.805 57.3832 37.6267 57.2451 37.4632C56.8891 37.0536 56.4476 36.7272 55.9517 36.5069C55.4558 36.2866 54.9176 36.1778 54.3751 36.1882H54.3784Z" fill="#171718"/>
<path d="M57.6296 37.1434C53.7963 36.9201 51.4896 38.7284 50.2363 40.2551C50.0468 39.4781 50.1407 38.659 50.5013 37.9451C51.1046 36.7384 52.4013 35.8418 53.9713 35.7068C55.453 35.5801 56.808 36.1634 57.6296 37.1434Z" fill="#171718"/>
<path d="M65.2035 77.8216C64.1685 77.9099 63.2535 77.2999 63.0368 76.4232C63.0169 76.3405 63.0029 76.2563 62.9952 76.1716C62.9672 75.8646 63.0249 75.556 63.1618 75.2799C63.3313 74.9768 63.5705 74.7185 63.8598 74.5263C64.149 74.3342 64.4799 74.2137 64.8249 74.1749C65.17 74.1361 65.5194 74.1802 65.844 74.3033C66.1687 74.4265 66.4593 74.6253 66.6918 74.8832C66.9141 75.1487 67.0507 75.4752 67.0835 75.8199C67.1801 76.8216 66.3335 77.7149 65.2035 77.8216Z" fill="white"/>
<path d="M65.0119 78.3218C63.8452 78.3218 62.8152 77.5852 62.5569 76.5335C62.5307 76.4239 62.5129 76.3125 62.5036 76.2002C62.4705 75.8009 62.5477 75.4002 62.7269 75.0418C62.9333 74.6643 63.2274 74.3419 63.5843 74.1018C63.9413 73.8616 64.3507 73.7106 64.7782 73.6616C65.2056 73.6126 65.6386 73.667 66.0406 73.8202C66.4427 73.9734 66.8021 74.2208 67.0886 74.5418C67.1901 74.663 67.2789 74.7942 67.3536 74.9335C67.4878 75.1887 67.5699 75.468 67.5952 75.7552C67.7052 77.0368 66.6536 78.1768 65.2502 78.2985C65.1702 78.3218 65.0902 78.3218 65.0119 78.3218ZM65.0869 74.6552C65.0369 74.6552 64.9852 74.6552 64.9352 74.6552C64.6636 74.6714 64.4006 74.7563 64.1709 74.9021C63.9411 75.0479 63.7522 75.2497 63.6219 75.4885C63.5239 75.682 63.4817 75.899 63.5002 76.1152C63.5055 76.1713 63.515 76.2271 63.5286 76.2818C63.6952 76.9302 64.3902 77.3668 65.1636 77.3018C66.0186 77.2285 66.6636 76.5735 66.5986 75.8418C66.5853 75.6879 66.5411 75.5382 66.4686 75.4018C66.4273 75.3237 66.3782 75.25 66.3219 75.1818C66.1658 75.0107 65.9747 74.8751 65.7617 74.7842C65.5486 74.6934 65.3185 74.6494 65.0869 74.6552Z" fill="#171718"/>
<path d="M66.7035 74.8749C64.8068 74.7633 63.6618 75.6599 63.0368 76.4149C63.0169 76.3321 63.0029 76.248 62.9952 76.1633C62.9672 75.8563 63.0249 75.5477 63.1618 75.2716C63.3313 74.9685 63.5705 74.7102 63.8598 74.518C64.149 74.3259 64.4799 74.2054 64.8249 74.1666C65.17 74.1278 65.5194 74.1719 65.844 74.295C66.1687 74.4182 66.4593 74.617 66.6918 74.8749H66.7035Z" fill="#171718"/>
<path d="M44.3859 74.8036C42.2692 74.9852 40.3992 73.7369 39.9609 71.9435C39.919 71.775 39.8906 71.6033 39.8759 71.4302C39.8215 70.7982 39.9438 70.1634 40.2292 69.5969C40.8392 68.3736 42.1542 67.4652 43.7442 67.3285C45.2442 67.2002 46.6242 67.7919 47.4526 68.7852C47.6144 68.979 47.7557 69.189 47.8742 69.4119C48.0861 69.8126 48.2153 70.2519 48.2542 70.7035C48.4326 72.7719 46.6992 74.6052 44.3859 74.8036Z" fill="white"/>
<path d="M43.987 75.3217C41.8404 75.3217 39.9437 73.9784 39.4737 72.0634C39.4268 71.8694 39.3945 71.6722 39.377 71.4734C39.3166 70.7523 39.4562 70.0286 39.7804 69.3817C40.4904 67.9584 41.992 66.9834 43.7004 66.8367C45.322 66.6967 46.867 67.31 47.8354 68.4717C48.0198 68.692 48.1807 68.9311 48.3154 69.185C48.5589 69.6446 48.7074 70.1485 48.752 70.6667C48.9537 73 47.0137 75.08 44.4287 75.3017C44.2804 75.3217 44.1404 75.3217 43.987 75.3217ZM44.1537 67.8217C44.0337 67.8217 43.9104 67.8217 43.787 67.8384C42.4237 67.955 41.232 68.72 40.677 69.8384C40.4354 70.3209 40.331 70.8605 40.3754 71.3984C40.3879 71.5461 40.4118 71.6927 40.447 71.8367C40.832 73.4084 42.507 74.475 44.3437 74.3184C46.3804 74.1417 47.912 72.5484 47.757 70.7634C47.722 70.3778 47.6085 70.0035 47.4237 69.6634C47.3225 69.4711 47.2013 69.2901 47.062 69.1234C46.7016 68.7069 46.2542 68.3745 45.7515 68.1497C45.2487 67.9248 44.7027 67.8128 44.152 67.8217H44.1537Z" fill="#171718"/>
<path d="M47.4526 68.7917C43.5709 68.5651 41.2292 70.3967 39.9609 71.9434C39.919 71.7748 39.8906 71.6032 39.8759 71.4301C39.8215 70.798 39.9438 70.1633 40.2292 69.5967C40.8392 68.3734 42.1542 67.4651 43.7442 67.3284C45.2459 67.2067 46.6242 67.7984 47.4526 68.7917Z" fill="#171718"/>
<path d="M48.4156 54.6134C47.2006 54.7184 46.1272 54.0017 45.8756 52.9717C45.8516 52.8748 45.8355 52.7762 45.8272 52.6767C45.7969 52.3159 45.8667 51.9537 46.0289 51.63C46.2282 51.2743 46.5093 50.971 46.849 50.7455C47.1887 50.5199 47.5773 50.3784 47.9825 50.3328C48.3877 50.2872 48.798 50.3388 49.1794 50.4832C49.5607 50.6276 49.9022 50.8608 50.1756 51.1634C50.2679 51.2747 50.3483 51.3954 50.4156 51.5234C50.5378 51.7528 50.6126 52.0045 50.6356 52.2634C50.7372 53.4467 49.7422 54.5 48.4156 54.6134Z" fill="white"/>
<path d="M48.1859 55.1234C46.8525 55.1234 45.6859 54.2901 45.3892 53.0917C45.2523 52.5249 45.3208 51.9278 45.5825 51.4067C45.8192 50.977 46.1554 50.6103 46.563 50.3373C46.9706 50.0644 47.4377 49.8931 47.9252 49.838C48.4126 49.7828 48.9062 49.8453 49.3645 50.0202C49.8228 50.1952 50.2325 50.4774 50.5592 50.8434C50.6747 50.9813 50.7752 51.131 50.8592 51.2901C51.0151 51.5785 51.1114 51.8953 51.1425 52.2217C51.2675 53.6767 50.0675 54.9734 48.4659 55.1117C48.3675 55.1201 48.2759 55.1234 48.1859 55.1234ZM48.2809 50.8167C48.2175 50.8167 48.1542 50.8167 48.0892 50.8167C47.7554 50.8372 47.4322 50.9424 47.1503 51.1223C46.8683 51.3022 46.6368 51.5509 46.4775 51.8451C46.3545 52.0862 46.3019 52.3571 46.3259 52.6267C46.3315 52.7004 46.3432 52.7734 46.3609 52.8451C46.5575 53.6467 47.4225 54.1884 48.3725 54.1067C49.4242 54.0167 50.2159 53.2051 50.1375 52.2984C50.1196 52.1057 50.0629 51.9186 49.9709 51.7484C49.9193 51.6517 49.8579 51.5607 49.7875 51.4767C49.5992 51.2644 49.3669 51.0958 49.1066 50.9827C48.8464 50.8695 48.5646 50.8146 48.2809 50.8217V50.8167Z" fill="#171718"/>
<path d="M50.1756 51.1634C47.9472 51.0334 46.6039 52.0851 45.8756 52.9717C45.8516 52.8748 45.8355 52.7762 45.8272 52.6767C45.7969 52.3159 45.8667 51.9537 46.0289 51.63C46.2282 51.2743 46.5093 50.971 46.849 50.7455C47.1887 50.5199 47.5773 50.3784 47.9825 50.3328C48.3877 50.2872 48.798 50.3388 49.1794 50.4832C49.5607 50.6276 49.9022 50.8608 50.1756 51.1634Z" fill="#171718"/>
<path d="M78.243 51.1168C77.2646 51.2002 76.3997 50.6168 76.1963 49.7935C76.1087 49.4295 76.1529 49.0462 76.3213 48.7118C76.4821 48.4265 76.7083 48.1834 76.9814 48.0026C77.2545 47.8218 77.5666 47.7084 77.8921 47.6718C78.2175 47.6352 78.547 47.6764 78.8535 47.792C79.1599 47.9076 79.4345 48.0944 79.6547 48.3368C79.7294 48.4265 79.7948 48.5237 79.8496 48.6268C79.9483 48.8117 80.0084 49.0147 80.0263 49.2235C80.113 50.1768 79.308 51.0235 78.243 51.1168Z" fill="white"/>
<path d="M78.0569 51.6234C76.9436 51.6234 75.9569 50.9184 75.7103 49.9117C75.5944 49.4331 75.6535 48.9289 75.8769 48.49C76.0748 48.13 76.3562 47.8227 76.6974 47.594C77.0385 47.3652 77.4296 47.2216 77.8378 47.1752C78.246 47.1289 78.6593 47.1811 79.0431 47.3275C79.4269 47.4739 79.77 47.7103 80.0436 48.0167C80.1407 48.1323 80.2251 48.258 80.2953 48.3917C80.4249 48.6363 80.5043 48.9043 80.5286 49.18C80.6336 50.4067 79.6269 51.4984 78.2853 51.6134C78.2086 51.62 78.1403 51.6234 78.0569 51.6234ZM78.1286 48.155C78.0814 48.1525 78.0341 48.1525 77.987 48.155C77.7346 48.1696 77.4902 48.2483 77.2767 48.3836C77.0632 48.5189 76.8878 48.7064 76.767 48.9284C76.676 49.1068 76.6373 49.3073 76.6553 49.5067C76.6597 49.5628 76.668 49.6185 76.6803 49.6734C76.8286 50.2734 77.4803 50.6734 78.1986 50.6184C78.9919 50.55 79.5903 49.9517 79.5319 49.2667C79.5197 49.1245 79.4789 48.9861 79.4119 48.86C79.373 48.788 79.3273 48.7199 79.2753 48.6567C79.1315 48.4954 78.9547 48.3671 78.7568 48.2806C78.5589 48.194 78.3446 48.1512 78.1286 48.155Z" fill="#171718"/>
<path d="M79.6596 48.3368C77.8663 48.2318 76.783 49.0785 76.1963 49.7935C76.1087 49.4295 76.1529 49.0462 76.3213 48.7118C76.4821 48.4265 76.7083 48.1834 76.9814 48.0026C77.2545 47.8218 77.5666 47.7084 77.8921 47.6718C78.2175 47.6352 78.547 47.6764 78.8535 47.792C79.1599 47.9076 79.4345 48.0944 79.6547 48.3368H79.6596Z" fill="#171718"/>
<path d="M101.707 37.8999C101.994 37.3988 102.486 37.0494 103.185 36.8516C104.082 36.632 105.004 36.5328 105.927 36.5566C107.055 36.5566 107.959 36.6727 108.64 36.9049C109.321 37.1372 109.805 37.5138 110.092 38.0349C110.35 38.4729 110.523 38.9559 110.602 39.4583C110.666 40.0833 110.693 40.7117 110.684 41.3399V71.2249C110.684 72.6216 110.513 73.6516 110.172 74.3149C110.018 74.6307 109.8 74.9109 109.532 75.1377C109.263 75.3644 108.951 75.5326 108.614 75.6316C107.765 75.8664 106.887 75.9754 106.007 75.9549C104.967 75.9549 104.143 75.8649 103.535 75.6849C103.033 75.5576 102.559 75.3389 102.137 75.0399C101.797 74.7634 101.553 74.3875 101.438 73.9649C101.224 73.356 101.116 72.4244 101.115 71.1699V64.6133H86.5502C84.0413 64.6133 82.5541 63.9327 82.0885 62.5716C81.8866 61.8183 81.7962 61.0395 81.8202 60.2599C81.8017 59.5394 81.8576 58.819 81.9868 58.1099L86.4485 40.1099C86.6641 39.2866 86.8524 38.6594 87.0135 38.2283C87.2179 37.7371 87.5492 37.3092 87.9735 36.9883C88.5025 36.5781 89.1597 36.3685 89.8285 36.3966C90.6679 36.4078 91.5017 36.534 92.3068 36.7716C94.8146 37.4516 96.0691 38.5983 96.0702 40.2116C96.0392 40.9766 95.9127 41.7347 95.6935 42.4683C95.6637 42.5192 95.6455 42.5761 95.6402 42.6349L92.3618 55.7499H101.122V41.0833C101.111 40.4711 101.138 39.8587 101.204 39.2499C101.284 38.7722 101.455 38.3141 101.707 37.8999Z" fill="white"/>
<path d="M106.008 76.455C104.908 76.455 104.053 76.36 103.395 76.165C102.833 76.021 102.303 75.7734 101.832 75.435C101.413 75.0983 101.11 74.6391 100.965 74.1217C100.732 73.455 100.617 72.4884 100.617 71.17V65.1134H86.5518C83.8168 65.1134 82.1568 64.3117 81.6168 62.7317C81.4168 62.095 81.3218 61.29 81.3218 60.26C81.2978 59.5018 81.3537 58.7432 81.4885 57.9967L85.9585 39.9884C86.1818 39.1317 86.3718 38.5017 86.5401 38.0517C86.7787 37.4783 87.1652 36.9785 87.6601 36.6034C88.2774 36.1218 89.0444 35.8728 89.8268 35.9C90.7095 35.9136 91.5864 36.0465 92.4335 36.295C95.1718 37.0384 96.5618 38.3584 96.5618 40.2167C96.5325 41.0257 96.4004 41.8277 96.1685 42.6034L96.1551 42.6517L96.1318 42.6967L96.1185 42.7517L92.9951 55.2517H100.615V41.085C100.604 40.4522 100.633 39.8193 100.7 39.19C100.791 38.6462 100.987 38.125 101.275 37.655C101.627 37.0384 102.225 36.6067 103.05 36.3734C103.992 36.1422 104.959 36.0369 105.928 36.06C107.105 36.06 108.073 36.1867 108.803 36.435C109.602 36.71 110.183 37.1667 110.532 37.795C110.82 38.2898 111.013 38.8342 111.1 39.4C111.166 40.0456 111.195 40.6945 111.185 41.3434V71.225C111.185 72.725 111 73.8017 110.618 74.5434C110.434 74.9188 110.174 75.2519 109.855 75.5216C109.535 75.7913 109.163 75.9917 108.762 76.11C107.866 76.3589 106.938 76.4752 106.008 76.455ZM89.8301 36.895C89.2768 36.8668 88.7315 37.0364 88.2918 37.3734C87.9355 37.6382 87.6546 37.9915 87.4768 38.3984C87.3218 38.8084 87.1435 39.425 86.9268 40.2317L82.4751 58.23C82.3579 58.9 82.3087 59.5802 82.3285 60.26C82.3049 60.9903 82.3874 61.7201 82.5735 62.4267C82.9568 63.545 84.2985 64.1184 86.5585 64.1184H101.623V71.175C101.623 72.3667 101.723 73.2517 101.918 73.805V73.825C102 74.1521 102.185 74.4442 102.445 74.6584C102.818 74.9189 103.236 75.1092 103.677 75.22C104.235 75.3867 105.02 75.4684 106.01 75.4684C106.843 75.485 107.673 75.3794 108.475 75.155C108.748 75.0756 109.002 74.9396 109.219 74.7559C109.437 74.5721 109.613 74.3447 109.737 74.0884C110.038 73.5 110.192 72.5367 110.192 71.2267V41.34C110.2 40.7324 110.175 40.1248 110.115 39.52C110.042 39.0807 109.888 38.6586 109.662 38.275C109.435 37.865 109.05 37.5717 108.487 37.3784C107.86 37.165 107.002 37.0567 105.935 37.0567C105.058 37.0341 104.181 37.1272 103.328 37.3334C102.757 37.5 102.37 37.7617 102.15 38.1484C101.93 38.5062 101.778 38.9018 101.702 39.315C101.641 39.8996 101.615 40.4874 101.625 41.075V56.2417H91.7151L95.1418 42.545C95.1559 42.4586 95.1817 42.3745 95.2185 42.295C95.4198 41.6176 95.5368 40.9178 95.5668 40.2117C95.5668 38.8417 94.4568 37.8784 92.1735 37.2534C91.4121 37.0289 90.6238 36.9083 89.8301 36.895Z" fill="#171718"/>
<path d="M21.2068 37.8999C21.4935 37.3988 21.9863 37.0494 22.6852 36.8516C23.5819 36.632 24.5039 36.5328 25.4268 36.5566C26.5546 36.5566 27.4591 36.6727 28.1402 36.9049C28.8213 37.1372 29.3052 37.5138 29.5918 38.0349C29.8503 38.4729 30.0233 38.9559 30.1018 39.4583C30.1659 40.0833 30.1932 40.7117 30.1835 41.3399V71.2249C30.1835 72.6216 30.013 73.6516 29.6718 74.3149C29.518 74.6307 29.2999 74.9109 29.0316 75.1377C28.7632 75.3644 28.4506 75.5326 28.1135 75.6316C27.2651 75.8664 26.3869 75.9754 25.5068 75.9549C24.4668 75.9549 23.643 75.8649 23.0352 75.6849C22.5334 75.5576 22.0594 75.3389 21.6368 75.0399C21.2974 74.7634 21.0531 74.3875 20.9385 73.9649C20.7229 73.356 20.6152 72.4244 20.6152 71.1699V64.6133H6.05017C3.54239 64.6133 2.05517 63.9327 1.5885 62.5716C1.38663 61.8183 1.29622 61.0395 1.32017 60.2599C1.30172 59.5394 1.35757 58.819 1.48684 58.1099L5.94851 40.1099C6.16406 39.2866 6.35239 38.6594 6.5135 38.2283C6.7179 37.7371 7.04922 37.3092 7.4735 36.9883C8.00253 36.5781 8.65969 36.3685 9.32851 36.3966C10.1679 36.4078 11.0017 36.534 11.8068 36.7716C14.3146 37.4516 15.5691 38.5983 15.5702 40.2116C15.5392 40.9766 15.4127 41.7347 15.1935 42.4683C15.1637 42.5192 15.1455 42.5761 15.1402 42.6349L11.8618 55.7499H20.6218V41.0833C20.6106 40.4711 20.6379 39.8587 20.7035 39.2499C20.7844 38.7722 20.9552 38.3141 21.2068 37.8999Z" fill="white"/>
<path d="M25.5085 76.455C24.4085 76.455 23.5535 76.36 22.8951 76.165C22.3332 76.021 21.803 75.7734 21.3318 75.435C20.9131 75.0983 20.6101 74.6391 20.4651 74.1217C20.2318 73.455 20.1168 72.4884 20.1168 71.17V65.1134H6.05181C3.31681 65.1134 1.65681 64.3117 1.11681 62.7317C0.916815 62.095 0.821814 61.29 0.821814 60.26C0.797826 59.5018 0.85369 58.7432 0.98848 57.9967L5.45848 39.9884C5.68181 39.1317 5.87182 38.5017 6.04015 38.0517C6.27871 37.4783 6.6652 36.9785 7.16014 36.6034C7.77736 36.1218 8.5444 35.8728 9.32681 35.9C10.2095 35.9136 11.0864 36.0465 11.9335 36.295C14.6718 37.0384 16.0618 38.3584 16.0618 40.2167C16.0325 41.0257 15.9004 41.8277 15.6685 42.6034L15.6551 42.6517L15.6318 42.6967L15.6185 42.7517L12.4951 55.2517H20.1151V41.085C20.1043 40.4522 20.1327 39.8193 20.2001 39.19C20.2914 38.6462 20.4866 38.125 20.7751 37.655C21.1268 37.0384 21.7251 36.6067 22.5501 36.3734C23.4915 36.1422 24.4594 36.0369 25.4285 36.06C26.6051 36.06 27.5735 36.1867 28.3035 36.435C29.1018 36.71 29.6835 37.1667 30.0318 37.795C30.32 38.2898 30.5128 38.8342 30.6001 39.4C30.6663 40.0456 30.6947 40.6945 30.6851 41.3434V71.225C30.6851 72.725 30.5001 73.8017 30.1185 74.5434C29.9343 74.9188 29.6742 75.2519 29.3546 75.5216C29.035 75.7913 28.6629 75.9917 28.2618 76.11C27.3658 76.3589 26.4382 76.4752 25.5085 76.455ZM9.33015 36.895C8.77684 36.8668 8.23154 37.0364 7.79181 37.3734C7.4355 37.6382 7.15456 37.9915 6.97682 38.3984C6.82182 38.8084 6.64348 39.425 6.42681 40.2317L1.97515 58.23C1.85786 58.9 1.80872 59.5802 1.82848 60.26C1.80488 60.9903 1.8874 61.7201 2.07348 62.4267C2.45681 63.545 3.79848 64.1184 6.05848 64.1184H21.1235V71.175C21.1235 72.3667 21.2235 73.2517 21.4185 73.805V73.825C21.5002 74.1521 21.6849 74.4442 21.9451 74.6584C22.3182 74.9189 22.7355 75.1092 23.1768 75.22C23.7351 75.3867 24.5201 75.4684 25.5101 75.4684C26.3427 75.485 27.1732 75.3794 27.9751 75.155C28.2485 75.0756 28.502 74.9396 28.7194 74.7559C28.9368 74.5721 29.113 74.3447 29.2368 74.0884C29.5385 73.5 29.6918 72.5367 29.6918 71.2267V41.34C29.7003 40.7324 29.6747 40.1248 29.6151 39.52C29.5419 39.0807 29.3882 38.6586 29.1618 38.275C28.9351 37.865 28.5501 37.5717 27.9868 37.3784C27.3601 37.165 26.5018 37.0567 25.4351 37.0567C24.5579 37.0341 23.6815 37.1272 22.8285 37.3334C22.2568 37.5 21.8701 37.7617 21.6501 38.1484C21.4298 38.5062 21.2778 38.9018 21.2018 39.315C21.1409 39.8996 21.1153 40.4874 21.1251 41.075V56.2417H11.2151L14.6418 42.545C14.6559 42.4586 14.6817 42.3745 14.7185 42.295C14.9198 41.6176 15.0368 40.9178 15.0668 40.2117C15.0668 38.8417 13.9568 37.8784 11.6735 37.2534C10.9121 37.0289 10.1238 36.9083 9.33015 36.895Z" fill="#171718"/>
</svg>
