<svg width="158" height="110" viewBox="0 0 158 110" fill="none" xmlns="http://www.w3.org/2000/svg">
<path d="M63.6696 109.483C93.5003 109.483 117.683 107.837 117.683 105.806C117.683 103.775 93.5003 102.129 63.6696 102.129C33.8388 102.129 9.65625 103.775 9.65625 105.806C9.65625 107.837 33.8388 109.483 63.6696 109.483Z" fill="#171718"/>
<path d="M4.51353 61.4973L43.7702 18.3007L91.6219 61.7873L52.4319 104.909C51.6946 105.721 50.7586 106.328 49.7159 106.668C48.6733 107.009 47.5598 107.072 46.4852 106.852C36.8702 104.871 10.9735 96.8707 3.07853 67.3707C2.8076 66.3498 2.79699 65.2772 3.04768 64.2512C3.29837 63.2251 3.80236 62.2783 4.51353 61.4973Z" fill="white"/>
<path d="M47.7438 107.483C47.2875 107.483 46.8324 107.436 46.3855 107.344C41.7571 106.391 32.6755 103.887 23.8555 97.8442C13.1888 90.5292 6.02213 80.3208 2.59879 67.5008C2.30347 66.4003 2.29036 65.243 2.5607 64.136C2.83104 63.029 3.37608 62.0081 4.14546 61.1675L43.7388 17.6008L92.3305 61.7542L91.9971 62.1242L52.8038 105.246C52.1621 105.95 51.3807 106.512 50.5095 106.897C49.6383 107.283 48.6963 107.482 47.7438 107.483ZM43.8071 19.0075L4.88546 61.8408C4.22803 62.5584 3.76225 63.4302 3.53122 64.3755C3.3002 65.3209 3.3114 66.3093 3.56379 67.2492C11.2971 96.1492 36.2305 104.234 46.5871 106.369C47.5767 106.569 48.6013 106.51 49.5611 106.197C50.5209 105.883 51.3831 105.327 52.0638 104.581L90.9171 61.8158L43.8071 19.0075Z" fill="#171718"/>
<path d="M91.6277 61.7748C96.477 56.4379 89.6955 42.3774 76.4808 30.3698C63.266 18.3621 48.6221 12.9544 43.7727 18.2912C38.9234 23.6281 45.7049 37.6886 58.9196 49.6963C72.1344 61.7039 86.7783 67.1117 91.6277 61.7748Z" fill="white"/>
<path d="M86.0094 64.346C83.7928 64.346 81.1761 63.806 78.2344 62.721C71.9978 60.416 65.0178 55.9259 58.5811 50.0759C52.1444 44.2259 47.0094 37.706 44.1211 31.7193C41.1661 25.591 40.9111 20.706 43.4028 17.9643C45.8944 15.2226 50.7811 15.011 57.1628 17.3676C63.3994 19.671 70.3794 24.1626 76.8161 30.0126C83.2528 35.8626 88.3878 42.381 91.2761 48.3693C94.2311 54.4976 94.4861 59.3826 91.9944 62.1243C90.6494 63.6026 88.6078 64.346 86.0094 64.346ZM49.3794 16.7326C47.0811 16.7326 45.2961 17.3676 44.1428 18.6376C41.9444 21.056 42.2561 25.5476 45.0228 31.2843C47.8561 37.1593 52.9094 43.5709 59.2544 49.3359C65.5994 55.1009 72.4628 59.5226 78.5878 61.7826C84.5611 63.9893 89.0611 63.8709 91.2544 61.4493C93.4478 59.0276 93.1411 54.5376 90.3744 48.8026C87.5411 42.9276 82.4878 36.5159 76.1428 30.7509C69.7978 24.9859 62.9361 20.5643 56.8094 18.3043C53.9744 17.256 51.4661 16.7326 49.3794 16.7326Z" fill="#171718"/>
<path d="M86.9637 57.5543C86.8696 57.6591 86.7689 57.7576 86.662 57.8493C84.172 59.9376 78.307 58.3493 71.562 54.1826C69.0218 52.5972 66.5938 50.8385 64.2953 48.9193C63.4253 48.1993 62.5581 47.4465 61.6937 46.661C51.052 36.9943 45.117 26.1893 48.437 22.536C51.757 18.8826 63.0753 23.761 73.7153 33.431C75.5617 35.1066 77.3223 36.8744 78.9903 38.7276C86.1887 46.766 89.6837 54.5593 86.9637 57.5543Z" fill="#E0F2FE"/>
<path d="M83.5991 59.261C80.5358 59.261 76.2308 57.6627 71.2942 54.606C68.7329 53.0096 66.2853 51.2376 63.9691 49.3027C63.0786 48.565 62.2056 47.8065 61.3508 47.0277C50.3408 37.0277 44.5025 26.1144 48.0608 22.1944C49.8225 20.2577 53.5375 20.3744 58.5225 22.5277C63.3558 24.6077 68.8558 28.3477 74.0458 33.061C75.9043 34.749 77.6771 36.529 79.3575 38.3944C82.9708 42.4277 85.6675 46.3844 87.1558 49.8377C88.7341 53.5044 88.7958 56.2844 87.3358 57.8944C87.224 58.0128 87.1049 58.1242 86.9791 58.2277C86.1541 58.9227 85.0075 59.261 83.5991 59.261ZM51.7975 21.8244C50.4641 21.8244 49.4358 22.171 48.7975 22.871C45.7225 26.2544 51.7775 36.9794 62.0191 46.2894C62.8525 47.0427 63.7175 47.7894 64.6042 48.5327C66.8854 50.4372 69.2949 52.1824 71.8158 53.756C78.5375 57.9227 84.0991 59.3377 86.3308 57.466C86.4235 57.3892 86.5109 57.3062 86.5925 57.2177C87.7591 55.9394 87.6258 53.4577 86.2341 50.2294C84.8091 46.9227 82.1008 42.956 78.6091 39.0627C76.9522 37.2222 75.2033 35.4666 73.3691 33.8027C68.2625 29.1627 62.8492 25.4844 58.1242 23.4477C55.6275 22.3677 53.4675 21.8244 51.7975 21.8244Z" fill="#171718"/>
<path d="M4.59425 61.4575C3.06491 60.068 2.005 58.2378 1.56103 56.2197C1.11706 54.2017 1.31095 52.0956 2.11591 50.1926C6.58425 39.5459 13.3492 34.1126 16.9842 31.8226C18.9142 30.6059 20.7376 30.1059 22.5576 30.2959C27.0659 30.7626 31.6442 31.8775 34.7709 32.7575C35.2805 32.9012 35.7554 33.1475 36.1663 33.4813C36.5773 33.8151 36.9157 34.2294 37.1607 34.6987C37.4058 35.1681 37.5523 35.6825 37.5913 36.2105C37.6303 36.7386 37.561 37.269 37.3876 37.7692C37.0644 38.7065 36.3949 39.4847 35.5164 39.9442C34.6379 40.4038 33.6168 40.5099 32.6626 40.2409C29.8626 39.4542 25.7692 38.4509 21.8459 38.0342C21.5907 38.1224 21.3485 38.2446 21.1259 38.3975C18.8226 39.8492 13.0592 44.1959 9.27925 53.1992C9.09973 53.6314 9.05944 54.1088 9.164 54.565C9.26855 55.0212 9.51275 55.4334 9.86258 55.7442C10.8626 56.6092 12.9509 57.5925 15.2892 58.5542C16.2287 58.9371 16.9811 59.6722 17.386 60.6023C17.7908 61.5325 17.8159 62.5841 17.4559 63.5325C17.2714 64.0171 16.9917 64.4598 16.6334 64.8345C16.2751 65.2093 15.8455 65.5086 15.3697 65.7147C14.894 65.9208 14.3818 66.0296 13.8633 66.0347C13.3448 66.0397 12.8306 65.941 12.3509 65.7442C8.86425 64.3092 6.47591 63.0776 4.78758 61.6226C4.71925 61.5692 4.66258 61.5125 4.59425 61.4575Z" fill="white"/>
<path d="M13.8303 66.5375C13.2583 66.5367 12.692 66.4234 12.1636 66.2042C8.31863 64.6225 6.08696 63.4042 4.46196 61.9992C4.39696 61.9425 4.3303 61.8842 4.26696 61.8325C2.66333 60.3709 1.55186 58.4485 1.08538 56.3295C0.618907 54.2105 0.820333 51.999 1.66196 49.9992C6.18363 39.2258 13.0403 33.7225 16.7253 31.3992C18.7536 30.1208 20.6803 29.5975 22.617 29.7975C27.1886 30.2725 31.827 31.4075 34.9136 32.2758C35.4888 32.438 36.0248 32.716 36.4887 33.0927C36.9526 33.4695 37.3346 33.9371 37.6113 34.4668C37.888 34.9964 38.0536 35.5771 38.0978 36.1731C38.1421 36.769 38.0641 37.3677 37.8686 37.9325C37.5021 38.9893 36.7462 39.8664 35.7551 40.3848C34.764 40.9033 33.6124 41.0241 32.5353 40.7225C29.822 39.9592 25.7886 38.9658 21.9136 38.5442C21.7353 38.6213 21.5641 38.7139 21.402 38.8208C19.1386 40.2458 13.4736 44.5208 9.7503 53.3942C9.61078 53.7288 9.57914 54.0986 9.65981 54.452C9.74047 54.8054 9.92942 55.1249 10.2003 55.3658C11.0153 56.0708 12.7453 56.9625 15.4886 58.0908C16.4282 58.4773 17.2045 59.1779 17.6852 60.0729C18.1658 60.9679 18.3211 62.002 18.1244 62.9987C17.9277 63.9954 17.3913 64.893 16.6067 65.5383C15.8221 66.1837 14.8379 66.5368 13.822 66.5375H13.8303ZM4.9403 61.0875L5.11696 61.2442C6.6553 62.5775 8.80696 63.7442 12.5453 65.2808C12.9582 65.4576 13.4021 65.5505 13.8512 65.554C14.3003 65.5575 14.7457 65.4716 15.1613 65.3012C15.5768 65.1309 15.9544 64.8796 16.2719 64.5619C16.5894 64.2443 16.8405 63.8666 17.0106 63.4509C17.1806 63.0352 17.2663 62.5898 17.2625 62.1407C17.2588 61.6916 17.1657 61.2477 16.9887 60.8349C16.8116 60.4222 16.5542 60.0487 16.2315 59.7364C15.9087 59.4241 15.527 59.1792 15.1086 59.0158C12.2253 57.8292 10.4586 56.9108 9.54696 56.1225C9.11748 55.7426 8.81751 55.2379 8.68901 54.679C8.56051 54.1202 8.60991 53.5352 8.8303 53.0058C12.6636 43.8708 18.527 39.4508 20.8703 37.9742C21.1327 37.7953 21.4188 37.654 21.7203 37.5542L21.8136 37.5275L21.9103 37.5375C25.887 37.9592 30.032 38.9792 32.8086 39.7592C33.4457 39.9385 34.1213 39.9272 34.752 39.7268C35.3827 39.5264 35.9409 39.1455 36.3575 38.6314C36.7742 38.1172 37.031 37.4922 37.0964 36.8337C37.1618 36.1751 37.0327 35.5119 36.7253 34.9258C36.5131 34.5164 36.2187 34.1551 35.8605 33.8646C35.5023 33.5741 35.0881 33.3606 34.6436 33.2375C31.5953 32.3792 27.017 31.2575 22.5153 30.7908C20.812 30.6142 19.092 31.0892 17.2603 32.2442C13.6636 34.5042 6.99696 39.8658 2.57696 50.3858C1.81805 52.1947 1.63699 54.194 2.05858 56.1099C2.48018 58.0257 3.4838 59.7643 4.93196 61.0875H4.9403Z" fill="#171718"/>
<path d="M76.6822 9.68412L78.6505 9.25579L79.0955 7.29246C79.1037 7.25881 79.1229 7.22888 79.1501 7.20743C79.1773 7.18599 79.2109 7.17426 79.2455 7.17412C79.2799 7.17434 79.3133 7.18613 79.3402 7.20759C79.3671 7.22906 79.386 7.25895 79.3939 7.29246L79.8422 9.26579L81.8105 9.73246C81.8441 9.74044 81.874 9.75951 81.8953 9.78658C81.9167 9.81365 81.9284 9.84713 81.9284 9.88162C81.9284 9.91612 81.9167 9.9496 81.8953 9.97667C81.874 10.0037 81.8441 10.0228 81.8105 10.0308L79.8439 10.4575L79.3972 12.4225C79.3893 12.456 79.3704 12.4859 79.3435 12.5073C79.3166 12.5288 79.2833 12.5406 79.2489 12.5408C79.2142 12.5407 79.1806 12.5289 79.1535 12.5075C79.1263 12.486 79.107 12.4561 79.0989 12.4225L78.6472 10.4491L76.6789 9.98246C76.6453 9.97447 76.6154 9.9554 76.594 9.92834C76.5727 9.90127 76.561 9.86779 76.561 9.83329C76.561 9.7988 76.5727 9.76531 76.594 9.73825C76.6154 9.71118 76.6453 9.69211 76.6789 9.68412H76.6822ZM15.6122 15.0508L17.5805 14.6241L18.0272 12.6591C18.0344 12.6252 18.0531 12.5947 18.0801 12.5729C18.1071 12.551 18.1408 12.5391 18.1755 12.5391C18.2103 12.5391 18.2439 12.551 18.2709 12.5729C18.2979 12.5947 18.3166 12.6252 18.3239 12.6591L18.7722 14.6325L20.7405 15.0991C20.7741 15.1071 20.804 15.1262 20.8253 15.1532C20.8467 15.1803 20.8584 15.2138 20.8584 15.2483C20.8584 15.2828 20.8467 15.3163 20.8253 15.3433C20.804 15.3704 20.7741 15.3895 20.7405 15.3975L18.7722 15.8258L18.3305 17.7891C18.3233 17.8231 18.3046 17.8535 18.2776 17.8754C18.2506 17.8972 18.2169 17.9092 18.1822 17.9092C18.1475 17.9092 18.1138 17.8972 18.0868 17.8754C18.0598 17.8535 18.0411 17.8231 18.0339 17.7891L17.5789 15.8158L15.6105 15.3491C15.5767 15.3412 15.5466 15.3221 15.5251 15.2948C15.5036 15.2676 15.492 15.2338 15.4922 15.1991C15.4922 15.1644 15.5041 15.1307 15.5259 15.1037C15.5478 15.0767 15.5782 15.058 15.6122 15.0508ZM86.6172 1.81579L87.6355 1.59413L87.8655 0.579123C87.8693 0.561631 87.879 0.545976 87.893 0.534756C87.9069 0.523536 87.9243 0.517428 87.9422 0.517457C87.9603 0.517353 87.9779 0.523396 87.9921 0.534598C88.0064 0.5458 88.0164 0.561496 88.0205 0.579123L88.2522 1.59913L89.2705 1.84079C89.2877 1.84493 89.303 1.85476 89.3139 1.86867C89.3248 1.88259 89.3306 1.89978 89.3305 1.91746C89.3303 1.93528 89.324 1.9525 89.3129 1.96639C89.3017 1.98028 89.2862 1.99004 89.2689 1.99413L88.2505 2.21579L88.0205 3.23079C88.0164 3.24842 88.0064 3.26412 87.9921 3.27532C87.9779 3.28652 87.9603 3.29256 87.9422 3.29246C87.9243 3.29249 87.9069 3.28638 87.893 3.27516C87.879 3.26394 87.8693 3.24828 87.8655 3.23079L87.6339 2.21079L86.6155 1.96913C86.5982 1.96527 86.5827 1.95552 86.5718 1.94154C86.5609 1.92756 86.5551 1.91021 86.5555 1.89246C86.5555 1.87456 86.5616 1.85719 86.5728 1.84324C86.584 1.82929 86.5997 1.8196 86.6172 1.81579Z" fill="#171718"/>
<path d="M143.534 54.3556C143.322 59.924 137.314 62.3557 129.981 67.7657C127.647 69.489 131.359 77.2657 125.647 78.5373C122.554 79.224 119.962 79.124 117.271 69.0373C115.429 62.109 111.347 57.764 90.6874 58.3157C90.6874 58.3157 89.1691 58.2206 86.6557 57.854C81.52 57.1007 76.465 55.8732 71.5557 54.1873C69.0155 52.6018 66.5875 50.8432 64.2891 48.924C65.7024 46.4107 69.4557 41.9157 78.9841 38.7323C79.5024 38.5657 80.0407 38.3907 80.5941 38.224C83.8874 37.2423 87.9007 31.8273 90.8291 29.0423C92.6824 27.2806 97.3807 23.1473 100.799 32.7473C103.341 39.8807 144.461 29.994 143.534 54.3556Z" fill="white"/>
<path d="M123.813 79.2842C121.262 79.2842 119.012 77.4792 116.793 69.1642C116.01 66.2309 114.745 63.2492 110.815 61.3192C106.815 59.3509 100.418 58.5542 90.6984 58.8192H90.6634C90.6001 58.8192 89.0951 58.7175 86.5918 58.3525C81.4214 57.5911 76.3329 56.3513 71.3918 54.6492L71.3401 54.6325L71.2934 54.6025C68.7322 53.0061 66.2846 51.2341 63.9684 49.2992L63.6484 49.0325L63.8518 48.6692C65.2551 46.1692 69.0651 41.5025 78.8251 38.2475C79.3118 38.0809 79.8434 37.9142 80.4501 37.7359C82.6768 37.0692 85.3668 34.1359 87.7401 31.5459C88.7168 30.4809 89.6401 29.4742 90.4851 28.6709C91.4434 27.7592 93.6901 25.6225 96.2301 26.2292C98.2468 26.7092 99.9434 28.8442 101.27 32.5709C102.045 34.7475 107.628 35.1742 114.093 35.6675C120.657 36.1675 128.093 36.7359 134.013 39.2059C141.032 42.1342 144.31 47.0942 144.032 54.3725C143.865 58.9192 140.157 61.4109 135.032 64.8575C133.515 65.8792 131.945 66.9342 130.277 68.1659C129.57 68.6875 129.58 70.2009 129.59 71.8025C129.608 74.6359 129.632 78.1642 125.757 79.0225C125.12 79.1796 124.469 79.2673 123.813 79.2842ZM94.0751 57.7642C111.383 57.7642 115.85 61.7475 117.76 68.9059C119.877 76.8392 121.89 78.2992 123.84 78.3009C124.416 78.2791 124.988 78.1947 125.545 78.0492C128.627 77.3659 128.608 74.5492 128.59 71.8125C128.578 69.9475 128.567 68.1875 129.682 67.3642C131.37 66.1192 133.015 65.0109 134.473 64.0309C139.353 60.7475 142.88 58.3759 143.033 54.3359C143.292 47.5259 140.217 42.8792 133.628 40.1309C127.858 37.7225 120.505 37.1609 114.018 36.6659C106.923 36.1242 101.32 35.6959 100.328 32.9075C99.1218 29.5192 97.6618 27.6009 95.9951 27.2025C94.2101 26.7775 92.4801 28.1525 91.1618 29.3975C90.3418 30.1775 89.4301 31.1709 88.4668 32.2225C86.0051 34.9092 83.2151 37.9525 80.7251 38.6959C80.1917 38.855 79.6605 39.0217 79.1318 39.1959C70.1484 42.1959 66.4118 46.3625 64.9234 48.7992C67.091 50.5881 69.3737 52.2327 71.7568 53.7225C76.6195 55.3897 81.6257 56.6043 86.7118 57.3509C89.0134 57.6842 90.4884 57.7942 90.6818 57.8075C91.8684 57.7797 92.9995 57.7653 94.0751 57.7642Z" fill="#171718"/>
<path d="M102.974 27.096C104.991 27.096 106.627 25.8685 106.627 24.3543C106.627 22.8402 104.991 21.6127 102.974 21.6127C100.956 21.6127 99.3203 22.8402 99.3203 24.3543C99.3203 25.8685 100.956 27.096 102.974 27.096Z" fill="white"/>
<path d="M102.975 27.6008C102.002 27.6114 101.047 27.3311 100.235 26.7958C99.3664 26.2025 98.8647 25.3775 98.823 24.4708C98.783 23.5925 99.183 22.7592 99.9514 22.1242C101.491 20.8525 104.021 20.7591 105.711 21.9125C106.58 22.5041 107.081 23.3291 107.123 24.2358C107.163 25.1158 106.763 25.9492 105.995 26.5825C105.135 27.2589 104.068 27.6185 102.975 27.6008ZM102.975 22.1008C102.114 22.0836 101.272 22.3618 100.591 22.8892C100.071 23.3175 99.7997 23.8608 99.8264 24.4175C99.853 25.0025 100.2 25.5508 100.801 25.9625C102.121 26.8625 104.166 26.7958 105.361 25.8041C105.881 25.3758 106.153 24.8325 106.128 24.2758C106.101 23.6908 105.755 23.1425 105.151 22.7308C104.503 22.3116 103.744 22.0947 102.971 22.1075L102.975 22.1008Z" fill="#171718"/>
<path d="M151.768 63.4811C154.472 63.4811 156.664 61.6663 156.664 59.4277C156.664 57.1891 154.472 55.3744 151.768 55.3744C149.063 55.3744 146.871 57.1891 146.871 59.4277C146.871 61.6663 149.063 63.4811 151.768 63.4811Z" fill="white"/>
<path d="M151.762 63.9725C150.474 63.9864 149.215 63.5843 148.174 62.8258C147.074 61.9925 146.434 60.8541 146.375 59.6075C146.319 58.3875 146.827 57.2241 147.807 56.3325C149.792 54.5241 153.18 54.3875 155.36 56.0275C156.462 56.8608 157.1 57.9991 157.159 59.2458C157.217 60.4658 156.709 61.6291 155.727 62.5225C154.672 63.4825 153.219 63.9725 151.762 63.9725ZM151.762 55.8708C150.556 55.8519 149.386 56.2793 148.475 57.0708C147.72 57.7608 147.327 58.6441 147.37 59.5608C147.414 60.5041 147.912 61.3808 148.77 62.0275C150.585 63.3925 153.402 63.2841 155.049 61.7841C155.805 61.0941 156.199 60.2108 156.155 59.2941C156.112 58.3491 155.614 57.4741 154.755 56.8275C153.888 56.1954 152.84 55.8599 151.767 55.8708H151.762Z" fill="#171718"/>
<path d="M137.231 71.8627C138.347 71.8627 139.251 71.0837 139.251 70.1227C139.251 69.1617 138.347 68.3827 137.231 68.3827C136.115 68.3827 135.211 69.1617 135.211 70.1227C135.211 71.0837 136.115 71.8627 137.231 71.8627Z" fill="white"/>
<path d="M137.231 72.3676C136.628 72.3704 136.042 72.1722 135.564 71.8043C135.315 71.6175 135.11 71.3786 134.963 71.1042C134.816 70.8299 134.73 70.5267 134.713 70.2159C134.7 69.9116 134.755 69.6083 134.873 69.3273C134.99 69.0463 135.167 68.7944 135.393 68.5893C135.867 68.1598 136.477 67.9098 137.116 67.8827C137.755 67.8556 138.384 68.0531 138.893 68.4409C139.142 68.6273 139.347 68.866 139.493 69.1401C139.64 69.4142 139.725 69.7171 139.743 70.0276C139.756 70.3321 139.702 70.6358 139.584 70.9172C139.467 71.1985 139.29 71.4507 139.064 71.6559C138.566 72.1181 137.91 72.3726 137.231 72.3676ZM137.231 68.8859C136.806 68.8783 136.395 69.032 136.079 69.3159C135.959 69.4225 135.864 69.5542 135.8 69.7017C135.737 69.8491 135.706 70.0087 135.711 70.1693C135.723 70.336 135.771 70.4981 135.852 70.6443C135.932 70.7906 136.044 70.9174 136.179 71.0159C136.502 71.2531 136.895 71.3736 137.295 71.3579C137.695 71.3421 138.078 71.191 138.381 70.9293C138.501 70.8227 138.596 70.691 138.66 70.5436C138.724 70.3961 138.754 70.2365 138.749 70.0759C138.738 69.9092 138.69 69.7471 138.609 69.6009C138.528 69.4546 138.416 69.3278 138.281 69.2293C137.979 69.0016 137.609 68.8808 137.231 68.8859Z" fill="#171718"/>
<path d="M128.024 95.6291C129.14 95.6291 130.044 95.0165 130.044 94.2608C130.044 93.5051 129.14 92.8925 128.024 92.8925C126.908 92.8925 126.004 93.5051 126.004 94.2608C126.004 95.0165 126.908 95.6291 128.024 95.6291Z" fill="white"/>
<path d="M128.022 96.1292C127.453 96.1365 126.893 95.9878 126.402 95.6992C125.856 95.3659 125.529 94.8659 125.504 94.3226C125.502 94.0499 125.567 93.781 125.694 93.5396C125.82 93.2983 126.005 93.092 126.231 92.9392C127.144 92.2576 128.644 92.2059 129.646 92.8226C130.192 93.1559 130.519 93.6559 130.542 94.1976C130.545 94.4701 130.481 94.7391 130.354 94.9805C130.228 95.222 130.043 95.4282 129.817 95.5809C129.292 95.9488 128.664 96.1408 128.022 96.1292ZM128.022 93.3909C127.597 93.3804 127.18 93.5027 126.827 93.7409C126.733 93.7972 126.655 93.8757 126.598 93.9696C126.542 94.0635 126.509 94.1698 126.504 94.2792C126.512 94.4809 126.671 94.6876 126.927 94.8476C127.581 95.2492 128.631 95.2192 129.221 94.7792C129.315 94.723 129.393 94.6444 129.45 94.5505C129.506 94.4566 129.538 94.3503 129.544 94.2409C129.544 94.0409 129.377 93.8342 129.121 93.6742C128.787 93.4819 128.407 93.384 128.022 93.3909Z" fill="#171718"/>
<path d="M119.358 82.0091C120.259 82.0091 120.99 81.4487 120.99 80.7575C120.99 80.0662 120.259 79.5058 119.358 79.5058C118.457 79.5058 117.727 80.0662 117.727 80.7575C117.727 81.4487 118.457 82.0091 119.358 82.0091Z" fill="white"/>
<path d="M119.357 82.5111C118.864 82.5165 118.382 82.3711 117.974 82.0944C117.76 81.9543 117.582 81.767 117.453 81.5471C117.323 81.3272 117.246 81.0805 117.227 80.8261C117.221 80.5791 117.272 80.334 117.376 80.11C117.48 79.8859 117.634 79.6889 117.827 79.5344C118.24 79.2131 118.743 79.0294 119.266 79.0091C119.788 78.9888 120.304 79.1329 120.74 79.4211C120.954 79.5612 121.133 79.7486 121.263 79.9689C121.392 80.1891 121.47 80.4362 121.489 80.6911C121.495 80.938 121.444 81.183 121.34 81.407C121.236 81.6311 121.081 81.8281 120.889 81.9827C120.456 82.3323 119.914 82.5192 119.357 82.5111ZM119.357 80.0111C119.037 80.0043 118.725 80.1079 118.472 80.3044C118.397 80.3604 118.335 80.433 118.293 80.5165C118.25 80.6 118.227 80.6923 118.225 80.7861C118.237 80.8885 118.271 80.9869 118.327 81.0737C118.382 81.1604 118.457 81.2331 118.545 81.2861C118.8 81.4505 119.099 81.5331 119.403 81.523C119.706 81.5129 119.999 81.4104 120.242 81.2294C120.318 81.1739 120.379 81.1017 120.422 81.0184C120.465 80.9351 120.488 80.843 120.489 80.7494C120.478 80.647 120.443 80.5486 120.387 80.4618C120.332 80.3751 120.257 80.3024 120.169 80.2494C119.929 80.087 119.646 80.0015 119.357 80.0044V80.0111Z" fill="#171718"/>
<path d="M127.092 89.6606C129.325 89.6606 131.134 88.1891 131.134 86.3739C131.134 84.5588 129.325 83.0873 127.092 83.0873C124.86 83.0873 123.051 84.5588 123.051 86.3739C123.051 88.1891 124.86 89.6606 127.092 89.6606Z" fill="white"/>
<path d="M127.086 90.1493C126.008 90.1619 124.953 89.8309 124.076 89.2043C123.143 88.5143 122.601 87.5609 122.553 86.5176C122.536 86.0005 122.636 85.4862 122.846 85.0134C123.056 84.5406 123.371 84.1215 123.766 83.7876C125.433 82.2876 128.276 82.1843 130.099 83.5359C131.033 84.2259 131.573 85.1793 131.621 86.2226C131.638 86.7398 131.538 87.2542 131.328 87.727C131.118 88.1999 130.803 88.6189 130.408 88.9526C129.483 89.7422 128.302 90.1676 127.086 90.1493ZM127.086 83.5793C126.114 83.5627 125.17 83.9017 124.431 84.5326C124.146 84.7696 123.919 85.0684 123.767 85.4062C123.615 85.7441 123.541 86.1122 123.553 86.4826C123.586 87.2193 123.983 87.9043 124.669 88.4126C126.138 89.4976 128.416 89.4126 129.748 88.2193C130.031 87.9836 130.258 87.6868 130.411 87.3511C130.563 87.0155 130.638 86.6496 130.629 86.2809C130.594 85.5443 130.198 84.8593 129.511 84.3509C128.805 83.8451 127.957 83.5766 127.089 83.5843L127.086 83.5793Z" fill="#171718"/>
<path d="M113.361 29.3574C114.091 29.3574 114.682 28.8716 114.682 28.2724C114.682 27.6731 114.091 27.1874 113.361 27.1874C112.631 27.1874 112.039 27.6731 112.039 28.2724C112.039 28.8716 112.631 29.3574 113.361 29.3574Z" fill="white"/>
<path d="M113.36 29.8575C112.933 29.8613 112.516 29.7275 112.172 29.4758C111.989 29.3448 111.837 29.1746 111.728 28.9778C111.618 28.7809 111.554 28.5622 111.54 28.3375C111.532 28.1181 111.573 27.8998 111.659 27.6981C111.746 27.4964 111.876 27.3163 112.04 27.1708C112.385 26.8765 112.819 26.7064 113.272 26.6877C113.725 26.669 114.172 26.8027 114.54 27.0675C114.723 27.1987 114.875 27.3688 114.984 27.5656C115.094 27.7624 115.158 27.9811 115.173 28.2058C115.182 28.4251 115.141 28.6436 115.054 28.8453C114.968 29.0471 114.838 29.2271 114.673 29.3725C114.31 29.6899 113.843 29.8625 113.36 29.8575ZM113.36 27.6908C113.126 27.6852 112.897 27.7645 112.717 27.9141C112.661 27.9598 112.616 28.0173 112.585 28.0824C112.554 28.1475 112.538 28.2187 112.538 28.2908C112.546 28.3678 112.571 28.4422 112.611 28.5085C112.651 28.5748 112.705 28.6314 112.77 28.6741C112.953 28.7996 113.171 28.8632 113.393 28.8554C113.615 28.8476 113.828 28.7688 114.002 28.6308C114.058 28.5857 114.103 28.5283 114.134 28.4631C114.165 28.3978 114.181 28.3263 114.18 28.2541C114.172 28.1772 114.148 28.1029 114.108 28.0367C114.068 27.9704 114.014 27.9137 113.95 27.8708C113.777 27.7501 113.571 27.6871 113.36 27.6908Z" fill="#171718"/>
</svg>
