<svg width="164" height="114" viewBox="0 0 164 114" fill="none" xmlns="http://www.w3.org/2000/svg">
<path d="M1.91406 85.1191H142.414L162.081 106.119H21.5807L1.91406 85.1191Z" fill="white"/>
<path d="M163.235 106.619H21.3651L0.761719 84.6191H142.632L163.235 106.619ZM21.7984 105.619H160.928L142.198 85.6191H3.06838L21.7984 105.619Z" fill="#171718"/>
<path d="M144.142 49.2139L142.37 48.8272L141.967 47.0589C141.96 47.0286 141.943 47.0016 141.919 46.9822C141.894 46.9628 141.864 46.9522 141.833 46.9522C141.802 46.9524 141.772 46.9631 141.748 46.9824C141.723 47.0017 141.706 47.0286 141.698 47.0589L141.295 48.8356L139.523 49.2556C139.493 49.263 139.466 49.2806 139.446 49.3054C139.427 49.3302 139.417 49.3608 139.417 49.3922C139.417 49.4233 139.428 49.4533 139.447 49.4773C139.467 49.5013 139.495 49.5178 139.525 49.5239L141.297 49.9106L141.698 51.6789C141.706 51.7092 141.723 51.7361 141.748 51.7554C141.772 51.7747 141.802 51.7853 141.833 51.7856C141.864 51.7856 141.894 51.775 141.919 51.7556C141.943 51.7362 141.96 51.7092 141.967 51.6789L142.372 49.9022L144.143 49.4822C144.174 49.4762 144.203 49.4595 144.223 49.435C144.243 49.4105 144.254 49.3798 144.254 49.3481C144.254 49.3163 144.243 49.2856 144.223 49.2611C144.203 49.2366 144.174 49.2199 144.143 49.2139H144.142ZM35.975 25.8806L34.2033 25.4939L33.8 23.7256C33.7932 23.6953 33.7763 23.6682 33.752 23.6488C33.7278 23.6295 33.6977 23.6189 33.6667 23.6189C33.6355 23.6191 33.6053 23.6297 33.5808 23.649C33.5564 23.6684 33.5391 23.6953 33.5317 23.7256L33.1283 25.5022L31.3567 25.9222C31.3261 25.9297 31.299 25.9473 31.2796 25.9721C31.2603 25.9969 31.2498 26.0274 31.25 26.0589C31.2502 26.09 31.261 26.12 31.2808 26.144C31.3005 26.168 31.3279 26.1844 31.3583 26.1906L33.13 26.5772L33.5317 28.3456C33.5391 28.3758 33.5564 28.4028 33.5808 28.4221C33.6053 28.4414 33.6355 28.452 33.6667 28.4522C33.6977 28.4522 33.7278 28.4417 33.752 28.4223C33.7763 28.4029 33.7932 28.3758 33.8 28.3456L34.205 26.5689L35.9767 26.1489C36.0078 26.1428 36.0359 26.1262 36.0561 26.1017C36.0763 26.0772 36.0873 26.0465 36.0873 26.0147C36.0873 25.983 36.0763 25.9522 36.0561 25.9278C36.0359 25.9033 36.0078 25.8866 35.9767 25.8806H35.975ZM41.0267 14.7856L40.11 14.5856L39.9033 13.6706C39.8998 13.6546 39.891 13.6403 39.8783 13.6301C39.8655 13.6198 39.8497 13.6143 39.8333 13.6143C39.817 13.6143 39.8011 13.6198 39.7884 13.6301C39.7757 13.6403 39.7668 13.6546 39.7633 13.6706L39.555 14.5906L38.6383 14.8072C38.6226 14.811 38.6086 14.8199 38.5986 14.8327C38.5887 14.8454 38.5833 14.8611 38.5833 14.8772C38.5834 14.8934 38.5891 14.9091 38.5995 14.9215C38.6098 14.934 38.6241 14.9425 38.64 14.9456L39.5567 15.1456L39.7633 16.0606C39.7668 16.0765 39.7757 16.0908 39.7884 16.101C39.8011 16.1113 39.817 16.1169 39.8333 16.1169C39.8497 16.1169 39.8655 16.1113 39.8783 16.101C39.891 16.0908 39.8998 16.0765 39.9033 16.0606L40.1117 15.1406L41.0283 14.9239C41.0439 14.9199 41.0577 14.9108 41.0677 14.8982C41.0776 14.8855 41.0831 14.87 41.0833 14.8539C41.0832 14.8377 41.0775 14.822 41.0672 14.8096C41.0569 14.7971 41.0426 14.7886 41.0267 14.7856Z" fill="#171718"/>
<path d="M65.3558 98.2543C64.9676 98.2553 64.5809 98.2049 64.2058 98.1043C63.1008 97.8043 62.1875 97.0593 61.5625 95.9477L62.4325 95.4577C62.9325 96.3427 63.6158 96.9077 64.4675 97.1393C65.4076 97.3694 66.3998 97.2379 67.2475 96.771C67.4808 96.6343 67.6992 96.4999 67.9025 96.3677C67.63 95.9566 67.3967 95.5208 67.2058 95.066C66.8375 94.206 66.9025 92.786 67.6458 91.8993C68.1925 91.2443 69.0092 91.0027 69.9442 91.2193C70.3505 91.3051 70.7215 91.5117 71.0082 91.8122C71.295 92.1126 71.4841 92.4927 71.5508 92.9027C71.6592 93.6127 71.4625 94.9343 69.3658 96.5593C69.7175 96.8926 70.1611 97.1126 70.6392 97.191C72.8892 97.5243 75.4258 94.5793 75.4508 94.5493L76.2142 95.196C76.0958 95.3343 73.2925 98.6043 70.4925 98.1793C69.7452 98.0615 69.0575 97.7007 68.5358 97.1527C68.2925 97.3193 68.0358 97.4727 67.7508 97.6377C67.018 98.0437 66.1936 98.256 65.3558 98.2543ZM69.2875 92.136C69.1205 92.1309 68.9545 92.1643 68.8025 92.2337C68.6505 92.3031 68.5164 92.4065 68.4108 92.536C67.9425 93.0977 67.8842 94.1127 68.1242 94.6727C68.2875 95.0635 68.4867 95.4385 68.7192 95.7927C70.5725 94.371 70.6092 93.366 70.5525 93.051C70.5151 92.8408 70.4158 92.6465 70.2673 92.493C70.1189 92.3395 69.928 92.2338 69.7192 92.1893C69.5777 92.1557 69.4329 92.1378 69.2875 92.136Z" fill="#171718"/>
<path d="M93.3331 103.203L100.166 100.703L99.1664 98.036L100.666 94.7026L99.4997 92.536L95.9997 93.036L98.8331 89.036L97.8331 86.2026L90.9997 87.7026L96.6664 82.3693L91.8331 81.3693L88.1664 82.7026L92.1664 77.8693L89.1664 77.536L87.6664 75.2026C87.6664 75.2026 72.4747 77.286 73.7697 90.7493C73.9799 93.2102 74.9351 95.5485 76.5081 97.4526C78.9447 100.339 83.6614 103.173 92.3414 100.378L93.3331 103.203Z" fill="#E0F2FE"/>
<path d="M93.0278 103.846L92.0278 100.991C89.6511 101.714 87.5661 102.019 85.7428 102.019C80.9328 102.019 77.9328 99.9007 76.1328 97.7674C74.4917 95.7902 73.4959 93.3577 73.2794 90.7974C72.5844 83.5857 76.5394 79.5857 79.9794 77.5007C82.3263 76.1057 84.9118 75.1586 87.6044 74.7074L87.9211 74.6641L89.4644 77.0657L93.1478 77.4741L89.7311 81.6041L91.8011 80.8507L97.7161 82.0741L92.6661 86.8257L98.1661 85.6191L99.3994 89.1191L97.0811 92.3757L99.7761 91.9907L101.224 94.6824L99.7078 98.0524L100.813 100.999L93.0278 103.846ZM92.6411 99.7441L93.6411 102.559L99.5261 100.406L98.6311 98.0191L100.114 94.7224L99.2294 93.0807L94.9144 93.6957L98.2728 88.9524L97.5061 86.7857L89.3394 88.5791L95.6228 82.6641L91.8711 81.8874L86.6078 83.8007L91.1911 78.2641L88.8744 78.0057L87.4244 75.7507C86.4561 75.9274 83.3844 76.5941 80.4661 78.3707C75.8361 81.1874 73.7511 85.3374 74.2678 90.7041C74.4669 93.0594 75.381 95.2977 76.8878 97.1191C79.2211 99.8791 83.7628 102.602 92.1778 99.8891L92.6411 99.7441Z" fill="#171718"/>
<path d="M143.413 81.0358V83.2025C143.414 84.1289 143.056 85.0198 142.414 85.6879C141.773 86.3561 140.897 86.7496 139.971 86.7858H137.413C135.246 95.2858 126.913 94.6191 126.913 94.6191V98.2858H118.913L118.746 94.7858H111.746L115.913 92.4525L116.413 90.4525L114.579 88.7858L116.913 88.1191L117.246 86.4525L113.579 83.6191H118.579L121.246 80.7858L117.579 78.9525V75.6191L119.746 74.6191L113.579 70.4525C117.913 69.9626 122.296 70.1312 126.579 70.9525C127.746 66.4525 133.079 64.6191 133.079 64.6191V72.7858C135.746 73.4525 137.579 77.4525 137.579 77.4525H139.971C140.897 77.4887 141.773 77.8822 142.414 78.5504C143.056 79.2185 143.414 80.1094 143.413 81.0358Z" fill="#E0F2FE"/>
<path d="M127.415 98.786H118.439L118.272 95.286H109.832L115.482 92.1193L115.857 90.6193L113.582 88.5527L116.485 87.7193L116.697 86.656L112.117 83.1193H118.365L120.424 80.9327L117.09 79.266V75.2993L118.742 74.5377L112.189 70.1193L113.522 69.9527C117.756 69.4748 122.037 69.6146 126.23 70.3677C127.664 65.9943 132.697 64.2193 132.917 64.1427L133.584 63.916V72.416C135.839 73.2293 137.417 76.0293 137.895 76.9527H139.999C141.054 76.9924 142.052 77.4406 142.783 78.2024C143.513 78.9643 143.92 79.9803 143.915 81.036V83.2027C143.92 84.2592 143.513 85.2759 142.781 86.0379C142.049 86.8 141.05 87.2475 139.994 87.286H137.799C136.565 91.6193 133.727 93.5227 131.53 94.3577C130.214 94.8527 128.822 95.115 127.415 95.1327V98.786ZM119.392 97.786H126.415V94.0777L126.955 94.121C128.407 94.1698 129.854 93.9279 131.21 93.4093C134.154 92.276 136.079 90.006 136.93 86.6627L137.027 86.286H139.957C140.754 86.257 141.508 85.919 142.061 85.3435C142.613 84.768 142.919 84.0002 142.915 83.2027V81.036C142.919 80.2379 142.612 79.4697 142.059 78.8941C141.507 78.3185 140.751 77.9808 139.954 77.9527H137.262L137.127 77.661C137.11 77.6227 135.36 73.871 132.96 73.271L132.582 73.176V65.3677C131.167 66.011 127.915 67.8177 127.065 71.0777L126.945 71.546L126.474 71.441C122.696 70.7226 118.84 70.5113 115.007 70.8127L120.764 74.701L118.082 75.9393V78.6443L122.082 80.6443L118.799 84.1193H115.047L117.8 86.246L117.345 88.516L115.582 89.016L116.974 90.281L116.349 92.781L113.665 94.281H119.225L119.392 97.786Z" fill="#171718"/>
<path d="M139.749 87.286L139.599 87.1193C138.475 85.8426 137.832 84.0226 137.832 82.1193C137.832 80.216 138.475 78.4026 139.599 77.1193L139.749 76.9526H139.987C141.044 76.9894 142.045 77.4363 142.778 78.1985C143.512 78.9606 143.919 79.9783 143.915 81.036V83.2026C143.92 84.2592 143.513 85.2759 142.781 86.0379C142.049 86.7999 141.05 87.2475 139.994 87.286H139.749ZM140.185 77.9693C139.319 79.0543 138.825 80.5493 138.825 82.1143C138.825 83.6793 139.325 85.1743 140.185 86.2593C140.937 86.1755 141.631 85.8173 142.135 85.2532C142.639 84.6891 142.917 83.9589 142.915 83.2026V81.036C142.918 80.2798 142.642 79.5493 142.139 78.9843C141.637 78.4193 140.943 78.0597 140.192 77.9743L140.185 77.9693Z" fill="#171718"/>
<path d="M140.079 82.7025C140.402 82.7025 140.663 82.2921 140.663 81.7858C140.663 81.2795 140.402 80.8691 140.079 80.8691C139.757 80.8691 139.496 81.2795 139.496 81.7858C139.496 82.2921 139.757 82.7025 140.079 82.7025Z" fill="#171718"/>
<path d="M141.747 82.7025C142.07 82.7025 142.331 82.2921 142.331 81.7858C142.331 81.2795 142.07 80.8691 141.747 80.8691C141.425 80.8691 141.164 81.2795 141.164 81.7858C141.164 82.2921 141.425 82.7025 141.747 82.7025Z" fill="#171718"/>
<path d="M131.641 80.1294H131.581C129.872 80.1027 128.667 78.7594 128.617 78.7027L129.366 78.036C129.376 78.046 130.341 79.111 131.604 79.126C132.361 79.126 133.104 78.766 133.796 78.0244L134.522 78.711C133.644 79.6527 132.672 80.1294 131.641 80.1294Z" fill="#171718"/>
<path d="M135.935 4.89579L135.82 2.01245C135.807 1.68477 135.716 1.3649 135.555 1.0793C135.394 0.793713 135.167 0.550619 134.893 0.370142C134.62 0.189664 134.307 0.0769936 133.981 0.0414572C133.655 0.00592086 133.325 0.0485391 133.019 0.165786C132.712 0.283156 132.438 0.471749 132.219 0.715972C132 0.960195 131.843 1.25303 131.759 1.57028C131.676 1.88752 131.669 2.22005 131.74 2.54038C131.81 2.86072 131.956 3.15965 132.165 3.41245L133.999 5.63579L135.935 4.89579ZM136.727 6.96412L138.56 9.18745C138.77 9.43987 138.916 9.73856 138.987 10.0588C139.058 10.379 139.051 10.7115 138.968 11.0287C138.885 11.346 138.727 11.6388 138.508 11.8829C138.289 12.127 138.015 12.3154 137.709 12.4325C137.403 12.5487 137.073 12.5905 136.748 12.5545C136.423 12.5185 136.111 12.4057 135.837 12.2253C135.564 12.0449 135.338 11.8022 135.177 11.5171C135.016 11.2321 134.925 10.9129 134.912 10.5858L134.797 7.70245L136.727 6.96412Z" fill="white"/>
<path d="M137.887 5.36417L136.988 7.27251C136.813 7.64234 136.499 7.92766 136.114 8.06579C135.729 8.20392 135.305 8.18356 134.935 8.00917L133.09 7.14084L133.988 5.23251C134.163 4.86257 134.478 4.57715 134.863 4.43875C135.248 4.30036 135.673 4.32029 136.043 4.49417L137.887 5.36417Z" fill="#171718"/>
<path d="M138.468 6.51427C139.242 6.51427 139.87 5.88672 139.87 5.1126C139.87 4.33849 139.242 3.71094 138.468 3.71094C137.694 3.71094 137.066 4.33849 137.066 5.1126C137.066 5.88672 137.694 6.51427 138.468 6.51427Z" fill="#171718"/>
<path d="M138.961 3.89746L139.906 3.06145L140.568 3.81041L139.624 4.64642L138.961 3.89746Z" fill="#171718"/>
<path d="M139.633 4.68469L140.894 4.67632L140.901 5.6763L139.639 5.68467L139.633 4.68469Z" fill="#171718"/>
<path d="M108.257 67.786C108.164 67.3277 108.072 66.8643 107.987 66.4077L108.97 66.226C109.054 66.676 109.137 67.1327 109.237 67.5843L108.257 67.786ZM107.57 63.9243C107.445 63.081 107.337 62.241 107.25 61.4243L108.25 61.3193C108.335 62.121 108.442 62.9477 108.565 63.7777L107.57 63.9243ZM107.042 58.911C106.99 58.056 106.962 57.206 106.957 56.386H107.957C107.957 57.1893 107.99 58.021 108.039 58.8577L107.042 58.911ZM108.015 53.911L107.015 53.856C107.062 52.996 107.137 52.1477 107.24 51.3343L108.232 51.4577C108.134 52.2527 108.06 53.0777 108.015 53.9143V53.911ZM108.635 49.0343L107.657 48.831C107.834 47.9843 108.045 47.1643 108.289 46.366L109.245 46.661C109.01 47.4243 108.805 48.2227 108.635 49.0377V49.0343ZM117.802 44.701C117.228 44.702 116.654 44.6569 116.087 44.566L116.254 43.5793C117.039 43.702 117.836 43.7322 118.629 43.6693L118.704 44.6693C118.392 44.6843 118.092 44.696 117.799 44.696L117.802 44.701ZM110.09 44.3677L109.172 43.9727C109.508 43.1882 109.892 42.4251 110.322 41.6877L111.185 42.1877C110.773 42.8923 110.404 43.6214 110.08 44.371L110.09 44.3677ZM121.289 44.0677L120.885 43.1527C121.588 42.8496 122.217 42.3988 122.73 41.831L123.477 42.4977C122.868 43.1734 122.12 43.7101 121.285 44.071L121.289 44.0677ZM113.57 43.796C112.765 43.4262 112.021 42.9356 111.364 42.341L112.03 41.6027C112.613 42.1283 113.272 42.5622 113.985 42.8893L113.57 43.796ZM112.549 40.1843L111.764 39.566C112.293 38.89 112.874 38.2554 113.5 37.6677L114.184 38.3977C113.593 38.9519 113.045 39.5503 112.545 40.1877L112.549 40.1843ZM109.827 40.1843C109.418 39.4327 109.064 38.6529 108.765 37.851L109.704 37.5043C109.984 38.2638 110.318 39.0023 110.704 39.7143L109.827 40.1843ZM124.767 40.1327L123.805 39.856C123.878 39.5971 123.934 39.3338 123.972 39.0677C123.999 38.8979 124.012 38.7262 124.012 38.5543C124.013 38.2554 123.971 37.9579 123.887 37.671L124.849 37.3927C124.959 37.7717 125.015 38.1645 125.015 38.5593C125.015 38.7825 124.998 39.0054 124.964 39.226C124.916 39.5309 124.849 39.8326 124.764 40.1293L124.767 40.1327ZM116.08 36.906L115.532 36.0727C116.211 35.6086 116.944 35.2302 117.715 34.946L117.909 34.891L118.174 35.856L118.017 35.8993C117.335 36.1587 116.685 36.4965 116.08 36.906ZM122.64 36.0093C121.999 35.6472 121.271 35.469 120.535 35.4943H120.509V34.4943H120.544C121.464 34.4683 122.374 34.6992 123.17 35.161L122.64 36.0093ZM108.077 35.356C107.915 34.5087 107.83 33.6486 107.822 32.786H108.822C108.827 33.5897 108.905 34.3913 109.054 35.181L108.077 35.356ZM109.029 30.3827L108.044 30.216C108.193 29.3695 108.409 28.5363 108.69 27.7243L109.635 28.0577C109.369 28.8149 109.164 29.5924 109.022 30.3827H109.029ZM110.58 25.8177L109.69 25.3627C110.079 24.6037 110.511 23.868 110.985 23.1593L111.819 23.7127C111.367 24.3904 110.953 25.0932 110.58 25.8177ZM113.274 21.7393L112.497 21.1093C113.014 20.4727 113.579 19.831 114.177 19.201L114.902 19.8893C114.325 20.501 113.779 21.1193 113.279 21.7393H113.274ZM116.662 18.1577L115.982 17.4227C116.584 16.866 117.225 16.306 117.89 15.756L118.527 16.5277C117.882 17.066 117.247 17.6193 116.667 18.1577H116.662ZM120.477 14.991L119.879 14.191C120.537 13.691 121.229 13.2043 121.934 12.7227L122.499 13.556C121.809 14.0293 121.129 14.5143 120.482 14.9977L120.477 14.991ZM124.58 12.196L124.049 11.3493C124.754 10.906 125.482 10.4693 126.215 10.0477L126.715 10.9143C125.995 11.3293 125.279 11.761 124.58 12.196ZM128.889 9.71267L128.424 8.82767C129.81 8.09767 130.669 7.711 130.704 7.69434L131.114 8.606C131.109 8.61934 130.247 8.99767 128.892 9.71267H128.889Z" fill="#171718"/>
<path d="M51.4141 40.619L61.1341 40.429L65.3741 25.8923C60.3857 20.454 64.1941 17.8923 64.1941 17.8923L65.5557 11.7856L88.6424 15.969C88.3941 41.8323 77.8957 37.4523 77.8957 37.4523L77.2291 43.5606L84.6441 47.5873L80.5091 56.4206L54.5091 51.709L51.4141 40.619Z" fill="white"/>
<path d="M80.7967 56.9755L54.1051 52.1422L50.7617 40.1422L60.7617 39.9455L64.8201 26.0305C62.9651 23.9439 62.1301 22.0039 62.3384 20.2589C62.4569 19.2316 62.9616 18.2879 63.7501 17.6189L65.1767 11.2139L89.1501 15.5572V15.9789C89.0401 27.4222 86.9534 34.5639 82.9501 37.2039C82.2823 37.6595 81.5287 37.9745 80.7353 38.1295C79.9419 38.2845 79.1252 38.2764 78.3351 38.1055L77.7601 43.2855L85.2951 47.3755L80.7967 56.9755ZM54.9001 51.2655L80.2167 55.8539L83.9884 47.8022L76.6934 43.8405L77.4734 36.7322L78.09 36.9905C78.1734 37.0239 80.2017 37.8239 82.4234 36.3489C84.9384 34.6822 87.9584 29.8489 88.1484 16.3855L65.9417 12.3622L64.6417 18.1955L64.4751 18.3055C64.1538 18.5566 63.8864 18.8699 63.6891 19.2268C63.4918 19.5836 63.3685 19.9766 63.3267 20.3822C63.16 21.8572 63.9934 23.6439 65.7451 25.5489L65.935 25.7555L61.5151 40.9139L52.0717 41.0989L54.9001 51.2655Z" fill="#171718"/>
<path d="M75.258 14.9361C75.258 14.9361 79.618 19.0294 88.6213 17.3577L88.4963 20.3761C88.4963 20.3761 92.693 18.4061 92.5813 13.3277C92.5813 13.3277 92.643 10.1394 87.5546 8.59773C87.5546 8.59773 86.1713 3.70107 81.0296 4.73107C81.0296 4.73107 77.8296 1.88107 73.7346 4.5444C73.7346 4.5444 70.6546 3.87773 69.703 6.29107C69.703 6.29107 64.7146 4.76773 62.463 9.21107C62.463 9.21107 60.5413 14.9294 64.368 18.3077C64.368 18.3077 67.868 17.0027 68.503 21.4544L70.2113 22.2861L71.118 19.5611C71.118 19.5611 73.9613 19.2427 75.258 14.9361Z" fill="#171718"/>
<path d="M85.9407 27.7644C85.7171 27.7642 85.494 27.7442 85.274 27.7044C84.7933 27.6176 84.3343 27.437 83.9234 27.1728C83.5124 26.9087 83.1575 26.5662 82.879 26.1649C82.6004 25.7636 82.4036 25.3113 82.2998 24.834C82.196 24.3566 82.1872 23.8635 82.274 23.3827C82.4004 22.6876 82.7224 22.0428 83.2022 21.5241C83.6819 21.0054 84.2996 20.6342 84.9828 20.454C85.666 20.2738 86.3864 20.292 87.0596 20.5067C87.7328 20.7213 88.3309 21.1233 88.7837 21.6657C89.2365 22.2081 89.5254 22.8683 89.6164 23.569C89.7074 24.2697 89.5968 24.9818 89.2976 25.6219C88.9983 26.2619 88.5228 26.8034 87.9268 27.1829C87.3308 27.5624 86.6389 27.7641 85.9323 27.7644H85.9407ZM83.1073 23.5327C83.0077 24.0938 83.0766 24.6719 83.3053 25.1939C83.534 25.7159 83.9123 26.1584 84.3923 26.4655C84.8724 26.7727 85.4327 26.9307 86.0025 26.9196C86.5722 26.9085 87.126 26.7287 87.5937 26.4031C88.0614 26.0775 88.4221 25.6206 88.6303 25.0901C88.8385 24.5596 88.8848 23.9793 88.7634 23.4225C88.642 22.8657 88.3583 22.3573 87.9482 21.9617C87.538 21.566 87.0198 21.3007 86.459 21.1994C86.0857 21.1324 85.7029 21.1396 85.3324 21.2206C84.9619 21.3016 84.6109 21.4548 84.2997 21.6715C83.9884 21.8882 83.7229 22.1641 83.5183 22.4835C83.3137 22.8028 83.1741 23.1594 83.1073 23.5327Z" fill="#171718"/>
<path d="M78.1472 26.3507C77.9236 26.3514 77.7004 26.3313 77.4805 26.2907C76.5101 26.115 75.6492 25.5614 75.0867 24.7514C74.5242 23.9414 74.3062 22.9413 74.4805 21.9707C74.6063 21.2752 74.9277 20.63 75.407 20.1106C75.8864 19.5912 76.5038 19.2192 77.187 19.0381C77.8702 18.8571 78.5909 18.8745 79.2645 19.0884C79.9382 19.3022 80.537 19.7036 80.9906 20.2456C81.4443 20.7875 81.7342 21.4476 81.8262 22.1483C81.9182 22.8491 81.8086 23.5616 81.5102 24.2023C81.2117 24.843 80.7369 25.3854 80.1413 25.7659C79.5457 26.1464 78.854 26.3493 78.1472 26.3507ZM75.3138 22.1191C75.2119 22.6805 75.2787 23.2596 75.5059 23.783C75.7331 24.3065 76.1104 24.7508 76.5901 25.0598C77.0698 25.3688 77.6304 25.5286 78.201 25.519C78.7715 25.5094 79.3264 25.3308 79.7954 25.0059C80.2645 24.6809 80.6266 24.2241 80.8361 23.6933C81.0455 23.1625 81.0928 22.5815 80.9721 22.0238C80.8513 21.4661 80.5678 20.9568 80.1576 20.5602C79.7473 20.1636 79.2286 19.8975 78.6672 19.7957C78.294 19.7276 77.911 19.7337 77.5402 19.8136C77.1694 19.8935 76.8179 20.0457 76.5059 20.2614C76.1939 20.4772 75.9275 20.7523 75.7218 21.071C75.5161 21.3897 75.3752 21.7459 75.3072 22.1191H75.3138Z" fill="#171718"/>
<path d="M85.8079 25.3989C86.3123 25.3989 86.7212 24.99 86.7212 24.4856C86.7212 23.9812 86.3123 23.5723 85.8079 23.5723C85.3034 23.5723 84.8945 23.9812 84.8945 24.4856C84.8945 24.99 85.3034 25.3989 85.8079 25.3989Z" fill="#171718"/>
<path d="M78.054 24.0459C78.5584 24.0459 78.9673 23.637 78.9673 23.1326C78.9673 22.6281 78.5584 22.2192 78.054 22.2192C77.5495 22.2192 77.1406 22.6281 77.1406 23.1326C77.1406 23.637 77.5495 24.0459 78.054 24.0459Z" fill="#171718"/>
<path d="M70.5352 20.6597L70.7903 19.8664L75.0996 21.2524L74.8444 22.0457L70.5352 20.6597Z" fill="#171718"/>
<path d="M83.311 29.4591L79.8393 29.1941L79.9026 28.3625L82.3377 28.5475L81.521 22.8925L82.3443 22.7741L83.311 29.4591ZM82.4677 32.8641C82.5757 32.7893 82.6659 32.6915 82.7319 32.5779C82.7979 32.4642 82.8381 32.3374 82.8495 32.2065C82.861 32.0755 82.8435 31.9437 82.7982 31.8203C82.7529 31.6969 82.6811 31.5849 82.5877 31.4925C82.3001 31.2062 81.9361 31.0088 81.5393 30.9241C80.506 30.7041 79.0077 31.1208 78.306 31.3491C78.2593 31.364 78.2168 31.3899 78.1823 31.4247C78.1478 31.4595 78.1222 31.5022 78.1078 31.5491C78.0934 31.5959 78.0905 31.6456 78.0995 31.6938C78.1085 31.742 78.129 31.7873 78.1593 31.8258C78.7593 32.5875 80.7493 34.1008 82.4677 32.8641ZM83.5827 20.2858L83.1793 19.5575C83.2627 19.5108 85.2677 18.4325 88.6293 19.4875L88.3793 20.2825C85.361 19.3341 83.606 20.2758 83.5827 20.2858ZM81.191 19.7541C81.1293 19.6541 79.6593 17.3458 76.1577 18.7541L75.8477 17.9808C80.0243 16.3025 81.8843 19.2925 81.9026 19.3241L81.191 19.7541Z" fill="#171718"/>
<path d="M18.0664 94.8662L20.1237 89.6005L57.3144 104.13L55.2572 109.396L18.0664 94.8662Z" fill="#171718"/>
<path d="M43.8962 111.342L49.2462 113.376C49.4234 113.444 49.6124 113.476 49.8021 113.471C49.9919 113.466 50.1788 113.423 50.3522 113.346C50.5255 113.268 50.6819 113.158 50.8124 113.02C50.943 112.882 51.045 112.72 51.1128 112.542L56.1428 99.3289C56.3146 98.877 56.3846 98.3927 56.3478 97.9106L55.8762 91.5923C55.856 91.3157 55.7567 91.0508 55.5903 90.8291C55.4238 90.6074 55.1972 90.4382 54.9373 90.3416C54.6774 90.245 54.3952 90.2251 54.1244 90.2844C53.8535 90.3436 53.6054 90.4794 53.4095 90.6756L48.7562 95.3189C48.4265 95.6472 48.1708 96.0421 48.0062 96.4773L43.0595 109.477C42.9919 109.655 42.96 109.844 42.9654 110.033C42.9709 110.223 43.0137 110.41 43.0914 110.583C43.1691 110.756 43.2802 110.912 43.4183 111.043C43.5563 111.173 43.7187 111.275 43.8962 111.342Z" fill="white"/>
<path d="M49.7463 113.971C49.5105 113.971 49.2766 113.928 49.0563 113.844L43.7129 111.809C43.4738 111.718 43.2548 111.581 43.0686 111.406C42.8824 111.231 42.7326 111.02 42.6278 110.787C42.523 110.554 42.4653 110.302 42.4578 110.046C42.4504 109.791 42.4935 109.536 42.5846 109.297L47.5313 96.2972C47.7217 95.7964 48.0166 95.3419 48.3963 94.9639L53.0446 90.3172C53.3083 90.0537 53.6421 89.8714 54.0063 89.7919C54.3705 89.7124 54.7499 89.7391 55.0995 89.8687C55.449 89.9984 55.754 90.2256 55.9782 90.5234C56.2025 90.8212 56.3366 91.1771 56.3646 91.5489L56.8363 97.8689C56.8761 98.4236 56.7948 98.9804 56.5979 99.5006L51.5796 112.716C51.4377 113.086 51.1863 113.405 50.8587 113.629C50.5312 113.853 50.1432 113.972 49.7463 113.971ZM54.4129 90.7456C54.2888 90.7455 54.1659 90.7703 54.0514 90.8184C53.9369 90.8665 53.8332 90.9369 53.7463 91.0256L49.0979 95.6722C48.8183 95.9511 48.6012 96.2863 48.4613 96.6556L43.5146 109.656C43.4257 109.891 43.4334 110.151 43.5362 110.38C43.639 110.61 43.8284 110.789 44.0629 110.879L49.4129 112.909C49.6479 112.998 49.9086 112.99 50.1378 112.887C50.3671 112.785 50.5463 112.595 50.6363 112.361L55.6646 99.1472C55.8069 98.7636 55.8638 98.3535 55.8313 97.9456L55.3729 91.6189C55.3619 91.4372 55.2978 91.2628 55.1884 91.1173C55.0791 90.9718 54.9294 90.8617 54.7579 90.8006C54.6472 90.7615 54.5303 90.7429 54.4129 90.7456Z" fill="#171718"/>
<path d="M81.1557 45.869C79.0241 49.3823 71.1391 59.2023 57.5974 40.734C57.3777 40.4361 57.0951 40.1904 56.7695 40.0144C56.444 39.8384 56.0836 39.7363 55.7141 39.7156L44.3141 39.049C39.4141 38.9506 35.3141 40.649 32.1157 43.7406L18.1641 56.869L31.1641 70.869L33.9974 85.2023H102.164L100.309 64.7023C99.7057 58.0356 95.5807 53.9606 89.3491 49.574L82.8491 45.4823C82.713 45.3947 82.5608 45.3352 82.4015 45.3073C82.2421 45.2793 82.0788 45.2835 81.9211 45.3195C81.7633 45.3555 81.6144 45.4227 81.483 45.517C81.3515 45.6114 81.2403 45.731 81.1557 45.869Z" fill="white"/>
<path d="M102.711 85.7025H33.5815L30.6948 71.1059L17.4531 56.8459L31.7665 43.3775C35.1865 40.0775 39.4065 38.4542 44.3181 38.5442H44.3365L55.7381 39.2109C56.1812 39.2349 56.6134 39.357 57.0037 39.5682C57.3939 39.7795 57.7324 40.0747 57.9948 40.4325C63.3381 47.7192 68.3165 51.3125 72.7848 51.1192C76.8898 50.9392 79.5198 47.5859 80.7231 45.6042L81.1498 45.8625L80.7298 45.6192C80.8477 45.4246 81.0032 45.2555 81.1872 45.1217C81.3712 44.988 81.58 44.8922 81.8014 44.8401C82.0229 44.7879 82.2525 44.7804 82.4768 44.8181C82.7012 44.8557 82.9158 44.9377 83.1081 45.0592L89.6381 49.1659C96.0798 53.6992 100.195 57.8725 100.805 64.6575L102.711 85.7025ZM34.4148 84.7025H101.618L99.8131 64.7392C99.2331 58.3425 95.2748 54.3492 89.0731 49.9825L82.5731 45.8975C82.4925 45.8464 82.4024 45.812 82.3082 45.7962C82.2141 45.7805 82.1177 45.7838 82.0248 45.8059C81.933 45.8272 81.8464 45.8668 81.7702 45.9224C81.694 45.978 81.6298 46.0483 81.5815 46.1292C80.2748 48.2825 77.4015 51.9242 72.8315 52.1292C68.0065 52.3375 62.7448 48.6075 57.1915 41.0342C57.0156 40.7958 56.7892 40.5992 56.5284 40.4586C56.2676 40.318 55.979 40.2368 55.6831 40.2209L44.2915 39.5542C39.6581 39.4642 35.6831 40.9942 32.4581 44.1042L18.8648 56.8959L31.6231 70.6359L34.4148 84.7025Z" fill="#171718"/>
<path d="M19.6632 55.3691L17.2615 57.7708C14.0949 60.9375 14.4132 65.2858 16.0099 69.6458L24.1632 91.5358L23.1632 96.8691L21.9965 96.3691C21.9965 96.3691 19.9132 100.452 25.1632 100.036C25.1632 100.036 25.2465 103.619 28.8299 102.536C28.8299 102.536 29.9965 104.869 32.6632 103.702C32.6632 103.702 33.8299 106.702 37.3299 104.036C37.3299 104.036 42.2465 97.2858 40.4132 91.1191L29.9965 67.2025L19.6632 55.3691Z" fill="white"/>
<path d="M34.7339 105.641C34.4894 105.642 34.246 105.609 34.0106 105.543C33.3544 105.344 32.794 104.911 32.4356 104.326C30.5089 104.963 29.1989 103.974 28.6023 103.116C27.5306 103.366 26.6406 103.241 25.9523 102.741C25.1189 102.143 24.8306 101.161 24.7256 100.561C23.1223 100.611 22.0306 100.218 21.4773 99.3944C20.5939 98.071 21.5173 96.2277 21.5573 96.1477L21.7689 95.731L22.7923 96.1694L23.6523 91.586L15.5456 69.821C13.5456 64.3844 14.0023 60.321 16.9123 57.4177L19.6923 54.6377L30.4273 66.9327L40.8973 90.9777C42.7789 97.311 37.9456 104.046 37.7306 104.331L37.6889 104.389L37.6306 104.434C36.5839 105.238 35.6089 105.641 34.7339 105.641ZM32.9439 103.036L33.1339 103.521C33.1339 103.521 33.4789 104.354 34.2906 104.583C34.9989 104.778 35.9239 104.466 36.9706 103.684C37.4306 103.018 41.5756 96.851 39.9473 91.291L29.5739 67.4727L19.6423 56.101L17.6189 58.1194C15.0123 60.726 14.6406 64.4394 16.4839 69.4694L24.6839 91.486L23.5439 97.5694L22.2706 97.0244C22.1039 97.546 21.9639 98.3177 22.3089 98.831C22.6956 99.406 23.6689 99.6477 25.1273 99.5327L25.6556 99.491L25.6673 100.019C25.6673 100.031 25.7156 101.334 26.5406 101.929C27.0406 102.289 27.7656 102.331 28.6889 102.053L29.0923 101.931L29.2806 102.308C29.3806 102.499 30.3189 104.179 32.4673 103.239L32.9439 103.036Z" fill="#171718"/>
<path d="M25.5896 100.484L24.9062 99.754C27.2629 97.5557 28.0812 93.619 28.0912 93.5757L29.0712 93.774C29.0362 93.9524 28.1762 98.069 25.5896 100.484ZM29.1529 102.912L28.3429 102.326C31.6812 97.7157 31.7479 94.8124 31.7479 94.7857H32.7479C32.7479 94.914 32.7062 98.004 29.1529 102.912ZM33.1463 103.922L32.3496 103.316C33.9009 101.269 35.0047 98.9184 35.5896 96.4173L36.5729 96.599C35.9689 99.2576 34.8003 101.755 33.1463 103.922Z" fill="#171718"/>
<path d="M29.9141 67.25L38.5802 59.4168L39.2508 60.1586L30.5846 67.9919L29.9141 67.25Z" fill="#171718"/>
<path d="M114.75 54.0171L115.743 53.8952L116.909 63.3955L115.916 63.5174L114.75 54.0171Z" fill="#171718"/>
<path d="M118.926 64.7261L123.925 57.8929L124.732 58.4834L119.733 65.3165L118.926 64.7261Z" fill="#171718"/>
<path d="M70.2734 68.9585L71.1768 68.5296L74.594 75.7261L73.6906 76.1551L70.2734 68.9585Z" fill="#171718"/>
<path d="M65.0703 76.8875L65.4726 75.972L72.4138 79.0218L72.0115 79.9374L65.0703 76.8875Z" fill="#171718"/>
</svg>
