<svg width="122" height="114" viewBox="0 0 122 114" fill="none" xmlns="http://www.w3.org/2000/svg">
<path d="M38.4938 36.4709C38.4938 36.4709 11.1238 32.7443 2.77378 55.0326C-0.119553 62.7593 0.260449 71.3076 3.52045 78.8859C6.45045 85.6976 12.0538 94.1243 22.6471 99.2843C26.6108 101.194 30.8543 102.459 35.2171 103.029C43.8838 104.196 69.9504 107.993 76.8488 112.324L66.4204 94.3509L70.0871 84.8809L65.2538 83.7143L66.8004 78.1093L54.4404 84.6893L56.7571 69.8076H48.4404L46.8938 54.7343L36.2738 60.1442L38.4938 36.4709Z" fill="#E0F2FE"/>
<path d="M78.3041 113.824L76.5891 112.747C69.7291 108.441 43.1408 104.599 35.1558 103.524C30.7417 102.948 26.4484 101.669 22.4391 99.7341C11.4758 94.4008 5.85576 85.5558 3.07243 79.0825C-0.315905 71.2075 -0.584234 62.6025 2.31577 54.8575C4.25243 49.6825 7.37076 45.4675 11.5858 42.3291C14.9491 39.8291 19.0091 37.9958 23.6558 36.9075C31.5391 35.0525 38.4891 35.9658 38.5658 35.9758L39.0408 36.0391L36.8574 59.2875L47.3274 53.9541L48.9024 69.3041H57.3391L55.0841 83.7741L67.5958 77.1275L65.8791 83.3525L70.7641 84.5191L66.9708 94.3075L78.3041 113.824ZM34.0741 36.7408C30.6332 36.7319 27.2026 37.1166 23.8491 37.8875C13.5724 40.3125 6.64077 46.1391 3.24743 55.2075C0.437432 62.7075 0.700764 71.0491 3.98576 78.6875C6.70243 85.0058 12.1858 93.6291 22.8708 98.8341C26.7859 100.723 30.9786 101.971 35.2891 102.532C44.9091 103.827 67.0841 107.131 75.5408 111.059L65.8658 94.3925L69.4174 85.2258L64.6391 84.0791L66.0141 79.0958L53.7891 85.5958L56.1724 70.3041H47.9941L46.4758 55.5058L35.6874 61.0058L37.9491 36.9175C37.2724 36.8475 35.8991 36.7408 34.0741 36.7408Z" fill="#171718"/>
<path d="M61.1992 39.8525C61.1992 39.8525 69.0692 12.6325 96.2909 17.7042C102.791 18.9142 108.724 22.2309 113.024 27.2442C117.891 32.9109 122.524 42.1609 120.824 56.1142C119.868 63.8142 116.637 71.0541 111.546 76.9092C109.419 79.3659 106.668 82.2908 103.136 85.6542C103.136 85.6542 84.7759 102.274 78.7859 112.321L72.2142 92.4192L83.6176 78.5042L72.4076 69.4209L75.8859 50.2892L61.1992 39.8525Z" fill="#E0F2FE"/>
<path d="M78.6561 113.521L71.6561 92.3141L82.9128 78.5758L71.8644 69.6225L75.3394 50.5125L60.6211 40.0541L60.7211 39.7208C60.8028 39.4375 62.7811 32.7375 68.1611 26.5541C71.3278 22.9125 75.0261 20.2208 79.1394 18.5675C84.2728 16.4908 90.0811 16.0375 96.3844 17.2125C103.059 18.4558 109.103 21.9025 113.404 26.9175C117.988 32.2608 123.081 41.6741 121.323 56.1741C120.364 63.9755 117.091 71.311 111.926 77.2358C109.509 80.0275 106.669 82.9825 103.483 86.0175C103.289 86.1841 85.1011 102.711 79.2161 112.581L78.6561 113.521ZM72.7728 92.5225L78.9261 111.157C85.3994 101.094 102.623 85.4525 102.803 85.2908C105.956 82.2908 108.774 79.3558 111.169 76.5891C116.206 70.8152 119.399 63.6654 120.336 56.0608C122.051 41.9225 117.104 32.7675 112.653 27.5758C108.499 22.7325 102.653 19.4091 96.2078 18.2025C85.1061 16.1291 75.9394 19.1575 68.9394 27.1791C64.3611 32.4275 62.2611 38.2191 61.7878 39.6558L76.4394 50.0658L72.9561 69.2191L84.3261 78.4325L72.7728 92.5225Z" fill="#171718"/>
<path d="M59.8477 65.7492L57.7227 79.4708L68.5443 72.5125L59.8477 65.7492Z" fill="#E0F2FE"/>
<path d="M57.0586 80.4909L59.4853 64.8243L69.4103 72.5443L57.0586 80.4909ZM60.2136 66.6576L58.3803 78.4409L67.6753 72.4659L60.2136 66.6576Z" fill="#171718"/>
<path d="M44.773 43.3306L41.293 53.7673L52.8896 46.6156L44.773 43.3306Z" fill="#E0F2FE"/>
<path d="M40.3867 54.9159L44.4684 42.6675L53.9951 46.5242L40.3867 54.9159ZM45.0801 43.9909L42.2051 52.6159L51.7884 46.7059L45.0801 43.9909Z" fill="#171718"/>
<path d="M60.0391 51.254L62.7457 63.044H70.0891V49.709L60.0391 51.254Z" fill="#E0F2FE"/>
<path d="M70.5892 63.5439H62.3475L59.4375 50.8422L70.5942 49.1255L70.5892 63.5439ZM63.1425 62.5439H69.5892V50.2905L60.6475 51.6672L63.1425 62.5439Z" fill="#171718"/>
<path d="M68.543 80.8225L72.0213 81.9825L76.853 77.3442L72.6013 74.2525L68.543 80.8225Z" fill="#E0F2FE"/>
<path d="M72.1524 82.5525L67.7891 81.0975L72.4557 73.5308L77.6224 77.2908L72.1524 82.5525ZM69.3024 80.5525L71.8957 81.4158L76.0791 77.4008L72.7457 74.9775L69.3024 80.5525Z" fill="#171718"/>
<path d="M16.2695 15.8936L17.088 15.319L25.2776 26.9847L24.4592 27.5592L16.2695 15.8936Z" fill="#171718"/>
<path d="M32.1797 0.375549L33.1595 0.175839L38.0258 24.0516L37.046 24.2514L32.1797 0.375549Z" fill="#171718"/>
<path d="M48.0703 10.4639L49.0703 10.4569L49.1747 25.4166L48.1748 25.4236L48.0703 10.4639Z" fill="#171718"/>
</svg>
