<svg width="162" height="106" viewBox="0 0 162 106" fill="none" xmlns="http://www.w3.org/2000/svg">
<path d="M41.0884 78.8333V35.545H31.7251L0.648438 79.7833V86.5683H32.4034V104.753H41.0884V86.5683H48.1484V78.8333H41.0884ZM32.4034 79.3767H9.19844L32.4034 45.4517V79.3767Z" fill="#E0F2FE"/>
<path d="M41.5884 105.253H31.9034V87.0683H0.148438V79.6267L0.238438 79.4966L31.4651 35.045H41.5884V78.3333H48.6484V87.0683H41.5884V105.253ZM32.9034 104.253H40.5884V86.0683H47.6484V79.3333H40.5884V36.045H31.9818L1.14844 79.9366V86.0633H32.9034V104.253ZM32.9034 79.8767H8.2501L32.9034 43.835V79.8767ZM10.1451 78.8767H31.9034V47.0683L10.1451 78.8767Z" fill="#171718"/>
<path d="M154.295 78.8333V35.545H144.932L113.855 79.7833V86.5683H145.61V104.753H154.295V86.5683H161.352V78.8333H154.295ZM145.61 79.3767H122.405L145.61 45.4517V79.3767Z" fill="#E0F2FE"/>
<path d="M154.795 105.253H145.11V87.0683H113.355V79.6267L113.447 79.4966L144.672 35.045H154.795V78.3333H161.852V87.0683H154.795V105.253ZM146.11 104.253H153.795V86.0683H160.852V79.3333H153.795V36.045H145.192L114.355 79.9366V86.0633H146.11V104.253ZM146.11 79.8767H121.457L146.11 43.835V79.8767ZM123.352 78.8767H145.11V47.0683L123.352 78.8767Z" fill="#171718"/>
<path d="M148.903 12.2982L147.486 11.9898L147.164 10.5765C147.159 10.5519 147.146 10.5299 147.127 10.5141C147.107 10.4983 147.083 10.4897 147.058 10.4898C147.033 10.4894 147.008 10.4978 146.989 10.5137C146.969 10.5296 146.956 10.5518 146.951 10.5765L146.628 11.9965L145.209 12.3298C145.186 12.3358 145.165 12.3496 145.149 12.3689C145.134 12.3882 145.126 12.412 145.126 12.4365C145.126 12.461 145.134 12.4848 145.149 12.5041C145.165 12.5234 145.186 12.5372 145.209 12.5432L146.628 12.8515L146.949 14.2665C146.954 14.2909 146.968 14.3127 146.987 14.3283C147.007 14.3438 147.031 14.352 147.056 14.3515C147.081 14.3517 147.105 14.3434 147.124 14.3279C147.144 14.3124 147.157 14.2907 147.163 14.2665L147.486 12.8448L148.904 12.5115C148.929 12.5062 148.951 12.4926 148.967 12.473C148.982 12.4535 148.991 12.4291 148.991 12.404C148.991 12.3789 148.982 12.3545 148.967 12.3349C148.951 12.3154 148.929 12.3018 148.904 12.2965L148.903 12.2982ZM29.8927 12.5098L28.4827 12.2015L28.1494 10.7882C28.1449 10.7631 28.1318 10.7404 28.1123 10.7241C28.0928 10.7077 28.0682 10.6988 28.0427 10.6988C28.0173 10.6988 27.9926 10.7077 27.9731 10.7241C27.9536 10.7404 27.9405 10.7631 27.936 10.7882L27.6127 12.2082L26.1944 12.5415C26.17 12.5472 26.1483 12.561 26.1328 12.5807C26.1174 12.6004 26.1091 12.6248 26.1094 12.6498C26.1101 12.6746 26.119 12.6985 26.1347 12.7178C26.1504 12.7371 26.1719 12.7507 26.196 12.7565L27.6144 13.0648L27.936 14.4782C27.942 14.5019 27.9558 14.523 27.9751 14.5381C27.9944 14.5531 28.0182 14.5613 28.0427 14.5613C28.0672 14.5613 28.091 14.5531 28.1103 14.5381C28.1297 14.523 28.1434 14.5019 28.1494 14.4782L28.4727 13.0582L29.891 12.7248C29.9154 12.7191 29.9371 12.7053 29.9526 12.6856C29.968 12.6659 29.9763 12.6415 29.976 12.6165C29.9757 12.592 29.9674 12.5684 29.9524 12.5491C29.9373 12.5298 29.9164 12.516 29.8927 12.5098ZM139.929 3.96816L139.003 3.76816L138.794 2.84483C138.791 2.82894 138.782 2.81474 138.769 2.80448C138.756 2.79422 138.741 2.78847 138.724 2.78816C138.708 2.78786 138.692 2.79338 138.679 2.80374C138.666 2.81411 138.658 2.82866 138.654 2.84483L138.443 3.76983L137.518 3.98983C137.502 3.993 137.487 4.0018 137.477 4.01464C137.467 4.02749 137.462 4.04351 137.463 4.05983C137.463 4.07599 137.468 4.0917 137.478 4.1044C137.488 4.11711 137.502 4.12607 137.518 4.12983L138.444 4.33149L138.654 5.25483C138.658 5.27069 138.667 5.28485 138.68 5.29489C138.692 5.30492 138.708 5.3102 138.724 5.30983C138.74 5.30961 138.756 5.3041 138.769 5.29417C138.781 5.28423 138.79 5.2704 138.794 5.25483L139.004 4.32649L139.929 4.10649C139.945 4.10306 139.96 4.09425 139.97 4.08151C139.98 4.06877 139.986 4.05288 139.986 4.0365C139.985 4.02063 139.979 4.00554 139.969 3.99329C139.958 3.98105 139.945 3.97227 139.929 3.96816Z" fill="#171718"/>
<path d="M133.872 104.753H39.1484L64.8151 35.545H108.357L133.872 104.753Z" fill="white"/>
<path d="M134.588 105.253H38.4297L64.4664 35.045H108.705L108.826 35.3783L134.588 105.253ZM39.8664 104.253H133.148L108.008 36.045H65.163L39.8664 104.253Z" fill="#171718"/>
<path d="M109.434 16.9816H64.0078C66.4695 7.95664 75.7045 1.24664 86.7211 1.24664C97.7378 1.24664 106.981 7.95664 109.434 16.9816Z" fill="white"/>
<path d="M110.088 17.4816H63.3516L63.5182 16.85C64.7499 12.3283 67.7132 8.23331 71.8616 5.31998C76.1199 2.32831 81.2566 0.746643 86.7132 0.746643C92.1699 0.746643 97.3066 2.32831 101.567 5.31998C105.713 8.23331 108.677 12.3283 109.91 16.85L110.088 17.4816ZM64.6732 16.4816H108.767C106.055 7.77331 97.0999 1.74664 86.7199 1.74664C76.3399 1.74664 67.3849 7.76998 64.6732 16.4816Z" fill="#171718"/>
<path d="M86.5869 37.76C114.769 37.76 137.615 32.0829 137.615 25.08C137.615 18.077 114.769 12.4 86.5869 12.4C58.4048 12.4 35.5586 18.077 35.5586 25.08C35.5586 32.0829 58.4048 37.76 86.5869 37.76Z" fill="white"/>
<path d="M86.5869 38.2602C72.9203 38.2602 60.0603 36.9368 50.3836 34.5318C45.6503 33.3552 41.9269 31.9802 39.3153 30.4468C36.4903 28.7802 35.0586 26.9818 35.0586 25.0802C35.0586 23.1785 36.4903 21.3718 39.3153 19.7135C41.9269 18.1785 45.6486 16.8035 50.3836 15.6285C60.0603 13.2235 72.9169 11.8985 86.5869 11.8985C100.257 11.8985 113.114 13.2318 122.789 15.6285C127.522 16.8035 131.245 18.1785 133.857 19.7135C136.69 21.3718 138.114 23.1785 138.114 25.0802C138.114 26.9818 136.682 28.7868 133.857 30.4468C131.245 31.9802 127.524 33.3552 122.789 34.5318C113.114 36.9368 100.255 38.2602 86.5869 38.2602ZM86.5869 12.8985C72.9953 12.8985 60.2236 14.2135 50.6253 16.5985C41.3669 18.8985 36.0586 21.9902 36.0586 25.0802C36.0586 28.1702 41.3669 31.2602 50.6253 33.5618C60.2236 35.9468 72.9953 37.2602 86.5869 37.2602C100.179 37.2602 112.949 35.9468 122.549 33.5618C131.805 31.2602 137.114 28.1685 137.114 25.0802C137.114 21.9918 131.805 18.8985 122.549 16.6035C112.949 14.2135 100.177 12.8985 86.5869 12.8985Z" fill="#171718"/>
<path d="M61.2299 29.2301C63.4916 27.4318 70.1983 23.7435 87.2733 23.6285C87.2733 23.6285 106.875 24.5618 111.322 29.1685C111.555 29.4086 111.706 29.7173 111.752 30.0493C111.797 30.3813 111.735 30.7192 111.575 31.0135L108.662 36.3085L64.0083 36.4551L60.8699 31.2535C60.6739 30.93 60.6024 30.5463 60.6686 30.174C60.7349 29.8016 60.9344 29.4661 61.2299 29.2301Z" fill="white"/>
<path d="M63.7267 36.9548L60.4417 31.5115C60.1857 31.0844 60.093 30.5791 60.1806 30.0889C60.2682 29.5987 60.5303 29.1568 60.9184 28.8448C63.5384 26.7615 70.4434 23.2482 87.27 23.1348H87.2967C88.105 23.1732 107.15 24.1348 111.682 28.8282C111.991 29.1444 112.19 29.5516 112.25 29.9898C112.31 30.4279 112.228 30.8738 112.015 31.2615L108.96 36.8148L63.7267 36.9548ZM61.2267 29.2298L61.5384 29.6215C61.3383 29.782 61.2033 30.0098 61.1585 30.2624C61.1137 30.515 61.1623 30.7753 61.295 30.9948L64.295 35.9532L108.372 35.8098L111.137 30.7698C111.247 30.5701 111.291 30.3402 111.261 30.114C111.231 29.8877 111.129 29.6771 110.97 29.5132C106.758 25.1465 87.8717 24.1548 87.2717 24.1248C70.1384 24.2415 63.5767 28.0048 61.55 29.6248L61.2267 29.2298Z" fill="#171718"/>
<path d="M86.2418 41.0448C98.5816 41.0448 108.585 38.7704 108.585 35.9648C108.585 33.1592 98.5816 30.8848 86.2418 30.8848C73.9019 30.8848 63.8984 33.1592 63.8984 35.9648C63.8984 38.7704 73.9019 41.0448 86.2418 41.0448Z" fill="#E0F2FE"/>
<path d="M86.2418 41.5448C75.1684 41.5448 63.3984 39.5898 63.3984 35.9648C63.3984 32.3398 75.1684 30.3848 86.2418 30.3848C97.3151 30.3848 109.087 32.3398 109.087 35.9648C109.087 39.5898 97.3151 41.5448 86.2418 41.5448ZM86.2418 31.3782C80.3101 31.3782 74.7418 31.9015 70.5534 32.8532C66.0151 33.8848 64.3984 35.1332 64.3984 35.9582C64.3984 36.7832 66.0151 38.0315 70.5534 39.0632C74.7384 40.0148 80.3101 40.5382 86.2418 40.5382C92.1734 40.5382 97.7418 40.0148 101.932 39.0632C106.468 38.0315 108.087 36.7832 108.087 35.9582C108.087 35.1332 106.468 33.8848 101.932 32.8532C97.7468 31.9082 92.1751 31.3848 86.2418 31.3848V31.3782Z" fill="#171718"/>
<path d="M56.9699 25.0618C57.5608 24.0383 57.0033 22.6101 55.7247 21.8718C54.4461 21.1336 52.9305 21.3649 52.3395 22.3885C51.7486 23.412 52.3061 24.8402 53.5847 25.5784C54.8633 26.3166 56.3789 26.0853 56.9699 25.0618Z" fill="white"/>
<path d="M55.1362 26.5102C54.5022 26.5042 53.8809 26.3318 53.3345 26.0102C52.6394 25.6207 52.0967 25.0074 51.7945 24.2702C51.6429 23.9311 51.5738 23.5608 51.593 23.1899C51.6121 22.8189 51.719 22.4577 51.9047 22.136C52.0904 21.8143 52.3498 21.5412 52.6615 21.3392C52.9732 21.1371 53.3283 21.0118 53.6978 20.9735C54.4866 20.8778 55.2851 21.041 55.9731 21.4383C56.6612 21.8357 57.2015 22.4458 57.5128 23.1769C57.6641 23.5159 57.7329 23.886 57.7136 24.2567C57.6943 24.6275 57.5874 24.9884 57.4017 25.3099C57.216 25.6314 56.9567 25.9043 56.6452 26.1062C56.3337 26.3082 55.9788 26.4335 55.6095 26.4719C55.453 26.4972 55.2947 26.51 55.1362 26.5102ZM54.1728 21.9369C54.0612 21.9363 53.9498 21.9447 53.8395 21.9619C53.6186 21.978 53.4051 22.048 53.2175 22.1657C53.0299 22.2834 52.8739 22.4453 52.7633 22.6371C52.6527 22.829 52.5907 23.045 52.5827 23.2663C52.5748 23.4877 52.6212 23.7076 52.7178 23.9069C52.9464 24.4263 53.3347 24.8593 53.8263 25.1429C54.3179 25.4264 54.8871 25.5458 55.4512 25.4835C55.6694 25.4611 55.8796 25.3894 56.0661 25.2739C56.2526 25.1585 56.4105 25.0022 56.5278 24.8169C56.6316 24.6226 56.6896 24.4072 56.6974 24.1871C56.7052 23.967 56.6626 23.748 56.5728 23.5469C56.3541 23.021 55.9633 22.585 55.4645 22.3102C55.0738 22.0755 54.6285 21.9468 54.1728 21.9369Z" fill="#171718"/>
<path d="M71.0956 21.522C72.0841 20.8742 72.2294 19.3479 71.4201 18.1131C70.6108 16.8782 69.1534 16.4023 68.1649 17.0502C67.1764 17.698 67.0311 19.2243 67.8404 20.4591C68.6497 21.694 70.1071 22.1699 71.0956 21.522Z" fill="white"/>
<path d="M70.1015 22.3201C69.8104 22.3185 69.5213 22.2713 69.2449 22.1801C68.4919 21.9198 67.8492 21.4123 67.4215 20.7401C66.4632 19.2768 66.6732 17.4368 67.8899 16.6401C68.2025 16.4417 68.5565 16.3177 68.9246 16.2775C69.2927 16.2374 69.6651 16.2822 70.0132 16.4084C70.7607 16.678 71.4003 17.1832 71.8359 17.8478C72.2714 18.5124 72.4793 19.3005 72.4282 20.0934C72.4051 20.4631 72.2976 20.8226 72.1138 21.1442C71.9301 21.4657 71.675 21.7409 71.3682 21.9484C70.9916 22.194 70.5511 22.3232 70.1015 22.3201ZM69.1615 17.2701C68.9054 17.2671 68.654 17.3389 68.4382 17.4768C67.6815 17.9768 67.6049 19.1918 68.2582 20.1951C68.5615 20.6763 69.0184 21.041 69.5549 21.2301C69.761 21.3082 69.9822 21.3383 70.2017 21.3181C70.4212 21.2979 70.6332 21.2279 70.8215 21.1134C71.0014 20.9865 71.1499 20.8203 71.2559 20.6274C71.3619 20.4345 71.4225 20.22 71.4332 20.0001C71.4634 19.4332 71.3119 18.8715 71.0007 18.3967C70.6896 17.9218 70.235 17.5587 69.7032 17.3601C69.5285 17.3019 69.3457 17.2715 69.1615 17.2701Z" fill="#171718"/>
<path d="M119.197 25.5775C120.476 24.8393 121.033 23.4111 120.443 22.3875C119.852 21.364 118.336 21.1327 117.057 21.8709C115.779 22.6091 115.221 24.0373 115.812 25.0609C116.403 26.0844 117.919 26.3157 119.197 25.5775Z" fill="white"/>
<path d="M117.65 26.5101C117.491 26.5105 117.333 26.4983 117.176 26.4734C116.808 26.4292 116.455 26.301 116.145 26.0987C115.834 25.8964 115.574 25.6255 115.385 25.3068C115.205 24.9833 115.101 24.6228 115.081 24.2531C115.062 23.8833 115.128 23.514 115.273 23.1734C115.584 22.4424 116.125 21.8323 116.813 21.4349C117.501 21.0376 118.299 20.8744 119.088 20.9701C119.457 21.0094 119.812 21.1356 120.123 21.3383C120.434 21.5411 120.692 21.8147 120.877 22.1367C121.062 22.4587 121.168 22.8199 121.187 23.1907C121.205 23.5615 121.135 23.9314 120.983 24.2701C120.681 25.0067 120.138 25.6194 119.443 26.0084C118.899 26.3292 118.281 26.5022 117.65 26.5101ZM118.608 21.9368C118.15 21.9433 117.702 22.0697 117.308 22.3034C116.809 22.5783 116.418 23.0143 116.2 23.5401C116.11 23.7412 116.067 23.9602 116.075 24.1803C116.083 24.4004 116.141 24.6158 116.245 24.8101C116.362 24.9954 116.52 25.1517 116.706 25.2672C116.893 25.3827 117.103 25.4543 117.321 25.4768C117.885 25.539 118.455 25.4197 118.946 25.1361C119.438 24.8525 119.826 24.4196 120.055 23.9001C120.151 23.7008 120.198 23.4809 120.19 23.2596C120.182 23.0383 120.12 22.8222 120.009 22.6304C119.899 22.4385 119.743 22.2767 119.555 22.159C119.367 22.0413 119.154 21.9713 118.933 21.9551C118.825 21.9406 118.717 21.9345 118.608 21.9368Z" fill="#171718"/>
<path d="M104.947 20.4745C105.757 19.2396 105.611 17.7133 104.623 17.0655C103.634 16.4176 102.177 16.8935 101.368 18.1284C100.558 19.3633 100.704 20.8895 101.692 21.5374C102.681 22.1852 104.138 21.7093 104.947 20.4745Z" fill="white"/>
<path d="M102.678 22.3164C102.23 22.3207 101.79 22.1926 101.415 21.9481C100.196 21.1498 99.9862 19.3114 100.946 17.8464C101.906 16.3814 103.676 15.8464 104.893 16.6398C106.11 17.4331 106.32 19.2764 105.361 20.7398C104.703 21.7464 103.66 22.3164 102.678 22.3164ZM103.616 17.2664C102.968 17.2664 102.25 17.6798 101.783 18.3948C101.126 19.3948 101.208 20.6164 101.963 21.1114C102.72 21.6114 103.87 21.1948 104.526 20.1931C105.183 19.1914 105.103 17.9714 104.346 17.4764C104.129 17.3367 103.875 17.2647 103.616 17.2698V17.2664Z" fill="#171718"/>
<path d="M86.5099 20.1918C87.9026 20.1918 89.0316 19.0628 89.0316 17.6702C89.0316 16.2775 87.9026 15.1485 86.5099 15.1485C85.1173 15.1485 83.9883 16.2775 83.9883 17.6702C83.9883 19.0628 85.1173 20.1918 86.5099 20.1918Z" fill="white"/>
<path d="M86.5116 20.6899C85.9138 20.6902 85.3294 20.5132 84.8322 20.1813C84.3351 19.8494 83.9475 19.3775 83.7186 18.8253C83.4897 18.2731 83.4297 17.6654 83.5463 17.0791C83.6628 16.4928 83.9506 15.9543 84.3733 15.5316C84.796 15.1089 85.3346 14.8211 85.9209 14.7045C86.5072 14.588 87.1149 14.648 87.6671 14.8769C88.2193 15.1058 88.6912 15.4933 89.0231 15.9905C89.355 16.4877 89.5319 17.0721 89.5316 17.6699C89.5307 18.4706 89.2123 19.2382 88.6461 19.8044C88.0799 20.3705 87.3123 20.689 86.5116 20.6899ZM86.5116 15.6482C86.1117 15.6479 85.7207 15.7662 85.388 15.9881C85.0553 16.2101 84.7959 16.5257 84.6427 16.8951C84.4894 17.2645 84.4491 17.671 84.5269 18.0633C84.6047 18.4555 84.7972 18.8159 85.0798 19.0988C85.3625 19.3817 85.7227 19.5744 86.1149 19.6526C86.5071 19.7307 86.9137 19.6908 87.2832 19.5378C87.6527 19.3848 87.9686 19.1257 88.1908 18.7932C88.413 18.4607 88.5316 18.0698 88.5316 17.6699C88.5312 17.1341 88.3183 16.6204 87.9396 16.2414C87.5609 15.8624 87.0474 15.6491 86.5116 15.6482Z" fill="#171718"/>
<path d="M53.7695 15.6924L54.3916 14.9095L67.9834 25.7092L67.3613 26.4922L53.7695 15.6924Z" fill="#171718"/>
<path d="M35.3789 25.4971L35.5913 24.5199L60.754 29.9879L60.5417 30.9651L35.3789 25.4971Z" fill="#171718"/>
<path d="M74.6992 12.8799L75.6404 12.542L79.6869 23.8126L78.7458 24.1505L74.6992 12.8799Z" fill="#171718"/>
<path d="M92.75 23.9439L97.0588 12.523L97.9944 12.876L93.6856 24.2969L92.75 23.9439Z" fill="#171718"/>
<path d="M104.41 25.6915L118.351 14.8232L118.966 15.6119L105.025 26.4801L104.41 25.6915Z" fill="#171718"/>
<path d="M111.668 29.5577L137.439 24.5204L137.63 25.5018L111.86 30.5391L111.668 29.5577Z" fill="#171718"/>
<path d="M61.8008 32.6733L61.1758 31.8917C61.4358 31.6833 67.7574 26.795 86.6574 26.6417L86.6658 27.6417C68.1791 27.7917 61.8624 32.6233 61.8008 32.6733ZM110.531 32.6433C110.494 32.6083 106.687 29.13 94.1008 27.945L94.1941 26.945C107.206 28.17 111.066 31.765 111.224 31.9167L110.529 32.6367L110.876 32.2767L110.531 32.6433Z" fill="#171718"/>
<path d="M64.3789 32.1187L65.2493 31.6264L66.3627 33.5951L65.4923 34.0874L64.3789 32.1187Z" fill="#171718"/>
<path d="M69.2148 30.4722L70.1881 30.2425L70.6789 32.3221L69.7057 32.5518L69.2148 30.4722Z" fill="#171718"/>
<path d="M75.6211 29.3511L76.6133 29.2265L76.88 31.3498L75.8878 31.4744L75.6211 29.3511Z" fill="#171718"/>
<path d="M97.6367 31.5147L98.2464 29.4391L99.2059 29.7209L98.5962 31.7965L97.6367 31.5147Z" fill="#171718"/>
<path d="M101.492 32.1763L102.229 30.1708L103.168 30.5158L102.431 32.5213L101.492 32.1763Z" fill="#171718"/>
<path d="M106 33.5386L107.004 31.7818L107.872 32.2779L106.868 34.0347L106 33.5386Z" fill="#171718"/>
<path d="M74.2586 31.6301H74.9253V44.5601H74.2586V31.6301ZM81.7436 37.2251H82.4103V43.1834H81.7436V37.2251ZM67.3836 80.4618H68.0503V86.4201H67.3836V80.4618ZM92.8969 35.5451H93.5636V53.5734H92.8969V35.5451ZM99.0086 31.8784H99.6753V45.6284H99.0086V31.8784ZM104.355 43.1834H105.022V54.0301H104.355V43.1834ZM95.0353 86.7251H95.7019V97.5718H95.0353V86.7251ZM81.2819 4.22844L81.1036 3.24511C81.8173 3.11515 82.5371 3.02114 83.2603 2.96344L83.3403 3.96344C82.6501 4.01652 81.9631 4.10497 81.2819 4.22844ZM67.7086 14.0684L66.8086 13.6334C66.9619 13.3134 70.6986 5.78344 79.8386 3.51511L80.0803 4.48677C71.4086 6.63677 67.7436 13.9951 67.7086 14.0684Z" fill="#171718"/>
<path d="M83.7392 81.8399C84.1421 83.1267 84.2464 84.4884 84.0442 85.8216C83.7392 87.8449 82.5442 90.6549 78.6192 92.5782L78.4692 92.6516C76.5675 93.5699 75.5992 94.4282 76.2808 96.0916C76.4503 96.4859 76.714 96.8325 77.0488 97.1011C77.3835 97.3696 77.7792 97.5518 78.2008 97.6316C78.7077 97.7405 79.2335 97.7239 79.7325 97.5832C79.8861 97.5404 80.0497 97.5527 80.1952 97.6178C80.3407 97.6829 80.4588 97.7969 80.5292 97.9399C80.5737 98.0291 80.598 98.127 80.6006 98.2267C80.6031 98.3264 80.5838 98.4254 80.5439 98.5168C80.504 98.6082 80.4445 98.6897 80.3697 98.7556C80.2949 98.8215 80.2065 98.8702 80.1108 98.8982C79.3993 99.0993 78.6495 99.1251 77.9258 98.9732C77.2832 98.8477 76.6814 98.5658 76.1736 98.1524C75.6657 97.7391 75.2676 97.207 75.0142 96.6032C74.4575 95.2449 74.6408 93.9916 75.5475 92.9799C76.2492 92.1966 77.2275 91.7232 77.8808 91.4116L78.0258 91.3416C80.7525 90.0082 82.3242 88.0816 82.6925 85.6099C82.8615 84.5021 82.78 83.3705 82.4542 82.2982L83.7392 81.8399Z" fill="white"/>
<path d="M78.8797 99.4047C78.5371 99.4043 78.1953 99.3691 77.8597 99.2997C77.1642 99.1639 76.5128 98.859 75.9628 98.412C75.4129 97.9649 74.9814 97.3895 74.7064 96.7364C74.0964 95.2514 74.3031 93.8764 75.2997 92.763C76.0447 91.9297 77.0581 91.4414 77.7281 91.118L77.8747 91.048C80.4947 89.768 82.0047 87.923 82.3597 85.568C82.5188 84.514 82.4431 83.4378 82.1381 82.4164L82.0264 82.103L83.9397 81.413L84.0531 81.728C84.4749 83.0666 84.5843 84.4839 84.3731 85.8714C84.0564 87.973 82.8264 90.8947 78.7664 92.8714L78.6147 92.9447C76.5547 93.9447 76.0631 94.6714 76.5897 95.958C76.7397 96.3002 76.971 96.6005 77.2635 96.8328C77.556 97.0652 77.9009 97.2226 78.2681 97.2914C78.7219 97.3891 79.1927 97.3748 79.6397 97.2497C79.899 97.175 80.1773 97.2063 80.4134 97.3368C80.6496 97.4673 80.8242 97.6863 80.8989 97.9455C80.9736 98.2048 80.9423 98.4831 80.8118 98.7192C80.6813 98.9554 80.4623 99.13 80.2031 99.2047C79.7736 99.3335 79.3281 99.4009 78.8797 99.4047ZM82.8597 82.5114C83.1208 83.5421 83.1774 84.6139 83.0264 85.6664C82.6364 88.253 81.0031 90.2647 78.1731 91.6464L78.0264 91.718C77.4031 92.0197 76.4614 92.4747 75.8031 93.208C74.9831 94.118 74.8164 95.2514 75.3164 96.4847C75.549 97.0369 75.9139 97.5234 76.379 97.9013C76.844 98.2791 77.3949 98.5367 77.9831 98.6514C78.6541 98.7936 79.3498 98.7701 80.0097 98.583C80.0578 98.5696 80.1022 98.5455 80.1397 98.5127C80.1772 98.4798 80.2068 98.4389 80.2264 98.393C80.2487 98.3459 80.2602 98.2944 80.2602 98.2422C80.2602 98.19 80.2487 98.1385 80.2264 98.0914C80.1908 98.0184 80.1309 97.9602 80.057 97.9267C79.983 97.8932 79.8997 97.8866 79.8214 97.908C79.2705 98.0645 78.6896 98.0834 78.1297 97.963C77.6539 97.8722 77.2075 97.6661 76.8298 97.3627C76.4521 97.0594 76.1545 96.6681 75.9631 96.223C75.1014 94.1197 76.7247 93.123 78.3147 92.3564L78.4647 92.283C82.2647 90.428 83.4114 87.7214 83.7047 85.783C83.877 84.6154 83.8118 83.4249 83.5131 82.283L82.8597 82.5114Z" fill="#171718"/>
<path d="M85.9839 86.4362L85.2306 90.7962C85.2072 91.126 85.3072 91.4527 85.5112 91.713C85.7152 91.9732 86.0086 92.1484 86.3345 92.2044C86.6603 92.2605 86.9954 92.1935 87.2746 92.0164C87.5539 91.8393 87.7574 91.5648 87.8456 91.2462L88.6023 86.8628L91.3172 78.3112C91.3172 78.3112 87.9956 76.0645 86.0456 77.5612C84.3172 78.8812 83.7789 83.7695 85.9839 86.4362Z" fill="white"/>
<path d="M86.5383 92.6799C86.4422 92.6798 86.3463 92.6715 86.2516 92.6549C85.8189 92.5784 85.434 92.334 85.1805 91.9751C84.9271 91.6161 84.8257 91.1716 84.8983 90.7383L85.6249 86.5266C84.5216 85.1083 84.0116 82.9999 84.255 80.8483C84.4383 79.2449 85.03 77.9166 85.84 77.2966C87.955 75.6733 91.3566 77.9383 91.5066 78.0349L91.7133 78.1749L88.9233 86.9366L88.17 91.2966C88.104 91.6818 87.9041 92.0313 87.6056 92.2834C87.307 92.5356 86.9291 92.6743 86.5383 92.6749V92.6799ZM87.6883 77.3799C87.1709 77.3626 86.6627 77.5193 86.245 77.8249C85.5783 78.3249 85.0783 79.5183 84.9116 80.9233C84.68 82.9616 85.1733 84.9416 86.2299 86.2233L86.3266 86.3416L85.5483 90.8516C85.5355 91.0964 85.613 91.3374 85.7662 91.5288C85.9193 91.7202 86.1375 91.8486 86.3791 91.8897C86.6208 91.9309 86.8691 91.8818 87.077 91.7519C87.2848 91.6219 87.4377 91.4202 87.5066 91.1849L88.2816 86.7699L90.9166 78.4649C90.3949 78.1433 88.9816 77.3799 87.6883 77.3799Z" fill="#171718"/>
<path d="M76.2564 78.1529L75.4481 82.8329C75.3899 83.1794 75.471 83.5349 75.6735 83.8221C75.8761 84.1092 76.1838 84.3047 76.5297 84.3662C76.8763 84.4244 77.2318 84.3433 77.5189 84.1408C77.806 83.9382 78.0016 83.6305 78.0631 83.2846L78.8714 78.6029L76.2564 78.1529Z" fill="white"/>
<path d="M76.762 84.7196C76.6659 84.7195 76.57 84.7111 76.4753 84.6946C76.0409 84.6181 75.6546 84.3725 75.4009 84.0117C75.1472 83.6509 75.0469 83.2042 75.122 82.7696L75.9836 77.7696L79.2553 78.3346L78.3903 83.3446C78.3228 83.729 78.1225 84.0776 77.8243 84.3295C77.5261 84.5814 77.149 84.7206 76.7586 84.7229L76.762 84.7196ZM76.5303 78.5379L75.7786 82.8896C75.739 83.025 75.7284 83.1673 75.7477 83.3071C75.7669 83.4469 75.8156 83.581 75.8904 83.7007C75.9652 83.8203 76.0644 83.9228 76.1817 84.0014C76.2989 84.0799 76.4314 84.1328 76.5705 84.1564C76.7096 84.1801 76.8522 84.1741 76.9888 84.1387C77.1254 84.1034 77.253 84.0395 77.3632 83.9514C77.4734 83.8632 77.5636 83.7527 77.628 83.6271C77.6925 83.5016 77.7296 83.3638 77.737 83.2229L78.4836 78.8746L76.5303 78.5379Z" fill="#171718"/>
<path d="M76.3622 82.0782L76.0039 84.1515L76.3622 82.0782Z" fill="#E0F2FE"/>
<path d="M75.75 84.0982L76.1073 82.0254L76.6 82.1104L76.2427 84.1831L75.75 84.0982Z" fill="#171718"/>
<path d="M77.0922 82.378L76.7422 84.403L77.0922 82.378Z" fill="#E0F2FE"/>
<path d="M76.4922 84.3497L76.8413 82.3245L77.334 82.4095L76.9849 84.4346L76.4922 84.3497Z" fill="#171718"/>
<path d="M87.2356 90.2281L86.8789 92.3014L87.2356 90.2281Z" fill="#E0F2FE"/>
<path d="M86.6289 92.2476L86.9862 90.1749L87.4789 90.2598L87.1216 92.3326L86.6289 92.2476Z" fill="#171718"/>
<path d="M86.4516 90.2662L86.1016 92.2912L86.4516 90.2662Z" fill="#E0F2FE"/>
<path d="M85.8477 92.2354L86.1964 90.2119L86.6892 90.2969L86.3404 92.3203L85.8477 92.2354Z" fill="#171718"/>
<path d="M93.6815 68.7978C93.6982 68.9795 93.7149 69.1595 93.7299 69.3378C93.8749 71.0027 93.8498 72.678 93.6549 74.3378C92.7232 81.7428 88.1549 83.1711 88.1549 83.1711C79.3215 85.3895 75.9615 78.4895 75.9615 78.4895C75.5589 77.2841 75.3893 76.0132 75.4615 74.7445C75.5612 73.0471 75.8891 71.3709 76.4365 69.7611C76.9602 68.1463 77.6337 66.5839 78.4482 65.0945C78.6899 62.0778 80.7282 57.7111 80.7282 57.7111C80.8765 55.1128 81.2982 53.6295 81.2982 53.6295C82.7982 53.9628 84.6449 55.5228 84.6449 55.5228C87.5232 55.2078 90.8232 56.9178 90.8232 56.9178C92.3115 55.7628 95.6815 55.9961 95.6815 55.9961C95.6815 57.9261 94.3482 60.3461 94.3482 60.3461C94.9515 63.5578 93.6815 68.7978 93.6815 68.7978Z" fill="white"/>
<path d="M84.8172 83.9364C81.9589 83.9364 79.8939 82.9364 78.5506 81.9264C77.3582 81.0548 76.3736 79.9301 75.6672 78.633L75.6506 78.603C75.2355 77.3567 75.0618 76.0427 75.1389 74.7314C75.2371 73.0037 75.5702 71.2975 76.1289 69.6597C76.6515 68.0495 77.321 66.4907 78.1289 65.003C78.3839 62.123 80.1539 58.188 80.4056 57.6397C80.5572 55.073 80.9656 53.6097 80.9839 53.548L81.0689 53.2447L81.3772 53.3147C82.7439 53.6214 84.3239 54.8414 84.7539 55.188C87.3006 54.9664 90.0606 56.188 90.7972 56.5397C92.4306 55.4597 95.5722 55.663 95.7089 55.673L96.0189 55.6947V56.0047C96.0189 57.7897 94.9639 59.9114 94.7006 60.4114C95.2256 63.513 94.1522 68.233 94.0122 68.8247C94.0272 68.9914 94.0422 69.158 94.0556 69.3247C94.2034 71.01 94.1794 72.7059 93.9839 74.3864C93.0372 81.9164 88.4522 83.428 88.2572 83.488H88.2389C87.1212 83.7777 85.9719 83.9283 84.8172 83.9364ZM76.2739 78.3564C76.9443 79.5557 77.8645 80.5969 78.9722 81.4097C81.4606 83.243 84.5206 83.7347 88.0672 82.848C88.2572 82.7814 92.4506 81.2547 93.3239 74.2997C93.5165 72.6609 93.5411 71.0068 93.3972 69.363C93.3856 69.1964 93.3689 69.0297 93.3539 68.863L93.3456 68.768L93.3589 68.7147C93.3706 68.663 94.6039 63.5047 94.0256 60.408L94.0056 60.2914L94.0622 60.1864C94.0739 60.1647 95.2122 58.0814 95.3422 56.3164C94.4856 56.2947 92.1456 56.3164 91.0322 57.1814L90.8656 57.313L90.6772 57.2147C90.6439 57.198 87.4306 55.548 84.6872 55.8564L84.5456 55.873L84.4356 55.7797C84.4206 55.7664 82.8889 54.483 81.5472 54.0447C81.2892 55.2593 81.1292 56.4928 81.0689 57.733V57.7964L81.0406 57.8547C81.0206 57.898 79.0256 62.2014 78.7922 65.1214V65.1964L78.7556 65.2614C77.9545 66.7295 77.29 68.2682 76.7706 69.858C76.2315 71.4383 75.9091 73.0844 75.8122 74.7514C75.7373 75.9718 75.8933 77.1955 76.2722 78.358L76.2739 78.3564Z" fill="#171718"/>
<path d="M92.5644 64.9932C92.5644 64.9932 92.8427 59.0898 91.0544 58.0715C91.0544 58.0715 89.171 57.4715 89.4977 59.9148C89.4977 59.9148 89.6494 61.9665 89.2344 63.8032" fill="white"/>
<path d="M92.8963 65.008L92.2296 64.978C92.3029 63.4046 92.2096 59.1846 90.9213 58.3813C90.8013 58.3513 90.3563 58.2613 90.0779 58.498C89.7996 58.7346 89.7363 59.188 89.8263 59.8696V59.8896C89.8263 59.9763 89.9763 62.013 89.5563 63.8763L88.9062 63.7296C89.2912 62.023 89.1729 60.0963 89.1629 59.948C89.0413 59.018 89.2046 58.358 89.6496 57.9846C90.2563 57.4846 91.1163 57.743 91.1496 57.7546L91.2129 57.7813C93.1296 58.8696 92.9263 64.383 92.8963 65.008Z" fill="#171718"/>
<path d="M82.6072 62.2697C82.7427 60.9593 83.0336 59.6697 83.4739 58.428C83.4739 58.428 84.1405 57.0013 82.9505 56.468C82.9505 56.468 80.9055 55.6513 79.6172 60.4947" fill="white"/>
<path d="M82.9407 62.288L82.2741 62.2397C82.4101 60.9001 82.7067 59.5818 83.1574 58.313L83.1707 58.2814C83.1707 58.2814 83.4441 57.6814 83.2707 57.218C83.2308 57.1174 83.1708 57.026 83.0942 56.9495C83.0177 56.873 82.9263 56.8129 82.8257 56.773C82.5494 56.7076 82.2584 56.7537 82.0157 56.9014C81.4307 57.208 80.5957 58.0947 79.9324 60.568L79.2891 60.4014C79.8774 58.1947 80.7041 56.8114 81.7441 56.2897C81.9449 56.1764 82.1669 56.1056 82.3963 56.0818C82.6257 56.058 82.8576 56.0817 83.0774 56.1514C83.2648 56.2257 83.4348 56.3382 83.5765 56.4816C83.7182 56.6251 83.8286 56.7964 83.9007 56.9847C84.1524 57.663 83.8441 58.4147 83.7874 58.5447C83.3586 59.7547 83.0744 61.0112 82.9407 62.288Z" fill="#171718"/>
<path d="M86.6903 59.9875C86.7381 59.7081 86.4554 59.4266 86.0589 59.3588C85.6624 59.2911 85.3022 59.4627 85.2545 59.7421C85.2067 60.0216 85.4894 60.303 85.8859 60.3708C86.2824 60.4386 86.6425 60.267 86.6903 59.9875Z" fill="#171718"/>
<path d="M83.7031 62.5333C83.7031 62.5333 85.4448 63.0066 85.8698 61.0816L83.7031 62.5333Z" fill="white"/>
<path d="M84.1639 62.9163C83.9798 62.9178 83.7963 62.8971 83.6172 62.8546L83.7839 62.2096C84.1574 62.2957 84.5496 62.243 84.8872 62.0613C85.2072 61.8663 85.4239 61.513 85.5339 61.0113L86.1855 61.153C86.0355 61.843 85.7139 62.3413 85.2289 62.6346C84.9061 62.8236 84.5379 62.921 84.1639 62.9163Z" fill="#171718"/>
<path d="M87.4996 63.188C87.4996 63.188 85.6996 63.0513 85.9496 61.0963L87.4996 63.188Z" fill="white"/>
<path d="M87.4822 63.5197C86.9214 63.462 86.4029 63.1948 86.0306 62.7714C85.6722 62.3314 85.5306 61.7547 85.6272 61.0547L86.2939 61.1381C86.2289 61.6497 86.3156 62.0581 86.5539 62.3497C86.8113 62.6296 87.1611 62.8072 87.5389 62.8497L87.4822 63.5197Z" fill="#171718"/>
<path d="M88.4971 60.3747C88.8515 60.3747 89.1388 60.0874 89.1388 59.733C89.1388 59.3787 88.8515 59.0914 88.4971 59.0914C88.1428 59.0914 87.8555 59.3787 87.8555 59.733C87.8555 60.0874 88.1428 60.3747 88.4971 60.3747Z" fill="#171718"/>
<path d="M84.2706 59.4196C84.625 59.4196 84.9122 59.1323 84.9122 58.778C84.9122 58.4236 84.625 58.1363 84.2706 58.1363C83.9162 58.1363 83.6289 58.4236 83.6289 58.778C83.6289 59.1323 83.9162 59.4196 84.2706 59.4196Z" fill="#171718"/>
<path d="M84.9961 71.9698C85.7555 71.9698 86.3711 71.3542 86.3711 70.5948C86.3711 69.8354 85.7555 69.2198 84.9961 69.2198C84.2367 69.2198 83.6211 69.8354 83.6211 70.5948C83.6211 71.3542 84.2367 71.9698 84.9961 71.9698Z" fill="#E0F2FE"/>
<path d="M84.9935 72.303C84.6552 72.303 84.3246 72.2026 84.0435 72.0145C83.7624 71.8264 83.5434 71.5591 83.4144 71.2464C83.2853 70.9338 83.252 70.5899 83.3186 70.2583C83.3852 69.9267 83.5487 69.6223 83.7885 69.3837C84.0282 69.1451 84.3334 68.9831 84.6653 68.9181C84.9973 68.8531 85.341 68.8882 85.653 69.0187C85.965 69.1493 86.2313 69.3696 86.418 69.6516C86.6047 69.9336 86.7035 70.2647 86.7018 70.603C86.6992 71.0545 86.5181 71.4866 86.198 71.8051C85.878 72.1235 85.445 72.3025 84.9935 72.303ZM84.9935 69.553C84.7875 69.553 84.586 69.6141 84.4147 69.7285C84.2434 69.843 84.1099 70.0057 84.0311 70.196C83.9523 70.3863 83.9316 70.5958 83.9718 70.7978C84.012 70.9999 84.1112 71.1855 84.2569 71.3312C84.4026 71.4769 84.5882 71.5761 84.7903 71.6163C84.9923 71.6565 85.2018 71.6358 85.3921 71.557C85.5824 71.4782 85.7451 71.3446 85.8596 71.1733C85.974 71.002 86.0351 70.8007 86.0351 70.5946C86.0351 70.3184 85.9254 70.0534 85.73 69.8581C85.5347 69.6627 85.2697 69.553 84.9935 69.553Z" fill="#171718"/>
<path d="M88.2759 70.1862C86.0196 70.2104 83.7888 69.7076 81.7609 68.7179C80.3696 68.0372 79.1167 67.1042 78.0659 65.9662C78.0191 65.9142 77.9837 65.853 77.9621 65.7865C77.9404 65.7199 77.9329 65.6496 77.9402 65.58C77.9474 65.5104 77.9691 65.4431 78.004 65.3825C78.0389 65.3218 78.0861 65.2692 78.1426 65.2279C78.2426 65.1549 78.3662 65.1217 78.4894 65.1346C78.6126 65.1476 78.7265 65.2057 78.8093 65.2979C79.7886 66.3544 80.9564 67.2192 82.2526 67.8479C85.4193 69.4112 89.2693 69.6079 93.3926 68.4229C93.5176 68.3885 93.6512 68.404 93.765 68.4662C93.8788 68.5284 93.964 68.6324 94.0026 68.7562C94.0229 68.8196 94.0303 68.8863 94.0245 68.9526C94.0187 69.0188 93.9997 69.0833 93.9686 69.1421C93.9376 69.2009 93.8951 69.2529 93.8437 69.2952C93.7923 69.3374 93.733 69.3689 93.6693 69.3879C91.9178 69.9055 90.1022 70.1742 88.2759 70.1862Z" fill="#171718"/>
</svg>
