<svg width="126" height="132" viewBox="0 0 126 132" fill="none" xmlns="http://www.w3.org/2000/svg">
<path d="M11.1273 51.803L9.35568 51.4164L8.95234 49.648C8.94553 49.6178 8.92862 49.5907 8.90439 49.5713C8.88015 49.5519 8.85005 49.5414 8.81901 49.5414C8.78785 49.5416 8.75765 49.5522 8.73319 49.5715C8.70874 49.5908 8.69143 49.6178 8.68401 49.648L8.28068 51.4247L6.50901 51.8447C6.47847 51.8522 6.45133 51.8698 6.43198 51.8945C6.41263 51.9193 6.40219 51.9499 6.40235 51.9814C6.4025 52.0124 6.41336 52.0425 6.43309 52.0665C6.45283 52.0905 6.48023 52.1069 6.51068 52.113L8.28235 52.4997L8.68401 54.268C8.69143 54.2983 8.70874 54.3252 8.73319 54.3446C8.75765 54.3639 8.78785 54.3745 8.81901 54.3747C8.85005 54.3747 8.88015 54.3641 8.90439 54.3448C8.92862 54.3254 8.94553 54.2983 8.95234 54.268L9.35735 52.4914L11.129 52.0714C11.1602 52.0653 11.1882 52.0486 11.2084 52.0242C11.2286 51.9997 11.2397 51.9689 11.2397 51.9372C11.2397 51.9055 11.2286 51.8747 11.2084 51.8503C11.1882 51.8258 11.1602 51.8091 11.129 51.803H11.1273ZM14.3457 44.208L13.429 44.008L13.2223 43.093C13.2188 43.0771 13.21 43.0628 13.1973 43.0526C13.1845 43.0423 13.1687 43.0367 13.1523 43.0367C13.136 43.0367 13.1202 43.0423 13.1074 43.0526C13.0947 43.0628 13.0858 43.0771 13.0823 43.093L12.874 44.013L11.9573 44.2297C11.9416 44.2335 11.9276 44.2424 11.9177 44.2551C11.9077 44.2678 11.9023 44.2835 11.9023 44.2997C11.9024 44.3159 11.9081 44.3316 11.9185 44.344C11.9288 44.3565 11.9431 44.365 11.959 44.368L12.8757 44.568L13.0823 45.483C13.0858 45.499 13.0947 45.5133 13.1074 45.5235C13.1202 45.5338 13.136 45.5393 13.1523 45.5393C13.1687 45.5393 13.1845 45.5338 13.1973 45.5235C13.21 45.5133 13.2188 45.499 13.2223 45.483L13.4307 44.563L14.3473 44.3464C14.3629 44.3424 14.3767 44.3333 14.3867 44.3207C14.3966 44.308 14.4021 44.2925 14.4023 44.2764C14.4023 44.2602 14.3966 44.2445 14.3862 44.2321C14.3759 44.2196 14.3616 44.2111 14.3457 44.208ZM101.306 44.4597L100.217 44.223L99.9707 43.1364C99.9662 43.1177 99.9555 43.1012 99.9403 43.0894C99.9252 43.0775 99.9065 43.0712 99.8873 43.0714C99.8683 43.071 99.8497 43.0773 99.8348 43.0891C99.8199 43.101 99.8096 43.1177 99.8057 43.1364L99.5573 44.228L98.4673 44.4864C98.4487 44.4909 98.4321 44.5016 98.4203 44.5167C98.4085 44.5318 98.4022 44.5505 98.4023 44.5697C98.4023 44.5889 98.409 44.6075 98.4211 44.6224C98.4333 44.6373 98.4502 44.6475 98.469 44.6514L99.5573 44.888L99.8057 45.9747C99.8092 45.9937 99.8194 46.0108 99.8343 46.023C99.8493 46.0352 99.868 46.0417 99.8873 46.0414C99.9068 46.0415 99.9256 46.0349 99.9408 46.0228C99.9559 46.0106 99.9665 45.9937 99.9707 45.9747L100.219 44.883L101.307 44.6247C101.326 44.6205 101.343 44.6099 101.355 44.5947C101.367 44.5795 101.373 44.5606 101.372 44.5414C101.372 44.5222 101.366 44.5035 101.354 44.4887C101.341 44.4738 101.325 44.4636 101.306 44.4597Z" fill="#171718"/>
<path d="M124.903 64.0632C124.903 64.0632 123.283 59.6065 118.961 60.8215C118.961 60.8215 118.421 54.3399 111.4 53.9349C104.378 53.5299 102.216 59.0666 102.216 59.0666C102.216 59.0666 96.2747 55.8249 92.2164 60.8215C92.2164 60.8215 87.6247 60.8215 86.6797 64.0632H124.903Z" fill="white"/>
<path d="M125.616 64.5633H86.0195L86.2062 63.9233C87.1245 60.775 90.9679 60.3783 91.9829 60.33C95.5545 56.1333 100.455 57.7533 101.983 58.4066C102.73 57.0133 105.381 53.0866 111.43 53.4366C117.535 53.7883 119.033 58.5483 119.37 60.2117C123.681 59.3867 125.358 63.845 125.37 63.8916L125.616 64.5633ZM87.4312 63.5633H124.115C123.501 62.465 121.963 60.4983 119.096 61.3033L118.513 61.47L118.463 60.865C118.441 60.62 117.861 54.81 111.37 54.4366C104.788 54.055 102.703 59.1983 102.681 59.25L102.476 59.78L101.976 59.5066C101.75 59.3833 96.3462 56.5317 92.6112 61.1383L92.4612 61.3233H92.2229C92.1845 61.3216 88.6495 61.3583 87.4312 63.5633Z" fill="#171718"/>
<path d="M24.903 67.8749C24.903 67.8749 23.8914 65.0932 21.1947 65.8532C21.1947 65.8532 20.8614 61.8082 16.4764 61.5549C12.0914 61.3016 10.7464 64.7566 10.7464 64.7566C10.7464 64.7566 7.03802 62.7349 4.50969 65.8532C4.50969 65.8532 1.64469 65.8532 1.05469 67.8749H24.903Z" fill="white"/>
<path d="M25.6151 68.375H0.386719L0.573385 67.735C1.15838 65.735 3.50005 65.4117 4.26838 65.3617C6.45838 62.8617 9.39005 63.6633 10.5167 64.1083C11.0984 63.1083 12.8267 60.845 16.5034 61.055C20.24 61.2717 21.3051 64.055 21.5917 65.2583C23.7501 64.95 24.9967 66.6733 25.3717 67.7033L25.6151 68.375ZM1.87505 67.375H24.0684C23.6301 66.7367 22.7634 65.93 21.3284 66.3333L20.7451 66.5L20.6934 65.895C20.6817 65.75 20.3267 62.28 16.4451 62.0617C12.4717 61.83 11.2217 64.9167 11.2084 64.9467L11.0017 65.4767L10.5017 65.205C10.3651 65.1317 7.12338 63.4267 4.89338 66.175L4.74339 66.3617H4.50505C4.48838 66.3533 2.70672 66.375 1.87505 67.375Z" fill="#171718"/>
<path d="M67.9857 44.6248H72.1523V121.958H67.9857V44.6248ZM50.1523 0.95813H58.6523V3.95813H50.1523V0.95813Z" fill="#171718"/>
<path d="M55.6523 1.29163H58.6523V20.2916H55.6523V1.29163Z" fill="white"/>
<path d="M59.1523 20.7916H55.1523V0.791626H59.1523V20.7916ZM56.1523 19.7916H58.1523V1.79163H56.1523V19.7916Z" fill="#171718"/>
<path d="M64.9844 77.0418V48.6251H35.4844V77.0418C35.4844 80.9537 37.0384 84.7055 39.8046 87.4716C42.5707 90.2378 46.3224 91.7918 50.2344 91.7918C54.1463 91.7918 57.898 90.2378 60.6642 87.4716C63.4304 84.7055 64.9844 80.9537 64.9844 77.0418Z" fill="white"/>
<path d="M50.2344 92.2918C46.1898 92.2918 42.3109 90.6851 39.451 87.8252C36.5911 84.9652 34.9844 81.0863 34.9844 77.0418V48.1251H65.4844V77.0418C65.4795 81.0849 63.8713 84.9609 61.0124 87.8198C58.1535 90.6787 54.2774 92.2869 50.2344 92.2918ZM35.9844 49.1251V77.0418C35.9844 80.8211 37.4857 84.4457 40.1581 87.1181C42.8305 89.7905 46.455 91.2918 50.2344 91.2918C54.0137 91.2918 57.6383 89.7905 60.3106 87.1181C62.983 84.4457 64.4844 80.8211 64.4844 77.0418V49.1251H35.9844Z" fill="#171718"/>
<path d="M83.6523 48.7916L64.9857 52.2916L50.1523 9.29163H70.9673C72.7291 9.29168 74.4731 9.64338 76.0971 10.3261C77.7212 11.0088 79.1927 12.0088 80.4253 13.2675C81.6579 14.5262 82.6269 16.0183 83.2755 17.6563C83.924 19.2943 84.2392 21.0453 84.2023 22.8066L83.6523 48.7916Z" fill="white"/>
<path d="M64.6526 52.8633L49.4492 8.79163H70.9659C72.7942 8.79166 74.6041 9.15668 76.2895 9.86527C77.9749 10.5739 79.5019 11.6118 80.781 12.9182C82.0601 14.2246 83.0655 15.7732 83.7383 17.4732C84.4111 19.1732 84.7378 20.9904 84.6992 22.8183L84.1426 49.2083L64.6526 52.8633ZM50.8526 9.79163L65.3159 51.72L83.1592 48.375L83.7009 22.7966C83.7357 21.1022 83.432 19.4178 82.8077 17.8423C82.1833 16.2667 81.2509 14.8315 80.0649 13.6208C78.8789 12.4101 77.4632 11.4483 75.9008 10.7917C74.3384 10.135 72.6607 9.79671 70.9659 9.79663L50.8526 9.79163Z" fill="#171718"/>
<path d="M64.9023 23.9582V52.3748H35.4023V23.9582C35.403 21.4957 36.0197 19.0725 37.1963 16.9093C38.373 14.7461 40.0721 12.9117 42.139 11.5732C42.4723 11.3565 42.8151 11.1532 43.1673 10.9632C46.4357 9.21206 50.2422 8.75112 53.834 9.67149C54.1673 9.75593 54.4951 9.8526 54.8173 9.96149C57.7543 10.9414 60.3086 12.8204 62.1185 15.3324C63.9285 17.8443 64.9024 20.862 64.9023 23.9582Z" fill="#E0F2FE"/>
<path d="M65.4023 52.8752H34.9023V23.9585C34.9034 21.4126 35.5412 18.9074 36.7577 16.671C37.9741 14.4345 39.7307 12.5378 41.8673 11.1535C42.2007 10.9319 42.5657 10.7202 42.929 10.5235C46.3087 8.71255 50.2452 8.2367 53.959 9.19021C54.2923 9.27687 54.644 9.37854 54.9757 9.48854C58.0139 10.4986 60.6566 12.4403 62.5284 15.0379C64.4001 17.6355 65.4057 20.7568 65.4023 23.9585V52.8752ZM35.9023 51.8752H64.4023V23.9585C64.4063 20.9665 63.4669 18.0493 61.7177 15.6218C59.9685 13.1943 57.4985 11.38 54.659 10.4369C54.349 10.3319 54.0307 10.2385 53.7107 10.1569C50.2397 9.26635 46.5609 9.71125 43.4023 11.4035C43.069 11.5869 42.7357 11.7852 42.4023 11.9935C41.5609 12.5374 40.7788 13.1681 40.069 13.8752C38.7429 15.196 37.6918 16.7666 36.9766 18.4963C36.2614 20.2259 35.8963 22.0802 35.9023 23.9519V51.8752Z" fill="#171718"/>
<path d="M64.9002 44.6534V52.3751H35.5352L64.9002 44.6534Z" fill="#171718"/>
<path d="M63.499 26.8382C58.129 27.6465 54.999 19.0748 54.1373 16.2798C54.4323 14.3582 54.6723 12.2498 54.8173 9.96151C54.494 9.8504 54.1662 9.75373 53.834 9.67151C53.7295 11.3798 53.5628 13.0837 53.334 14.7798L53.0007 15.2498C49.974 19.4415 44.9023 17.8748 43.5823 17.3748C43.2132 15.2583 43.074 13.108 43.1673 10.9615C42.8162 11.1515 42.4735 11.3548 42.139 11.5715C42.0933 13.478 42.2256 15.3846 42.534 17.2665C42.5507 17.3682 42.569 17.4715 42.5857 17.5748C41.1973 22.2148 36.3457 24.3065 35.4023 24.6732V25.7082L35.474 25.7198L36.3223 26.0532C36.5032 26.1855 36.6624 26.3451 36.794 26.5265C38.2307 28.4798 37.5557 33.0265 37.3373 34.2732L35.4023 34.9398V35.9965C35.889 35.8298 36.7007 35.5498 37.7173 35.1932C38.2107 35.3116 38.6743 35.5306 39.079 35.8367C39.4837 36.1427 39.8207 36.529 40.069 36.9715C41.7357 39.8048 40.6357 44.8398 40.4023 45.8048C38.8357 48.0698 37.1457 50.2065 35.4023 51.9132V52.3748H36.3523C38.0357 50.6848 39.659 48.6348 41.164 46.4732C45.8523 42.7765 49.4423 45.9282 50.079 46.5582C50.1507 49.0198 50.194 51.1348 50.2157 52.3748H51.2157C51.194 51.1098 51.1507 48.9432 51.0773 46.4232C54.0307 42.1198 58.789 44.3282 58.9907 44.4232L59.1223 44.4865C60.1198 47.0658 60.9706 49.6995 61.6707 52.3748H62.704C61.8249 48.9204 60.6872 45.537 59.3007 42.2532C58.634 38.8565 59.134 35.4882 60.7707 32.2232C61.5955 30.5722 62.6723 29.0596 63.9623 27.7398C64.3157 27.5832 64.629 27.4365 64.9023 27.3032V26.1798C64.5507 26.3582 64.079 26.5865 63.499 26.8382ZM53.784 18.3748C54.9757 21.5948 57.424 26.6532 61.2957 27.7082C60.1655 28.1011 59.0156 28.4348 57.8507 28.7082C54.7273 27.1948 53.3907 22.5915 53.114 21.5065C53.3496 20.5298 53.5729 19.486 53.784 18.3748ZM53.5473 29.4498C53.1023 29.1165 51.7907 28.0348 51.589 26.6948C51.9223 25.7548 52.2807 24.6432 52.634 23.3615C53.2473 25.0798 54.424 27.5598 56.424 29.0165C55.4713 29.1978 54.5116 29.3401 53.5473 29.4432V29.4498ZM56.369 30.0598C55.6573 31.0482 54.8357 32.5598 54.809 34.2832C54.5897 33.9928 54.3635 33.7078 54.1307 33.4282L53.8623 32.9182C53.6073 32.4348 53.049 30.9932 53.6273 30.4515C54.584 30.3465 55.5007 30.2082 56.369 30.0532V30.0598ZM52.4023 31.5748C52.036 31.2323 51.6516 30.9096 51.2507 30.6082C51.6585 30.5937 52.0601 30.5732 52.4557 30.5465C52.3749 30.8831 52.3569 31.2317 52.4023 31.5748ZM41.999 28.2082C42.774 28.4898 43.5723 28.7765 44.369 29.0548C44.399 29.1015 44.4307 29.1465 44.4623 29.1932C45.0223 30.0148 45.4807 30.6932 44.7357 31.5915C43.7357 31.9698 42.724 32.3432 41.7457 32.6998C42.2465 31.2554 42.3342 29.6998 41.999 28.2082ZM42.3707 27.2798C42.8703 26.9769 43.3363 26.6215 43.7607 26.2198C44.2455 25.6851 44.5736 25.0272 44.709 24.3182C45.1593 25.2612 45.6756 26.1712 46.254 27.0415C46.2691 27.185 46.2478 27.3299 46.1922 27.463C46.1366 27.5961 46.0484 27.7131 45.9357 27.8032C45.654 28.0148 45.249 28.0582 44.9807 28.0865C44.9007 28.0965 44.814 28.1065 44.7357 28.1232C43.9448 27.8503 43.1565 27.5703 42.3707 27.2832V27.2798ZM43.9023 32.9765L44.689 32.8998C44.7007 32.8998 45.8923 32.7915 46.589 33.4098C46.8567 33.656 47.0285 33.989 47.074 34.3498C46.5207 35.4515 45.869 36.7032 45.139 38.0365C44.9907 36.8965 44.6107 35.5048 43.6757 34.5565C43.2465 34.1184 42.7105 33.7996 42.1207 33.6315C42.7023 33.4182 43.3007 33.2082 43.9023 32.9765ZM47.794 35.1715L47.8807 35.1148C47.8807 35.1148 48.409 34.7815 48.9057 34.9082C49.0502 34.9515 49.1846 35.0232 49.3011 35.119C49.4175 35.2149 49.5137 35.333 49.584 35.4665C49.6807 36.8365 49.764 38.3365 49.8357 39.8715C49.1967 39.2607 48.3973 38.844 47.5307 38.6698C47.3348 38.6354 47.1362 38.6181 46.9373 38.6182C46.5832 38.6217 46.2316 38.6779 45.894 38.7848C46.6023 37.4848 47.2357 36.2632 47.7907 35.1715H47.794ZM49.144 33.9382C48.9871 33.8989 48.8258 33.8793 48.664 33.8798C48.5855 33.8806 48.507 33.8856 48.429 33.8948C48.7623 33.2148 49.049 32.6115 49.2857 32.1032C49.354 32.6898 49.4173 33.3465 49.4773 34.0565C49.3691 34.0065 49.2564 33.9669 49.1407 33.9382H49.144ZM47.669 33.1482C47.5513 32.967 47.4101 32.8022 47.249 32.6582C46.9523 32.4036 46.607 32.2119 46.234 32.0948C47.059 31.7765 47.864 31.4615 48.6207 31.1532C48.3075 31.8206 47.9892 32.4857 47.6657 33.1482H47.669ZM46.0957 31.0765C46.1813 30.5639 46.0977 30.0373 45.8573 29.5765C46.624 29.8348 47.3757 30.0765 48.0873 30.2982C47.4473 30.5415 46.7773 30.8115 46.0923 31.0765H46.0957ZM46.4023 28.6982C46.4473 28.6698 46.4907 28.6398 46.534 28.6082C46.7206 28.4689 46.8776 28.2938 46.9957 28.0932C47.2757 28.461 47.5723 28.8237 47.8857 29.1815C47.4023 29.0282 46.9023 28.8748 46.4023 28.6982ZM47.069 26.4782C46.3295 25.3582 45.6968 24.1713 45.179 22.9332C46.7523 23.4332 49.6023 24.0465 51.7373 22.7498C51.3823 24.0632 51.0223 25.2048 50.6857 26.1715C50.214 26.3982 48.5473 27.0865 47.069 26.4782ZM51.0407 28.1298C51.3376 28.6581 51.7099 29.1404 52.1457 29.5615C51.5768 29.5982 50.9957 29.6198 50.4023 29.6265C50.5823 29.2532 50.8007 28.7515 51.0473 28.1298H51.0407ZM53.0407 16.7498C52.7807 18.3198 52.4857 19.7632 52.174 21.0682C50.1057 23.6032 45.8123 22.1315 44.7073 21.6965C44.3375 20.6509 44.0353 19.5826 43.8023 18.4982C45.6823 19.0732 49.9923 19.9048 53.0407 16.7498ZM36.7973 25.1715H36.7873C38.454 24.3648 41.409 22.5632 42.954 19.3698C43.144 20.1548 43.3807 20.9765 43.6723 21.8182L43.739 22.1515C43.9957 23.4332 43.7007 24.8565 43.0373 25.5382C42.5507 26.0382 41.5573 26.6265 41.1623 26.8515C39.3873 26.1782 37.8157 25.5698 36.7973 25.1715ZM38.0473 26.7282C38.869 27.0448 39.824 27.4065 40.8473 27.7865C41.4064 29.5614 41.2736 31.4821 40.4757 33.1632C39.749 33.4248 39.0557 33.6732 38.4157 33.8982C38.6607 32.2898 39.0073 28.9048 38.0473 26.7282ZM40.9273 36.4648C40.5032 35.729 39.8875 35.1219 39.1457 34.7082L39.634 34.5415L39.6207 34.5632L40.634 34.4948C41.6173 34.4298 42.3773 34.6832 42.959 35.2715C44.1957 36.5248 44.2407 38.9182 44.219 39.6932C43.474 40.9998 42.6657 42.3598 41.8073 43.6932C42.084 41.5582 42.164 38.5582 40.9273 36.4648ZM45.639 43.7082C44.5586 43.7168 43.4937 43.9668 42.5223 44.4398C43.4023 43.0848 44.2357 41.7082 44.989 40.3832L45.0123 40.3648C45.7907 39.7632 46.579 39.5315 47.3457 39.6548C48.679 39.8765 49.644 41.0932 49.8923 41.4332C49.9457 42.7198 49.9923 44.0065 50.0307 45.2348C49.139 44.5732 47.5957 43.7082 45.639 43.7082ZM49.4223 29.3748C48.9037 28.8481 48.4162 28.2916 47.9623 27.7082C48.7316 27.76 49.5037 27.6621 50.2357 27.4198C49.9023 28.2848 49.6207 28.9398 49.4223 29.3748ZM50.1573 31.0815C50.8285 31.5376 51.4547 32.0566 52.0273 32.6315C51.4063 32.7845 50.8503 33.1319 50.4407 33.6232C50.354 32.6498 50.2607 31.7865 50.1573 31.0732V31.0815ZM50.579 35.3748C50.714 34.9598 51.3273 33.4065 52.9123 33.5665C53.1973 33.8882 53.4923 34.2415 53.7973 34.6315C54.189 35.1315 54.6107 35.7215 55.0523 36.3915C53.9773 36.6682 52.0673 37.3915 50.8007 39.2248C50.7357 37.8865 50.664 36.5798 50.579 35.3748ZM51.0323 44.8915C50.994 43.7248 50.9507 42.5065 50.899 41.2882C51.869 38.3082 54.6423 37.4865 55.6223 37.2882C56.6567 38.9998 57.5695 40.782 58.354 42.6215C58.3923 42.8082 58.4323 42.9965 58.479 43.1848C56.8773 42.7082 53.569 42.1882 51.0323 44.8882V44.8915ZM59.9023 31.7398C58.6676 34.1469 58.027 36.8146 58.034 39.5198C57.5207 38.5048 57.009 37.5932 56.5073 36.7715L56.359 36.4915C54.6923 33.3748 57.2357 30.4432 57.9223 29.7348C59.2778 29.4228 60.6135 29.0305 61.9223 28.5598C61.1483 29.5524 60.4719 30.6174 59.9023 31.7398Z" fill="white"/>
<path d="M67.0664 131.208H111.578C112.14 125.311 107.506 123.275 107.506 123.275C108.63 121.415 108.103 120.221 108.103 120.221C107.401 119.238 106.663 120.221 106.663 120.221C106.698 117.833 105.496 117.413 105.496 117.413C104.663 117.201 104.373 118.851 104.373 118.851C101.855 116.218 99.3997 117.658 99.3997 117.658C99.7514 116.535 99.5764 115.825 99.5764 115.825C99.1197 115.228 98.6281 115.991 98.6281 115.991C98.7681 112.796 97.6097 112.658 97.6097 112.658C96.4431 112.623 96.6614 115.08 96.6614 115.08C94.9781 112.763 93.0464 112.658 93.0464 112.658C90.0281 112.623 88.5181 115.783 88.5181 115.783C88.7281 112.026 87.3514 112.026 87.3514 112.026C85.8064 112.343 86.7897 116.415 86.7897 116.415C84.6131 114.695 82.7181 115.115 82.7181 115.115C79.0664 115.748 78.0514 120.873 78.0514 120.873C77.0347 119.433 76.3314 119.785 76.3314 119.785C75.3497 120.311 75.8414 121.82 75.8414 121.82C72.6114 122.628 75.1381 123.26 75.1381 123.26C74.5064 123.786 74.0847 124.735 74.0847 124.735C68.1897 124.678 67.0664 131.208 67.0664 131.208Z" fill="#171718"/>
<path d="M90.4232 130.708H21.1398C20.2665 121.528 27.4732 118.36 27.4732 118.36C25.7248 115.463 26.5448 113.607 26.5448 113.607C27.6365 112.077 28.7848 113.607 28.7848 113.607C28.7298 109.89 30.5882 109.235 30.5882 109.235C31.8998 108.902 32.3365 111.475 32.3365 111.475C36.2698 107.377 40.0948 109.617 40.0948 109.617C39.5482 107.868 39.8215 106.783 39.8215 106.783C40.5315 105.853 41.2965 107.057 41.2965 107.057C41.0782 102.083 42.8815 101.865 42.8815 101.865C44.6848 101.81 44.3565 105.635 44.3565 105.635C46.9798 102.028 49.9848 101.865 49.9848 101.865C54.6832 101.81 57.0332 106.728 57.0332 106.728C56.7098 100.875 58.8415 100.875 58.8415 100.875C61.2448 101.375 59.7165 107.708 59.7165 107.708C63.1032 105.032 66.0498 105.687 66.0498 105.687C71.7332 106.67 73.3182 114.648 73.3182 114.648C74.9015 112.407 75.9948 112.953 75.9948 112.953C77.5248 113.773 76.7598 116.12 76.7598 116.12C81.7865 117.377 77.8531 118.36 77.8531 118.36C78.8365 119.18 79.4915 120.655 79.4915 120.655C88.6748 120.542 90.4232 130.708 90.4232 130.708Z" fill="white"/>
<path d="M91.0178 131.208H20.6845L20.6412 130.755C20.1728 125.837 21.9945 122.607 23.6045 120.763C24.5104 119.721 25.5855 118.839 26.7845 118.153C25.2745 115.332 26.0562 113.487 26.0912 113.405L26.1128 113.357L26.1428 113.315C26.5595 112.732 27.0495 112.433 27.5978 112.427C27.8494 112.423 28.0983 112.48 28.3228 112.593C28.5962 109.448 30.3445 108.792 30.4262 108.76L30.4712 108.747C30.6569 108.698 30.8509 108.689 31.0402 108.721C31.2296 108.753 31.41 108.825 31.5695 108.932C32.0945 109.275 32.4195 109.958 32.6095 110.52C35.3495 108.09 38.0045 108.382 39.3795 108.793C39.1395 107.493 39.3312 106.692 39.3412 106.652L39.3662 106.552L39.4295 106.468C39.7912 105.995 40.1895 105.908 40.4612 105.922C40.572 105.927 40.6815 105.948 40.7862 105.985C40.8562 101.728 42.6112 101.385 42.8262 101.358H42.8712C43.0944 101.35 43.3168 101.391 43.5229 101.477C43.729 101.563 43.9138 101.694 44.0645 101.858C44.6012 102.427 44.7978 103.407 44.8612 104.235C47.3378 101.542 49.8445 101.372 49.9628 101.367H50.0678C53.2445 101.367 55.3762 103.438 56.5128 104.955C56.5795 103.065 56.9712 101.732 57.6795 100.977C58.2145 100.412 58.7362 100.383 58.8345 100.383H58.8845L58.9345 100.393C59.1808 100.444 59.4137 100.546 59.6186 100.692C59.8235 100.837 59.9958 101.024 60.1245 101.24C60.9578 102.54 60.7028 105.048 60.4462 106.573C63.4462 104.693 65.9112 105.147 66.1428 105.193C70.9012 106.027 72.9078 111.305 73.5545 113.55C75.0128 111.978 76.0828 112.438 76.2212 112.505C77.6278 113.258 77.5245 114.917 77.3645 115.762C79.0795 116.24 79.8212 116.745 79.8212 117.428C79.8212 117.98 79.2962 118.35 78.7728 118.582C79.1752 119.068 79.5223 119.597 79.8078 120.16C83.6012 120.212 86.7128 122.012 88.8245 125.38C89.8267 126.992 90.5349 128.769 90.9162 130.628L91.0178 131.208ZM21.6028 130.208H89.7995C89.4125 128.679 88.7942 127.218 87.9662 125.875C85.9895 122.738 83.1912 121.148 79.6478 121.148H79.1728L79.0395 120.848C79.0395 120.835 78.4162 119.467 77.5395 118.733L76.7828 118.103L77.7345 117.875C78.108 117.789 78.4627 117.635 78.7812 117.422C78.6462 117.298 78.1778 116.988 76.6412 116.605L76.1212 116.475L76.2878 115.965C76.2878 115.947 76.8928 114.032 75.7878 113.405C75.6928 113.382 74.9195 113.25 73.7295 114.933L73.0678 115.875L72.8395 114.735C72.8245 114.658 71.2528 107.082 65.9778 106.17H65.9545C65.8462 106.147 63.1762 105.613 60.0362 108.095L58.9012 108.993L59.2345 107.588C59.5212 106.395 60.0912 103.027 59.2912 101.768C59.1877 101.585 59.0186 101.447 58.8178 101.383C58.3412 101.497 57.3178 102.61 57.5428 106.693L57.6845 109.223L56.5912 106.937C56.5695 106.892 54.3412 102.358 50.0712 102.358H50.0145C49.8178 102.373 47.1645 102.632 44.7712 105.923L43.7145 107.375L43.8645 105.59C43.9395 104.705 43.8645 103.09 43.3395 102.542C43.291 102.486 43.2313 102.442 43.1644 102.411C43.0975 102.38 43.0249 102.363 42.9512 102.362C42.7762 102.43 41.6278 103.028 41.8028 107.028L41.8845 108.897L40.8845 107.32C40.7678 107.138 40.5512 106.93 40.4228 106.925C40.3895 106.925 40.3478 106.952 40.2995 107C40.2562 107.292 40.1812 108.188 40.5812 109.47L40.9678 110.703L39.8495 110.042C39.7078 109.962 36.3012 108.067 32.7028 111.815L32.0162 112.542L31.8495 111.563C31.7562 111.02 31.4478 110.053 31.0162 109.777C30.9761 109.748 30.9306 109.728 30.8823 109.718C30.8341 109.708 30.7843 109.708 30.7362 109.718C30.5695 109.797 29.2362 110.505 29.2845 113.603L29.3062 115.142L28.3845 113.912C28.2878 113.787 27.9412 113.412 27.6028 113.432C27.4012 113.432 27.1945 113.577 26.9862 113.853C26.8895 114.127 26.4462 115.697 27.9012 118.107L28.1945 118.593L27.6745 118.822C26.3942 119.471 25.2551 120.367 24.3228 121.458C22.2862 123.813 21.3695 126.757 21.6028 130.208Z" fill="#171718"/>
<path d="M70.8104 125.682C68.6704 127.095 67.6637 129.348 67.227 130.708H51.902C50.6837 126.857 51.0937 124.807 51.0937 124.807C52.132 126.61 53.2787 127.102 53.2787 127.102C54.5354 124.807 54.0437 118.633 54.0437 118.633C56.3387 120.763 56.1204 125.518 56.1204 125.518C57.747 119.717 61.4704 117.95 61.5287 117.923C59.1254 121.857 59.0154 127.648 59.0154 127.648C61.967 122.95 67.5937 123.497 67.5937 123.497C63.497 124.862 63.332 129.015 63.332 129.015C66.1104 125.9 70.8104 125.682 70.8104 125.682Z" fill="white"/>
<path d="M67.5888 131.208H51.5255L51.4155 130.86C50.1721 126.93 50.5821 124.798 50.5921 124.71L50.8538 123.407L51.5204 124.558C51.9029 125.26 52.422 125.877 53.0471 126.375C53.9405 123.937 53.5471 118.73 53.5355 118.675L53.4338 117.395L54.3738 118.268C55.6971 119.497 56.2454 121.475 56.4688 123.06C58.3638 118.862 61.2771 117.485 61.3105 117.47L62.7971 116.792L61.9455 118.185C60.4088 120.702 59.8371 124.047 59.6271 126.018C62.7938 122.582 67.4155 122.982 67.6271 123.003L69.9721 123.23L67.7371 123.975C66.8912 124.247 66.1224 124.717 65.4945 125.345C64.8667 125.974 64.3979 126.744 64.1271 127.59C66.9721 125.392 70.6055 125.195 70.7805 125.187L72.5938 125.103L71.0788 126.103C69.0321 127.457 68.0788 129.668 67.6955 130.867L67.5888 131.208ZM62.9221 130.208H66.8671C67.3538 128.809 68.125 127.525 69.1321 126.438C67.5788 126.782 65.2871 127.568 63.6955 129.348L62.9221 130.208ZM52.2555 130.208H62.7704L62.8188 128.995C62.8188 128.958 62.9688 126.018 65.3488 124.128C63.5521 124.435 61.0421 125.337 59.4238 127.915L58.4671 129.438L58.5004 127.638C58.5004 127.433 58.6038 123.245 60.1454 119.533C58.9788 120.605 57.4655 122.517 56.5871 125.653L55.4105 129.847L55.6055 125.495C55.6055 125.458 55.7271 122.415 54.6055 120.25C54.6638 122.293 54.6055 125.692 53.6988 127.342L53.4805 127.74L53.0638 127.562C53.0238 127.545 52.3305 127.238 51.5255 126.31C51.6151 127.634 51.8619 128.943 52.2604 130.208H52.2555Z" fill="#171718"/>
<path d="M50.67 75.0902C52.0001 75.0902 53.0784 74.012 53.0784 72.6819C53.0784 71.3518 52.0001 70.2736 50.67 70.2736C49.34 70.2736 48.2617 71.3518 48.2617 72.6819C48.2617 74.012 49.34 75.0902 50.67 75.0902Z" fill="#171718"/>
<path d="M48.7304 71.7902L47.2621 70.6602L45.3704 71.5235L45.0938 70.9168L47.3504 69.8868L49.1371 71.2618L48.7304 71.7902Z" fill="#171718"/>
<path d="M45.2233 73.7584L44.75 73.2884L46.4733 71.5501L48.7483 72.1718L48.5733 72.8151L46.6733 72.2951L45.2233 73.7584ZM46.5767 75.8334L45.9583 75.5834L46.855 73.3784L48.7967 73.1918L48.86 73.8551L47.32 74.0034L46.5767 75.8334ZM52.4833 71.7901L52.0767 71.2618L53.8633 69.8868L56.12 70.9168L55.8433 71.5234L53.9517 70.6601L52.4833 71.7901Z" fill="#171718"/>
<path d="M55.9872 73.7585L54.5372 72.2951L52.6372 72.8151L52.4622 72.1718L54.7372 71.5501L56.4606 73.2885L55.9872 73.7585ZM54.6356 75.8335L53.8906 74.0035L52.3506 73.8551L52.4156 73.1918L54.3556 73.3785L55.2522 75.5835L54.6356 75.8335ZM50.2539 52.3751H51.0872V70.9001H50.2539V52.3751Z" fill="#171718"/>
</svg>
