<svg width="178" height="86" viewBox="0 0 178 86" fill="none" xmlns="http://www.w3.org/2000/svg">
<path d="M34.8943 37.4835L33.1843 37.1118L32.7959 35.4035C32.7892 35.374 32.7727 35.3477 32.7491 35.3289C32.7255 35.3101 32.6961 35.2998 32.6659 35.2998C32.6357 35.2998 32.6064 35.3101 32.5828 35.3289C32.5592 35.3477 32.5426 35.374 32.5359 35.4035L32.1459 37.1185L30.4343 37.5252C30.4043 37.5311 30.3774 37.5472 30.3581 37.5708C30.3387 37.5943 30.3281 37.6239 30.3281 37.6543C30.3281 37.6848 30.3387 37.7144 30.3581 37.7379C30.3774 37.7615 30.4043 37.7776 30.4343 37.7835L32.1443 38.1568L32.5326 39.8635C32.5393 39.893 32.5558 39.9193 32.5794 39.9381C32.6031 39.957 32.6324 39.9672 32.6626 39.9672C32.6928 39.9672 32.7221 39.957 32.7457 39.9381C32.7694 39.9193 32.7859 39.893 32.7926 39.8635L33.1826 38.1485L34.8943 37.7418C34.9242 37.7359 34.9511 37.7198 34.9705 37.6963C34.9898 37.6727 35.0004 37.6432 35.0004 37.6127C35.0004 37.5822 34.9898 37.5526 34.9705 37.5291C34.9511 37.5055 34.9242 37.4894 34.8943 37.4835ZM139.561 28.4835L137.851 28.1118L137.463 26.4035C137.456 26.374 137.439 26.3477 137.416 26.3289C137.392 26.3101 137.363 26.2998 137.333 26.2998C137.302 26.2998 137.273 26.3101 137.249 26.3289C137.226 26.3477 137.209 26.374 137.203 26.4035L136.813 28.1185L135.101 28.5252C135.071 28.5311 135.044 28.5472 135.025 28.5708C135.005 28.5943 134.995 28.6238 134.995 28.6543C134.995 28.6848 135.005 28.7144 135.025 28.7379C135.044 28.7615 135.071 28.7776 135.101 28.7835L136.811 29.1568L137.199 30.8635C137.206 30.893 137.222 30.9193 137.246 30.9381C137.27 30.957 137.299 30.9672 137.329 30.9672C137.359 30.9672 137.389 30.957 137.412 30.9381C137.436 30.9193 137.453 30.893 137.459 30.8635L137.849 29.1485L139.561 28.7418C139.591 28.7359 139.618 28.7198 139.637 28.6963C139.656 28.6727 139.667 28.6432 139.667 28.6127C139.667 28.5822 139.656 28.5526 139.637 28.5291C139.618 28.5055 139.591 28.4894 139.561 28.4835ZM77.3326 6.7435L76.2159 6.50017L75.9626 5.38684C75.9574 5.36873 75.9465 5.35279 75.9314 5.34145C75.9164 5.33011 75.8981 5.32397 75.8793 5.32397C75.8604 5.32397 75.8421 5.33011 75.8271 5.34145C75.812 5.35279 75.8011 5.36873 75.7959 5.38684L75.5409 6.50517L74.4243 6.77017C74.405 6.77504 74.388 6.78623 74.3759 6.80195C74.3638 6.81767 74.3574 6.837 74.3576 6.85684C74.3576 6.87648 74.3644 6.89552 74.3769 6.91072C74.3893 6.92591 74.4067 6.93632 74.4259 6.94017L75.5426 7.1835L75.7959 8.2985C75.802 8.31576 75.8133 8.33071 75.8282 8.34129C75.8431 8.35186 75.861 8.35754 75.8793 8.35754C75.8976 8.35754 75.9154 8.35186 75.9303 8.34129C75.9452 8.33071 75.9565 8.31576 75.9626 8.2985L76.2159 7.1785L77.3343 6.9135C77.3534 6.90898 77.3703 6.8981 77.3825 6.88266C77.3946 6.86722 77.4011 6.84813 77.4009 6.82851C77.401 6.80866 77.3942 6.78938 77.3818 6.77391C77.3694 6.75844 77.352 6.7477 77.3326 6.7435ZM149.999 40.4102L148.883 40.1668L148.629 39.0535C148.624 39.0354 148.613 39.0195 148.598 39.0081C148.583 38.9968 148.565 38.9906 148.546 38.9906C148.527 38.9906 148.509 38.9968 148.494 39.0081C148.479 39.0195 148.468 39.0354 148.463 39.0535L148.208 40.1718L147.091 40.4368C147.072 40.4417 147.055 40.4529 147.043 40.4686C147.03 40.4843 147.024 40.5037 147.024 40.5235C147.024 40.5432 147.031 40.5622 147.044 40.5774C147.056 40.5926 147.073 40.603 147.093 40.6068L148.209 40.8502L148.463 41.9652C148.469 41.9824 148.48 41.9974 148.495 42.008C148.51 42.0185 148.528 42.0242 148.546 42.0242C148.564 42.0242 148.582 42.0185 148.597 42.008C148.612 41.9974 148.623 41.9824 148.629 41.9652L148.883 40.8452L150.001 40.5802C150.02 40.5756 150.037 40.5648 150.049 40.5493C150.061 40.5339 150.068 40.5148 150.068 40.4952C150.068 40.4753 150.061 40.456 150.048 40.4406C150.036 40.4251 150.019 40.4144 149.999 40.4102Z" fill="#171718"/>
<path d="M63.9256 15.5015C63.9256 15.5015 62.1906 10.7298 57.5622 12.0315C57.5622 12.0315 56.9839 5.09146 49.4656 4.65813C41.9472 4.2248 39.6322 10.1581 39.6322 10.1581C39.6322 10.1581 33.2706 6.68813 28.9322 12.0381C28.9322 12.0381 24.0172 12.0381 23.0039 15.5081L63.9256 15.5015Z" fill="white"/>
<path d="M64.6398 16.0017H22.3398L22.5265 15.3617C23.5082 11.9967 27.6382 11.5883 28.6932 11.5383C32.5265 7.02668 37.7932 8.79835 39.3932 9.48835C39.9107 8.51358 40.5866 7.63157 41.3932 6.87835C42.8498 5.50835 45.4382 3.92335 49.5015 4.15835C56.0565 4.53668 57.6315 9.68001 57.9765 11.42C62.5882 10.5117 64.3832 15.2817 64.3998 15.3317L64.6398 16.0017ZM23.7465 15.0017H63.1415C62.4998 13.835 60.8382 11.63 57.6998 12.5133L57.1165 12.68L57.0648 12.0767C57.0432 11.8117 56.4198 5.56335 49.4382 5.16002C42.3632 4.75168 40.1232 10.2817 40.1048 10.3367L39.8982 10.8667L39.3982 10.595C39.1548 10.4617 33.3448 7.39501 29.3265 12.35L29.1765 12.535H28.9382C28.8932 12.5317 25.0332 12.57 23.7465 15.0017Z" fill="#171718"/>
<path d="M146.727 9.07807C146.727 9.07807 145.393 5.4114 141.837 6.4114C141.837 6.4114 141.392 1.07807 135.61 0.744736C129.828 0.411403 128.052 4.9664 128.052 4.9664C128.052 4.9664 123.165 2.29973 119.832 6.40973C119.832 6.40973 116.052 6.40973 115.273 9.0764L146.727 9.07807Z" fill="white"/>
<path d="M147.443 9.5783H114.609L114.796 8.93829C115.556 6.32829 118.688 5.96663 119.593 5.91829C122.513 2.52163 126.478 3.75162 127.828 4.30829C128.503 3.08829 130.719 -0.0433747 135.649 0.241625C140.633 0.528292 141.933 4.34663 142.249 5.80663C145.083 5.31996 146.721 7.56996 147.206 8.90663L147.443 9.5783ZM116.036 8.5783H145.924C145.386 7.67996 144.161 6.27496 141.973 6.89162L141.389 7.05829L141.339 6.45496C141.321 6.25496 140.839 1.54663 135.583 1.24329C130.224 0.931627 128.534 5.10663 128.518 5.14996L128.311 5.67829L127.811 5.40663C127.626 5.30663 123.239 2.99496 120.213 6.72829L120.063 6.91329H119.833C119.796 6.90996 117.079 6.9383 116.036 8.5783Z" fill="#171718"/>
<path d="M25.6133 85.6334H53.7799C54.1366 81.9 51.2033 80.6117 51.2033 80.6117C51.9149 79.4334 51.5816 78.6784 51.5816 78.6784C51.1366 78.0567 50.6699 78.6784 50.6699 78.6784C50.6916 77.1684 49.9366 76.9017 49.9366 76.9017C49.4033 76.7684 49.2249 77.8117 49.2249 77.8117C47.6266 76.145 46.0699 77.0567 46.0699 77.0567C46.2047 76.6874 46.2431 76.2899 46.1816 75.9017C45.8933 75.5234 45.5816 76.0117 45.5816 76.0117C45.6699 73.99 44.9366 73.9017 44.9366 73.9017C44.2033 73.88 44.3366 75.435 44.3366 75.435C43.2716 73.9684 42.0483 73.9017 42.0483 73.9017C40.1383 73.88 39.1833 75.8784 39.1833 75.8784C39.3166 73.5017 38.4499 73.5017 38.4499 73.5017C37.4716 73.7017 38.0933 76.2784 38.0933 76.2784C36.7166 75.19 35.5166 75.4567 35.5166 75.4567C33.2049 75.8567 32.5616 79.1017 32.5616 79.1017C31.9166 78.19 31.4733 78.4117 31.4733 78.4117C30.8499 78.745 31.1616 79.7 31.1616 79.7C29.1166 80.2117 30.7166 80.6117 30.7166 80.6117C30.4364 80.877 30.2101 81.1939 30.0499 81.545C26.3316 81.5 25.6133 85.6334 25.6133 85.6334Z" fill="#171718"/>
<path d="M40.3986 85.2432H-3.45474C-3.99974 79.4332 0.556929 77.4282 0.556929 77.4282C-0.549738 75.5949 -0.0297377 74.4182 -0.0297377 74.4182C0.661929 73.4499 1.38693 74.4182 1.38693 74.4182C1.3536 72.0666 2.52859 71.6516 2.52859 71.6516C3.36193 71.4449 3.63526 73.0699 3.63526 73.0699C6.12526 70.4766 8.54693 71.9032 8.54693 71.9032C8.20026 70.7949 8.38026 70.1032 8.38026 70.1032C8.83026 69.5166 9.31359 70.2699 9.31359 70.2699C9.17526 67.1232 10.3136 66.9849 10.3136 66.9849C11.4553 66.9499 11.2469 69.3716 11.2469 69.3716C12.9136 67.0882 14.8103 66.9849 14.8103 66.9849C17.7836 66.9499 19.2719 70.0632 19.2719 70.0632C19.0636 66.3616 20.4119 66.3616 20.4119 66.3616C21.9336 66.6732 20.9653 70.6849 20.9653 70.6849C23.1103 68.9899 24.9769 69.4049 24.9769 69.4049C28.5753 70.0282 29.5769 75.0716 29.5769 75.0716C30.5769 73.6532 31.2719 73.9982 31.2719 73.9982C32.2403 74.5182 31.7569 75.9982 31.7569 75.9982C34.9386 76.7932 32.4486 77.4166 32.4486 77.4166C33.0703 77.9349 33.4853 78.8682 33.4853 78.8682C39.2919 78.8116 40.3986 85.2432 40.3986 85.2432Z" fill="white"/>
<path d="M41.0002 85.7433H-3.90977L-3.95144 85.3C-4.42311 80.3534 -1.33311 77.9667 -0.12144 77.23C-1.01144 75.45 -0.511441 74.27 -0.488107 74.2167L-0.46644 74.17L-0.438107 74.1283C-0.064774 73.605 0.350226 73.4917 0.631893 73.4884C0.73428 73.4872 0.836339 73.5001 0.935226 73.5267C1.18689 71.62 2.30856 71.1934 2.36189 71.18L2.40689 71.1667C2.54797 71.1306 2.69505 71.1246 2.8386 71.149C2.98215 71.1734 3.11898 71.2277 3.24023 71.3083C3.53061 71.5241 3.75232 71.8193 3.87856 72.1584C5.43523 70.8884 6.93523 70.9167 7.85856 71.1267C7.79852 70.7444 7.80641 70.3545 7.88189 69.975L7.90689 69.8734L7.97023 69.7917C8.05848 69.6596 8.17872 69.5519 8.31976 69.4788C8.4608 69.4056 8.61806 69.3694 8.77689 69.3734H8.79689C8.89689 66.79 10.0019 66.515 10.2436 66.485H10.2886C10.4554 66.478 10.6218 66.5075 10.7761 66.5714C10.9304 66.6353 11.0688 66.7321 11.1819 66.855C11.4736 67.1634 11.6219 67.6267 11.6936 68.0783C13.2202 66.59 14.6936 66.49 14.7719 66.485H14.7936C16.6569 66.4667 17.9752 67.52 18.7769 68.4567C18.8652 67.4567 19.1202 66.7367 19.5386 66.29C19.6465 66.1641 19.7784 66.0609 19.9266 65.9865C20.0748 65.9121 20.2364 65.8679 20.4019 65.8567H20.4536L20.5019 65.8667C20.6817 65.9048 20.8518 65.9793 21.0017 66.0857C21.1516 66.192 21.2782 66.3279 21.3736 66.485C21.8602 67.25 21.7969 68.615 21.6602 69.61C23.4469 68.625 24.8869 68.875 25.0619 68.91C27.9769 69.42 29.3069 72.46 29.8069 74.035C30.7136 73.2117 31.3952 73.5084 31.4852 73.5534C32.3286 74.005 32.4419 74.9334 32.3386 75.6484C33.1719 75.8934 33.8652 76.2284 33.8652 76.8317C33.8652 77.195 33.6119 77.45 33.3036 77.625C33.4836 77.8637 33.6446 78.1162 33.7852 78.38C39.6769 78.5367 40.8736 85.0884 40.8852 85.155L41.0002 85.7433ZM-2.98144 84.7433H39.7702C39.3552 83.2433 37.8769 79.38 33.5736 79.38H33.1552L33.0219 79.0783C33.0219 79.07 32.6436 78.245 32.1219 77.8067L31.3652 77.1767L32.3202 76.9384C32.4337 76.9073 32.5451 76.8689 32.6536 76.8234C32.3202 76.6819 31.975 76.5704 31.6219 76.49L31.1019 76.36L31.2686 75.85C31.2686 75.8417 31.5869 74.7967 31.0619 74.4617C30.9236 74.4483 30.5202 74.5867 29.9736 75.36L29.3069 76.31L29.0802 75.1684C29.0702 75.1217 28.0986 70.4483 24.8852 69.8917H24.8619C24.7986 69.8783 23.1802 69.5583 21.2686 71.0767L20.1352 71.9733L20.4686 70.5667C20.7136 69.5467 20.9469 67.6833 20.5286 67.025C20.495 66.966 20.4468 66.9166 20.3886 66.8817C20.2086 66.9884 19.6186 67.5334 19.7586 70.0334L19.9002 72.5634L18.8086 70.2767C18.7952 70.25 17.4202 67.4633 14.8186 67.4833C14.6836 67.495 13.0886 67.6717 11.6402 69.6634L10.5836 71.115L10.7369 69.3267C10.7836 68.775 10.7252 67.8267 10.4536 67.54C10.4338 67.5155 10.4071 67.4975 10.3769 67.4884C10.2419 67.5784 9.71023 68.0817 9.79856 70.2467L9.88023 72.1134L8.88023 70.5367C8.86513 70.5129 8.84783 70.4906 8.82856 70.47C8.81947 70.9027 8.88371 71.3338 9.01856 71.745L9.40356 72.9784L8.28856 72.325C8.20523 72.2784 6.16189 71.1584 3.99189 73.4167L3.30856 74.1334L3.14189 73.155C3.08356 72.8217 2.89689 72.275 2.70023 72.155L2.67523 72.1434C2.54689 72.215 1.86189 72.67 1.88689 74.4217L1.91023 75.9584L0.986893 74.7284C0.903831 74.6121 0.781117 74.5303 0.641892 74.4984C0.581892 74.4984 0.49856 74.5634 0.41356 74.665C0.351893 74.8634 0.14356 75.78 0.985227 77.175L1.28023 77.6617L0.75856 77.89C0.591893 77.9667 -3.23811 79.7283 -2.98977 84.7433H-2.98144Z" fill="#171718"/>
<path d="M27.9831 82.0616C26.6298 82.9566 25.9831 84.3833 25.7148 85.2433H16.0098C15.2381 82.7999 15.4998 81.5083 15.4998 81.5083C16.1564 82.6499 16.8831 82.9616 16.8831 82.9616C17.6781 81.5083 17.3664 77.5999 17.3664 77.5999C18.8198 78.9499 19.0331 80.8883 19.0331 80.8883C19.5605 79.3077 20.6524 77.9772 22.0998 77.1516C20.5781 79.6416 20.5098 83.3066 20.5098 83.3066C22.3764 80.3333 25.9381 80.6783 25.9381 80.6783C23.3448 81.5433 23.2414 84.1783 23.2414 84.1783C25.0081 82.2 27.9831 82.0616 27.9831 82.0616Z" fill="white"/>
<path d="M26.0802 85.7432H15.6435L15.5335 85.3949C14.7318 82.8632 15.0002 81.4666 15.0002 81.4099L15.2618 80.1082L15.9285 81.2599C16.12 81.6021 16.3622 81.9134 16.6468 82.1832C17.0085 80.8682 16.9352 78.5432 16.8635 77.6399L16.7618 76.3616L17.7018 77.2349C18.3392 77.8399 18.8325 78.5803 19.1452 79.4016C19.8026 78.2707 20.751 77.3366 21.8918 76.6966L23.3802 76.0149L22.5268 77.4116C21.6935 78.7699 21.3185 80.5282 21.1485 81.7716C23.1868 79.9382 25.8552 80.1682 25.9818 80.1816L28.3335 80.4082L26.1002 81.1532C25.2752 81.4141 24.5853 81.9879 24.1785 82.7516C25.33 82.0679 26.6246 81.6611 27.9602 81.5632L29.7735 81.4782L28.2585 82.4782C27.0102 83.3032 26.4252 84.6599 26.1918 85.3949L26.0802 85.7432ZM23.4035 84.7432H25.3602C25.6106 84.0684 25.9612 83.4352 26.4002 82.8649C25.5068 83.1266 24.4168 83.6116 23.6168 84.5049L23.4035 84.7432ZM20.2018 84.7432H22.7218L22.7452 84.1516C22.8228 83.129 23.2325 82.1598 23.9118 81.3916C22.6771 81.7122 21.6116 82.4927 20.9335 83.5732L20.2018 84.7432ZM16.3802 84.7432H19.9852L20.0135 83.2982C20.0687 81.7836 20.3306 80.2836 20.7918 78.8399C20.2119 79.4717 19.7757 80.2217 19.5135 81.0382L18.8035 83.2816L18.5402 80.9482C18.4388 80.3197 18.232 79.7128 17.9285 79.1532C17.9385 80.4682 17.8435 82.2516 17.3202 83.2066L17.1018 83.6049L16.6852 83.4266C16.4373 83.3071 16.2095 83.1496 16.0102 82.9599C16.0846 83.5635 16.2083 84.1599 16.3802 84.7432Z" fill="#171718"/>
<path d="M154.098 85.6334H182.264C182.621 81.9 179.688 80.6117 179.688 80.6117C180.398 79.4334 180.064 78.6784 180.064 78.6784C179.621 78.0567 179.154 78.6784 179.154 78.6784C179.176 77.1684 178.421 76.9017 178.421 76.9017C177.888 76.7684 177.709 77.8117 177.709 77.8117C176.109 76.145 174.554 77.0567 174.554 77.0567C174.689 76.6874 174.728 76.2899 174.666 75.9017C174.378 75.5234 174.066 76.0117 174.066 76.0117C174.154 73.99 173.421 73.9017 173.421 73.9017C172.688 73.88 172.821 75.435 172.821 75.435C171.754 73.9684 170.533 73.9017 170.533 73.9017C168.623 73.88 167.666 75.8784 167.666 75.8784C167.799 73.5017 166.934 73.5017 166.934 73.5017C165.956 73.7017 166.578 76.2784 166.578 76.2784C165.201 75.19 164.001 75.4567 164.001 75.4567C161.689 75.8567 161.046 79.1017 161.046 79.1017C160.401 78.19 159.956 78.4117 159.956 78.4117C159.334 78.745 159.646 79.7 159.646 79.7C157.601 80.2117 159.201 80.6117 159.201 80.6117C158.921 80.877 158.694 81.1939 158.534 81.545C154.808 81.5 154.098 85.6334 154.098 85.6334Z" fill="#171718"/>
<path d="M168.88 85.2433H125.027C124.474 79.4333 129.039 77.4283 129.039 77.4283C127.932 75.595 128.45 74.4183 128.45 74.4183C129.142 73.45 129.869 74.4183 129.869 74.4183C129.834 72.0667 131.01 71.6517 131.01 71.6517C131.844 71.445 132.117 73.07 132.117 73.07C134.607 70.4767 137.029 71.9033 137.029 71.9033C136.682 70.795 136.862 70.1033 136.862 70.1033C137.312 69.5167 137.795 70.27 137.795 70.27C137.657 67.1233 138.795 66.985 138.795 66.985C139.937 66.95 139.729 69.3717 139.729 69.3717C141.395 67.0883 143.292 66.985 143.292 66.985C146.265 66.95 147.752 70.0633 147.752 70.0633C147.545 66.3617 148.894 66.3617 148.894 66.3617C150.415 66.6733 149.447 70.685 149.447 70.685C151.592 68.99 153.459 69.405 153.459 69.405C157.055 70.0283 158.059 75.0717 158.059 75.0717C159.059 73.6533 159.754 73.9983 159.754 73.9983C160.722 74.5183 160.237 75.9983 160.237 75.9983C163.42 76.7933 160.93 77.4167 160.93 77.4167C161.552 77.935 161.967 78.8683 161.967 78.8683C167.774 78.8117 168.88 85.2433 168.88 85.2433Z" fill="white"/>
<path d="M169.474 85.7433H124.572L124.529 85.2917C124.059 80.3534 127.144 77.97 128.362 77.23C127.472 75.45 127.972 74.27 127.995 74.2167L128.015 74.17L128.045 74.1283C128.419 73.605 128.834 73.4917 129.115 73.4884C129.218 73.4869 129.32 73.4998 129.419 73.5267C129.669 71.62 130.792 71.1934 130.845 71.18L130.89 71.1667C131.032 71.1306 131.179 71.1246 131.322 71.149C131.466 71.1734 131.603 71.2277 131.724 71.3083C132.014 71.5241 132.236 71.8193 132.362 72.1584C133.919 70.8884 135.419 70.9167 136.342 71.1267C136.282 70.7444 136.29 70.3545 136.365 69.975L136.39 69.8734L136.454 69.7917C136.542 69.6597 136.662 69.5521 136.803 69.479C136.944 69.4059 137.102 69.3695 137.26 69.3734H137.28C137.38 66.79 138.485 66.515 138.727 66.485H138.772C138.939 66.4778 139.105 66.5072 139.26 66.5711C139.414 66.635 139.553 66.7319 139.665 66.855C139.957 67.1634 140.105 67.6267 140.177 68.0783C141.704 66.59 143.177 66.49 143.255 66.485H143.277C145.14 66.4683 146.459 67.52 147.259 68.4567C147.349 67.4567 147.604 66.7367 148.022 66.29C148.13 66.1641 148.262 66.0609 148.41 65.9865C148.558 65.9121 148.72 65.8679 148.885 65.8567H148.937L148.985 65.8667C149.165 65.9048 149.335 65.9793 149.485 66.0857C149.635 66.192 149.762 66.3279 149.857 66.485C150.344 67.25 150.28 68.615 150.144 69.61C151.93 68.625 153.37 68.875 153.545 68.91C156.46 69.42 157.79 72.46 158.29 74.0367C159.197 73.2033 159.879 73.5084 159.969 73.5534C160.812 74.005 160.925 74.9334 160.822 75.6484C161.655 75.8934 162.349 76.2284 162.349 76.8317C162.349 77.195 162.095 77.45 161.787 77.625C161.967 77.8637 162.128 78.1162 162.269 78.38C168.16 78.5367 169.357 85.0884 169.369 85.155L169.474 85.7433ZM125.492 84.7433H168.252C167.837 83.2433 166.357 79.38 162.055 79.38H161.637L161.504 79.0783C161.504 79.07 161.125 78.245 160.604 77.8067L159.847 77.1767L160.802 76.9384C160.916 76.9076 161.027 76.8692 161.135 76.8234C160.803 76.6816 160.458 76.57 160.105 76.49L159.585 76.36L159.752 75.85C159.752 75.84 160.069 74.7967 159.544 74.4617C159.407 74.45 159.004 74.5867 158.457 75.36L157.79 76.31L157.564 75.1684C157.554 75.1217 156.58 70.4483 153.369 69.8917H153.345C153.28 69.8783 151.664 69.5583 149.752 71.0767L148.619 71.9733L148.952 70.5667C149.197 69.5467 149.43 67.6833 149.012 67.025C148.979 66.966 148.93 66.9166 148.872 66.8817C148.692 66.9884 148.102 67.5334 148.242 70.0334L148.384 72.5634L147.292 70.2767C147.279 70.25 145.914 67.4833 143.329 67.4833H143.302C143.165 67.495 141.572 67.6717 140.124 69.6634L139.067 71.115L139.22 69.3267C139.267 68.775 139.209 67.8267 138.937 67.54C138.917 67.5155 138.891 67.4975 138.86 67.4884C138.725 67.5784 138.194 68.0817 138.282 70.2467L138.364 72.1134L137.364 70.5367C137.349 70.515 137.33 70.4917 137.312 70.47C137.301 70.9028 137.366 71.3342 137.502 71.745L137.887 72.9784L136.772 72.325C136.689 72.2784 134.645 71.1584 132.474 73.4167L131.79 74.1334L131.624 73.155C131.565 72.8217 131.379 72.275 131.182 72.155L131.164 72.1334C131.035 72.205 130.35 72.66 130.375 74.4117L130.399 75.95L129.475 74.7184C129.391 74.6031 129.269 74.5216 129.13 74.4884C129.07 74.4884 128.987 74.5534 128.902 74.655C128.84 74.8534 128.632 75.77 129.474 77.165L129.767 77.6517L129.247 77.88C129.074 77.9667 125.244 79.7283 125.497 84.7433H125.492Z" fill="#171718"/>
<path d="M156.464 82.0619C155.109 82.9569 154.472 84.3835 154.195 85.2435H144.495C143.724 82.8069 143.984 81.5085 143.984 81.5085C144.64 82.6502 145.367 82.9619 145.367 82.9619C146.162 81.5085 145.85 77.6002 145.85 77.6002C147.304 78.9502 147.8 80.1002 147.8 80.1002C149.227 76.3519 152.224 75.4769 152.262 75.4602C151.079 77.6969 150.12 81.1702 150.12 81.1702C152.082 79.3869 155.12 80.1002 155.12 80.1002C152.525 80.9652 152.085 83.8469 152.085 83.8469C153.842 81.8769 156.464 82.0619 156.464 82.0619Z" fill="white"/>
<path d="M154.56 85.7433H144.125L144.015 85.395C143.213 82.8633 143.476 81.4683 143.488 81.41L143.75 80.1083L144.416 81.26C144.608 81.6017 144.849 81.913 145.133 82.1833C145.498 80.8683 145.423 78.5433 145.351 77.64L145.25 76.3616L146.19 77.235C146.769 77.7664 147.288 78.3606 147.736 79.0066C149.195 76.1083 151.55 75.1733 152.07 74.9966L153.386 74.3933L152.698 75.695C151.996 77.015 151.376 78.8 150.996 80.0016C152.951 79.0966 155.121 79.5883 155.231 79.615L156.948 80.0183L155.281 80.575C154.379 80.8842 153.624 81.5181 153.163 82.3533C154.184 81.7985 155.335 81.5258 156.496 81.5633L157.966 81.6666L156.736 82.48C155.488 83.305 154.903 84.6616 154.668 85.3966L154.56 85.7433ZM151.95 84.7433H153.841C154.116 84.0081 154.51 83.3233 155.008 82.7166C154.028 82.933 153.138 83.4442 152.458 84.1816L151.95 84.7433ZM144.861 84.7433H151.436L151.585 83.7733C151.6 83.6716 151.918 81.7433 153.443 80.4666C152.515 80.4983 151.346 80.73 150.451 81.5416L149.175 82.7083L149.635 81.0416C150.065 79.5119 150.587 78.0092 151.196 76.5416C150.26 77.145 149.03 78.2716 148.263 80.2816L147.825 81.4316L147.33 80.3C147.08 79.8001 146.767 79.3341 146.4 78.9133C146.423 80.2466 146.35 82.1883 145.795 83.2016L145.576 83.6L145.163 83.4216C144.918 83.301 144.694 83.1436 144.496 82.955C144.57 83.5599 144.692 84.158 144.861 84.7433Z" fill="#171718"/>
<path d="M110.643 37.0334H120.058V85.1884H110.643V37.0334ZM57.4961 37.0334H66.9111V85.1884H57.4961V37.0334Z" fill="#171718"/>
<path d="M52.8633 50.3499H124.422V69.45H52.8633V50.3499Z" fill="white"/>
<path d="M124.923 69.95H52.3633V49.8499H124.923V69.95ZM53.3633 68.95H123.923V50.8499H53.3633V68.95Z" fill="#171718"/>
<path d="M65.8949 50.3499L52.8633 62.5783V50.3499H65.8949Z" fill="#E0F2FE"/>
<path d="M52.3633 63.7333V49.8499H67.1666L52.3633 63.7333ZM53.3633 50.8499V61.4233L64.6316 50.8499H53.3633Z" fill="#171718"/>
<path d="M91.797 50.3499L73.5987 69.4499H59.832L78.7304 50.3499H91.797Z" fill="#E0F2FE"/>
<path d="M73.8151 69.9499H58.6367L78.5251 49.8499H92.9667L73.8151 69.9499ZM61.0334 68.9499H73.3867L90.6334 50.8499H78.9434L61.0334 68.9499Z" fill="#171718"/>
<path d="M117.965 50.3499L98.8646 69.4499H85.918L104.816 50.3499H117.965Z" fill="#E0F2FE"/>
<path d="M99.0743 69.9499H84.7227L104.611 49.8499H119.168L99.0743 69.9499ZM87.1193 68.9499H98.6677L116.768 50.8499H105.029L87.1193 68.9499Z" fill="#171718"/>
<path d="M124.424 57.4348V69.4498H111.934L124.424 57.4348Z" fill="#E0F2FE"/>
<path d="M124.923 69.95H110.691L124.923 56.26V69.95ZM113.173 68.95H123.923V58.6167L113.173 68.95Z" fill="#171718"/>
<path d="M52.8633 24.5233H124.422V43.6233H52.8633V24.5233Z" fill="white"/>
<path d="M124.923 44.1233H52.3633V24.0233H124.923V44.1233ZM53.3633 43.1233H123.923V25.0233H53.3633V43.1233Z" fill="#171718"/>
<path d="M65.8949 24.5233L52.8633 36.7533V24.5233H65.8949Z" fill="#E0F2FE"/>
<path d="M52.3633 37.9083V24.0233H67.1666L52.3633 37.9083ZM53.3633 25.0233V35.5983L64.6316 25.0233H53.3633Z" fill="#171718"/>
<path d="M91.797 24.5232L73.5987 43.6232H59.832L78.7304 24.5232H91.797Z" fill="#E0F2FE"/>
<path d="M73.8151 44.1232H58.6367L78.5251 24.0232H92.9667L73.8151 44.1232ZM61.0334 43.1232H73.3867L90.6334 25.0232H78.9434L61.0334 43.1232Z" fill="#171718"/>
<path d="M117.965 24.5232L98.8646 43.6232H85.918L104.816 24.5232H117.965Z" fill="#E0F2FE"/>
<path d="M99.0743 44.1232H84.7227L104.611 24.0232H119.168L99.0743 44.1232ZM87.1193 43.1232H98.6677L116.768 25.0232H105.029L87.1193 43.1232Z" fill="#171718"/>
<path d="M124.424 31.6101V43.6234H111.934L124.424 31.6101Z" fill="#E0F2FE"/>
<path d="M124.923 44.1233H110.691L124.923 30.435V44.1233ZM113.173 43.1233H123.923V32.79L113.173 43.1233Z" fill="#171718"/>
<path d="M70.6927 46.9365H106.914C107.312 46.9363 107.702 46.8311 108.046 46.6315C108.39 46.4319 108.674 46.1449 108.872 45.7998C109.069 45.4546 109.171 45.0635 109.168 44.6661C109.166 44.2686 109.058 43.8789 108.856 43.5365L90.7461 12.8365C90.5468 12.4985 90.2628 12.2184 89.9221 12.0238C89.5815 11.8292 89.1959 11.7268 88.8036 11.7268C88.4112 11.7268 88.0257 11.8292 87.685 12.0238C87.3443 12.2184 87.0603 12.4985 86.8611 12.8365L68.7511 43.5365C68.5487 43.8788 68.4405 44.2686 68.4376 44.6663C68.4346 45.0639 68.5369 45.4553 68.7341 45.8006C68.9313 46.1459 69.2164 46.4329 69.5604 46.6324C69.9044 46.8319 70.2951 46.9368 70.6927 46.9365Z" fill="white"/>
<path d="M106.915 47.4366H70.6931C70.2072 47.4367 69.73 47.3084 69.3097 47.0645C68.8895 46.8206 68.5412 46.47 68.3003 46.0481C68.0593 45.6262 67.9341 45.1481 67.9376 44.6623C67.941 44.1764 68.0728 43.7001 68.3197 43.2816L86.4297 12.5816C86.6735 12.1691 87.0206 11.8272 87.4368 11.5897C87.853 11.3522 88.3239 11.2273 88.8031 11.2273C89.2823 11.2273 89.7532 11.3522 90.1693 11.5897C90.5855 11.8272 90.9326 12.1691 91.1764 12.5816L109.286 43.2816C109.533 43.7 109.665 44.1761 109.669 44.6618C109.672 45.1475 109.547 45.6255 109.306 46.0474C109.066 46.4692 108.717 46.8199 108.297 47.0639C107.877 47.3078 107.4 47.4365 106.915 47.4366ZM88.8031 12.2266C88.4975 12.2255 88.1971 12.3046 87.9318 12.4561C87.6665 12.6076 87.4456 12.8262 87.2914 13.09L69.1814 43.79C69.0242 44.0565 68.9402 44.3599 68.9381 44.6694C68.9359 44.9788 69.0156 45.2833 69.1691 45.5521C69.3225 45.8208 69.5443 46.0441 69.812 46.1995C70.0796 46.3548 70.3836 46.4367 70.6931 46.4366H106.915C107.224 46.4367 107.528 46.3548 107.796 46.1995C108.063 46.0441 108.285 45.8208 108.439 45.5521C108.592 45.2833 108.672 44.9788 108.67 44.6694C108.668 44.3599 108.584 44.0565 108.426 43.79L90.3147 13.09C90.1609 12.8259 89.9401 12.607 89.6748 12.4554C89.4094 12.3039 89.1087 12.225 88.8031 12.2266Z" fill="#171718"/>
<path d="M86.786 40.2118C86.5327 39.9768 86.3318 39.691 86.1965 39.3731C86.0612 39.0551 85.9946 38.7122 86.001 38.3668C85.9911 38.0219 86.0569 37.6791 86.1936 37.3624C86.3304 37.0457 86.5349 36.7627 86.7926 36.5335C87.353 36.0428 88.0801 35.7858 88.8243 35.8151C89.6499 35.8151 90.3226 36.0546 90.8426 36.5335C91.0973 36.7646 91.2989 37.0482 91.4336 37.3646C91.5682 37.6811 91.6327 38.023 91.6226 38.3668C91.6278 38.7128 91.5598 39.0561 91.4231 39.374C91.2864 39.692 91.084 39.9775 90.8293 40.2118C90.5619 40.4629 90.2477 40.6589 89.9045 40.7884C89.5613 40.918 89.1959 40.9786 88.8293 40.9668C88.4557 40.982 88.0829 40.9231 87.7322 40.7935C87.3815 40.6639 87.0599 40.4662 86.786 40.2118ZM88.8143 23.4084C89.1706 23.4085 89.523 23.4826 89.8491 23.626C90.1753 23.7694 90.4681 23.9789 90.7091 24.2413C90.95 24.5038 91.1339 24.8134 91.249 25.1505C91.364 25.4877 91.4079 25.8451 91.3776 26.2001L90.6676 34.4285H86.9343L86.251 26.1951C86.2215 25.8405 86.2658 25.4837 86.3812 25.1471C86.4967 24.8105 86.6806 24.5015 86.9215 24.2396C87.1624 23.9778 87.455 23.7687 87.7808 23.6256C88.1066 23.4826 88.4585 23.4086 88.8143 23.4084Z" fill="white"/>
<path d="M88.8176 41.4665C87.9385 41.4939 87.0842 41.1728 86.4409 40.5731C86.1382 40.2918 85.8981 39.9499 85.7362 39.5698C85.5743 39.1896 85.4941 38.7796 85.5009 38.3665C85.4906 37.9517 85.5708 37.5398 85.7361 37.1592C85.9013 36.7787 86.1475 36.4388 86.4575 36.1631C87.1091 35.5884 87.9559 35.2848 88.8242 35.3148C89.7742 35.3148 90.5675 35.6015 91.1809 36.1648C91.4868 36.4426 91.7292 36.7831 91.8917 37.163C92.0542 37.5429 92.1329 37.9534 92.1225 38.3665C92.1273 38.7807 92.0448 39.1914 91.8802 39.5716C91.7157 39.9518 91.4728 40.2931 91.1675 40.5731C90.5333 41.1701 89.6882 41.4913 88.8176 41.4665ZM88.8176 36.3148C88.1979 36.2854 87.5908 36.4962 87.1225 36.9031C86.9177 37.0863 86.7557 37.3124 86.6483 37.5654C86.5408 37.8183 86.4905 38.0918 86.5009 38.3665C86.4954 38.6445 86.5494 38.9205 86.6592 39.1761C86.769 39.4316 86.9321 39.6607 87.1375 39.8481C87.3626 40.0574 87.627 40.2198 87.9155 40.326C88.2039 40.4321 88.5105 40.4799 88.8176 40.4665C89.1226 40.4798 89.4271 40.432 89.7134 40.3258C89.9996 40.2196 90.2617 40.0572 90.4842 39.8481C90.6903 39.6611 90.8538 39.4321 90.9639 39.1765C91.0741 38.9209 91.1281 38.6447 91.1225 38.3665C91.1322 38.0918 91.0818 37.8184 90.9747 37.5654C90.8676 37.3123 90.7064 37.0857 90.5025 36.9015C90.0675 36.5065 89.5192 36.3148 88.8176 36.3148ZM91.1325 34.9281H86.4742L85.7525 26.2348C85.7189 25.8119 85.7733 25.3866 85.9122 24.9857C86.051 24.5849 86.2715 24.2171 86.5595 23.9057C86.8476 23.5942 87.1971 23.3458 87.5859 23.1761C87.9747 23.0064 88.3945 22.9191 88.8187 22.9197C89.243 22.9203 89.6625 23.0087 90.0509 23.1795C90.4392 23.3502 90.788 23.5996 91.0752 23.9118C91.3624 24.224 91.5819 24.5924 91.7197 24.9936C91.8575 25.3949 91.9107 25.8203 91.8759 26.2431L91.1325 34.9281ZM87.3959 33.9281H90.2159L90.8825 26.1565C90.9055 25.8713 90.8691 25.5845 90.7757 25.3142C90.6824 25.0438 90.534 24.7957 90.34 24.5854C90.146 24.3752 89.9106 24.2075 89.6486 24.0927C89.3865 23.978 89.1036 23.9187 88.8176 23.9187C88.5315 23.9187 88.2485 23.978 87.9865 24.0927C87.7245 24.2075 87.4891 24.3752 87.2951 24.5854C87.1011 24.7957 86.9527 25.0438 86.8594 25.3142C86.766 25.5845 86.7296 25.8713 86.7525 26.1565L87.3959 33.9281Z" fill="#171718"/>
<path d="M-8.16797 84.7766H186.165V85.7766H-8.16797V84.7766Z" fill="#171718"/>
</svg>
