<svg width="116" height="118" viewBox="0 0 116 118" fill="none" xmlns="http://www.w3.org/2000/svg">
<path d="M110.023 28.6718L108.252 28.2852L107.848 26.5168C107.841 26.4865 107.824 26.4595 107.8 26.4401C107.776 26.4207 107.746 26.4102 107.715 26.4102C107.684 26.4104 107.653 26.421 107.629 26.4403C107.605 26.4596 107.587 26.4866 107.58 26.5168L107.177 28.2935L105.405 28.7135C105.374 28.721 105.347 28.7385 105.328 28.7633C105.308 28.7881 105.298 28.8187 105.298 28.8502C105.298 28.8812 105.309 28.9113 105.329 28.9353C105.349 28.9592 105.376 28.9757 105.407 28.9818L107.178 29.3685L107.58 31.1368C107.587 31.1671 107.605 31.194 107.629 31.2133C107.653 31.2327 107.684 31.2433 107.715 31.2435C107.746 31.2435 107.776 31.2329 107.8 31.2135C107.824 31.1942 107.841 31.1671 107.848 31.1368L108.253 29.3602L110.025 28.9402C110.056 28.9341 110.084 28.9174 110.104 28.8929C110.124 28.8685 110.135 28.8377 110.135 28.806C110.135 28.7743 110.124 28.7435 110.104 28.719C110.084 28.6945 110.056 28.6779 110.025 28.6718H110.023ZM6.68985 54.3385L4.91818 53.9518L4.51484 52.1835C4.50803 52.1532 4.49112 52.1262 4.46689 52.1068C4.44265 52.0874 4.41255 52.0768 4.38151 52.0768C4.35035 52.077 4.32015 52.0876 4.29569 52.107C4.27124 52.1263 4.25393 52.1532 4.24651 52.1835L3.84318 53.9602L2.07151 54.3802C2.04097 54.3876 2.01383 54.4052 1.99448 54.43C1.97513 54.4548 1.96469 54.4854 1.96485 54.5168C1.965 54.5479 1.97586 54.5779 1.9956 54.6019C2.01533 54.6259 2.04273 54.6423 2.07318 54.6485L3.84485 55.0352L4.24651 56.8035C4.25393 56.8338 4.27124 56.8607 4.29569 56.88C4.32015 56.8993 4.35035 56.9099 4.38151 56.9102C4.41255 56.9102 4.44265 56.8996 4.46689 56.8802C4.49112 56.8608 4.50803 56.8338 4.51484 56.8035L4.91985 55.0268L6.69151 54.6068C6.72266 54.6008 6.75074 54.5841 6.77093 54.5596C6.79111 54.5351 6.80216 54.5044 6.80216 54.4727C6.80216 54.4409 6.79111 54.4102 6.77093 54.3857C6.75074 54.3612 6.72266 54.3445 6.69151 54.3385H6.68985ZM101.075 21.5768L100.158 21.3768L99.9515 20.4618C99.948 20.4459 99.9392 20.4316 99.9264 20.4213C99.9137 20.4111 99.8979 20.4055 99.8815 20.4055C99.8652 20.4055 99.8493 20.4111 99.8366 20.4213C99.8239 20.4316 99.815 20.4459 99.8115 20.4618L99.6032 21.3818L98.6865 21.5985C98.6708 21.6022 98.6568 21.6112 98.6468 21.6239C98.6368 21.6366 98.6314 21.6523 98.6315 21.6685C98.6316 21.6847 98.6373 21.7003 98.6476 21.7128C98.658 21.7252 98.6723 21.7337 98.6882 21.7368L99.6049 21.9368L99.8115 22.8518C99.815 22.8678 99.8239 22.8821 99.8366 22.8923C99.8493 22.9025 99.8652 22.9081 99.8815 22.9081C99.8979 22.9081 99.9137 22.9025 99.9264 22.8923C99.9392 22.8821 99.948 22.8678 99.9515 22.8518L100.16 21.9318L101.077 21.7151C101.092 21.7111 101.106 21.7021 101.116 21.6895C101.126 21.6768 101.131 21.6612 101.132 21.6452C101.131 21.629 101.126 21.6133 101.115 21.6009C101.105 21.5884 101.091 21.5799 101.075 21.5768Z" fill="#171718"/>
<path d="M5.46332 5.02031L5.57666 2.13698C5.59002 1.80944 5.6811 1.48977 5.84239 1.20438C6.00367 0.918994 6.23054 0.676066 6.50424 0.495659C6.77795 0.315252 7.09064 0.202543 7.4165 0.166837C7.74237 0.131132 8.07205 0.173454 8.37832 0.290311C8.68487 0.407382 8.95911 0.595824 9.17831 0.840019C9.39751 1.08421 9.55535 1.37714 9.63877 1.6945C9.72218 2.01187 9.72876 2.34454 9.65796 2.66496C9.58716 2.98538 9.44102 3.28431 9.23165 3.53698L7.39832 5.76031L5.46332 5.02031ZM4.67832 7.08865L2.84499 9.31198C2.63597 9.56464 2.49013 9.86344 2.41953 10.1837C2.34892 10.5039 2.3556 10.8363 2.43899 11.1534C2.52239 11.4706 2.6801 11.7633 2.89909 12.0074C3.11809 12.2514 3.39205 12.4398 3.69832 12.557C4.00459 12.6742 4.33437 12.7168 4.66038 12.6813C4.98639 12.6458 5.29925 12.5331 5.57306 12.3526C5.84687 12.1721 6.07376 11.9291 6.23495 11.6435C6.39614 11.3579 6.48699 11.038 6.49999 10.7103L6.61499 7.82698L4.67832 7.08865Z" fill="white"/>
<path d="M3.51953 5.48884L4.41953 7.39717C4.59429 7.767 4.90873 8.05232 5.29374 8.19045C5.67876 8.32858 6.10286 8.30822 6.47286 8.13384L8.3162 7.26551L7.41787 5.35717C7.24307 4.98736 6.92874 4.70195 6.54382 4.56355C6.15891 4.42514 5.73481 4.44502 5.36453 4.61884L3.51953 5.48884Z" fill="#171718"/>
<path d="M2.93682 6.63866C3.71094 6.63866 4.33849 6.01111 4.33849 5.23699C4.33849 4.46288 3.71094 3.83533 2.93682 3.83533C2.1627 3.83533 1.53516 4.46288 1.53516 5.23699C1.53516 6.01111 2.1627 6.63866 2.93682 6.63866Z" fill="#171718"/>
<path d="M0.835938 3.94995L1.49856 3.201L2.44349 4.037L1.78087 4.78596L0.835938 3.94995Z" fill="#171718"/>
<path d="M0.5 5.78979L0.506632 4.78982L1.76827 4.79818L1.76164 5.79816L0.5 5.78979Z" fill="#171718"/>
<path d="M33.1496 67.9101L32.1713 67.7084C32.2646 67.2568 32.353 66.8001 32.438 66.3501L33.4196 66.5318C33.3363 66.9901 33.2446 67.4534 33.1496 67.9101ZM33.8363 64.0484L32.848 63.9101C32.9713 63.0768 33.0763 62.2534 33.163 61.4518L34.163 61.5568C34.0696 62.3668 33.9646 63.2068 33.8363 64.0501V64.0484ZM34.3663 59.0351L33.3663 58.9751C33.4163 58.1418 33.4446 57.3084 33.4496 56.5034H34.4496C34.4446 57.3318 34.4163 58.1818 34.3663 59.0368V59.0351ZM33.393 54.0351C33.3463 53.2018 33.273 52.3684 33.173 51.5818L34.173 51.4584C34.2746 52.2718 34.3513 53.1251 34.398 53.9801L33.393 54.0351ZM32.7713 49.1584C32.6046 48.3434 32.3963 47.5451 32.163 46.7851L33.118 46.4918C33.3613 47.2801 33.5746 48.1084 33.7513 48.9551L32.7713 49.1584ZM23.6046 44.8251C23.3096 44.8251 23.0096 44.8134 22.7113 44.7918L22.7863 43.7918C23.0596 43.8134 23.3446 43.8201 23.6046 43.8234C24.1254 43.8239 24.6453 43.7832 25.1596 43.7018L25.3263 44.6884C24.7591 44.7782 24.1856 44.8223 23.6113 44.8201L23.6046 44.8251ZM31.3146 44.4918C30.9938 43.7478 30.6275 43.0242 30.218 42.3251L31.0813 41.8251C31.5115 42.5625 31.8961 43.3256 32.233 44.1101L31.3146 44.4918ZM20.1313 44.1951C19.2972 43.8349 18.5508 43.2988 17.943 42.6234L18.6896 41.9568C19.2022 42.5252 19.8315 42.976 20.5346 43.2784L20.1313 44.1951ZM27.848 43.9234L27.428 43.0168C28.1407 42.6896 28.7994 42.2558 29.3813 41.7301L30.0563 42.4684C29.3959 43.0636 28.6484 43.5543 27.8396 43.9234H27.848ZM28.8696 40.3118C28.3707 39.6757 27.8241 39.0784 27.2346 38.5251L27.918 37.7951C28.5419 38.3831 29.1203 39.0177 29.648 39.6934L28.8696 40.3118ZM31.5913 40.3118L30.7113 39.8368C31.0973 39.1251 31.4315 38.3865 31.7113 37.6268L32.6496 37.9734C32.3505 38.7752 31.994 39.5545 31.583 40.3051L31.5913 40.3118ZM16.653 40.2601C16.5666 39.9609 16.4998 39.6563 16.453 39.3484C16.4183 39.1279 16.401 38.905 16.4013 38.6818C16.4013 38.2869 16.4574 37.8941 16.568 37.5151L17.528 37.7934C17.4456 38.0806 17.4041 38.378 17.4046 38.6768C17.4046 38.8487 17.418 39.0203 17.4446 39.1901C17.4838 39.4561 17.5394 39.7194 17.6113 39.9784L16.653 40.2601ZM25.3413 37.0368C24.7371 36.6262 24.0872 36.2872 23.4046 36.0268L23.2496 35.9834L23.513 35.0184L23.6913 35.0684C24.4684 35.3525 25.2069 35.7326 25.8896 36.2001L25.3413 37.0368ZM18.783 36.1401L18.2613 35.2884C19.058 34.8266 19.9675 34.5958 20.888 34.6218H20.9213L20.913 35.6218H20.888C20.1497 35.5932 19.4181 35.7704 18.7746 36.1334L18.783 36.1401ZM33.3446 35.4868L32.3613 35.3018C32.511 34.5121 32.5891 33.7105 32.5946 32.9068H33.5946C33.5857 33.7705 33.4993 34.6318 33.3363 35.4801L33.3446 35.4868ZM32.3946 30.5134C32.2543 29.7207 32.0509 28.9404 31.7863 28.1801L32.7313 27.8468C33.0142 28.6585 33.231 29.4918 33.3796 30.3384L32.3946 30.5134ZM30.8313 25.9484C30.4591 25.2237 30.0457 24.5208 29.593 23.8434L30.4263 23.2901C30.8998 23.9991 31.3322 24.7348 31.7213 25.4934L30.8313 25.9484ZM28.1313 21.8634C27.6313 21.2468 27.0846 20.6251 26.5046 20.0134L27.2296 19.3251C27.828 19.9551 28.3963 20.5968 28.908 21.2334L28.1313 21.8634ZM24.7446 18.2818C24.1563 17.7384 23.528 17.1901 22.878 16.6534L23.5163 15.8818C24.183 16.4301 24.8213 16.9901 25.423 17.5484L24.7446 18.2818ZM20.928 15.1151C20.2813 14.6318 19.5946 14.1468 18.908 13.6734L19.4713 12.8401C20.1763 13.3218 20.868 13.8168 21.5263 14.3084L20.928 15.1151ZM16.828 12.3134C16.133 11.8784 15.4146 11.4468 14.6963 11.0318L15.1963 10.1651C15.9246 10.5868 16.653 11.0234 17.363 11.4668L16.828 12.3134ZM12.518 9.8301C11.1613 9.1151 10.3013 8.72843 10.293 8.72343L10.703 7.81177C10.7396 7.82843 11.5963 8.2151 12.9846 8.9451L12.518 9.8301Z" fill="#171718"/>
<path d="M82.7816 35.3087L78.7483 33.9521L78.35 22.4837C83.28 18.7421 80.5166 16.0604 80.5166 16.0604L80.3066 10.8137H60.6316C56.965 32.1954 66.2883 30.1471 66.2883 30.1471L66.0516 34.6021L61.1016 36.8137L61.2983 45.4104H83.465L82.7816 35.3087Z" fill="white"/>
<path d="M83.9981 45.9101H60.8081L60.5931 36.4968L65.5665 34.2734L65.7565 30.7034C65.0811 30.7147 64.4102 30.5913 63.783 30.3407C63.1558 30.09 62.5847 29.717 62.1031 29.2434C59.1731 26.4451 58.5114 20.2151 60.1364 10.7268L60.2081 10.3118H80.7965L81.0181 15.8601C81.5684 16.5435 81.8436 17.4077 81.7898 18.2834C81.6981 19.7734 80.7148 21.2651 78.8648 22.7201L79.2431 33.5868L83.2631 34.9401L83.9981 45.9101ZM61.7848 44.9101H82.9281L82.2965 35.6751L78.2531 34.3151L77.8398 22.2434L78.0465 22.0868C79.7615 20.7834 80.7131 19.4484 80.7831 18.2268C80.8255 17.5671 80.605 16.9176 80.1698 16.4201L80.0265 16.2818L79.8265 11.3151H61.0515C59.2181 22.3934 60.9764 26.7884 62.7931 28.5234C64.3798 30.0368 66.1614 29.6684 66.1781 29.6634L66.8198 29.5234L66.5331 34.9384L61.6081 37.1401L61.7848 44.9101Z" fill="#171718"/>
<path d="M71.8305 11.9637C71.8305 11.9637 67.6205 14.6887 60.4388 11.9637L60.0905 14.4737C60.0905 14.4737 56.9238 12.2187 57.7738 8.04539C57.7738 8.04539 58.2005 5.40373 62.6305 4.89206C62.6305 4.89206 64.5038 1.05873 68.5938 2.67706C68.5938 2.67706 71.6605 0.80373 74.6422 3.6154C74.6422 3.6154 77.2822 3.53039 77.7088 5.65873C77.7088 5.65873 82.0522 5.14873 83.2455 9.15873C83.2455 9.15873 83.9272 14.2737 80.2638 16.4921C80.2638 16.4921 77.6222 14.7837 76.4305 18.3621L74.8972 18.7887L74.5555 16.4037C74.5555 16.4037 72.2555 15.7121 71.8305 11.9637Z" fill="#171718"/>
<path d="M61.6525 20.9853C61.039 20.9853 60.4393 20.8034 59.9293 20.4626C59.4192 20.1218 59.0216 19.6374 58.7869 19.0706C58.5521 18.5039 58.4907 17.8802 58.6104 17.2785C58.7301 16.6769 59.0255 16.1242 59.4592 15.6904C59.893 15.2567 60.4457 14.9613 61.0474 14.8416C61.649 14.7219 62.2726 14.7833 62.8394 15.0181C63.4062 15.2528 63.8906 15.6504 64.2314 16.1605C64.5722 16.6705 64.7541 17.2702 64.7541 17.8836C64.7532 18.706 64.4262 19.4944 63.8447 20.0759C63.2632 20.6574 62.4748 20.9844 61.6525 20.9853ZM61.6525 15.4487C61.1709 15.4487 60.7001 15.5915 60.2996 15.859C59.8992 16.1266 59.5871 16.5069 59.4028 16.9518C59.2185 17.3968 59.1703 17.8864 59.2642 18.3587C59.3582 18.831 59.5901 19.2649 59.9307 19.6055C60.2712 19.946 60.7051 20.1779 61.1774 20.2719C61.6498 20.3658 62.1393 20.3176 62.5843 20.1333C63.0292 19.949 63.4095 19.6369 63.6771 19.2365C63.9446 18.836 64.0875 18.3652 64.0875 17.8836C64.087 17.238 63.8303 16.6189 63.3738 16.1623C62.9172 15.7058 62.2981 15.4491 61.6525 15.4487ZM68.2975 20.9853C67.684 20.9853 67.0843 20.8034 66.5743 20.4626C66.0642 20.1218 65.6666 19.6374 65.4319 19.0706C65.1971 18.5039 65.1357 17.8802 65.2554 17.2785C65.3751 16.6769 65.6705 16.1242 66.1042 15.6904C66.538 15.2567 67.0907 14.9613 67.6924 14.8416C68.294 14.7219 68.9177 14.7833 69.4844 15.0181C70.0512 15.2528 70.5356 15.6504 70.8764 16.1605C71.2172 16.6705 71.3991 17.2702 71.3991 17.8836C71.3982 18.706 71.0712 19.4944 70.4897 20.0759C69.9082 20.6574 69.1198 20.9844 68.2975 20.9853ZM68.2975 15.4487C67.8159 15.4487 67.3451 15.5915 66.9446 15.859C66.5442 16.1266 66.2321 16.5069 66.0478 16.9518C65.8635 17.3968 65.8153 17.8864 65.9092 18.3587C66.0032 18.831 66.2351 19.2649 66.5757 19.6055C66.9162 19.946 67.3501 20.1779 67.8224 20.2719C68.2948 20.3658 68.7843 20.3176 69.2293 20.1333C69.6742 19.949 70.0545 19.6369 70.3221 19.2365C70.5896 18.836 70.7325 18.3652 70.7325 17.8836C70.732 17.238 70.4753 16.6189 70.0188 16.1623C69.5622 15.7058 68.9431 15.4491 68.2975 15.4487Z" fill="#171718"/>
<path d="M61.6924 19.0336C62.1159 19.0336 62.4591 18.6903 62.4591 18.2669C62.4591 17.8435 62.1159 17.5002 61.6924 17.5002C61.269 17.5002 60.9258 17.8435 60.9258 18.2669C60.9258 18.6903 61.269 19.0336 61.6924 19.0336Z" fill="#171718"/>
<path d="M68.2979 19.077C68.7213 19.077 69.0646 18.7338 69.0646 18.3104C69.0646 17.887 68.7213 17.5437 68.2979 17.5437C67.8745 17.5437 67.5312 17.887 67.5312 18.3104C67.5312 18.7338 67.8745 19.077 68.2979 19.077Z" fill="#171718"/>
<path d="M71.0156 17.2166L74.7836 16.6635L74.8804 17.3231L71.1124 17.8762L71.0156 17.2166Z" fill="#171718"/>
<path d="M65.9199 23.0286L63.0349 22.7303L64.8249 17.3769L65.4583 17.5886L63.9316 22.152L65.9883 22.3653L65.9199 23.0286ZM64.1683 15.1219C64.1549 15.1103 62.8183 14.067 60.1966 14.3953L60.1133 13.7286C63.0383 13.3636 64.5266 14.5486 64.5883 14.5986L64.1666 15.1153L64.3766 14.8569L64.1683 15.1219ZM66.2066 15.037L65.7066 14.6036C65.7266 14.5803 67.6733 12.367 70.8633 14.3703L70.5083 14.9353C67.8133 13.2436 66.2699 14.9636 66.2066 15.037ZM63.7149 25.9103C63.6442 25.8409 63.5899 25.7566 63.5559 25.6635C63.5219 25.5704 63.509 25.4709 63.5183 25.3723C63.5275 25.2736 63.5587 25.1783 63.6094 25.0932C63.6601 25.0081 63.7292 24.9353 63.8116 24.8803C64.0634 24.7089 64.3588 24.6129 64.6633 24.6036C65.4566 24.5803 66.5066 25.0903 66.9966 25.3536C67.0291 25.3709 67.0568 25.3957 67.0776 25.426C67.0984 25.4564 67.1116 25.4912 67.116 25.5277C67.1204 25.5642 67.1159 25.6012 67.103 25.6356C67.09 25.67 67.069 25.7008 67.0416 25.7253C66.4916 26.2086 64.8166 27.057 63.7149 25.9103Z" fill="#171718"/>
<path d="M62.9622 35.9104C62.9622 35.9104 63.6289 43.9104 72.6289 43.5771C72.6289 43.5771 80.0456 42.8271 82.2122 35.1604C82.2122 35.1604 92.1222 37.6371 100.186 41.9437C101.676 42.7408 102.986 43.8367 104.033 45.1631C105.08 46.4894 105.843 48.0176 106.272 49.6521L113.296 73.4104L95.4622 73.5771L93.3789 69.8271L96.5456 112.327H50.7122L49.5456 77.4937L34.8789 75.6604L43.2439 49.4937C43.8615 47.5577 44.8851 45.7758 46.2463 44.2669C47.6074 42.758 49.2749 41.5569 51.1372 40.7437L62.9622 35.9104Z" fill="white"/>
<path d="M97.0837 112.827H50.2287L49.0621 77.937L34.2188 76.077L42.7671 49.3287C43.407 47.3263 44.4664 45.4833 45.8746 43.9225C47.2828 42.3616 49.0075 41.1189 50.9338 40.277L63.4004 35.1853L63.4571 35.8637C63.4854 36.182 64.2154 43.3753 72.5888 43.0737C73.0387 43.0237 79.7088 42.162 81.7271 35.0187L81.8587 34.552L82.3304 34.6703C82.4304 34.6953 92.3921 37.212 100.417 41.5037C101.966 42.3356 103.327 43.4769 104.417 44.8568C105.506 46.2367 106.301 47.8257 106.75 49.5253L113.962 73.9103L95.1687 74.077L94.0471 72.0553L97.0837 112.827ZM51.1954 111.827H96.0071L92.7104 67.5953L95.7554 73.077L112.629 72.9103L105.795 49.7937C105.382 48.2241 104.649 46.7564 103.644 45.4819C102.639 44.2074 101.382 43.1534 99.9521 42.3853C93.0154 38.6803 84.5937 36.312 82.5537 35.7653C81.6376 38.7334 79.5867 41.2197 76.8471 42.6837C75.5539 43.3957 74.1421 43.8667 72.6804 44.0737H72.6488C72.4604 44.0737 72.2771 44.0837 72.0954 44.0837C67.5754 44.0837 65.2054 41.962 64.0054 40.1403C63.3049 39.0657 62.8167 37.8669 62.5671 36.6087L51.3288 41.1987C49.5343 41.9839 47.9277 43.1424 46.6161 44.5972C45.3045 46.0519 44.3179 47.7694 43.7221 49.6353L35.5387 75.2437L50.0304 77.0553L51.1954 111.827Z" fill="#171718"/>
<path d="M21.6289 62.9104H84.6289V112.244H21.6289V62.9104Z" fill="#E0F2FE"/>
<path d="M85.1289 112.744H21.1289V62.4104H85.1289V112.744ZM22.1289 111.744H84.1289V63.4104H22.1289V111.744Z" fill="#171718"/>
<path d="M7.37891 76.1601H45.3789L60.7122 62.9934H21.5456L7.37891 76.1601Z" fill="white"/>
<path d="M45.566 76.6601H6.10938L21.351 62.4934H62.0644L45.566 76.6601ZM8.65271 75.6601H45.196L59.3627 63.4934H21.7444L8.65271 75.6601Z" fill="#171718"/>
<path d="M60.4648 62.9104H84.6315V112.244H60.4648V62.9104Z" fill="#171718"/>
<path d="M94.8802 76.1601H68.5469L60.5469 62.9934H84.7135L94.8802 76.1601Z" fill="white"/>
<path d="M95.9002 76.6601H68.2668L59.6602 62.4934H84.9652L95.9002 76.6601ZM68.8302 75.6601H93.8635L84.4652 63.4934H61.4368L68.8302 75.6601Z" fill="#171718"/>
<path d="M21.6297 93.2434C21.6297 93.2434 17.0447 96.0234 17.2614 101.077C17.3059 102.106 17.6436 103.101 18.2347 103.945C19.3797 105.577 21.973 108.128 27.1297 108.577C27.1297 108.577 29.463 108.91 28.7963 107.243C28.7963 107.243 30.463 106.41 29.7963 104.91C29.7963 104.91 31.2963 103.577 30.463 102.41C30.463 102.41 31.6297 100.743 30.6297 100.077C29.6297 99.4101 25.1297 98.5767 25.1297 98.5767C25.1297 98.5767 28.463 97.9101 27.963 96.4101C27.463 94.9101 21.6297 95.1317 21.6297 95.1317V93.2434Z" fill="white"/>
<path d="M27.5837 109.107C27.4126 109.108 27.2417 109.096 27.0721 109.074C21.6587 108.599 18.9554 105.835 17.8254 104.229C17.1781 103.308 16.809 102.22 16.7621 101.095C16.5337 95.8086 21.1721 92.9286 21.3704 92.8152L22.1287 92.3552V94.6186C23.9621 94.5852 27.9187 94.7002 28.4371 96.2519C28.5032 96.4435 28.5265 96.6472 28.5055 96.8487C28.4845 97.0503 28.4196 97.2448 28.3154 97.4186C28.0587 97.8619 27.5671 98.2019 27.0487 98.4552C28.4621 98.7686 30.2621 99.2286 30.9054 99.6569C31.0618 99.7589 31.1957 99.8918 31.2989 100.047C31.4021 100.203 31.4723 100.378 31.5054 100.562C31.6354 101.252 31.2787 102.014 31.0454 102.417C31.5071 103.399 30.9187 104.439 30.3787 105.037C30.7004 106.164 30.0137 107.017 29.3887 107.465C29.4335 107.646 29.4373 107.835 29.3999 108.017C29.3624 108.2 29.2845 108.372 29.1721 108.52C28.7854 109.01 28.0821 109.107 27.5837 109.107ZM21.1287 94.2319C19.8954 95.2452 17.6121 97.6036 17.7604 101.052C17.8001 101.985 18.106 102.888 18.6421 103.654C19.6737 105.119 22.1521 107.642 27.1721 108.079H27.1987C27.6437 108.14 28.2404 108.079 28.3821 107.902C28.4404 107.829 28.4204 107.65 28.3304 107.425L28.1637 106.999L28.5754 106.794C28.7004 106.729 29.7954 106.127 29.3421 105.11L29.1937 104.777L29.4671 104.535C29.4771 104.525 30.6187 103.484 30.0587 102.702L29.8504 102.41L30.0521 102.12C30.2737 101.8 30.5987 101.144 30.5221 100.745C30.5144 100.693 30.4955 100.643 30.4668 100.599C30.438 100.555 30.4 100.518 30.3554 100.49C29.6887 100.045 26.7421 99.3802 25.0404 99.0652L22.4887 98.5919L25.0337 98.0836C25.7971 97.9302 27.1304 97.4769 27.4554 96.9169C27.4884 96.8651 27.5087 96.8063 27.5148 96.7452C27.5209 96.6841 27.5125 96.6225 27.4904 96.5652C27.2671 95.8902 24.2321 95.5302 21.6571 95.6286L21.1387 95.6486L21.1287 94.2319Z" fill="#171718"/>
<path d="M112.7 73.2903L95.965 73.4569L97.93 79.0019L72.515 105.234C72.515 105.234 66.6816 101.344 63.2216 101.067C63.0498 101.054 62.8771 101.076 62.7142 101.132C62.5512 101.189 62.4015 101.277 62.2742 101.394C62.1468 101.51 62.0445 101.651 61.9736 101.808C61.9027 101.965 61.8646 102.135 61.8616 102.307C61.85 103.234 62.28 104.59 64.3166 105.949C64.3166 105.949 61.15 108.375 58.9016 109.615C58.5023 109.829 58.1827 110.166 57.9907 110.576C57.7988 110.986 57.7447 111.447 57.8366 111.89C58.0483 112.809 58.8916 113.724 61.4233 113.704C61.4233 113.704 61.4233 116.315 64.7983 115.592C64.7983 115.592 65.7633 118.004 68.6566 116.797C68.6566 116.797 69.465 118.402 73.2383 116.075L111.667 89.4269C112.975 88.5197 113.973 87.2318 114.524 85.7379C115.076 84.2441 115.154 82.6168 114.748 81.0769L112.7 73.2903Z" fill="white"/>
<path d="M69.8922 117.845C69.658 117.847 69.4247 117.817 69.1988 117.755C68.9465 117.686 68.7122 117.564 68.5122 117.395C67.5688 117.729 66.7138 117.729 65.9638 117.412C65.3676 117.153 64.8667 116.715 64.5305 116.159C63.3922 116.339 62.4905 116.159 61.8455 115.644C61.4046 115.275 61.1014 114.768 60.9855 114.205C58.3888 114.11 57.5705 112.975 57.3488 112.01C57.2331 111.461 57.2982 110.89 57.5343 110.381C57.7705 109.872 58.1649 109.453 58.6588 109.187C60.2972 108.28 62.4738 106.705 63.4705 105.965C61.7222 104.605 61.3488 103.245 61.3605 102.309C61.3641 102.068 61.417 101.83 61.5158 101.611C61.6147 101.391 61.7574 101.195 61.9353 101.032C62.1131 100.87 62.3223 100.746 62.5499 100.668C62.7776 100.589 63.0188 100.558 63.2588 100.577C66.3522 100.817 71.1088 103.744 72.4405 104.59L97.3538 78.8769L95.2588 72.9636L113.082 72.7869L115.23 80.9536C115.659 82.593 115.574 84.3244 114.988 85.9141C114.401 87.5038 113.341 88.8753 111.951 89.8436L73.5105 116.51H73.4988C72.0572 117.399 70.8472 117.845 69.8922 117.845ZM69.0988 116.577C69.3055 116.872 70.3722 117.262 72.9622 115.667L111.381 89.0169C112.602 88.1655 113.534 86.9601 114.049 85.563C114.565 84.166 114.64 82.6445 114.264 81.2036L112.314 73.7936L96.6688 73.9503L98.5022 79.1269L72.5822 105.88L72.2355 105.649C72.1788 105.612 66.4705 101.83 63.1822 101.574C63.0781 101.565 62.9735 101.579 62.8748 101.613C62.7761 101.647 62.6856 101.701 62.6088 101.772C62.5317 101.841 62.4698 101.926 62.4271 102.02C62.3844 102.114 62.3617 102.217 62.3605 102.32C62.3455 103.444 63.1172 104.557 64.5938 105.54L65.1755 105.929L64.6188 106.354C64.4888 106.454 61.3905 108.819 59.1422 110.062C58.8378 110.222 58.5935 110.477 58.446 110.788C58.2985 111.099 58.2556 111.45 58.3238 111.787C58.5438 112.747 59.5872 113.227 61.4188 113.212H61.9188V113.712C61.9297 113.934 61.9848 114.151 62.081 114.352C62.1772 114.552 62.3124 114.731 62.4788 114.879C62.9472 115.252 63.6905 115.332 64.6905 115.119L65.1022 115.03L65.2588 115.422C65.4844 115.902 65.8747 116.285 66.3588 116.502C66.9388 116.742 67.6455 116.69 68.4605 116.352L68.9305 116.155L69.0988 116.577Z" fill="#171718"/>
<path d="M66.0078 59.0315L70.0069 50.3647L70.9149 50.7836L66.9158 59.4505L66.0078 59.0315Z" fill="#171718"/>
<path d="M57.2969 46.2434H58.2969V59.2434H57.2969V46.2434Z" fill="#171718"/>
<path d="M45.168 50.7467L46.1018 50.389L49.1024 58.2223L48.1686 58.58L45.168 50.7467Z" fill="#171718"/>
</svg>
