<svg width="150" height="108" viewBox="0 0 150 108" fill="none" xmlns="http://www.w3.org/2000/svg">
<path d="M55.9648 12.5333L56.4659 11.6679L62.8527 15.3657L62.3516 16.2311L55.9648 12.5333Z" fill="#171718"/>
<path d="M70.6914 0.513245L71.6808 0.367852L73.0761 9.86255L72.0867 10.0079L70.6914 0.513245Z" fill="#171718"/>
<path d="M85.2422 13.5274L88.8799 8.41438L89.6947 8.99409L86.057 14.1071L85.2422 13.5274Z" fill="#171718"/>
<path d="M62.2521 25.4523L8.08543 31.594C7.42603 31.665 6.78723 31.866 6.20591 32.1852C5.62459 32.5045 5.11228 32.9357 4.69854 33.4541C4.2848 33.9724 3.97783 34.5676 3.79536 35.2052C3.61289 35.8428 3.55853 36.5103 3.63543 37.169L11.2138 102.214C11.2906 102.874 11.4976 103.512 11.8227 104.091C12.1478 104.67 12.5846 105.179 13.1077 105.588C13.6309 105.997 14.2301 106.299 14.8705 106.475C15.5109 106.651 16.1799 106.698 16.8388 106.614L73.4738 100.176L67.7438 79.9657L70.2904 63.414L61.6954 45.1073L66.7888 37.6323L62.2521 25.4523Z" fill="#171718"/>
<path d="M60.0231 26.2474L5.85641 32.0724C5.19702 32.1432 4.55819 32.3439 3.9768 32.663C3.39542 32.9821 2.88298 33.4131 2.46909 33.9313C2.0552 34.4495 1.74805 35.0445 1.56537 35.682C1.38269 36.3196 1.3281 36.987 1.40475 37.6457L8.98475 102.691C9.06182 103.35 9.26893 103.988 9.59411 104.567C9.91928 105.146 10.3561 105.655 10.8792 106.064C11.4023 106.474 12.0013 106.775 12.6417 106.951C13.282 107.127 13.9509 107.175 14.6097 107.091L71.2447 99.8574L65.5147 80.439L68.0614 63.8874L59.4664 45.5857L64.5597 38.104L60.0231 26.2474Z" fill="white"/>
<path d="M13.96 107.632C12.6077 107.63 11.3034 107.132 10.2942 106.231C9.28507 105.331 8.6413 104.092 8.48498 102.749L0.908309 37.704C0.823781 36.9798 0.883585 36.246 1.08426 35.545C1.28494 34.844 1.62252 34.1896 2.0775 33.6198C2.53247 33.05 3.09584 32.576 3.73505 32.2252C4.37426 31.8743 5.07664 31.6536 5.80164 31.5757L60.3533 25.709L65.12 38.1707L60.04 45.6324L68.5783 63.814L68.555 63.9657L66.0266 80.4074L71.89 100.279L14.6716 107.587C14.4356 107.617 14.1979 107.632 13.96 107.632ZM59.695 26.7857L5.90998 32.569C5.31618 32.633 4.74094 32.814 4.21745 33.1015C3.69395 33.3889 3.23256 33.7772 2.85991 34.2439C2.48726 34.7106 2.21072 35.2465 2.04625 35.8207C1.88177 36.3948 1.83263 36.9958 1.90164 37.589L9.48498 102.632C9.55485 103.226 9.74166 103.8 10.0346 104.321C10.3276 104.843 10.7209 105.301 11.1918 105.669C11.6627 106.037 12.2019 106.309 12.7783 106.467C13.3547 106.626 13.9569 106.669 14.55 106.594L70.6033 99.4274L65.0033 80.474L65.02 80.364L67.5433 63.9657L58.8933 45.5424L64 38.0424L59.695 26.7857Z" fill="#171718"/>
<path d="M33.3149 46.8738L15.0454 48.8552C13.9244 48.9768 13.1142 49.9841 13.2358 51.1051L14.6981 64.5877C14.8196 65.7087 15.827 66.5189 16.948 66.3974L35.2175 64.4159C36.3385 64.2943 37.1487 63.287 37.0271 62.166L35.5648 48.6834C35.4432 47.5624 34.4359 46.7522 33.3149 46.8738Z" fill="#E0F2FE"/>
<path d="M16.7245 66.9076C16.0992 66.906 15.4965 66.6738 15.0316 66.2557C14.5666 65.8375 14.2722 65.2626 14.2045 64.6409L12.7412 51.1559C12.6691 50.4872 12.8649 49.8172 13.2856 49.2924C13.7064 48.7677 14.3178 48.431 14.9862 48.3559L33.2579 46.3743C33.5905 46.3377 33.9271 46.3672 34.2484 46.461C34.5696 46.5548 34.8692 46.7111 35.13 46.9209C35.3907 47.1307 35.6075 47.3899 35.7678 47.6836C35.9282 47.9773 36.029 48.2998 36.0645 48.6326L37.5279 62.1159C37.6003 62.786 37.4036 63.4575 36.981 63.9826C36.5585 64.5076 35.9446 64.8434 35.2745 64.9159L17.0045 66.8993C16.9114 66.907 16.818 66.9098 16.7245 66.9076ZM15.1012 49.3509C14.695 49.3954 14.323 49.5992 14.0668 49.9175C13.8106 50.2359 13.6911 50.6429 13.7345 51.0493L15.1979 64.5326C15.2197 64.7338 15.2809 64.9287 15.3781 65.1062C15.4752 65.2837 15.6064 65.4403 15.7642 65.5671C15.9219 65.6938 16.1031 65.7883 16.2973 65.845C16.4915 65.9017 16.6951 65.9196 16.8962 65.8976L35.1679 63.9159C35.3691 63.8941 35.564 63.8329 35.7415 63.7357C35.919 63.6386 36.0756 63.5074 36.2023 63.3497C36.3291 63.1919 36.4236 63.0108 36.4803 62.8165C36.537 62.6223 36.5549 62.4188 36.5329 62.2176L35.0695 48.7343C35.0255 48.3278 34.8219 47.9556 34.5034 47.6993C34.1849 47.443 33.7776 47.3237 33.3712 47.3676L15.1012 49.3509Z" fill="#171718"/>
<path d="M35.8381 71.1144L16.8592 73.2466C16.3351 73.3055 15.9579 73.7781 16.0168 74.3022L16.4788 78.4147C16.5377 78.9388 17.0103 79.316 17.5344 79.2571L36.5134 77.1249C37.0375 77.066 37.4147 76.5934 37.3558 76.0693L36.8938 71.9568C36.8349 71.4327 36.3623 71.0555 35.8381 71.1144Z" fill="white"/>
<path d="M17.4212 79.7639C17.0643 79.7615 16.7209 79.6278 16.4562 79.3883C16.1916 79.1489 16.0243 78.8205 15.9862 78.4656L15.5246 74.3523C15.4819 73.9689 15.5931 73.5843 15.8337 73.2828C16.0743 72.9813 16.4246 72.7875 16.8079 72.7439L35.7862 70.6139C35.9761 70.5924 36.1684 70.6085 36.3521 70.6614C36.5358 70.7142 36.7072 70.8028 36.8566 70.922C37.006 71.0412 37.1304 71.1887 37.2227 71.3561C37.315 71.5234 37.3734 71.7073 37.3946 71.8973L37.8562 76.0089C37.8993 76.3924 37.7883 76.7773 37.5476 77.0789C37.307 77.3805 36.9563 77.5742 36.5729 77.6173L17.5862 79.7556C17.5312 79.7606 17.4762 79.7639 17.4212 79.7639ZM16.9112 73.7456C16.7918 73.759 16.6826 73.8191 16.6073 73.9128C16.5321 74.0065 16.4969 74.1261 16.5096 74.2456L16.9712 78.3589C16.9842 78.4787 17.0442 78.5883 17.1379 78.6639C17.1844 78.7011 17.2378 78.7287 17.295 78.745C17.3522 78.7613 17.4121 78.766 17.4712 78.7589L36.4529 76.6323C36.5723 76.6189 36.6815 76.5588 36.7568 76.4651C36.832 76.3714 36.8672 76.2518 36.8545 76.1323L36.3929 72.0206C36.3795 71.9012 36.3194 71.792 36.2257 71.7167C36.132 71.6415 36.0124 71.6063 35.8929 71.6189L16.9112 73.7456Z" fill="#171718"/>
<path d="M61.9158 68.082L42.941 70.2506C42.417 70.3105 42.0407 70.7839 42.1006 71.3079L42.5705 75.4195C42.6304 75.9435 43.1038 76.3197 43.6278 76.2599L62.6026 74.0912C63.1266 74.0313 63.5029 73.558 63.443 73.034L62.9731 68.9224C62.9132 68.3984 62.4398 68.0221 61.9158 68.082Z" fill="white"/>
<path d="M43.5266 76.7591C43.1693 76.7587 42.8246 76.6266 42.5586 76.388C42.2926 76.1493 42.124 75.821 42.085 75.4657L41.615 71.3557C41.5932 71.1659 41.609 70.9735 41.6615 70.7898C41.714 70.606 41.8022 70.4344 41.9211 70.2847C42.04 70.1351 42.1871 70.0103 42.3542 69.9175C42.5214 69.8247 42.7051 69.7658 42.895 69.7441L61.87 67.5774C62.253 67.5347 62.6374 67.6454 62.9391 67.8852C63.2407 68.1251 63.4352 68.4746 63.48 68.8574L63.95 72.9657C63.9936 73.3489 63.8832 73.7338 63.6432 74.0357C63.4032 74.3376 63.0531 74.5318 62.67 74.5757L43.695 76.7424C43.6383 76.7557 43.5833 76.7591 43.5266 76.7591ZM43.0083 70.7407C42.8892 70.7546 42.7804 70.8148 42.7055 70.9085C42.6306 71.0021 42.5957 71.1215 42.6083 71.2407L43.0783 75.3507C43.0847 75.4099 43.1028 75.4672 43.1314 75.5193C43.1601 75.5715 43.1987 75.6175 43.2452 75.6546C43.2916 75.6918 43.345 75.7194 43.4022 75.7359C43.4593 75.7524 43.5192 75.7575 43.5783 75.7507L62.5533 73.5841C62.6125 73.5776 62.6698 73.5596 62.7219 73.531C62.7741 73.5023 62.8201 73.4637 62.8572 73.4172C62.8944 73.3707 62.922 73.3174 62.9385 73.2602C62.955 73.2031 62.96 73.1432 62.9533 73.0841L62.485 68.9657C62.4707 68.8468 62.4104 68.7382 62.3168 68.6634C62.2233 68.5886 62.1041 68.5535 61.985 68.5657L43.0083 70.7407Z" fill="#171718"/>
<path d="M88.6723 25.1325L90.9007 37.9425L84.534 43.8658L88.6723 64.3658L82.1523 79.0942L83.9023 100.071L136.347 106.273C137.554 106.408 138.766 106.059 139.716 105.302C140.666 104.545 141.276 103.443 141.414 102.236L149.094 35.9908C149.166 35.389 149.118 34.7788 148.954 34.1955C148.789 33.6122 148.511 33.0671 148.134 32.5918C147.758 32.1164 147.292 31.7201 146.762 31.4256C146.232 31.1311 145.65 30.9443 145.047 30.8758L88.6723 25.1325Z" fill="#171718"/>
<path d="M86.1266 24.9738L88.3549 37.7072L81.9866 43.5955L86.1266 63.9655L79.6016 78.6071L81.3516 99.4655L133.797 105.465C135 105.603 136.209 105.258 137.159 104.506C138.108 103.754 138.721 102.657 138.863 101.454L146.543 36.2405C146.614 35.6405 146.565 35.0324 146.4 34.4514C146.234 33.8703 145.955 33.3278 145.579 32.8551C145.203 32.3823 144.737 31.9888 144.208 31.6971C143.679 31.4054 143.097 31.2213 142.497 31.1555L86.1266 24.9738Z" fill="white"/>
<path d="M134.318 105.996C134.124 105.995 133.931 105.984 133.738 105.962L80.8865 99.909L79.0898 78.524L85.6032 63.9107L81.4365 43.419L87.8182 37.524L85.5182 24.404L142.55 30.659C143.216 30.732 143.861 30.9362 144.448 31.2598C145.034 31.5834 145.551 32.0199 145.969 32.5442C146.386 33.0685 146.695 33.6702 146.879 34.3147C147.062 34.9591 147.117 35.6335 147.038 36.299L139.358 101.512C139.21 102.746 138.616 103.883 137.688 104.709C136.759 105.535 135.561 105.993 134.318 105.996ZM81.8182 99.009L133.853 104.966C134.924 105.085 136 104.777 136.845 104.108C137.69 103.439 138.236 102.463 138.365 101.392L146.045 36.179C146.108 35.6446 146.064 35.1031 145.917 34.5856C145.769 34.0682 145.521 33.585 145.186 33.1639C144.851 32.7428 144.436 32.3922 143.965 32.1322C143.494 31.8722 142.976 31.708 142.442 31.649L86.7315 25.544L88.8982 37.889L82.5382 43.7723L86.6515 64.024L80.1132 78.6907L81.8182 99.009Z" fill="#171718"/>
<path d="M86.5903 67.9993L86.1075 72.1093C86.046 72.6331 86.4207 73.1077 86.9446 73.1692L105.411 75.3385C105.935 75.4001 106.409 75.0253 106.471 74.5015L106.954 70.3914C107.015 69.8676 106.64 69.393 106.117 69.3315L87.6502 67.1622C87.1264 67.1007 86.6519 67.4754 86.5903 67.9993Z" fill="white"/>
<path d="M105.531 75.854C105.476 75.8538 105.42 75.8504 105.365 75.844L86.8979 73.6773C86.515 73.6314 86.1659 73.4357 85.927 73.133C85.6881 72.8304 85.5787 72.4454 85.6229 72.0623L86.1062 67.9523C86.1513 67.5691 86.3468 67.2195 86.6497 66.9804C86.9525 66.7412 87.338 66.6322 87.7212 66.6773L106.188 68.844C106.571 68.8895 106.92 69.0851 107.159 69.3879C107.398 69.6906 107.508 70.0758 107.463 70.459L106.98 74.569C106.937 74.9234 106.767 75.2501 106.5 75.4869C106.233 75.7238 105.888 75.8544 105.531 75.854ZM87.5445 67.664C87.4333 67.6641 87.326 67.7051 87.2431 67.7791C87.1601 67.8532 87.1072 67.9552 87.0945 68.0657L86.6112 72.1757C86.5985 72.2946 86.6332 72.4138 86.7078 72.5074C86.7823 72.601 86.8908 72.6614 87.0096 72.6757L105.476 74.8423C105.595 74.8546 105.714 74.8197 105.808 74.7452C105.901 74.6708 105.962 74.5626 105.976 74.444L106.46 70.334C106.472 70.2151 106.437 70.0961 106.362 70.0027C106.288 69.9092 106.18 69.8486 106.061 69.834L87.5929 67.6673C87.5769 67.6648 87.5607 67.6637 87.5445 67.664Z" fill="#171718"/>
<path d="M112.688 70.8635L112.205 74.9736C112.144 75.4974 112.518 75.9719 113.042 76.0335L131.509 78.2028C132.032 78.2643 132.507 77.8896 132.568 77.3657L133.051 73.2556C133.113 72.7318 132.738 72.2573 132.214 72.1958L113.748 70.0265C113.224 69.9649 112.75 70.3397 112.688 70.8635Z" fill="white"/>
<path d="M131.633 78.7188C131.577 78.7187 131.522 78.7153 131.466 78.7088L113 76.5421C112.81 76.52 112.627 76.4607 112.46 76.3676C112.293 76.2746 112.146 76.1495 112.028 75.9997C111.91 75.8499 111.822 75.6782 111.77 75.4944C111.718 75.3107 111.702 75.1185 111.725 74.9288L112.206 70.8188C112.253 70.4361 112.449 70.0873 112.751 69.8484C113.054 69.6096 113.438 69.5001 113.821 69.5438L132.29 71.7105C132.673 71.7556 133.023 71.951 133.262 72.2539C133.501 72.5568 133.61 72.9422 133.565 73.3255L133.081 77.4355C133.039 77.7894 132.868 78.1155 132.601 78.352C132.334 78.5884 131.99 78.7189 131.633 78.7188ZM113.653 70.5288C113.542 70.5292 113.435 70.5702 113.351 70.6442C113.268 70.7182 113.215 70.82 113.201 70.9305L112.718 75.0405C112.705 75.1597 112.74 75.2791 112.815 75.3727C112.89 75.4664 112.999 75.5266 113.118 75.5405L131.585 77.7071C131.704 77.7194 131.823 77.6845 131.916 77.61C132.01 77.5356 132.07 77.4274 132.085 77.3088L132.568 73.1988C132.58 73.0799 132.546 72.9609 132.471 72.8675C132.397 72.774 132.288 72.7134 132.17 72.6988L113.701 70.5321C113.685 70.5297 113.669 70.5285 113.653 70.5288Z" fill="#171718"/>
<path d="M126.71 101.051C130.842 101.051 134.19 97.7016 134.19 93.5705C134.19 89.4394 130.842 86.0905 126.71 86.0905C122.579 86.0905 119.23 89.4394 119.23 93.5705C119.23 97.7016 122.579 101.051 126.71 101.051Z" fill="white"/>
<path d="M126.71 101.551C125.131 101.551 123.588 101.083 122.275 100.206C120.962 99.3293 119.939 98.0828 119.334 96.6242C118.73 95.1657 118.572 93.5607 118.88 92.0123C119.188 90.4638 119.948 89.0415 121.064 87.9251C122.181 86.8088 123.603 86.0486 125.151 85.7406C126.7 85.4327 128.305 85.5909 129.763 86.1952C131.222 86.7995 132.469 87.8228 133.345 89.1357C134.222 90.4485 134.69 91.9919 134.69 93.5707C134.687 95.6863 133.846 97.7145 132.35 99.2105C130.854 100.706 128.826 101.548 126.71 101.551ZM126.71 86.589C125.329 86.5887 123.979 86.9979 122.831 87.7648C121.682 88.5318 120.787 89.6221 120.258 90.8978C119.73 92.1735 119.591 93.5773 119.861 94.9317C120.13 96.2861 120.795 97.5303 121.771 98.5069C122.747 99.4834 123.991 100.149 125.346 100.418C126.7 100.688 128.104 100.549 129.38 100.021C130.655 99.4927 131.746 98.5978 132.513 97.4497C133.28 96.3015 133.69 94.9516 133.69 93.5707C133.688 91.72 132.952 89.9457 131.643 88.6369C130.335 87.3281 128.561 86.5917 126.71 86.589Z" fill="#171718"/>
<path d="M115.566 99.6174C119.697 99.6174 123.046 96.2685 123.046 92.1374C123.046 88.0063 119.697 84.6574 115.566 84.6574C111.435 84.6574 108.086 88.0063 108.086 92.1374C108.086 96.2685 111.435 99.6174 115.566 99.6174Z" fill="#171718"/>
</svg>
