<svg width="128" height="102" viewBox="0 0 128 102" fill="none" xmlns="http://www.w3.org/2000/svg">
<path d="M88.9672 12.3868L87.1955 12.0001L86.7922 10.2318C86.7854 10.2015 86.7685 10.1745 86.7442 10.1551C86.72 10.1357 86.6899 10.1251 86.6589 10.1251C86.6277 10.1253 86.5975 10.1359 86.573 10.1553C86.5486 10.1746 86.5313 10.2015 86.5239 10.2318L86.1205 12.0085L84.3489 12.4285C84.3183 12.4359 84.2912 12.4535 84.2718 12.4783C84.2525 12.5031 84.242 12.5337 84.2422 12.5651C84.2423 12.5962 84.2532 12.6262 84.2729 12.6502C84.2927 12.6742 84.3201 12.6907 84.3505 12.6968L86.1222 13.0835L86.5239 14.8518C86.5313 14.8821 86.5486 14.909 86.573 14.9283C86.5975 14.9476 86.6277 14.9582 86.6589 14.9585C86.6899 14.9585 86.72 14.9479 86.7442 14.9285C86.7685 14.9091 86.7854 14.8821 86.7922 14.8518L87.1972 13.0751L88.9689 12.6551C89 12.6491 89.0281 12.6324 89.0483 12.6079C89.0685 12.5834 89.0795 12.5527 89.0795 12.521C89.0795 12.4892 89.0685 12.4585 89.0483 12.434C89.0281 12.4095 89 12.3928 88.9689 12.3868H88.9672Z" fill="#171718"/>
<path d="M22.4672 3.2198L20.6955 2.83313L20.2922 1.0648C20.2854 1.03452 20.2685 1.00746 20.2442 0.988078C20.22 0.968692 20.1899 0.95813 20.1589 0.95813C20.1277 0.958347 20.0975 0.968955 20.073 0.988276C20.0486 1.0076 20.0313 1.03453 20.0239 1.0648L19.6205 2.84146L17.8489 3.26146C17.8183 3.26895 17.7912 3.28651 17.7718 3.3113C17.7525 3.33609 17.742 3.36668 17.7422 3.39813C17.7423 3.42919 17.7532 3.45925 17.7729 3.48323C17.7927 3.50722 17.8201 3.52366 17.8505 3.5298L19.6222 3.91646L20.0239 5.68479C20.0313 5.71506 20.0486 5.742 20.073 5.76132C20.0975 5.78064 20.1277 5.79125 20.1589 5.79146C20.1899 5.79146 20.22 5.7809 20.2442 5.76152C20.2685 5.74213 20.2854 5.71507 20.2922 5.68479L20.6972 3.90813L22.4689 3.48813C22.5 3.48209 22.5281 3.4654 22.5483 3.44092C22.5685 3.41644 22.5795 3.38569 22.5795 3.35396C22.5795 3.32223 22.5685 3.29149 22.5483 3.26701C22.5281 3.24253 22.5 3.22584 22.4689 3.2198H22.4672Z" fill="#171718"/>
<path d="M92.1855 4.79154L91.2689 4.59154L91.0622 3.67654C91.0587 3.66058 91.0498 3.6463 91.0371 3.63606C91.0244 3.62582 91.0085 3.62024 90.9922 3.62024C90.9759 3.62024 90.96 3.62582 90.9473 3.63606C90.9345 3.6463 90.9257 3.66058 90.9222 3.67654L90.7139 4.59654L89.7972 4.81321C89.7815 4.81696 89.7675 4.82593 89.7575 4.83863C89.7475 4.85134 89.7421 4.86704 89.7422 4.8832C89.7423 4.89939 89.748 4.91505 89.7583 4.92751C89.7686 4.93996 89.783 4.94846 89.7989 4.95154L90.7155 5.15154L90.9222 6.06654C90.9257 6.0825 90.9345 6.09678 90.9473 6.10702C90.96 6.11726 90.9759 6.12284 90.9922 6.12284C91.0085 6.12284 91.0244 6.11726 91.0371 6.10702C91.0498 6.09678 91.0587 6.0825 91.0622 6.06654L91.2705 5.14654L92.1872 4.92987C92.2028 4.92585 92.2166 4.91682 92.2265 4.90417C92.2365 4.89153 92.242 4.87596 92.2422 4.85987C92.2421 4.84369 92.2364 4.82803 92.2261 4.81557C92.2157 4.80311 92.2014 4.79462 92.1855 4.79154Z" fill="#171718"/>
<path d="M40.9896 29.6734L39.6463 29.3817L39.3412 28.04C39.3369 28.0162 39.3244 27.9947 39.3058 27.9792C39.2872 27.9637 39.2638 27.9552 39.2396 27.9552C39.2154 27.9552 39.192 27.9637 39.1734 27.9792C39.1548 27.9947 39.1422 28.0162 39.1379 28.04L38.8312 29.3867L37.4863 29.7067C37.4635 29.7123 37.4432 29.7253 37.4287 29.7438C37.4142 29.7622 37.4063 29.7849 37.4063 29.8084C37.4061 29.8321 37.4141 29.8552 37.429 29.8737C37.4439 29.8922 37.4647 29.9051 37.4879 29.91L38.8329 30.2017L39.1379 31.5434C39.1422 31.5672 39.1548 31.5887 39.1734 31.6042C39.192 31.6197 39.2154 31.6282 39.2396 31.6282C39.2638 31.6282 39.2872 31.6197 39.3058 31.6042C39.3244 31.5887 39.3369 31.5672 39.3412 31.5434L39.6479 30.1967L40.9929 29.8767C41.0158 29.8714 41.0363 29.8584 41.0508 29.84C41.0653 29.8215 41.0731 29.7986 41.0729 29.775C41.0727 29.7511 41.0643 29.728 41.0491 29.7096C41.034 29.6911 41.013 29.6783 40.9896 29.6734Z" fill="#171718"/>
<path d="M67.2411 48.5867C57.6161 48.5867 48.7778 48.31 41.2211 47.9367C17.4728 46.77 0.922812 44.3933 0.757812 44.37L0.901146 43.38C1.06781 43.4033 17.5778 45.7667 41.2828 46.9383C63.1545 48.02 95.7928 48.2817 127.086 43.3817L127.239 44.3683C106.673 47.5883 85.5328 48.5867 67.2411 48.5867Z" fill="#171718"/>
<path d="M42.6602 16.7916C46.9404 16.7916 50.4102 13.3218 50.4102 9.04163C50.4102 4.76142 46.9404 1.29163 42.6602 1.29163C38.3799 1.29163 34.9102 4.76142 34.9102 9.04163C34.9102 13.3218 38.3799 16.7916 42.6602 16.7916Z" fill="#E0F2FE"/>
<path d="M42.6602 17.2916C41.0285 17.2916 39.4334 16.8078 38.0767 15.9013C36.72 14.9947 35.6626 13.7063 35.0382 12.1988C34.4137 10.6913 34.2504 9.03247 34.5687 7.43213C34.887 5.83179 35.6727 4.36178 36.8265 3.20799C37.9803 2.05421 39.4503 1.26848 41.0507 0.950151C42.651 0.631823 44.3098 0.7952 45.8173 1.41962C47.3248 2.04405 48.6133 3.10147 49.5198 4.45817C50.4263 5.81488 50.9102 7.40993 50.9102 9.04163C50.9075 11.2289 50.0375 13.3257 48.4909 14.8723C46.9443 16.4189 44.8474 17.289 42.6602 17.2916ZM42.6602 1.79163C41.2262 1.79163 39.8245 2.21683 38.6323 3.01348C37.44 3.81012 36.5108 4.94241 35.962 6.26717C35.4133 7.59194 35.2697 9.04967 35.5495 10.456C35.8292 11.8624 36.5197 13.1542 37.5336 14.1682C38.5476 15.1821 39.8394 15.8726 41.2458 16.1523C42.6521 16.4321 44.1098 16.2885 45.4346 15.7398C46.7594 15.191 47.8917 14.2618 48.6883 13.0695C49.485 11.8773 49.9102 10.4755 49.9102 9.04163C49.9084 7.11935 49.144 5.27631 47.7847 3.91705C46.4255 2.5578 44.5824 1.79339 42.6602 1.79163Z" fill="#171718"/>
<path d="M73.5768 18.1249C73.5768 18.1249 71.5768 12.6249 66.2435 14.1249C66.2435 14.1249 65.5768 6.12491 56.9102 5.62491C48.2435 5.12491 45.5768 11.9582 45.5768 11.9582C45.5768 11.9582 38.2435 7.95825 33.2435 14.1249C33.2435 14.1249 27.5768 14.1249 26.4102 18.1249H73.5768Z" fill="white"/>
<path d="M74.2889 18.625H25.7422L25.9289 17.985C27.0572 14.1166 31.8522 13.68 33.0022 13.6316C35.6972 10.4366 39.0022 10.015 41.3355 10.2316C42.7166 10.3679 44.0669 10.7241 45.3355 11.2866C45.929 10.1477 46.7112 9.11759 47.6489 8.23997C49.3155 6.67164 52.2839 4.85663 56.9372 5.12497C61.6322 5.39663 64.0505 7.8183 65.2539 9.8033C65.9383 10.9452 66.4141 12.1997 66.6589 13.5083C71.9622 12.415 74.0239 17.8966 74.0455 17.9533L74.2889 18.625ZM27.1355 17.625H72.8022C72.1022 16.2916 70.1572 13.545 66.3805 14.6066L65.7972 14.7733L65.7472 14.17C65.7205 13.8616 65.0005 6.59497 56.8839 6.1283C48.6755 5.6533 46.0705 12.0783 46.0505 12.1433L45.8455 12.6733L45.3455 12.4C44.0506 11.7634 42.6505 11.3681 41.2139 11.2333C38.1422 10.9583 35.5955 12.04 33.6405 14.45L33.4905 14.635H33.2422C33.1939 14.625 28.5755 14.67 27.1355 17.625Z" fill="#171718"/>
<path d="M102.739 28.4584C102.739 28.4584 101.727 25.6767 99.0306 26.4367C99.0306 26.4367 98.6973 22.3917 94.3123 22.1384C89.9273 21.8851 88.5823 25.3401 88.5823 25.3401C88.5823 25.3401 84.874 23.3184 82.3456 26.4367C82.3456 26.4367 79.4806 26.4367 78.8906 28.4584H102.739Z" fill="white"/>
<path d="M103.455 28.958H78.2266L78.4132 28.318C78.9982 26.318 81.3399 25.9947 82.1082 25.9447C84.2982 23.4447 87.2282 24.2464 88.3566 24.6914C88.9382 23.6914 90.6666 21.4264 94.3432 21.638C98.0799 21.8547 99.1449 24.638 99.4316 25.8414C101.588 25.5347 102.837 27.2564 103.212 28.2864L103.455 28.958ZM79.7149 27.958H101.908C101.47 27.318 100.603 26.513 99.1682 26.9164L98.5849 27.083L98.5332 26.478C98.5216 26.333 98.1666 22.863 94.2849 22.6447C90.3116 22.4147 89.0616 25.4997 89.0482 25.5297L88.8416 26.0597L88.3416 25.788C88.2066 25.7147 84.9632 24.0097 82.7332 26.758L82.5832 26.9447H82.3449C82.3282 26.9364 80.5466 26.958 79.7149 27.958Z" fill="#171718"/>
<path d="M34.1124 44.3345L33.5273 50.6407L35.3528 50.8101L35.9379 44.5038L34.1124 44.3345Z" fill="#171718"/>
<path d="M19.4483 42.835L18.8633 49.1412L20.6888 49.3106L21.2738 43.0043L19.4483 42.835Z" fill="#171718"/>
<path d="M30.0726 49.823C30.406 49.353 30.9304 49.0536 31.646 48.9247C32.5596 48.794 33.4866 48.7851 34.4026 48.898C35.526 49.0091 36.4149 49.2136 37.0693 49.5113C37.7237 49.8091 38.1682 50.2308 38.4026 50.7763C38.6171 51.2382 38.7426 51.7363 38.7726 52.2447C38.7734 52.8728 38.7384 53.5005 38.6676 54.1247L35.7393 83.8663C35.6026 85.2563 35.3326 86.2647 34.9293 86.8913C34.7452 87.1906 34.5007 87.4482 34.2114 87.6476C33.9222 87.8471 33.5945 87.984 33.2493 88.0497C32.3818 88.2009 31.4967 88.2233 30.6226 88.1163C29.5876 88.0147 28.776 87.8463 28.1876 87.6063C27.699 87.4312 27.247 87.1674 26.8543 86.828C26.5426 86.5209 26.3361 86.123 26.2643 85.6913C26.1087 85.0636 26.0926 84.1258 26.216 82.878L26.856 76.3513L12.356 74.928C9.8593 74.6824 8.44596 73.8597 8.11596 72.4597C7.98742 71.6882 7.97338 70.9019 8.07429 70.1263C8.1229 69.407 8.24692 68.6948 8.44429 68.0013L14.6443 50.518C14.9398 49.7202 15.1882 49.1147 15.3893 48.7013C15.6442 48.2338 16.0179 47.8418 16.4726 47.5647C17.0397 47.2101 17.7135 47.0662 18.376 47.158C19.2085 47.2528 20.0243 47.4602 20.801 47.7747C23.2287 48.6958 24.3649 49.9591 24.2093 51.5647C24.1039 52.3233 23.904 53.0657 23.6143 53.7747C23.58 53.8213 23.5562 53.8747 23.5443 53.9313L18.9993 66.663L27.7393 67.5247L29.1726 52.9213C29.2215 52.3133 29.3078 51.7088 29.431 51.1113C29.5622 50.6455 29.7799 50.2084 30.0726 49.823Z" fill="white"/>
<path d="M31.8169 88.678C31.4302 88.678 31.0152 88.6564 30.5786 88.6147C29.4836 88.5064 28.6419 88.328 28.0052 88.0714C27.4598 87.8729 26.9562 87.5745 26.5202 87.1914C26.137 86.8151 25.8806 86.3286 25.7869 85.7997C25.6202 85.1114 25.6002 84.133 25.7286 82.828L26.3219 76.7997L12.3219 75.4247C9.60023 75.158 8.02689 74.198 7.64523 72.573C7.50689 71.9197 7.49189 71.1097 7.59189 70.083C7.64444 69.3267 7.77685 68.5781 7.9869 67.8497L14.1886 50.3497C14.4952 49.5164 14.7452 48.9097 14.9569 48.4797C15.2495 47.9318 15.6827 47.4716 16.2119 47.1464C16.8747 46.7264 17.6641 46.553 18.4419 46.6564C19.3188 46.7568 20.1782 46.9749 20.9969 47.3047C23.6502 48.313 24.9036 49.7614 24.7219 51.6114C24.6137 52.4126 24.4037 53.1967 24.0969 53.9447L24.0802 53.993L24.0519 54.0347L19.7036 66.2164L27.2869 66.9597L28.6736 52.8547C28.7243 52.2236 28.8144 51.5962 28.9436 50.9764C29.0862 50.4478 29.3302 49.9519 29.6619 49.5164C30.0719 48.9364 30.7086 48.5664 31.5536 48.4147C32.5129 48.2756 33.4864 48.265 34.4486 48.383C35.6152 48.498 36.5702 48.7164 37.2736 49.038C38.0419 49.3897 38.5752 49.9014 38.8602 50.5597C39.0991 51.0802 39.2376 51.6411 39.2686 52.213C39.2722 52.8618 39.2371 53.5101 39.1636 54.1547L36.2402 83.9147C36.0952 85.3997 35.8052 86.4614 35.3536 87.163C35.1336 87.5184 34.8423 87.8242 34.498 88.0612C34.1537 88.2982 33.764 88.4611 33.3536 88.5397C32.8473 88.6375 32.3325 88.6839 31.8169 88.678ZM18.0036 47.6447C17.5657 47.6322 17.1342 47.7519 16.7652 47.988C16.3849 48.2163 16.0711 48.5405 15.8552 48.928C15.6602 49.323 15.4169 49.918 15.1286 50.698L8.93189 68.1764C8.74886 68.8295 8.63326 69.4997 8.58689 70.1764C8.49416 70.8965 8.50539 71.6261 8.62023 72.343C8.89189 73.4947 10.1702 74.1964 12.4202 74.4164L27.4202 75.8897L26.7302 82.913C26.6152 84.0997 26.6269 84.988 26.7669 85.558V85.578C26.8183 85.9088 26.9736 86.2146 27.2102 86.4514C27.5547 86.7465 27.95 86.9764 28.3769 87.1297C28.9169 87.3497 29.6886 87.508 30.6719 87.6047C31.4964 87.7059 32.3313 87.6862 33.1502 87.5464C33.4298 87.4941 33.6953 87.3836 33.9294 87.2219C34.1634 87.0602 34.3608 86.8511 34.5086 86.608C34.8669 86.0514 35.1136 85.108 35.2419 83.8047L38.1636 54.063C38.2316 53.4593 38.2655 52.8522 38.2652 52.2447C38.2353 51.7998 38.1223 51.3645 37.9319 50.9614C37.7469 50.5314 37.3936 50.2014 36.8502 49.953C36.2486 49.6797 35.4052 49.488 34.3419 49.383C33.4714 49.2746 32.5904 49.2818 31.7219 49.4047C31.1352 49.5097 30.7219 49.738 30.4686 50.0997C30.2139 50.4327 30.0234 50.8103 29.9069 51.213C29.7889 51.7891 29.7065 52.3718 29.6602 52.958L28.1769 68.058L18.3219 67.0914L23.0736 53.8047C23.0957 53.7199 23.1293 53.6386 23.1736 53.563C23.4404 52.9083 23.6252 52.2231 23.7236 51.523C23.8569 50.1597 22.8469 49.088 20.6352 48.248C19.9001 47.9506 19.1281 47.7538 18.3402 47.663C18.2269 47.6514 18.1136 47.6447 18.0036 47.6447Z" fill="#171718"/>
<path d="M16.2409 53.625C16.8852 53.625 17.4076 53.1026 17.4076 52.4583C17.4076 51.814 16.8852 51.2916 16.2409 51.2916C15.5966 51.2916 15.0742 51.814 15.0742 52.4583C15.0742 53.1026 15.5966 53.625 16.2409 53.625Z" fill="white"/>
<path d="M17.7409 49.7915C18.3852 49.7915 18.9076 49.2691 18.9076 48.6248C18.9076 47.9805 18.3852 47.4581 17.7409 47.4581C17.0966 47.4581 16.5742 47.9805 16.5742 48.6248C16.5742 49.2691 17.0966 49.7915 17.7409 49.7915Z" fill="white"/>
<path d="M14.2409 58.958C14.8852 58.958 15.4076 58.4356 15.4076 57.7913C15.4076 57.147 14.8852 56.6246 14.2409 56.6246C13.5966 56.6246 13.0742 57.147 13.0742 57.7913C13.0742 58.4356 13.5966 58.958 14.2409 58.958Z" fill="white"/>
<path d="M12.5729 64.125C13.2172 64.125 13.7396 63.6026 13.7396 62.9583C13.7396 62.314 13.2172 61.7916 12.5729 61.7916C11.9286 61.7916 11.4062 62.314 11.4062 62.9583C11.4062 63.6026 11.9286 64.125 12.5729 64.125Z" fill="white"/>
<path d="M10.9089 68.7915C11.5532 68.7915 12.0755 68.2691 12.0755 67.6248C12.0755 66.9805 11.5532 66.4581 10.9089 66.4581C10.2645 66.4581 9.74219 66.9805 9.74219 67.6248C9.74219 68.2691 10.2645 68.7915 10.9089 68.7915Z" fill="white"/>
<path d="M9.24089 72.625C9.88522 72.625 10.4076 72.1026 10.4076 71.4583C10.4076 70.814 9.88522 70.2916 9.24089 70.2916C8.59655 70.2916 8.07422 70.814 8.07422 71.4583C8.07422 72.1026 8.59655 72.625 9.24089 72.625Z" fill="white"/>
<path d="M20.7409 54.7915C21.3852 54.7915 21.9076 54.2691 21.9076 53.6248C21.9076 52.9805 21.3852 52.4581 20.7409 52.4581C20.0966 52.4581 19.5742 52.9805 19.5742 53.6248C19.5742 54.2691 20.0966 54.7915 20.7409 54.7915Z" fill="white"/>
<path d="M22.7409 51.2915C23.3852 51.2915 23.9076 50.7691 23.9076 50.1248C23.9076 49.4805 23.3852 48.9581 22.7409 48.9581C22.0966 48.9581 21.5742 49.4805 21.5742 50.1248C21.5742 50.7691 22.0966 51.2915 22.7409 51.2915Z" fill="white"/>
<path d="M18.9089 59.625C19.5532 59.625 20.0755 59.1026 20.0755 58.4583C20.0755 57.814 19.5532 57.2916 18.9089 57.2916C18.2645 57.2916 17.7422 57.814 17.7422 58.4583C17.7422 59.1026 18.2645 59.625 18.9089 59.625Z" fill="white"/>
<path d="M17.4089 64.458C18.0532 64.458 18.5755 63.9356 18.5755 63.2913C18.5755 62.647 18.0532 62.1246 17.4089 62.1246C16.7645 62.1246 16.2422 62.647 16.2422 63.2913C16.2422 63.9356 16.7645 64.458 17.4089 64.458Z" fill="white"/>
<path d="M15.9089 69.2915C16.5532 69.2915 17.0755 68.7691 17.0755 68.1248C17.0755 67.4805 16.5532 66.9581 15.9089 66.9581C15.2645 66.9581 14.7422 67.4805 14.7422 68.1248C14.7422 68.7691 15.2645 69.2915 15.9089 69.2915Z" fill="white"/>
<path d="M14.2409 73.7915C14.8852 73.7915 15.4076 73.2691 15.4076 72.6248C15.4076 71.9805 14.8852 71.4581 14.2409 71.4581C13.5966 71.4581 13.0742 71.9805 13.0742 72.6248C13.0742 73.2691 13.5966 73.7915 14.2409 73.7915Z" fill="white"/>
<path d="M21.5729 69.958C22.2172 69.958 22.7396 69.4356 22.7396 68.7913C22.7396 68.147 22.2172 67.6246 21.5729 67.6246C20.9286 67.6246 20.4062 68.147 20.4062 68.7913C20.4062 69.4356 20.9286 69.958 21.5729 69.958Z" fill="white"/>
<path d="M31.9089 53.125C32.5532 53.125 33.0755 52.6026 33.0755 51.9583C33.0755 51.314 32.5532 50.7916 31.9089 50.7916C31.2645 50.7916 30.7422 51.314 30.7422 51.9583C30.7422 52.6026 31.2645 53.125 31.9089 53.125Z" fill="white"/>
<path d="M36.2409 53.625C36.8852 53.625 37.4076 53.1026 37.4076 52.4583C37.4076 51.814 36.8852 51.2916 36.2409 51.2916C35.5966 51.2916 35.0742 51.814 35.0742 52.4583C35.0742 53.1026 35.5966 53.625 36.2409 53.625Z" fill="white"/>
<path d="M31.5729 57.458C32.2172 57.458 32.7396 56.9356 32.7396 56.2913C32.7396 55.647 32.2172 55.1246 31.5729 55.1246C30.9286 55.1246 30.4062 55.647 30.4062 56.2913C30.4062 56.9356 30.9286 57.458 31.5729 57.458Z" fill="white"/>
<path d="M35.9089 57.958C36.5532 57.958 37.0755 57.4356 37.0755 56.7913C37.0755 56.147 36.5532 55.6246 35.9089 55.6246C35.2645 55.6246 34.7422 56.147 34.7422 56.7913C34.7422 57.4356 35.2645 57.958 35.9089 57.958Z" fill="white"/>
<path d="M31.0729 62.125C31.7172 62.125 32.2396 61.6026 32.2396 60.9583C32.2396 60.314 31.7172 59.7916 31.0729 59.7916C30.4286 59.7916 29.9062 60.314 29.9062 60.9583C29.9062 61.6026 30.4286 62.125 31.0729 62.125Z" fill="white"/>
<path d="M35.4089 62.625C36.0532 62.625 36.5755 62.1026 36.5755 61.4583C36.5755 60.814 36.0532 60.2916 35.4089 60.2916C34.7645 60.2916 34.2422 60.814 34.2422 61.4583C34.2422 62.1026 34.7645 62.625 35.4089 62.625Z" fill="white"/>
<path d="M30.7409 67.125C31.3852 67.125 31.9076 66.6026 31.9076 65.9583C31.9076 65.314 31.3852 64.7916 30.7409 64.7916C30.0966 64.7916 29.5742 65.314 29.5742 65.9583C29.5742 66.6026 30.0966 67.125 30.7409 67.125Z" fill="white"/>
<path d="M35.0729 67.625C35.7172 67.625 36.2396 67.1026 36.2396 66.4583C36.2396 65.814 35.7172 65.2916 35.0729 65.2916C34.4286 65.2916 33.9062 65.814 33.9062 66.4583C33.9062 67.1026 34.4286 67.625 35.0729 67.625Z" fill="white"/>
<path d="M30.0729 73.125C30.7172 73.125 31.2396 72.6026 31.2396 71.9583C31.2396 71.314 30.7172 70.7916 30.0729 70.7916C29.4286 70.7916 28.9062 71.314 28.9062 71.9583C28.9062 72.6026 29.4286 73.125 30.0729 73.125Z" fill="white"/>
<path d="M34.4089 73.625C35.0532 73.625 35.5755 73.1026 35.5755 72.4583C35.5755 71.814 35.0532 71.2916 34.4089 71.2916C33.7645 71.2916 33.2422 71.814 33.2422 72.4583C33.2422 73.1026 33.7645 73.625 34.4089 73.625Z" fill="white"/>
<path d="M29.7409 78.7915C30.3852 78.7915 30.9076 78.2691 30.9076 77.6248C30.9076 76.9805 30.3852 76.4581 29.7409 76.4581C29.0966 76.4581 28.5742 76.9805 28.5742 77.6248C28.5742 78.2691 29.0966 78.7915 29.7409 78.7915Z" fill="white"/>
<path d="M34.0729 79.2915C34.7172 79.2915 35.2396 78.7691 35.2396 78.1248C35.2396 77.4805 34.7172 76.9581 34.0729 76.9581C33.4286 76.9581 32.9062 77.4805 32.9062 78.1248C32.9062 78.7691 33.4286 79.2915 34.0729 79.2915Z" fill="white"/>
<path d="M28.7409 84.958C29.3852 84.958 29.9076 84.4356 29.9076 83.7913C29.9076 83.147 29.3852 82.6246 28.7409 82.6246C28.0966 82.6246 27.5742 83.147 27.5742 83.7913C27.5742 84.4356 28.0966 84.958 28.7409 84.958Z" fill="white"/>
<path d="M33.0729 85.458C33.7172 85.458 34.2396 84.9356 34.2396 84.2913C34.2396 83.647 33.7172 83.1246 33.0729 83.1246C32.4286 83.1246 31.9062 83.647 31.9062 84.2913C31.9062 84.9356 32.4286 85.458 33.0729 85.458Z" fill="white"/>
<path d="M19.9089 74.458C20.5532 74.458 21.0755 73.9356 21.0755 73.2913C21.0755 72.647 20.5532 72.1246 19.9089 72.1246C19.2645 72.1246 18.7422 72.647 18.7422 73.2913C18.7422 73.9356 19.2645 74.458 19.9089 74.458Z" fill="white"/>
<path d="M27.2409 70.458C27.8852 70.458 28.4076 69.9356 28.4076 69.2913C28.4076 68.647 27.8852 68.1246 27.2409 68.1246C26.5966 68.1246 26.0742 68.647 26.0742 69.2913C26.0742 69.9356 26.5966 70.458 27.2409 70.458Z" fill="white"/>
<path d="M25.5729 74.958C26.2172 74.958 26.7396 74.4356 26.7396 73.7913C26.7396 73.147 26.2172 72.6246 25.5729 72.6246C24.9286 72.6246 24.4062 73.147 24.4062 73.7913C24.4062 74.4356 24.9286 74.958 25.5729 74.958Z" fill="white"/>
<path d="M19.1991 42.6828L17.668 48.8282L19.4469 49.2715L20.978 43.126L19.1991 42.6828Z" fill="#E0F2FE"/>
<path d="M33.867 44.1837L32.3359 50.3292L34.1149 50.7724L35.646 44.627L33.867 44.1837Z" fill="#E0F2FE"/>
<path d="M109.322 42.6771L107.496 42.8464L108.081 49.1527L109.907 48.9833L109.322 42.6771Z" fill="#171718"/>
<path d="M94.6536 44.1771L92.8281 44.3464L93.4131 50.6527L95.2386 50.4833L94.6536 44.1771Z" fill="#171718"/>
<path d="M116.704 81.9067L116.537 79.6L116.462 78.6L116.072 73.405L115.999 72.405L115.699 68.415L115.624 67.415L115.314 63.2784L115.239 62.2784L114.971 58.7L114.896 57.7L114.609 53.88L114.534 52.88L114.476 52.095C114.434 51.471 114.356 50.85 114.242 50.235C114.126 49.7399 113.917 49.2712 113.627 48.8534C113.302 48.3567 112.791 48.0178 112.096 47.8367C111.4 47.6556 110.489 47.6067 109.362 47.69C108.44 47.736 107.529 47.9041 106.651 48.19C105.97 48.44 105.505 48.8256 105.256 49.3467C105.034 49.7762 104.895 50.2439 104.847 50.725C104.827 51.3367 104.846 51.949 104.902 52.5584L104.966 53.3917L105.041 54.3917L105.329 58.2384L105.404 59.2384L105.691 63.0467L105.766 64.0467L106.001 67.1867L97.2641 67.8417L97.8591 64.3767L98.0257 63.3634L98.7091 59.3917L98.8757 58.38L99.5424 54.5184C99.5454 54.4606 99.5595 54.404 99.5841 54.3517C99.5941 54.3 99.6041 54.2484 99.6124 54.1967C99.6791 53.83 99.728 53.4928 99.7591 53.185C99.8023 52.8161 99.8129 52.4441 99.7907 52.0734C99.6685 50.4645 98.3318 49.415 95.7807 48.925C94.9599 48.7482 94.1189 48.6837 93.2807 48.7334C92.6202 48.7609 91.9898 49.0172 91.4974 49.4584C91.0965 49.8086 90.7957 50.2589 90.6257 50.7634C90.498 51.2078 90.3568 51.8472 90.2024 52.6817L90.0357 53.7167L89.8691 54.7284L89.1641 58.88L88.9974 59.8917L88.3307 63.8717L88.1641 64.8834L87.3541 69.6617L87.1874 70.6784L87.1374 70.9717C87.0636 71.6887 87.0636 72.4114 87.1374 73.1284C87.1734 73.68 87.2537 74.2279 87.3774 74.7667C87.4298 74.986 87.4972 75.2015 87.5791 75.4117C87.6267 75.5266 87.6824 75.638 87.7457 75.745C88.4124 76.8328 89.8896 77.2911 92.1774 77.12L106.702 76.0317L106.966 79.555L107.041 80.555L107.192 82.5717C107.286 83.8228 107.463 84.7439 107.724 85.335C107.87 85.7478 108.142 86.1045 108.501 86.355C108.945 86.6205 109.433 86.8029 109.942 86.8934C110.562 87.0267 111.391 87.0545 112.427 86.9767C113.307 86.9311 114.175 86.757 115.004 86.46C115.333 86.3358 115.632 86.1445 115.882 85.8983C116.133 85.6521 116.329 85.3564 116.459 85.03C116.727 84.3411 116.809 83.3 116.704 81.9067Z" fill="#E0F2FE"/>
<path d="M111.326 87.5167C110.815 87.524 110.305 87.4776 109.803 87.3784C109.232 87.2765 108.685 87.0697 108.19 86.7684C107.748 86.4634 107.412 86.0282 107.228 85.5234C106.943 84.87 106.756 83.915 106.66 82.605L106.206 76.5667L92.1798 77.625C89.7064 77.8117 88.0581 77.27 87.2864 76.0134C87.2098 75.8882 87.1418 75.7579 87.0831 75.6234V75.6067C86.9924 75.3755 86.9177 75.1382 86.8598 74.8967C86.5818 73.5866 86.4981 72.2428 86.6114 70.9084L89.7081 52.6017C89.8648 51.75 90.0114 51.0884 90.1448 50.6267C90.3397 50.037 90.6876 49.5096 91.1531 49.0984C91.7331 48.5715 92.4802 48.2659 93.2631 48.235C94.1448 48.1827 95.0295 48.25 95.8931 48.435C98.6781 48.9717 100.163 50.1834 100.303 52.035C100.328 52.4358 100.317 52.838 100.27 53.2367C100.236 53.57 100.186 53.915 100.118 54.2867C100.118 54.3334 100.1 54.39 100.09 54.4534L100.08 54.5L100.063 54.5434V54.5534L97.8698 67.2917L105.468 66.7217L104.408 52.5917C104.349 51.9608 104.331 51.3267 104.353 50.6934C104.402 50.146 104.556 49.6133 104.808 49.125C105.113 48.485 105.676 48.01 106.483 47.7134C107.404 47.4121 108.361 47.2345 109.328 47.185C110.523 47.0967 111.47 47.15 112.226 47.3517C113.043 47.565 113.656 47.9767 114.05 48.5784C114.376 49.0485 114.609 49.577 114.736 50.135C114.852 50.7737 114.929 51.4188 114.966 52.0667L117.201 81.8667C117.313 83.3534 117.201 84.45 116.885 85.22C116.729 85.6078 116.495 85.9591 116.197 86.2517C115.899 86.5443 115.544 86.7719 115.153 86.92C114.277 87.2348 113.361 87.4201 112.431 87.47C112.031 87.5017 111.665 87.5167 111.326 87.5167ZM107.13 75.4934L107.656 82.5317C107.745 83.7167 107.91 84.59 108.156 85.13V85.15C108.264 85.4671 108.47 85.7419 108.743 85.935C109.135 86.1647 109.565 86.3227 110.013 86.4017C110.58 86.5234 111.368 86.5484 112.356 86.475C113.186 86.4318 114.005 86.269 114.788 85.9917C115.055 85.8906 115.298 85.7344 115.5 85.5334C115.703 85.3325 115.861 85.0911 115.965 84.825C116.221 84.215 116.298 83.2434 116.205 81.9384L113.97 52.1417C113.934 51.5358 113.862 50.9326 113.756 50.335C113.651 49.9022 113.467 49.4925 113.213 49.1267C112.956 48.735 112.546 48.4717 111.973 48.32C111.335 48.1534 110.473 48.11 109.403 48.1884C108.527 48.2319 107.661 48.3905 106.826 48.66C106.268 48.865 105.903 49.16 105.711 49.5617C105.518 49.9335 105.395 50.3382 105.35 50.755C105.332 51.3428 105.35 51.9312 105.405 52.5167L106.541 67.6467L96.6664 68.3867L99.0581 54.4667C99.0648 54.3805 99.0839 54.2958 99.1148 54.215C99.1148 54.1817 99.1281 54.15 99.1331 54.1167C99.1981 53.7617 99.2448 53.4334 99.2764 53.1334C99.3167 52.7938 99.3267 52.4514 99.3064 52.11C99.2031 50.745 98.0231 49.8634 95.6998 49.4167C94.9245 49.2486 94.1301 49.1864 93.3381 49.2317C92.7837 49.2457 92.2521 49.456 91.8381 49.825C91.5028 50.1152 91.2494 50.4881 91.1031 50.9067C90.9781 51.335 90.8398 51.9634 90.6914 52.775L87.5914 71.0584C87.4977 72.2611 87.5758 73.471 87.8231 74.6517C87.8701 74.8459 87.9297 75.0369 88.0014 75.2234C88.0404 75.3125 88.0855 75.3988 88.1364 75.4817C88.6964 76.3917 90.0314 76.7767 92.1048 76.62L107.13 75.4934Z" fill="#171718"/>
<path d="M114.6 53.8882L105.044 54.3916L104.969 53.3916L114.525 52.8899L114.6 53.8882Z" fill="white"/>
<path d="M114.962 58.7066L105.407 59.2383L105.332 58.2383L114.887 57.7083L114.962 58.7066Z" fill="white"/>
<path d="M116.528 79.5999L107.005 80.5515L106.93 79.5532L116.453 78.5999L116.528 79.5999Z" fill="white"/>
<path d="M115.307 63.2816L105.77 64.0449L105.695 63.0466L115.232 62.2849L115.307 63.2816Z" fill="white"/>
<path d="M98.0378 63.3616L97.8645 64.3749L88.1328 64.8866L88.3045 63.8749L98.0378 63.3616Z" fill="white"/>
<path d="M98.8916 58.3782L98.7182 59.3898L88.9766 59.8948L89.1482 58.8832L98.8916 58.3782Z" fill="white"/>
<path d="M99.7738 53.1848C99.7416 53.4926 99.6927 53.8298 99.6271 54.1965L89.8555 54.7315L90.0221 53.7198L99.7738 53.1848Z" fill="white"/>
<path d="M115.69 68.4165L87.1484 70.6815L87.3201 69.6649L115.615 67.4182L115.69 68.4165Z" fill="white"/>
<path d="M116.065 73.4048L87.7121 75.7382C87.6488 75.6311 87.5931 75.5197 87.5454 75.4048C87.4635 75.1947 87.3962 74.9792 87.3438 74.7598L115.992 72.4065L116.065 73.4048Z" fill="white"/>
<path d="M109.58 42.5091L107.801 42.9523L109.332 49.0977L111.111 48.6545L109.58 42.5091Z" fill="white"/>
<path d="M94.9118 44.0102L93.1328 44.4534L94.6639 50.5988L96.4429 50.1556L94.9118 44.0102Z" fill="white"/>
<path d="M74.7419 100.708C74.3663 100.708 74.0062 100.558 73.7406 100.293C73.475 100.027 73.3256 99.667 73.3252 99.2914V90.5781C73.3263 89.4936 73.079 88.4232 72.6023 87.449C72.1256 86.4749 71.4322 85.6228 70.5752 84.9581C70.3319 84.7731 70.1735 84.6764 70.1719 84.6748L71.6352 82.2481C71.8655 82.3894 72.088 82.543 72.3019 82.7081C73.5043 83.6385 74.4777 84.8321 75.1471 86.1972C75.8165 87.5623 76.1642 89.0627 76.1635 90.5831V99.2914C76.1633 99.4778 76.1264 99.6624 76.0548 99.8345C75.9832 100.007 75.8784 100.163 75.7463 100.294C75.6143 100.426 75.4576 100.53 75.2853 100.601C75.1129 100.672 74.9283 100.709 74.7419 100.708Z" fill="white"/>
<path d="M74.7422 101.208C74.234 101.208 73.7467 101.006 73.3874 100.646C73.028 100.287 72.826 99.7996 72.8255 99.2914V90.5781C72.8278 89.5699 72.599 88.5745 72.1566 87.6685C71.7143 86.7624 71.0702 85.9698 70.2739 85.3514C70.1579 85.2601 70.0372 85.175 69.9122 85.0964L69.4922 84.8364L71.4672 81.5581L71.8938 81.8148C72.138 81.9654 72.3739 82.129 72.6005 82.3048C73.864 83.2822 74.8867 84.5361 75.5902 85.9703C76.2937 87.4044 76.6593 88.9807 76.6589 90.5781V99.2914C76.6584 99.7996 76.4563 100.287 76.097 100.646C75.7376 101.006 75.2504 101.208 74.7422 101.208ZM70.8439 84.5281L70.8805 84.5564C71.7989 85.2684 72.5419 86.1813 73.0524 87.2252C73.563 88.2691 73.8274 89.4161 73.8255 90.5781V99.2914C73.8255 99.5346 73.9221 99.7677 74.094 99.9396C74.2659 100.112 74.4991 100.208 74.7422 100.208C74.9853 100.208 75.2185 100.112 75.3904 99.9396C75.5623 99.7677 75.6589 99.5346 75.6589 99.2914V90.5781C75.6594 89.1343 75.3293 87.7096 74.6937 86.4133C74.0581 85.117 73.1339 83.9834 71.9922 83.0998L71.7939 82.9514L70.8439 84.5281Z" fill="#171718"/>
<path d="M54.4922 86.7081V95.9581C54.4922 96.6433 54.7644 97.3004 55.2488 97.7848C55.7333 98.2693 56.3904 98.5415 57.0755 98.5415C57.7607 98.5415 58.4177 98.2693 58.9022 97.7848C59.3867 97.3004 59.6589 96.6433 59.6589 95.9581V86.7081H54.4922Z" fill="white"/>
<path d="M57.0755 99.0415C56.258 99.0406 55.4743 98.7154 54.8963 98.1374C54.3182 97.5594 53.9931 96.7756 53.9922 95.9581V86.2081H60.1589V95.9581C60.158 96.7756 59.8328 97.5594 59.2548 98.1374C58.6767 98.7154 57.893 99.0406 57.0755 99.0415ZM54.9922 87.2081V95.9581C54.9922 96.5107 55.2117 97.0406 55.6024 97.4313C55.9931 97.822 56.523 98.0415 57.0755 98.0415C57.6281 98.0415 58.158 97.822 58.5487 97.4313C58.9394 97.0406 59.1589 96.5107 59.1589 95.9581V87.2081H54.9922Z" fill="#171718"/>
<path d="M56.3268 94.2081H55.6602V98.3031H56.3268V94.2081Z" fill="#171718"/>
<path d="M57.8268 94.5416H57.1602V98.5416H57.8268V94.5416Z" fill="#171718"/>
<path d="M70.8268 86.7081V95.9581C70.8268 96.6433 70.5546 97.3004 70.0702 97.7848C69.5857 98.2693 68.9286 98.5415 68.2435 98.5415C67.5583 98.5415 66.9013 98.2693 66.4168 97.7848C65.9323 97.3004 65.6602 96.6433 65.6602 95.9581V86.7081H70.8268Z" fill="white"/>
<path d="M68.2435 99.0415C67.426 99.0406 66.6423 98.7154 66.0642 98.1374C65.4862 97.5594 65.161 96.7756 65.1602 95.9581V86.2081H71.3268V95.9581C71.3259 96.7756 71.0008 97.5594 70.4228 98.1374C69.8447 98.7154 69.061 99.0406 68.2435 99.0415ZM66.1602 87.2081V95.9581C66.1602 96.5107 66.3797 97.0406 66.7704 97.4313C67.1611 97.822 67.691 98.0415 68.2435 98.0415C68.796 98.0415 69.3259 97.822 69.7166 97.4313C70.1073 97.0406 70.3268 96.5107 70.3268 95.9581V87.2081H66.1602Z" fill="#171718"/>
<path d="M69.6589 94.2081H68.9922V98.3031H69.6589V94.2081Z" fill="#171718"/>
<path d="M68.1589 94.5414H67.4922V98.5414H68.1589V94.5414Z" fill="#171718"/>
<path d="M54.741 48.7915C54.741 48.7915 57.9077 50.9581 58.741 52.9581C58.741 52.9581 62.8244 51.8748 66.491 52.8748C66.491 52.8748 68.491 49.5415 70.3244 48.7081C70.3244 48.7081 73.491 60.3748 73.991 77.7081C73.991 77.7081 75.0744 91.2915 62.6577 90.8748C62.6577 90.8748 50.5744 91.6248 51.491 76.2081C51.491 76.2081 51.991 54.8748 54.741 48.7915Z" fill="white"/>
<path d="M63.2105 91.385C63.0289 91.385 62.8472 91.385 62.6622 91.375C62.2472 91.3967 57.8289 91.5417 54.4955 88.2084C51.8505 85.5717 50.6622 81.525 50.9855 76.18C51.0089 75.18 51.5289 54.6634 54.2805 48.5767L54.5255 48.0334L55.0255 48.3667C55.1522 48.4534 57.9505 50.3834 59.0255 52.3667C60.1239 52.1267 63.2589 51.5734 66.2689 52.2867C66.8339 51.4067 68.5022 48.9784 70.1255 48.24L70.6605 47.9967L70.8155 48.5634C70.8472 48.6817 74.0005 60.4817 74.4989 77.6684C74.5305 78.0884 74.9339 84.3834 71.1655 88.3267C69.2289 90.3617 66.5572 91.385 63.2105 91.385ZM62.6505 90.375H62.6739C65.9889 90.4884 68.5989 89.5717 70.4322 87.6534C73.9322 83.9867 73.4972 77.81 73.4922 77.7484V77.7234C73.0655 62.89 70.6589 52.13 70.0039 49.4734C68.4822 50.5517 66.9389 53.1034 66.9205 53.1317L66.7255 53.465L66.3605 53.365C62.8605 52.4117 58.9105 53.44 58.8705 53.45L58.4489 53.5617L58.2822 53.1584C57.7072 51.7784 55.8639 50.2617 54.9639 49.58C52.4905 56.175 51.9989 76.0217 51.9939 76.2284V76.2467C51.6939 81.2967 52.7772 85.09 55.2105 87.5184C58.3155 90.6134 62.5889 90.3867 62.6305 90.385L62.6505 90.375Z" fill="#171718"/>
<path d="M57.4795 58.2498C57.019 58.2541 56.5619 58.1704 56.1328 58.0032L56.5145 57.0798C56.5828 57.1065 58.2162 57.7465 59.4528 56.3732L60.1961 57.0398C59.8566 57.4246 59.4383 57.7318 58.9695 57.9406C58.5008 58.1494 57.9926 58.2548 57.4795 58.2498Z" fill="#171718"/>
<path d="M58.0742 60.3746C58.4884 60.3746 58.8242 60.0388 58.8242 59.6246C58.8242 59.2104 58.4884 58.8746 58.0742 58.8746C57.66 58.8746 57.3242 59.2104 57.3242 59.6246C57.3242 60.0388 57.66 60.3746 58.0742 60.3746Z" fill="#171718"/>
<path d="M67.8378 58.2499C67.3249 58.2553 66.8169 58.1504 66.3481 57.9422C65.8794 57.734 65.4609 57.4274 65.1211 57.0433L65.8644 56.3766C67.1128 57.7649 68.7844 57.0899 68.8011 57.0833L69.1844 58.0066C68.7551 58.1727 68.298 58.2553 67.8378 58.2499Z" fill="#171718"/>
<path d="M67.2422 60.3748C67.6564 60.3748 67.9922 60.039 67.9922 59.6248C67.9922 59.2105 67.6564 58.8748 67.2422 58.8748C66.828 58.8748 66.4922 59.2105 66.4922 59.6248C66.4922 60.039 66.828 60.3748 67.2422 60.3748Z" fill="#171718"/>
<path d="M62.5768 63.2081C63.3592 63.2081 63.9935 62.7604 63.9935 62.2081C63.9935 61.6558 63.3592 61.2081 62.5768 61.2081C61.7944 61.2081 61.1602 61.6558 61.1602 62.2081C61.1602 62.7604 61.7944 63.2081 62.5768 63.2081Z" fill="#171718"/>
<path d="M59.0307 66.7147C58.884 66.7147 58.7923 66.7147 58.7773 66.7147L58.869 65.7147C58.8824 65.7147 60.149 65.8181 61.0474 65.0297C61.6274 64.5197 61.9457 63.7331 61.9907 62.6964L62.9907 62.7397C62.9323 64.0731 62.4907 65.0981 61.6973 65.7947C60.7407 66.6247 59.5473 66.7147 59.0307 66.7147Z" fill="#171718"/>
<path d="M66.1202 66.715C65.6035 66.715 64.4085 66.6166 63.4535 65.785C62.6535 65.0883 62.2185 64.06 62.1602 62.73L63.1602 62.6866C63.2052 63.7333 63.5252 64.52 64.1102 65.0316C65.0185 65.82 66.2668 65.7116 66.2768 65.71L66.3702 66.71C66.3585 66.7083 66.2668 66.715 66.1202 66.715Z" fill="#171718"/>
<path d="M47.0386 65.5265L46.4453 64.7232C50.3803 61.8148 55.5553 62.1115 55.7786 62.1265L55.7153 63.1265C55.6603 63.1248 50.6736 62.8398 47.0386 65.5265Z" fill="#171718"/>
<path d="M49.487 67.2516L48.8203 66.4983C51.597 64.07 55.167 64.0416 55.3203 64.0416V65.0416C55.2903 65.0416 51.972 65.075 49.487 67.2516Z" fill="#171718"/>
<path d="M78.2769 65.5265C74.6319 62.8332 69.6552 63.1199 69.6102 63.1232L69.5469 62.1232C69.7652 62.1082 74.9402 61.8115 78.8802 64.7199L78.2769 65.5265Z" fill="#171718"/>
<path d="M75.8294 67.2516C73.3294 65.0666 70.0261 65.0416 69.9961 65.0416V64.0416C70.1461 64.0416 73.7161 64.07 76.4961 66.4983L75.8294 67.2516Z" fill="#171718"/>
<path d="M57.3268 86.4583C56.686 86.4579 56.0716 86.2031 55.6185 85.75C55.1654 85.2969 54.9106 84.6824 54.9102 84.0416V73.7916H55.9102V84.0416C55.9102 84.4173 56.0594 84.7777 56.3251 85.0434C56.5908 85.309 56.9511 85.4583 57.3268 85.4583C57.7025 85.4583 58.0629 85.309 58.3286 85.0434C58.5942 84.7777 58.7435 84.4173 58.7435 84.0416V75.125H59.7435V84.0416C59.743 84.6824 59.4883 85.2969 59.0352 85.75C58.5821 86.2031 57.9676 86.4579 57.3268 86.4583Z" fill="#171718"/>
<path d="M56.9909 82.5416H56.3242V85.8366H56.9909V82.5416Z" fill="#171718"/>
<path d="M58.1589 82.7081H57.4922V85.8898H58.1589V82.7081Z" fill="#171718"/>
<path d="M67.6589 86.4582C67.018 86.4577 66.4036 86.203 65.9505 85.7499C65.4974 85.2967 65.2426 84.6823 65.2422 84.0415V75.1248H66.2422V84.0415C66.2422 84.4172 66.3914 84.7776 66.6571 85.0432C66.9228 85.3089 67.2831 85.4582 67.6589 85.4582C68.0346 85.4582 68.3949 85.3089 68.6606 85.0432C68.9263 84.7776 69.0755 84.4172 69.0755 84.0415V73.7915H70.0755V84.0415C70.0751 84.6823 69.8203 85.2967 69.3672 85.7499C68.9141 86.203 68.2997 86.4577 67.6589 86.4582Z" fill="#171718"/>
<path d="M68.6589 82.5414H67.9922V85.8364H68.6589V82.5414Z" fill="#171718"/>
<path d="M67.4909 82.7081H66.8242V85.8898H67.4909V82.7081Z" fill="#171718"/>
<path d="M55.8435 43.7646L54.0312 44.0416L54.9881 50.3023L56.8004 50.0253L55.8435 43.7646Z" fill="#171718"/>
<path d="M71.3255 44.0415H69.4922V50.3748H71.3255V44.0415Z" fill="#171718"/>
<path d="M69.2342 43.864L68.2773 50.1246L70.0896 50.4016L71.0465 44.141L69.2342 43.864Z" fill="#E0F2FE"/>
<path d="M55.5755 43.9581H53.7422V50.2915H55.5755V43.9581Z" fill="#E0F2FE"/>
<path d="M63.0896 71.2684C61.573 71.2676 60.0584 71.1562 58.558 70.935C54.433 70.3284 51.6596 69.1367 51.543 69.0867L51.9413 68.17C52.0513 68.2167 62.993 72.855 73.2646 68.17L73.678 69.08C70.013 70.75 66.293 71.2684 63.0896 71.2684Z" fill="#171718"/>
<path d="M62.6602 73.7081C63.4886 73.7081 64.1602 73.0366 64.1602 72.2081C64.1602 71.3797 63.4886 70.7081 62.6602 70.7081C61.8317 70.7081 61.1602 71.3797 61.1602 72.2081C61.1602 73.0366 61.8317 73.7081 62.6602 73.7081Z" fill="#E0F2FE"/>
<path d="M62.6602 74.2081C62.2646 74.2081 61.8779 74.0908 61.549 73.8711C61.2201 73.6513 60.9638 73.339 60.8124 72.9735C60.661 72.608 60.6214 72.2059 60.6986 71.818C60.7758 71.43 60.9662 71.0736 61.2459 70.7939C61.5256 70.5142 61.882 70.3237 62.27 70.2466C62.6579 70.1694 63.0601 70.209 63.4255 70.3604C63.791 70.5117 64.1033 70.7681 64.3231 71.097C64.5429 71.4259 64.6602 71.8126 64.6602 72.2081C64.6602 72.7386 64.4494 73.2473 64.0744 73.6223C63.6993 73.9974 63.1906 74.2081 62.6602 74.2081ZM62.6602 71.2081C62.4624 71.2081 62.269 71.2668 62.1046 71.3767C61.9401 71.4865 61.812 71.6427 61.7363 71.8254C61.6606 72.0082 61.6408 72.2092 61.6794 72.4032C61.718 72.5972 61.8132 72.7754 61.9531 72.9152C62.0929 73.0551 62.2711 73.1503 62.4651 73.1889C62.659 73.2275 62.8601 73.2077 63.0428 73.132C63.2256 73.0563 63.3817 72.9282 63.4916 72.7637C63.6015 72.5993 63.6602 72.4059 63.6602 72.2081C63.6602 71.9429 63.5548 71.6886 63.3673 71.501C63.1797 71.3135 62.9254 71.2081 62.6602 71.2081Z" fill="#171718"/>
</svg>
