<svg width="146" height="102" viewBox="0 0 146 102" fill="none" xmlns="http://www.w3.org/2000/svg">
<path d="M132.803 96.2627C131.156 95.2178 129.589 94.053 128.114 92.7777C125.631 90.6244 125.366 88.6344 125.581 87.3444C125.708 86.6114 126.017 85.922 126.48 85.3396C126.942 84.7572 127.544 84.3003 128.229 84.011C130.023 83.2844 131.166 82.616 131.624 82.0227C131.869 81.706 131.903 81.4344 131.896 80.6677C131.884 79.5194 129.928 77.6677 124.471 75.9044C121.737 75.0468 118.947 74.3785 116.121 73.9044L116.633 70.6094C119.623 71.1036 122.574 71.807 125.466 72.7144C132.008 74.8194 135.203 77.4077 135.236 80.6277C135.263 83.3627 134.381 85.1127 129.486 87.0944C129.33 87.1683 129.193 87.2778 129.088 87.4142C128.982 87.5505 128.909 87.7099 128.876 87.8794C128.771 88.506 129.293 89.3694 130.306 90.2477C134.181 93.611 139.191 96.3694 144.411 98.0144L143.411 101.194C139.676 100.017 136.11 98.3591 132.803 96.2627Z" fill="white"/>
<path d="M143.73 101.834L143.255 101.692C139.482 100.495 135.88 98.8144 132.539 96.6924C130.872 95.6338 129.285 94.4546 127.79 93.1641C125.134 90.8574 124.857 88.6857 125.092 87.2707C125.234 86.4548 125.579 85.6877 126.095 85.0397C126.611 84.3918 127.282 83.8838 128.045 83.5624C130.177 82.6991 130.955 82.0907 131.232 81.7291C131.365 81.5624 131.399 81.4391 131.399 80.6858C131.399 79.9324 129.899 78.1857 124.319 76.3924C121.61 75.5441 118.846 74.8842 116.047 74.4174L115.547 74.3391L116.214 70.0591L116.714 70.1357C119.727 70.6331 122.703 71.3421 125.617 72.2574C132.39 74.4374 135.7 77.1791 135.735 80.6424C135.764 83.5374 134.805 85.4991 129.672 87.5774C129.596 87.6195 129.529 87.6772 129.477 87.7467C129.425 87.8162 129.388 87.896 129.369 87.9807C129.314 88.3141 129.612 89.0041 130.632 89.8891C134.465 93.2091 139.404 95.9324 144.56 97.5557L145.037 97.7074L143.73 101.834ZM133.075 95.8341C136.2 97.8193 139.559 99.4103 143.075 100.571L143.777 98.3457C138.665 96.6641 133.777 93.9357 129.97 90.6324C128.804 89.6208 128.24 88.6174 128.375 87.7991C128.422 87.545 128.529 87.3061 128.689 87.1028C128.848 86.8996 129.055 86.7382 129.29 86.6324C133.947 84.7474 134.754 83.1974 134.729 80.6324C134.699 77.6557 131.615 75.2207 125.305 73.1891C122.6 72.3408 119.842 71.6727 117.049 71.1891L116.69 73.4957C119.374 73.9662 122.024 74.6103 124.624 75.4241C129.545 77.0124 132.377 78.9241 132.395 80.6591C132.395 81.4691 132.37 81.8707 132.019 82.3257C131.499 82.9924 130.32 83.7024 128.415 84.4724C127.81 84.7285 127.278 85.1324 126.869 85.6472C126.46 86.162 126.186 86.7712 126.074 87.4191C125.88 88.5857 126.134 90.3891 128.44 92.3924C129.899 93.6535 131.448 94.8061 133.075 95.8407V95.8341Z" fill="#171718"/>
<path d="M109.57 53.8059L101.218 50.9292L91.3398 79.6092L99.6915 82.4859C103.494 83.7957 107.662 83.5411 111.277 81.7783C114.893 80.0155 117.66 76.8888 118.97 73.0859C119.619 71.2027 119.89 69.2102 119.769 67.2222C119.648 65.2341 119.136 63.2893 118.263 61.499C117.39 59.7087 116.173 58.1078 114.682 56.7878C113.19 55.4678 111.453 54.4546 109.57 53.8059Z" fill="white"/>
<path d="M104.616 83.8142C102.885 83.8137 101.165 83.5247 99.5281 82.9592L90.7031 79.9192L100.908 50.2942L109.741 53.3326C113.249 54.5388 116.215 56.9504 118.111 60.1382C120.007 63.326 120.711 67.0831 120.097 70.7411C119.483 74.3991 117.591 77.7205 114.758 80.1144C111.925 82.5083 108.334 83.8193 104.625 83.8142H104.616ZM91.9748 79.2992L99.8531 82.0126C103.523 83.2486 107.533 82.9832 111.008 81.2741C114.482 79.5651 117.14 76.5512 118.402 72.8899C119.663 69.2286 119.425 65.2171 117.74 61.7306C116.055 58.2441 113.059 55.5655 109.406 54.2792L101.528 51.5642L91.9748 79.2992Z" fill="#171718"/>
<path d="M101.138 66.7742C98.066 75.6926 91.7577 81.6076 87.046 79.9826C85.451 79.4326 81.4177 78.3459 80.6377 76.4643C79.1144 72.7876 82.0444 66.7976 84.076 60.8992C85.996 55.3259 86.7094 48.8176 89.9777 46.6976C91.9394 45.4243 96.401 47.0826 98.1677 47.6976C102.879 49.3143 104.209 57.8592 101.138 66.7742Z" fill="#E0F2FE"/>
<path d="M88.6822 80.7525C88.0697 80.7545 87.4613 80.6536 86.8822 80.4542C86.6922 80.3892 86.4655 80.3159 86.2155 80.2342C84.2538 79.5942 80.9488 78.5259 80.1755 76.6559C78.8722 73.5109 80.5672 68.9642 82.3622 64.1559C82.7805 63.0359 83.2105 61.8792 83.6038 60.7409C84.1355 59.1942 84.5788 57.5592 85.0072 55.9792C86.1322 51.8309 87.1938 47.9125 89.7055 46.2825C91.7705 44.9492 96.0038 46.4142 98.0388 47.1159L98.3305 47.2175C100.792 48.0642 102.474 50.6225 103.066 54.4192C103.637 58.1025 103.121 62.5475 101.609 66.9359C100.099 71.3242 97.7755 75.1459 95.0472 77.6942C92.9022 79.7059 90.7005 80.7525 88.6822 80.7525ZM91.9522 46.7259C91.2772 46.7259 90.6822 46.8359 90.2505 47.1159C88.0588 48.5375 87.0455 52.2825 85.9722 56.2359C85.5405 57.8325 85.0922 59.4825 84.5488 61.0692C84.1522 62.2209 83.7155 63.3825 83.2988 64.5075C81.5755 69.1325 79.9455 73.4992 81.0988 76.2809C81.6972 77.7225 84.8355 78.7425 86.5222 79.2909C86.7805 79.3759 87.0122 79.4575 87.2072 79.5175C89.3022 80.2392 91.8438 79.3359 94.3638 76.9742C96.9672 74.5342 99.2055 70.8575 100.664 66.6209C102.122 62.3842 102.626 58.1092 102.077 54.5825C101.546 51.1709 100.099 48.8942 98.0055 48.1725L97.7088 48.0692C96.4205 47.6159 93.8672 46.7259 91.9522 46.7259Z" fill="#171718"/>
<path d="M96.692 65.2527C99.7641 56.3359 98.4356 47.7917 93.7248 46.1687C89.014 44.5457 82.7048 50.4585 79.6327 59.3754C76.5607 68.2922 77.8892 76.8364 82.6 78.4593C87.3107 80.0823 93.62 74.1695 96.692 65.2527Z" fill="white"/>
<path d="M84.2339 79.2207C83.6221 79.2218 83.0143 79.121 82.4356 78.9224C79.9723 78.074 78.2923 75.5157 77.7006 71.7207C77.1273 68.0357 77.6439 63.5907 79.1556 59.2023C80.6673 54.814 82.9973 50.994 85.7173 48.4457C88.5206 45.8174 91.4206 44.8374 93.8839 45.6857C96.3473 46.534 98.0273 49.0923 98.6173 52.889C99.1906 56.5723 98.6739 61.0174 97.1623 65.4057C95.6506 69.794 93.3206 73.614 90.6006 76.164C88.4556 78.174 86.2556 79.2207 84.2339 79.2207ZM92.0839 46.3873C90.3223 46.3873 88.3556 47.3424 86.4023 49.1723C83.7989 51.6123 81.5689 55.2907 80.1023 59.5274C78.6356 63.764 78.1406 68.039 78.6889 71.564C79.2206 74.9773 80.6656 77.254 82.7606 77.9757C84.8556 78.6974 87.3973 77.794 89.9173 75.4324C92.5206 72.9924 94.7506 69.3157 96.2173 65.0773C97.6756 60.8407 98.1773 56.5657 97.6289 53.0407C97.0989 49.6274 95.6523 47.3507 93.5573 46.629C93.0845 46.4681 92.5883 46.387 92.0889 46.389L92.0839 46.3873Z" fill="#171718"/>
<path d="M91.9871 54.9851C92.5118 53.4621 92.1611 51.9601 91.2038 51.6303C90.2465 51.3005 89.0451 52.2678 88.5204 53.7907C87.9957 55.3137 88.3464 56.8157 89.3037 57.1455C90.261 57.4753 91.4624 56.5081 91.9871 54.9851Z" fill="#171718"/>
<path d="M86.6667 70.427C87.1914 68.904 86.8408 67.402 85.8835 67.0722C84.9262 66.7424 83.7248 67.7097 83.2001 69.2326C82.6754 70.7556 83.026 72.2576 83.9833 72.5874C84.9406 72.9172 86.142 71.95 86.6667 70.427Z" fill="#171718"/>
<path d="M52.0129 50.5562L67.4762 55.9462C68.0918 56.1612 68.5968 56.6119 68.8802 57.1991C69.1637 57.7863 69.2024 58.4621 68.9879 59.0778C68.7728 59.6934 68.3221 60.1984 67.7349 60.4818C67.1477 60.7653 66.472 60.804 65.8562 60.5895L50.3945 55.1928L52.0129 50.5562Z" fill="white"/>
<path d="M66.6639 61.2261C66.3335 61.2254 66.0056 61.169 65.6939 61.0594L49.7539 55.5061L51.7022 49.9194L67.6356 55.4744C68.2957 55.7047 68.853 56.1613 69.2086 56.7633C69.5642 57.3653 69.695 58.0737 69.578 58.763C69.4609 59.4523 69.1035 60.0779 68.5692 60.5288C68.0348 60.9796 67.3581 61.2267 66.6589 61.2261H66.6639ZM51.0322 54.8928L66.0222 60.1194C66.5127 60.2905 67.051 60.2597 67.5187 60.0339C67.9865 59.8081 68.3453 59.4057 68.5164 58.9153C68.6875 58.4248 68.6567 57.8865 68.4309 57.4188C68.2051 56.951 67.8027 56.5922 67.3122 56.4211L52.3222 51.1928L51.0322 54.8928Z" fill="#171718"/>
<path d="M57.3895 35.1328L72.8512 40.5261C73.4666 40.7409 73.9716 41.1912 74.2551 41.7782C74.5386 42.3651 74.5773 43.0406 74.3629 43.6561C74.1482 44.2716 73.6978 44.7766 73.1109 45.06C72.5239 45.3435 71.8484 45.3823 71.2329 45.1678L55.7695 39.7761L57.3895 35.1328Z" fill="white"/>
<path d="M72.0434 45.8044C71.7124 45.8037 71.384 45.7474 71.0717 45.6378L55.1367 40.0811L57.0884 34.4961L73.0234 40.0511C73.6827 40.2822 74.2391 40.7392 74.594 41.3411C74.9488 41.9429 75.0793 42.651 74.9624 43.3398C74.8455 44.0287 74.4886 44.654 73.955 45.105C73.4214 45.5561 72.7454 45.8038 72.0467 45.8044H72.0434ZM56.4117 39.4711L71.4017 44.6928C71.7675 44.82 72.1627 44.8359 72.5375 44.7386C72.9123 44.6412 73.2498 44.4349 73.5074 44.1458C73.765 43.8566 73.9311 43.4976 73.9846 43.1141C74.0382 42.7305 73.9769 42.3398 73.8084 41.9911C73.6977 41.7585 73.5418 41.5503 73.3498 41.3786C73.1578 41.2069 72.9335 41.0752 72.69 40.9911L57.7001 35.7644L56.4117 39.4711Z" fill="#171718"/>
<path d="M42.4845 24.8175L54.7195 29.0825C55.2901 29.2808 55.816 29.5896 56.2672 29.9912C56.7184 30.3928 57.086 30.8793 57.3492 31.423C57.6123 31.9668 57.7657 32.557 57.8006 33.16C57.8356 33.763 57.7514 34.367 57.5528 34.9375L50.5862 54.8975C50.3879 55.4681 50.0791 55.994 49.6775 56.4452C49.2759 56.8964 48.7894 57.2641 48.2456 57.5272C47.7019 57.7903 47.1117 57.9437 46.5087 57.9787C45.9056 58.0136 45.3016 57.9294 44.7312 57.7309L32.4962 53.4642C30.7664 52.8613 29.1724 51.9236 27.8051 50.7045C26.4379 49.4854 25.3242 48.0089 24.5278 46.3594C23.7313 44.7098 23.2677 42.9194 23.1633 41.0906C23.0589 39.2618 23.3159 37.4303 23.9195 35.7009L24.7245 33.3925C25.3273 31.6632 26.265 30.0695 27.4839 28.7026C28.7027 27.3357 30.1789 26.2223 31.8282 25.426C33.4774 24.6297 35.2674 24.1662 37.0958 24.0617C38.9242 23.9573 40.7553 24.2141 42.4845 24.8175Z" fill="white"/>
<path d="M46.2529 58.4845C45.6794 58.4828 45.1103 58.3841 44.5696 58.1929L32.3329 53.9262C28.7181 52.6614 25.7527 50.0143 24.0873 46.5657C22.4219 43.1171 22.1926 39.1487 23.4496 35.5312L24.2529 33.2295C25.5181 29.6146 28.1654 26.649 31.6142 24.9834C35.063 23.3177 39.0317 23.088 42.6496 24.3445L54.8846 28.6112C56.1611 29.0565 57.2084 29.9905 57.7963 31.2079C58.3842 32.4253 58.4645 33.8263 58.0196 35.1029L51.0596 55.0629C50.7107 56.0603 50.0611 56.925 49.2002 57.5378C48.3394 58.1506 47.3096 58.4814 46.2529 58.4845ZM37.9046 24.5395C35.1131 24.5404 32.3909 25.4087 30.1145 27.0243C27.8381 28.64 26.12 30.9231 25.1979 33.5579L24.3929 35.8595C23.2237 39.2269 23.4377 42.9205 24.9881 46.1302C26.5384 49.3399 29.2985 51.8037 32.6629 52.9812L44.8979 57.2462C45.406 57.4237 45.9441 57.4994 46.4815 57.4688C47.0188 57.4382 47.5448 57.302 48.0295 57.0679C48.5142 56.8339 48.9479 56.5066 49.306 56.1048C49.664 55.703 49.9394 55.2345 50.1163 54.7262L57.0746 34.7662C57.2519 34.2581 57.3274 33.7201 57.2967 33.1828C57.266 32.6455 57.1297 32.1196 56.8957 31.635C56.6617 31.1504 56.3345 30.7166 55.9328 30.3585C55.5311 30.0004 55.0628 29.7249 54.5546 29.5479L42.3196 25.2895C40.9006 24.793 39.408 24.5394 37.9046 24.5395Z" fill="#171718"/>
<path d="M57.5866 45.9676C54.5866 54.5726 49.105 60.4842 43.9066 58.6709L42.6183 58.2226C42.3809 58.1353 42.174 57.9808 42.023 57.7779C41.872 57.5749 41.7834 57.3324 41.768 57.0799C41.7527 56.8275 41.8112 56.576 41.9364 56.3562C42.0617 56.1365 42.2482 55.958 42.4733 55.8426C45.95 54.0359 48.8166 49.3842 50.8283 43.6109C52.84 37.8376 53.495 32.4142 51.89 28.8359C51.7856 28.6056 51.7506 28.3499 51.7892 28.1C51.8278 27.8501 51.9384 27.6169 52.1074 27.4288C52.2764 27.2407 52.4965 27.1059 52.7408 27.0409C52.9852 26.9758 53.2432 26.9834 53.4833 27.0626L54.77 27.5109C59.9683 29.3242 60.5866 37.3592 57.5866 45.9676Z" fill="#E0F2FE"/>
<path d="M45.8329 59.5027C45.1205 59.5019 44.4133 59.3808 43.7413 59.1444L42.4479 58.6927C42.1197 58.5788 41.8328 58.3701 41.6233 58.093C41.4138 57.8158 41.2913 57.4828 41.2713 57.136C41.2432 56.7829 41.3205 56.4294 41.4935 56.1202C41.6665 55.8111 41.9273 55.5602 42.2429 55.3993C45.3512 53.7827 48.2329 49.5377 50.3562 43.446C52.4796 37.3544 52.8563 32.2394 51.4329 29.041C51.2866 28.7183 51.2391 28.3595 51.2963 28.0098C51.3536 27.6601 51.513 27.3352 51.7546 27.076C51.9867 26.8168 52.2905 26.6323 52.6275 26.5456C52.9645 26.459 53.3196 26.4742 53.6479 26.5894L54.5546 26.906L54.9379 27.0393C57.6046 27.9693 59.2712 30.421 59.7512 34.1277C60.1879 37.4927 59.5846 41.756 58.0613 46.1277C56.5379 50.4993 54.3513 54.221 51.9213 56.5843C49.9296 58.526 47.8596 59.5027 45.8329 59.5027ZM53.0613 27.491C52.953 27.4918 52.8462 27.5153 52.7477 27.5601C52.6492 27.6049 52.5613 27.6699 52.4896 27.751C52.3813 27.8674 52.3099 28.0132 52.2844 28.1701C52.2589 28.3271 52.2804 28.488 52.3462 28.6327C54.3129 33.031 52.8629 39.2993 51.3013 43.776C49.7396 48.2527 46.9796 54.0644 42.7046 56.286C42.5632 56.3586 42.4464 56.4714 42.369 56.6102C42.2916 56.749 42.257 56.9076 42.2696 57.066C42.2766 57.2187 42.3294 57.3658 42.4213 57.488C42.5132 57.6102 42.6398 57.7019 42.7846 57.751L44.0696 58.1993C46.9596 59.1993 49.5546 57.4877 51.2229 55.866C53.5463 53.6077 55.6379 50.0327 57.1146 45.801C58.5913 41.5694 59.1729 37.4677 58.7563 34.2543C58.4579 31.9493 57.4962 28.9894 54.6062 27.981L53.3179 27.5327C53.2352 27.5051 53.1485 27.4911 53.0613 27.491Z" fill="#171718"/>
<path d="M9.58546 28.3793C3.73713 24.6493 1.08546 21.0893 1.4988 17.561C1.56162 17.0485 1.72803 16.5542 1.98791 16.1081C2.24778 15.662 2.59569 15.2734 3.01046 14.966C5.58213 12.966 10.7888 13.3093 13.6771 13.6943C17.1555 14.0493 22.2405 13.5726 22.7755 11.7443C23.1088 10.5926 21.5105 8.6193 17.8705 7.2343C11.0238 4.6293 3.90713 4.02597 3.83713 4.02597L4.1038 0.702637C4.4138 0.727637 11.7705 1.3443 19.0555 4.11764C25.3171 6.50097 26.6971 10.221 25.9755 12.681C25.2538 15.141 22.7938 16.5676 18.6421 16.9943C16.8685 17.1631 15.083 17.1664 13.3088 17.0043H13.2621C8.87713 16.4176 5.98046 16.881 5.0538 17.601C4.8288 17.776 4.81546 17.891 4.8088 17.9526C4.49546 20.6193 8.50213 24.316 15.8088 28.096C19.3609 29.9019 23.0148 31.5002 26.7521 32.8826C27.1593 33.0333 27.4915 33.3368 27.6783 33.7287C27.8651 34.1206 27.8915 34.5699 27.7521 34.981C27.6807 35.1931 27.5674 35.3887 27.4187 35.5561C27.2701 35.7234 27.0893 35.8592 26.8871 35.9551C26.6849 36.0511 26.4654 36.1054 26.2418 36.1147C26.0182 36.124 25.795 36.0881 25.5855 36.0093C21.7306 34.5843 17.9625 32.9348 14.3005 31.0693C12.5471 30.1626 10.9755 29.266 9.58546 28.3793Z" fill="white"/>
<path d="M26.1635 36.6144C25.9063 36.6143 25.6511 36.568 25.4102 36.4777C21.5389 35.045 17.7546 33.3872 14.0769 31.5127C12.3152 30.6027 10.7152 29.6893 9.32186 28.801C3.28519 24.9527 0.566857 21.256 1.00686 17.5027C1.07706 16.9242 1.2641 16.3661 1.55662 15.8621C1.84914 15.3581 2.24104 14.9189 2.70852 14.571C5.42019 12.4593 10.7869 12.8043 13.7535 13.1927C17.3752 13.5643 21.9102 12.9493 22.3069 11.5993C22.5352 10.8193 21.2302 9.03935 17.7019 7.69768C10.9202 5.12435 3.86852 4.52602 3.79852 4.52602L3.29852 4.48602L3.64519 0.166016L4.14519 0.206014C4.45852 0.231014 11.8885 0.856016 19.2352 3.65102C25.8169 6.15102 27.2352 10.1593 26.4552 12.8177C25.6752 15.476 23.0685 17.036 18.6952 17.4843C16.8861 17.6565 15.0649 17.6599 13.2552 17.4943H13.2052C8.97686 16.9293 6.17686 17.3543 5.36019 17.9943C5.3391 18.0103 5.31906 18.0275 5.30019 18.046C5.06852 20.4627 9.07186 24.046 16.0319 27.651C19.566 29.4479 23.2015 31.0378 26.9202 32.4127C27.3993 32.5878 27.8013 32.9263 28.0553 33.3687C28.3094 33.811 28.3992 34.3288 28.309 34.8309C28.2188 35.333 27.9543 35.7871 27.5621 36.1134C27.17 36.4396 26.6753 36.617 26.1652 36.6144H26.1635ZM9.49686 13.8977C7.19186 13.8977 4.77852 14.231 3.31686 15.361C2.9552 15.6284 2.65159 15.9664 2.42441 16.3546C2.19723 16.7428 2.0512 17.1731 1.99519 17.6193C1.60352 20.9527 4.17352 24.336 9.85519 27.9527C11.2235 28.8243 12.7969 29.7227 14.5302 30.6193C18.1718 32.4776 21.9193 34.1204 25.7535 35.5393C26.0368 35.624 26.3418 35.598 26.6066 35.4665C26.8714 35.3349 27.0765 35.1077 27.1802 34.8308C27.2839 34.5539 27.2787 34.248 27.1654 33.9748C27.0522 33.7016 26.8394 33.4816 26.5702 33.3593C22.8134 31.9694 19.1405 30.3622 15.5702 28.546C7.96519 24.606 3.96519 20.826 4.31019 17.8993C4.32815 17.7598 4.37639 17.626 4.45153 17.5071C4.52668 17.3882 4.6269 17.2871 4.74519 17.211C5.97519 16.2543 9.34519 15.981 13.3269 16.5143H13.3652C15.104 16.671 16.8536 16.6676 18.5919 16.5043C22.5202 16.0993 24.8435 14.7677 25.4952 12.5477C26.1619 10.291 24.8285 6.85435 18.8769 4.59102C12.6485 2.22102 6.35852 1.43935 4.56186 1.25769L4.37352 3.59102C6.12019 3.77602 12.1769 4.54602 18.0402 6.78102C22.1869 8.35768 23.6469 10.5393 23.2469 11.8993C22.5385 14.3143 16.4535 14.4943 13.6185 14.2043C12.2521 14.0133 10.8748 13.9108 9.49519 13.8977H9.49686Z" fill="#171718"/>
<path d="M74.5858 6.47458L73.6914 6.92188L77.1482 13.834L78.0426 13.3867L74.5858 6.47458Z" fill="#171718"/>
<path d="M93.4989 4.92458L89.25 14.0322L90.1562 14.455L94.4051 5.34735L93.4989 4.92458Z" fill="#171718"/>
<path d="M104.836 22.3253L98.7109 24.7012L99.0726 25.6335L105.198 23.2576L104.836 22.3253Z" fill="#171718"/>
<path d="M38.1924 82.6655L32.8086 85.2104L33.236 86.1145L38.6198 83.5696L38.1924 82.6655Z" fill="#171718"/>
<path d="M49.1685 92.3144L43.8828 100.3L44.7167 100.852L50.0024 92.8664L49.1685 92.3144Z" fill="#171718"/>
<path d="M64.1775 92.8842L63.2734 93.3115L65.7129 98.4723L66.617 98.045L64.1775 92.8842Z" fill="#171718"/>
</svg>
