<svg width="168" height="120" viewBox="0 0 168 120" fill="none" xmlns="http://www.w3.org/2000/svg">
<path d="M66.9771 20.3699L65.8605 20.1266L65.6071 19.0132C65.6019 18.9951 65.591 18.9792 65.576 18.9678C65.5609 18.9565 65.5426 18.9504 65.5238 18.9504C65.505 18.9504 65.4866 18.9565 65.4716 18.9678C65.4566 18.9792 65.4456 18.9951 65.4405 19.0132L65.1855 20.1316L64.0688 20.3966C64.0496 20.4014 64.0325 20.4126 64.0204 20.4283C64.0083 20.4441 64.0019 20.4634 64.0021 20.4832C64.0021 20.5029 64.0089 20.5219 64.0214 20.5371C64.0339 20.5523 64.0512 20.5627 64.0705 20.5666L65.1871 20.8099L65.4405 21.9249C65.4465 21.9421 65.4578 21.9571 65.4727 21.9677C65.4877 21.9783 65.5055 21.9839 65.5238 21.9839C65.5421 21.9839 65.5599 21.9783 65.5749 21.9677C65.5898 21.9571 65.6011 21.9421 65.6071 21.9249L65.8605 20.8049L66.9788 20.5399C66.9979 20.5354 67.0149 20.5245 67.027 20.509C67.0391 20.4936 67.0456 20.4745 67.0455 20.4549C67.0455 20.435 67.0388 20.4158 67.0263 20.4003C67.0139 20.3848 66.9965 20.3741 66.9771 20.3699ZM134.539 6.44323L132.829 6.07156L132.44 4.36323C132.434 4.33377 132.417 4.30747 132.394 4.28863C132.37 4.26978 132.341 4.25952 132.31 4.25952C132.28 4.25952 132.251 4.26978 132.227 4.28863C132.204 4.30747 132.187 4.33377 132.18 4.36323L131.79 6.07823L130.079 6.48489C130.049 6.49081 130.022 6.50692 130.003 6.53047C129.983 6.55403 129.973 6.58357 129.973 6.61406C129.973 6.64455 129.983 6.67409 130.003 6.69765C130.022 6.7212 130.049 6.73731 130.079 6.74322L131.789 7.11656L132.177 8.82323C132.184 8.85268 132.2 8.87899 132.224 8.89783C132.248 8.91667 132.277 8.92693 132.307 8.92693C132.337 8.92693 132.367 8.91667 132.39 8.89783C132.414 8.87899 132.43 8.85268 132.437 8.82323L132.827 7.10823L134.539 6.70156C134.569 6.69565 134.596 6.67954 134.615 6.65598C134.634 6.63242 134.645 6.60288 134.645 6.57239C134.645 6.5419 134.634 6.51236 134.615 6.48881C134.596 6.46525 134.569 6.44914 134.539 6.44323ZM11.5388 18.7766L9.82879 18.4049L9.44045 16.6966C9.43374 16.6671 9.41722 16.6408 9.3936 16.622C9.36998 16.6031 9.34067 16.5929 9.31045 16.5929C9.28024 16.5929 9.25092 16.6031 9.22731 16.622C9.20369 16.6408 9.18717 16.6671 9.18045 16.6966L8.79045 18.4116L7.07879 18.8182C7.04888 18.8241 7.02195 18.8402 7.00259 18.8638C6.98324 18.8874 6.97266 18.9169 6.97266 18.9474C6.97266 18.9779 6.98324 19.0074 7.00259 19.031C7.02195 19.0545 7.04888 19.0706 7.07879 19.0766L8.78879 19.4499L9.17712 21.1566C9.18383 21.186 9.20035 21.2123 9.22397 21.2312C9.24759 21.25 9.27691 21.2603 9.30712 21.2603C9.33733 21.2603 9.36665 21.25 9.39027 21.2312C9.41389 21.2123 9.43041 21.186 9.43712 21.1566L9.82712 19.4416L11.5388 19.0349C11.5687 19.029 11.5956 19.0129 11.615 18.9893C11.6343 18.9658 11.6449 18.9362 11.6449 18.9057C11.6449 18.8752 11.6343 18.8457 11.615 18.8221C11.5956 18.7986 11.5687 18.7825 11.5388 18.7766ZM144.977 18.3699L143.86 18.1266L143.607 17.0132C143.602 16.9951 143.591 16.9792 143.576 16.9678C143.561 16.9565 143.543 16.9504 143.524 16.9504C143.505 16.9504 143.487 16.9565 143.472 16.9678C143.457 16.9792 143.446 16.9951 143.44 17.0132L143.185 18.1316L142.069 18.3966C142.05 18.4014 142.033 18.4126 142.02 18.4283C142.008 18.4441 142.002 18.4634 142.002 18.4832C142.002 18.5029 142.009 18.5219 142.021 18.5371C142.034 18.5523 142.051 18.5627 142.07 18.5666L143.187 18.8099L143.44 19.9249C143.447 19.9421 143.458 19.9571 143.473 19.9677C143.488 19.9783 143.506 19.9839 143.524 19.9839C143.542 19.9839 143.56 19.9783 143.575 19.9677C143.59 19.9571 143.601 19.9421 143.607 19.9249L143.86 18.8049L144.979 18.5399C144.998 18.5354 145.015 18.5245 145.027 18.509C145.039 18.4936 145.046 18.4745 145.045 18.4549C145.046 18.435 145.039 18.4158 145.026 18.4003C145.014 18.3848 144.997 18.3741 144.977 18.3699Z" fill="#171718"/>
<path d="M93.1469 7.59282C93.1469 7.59282 92.1085 4.73949 89.3419 5.51782C89.3419 5.51782 88.9952 1.36616 84.4985 1.10616C80.0019 0.846156 78.6169 4.39282 78.6169 4.39282C78.6169 4.39282 74.8119 2.31782 72.2169 5.51782C72.2169 5.51782 69.2769 5.51782 68.6719 7.59282H93.1469Z" fill="white"/>
<path d="M93.74 8.00967H68.1133L68.2699 7.47633C68.8633 5.44133 71.2916 5.143 72.0149 5.108C74.2799 2.48133 77.3483 3.40634 78.4233 3.848C78.9649 2.878 80.7049 0.469668 84.5199 0.691335C88.3866 0.913001 89.4183 3.858 89.6749 5.02467C91.8816 4.65967 93.1566 6.41467 93.5366 7.45967L93.74 8.00967ZM69.3116 7.17634H92.4783C92.0516 6.483 91.11 5.45467 89.46 5.918L88.9749 6.05467L88.9333 5.55467C88.9183 5.40133 88.5516 1.76134 84.4799 1.52634C80.3516 1.28967 79.065 4.41633 79.0116 4.54967L78.845 4.98633L78.4149 4.75967C78.2733 4.68134 74.8783 2.89467 72.5383 5.77967L72.4133 5.93467H72.2149C72.1933 5.93467 70.1449 5.95634 69.3116 7.17634Z" fill="#171718"/>
<path d="M129.813 28.4262C129.813 28.4262 128.566 24.9996 125.245 25.9346C125.245 25.9346 124.83 20.9512 119.43 20.6396C114.03 20.3279 112.37 24.5929 112.37 24.5929C112.37 24.5929 107.801 22.1012 104.686 25.9429C104.686 25.9429 101.156 25.9429 100.43 28.4346L129.813 28.4262Z" fill="white"/>
<path d="M130.408 28.8429H99.875L100.03 28.3096C100.738 25.8829 103.68 25.5646 104.487 25.5246C107.225 22.3196 110.967 23.5246 112.177 24.0362C112.772 22.9362 114.825 19.9579 119.455 20.2229C124.133 20.4929 125.313 24.1146 125.583 25.4262C128.228 24.9462 129.75 27.0396 130.205 28.2829L130.408 28.8429ZM101.058 28.0096H129.147C128.662 27.1662 127.493 25.7329 125.353 26.3429L124.867 26.4796L124.825 25.9796C124.808 25.7912 124.363 21.3512 119.402 21.0646C114.387 20.7762 112.817 24.5846 112.753 24.7462L112.587 25.1846L112.173 24.9612C112.007 24.8662 107.867 22.6862 105.007 26.2062L104.88 26.3612H104.682C104.658 26.3512 102.01 26.3779 101.058 28.0096Z" fill="#171718"/>
<path d="M10.0459 90.6764C8.93104 90.6758 7.83175 90.4144 6.83594 89.913L7.28261 89.0197C8.12331 89.4427 9.04986 89.6672 9.99096 89.6759C10.932 89.6845 11.8626 89.4772 12.7109 89.0697L13.9526 88.4764C14.9965 87.9788 16.1449 87.7404 17.3005 87.7813C18.4562 87.8222 19.5849 88.1413 20.5909 88.7114C21.4817 89.2187 22.485 89.496 23.5099 89.5181C24.5348 89.5402 25.5491 89.3065 26.4609 88.838L26.9193 88.603C27.9664 88.0652 29.1298 87.7936 30.3068 87.8122C31.4838 87.8309 32.638 88.1391 33.6676 88.7097L33.7376 88.748C34.633 89.2442 35.6379 89.5096 36.6615 89.5203C37.6851 89.5311 38.6953 89.2869 39.6009 88.8097L39.8926 88.6564C40.9452 88.1022 42.1191 87.8187 43.3085 87.8315C44.498 87.8443 45.6656 88.153 46.7059 88.7297L46.8809 88.828C47.7226 89.2902 48.6694 89.527 49.6295 89.5156C50.5896 89.5042 51.5305 89.245 52.3609 88.763C53.3638 88.1761 54.4975 87.8491 55.6588 87.8119C56.8202 87.7746 57.9725 88.0283 59.0109 88.5497L59.9659 89.028C60.7988 89.4415 61.7161 89.6567 62.6459 89.6567C63.5758 89.6567 64.4931 89.4415 65.3259 89.028L66.3676 88.5064C67.3821 87.9998 68.5045 87.7472 69.6382 87.7705C70.7719 87.7937 71.883 88.092 72.8759 88.6397L73.2326 88.838C74.0832 89.3078 75.0354 89.5637 76.0069 89.5834C76.9785 89.6032 77.9402 89.3862 78.8093 88.9514L79.6143 88.5497C80.6528 88.0287 81.805 87.7753 82.9663 87.8126C84.1276 87.8498 85.2613 88.1765 86.2643 88.763C87.1077 89.2562 88.0591 89.5353 89.0353 89.576C90.0114 89.6166 90.9827 89.4176 91.8643 88.9964L92.9509 88.4764C93.9925 87.9779 95.1414 87.7458 96.2948 87.8007C97.4482 87.8557 98.5698 88.1961 99.5593 88.7914C100.353 89.2643 101.255 89.524 102.178 89.5453C103.102 89.5666 104.015 89.3488 104.829 88.913L105.246 88.6897C106.292 88.1253 107.461 87.8239 108.65 87.8114C109.839 87.799 111.013 88.0758 112.071 88.618L112.551 88.8647C113.455 89.3267 114.456 89.565 115.471 89.5598C116.486 89.5546 117.485 89.3059 118.384 88.8347L118.773 88.6314C119.814 88.0858 120.971 87.7981 122.146 87.7923C123.321 87.7865 124.481 88.0628 125.528 88.598L125.966 88.823C126.89 89.2967 127.917 89.5358 128.955 89.5192C129.994 89.5026 131.012 89.2309 131.921 88.728C132.963 88.1516 134.13 87.8377 135.32 87.8133C136.511 87.7889 137.689 88.0548 138.754 88.588L139.468 88.9447C140.336 89.379 141.3 89.5895 142.27 89.5572C143.241 89.5249 144.188 89.2508 145.026 88.7597C146.027 88.1719 147.161 87.8497 148.322 87.8237C149.482 87.7978 150.63 88.0689 151.656 88.6114C152.683 89.1497 153.825 89.4339 154.985 89.44C156.145 89.4461 157.29 89.1739 158.323 88.6464L158.778 89.5364C157.602 90.1375 156.299 90.4477 154.978 90.441C153.657 90.4344 152.357 90.111 151.188 89.498C150.311 89.0334 149.33 88.801 148.338 88.8229C147.346 88.8448 146.376 89.1202 145.521 89.623C144.539 90.1984 143.43 90.519 142.293 90.5556C141.156 90.5923 140.027 90.3439 139.011 89.833L138.313 89.4814C137.393 89.0212 136.376 88.7918 135.348 88.813C134.32 88.8342 133.312 89.1054 132.413 89.603C131.361 90.1858 130.182 90.5007 128.98 90.5199C127.777 90.5391 126.589 90.262 125.519 89.713L125.081 89.488C124.177 89.0261 123.176 88.7877 122.161 88.7929C121.146 88.7981 120.147 89.0468 119.248 89.518L118.859 89.7214C117.818 90.2669 116.661 90.5546 115.486 90.5604C114.31 90.5662 113.151 90.2899 112.104 89.7547L111.623 89.508C110.709 89.0398 109.695 88.8008 108.668 88.8116C107.642 88.8223 106.633 89.0825 105.729 89.5697L105.311 89.7947C104.344 90.3119 103.259 90.5701 102.162 90.5444C101.066 90.5187 99.9946 90.2099 99.0526 89.648C98.2041 89.1377 97.2422 88.846 96.2531 88.7991C95.2641 88.7523 94.2789 88.9518 93.3859 89.3797L92.2993 89.898C91.2709 90.3896 90.1379 90.622 88.999 90.575C87.8602 90.5279 86.7502 90.2028 85.7659 89.628C84.9068 89.1245 83.9353 88.844 82.9401 88.812C81.9448 88.7799 80.9573 88.9975 80.0676 89.4447L79.2626 89.8464C78.2492 90.3515 77.1283 90.6033 75.9962 90.5801C74.8641 90.5569 73.7545 90.2593 72.7626 89.713L72.4059 89.5147C71.5553 89.0449 70.6031 88.7891 69.6316 88.7693C68.66 88.7496 67.6983 88.9665 66.8293 89.4014L65.7726 89.9264C64.8012 90.4097 63.731 90.6613 62.6459 90.6613C61.5609 90.6613 60.4907 90.4097 59.5193 89.9264L58.5626 89.4497C57.6729 89.0025 56.6854 88.7849 55.6901 88.817C54.6948 88.849 53.7234 89.1295 52.8643 89.633C51.8839 90.2009 50.7736 90.5062 49.6408 90.5193C48.5079 90.5324 47.3908 90.253 46.3976 89.708L46.2209 89.6097C45.3255 89.1136 44.3207 88.8481 43.2971 88.8374C42.2734 88.8266 41.2632 89.0708 40.3576 89.548L40.0659 89.7014C39.0134 90.2555 37.8395 90.539 36.65 90.5262C35.4605 90.5134 34.293 90.2047 33.2526 89.628L33.1843 89.5897C32.2981 89.0984 31.3046 88.8331 30.2916 88.8171C29.2785 88.8011 28.2771 89.035 27.3759 89.498L26.9159 89.733C25.8567 90.2769 24.6786 90.5483 23.4882 90.5227C22.2978 90.4971 21.1325 90.1753 20.0976 89.5864C19.2315 89.0955 18.2599 88.8208 17.265 88.7854C16.2701 88.75 15.2814 88.955 14.3826 89.383L13.1459 89.9714C12.1782 90.435 11.119 90.6759 10.0459 90.6764ZM62.6459 104.323C61.5612 104.326 60.4907 104.076 59.5193 103.593L58.5626 103.116C57.6729 102.669 56.6854 102.452 55.6901 102.484C54.6948 102.516 53.7234 102.796 52.8643 103.3C51.8839 103.868 50.7736 104.173 49.6408 104.186C48.5079 104.199 47.3908 103.92 46.3976 103.375L46.2209 103.276C45.3255 102.78 44.3207 102.515 43.2971 102.504C42.2734 102.493 41.2632 102.738 40.3576 103.215L40.0659 103.368C39.0134 103.922 37.8395 104.206 36.65 104.193C35.4605 104.18 34.293 103.871 33.2526 103.295L33.1843 103.256C32.2981 102.765 31.3046 102.5 30.2916 102.484C29.2785 102.468 28.2771 102.702 27.3759 103.165L26.9159 103.4L26.4609 102.51L26.9193 102.275C27.9664 101.737 29.1298 101.465 30.3068 101.484C31.4838 101.503 32.638 101.811 33.6676 102.381L33.7376 102.42C34.633 102.916 35.6379 103.181 36.6615 103.192C37.6851 103.203 38.6953 102.959 39.6009 102.481L39.8926 102.328C40.9452 101.774 42.1191 101.49 43.3085 101.503C44.498 101.516 45.6656 101.825 46.7059 102.401L46.8809 102.5C47.7226 102.962 48.6694 103.199 49.6295 103.187C50.5896 103.176 51.5305 102.917 52.3609 102.435C53.3638 101.848 54.4975 101.521 55.6588 101.484C56.8202 101.446 57.9725 101.7 59.0109 102.221L59.9659 102.7C60.7988 103.113 61.7161 103.328 62.6459 103.328C63.5758 103.328 64.4931 103.113 65.3259 102.7L66.3676 102.178C67.3821 101.671 68.5045 101.419 69.6382 101.442C70.7719 101.465 71.883 101.764 72.8759 102.311L73.2326 102.51C74.0832 102.98 75.0354 103.235 76.0069 103.255C76.9785 103.275 77.9402 103.058 78.8093 102.623L79.6143 102.221C80.6527 101.7 81.8051 101.446 82.9666 101.484C84.128 101.521 85.2617 101.849 86.2643 102.436C87.1083 102.928 88.0596 103.206 89.0355 103.246C90.0115 103.287 90.9825 103.088 91.8643 102.668L92.9509 102.148C93.9925 101.65 95.1414 101.417 96.2948 101.472C97.4482 101.527 98.5698 101.868 99.5593 102.463C100.353 102.936 101.255 103.196 102.178 103.217C103.102 103.238 104.015 103.02 104.829 102.585L105.246 102.361C106.292 101.797 107.461 101.496 108.65 101.483C109.839 101.471 111.013 101.747 112.071 102.29L112.551 102.536C113.455 102.998 114.456 103.237 115.471 103.231C116.486 103.226 117.485 102.978 118.384 102.506L118.773 102.303C119.814 101.757 120.971 101.47 122.146 101.464C123.321 101.458 124.481 101.734 125.528 102.27L125.966 102.495C126.89 102.968 127.917 103.207 128.955 103.191C129.994 103.174 131.012 102.903 131.921 102.4C132.963 101.823 134.13 101.509 135.32 101.485C136.511 101.461 137.689 101.726 138.754 102.26L138.313 103.148C137.393 102.688 136.376 102.459 135.348 102.48C134.32 102.501 133.312 102.772 132.413 103.27C131.361 103.853 130.182 104.167 128.98 104.187C127.777 104.206 126.589 103.929 125.519 103.38L125.081 103.155C124.177 102.693 123.176 102.454 122.161 102.46C121.146 102.465 120.147 102.713 119.248 103.185L118.859 103.388C117.818 103.934 116.661 104.221 115.486 104.227C114.31 104.233 113.151 103.957 112.104 103.421L111.623 103.175C110.709 102.707 109.695 102.468 108.668 102.478C107.642 102.489 106.633 102.749 105.729 103.236L105.311 103.461C104.344 103.979 103.259 104.237 102.162 104.211C101.066 104.185 99.9946 103.877 99.0526 103.315C98.2042 102.804 97.2422 102.512 96.2531 102.465C95.264 102.419 94.2788 102.618 93.3859 103.046L92.2993 103.565C91.2709 104.056 90.1379 104.289 88.999 104.242C87.8602 104.195 86.7502 103.869 85.7659 103.295C84.9068 102.791 83.9353 102.511 82.9401 102.479C81.9448 102.447 80.9573 102.664 80.0676 103.111L79.2626 103.513C78.2492 104.018 77.1283 104.27 75.9962 104.247C74.8641 104.224 73.7545 103.926 72.7626 103.38L72.4059 103.181C71.5553 102.712 70.6031 102.456 69.6316 102.436C68.66 102.416 67.6983 102.633 66.8293 103.068L65.7726 103.593C64.8012 104.076 63.7307 104.326 62.6459 104.323ZM37.1459 119.323C36.0612 119.326 34.9907 119.076 34.0193 118.593L33.0626 118.116C32.1729 117.669 31.1854 117.452 30.1901 117.484C29.1948 117.516 28.2234 117.796 27.3643 118.3C26.3839 118.868 25.2736 119.173 24.1408 119.186C23.0079 119.199 21.8908 118.92 20.8976 118.375L20.7209 118.276C19.8255 117.78 18.8207 117.515 17.7971 117.504C16.7734 117.493 15.7633 117.738 14.8576 118.215L14.5659 118.368C13.5134 118.922 12.3395 119.206 11.15 119.193C9.96054 119.18 8.79298 118.871 7.7526 118.295L7.68427 118.256C6.79815 117.765 5.80463 117.5 4.79157 117.484C3.77851 117.468 2.77712 117.702 1.87594 118.165L1.41594 118.4L0.960938 117.51L1.41927 117.275C2.46636 116.737 3.6298 116.465 4.80678 116.484C5.98376 116.503 7.13803 116.811 8.1676 117.381L8.2376 117.42C9.13302 117.916 10.1379 118.181 11.1615 118.192C12.1851 118.203 13.1953 117.959 14.1009 117.481L14.3926 117.328C15.4452 116.774 16.6191 116.49 17.8085 116.503C18.998 116.516 20.1656 116.825 21.2059 117.401L21.3726 117.5C22.2143 117.962 23.161 118.199 24.1211 118.187C25.0813 118.176 26.0221 117.917 26.8526 117.435C27.8555 116.848 28.9891 116.521 30.1505 116.484C31.3119 116.446 32.4642 116.7 33.5026 117.221L34.4576 117.7C35.2905 118.113 36.2077 118.328 37.1376 118.328C38.0675 118.328 38.9847 118.113 39.8176 117.7L40.8593 117.178C41.8738 116.671 42.9962 116.419 44.1299 116.442C45.2636 116.465 46.3747 116.764 47.3676 117.311L47.7243 117.51C48.5749 117.98 49.5271 118.235 50.4986 118.255C51.4702 118.275 52.4319 118.058 53.3009 117.623L54.1059 117.221C55.1445 116.7 56.2968 116.447 57.4582 116.484C58.6196 116.522 59.7532 116.849 60.7559 117.436C61.5997 117.929 62.5511 118.207 63.5272 118.248C64.5033 118.288 65.4744 118.089 66.3559 117.668L67.4426 117.148L67.8726 118.051L66.7859 118.57C65.7576 119.061 64.6245 119.294 63.4857 119.247C62.3469 119.2 61.2369 118.874 60.2526 118.3C59.3935 117.796 58.422 117.516 57.4267 117.484C56.4315 117.452 55.444 117.669 54.5543 118.116L53.7493 118.518C52.7348 119.025 51.6124 119.277 50.4787 119.254C49.3449 119.231 48.2338 118.932 47.2409 118.385L46.8843 118.186C46.0336 117.717 45.0815 117.461 44.1099 117.441C43.1384 117.421 42.1766 117.638 41.3076 118.073L40.2726 118.593C39.3012 119.076 38.2307 119.326 37.1459 119.323ZM126.979 118.323C125.895 118.326 124.824 118.076 123.853 117.593L122.896 117.116C122.006 116.669 121.019 116.452 120.023 116.484C119.028 116.516 118.057 116.796 117.198 117.3C116.217 117.868 115.107 118.173 113.974 118.186C112.841 118.2 111.724 117.92 110.731 117.375L110.554 117.276C109.659 116.78 108.654 116.515 107.63 116.504C106.607 116.493 105.597 116.738 104.691 117.215L104.399 117.368C103.347 117.922 102.173 118.206 100.983 118.193C99.7939 118.18 98.6263 117.871 97.5859 117.295L97.5176 117.256C96.6315 116.765 95.638 116.5 94.6249 116.484C93.6118 116.468 92.6104 116.702 91.7093 117.165L91.2493 117.4L90.7943 116.51L91.2526 116.275C92.2997 115.737 93.4631 115.465 94.6401 115.484C95.8171 115.503 96.9714 115.811 98.0009 116.381L98.0709 116.42C98.9663 116.916 99.9712 117.181 100.995 117.192C102.018 117.203 103.029 116.959 103.934 116.481L104.226 116.328C105.278 115.774 106.452 115.49 107.642 115.503C108.831 115.516 109.999 115.825 111.039 116.401L111.206 116.5C112.048 116.962 112.994 117.199 113.954 117.187C114.915 117.176 115.855 116.917 116.686 116.435C117.689 115.848 118.822 115.521 119.984 115.484C121.145 115.446 122.298 115.7 123.336 116.221L124.291 116.7C125.124 117.113 126.041 117.328 126.971 117.328C127.901 117.328 128.818 117.113 129.651 116.7L130.693 116.178C131.706 115.673 132.827 115.421 133.959 115.444C135.091 115.468 136.201 115.765 137.193 116.311L137.549 116.51C138.4 116.98 139.352 117.235 140.324 117.255C141.295 117.275 142.257 117.058 143.126 116.623L143.931 116.221C144.969 115.7 146.122 115.446 147.283 115.484C148.445 115.521 149.578 115.849 150.581 116.436C151.425 116.928 152.376 117.206 153.352 117.246C154.328 117.287 155.299 117.088 156.181 116.668L157.268 116.148L157.698 117.051L156.611 117.57C155.583 118.061 154.45 118.294 153.311 118.247C152.172 118.2 151.062 117.874 150.078 117.3C149.218 116.796 148.247 116.516 147.252 116.484C146.256 116.452 145.269 116.669 144.379 117.116L143.574 117.518C142.561 118.023 141.44 118.275 140.308 118.252C139.176 118.229 138.066 117.931 137.074 117.385L136.718 117.186C135.867 116.717 134.915 116.461 133.943 116.441C132.972 116.421 132.01 116.638 131.141 117.073L130.106 117.593C129.134 118.076 128.064 118.326 126.979 118.323Z" fill="#171718"/>
<path d="M28.6523 29.2711L41.6969 7.749L42.5521 8.26733L29.5075 29.7894L28.6523 29.2711Z" fill="#171718"/>
<path d="M41.1752 10.355L54.0385 18.15L48.0685 20.2166L49.0001 26.4633L36.1368 18.6683C35.9715 18.569 35.8275 18.438 35.7129 18.2829C35.5983 18.1278 35.5154 17.9517 35.469 17.7645C35.4225 17.5773 35.4134 17.3829 35.4422 17.1922C35.471 17.0015 35.5372 16.8184 35.6368 16.6533L39.1552 10.85C39.2549 10.6844 39.3864 10.5403 39.5421 10.4257C39.6978 10.3112 39.8745 10.2285 40.0622 10.1825C40.25 10.1365 40.4449 10.1281 40.6359 10.1577C40.8269 10.1873 41.0102 10.2543 41.1752 10.355Z" fill="#E0F2FE"/>
<path d="M49.6463 27.4432L35.8763 19.0932C35.6551 18.9597 35.4623 18.7839 35.309 18.5758C35.1557 18.3677 35.045 18.1315 34.9831 17.8806C34.9211 17.6297 34.9093 17.369 34.9482 17.1135C34.987 16.858 35.0759 16.6127 35.2097 16.3916L38.7297 10.5932C38.9996 10.1467 39.4359 9.82565 39.9425 9.70064C40.4491 9.57563 40.9846 9.65689 41.4313 9.92657L55.2063 18.2732L48.6213 20.5516L49.6463 27.4432ZM40.4147 10.6432C40.2474 10.642 40.0827 10.6842 39.9366 10.7657C39.7905 10.8472 39.6681 10.9653 39.5813 11.1082L36.0647 16.9132C35.9985 17.0225 35.9547 17.1439 35.9357 17.2702C35.9166 17.3965 35.9228 17.5254 35.9538 17.6493C35.9848 17.7732 36.04 17.8898 36.1162 17.9923C36.1924 18.0948 36.2882 18.1812 36.398 18.2466L48.3497 25.4899L47.5163 19.8832L52.873 18.0316L40.9213 10.7882C40.7692 10.6938 40.5937 10.6435 40.4147 10.6432Z" fill="#171718"/>
<path d="M122.813 63.5932L106.827 88.5816C106.362 88.7167 105.912 88.9005 105.485 89.1299L105.067 89.3549C104.307 89.7645 103.465 89.9999 102.602 90.044C101.74 90.0881 100.878 89.9398 100.08 89.6099C99.8121 89.499 99.5525 89.3687 99.3035 89.2199C98.4964 88.7354 97.5936 88.4323 96.6577 88.3316C95.7218 88.2308 94.7752 88.3349 93.8835 88.6366C93.6393 88.7201 93.4 88.8175 93.1668 88.9282L92.0802 89.4465C91.125 89.9018 90.0731 90.117 89.0158 90.0735C87.9586 90.0299 86.928 89.7289 86.0135 89.1965C85.083 88.6538 84.0321 88.3513 82.9555 88.3164C81.8789 88.2815 80.8105 88.5152 79.8468 88.9965L79.0402 89.3999C78.0983 89.8698 77.0563 90.1039 76.0039 90.0822C74.9515 90.0604 73.9202 89.7834 72.9985 89.2749L72.6418 89.0782C71.7202 88.5697 70.6888 88.2927 69.6364 88.2709C68.584 88.2492 67.5421 88.4833 66.6002 88.9532L65.5568 89.4749C64.6552 89.925 63.6612 90.1593 62.6535 90.1593C61.6457 90.1593 60.6518 89.925 59.7502 89.4749L58.7935 88.9965C57.8298 88.5154 56.7614 88.2817 55.6849 88.3166C54.6083 88.3516 53.5573 88.654 52.6268 89.1965C52.1671 89.4647 51.6739 89.6709 51.1602 89.8099V55.0932L55.8268 52.1299L63.8185 47.0482L74.9952 39.9265L79.8018 36.8699C80.3987 36.4898 81.0941 36.2934 81.8016 36.3049C82.5091 36.3165 83.1977 36.5355 83.7818 36.9349L120.417 61.9565L122.813 63.5932Z" fill="white"/>
<path d="M62.6484 90.6565C61.5637 90.6591 60.4932 90.4092 59.5218 89.9265L58.5651 89.4481C57.6745 89.0039 56.6873 88.7883 55.6926 88.8206C54.6978 88.8529 53.7267 89.1321 52.8668 89.6331C52.3688 89.9239 51.8348 90.148 51.2784 90.2998L50.6484 90.4665V54.8181L79.5351 36.4515C80.2141 36.018 81.0057 35.7939 81.8111 35.8069C82.6166 35.82 83.4005 36.0696 84.0651 36.5248L123.498 63.4531L123.237 63.8631L107.148 89.0098L106.968 89.0615C106.537 89.1871 106.12 89.3574 105.723 89.5698L105.305 89.7948C104.48 90.2397 103.565 90.4953 102.629 90.5432C101.692 90.591 100.757 90.4299 99.8901 90.0715C99.6 89.9507 99.3188 89.8099 99.0484 89.6498C98.3044 89.2018 97.4715 88.9214 96.608 88.8281C95.7445 88.7349 94.871 88.831 94.0484 89.1098C93.8212 89.1868 93.5986 89.2769 93.3818 89.3798L92.2951 89.8981C91.2664 90.3883 90.1335 90.6199 88.995 90.5729C87.8564 90.5258 86.7465 90.2015 85.7618 89.6281C84.9026 89.1248 83.9313 88.8442 82.9361 88.8119C81.9409 88.7796 80.9534 88.9966 80.0634 89.4431L79.2568 89.8465C78.2436 90.3526 77.1226 90.6049 75.9903 90.5817C74.858 90.5585 73.7483 90.2604 72.7568 89.7131L72.4001 89.5165C71.5498 89.0461 70.5977 88.7897 69.6262 88.7694C68.6546 88.7491 67.6927 88.9654 66.8234 89.3998L65.7751 89.9265C64.8037 90.4092 63.7332 90.6591 62.6484 90.6565ZM55.8868 87.8115C56.9716 87.8121 58.0414 88.0649 59.0118 88.5498L59.9684 89.0281C60.8013 89.4416 61.7186 89.6568 62.6484 89.6568C63.5783 89.6568 64.4956 89.4416 65.3284 89.0281L66.3718 88.5065C67.3852 88.0013 68.5061 87.7495 69.6382 87.7727C70.7703 87.796 71.8799 88.0935 72.8718 88.6398L73.2284 88.8365C74.0788 89.3068 75.0308 89.5632 76.0024 89.5835C76.9739 89.6039 77.9358 89.3875 78.8051 88.9531L79.6118 88.5498C80.6503 88.0259 81.8035 87.7707 82.966 87.8074C84.1286 87.8441 85.2634 88.1715 86.2668 88.7598C87.111 89.2511 88.0624 89.5288 89.0383 89.5689C90.0142 89.609 90.9851 89.4102 91.8668 88.9898L92.9534 88.4715C93.204 88.3526 93.4611 88.248 93.7234 88.1581C94.683 87.8328 95.702 87.7205 96.7094 87.829C97.7168 87.9375 98.6885 88.2642 99.5568 88.7865C99.7846 88.9222 100.022 89.0414 100.267 89.1431C100.916 89.4142 101.612 89.553 102.315 89.5515C103.196 89.5511 104.064 89.3324 104.84 88.9148L105.258 88.6898C105.66 88.4741 106.081 88.2956 106.515 88.1565L122.132 63.7331L83.5018 37.3515C82.9986 37.0067 82.4052 36.8175 81.7953 36.8075C81.1854 36.7974 80.5861 36.9669 80.0718 37.2948L51.6484 55.3681V89.1148C51.8948 89.0154 52.1338 88.8984 52.3634 88.7648C53.4329 88.141 54.6487 87.8121 55.8868 87.8115Z" fill="#171718"/>
<path d="M93.8861 88.6363C93.6419 88.7199 93.4026 88.8173 93.1694 88.928L92.0827 89.4463C91.1276 89.9016 90.0757 90.1168 89.0184 90.0732C87.9612 90.0297 86.9306 89.7287 86.0161 89.1963C85.0856 88.6536 84.0347 88.3511 82.9581 88.3162C81.8814 88.2813 80.8131 88.515 79.8494 88.9963L79.0428 89.3997C78.1008 89.8696 77.0589 90.1037 76.0065 90.082C74.9541 90.0602 73.9227 89.7832 73.0011 89.2747L72.6444 89.078C71.7228 88.5695 70.6914 88.2925 69.639 88.2707C68.5866 88.249 67.5447 88.4831 66.6028 88.953L65.5594 89.4747C64.6578 89.9248 63.6638 90.1591 62.6561 90.1591C61.6483 90.1591 60.6544 89.9248 59.7528 89.4747L58.7961 88.9963C57.8324 88.5152 56.764 88.2815 55.6875 88.3164C54.6109 88.3514 53.5599 88.6538 52.6294 89.1963C51.7236 89.7243 50.6962 90.0077 49.6478 90.0188C48.5994 90.0299 47.5662 89.7683 46.6494 89.2597L46.4728 89.163C45.5052 88.6283 44.4201 88.3422 43.3147 88.3303C42.2093 88.3184 41.1183 88.581 40.1394 89.0947L39.8461 89.248C38.8672 89.7617 37.7762 90.0243 36.6708 90.0124C35.5654 90.0005 34.4803 89.7144 33.5128 89.1797L33.4428 89.1413C32.4844 88.6119 31.4106 88.3261 30.3159 88.309C29.2211 88.2918 28.1389 88.5439 27.1644 89.043L26.7044 89.278C25.8257 89.7281 24.8579 89.9775 23.8711 90.008C2.20109 58.2963 27.3161 24.093 27.3161 24.093L53.8994 42.1763L55.8161 52.1297L57.1494 59.093C57.6308 61.6104 59.0633 63.8457 61.1494 65.3347L93.8861 88.6363Z" fill="white"/>
<path d="M62.6474 90.6565C61.5627 90.6591 60.4922 90.4092 59.5208 89.9265L58.5641 89.4482C57.6735 89.004 56.6863 88.7883 55.6916 88.8206C54.6968 88.8529 53.7257 89.1321 52.8658 89.6331C51.8867 90.2048 50.776 90.5123 49.6424 90.5254C48.5087 90.5385 47.3911 90.2569 46.3991 89.7081L46.2241 89.6115C45.3288 89.1151 44.3241 88.8494 43.3005 88.8383C42.2768 88.8273 41.2666 89.0712 40.3608 89.5481L40.0658 89.7015C39.0137 90.2551 37.8403 90.5382 36.6515 90.5254C35.4627 90.5126 34.2957 90.2043 33.2558 89.6282L33.1874 89.5898C32.3008 89.0993 31.3071 88.8343 30.2939 88.8183C29.2807 88.8023 28.2791 89.0358 27.3775 89.4981L26.9175 89.7332C25.974 90.2147 24.9361 90.4827 23.8775 90.5181L23.6041 90.5265L23.4491 90.2998C18.4591 82.9948 15.5375 74.9465 14.7641 66.3831C14.1475 59.5381 14.8941 52.3531 16.9841 45.0265C20.5375 32.5698 26.8474 23.8881 26.9108 23.8015L27.1958 23.4131L54.3491 41.8798L57.6358 58.9915C58.0893 61.3877 59.4537 63.5149 61.4424 64.9265L94.9674 88.7948L94.0458 89.1098C93.8184 89.1866 93.5958 89.2767 93.3791 89.3798L92.2924 89.8981C91.2637 90.3883 90.1309 90.6199 88.9923 90.5729C87.8538 90.5258 86.7439 90.2015 85.7591 89.6282C84.9 89.1248 83.9286 88.8442 82.9334 88.8119C81.9382 88.7796 80.9508 88.9966 80.0608 89.4431L79.2541 89.8465C78.241 90.3526 77.12 90.6049 75.9877 90.5817C74.8554 90.5585 73.7457 90.2604 72.7541 89.7131L72.3974 89.5165C71.5471 89.0461 70.5951 88.7897 69.6235 88.7694C68.652 88.7491 67.6901 88.9655 66.8208 89.3998L65.7741 89.9265C64.8027 90.4092 63.7322 90.6591 62.6474 90.6565ZM55.8858 87.8115C56.9706 87.8121 58.0404 88.0649 59.0108 88.5498L59.9674 89.0281C60.8003 89.4417 61.7176 89.6568 62.6474 89.6568C63.5773 89.6568 64.4946 89.4417 65.3274 89.0281L66.3708 88.5065C67.3842 88.0013 68.5051 87.7495 69.6372 87.7728C70.7693 87.796 71.8789 88.0935 72.8708 88.6398L73.2274 88.8365C74.0778 89.3068 75.0298 89.5632 76.0014 89.5835C76.9729 89.6039 77.9348 89.3875 78.8041 88.9531L79.6108 88.5498C80.6493 88.0259 81.8025 87.7707 82.965 87.8074C84.1276 87.8441 85.2624 88.1715 86.2658 88.7598C87.11 89.2511 88.0614 89.5288 89.0373 89.5689C90.0132 89.609 90.9841 89.4102 91.8658 88.9898L92.8658 88.5165L60.8658 65.7298C58.6661 64.1743 57.1543 61.8274 56.6474 59.1815L53.4458 42.4731L27.4458 24.7831C26.1958 26.5998 21.0191 34.5215 17.9458 45.3281C14.7408 56.5815 13.2258 73.3565 24.1275 89.4948C24.9449 89.4291 25.7412 89.2026 26.4708 88.8281L26.9308 88.5931C27.9777 88.0551 29.1411 87.7832 30.3181 87.8015C31.4951 87.8198 32.6494 88.1278 33.6791 88.6982L33.7475 88.7365C34.6427 89.2329 35.6475 89.4986 36.6711 89.5096C37.6947 89.5207 38.705 89.2767 39.6108 88.7998L39.9058 88.6465C40.9579 88.0929 42.1312 87.8097 43.3201 87.8225C44.5089 87.8353 45.6758 88.1437 46.7158 88.7198L46.8825 88.8165C47.7235 89.281 48.6707 89.5195 49.6314 89.5087C50.5922 89.4979 51.5337 89.2381 52.3641 88.7548C53.4341 88.1348 54.6492 87.8093 55.8858 87.8115Z" fill="#171718"/>
<path d="M90.1991 53.9782C90.1984 55.057 89.9029 56.1151 89.3444 57.0381C88.786 57.9611 87.9859 58.7139 87.0306 59.2152C86.0753 59.7164 85.0012 59.947 83.9243 59.882C82.8475 59.8171 81.8089 59.459 80.9208 58.8465L63.8008 47.0482L74.9958 39.9265L87.7541 49.1782C88.513 49.7271 89.1305 50.4486 89.5557 51.2832C89.9808 52.1178 90.2013 53.0416 90.1991 53.9782Z" fill="white"/>
<path d="M84.2679 60.3833C82.9713 60.3866 81.7045 59.9947 80.6362 59.2599L62.8945 47.0316L75.0129 39.325L88.0462 48.7766C89.1456 49.5719 89.9644 50.6955 90.3847 51.9856C90.805 53.2758 90.8052 54.6661 90.3852 55.9563C89.9651 57.2466 89.1466 58.3704 88.0473 59.1659C86.9481 59.9614 85.6248 60.3876 84.2679 60.3833ZM64.7045 47.065L81.2045 58.4349C82.3786 59.2075 83.8069 59.4937 85.1879 59.233C86.569 58.9724 87.7947 58.1853 88.6064 57.038C89.4181 55.8906 89.7522 54.4728 89.5382 53.0838C89.3242 51.6947 88.5789 50.4432 87.4595 49.5933L74.9795 40.5349L64.7045 47.065Z" fill="#171718"/>
<path d="M98.0638 68.9265C101.424 68.9265 104.147 66.2029 104.147 62.8432C104.147 59.4834 101.424 56.7598 98.0638 56.7598C94.7041 56.7598 91.9805 59.4834 91.9805 62.8432C91.9805 66.2029 94.7041 68.9265 98.0638 68.9265Z" fill="white"/>
<path d="M98.0638 69.4265C96.7617 69.4265 95.4889 69.0404 94.4063 68.317C93.3237 67.5936 92.4799 66.5654 91.9816 65.3625C91.4833 64.1595 91.3529 62.8359 91.607 61.5588C91.861 60.2818 92.488 59.1087 93.4087 58.188C94.3294 57.2673 95.5024 56.6403 96.7795 56.3863C98.0565 56.1323 99.3802 56.2627 100.583 56.761C101.786 57.2592 102.814 58.103 103.538 59.1857C104.261 60.2683 104.647 61.5411 104.647 62.8432C104.645 64.5885 103.951 66.2617 102.716 67.4958C101.482 68.73 99.8091 69.4243 98.0638 69.4265ZM98.0638 57.2598C96.9595 57.2598 95.88 57.5873 94.9619 58.2008C94.0437 58.8143 93.3281 59.6863 92.9055 60.7065C92.4829 61.7267 92.3723 62.8494 92.5878 63.9324C92.8032 65.0155 93.335 66.0103 94.1158 66.7912C94.8966 67.572 95.8915 68.1038 96.9746 68.3192C98.0576 68.5347 99.1802 68.4241 100.2 68.0015C101.221 67.5789 102.093 66.8633 102.706 65.9451C103.32 65.0269 103.647 63.9474 103.647 62.8432C103.645 61.3629 103.057 59.9438 102.01 58.8971C100.963 57.8504 99.5441 57.2616 98.0638 57.2598Z" fill="#171718"/>
<path d="M111.232 77.9267C114.592 77.9267 117.315 75.2031 117.315 71.8433C117.315 68.4836 114.592 65.76 111.232 65.76C107.872 65.76 105.148 68.4836 105.148 71.8433C105.148 75.2031 107.872 77.9267 111.232 77.9267Z" fill="white"/>
<path d="M111.232 78.4265C109.93 78.4265 108.657 78.0404 107.574 77.317C106.492 76.5936 105.648 75.5655 105.15 74.3625C104.651 73.1596 104.521 71.8359 104.775 70.5588C105.029 69.2818 105.656 68.1088 106.577 67.1881C107.497 66.2674 108.67 65.6404 109.947 65.3863C111.224 65.1323 112.548 65.2627 113.751 65.761C114.954 66.2593 115.982 67.1031 116.706 68.1857C117.429 69.2683 117.815 70.5411 117.815 71.8432C117.813 73.5885 117.119 75.2617 115.884 76.4959C114.65 77.73 112.977 78.4243 111.232 78.4265ZM111.232 66.2598C110.127 66.2598 109.048 66.5873 108.13 67.2008C107.212 67.8143 106.496 68.6863 106.073 69.7065C105.651 70.7268 105.54 71.8494 105.756 72.9324C105.971 74.0155 106.503 75.0103 107.284 75.7912C108.065 76.572 109.059 77.1038 110.143 77.3192C111.226 77.5347 112.348 77.4241 113.368 77.0015C114.389 76.5789 115.261 75.8633 115.874 74.9451C116.488 74.0269 116.815 72.9475 116.815 71.8432C116.813 70.3629 116.225 68.9438 115.178 67.8971C114.131 66.8504 112.712 66.2616 111.232 66.2598ZM128.482 61.2598L138.315 48.9265L153.315 59.5932L144.815 72.2598L128.482 61.2598Z" fill="#171718"/>
<path d="M151.149 70.76L139.109 89.3233L138.532 89.035C137.54 88.5387 136.442 88.2914 135.333 88.3143C134.224 88.3372 133.138 88.6298 132.167 89.1667C131.187 89.7088 130.088 90.0017 128.968 90.0194C127.848 90.0371 126.741 89.7792 125.744 89.2683L125.305 89.0433C124.33 88.5433 123.249 88.2852 122.153 88.2907C121.057 88.2962 119.979 88.5652 119.009 89.075L118.622 89.2783C117.652 89.7881 116.573 90.0571 115.478 90.0627C114.382 90.0682 113.301 89.81 112.325 89.31L111.845 89.0633C110.296 88.2695 108.501 88.0972 106.829 88.5817C106.363 88.7169 105.914 88.9006 105.487 89.13L105.069 89.355C104.308 89.7646 103.467 90 102.604 90.0441C101.742 90.0882 100.88 89.9399 100.082 89.61L120.415 61.9567L126.815 53.26L151.149 70.76Z" fill="white"/>
<path d="M115.442 90.5598C114.279 90.5616 113.132 90.2875 112.096 89.7598L111.616 89.5131C110.18 88.7756 108.517 88.6158 106.967 89.0665C106.536 89.1921 106.119 89.3624 105.722 89.5748L105.304 89.7998C104.479 90.2447 103.564 90.5003 102.628 90.5482C101.691 90.596 100.756 90.4349 99.8891 90.0765L99.3008 89.8331L126.704 52.5648L151.826 70.6315L139.284 89.9648L138.314 89.4815C137.395 89.0216 136.377 88.7925 135.349 88.814C134.321 88.8355 133.314 89.1069 132.414 89.6048C131.362 90.1865 130.183 90.5007 128.981 90.5196C127.779 90.5384 126.591 90.2615 125.521 89.7131L125.082 89.4881C124.179 89.0265 123.177 88.7882 122.162 88.7935C121.147 88.7987 120.148 89.0472 119.249 89.5181L118.862 89.7215C117.807 90.2742 116.634 90.5619 115.442 90.5598ZM108.734 87.8098C109.894 87.811 111.036 88.088 112.067 88.6182L112.547 88.8648C113.451 89.3265 114.453 89.5647 115.468 89.5595C116.483 89.5543 117.482 89.3058 118.381 88.8348L118.766 88.6315C119.808 88.0859 120.965 87.7982 122.141 87.7924C123.317 87.7866 124.477 88.0629 125.524 88.5982L125.962 88.8231C126.887 89.2965 127.913 89.5354 128.951 89.5189C129.989 89.5023 131.007 89.2308 131.916 88.7281C132.958 88.1517 134.125 87.8378 135.315 87.8134C136.506 87.789 137.684 88.0549 138.749 88.5881L138.926 88.6765L150.464 70.8882L126.924 53.9548L100.886 89.3598C102.21 89.7181 103.62 89.559 104.831 88.9148L105.249 88.6898C106.32 88.1129 107.518 87.8105 108.734 87.8098Z" fill="#171718"/>
<path d="M44.0664 88.5061L60.7403 64.9829L61.5561 65.5611L44.8822 89.0844L44.0664 88.5061Z" fill="#171718"/>
<path d="M61.3971 75.5932C61.0181 75.5932 60.6475 75.4808 60.3323 75.2701C60.0171 75.0595 59.7714 74.7602 59.6264 74.41C59.4813 74.0598 59.4433 73.6744 59.5173 73.3026C59.5913 72.9308 59.7738 72.5893 60.0418 72.3212C60.3099 72.0532 60.6514 71.8706 61.0232 71.7967C61.395 71.7227 61.7804 71.7607 62.1306 71.9057C62.4808 72.0508 62.7802 72.2965 62.9908 72.6117C63.2014 72.9269 63.3138 73.2974 63.3138 73.6765C63.3134 74.1847 63.1113 74.6719 62.7519 75.0313C62.3926 75.3906 61.9053 75.5927 61.3971 75.5932ZM61.3971 72.7598C61.2158 72.7598 61.0386 72.8136 60.8879 72.9143C60.7371 73.015 60.6196 73.1582 60.5502 73.3257C60.4809 73.4932 60.4627 73.6775 60.4981 73.8553C60.5335 74.0331 60.6208 74.1965 60.749 74.3247C60.8771 74.4529 61.0405 74.5402 61.2183 74.5756C61.3961 74.6109 61.5804 74.5928 61.7479 74.5234C61.9154 74.454 62.0586 74.3365 62.1593 74.1858C62.26 74.035 62.3138 73.8578 62.3138 73.6765C62.3134 73.4335 62.2166 73.2006 62.0448 73.0288C61.873 72.857 61.6401 72.7603 61.3971 72.7598ZM57.7305 81.0932C57.3514 81.0932 56.9808 80.9808 56.6656 80.7701C56.3504 80.5595 56.1048 80.2602 55.9597 79.91C55.8146 79.5598 55.7767 79.1744 55.8506 78.8026C55.9246 78.4308 56.1071 78.0893 56.3752 77.8212C56.6432 77.5532 56.9847 77.3706 57.3565 77.2967C57.7283 77.2227 58.1137 77.2607 58.4639 77.4057C58.8142 77.5508 59.1135 77.7965 59.3241 78.1117C59.5347 78.4269 59.6471 78.7974 59.6471 79.1765C59.6467 79.6847 59.4446 80.1719 59.0853 80.5313C58.7259 80.8906 58.2387 81.0927 57.7305 81.0932ZM57.7305 78.2598C57.5492 78.2598 57.3719 78.3136 57.2212 78.4143C57.0705 78.515 56.953 78.6582 56.8836 78.8257C56.8142 78.9932 56.796 79.1775 56.8314 79.3553C56.8668 79.5331 56.9541 79.6965 57.0823 79.8247C57.2105 79.9529 57.3738 80.0402 57.5516 80.0756C57.7295 80.1109 57.9138 80.0928 58.0813 80.0234C58.2488 79.954 58.3919 79.8365 58.4927 79.6858C58.5934 79.535 58.6471 79.3578 58.6471 79.1765C58.6467 78.9335 58.55 78.7006 58.3782 78.5288C58.2064 78.357 57.9734 78.2603 57.7305 78.2598ZM53.8971 86.4265C53.5181 86.4265 53.1475 86.3141 52.8323 86.1035C52.5171 85.8929 52.2714 85.5935 52.1264 85.2433C51.9813 84.8931 51.9433 84.5077 52.0173 84.1359C52.0913 83.7641 52.2738 83.4226 52.5418 83.1545C52.8099 82.8865 53.1514 82.7039 53.5232 82.63C53.895 82.556 54.2804 82.594 54.6306 82.7391C54.9808 82.8841 55.2802 83.1298 55.4908 83.445C55.7014 83.7602 55.8138 84.1307 55.8138 84.5098C55.8134 85.018 55.6113 85.5053 55.2519 85.8646C54.8926 86.224 54.4053 86.4261 53.8971 86.4265ZM53.8971 83.5932C53.7158 83.5932 53.5386 83.6469 53.3879 83.7477C53.2371 83.8484 53.1196 83.9915 53.0502 84.159C52.9809 84.3265 52.9627 84.5108 52.9981 84.6887C53.0335 84.8665 53.1208 85.0298 53.249 85.158C53.3771 85.2862 53.5405 85.3735 53.7183 85.4089C53.8961 85.4443 54.0804 85.4261 54.2479 85.3567C54.4154 85.2873 54.5586 85.1699 54.6593 85.0191C54.76 84.8684 54.8138 84.6911 54.8138 84.5098C54.8134 84.2669 54.7166 84.0339 54.5448 83.8621C54.373 83.6903 54.1401 83.5936 53.8971 83.5932Z" fill="#171718"/>
<path d="M42.1484 8.92651C42.7007 8.92651 43.1484 8.4788 43.1484 7.92651C43.1484 7.37423 42.7007 6.92651 42.1484 6.92651C41.5962 6.92651 41.1484 7.37423 41.1484 7.92651C41.1484 8.4788 41.5962 8.92651 42.1484 8.92651Z" fill="white"/>
<path d="M42.1484 9.42651C41.8518 9.42651 41.5618 9.33854 41.3151 9.17372C41.0684 9.00889 40.8761 8.77463 40.7626 8.50054C40.6491 8.22645 40.6194 7.92485 40.6773 7.63388C40.7351 7.34291 40.878 7.07563 41.0878 6.86585C41.2976 6.65608 41.5648 6.51321 41.8558 6.45534C42.1468 6.39746 42.4484 6.42716 42.7225 6.54069C42.9966 6.65423 43.2308 6.84649 43.3956 7.09316C43.5605 7.33983 43.6484 7.62984 43.6484 7.92651C43.6484 8.32434 43.4904 8.70587 43.2091 8.98717C42.9278 9.26848 42.5463 9.42651 42.1484 9.42651ZM42.1484 7.42651C42.0495 7.42651 41.9529 7.45584 41.8707 7.51078C41.7884 7.56572 41.7243 7.64381 41.6865 7.73517C41.6487 7.82654 41.6388 7.92707 41.658 8.02406C41.6773 8.12105 41.725 8.21014 41.7949 8.28006C41.8648 8.34999 41.9539 8.39761 42.0509 8.4169C42.1479 8.4362 42.2484 8.4263 42.3398 8.38845C42.4311 8.35061 42.5092 8.28652 42.5642 8.2043C42.6191 8.12207 42.6484 8.0254 42.6484 7.92651C42.6484 7.7939 42.5958 7.66673 42.502 7.57296C42.4082 7.47919 42.281 7.42651 42.1484 7.42651Z" fill="#171718"/>
<path d="M140.488 58.6091L153.533 37.087L154.388 37.6053L141.343 59.1275L140.488 58.6091Z" fill="#171718"/>
<path d="M153.007 39.6881L165.871 47.4831L159.901 49.5498L160.832 55.7964L147.969 48.0014C147.804 47.9021 147.66 47.7711 147.545 47.616C147.43 47.461 147.347 47.2848 147.301 47.0976C147.255 46.9105 147.245 46.716 147.274 46.5253C147.303 46.3346 147.369 46.1515 147.469 45.9864L150.987 40.1831C151.087 40.0176 151.218 39.8734 151.374 39.7589C151.53 39.6443 151.707 39.5617 151.894 39.5157C152.082 39.4697 152.277 39.4612 152.468 39.4908C152.659 39.5204 152.842 39.5875 153.007 39.6881Z" fill="#E0F2FE"/>
<path d="M161.482 56.7762L147.712 48.4262C147.491 48.2927 147.298 48.1169 147.145 47.9088C146.992 47.7007 146.881 47.4645 146.819 47.2136C146.757 46.9627 146.745 46.702 146.784 46.4465C146.823 46.191 146.912 45.9457 147.046 45.7246L150.566 39.9262C150.836 39.4797 151.272 39.1587 151.778 39.0336C152.285 38.9086 152.821 38.9899 153.267 39.2596L167.042 47.6062L160.457 49.8846L161.482 56.7762ZM152.247 39.9762C152.08 39.975 151.915 40.0172 151.769 40.0987C151.623 40.1803 151.501 40.2983 151.414 40.4412L147.897 46.2462C147.831 46.3556 147.787 46.4769 147.768 46.6032C147.749 46.7295 147.755 46.8584 147.786 46.9823C147.817 47.1062 147.873 47.2228 147.949 47.3253C148.025 47.4278 148.121 47.5142 148.231 47.5796L160.182 54.8229L159.349 49.2162L164.706 47.3646L152.754 40.1212C152.603 40.0274 152.429 39.9772 152.251 39.9762H152.247Z" fill="#171718"/>
<path d="M153.98 38.2598C154.533 38.2598 154.98 37.8121 154.98 37.2598C154.98 36.7075 154.533 36.2598 153.98 36.2598C153.428 36.2598 152.98 36.7075 152.98 37.2598C152.98 37.8121 153.428 38.2598 153.98 38.2598Z" fill="white"/>
<path d="M153.98 38.7598C153.684 38.7598 153.394 38.6719 153.147 38.507C152.9 38.3422 152.708 38.1079 152.595 37.8339C152.481 37.5598 152.451 37.2582 152.509 36.9672C152.567 36.6762 152.71 36.4089 152.92 36.1992C153.13 35.9894 153.397 35.8465 153.688 35.7886C153.979 35.7308 154.28 35.7605 154.554 35.874C154.829 35.9875 155.063 36.1798 155.228 36.4265C155.393 36.6731 155.48 36.9632 155.48 37.2598C155.48 37.6577 155.322 38.0392 155.041 38.3205C154.76 38.6018 154.378 38.7598 153.98 38.7598ZM153.98 36.7598C153.882 36.7598 153.785 36.7891 153.703 36.8441C153.62 36.899 153.556 36.9771 153.519 37.0685C153.481 37.1598 153.471 37.2604 153.49 37.3574C153.509 37.4544 153.557 37.5435 153.627 37.6134C153.697 37.6833 153.786 37.7309 153.883 37.7502C153.98 37.7695 154.08 37.7596 154.172 37.7218C154.263 37.6839 154.341 37.6198 154.396 37.5376C154.451 37.4554 154.48 37.3587 154.48 37.2598C154.48 37.1272 154.428 37 154.334 36.9063C154.24 36.8125 154.113 36.7598 153.98 36.7598Z" fill="#171718"/>
</svg>
