<svg width="124" height="110" viewBox="0 0 124 110" fill="none" xmlns="http://www.w3.org/2000/svg">
<path d="M22.5428 48.973C22.8294 48.4719 23.3222 48.1224 24.0211 47.9247C24.9179 47.7051 25.8398 47.6059 26.7628 47.6297C27.8906 47.6297 28.795 47.7458 29.4761 47.978C30.1572 48.2102 30.6411 48.5869 30.9278 49.108C31.1862 49.546 31.3593 50.0289 31.4378 50.5313C31.5018 51.1564 31.5291 51.7847 31.5194 52.413V82.298C31.5194 83.6947 31.3489 84.7247 31.0078 85.388C30.8539 85.7038 30.6358 85.984 30.3675 86.2107C30.0992 86.4374 29.7865 86.6057 29.4494 86.7047C28.6011 86.9395 27.7228 87.0484 26.8428 87.028C25.8028 87.028 24.9789 86.938 24.3711 86.758C23.8694 86.6306 23.3954 86.412 22.9728 86.113C22.6333 85.8365 22.3891 85.4605 22.2744 85.038C22.0589 84.4291 21.9511 83.4974 21.9511 82.243V75.6863H7.38611C4.87722 75.6863 3.39 75.0058 2.92444 73.6447C2.72256 72.8913 2.63216 72.1125 2.65611 71.333C2.63766 70.6125 2.69351 69.892 2.82278 69.183L7.28444 51.183C7.5 50.3597 7.68833 49.7324 7.84944 49.3013C8.05384 48.8102 8.38516 48.3822 8.80944 48.0613C9.33847 47.6512 9.99563 47.4416 10.6644 47.4697C11.5038 47.4808 12.3377 47.607 13.1428 47.8447C15.6506 48.5247 16.905 49.6713 16.9061 51.2847C16.8751 52.0496 16.7486 52.8078 16.5294 53.5413C16.4996 53.5923 16.4814 53.6492 16.4761 53.708L13.1978 66.823H21.9578V52.1563C21.9466 51.5441 21.9738 50.9318 22.0394 50.323C22.1204 49.8452 22.2912 49.3871 22.5428 48.973Z" fill="#171718"/>
<path d="M20.7068 48.973C20.9935 48.4719 21.4863 48.1224 22.1852 47.9247C23.0819 47.7051 24.0039 47.6059 24.9268 47.6297C26.0546 47.6297 26.9591 47.7458 27.6402 47.978C28.3213 48.2102 28.8052 48.5869 29.0918 49.108C29.3503 49.546 29.5233 50.0289 29.6018 50.5313C29.6659 51.1564 29.6932 51.7847 29.6835 52.413V82.298C29.6835 83.6947 29.513 84.7247 29.1718 85.388C29.018 85.7038 28.7999 85.984 28.5316 86.2107C28.2632 86.4374 27.9506 86.6057 27.6135 86.7047C26.7651 86.9395 25.8869 87.0484 25.0068 87.028C23.9668 87.028 23.143 86.938 22.5352 86.758C22.0334 86.6306 21.5594 86.412 21.1368 86.113C20.7974 85.8365 20.5531 85.4605 20.4385 85.038C20.2229 84.4291 20.1152 83.4974 20.1152 82.243V75.6863H5.55017C3.04128 75.6863 1.55406 75.0058 1.0885 73.6447C0.886627 72.8913 0.796222 72.1125 0.820171 71.333C0.801721 70.6125 0.857571 69.892 0.986838 69.183L5.44851 51.183C5.66406 50.3597 5.85239 49.7324 6.01351 49.3013C6.2179 48.8102 6.54922 48.3822 6.9735 48.0613C7.50253 47.6512 8.15969 47.4416 8.82851 47.4697C9.66787 47.4808 10.5017 47.607 11.3068 47.8447C13.8146 48.5247 15.0691 49.6713 15.0702 51.2847C15.0392 52.0496 14.9127 52.8078 14.6935 53.5413C14.6637 53.5923 14.6455 53.6492 14.6402 53.708L11.3618 66.823H20.1218V52.1563C20.1106 51.5441 20.1379 50.9318 20.2035 50.323C20.2844 49.8452 20.4552 49.3871 20.7068 48.973Z" fill="white"/>
<path d="M25.0085 87.5281C23.9085 87.5281 23.0535 87.4331 22.3951 87.2381C21.8332 87.0941 21.303 86.8465 20.8318 86.5081C20.4131 86.1713 20.1101 85.7122 19.9651 85.1948C19.7318 84.5281 19.6168 83.5614 19.6168 82.2431V76.1864H5.55182C2.81681 76.1864 1.15681 75.3848 0.616815 73.8048C0.416815 73.1681 0.321814 72.3631 0.321814 71.3331C0.297826 70.5749 0.35369 69.8163 0.48848 69.0698L4.95848 51.0614C5.18181 50.2048 5.37181 49.5748 5.54015 49.1248C5.77871 48.5514 6.1652 48.0516 6.66015 47.6764C7.27737 47.1948 8.0444 46.9458 8.82681 46.9731C9.70953 46.9867 10.5864 47.1196 11.4335 47.3681C14.1718 48.1114 15.5618 49.4314 15.5618 51.2898C15.5325 52.0988 15.4004 52.9008 15.1685 53.6764L15.1551 53.7248L15.1318 53.7698L15.1185 53.8248L11.9951 66.3248H19.6151V52.1581C19.6043 51.5253 19.6327 50.8924 19.7001 50.2631C19.7914 49.7192 19.9866 49.1981 20.2751 48.7281C20.6268 48.1114 21.2251 47.6798 22.0501 47.4464C22.9915 47.2153 23.9594 47.1099 24.9285 47.1331C26.1051 47.1331 27.0735 47.2598 27.8035 47.5081C28.6018 47.7831 29.1835 48.2398 29.5318 48.8681C29.82 49.3628 30.0128 49.9072 30.1001 50.4731C30.1663 51.1187 30.1947 51.7676 30.1851 52.4164V82.2981C30.1851 83.7981 30.0001 84.8748 29.6185 85.6164C29.4343 85.9919 29.1742 86.325 28.8546 86.5947C28.535 86.8644 28.1629 87.0647 27.7618 87.1831C26.8658 87.432 25.9382 87.5482 25.0085 87.5281ZM8.83015 47.9681C8.27684 47.9399 7.73154 48.1094 7.29181 48.4464C6.9355 48.7113 6.65456 49.0646 6.47681 49.4714C6.32181 49.8814 6.14348 50.4981 5.92681 51.3048L1.47515 69.3031C1.35786 69.9731 1.30872 70.6532 1.32848 71.3331C1.30488 72.0634 1.3874 72.7932 1.57348 73.4998C1.95681 74.6181 3.29848 75.1914 5.55848 75.1914H20.6235V82.2481C20.6235 83.4398 20.7235 84.3248 20.9185 84.8781V84.8981C21.0002 85.2251 21.1849 85.5173 21.4451 85.7314C21.8182 85.992 22.2355 86.1823 22.6768 86.2931C23.2351 86.4598 24.0201 86.5414 25.0101 86.5414C25.8427 86.558 26.6732 86.4524 27.4751 86.2281C27.7485 86.1487 28.002 86.0127 28.2194 85.8289C28.4368 85.6452 28.613 85.4177 28.7368 85.1614C29.0385 84.5731 29.1918 83.6098 29.1918 82.2998V52.4131C29.2003 51.8055 29.1747 51.1979 29.1151 50.5931C29.0419 50.1538 28.8882 49.7317 28.6618 49.3481C28.4351 48.9381 28.0501 48.6448 27.4868 48.4514C26.8601 48.2381 26.0018 48.1298 24.9351 48.1298C24.0579 48.1072 23.1815 48.2002 22.3285 48.4064C21.7568 48.5731 21.3701 48.8348 21.1501 49.2214C20.9298 49.5792 20.7778 49.9748 20.7018 50.3881C20.6409 50.9727 20.6153 51.5604 20.6251 52.1481V67.3148H10.7151L14.1418 53.6181C14.1559 53.5317 14.1817 53.4476 14.2185 53.3681C14.4198 52.6906 14.5368 51.9909 14.5668 51.2848C14.5668 49.9148 13.4568 48.9514 11.1735 48.3264C10.4121 48.1019 9.62384 47.9814 8.83015 47.9681ZM114.708 48.9731C114.995 48.472 115.488 48.1225 116.187 47.9248C117.084 47.7052 118.006 47.606 118.928 47.6298C120.056 47.6298 120.961 47.7459 121.642 47.9781C122.323 48.2103 122.807 48.587 123.093 49.1081C123.352 49.5461 123.525 50.029 123.603 50.5314C123.668 51.1565 123.695 51.7848 123.685 52.4131V82.2981C123.685 83.6948 123.515 84.7248 123.173 85.3881C123.02 85.7039 122.802 85.9841 122.533 86.2108C122.265 86.4375 121.952 86.6058 121.615 86.7048C120.767 86.9396 119.889 87.0485 119.008 87.0281C117.968 87.0281 117.145 86.9381 116.537 86.7581C116.035 86.6307 115.561 86.4121 115.138 86.1131C114.799 85.8366 114.555 85.4606 114.44 85.0381C114.226 84.4292 114.118 83.4975 114.117 82.2431V75.6864H99.5518C97.0429 75.6864 95.5557 75.0059 95.0901 73.6448C94.8883 72.8915 94.7979 72.1126 94.8218 71.3331C94.8034 70.6126 94.8592 69.8921 94.9885 69.1831L99.4501 51.1831C99.6657 50.3598 99.854 49.7325 100.015 49.3014C100.22 48.8103 100.551 48.3823 100.975 48.0614C101.504 47.6513 102.161 47.4417 102.83 47.4698C103.67 47.4809 104.503 47.6071 105.308 47.8448C107.816 48.5248 109.071 49.6714 109.072 51.2848C109.041 52.0498 108.914 52.8079 108.695 53.5414C108.665 53.5924 108.647 53.6493 108.642 53.7081L105.363 66.8231H114.123V52.1564C114.112 51.5442 114.14 50.9319 114.205 50.3231C114.286 49.8453 114.457 49.3872 114.708 48.9731Z" fill="#171718"/>
<path d="M112.875 48.973C113.161 48.4719 113.654 48.1224 114.353 47.9247C115.25 47.7051 116.172 47.6059 117.095 47.6297C118.223 47.6297 119.127 47.7458 119.808 47.978C120.489 48.2102 120.973 48.5869 121.26 49.108C121.518 49.546 121.691 50.0289 121.77 50.5313C121.834 51.1564 121.861 51.7847 121.851 52.413V82.298C121.851 83.6947 121.681 84.7247 121.34 85.388C121.186 85.7038 120.968 85.984 120.7 86.2107C120.431 86.4374 120.119 86.6057 119.781 86.7047C118.933 86.9395 118.055 87.0484 117.175 87.028C116.135 87.028 115.311 86.938 114.703 86.758C114.201 86.6306 113.727 86.412 113.305 86.113C112.965 85.8365 112.721 85.4605 112.606 85.038C112.392 84.4291 112.284 83.4974 112.283 82.243V75.6863H97.7181C95.2093 75.6863 93.722 75.0058 93.2565 73.6447C93.0546 72.8913 92.9642 72.1125 92.9881 71.333C92.9697 70.6125 93.0255 69.892 93.1548 69.183L97.6165 51.183C97.832 50.3597 98.0204 49.7324 98.1815 49.3013C98.3859 48.8102 98.7172 48.3822 99.1415 48.0613C99.6705 47.6512 100.328 47.4416 100.996 47.4697C101.836 47.4808 102.67 47.607 103.475 47.8447C105.983 48.5247 107.237 49.6713 107.238 51.2847C107.207 52.0496 107.081 52.8078 106.861 53.5413C106.832 53.5923 106.813 53.6492 106.808 53.708L103.53 66.823H112.29V52.1563C112.279 51.5441 112.306 50.9318 112.371 50.323C112.452 49.8452 112.623 49.3871 112.875 48.973Z" fill="white"/>
<path d="M117.176 87.5281C116.076 87.5281 115.221 87.4331 114.563 87.2381C114.001 87.0941 113.471 86.8465 113 86.5081C112.581 86.1713 112.278 85.7122 112.133 85.1948C111.9 84.5281 111.785 83.5614 111.785 82.2431V76.1864H97.7198C94.9848 76.1864 93.3248 75.3848 92.7848 73.8048C92.5848 73.1681 92.4898 72.3631 92.4898 71.3331C92.4658 70.5749 92.5217 69.8163 92.6564 69.0698L97.1265 51.0614C97.3498 50.2048 97.5398 49.5748 97.7081 49.1248C97.9467 48.5514 98.3332 48.0516 98.8281 47.6764C99.4453 47.1948 100.212 46.9458 100.995 46.9731C101.877 46.9867 102.754 47.1196 103.601 47.3681C106.34 48.1114 107.73 49.4314 107.73 51.2898C107.701 52.0988 107.568 52.9008 107.336 53.6764L107.323 53.7248L107.3 53.7698L107.286 53.8248L104.163 66.3248H111.783V52.1581C111.772 51.5253 111.801 50.8924 111.868 50.2631C111.959 49.7192 112.155 49.1981 112.443 48.7281C112.795 48.1114 113.393 47.6798 114.218 47.4464C115.16 47.2153 116.127 47.1099 117.096 47.1331C118.273 47.1331 119.241 47.2598 119.971 47.5081C120.77 47.7831 121.351 48.2398 121.7 48.8681C121.988 49.3628 122.181 49.9072 122.268 50.4731C122.334 51.1187 122.363 51.7676 122.353 52.4164V82.2981C122.353 83.7981 122.168 84.8748 121.786 85.6164C121.602 85.9919 121.342 86.325 121.023 86.5947C120.703 86.8644 120.331 87.0647 119.93 87.1831C119.034 87.432 118.106 87.5482 117.176 87.5281ZM100.998 47.9681C100.445 47.9399 99.8995 48.1094 99.4598 48.4464C99.1035 48.7113 98.8225 49.0646 98.6448 49.4714C98.4898 49.8814 98.3115 50.4981 98.0948 51.3048L93.6431 69.3031C93.5258 69.9731 93.4767 70.6532 93.4964 71.3331C93.4728 72.0634 93.5554 72.7932 93.7415 73.4998C94.1248 74.6181 95.4664 75.1914 97.7264 75.1914H112.791V82.2481C112.791 83.4398 112.891 84.3248 113.086 84.8781V84.8981C113.168 85.2251 113.353 85.5173 113.613 85.7314C113.986 85.992 114.404 86.1823 114.845 86.2931C115.403 86.4598 116.188 86.5414 117.178 86.5414C118.011 86.558 118.841 86.4524 119.643 86.2281C119.916 86.1487 120.17 86.0127 120.387 85.8289C120.605 85.6452 120.781 85.4177 120.905 85.1614C121.206 84.5731 121.36 83.6098 121.36 82.2998V52.4131C121.368 51.8055 121.343 51.1979 121.283 50.5931C121.21 50.1538 121.056 49.7317 120.83 49.3481C120.603 48.9381 120.218 48.6448 119.655 48.4514C119.028 48.2381 118.17 48.1298 117.103 48.1298C116.226 48.1072 115.349 48.2002 114.496 48.4064C113.925 48.5731 113.538 48.8348 113.318 49.2214C113.098 49.5792 112.946 49.9748 112.87 50.3881C112.809 50.9727 112.783 51.5604 112.793 52.1481V67.3148H102.883L106.31 53.6181C106.324 53.5317 106.35 53.4476 106.386 53.3681C106.588 52.6906 106.705 51.9909 106.735 51.2848C106.735 49.9148 105.625 48.9514 103.341 48.3264C102.58 48.1019 101.792 47.9814 100.998 47.9681Z" fill="#171718"/>
<path d="M93.7002 33.1566L91.9286 32.7699L91.5253 31.0016C91.5184 30.9713 91.5015 30.9442 91.4773 30.9248C91.4531 30.9055 91.423 30.8949 91.3919 30.8949C91.3608 30.8951 91.3306 30.9057 91.3061 30.925C91.2817 30.9444 91.2643 30.9713 91.2569 31.0016L90.8536 32.7782L89.0819 33.1982C89.0514 33.2057 89.0242 33.2233 89.0049 33.2481C88.9855 33.2729 88.9751 33.3034 88.9753 33.3349C88.9754 33.366 88.9863 33.396 89.006 33.42C89.0257 33.444 89.0531 33.4604 89.0836 33.4666L90.8553 33.8532L91.2569 35.6216C91.2643 35.6518 91.2817 35.6788 91.3061 35.6981C91.3306 35.7174 91.3608 35.728 91.3919 35.7282C91.423 35.7282 91.4531 35.7177 91.4773 35.6983C91.5015 35.6789 91.5184 35.6518 91.5253 35.6216L91.9303 33.8449L93.7019 33.4249C93.7331 33.4188 93.7611 33.4022 93.7813 33.3777C93.8015 33.3532 93.8126 33.3225 93.8126 33.2907C93.8126 33.259 93.8015 33.2283 93.7813 33.2038C93.7611 33.1793 93.7331 33.1626 93.7019 33.1566H93.7002ZM20.0336 34.8232L18.2619 34.4366L17.8586 32.6682C17.8518 32.638 17.8349 32.6109 17.8106 32.5915C17.7864 32.5721 17.7563 32.5616 17.7253 32.5616C17.6941 32.5618 17.6639 32.5724 17.6394 32.5917C17.615 32.611 17.5977 32.638 17.5903 32.6682L17.1869 34.4449L15.4153 34.8649C15.3847 34.8724 15.3576 34.8899 15.3382 34.9147C15.3189 34.9395 15.3084 34.9701 15.3086 35.0016C15.3088 35.0326 15.3196 35.0627 15.3393 35.0867C15.3591 35.1106 15.3865 35.1271 15.4169 35.1332L17.1886 35.5199L17.5903 37.2882C17.5977 37.3185 17.615 37.3454 17.6394 37.3647C17.6639 37.3841 17.6941 37.3947 17.7253 37.3949C17.7563 37.3949 17.7864 37.3843 17.8106 37.3649C17.8349 37.3456 17.8518 37.3185 17.8586 37.2882L18.2636 35.5116L20.0353 35.0916C20.0664 35.0855 20.0945 35.0688 20.1147 35.0443C20.1349 35.0199 20.1459 34.9891 20.1459 34.9574C20.1459 34.9257 20.1349 34.8949 20.1147 34.8704C20.0945 34.846 20.0664 34.8293 20.0353 34.8232H20.0336ZM96.9186 25.5616L96.0019 25.3616L95.7952 24.4466C95.7917 24.4306 95.7829 24.4163 95.7702 24.4061C95.7574 24.3958 95.7416 24.3903 95.7253 24.3903C95.7089 24.3903 95.6931 24.3958 95.6803 24.4061C95.6676 24.4163 95.6588 24.4306 95.6553 24.4466L95.4469 25.3666L94.5303 25.5832C94.5145 25.587 94.5005 25.5959 94.4906 25.6087C94.4806 25.6214 94.4752 25.6371 94.4753 25.6532C94.4753 25.6694 94.481 25.6851 94.4914 25.6975C94.5017 25.71 94.516 25.7185 94.5319 25.7216L95.4486 25.9216L95.6553 26.8366C95.6588 26.8525 95.6676 26.8668 95.6803 26.877C95.6931 26.8873 95.7089 26.8929 95.7253 26.8929C95.7416 26.8929 95.7574 26.8873 95.7702 26.877C95.7829 26.8668 95.7917 26.8525 95.7952 26.8366L96.0036 25.9166L96.9202 25.6999C96.9358 25.6959 96.9497 25.6868 96.9596 25.6742C96.9695 25.6615 96.975 25.646 96.9753 25.6299C96.9752 25.6137 96.9695 25.5981 96.9591 25.5856C96.9488 25.5731 96.9345 25.5646 96.9186 25.5616ZM35.3703 103.578L33.6603 103.207L33.2719 101.498C33.2652 101.469 33.2487 101.442 33.2251 101.424C33.2015 101.405 33.1721 101.395 33.1419 101.395C33.1117 101.395 33.0824 101.405 33.0588 101.424C33.0352 101.442 33.0186 101.469 33.0119 101.498L32.6219 103.213L30.9103 103.62C30.8803 103.626 30.8534 103.642 30.8341 103.665C30.8147 103.689 30.8041 103.719 30.8041 103.749C30.8041 103.78 30.8147 103.809 30.8341 103.833C30.8534 103.856 30.8803 103.872 30.9103 103.878L32.6203 104.252L33.0086 105.958C33.0153 105.988 33.0318 106.014 33.0554 106.033C33.0791 106.052 33.1084 106.062 33.1386 106.062C33.1688 106.062 33.1981 106.052 33.2217 106.033C33.2454 106.014 33.2619 105.988 33.2686 105.958L33.6586 104.243L35.3703 103.837C35.4002 103.831 35.4271 103.815 35.4465 103.791C35.4658 103.767 35.4764 103.738 35.4764 103.707C35.4764 103.677 35.4658 103.647 35.4465 103.624C35.4271 103.6 35.4002 103.584 35.3703 103.578ZM39.3086 96.3382L38.1919 96.0949L37.9386 94.9816C37.9334 94.9635 37.9225 94.9475 37.9075 94.9362C37.8924 94.9248 37.8741 94.9187 37.8553 94.9187C37.8364 94.9187 37.8181 94.9248 37.8031 94.9362C37.788 94.9475 37.7771 94.9635 37.7719 94.9816L37.5169 96.0999L36.4003 96.3649C36.381 96.3698 36.364 96.381 36.3519 96.3967C36.3398 96.4124 36.3334 96.4317 36.3336 96.4516C36.3336 96.4712 36.3404 96.4902 36.3529 96.5054C36.3653 96.5206 36.3827 96.531 36.4019 96.5349L37.5186 96.7782L37.7719 97.8932C37.778 97.9105 37.7893 97.9254 37.8042 97.936C37.8191 97.9466 37.837 97.9523 37.8553 97.9523C37.8736 97.9523 37.8914 97.9466 37.9063 97.936C37.9212 97.9254 37.9325 97.9105 37.9386 97.8932L38.1919 96.7732L39.3103 96.5082C39.3294 96.5037 39.3463 96.4928 39.3585 96.4774C39.3706 96.4619 39.3771 96.4428 39.3769 96.4232C39.377 96.4034 39.3702 96.3841 39.3578 96.3686C39.3454 96.3532 39.328 96.3424 39.3086 96.3382Z" fill="#171718"/>
<path d="M84.9045 59.6997H66.4378C62.2653 59.6997 58.8828 63.0822 58.8828 67.2547C58.8828 71.4272 62.2653 74.8097 66.4378 74.8097H84.9045C89.077 74.8097 92.4595 71.4272 92.4595 67.2547C92.4595 63.0822 89.077 59.6997 84.9045 59.6997Z" fill="white"/>
<path d="M84.9061 75.3097H66.4378C64.3015 75.3097 62.2527 74.4611 60.7421 72.9504C59.2315 71.4398 58.3828 69.391 58.3828 67.2547C58.3828 65.1184 59.2315 63.0696 60.7421 61.559C62.2527 60.0484 64.3015 59.1997 66.4378 59.1997H84.9061C87.0425 59.1997 89.0913 60.0484 90.6019 61.559C92.1125 63.0696 92.9611 65.1184 92.9611 67.2547C92.9611 69.391 92.1125 71.4398 90.6019 72.9504C89.0913 74.4611 87.0425 75.3097 84.9061 75.3097ZM66.4378 60.1997C64.5667 60.1997 62.7722 60.943 61.4492 62.2661C60.1261 63.5891 59.3828 65.3836 59.3828 67.2547C59.3828 69.1258 60.1261 70.9203 61.4492 72.2433C62.7722 73.5664 64.5667 74.3097 66.4378 74.3097H84.9061C86.7772 74.3097 88.5717 73.5664 89.8948 72.2433C91.2179 70.9203 91.9611 69.1258 91.9611 67.2547C91.9611 65.3836 91.2179 63.5891 89.8948 62.2661C88.5717 60.943 86.7772 60.1997 84.9061 60.1997H66.4378Z" fill="#171718"/>
<path d="M85.1411 65.5615L94.7461 99.2282C94.8877 99.7259 94.9118 100.25 94.8167 100.758C94.7215 101.267 94.5096 101.747 94.1977 102.16C93.8858 102.572 93.4823 102.907 93.019 103.138C92.5557 103.368 92.0453 103.488 91.5278 103.488H58.8828C59.9756 101.728 61.6708 100.425 63.6528 99.8215C63.8852 99.7514 64.1234 99.7017 64.3645 99.6732L71.0761 98.8765C71.921 98.7763 72.7373 98.5084 73.4772 98.0885C74.2171 97.6686 74.8657 97.1052 75.385 96.4313C75.9042 95.7574 76.2837 94.9866 76.5012 94.1641C76.7186 93.3416 76.7696 92.484 76.6511 91.6415L73.6411 70.2632L85.1411 65.5615Z" fill="white"/>
<path d="M91.5299 103.99H57.9883L58.46 103.228C59.6156 101.363 61.4106 99.9812 63.5099 99.3417C63.7706 99.2627 64.0378 99.2069 64.3083 99.175L71.0199 98.3784C71.7985 98.2861 72.5508 98.0393 73.2327 97.6525C73.9146 97.2656 74.5124 96.7465 74.991 96.1255C75.4696 95.5046 75.8194 94.7943 76.0198 94.0363C76.2203 93.2784 76.2674 92.4881 76.1583 91.7117L73.0966 69.9484L85.4766 64.895L95.2333 99.0984C95.3959 99.6705 95.4236 100.273 95.3143 100.857C95.2049 101.442 94.9615 101.993 94.6031 102.468C94.2447 102.943 93.7811 103.328 93.2487 103.593C92.7164 103.858 92.1297 103.996 91.5349 103.997L91.5299 103.99ZM59.8466 102.99H91.5299C91.9701 102.99 92.4044 102.889 92.7986 102.693C93.1927 102.496 93.5359 102.212 93.8013 101.86C94.0666 101.509 94.2467 101.101 94.3274 100.668C94.4082 100.236 94.3874 99.79 94.2666 99.3667L84.8099 66.2284L74.1949 70.5783L77.1433 91.5617C77.2721 92.4698 77.2183 93.3945 76.985 94.2815C76.7517 95.1685 76.3437 96 75.7849 96.7273C75.2261 97.4546 74.5276 98.0629 73.7306 98.5167C72.9335 98.9705 72.0539 99.2606 71.1433 99.37L64.4299 100.167C64.2187 100.191 64.0101 100.235 63.8066 100.297C62.2434 100.771 60.862 101.71 59.8466 102.99Z" fill="#171718"/>
<path d="M60.562 92.8564C74.7787 92.8564 86.3036 81.3314 86.3036 67.1147C86.3036 52.898 74.7787 41.373 60.562 41.373C46.3453 41.373 34.8203 52.898 34.8203 67.1147C34.8203 81.3314 46.3453 92.8564 60.562 92.8564Z" fill="white"/>
<path d="M60.5636 93.3582C46.0936 93.3582 34.3203 81.5848 34.3203 67.1148C34.3203 52.6448 46.0936 40.8732 60.5636 40.8732C75.0336 40.8732 86.8086 52.6448 86.8086 67.1148C86.8086 81.5848 75.0336 93.3582 60.5636 93.3582ZM60.5636 41.8732C46.6453 41.8732 35.3203 53.1965 35.3203 67.1148C35.3203 81.0332 46.642 92.3582 60.5636 92.3582C74.4853 92.3582 85.8086 81.0348 85.8086 67.1148C85.8086 53.1948 74.4753 41.8732 60.5636 41.8732Z" fill="#171718"/>
<path d="M55.293 109.228H74.258V103.07H58.0913C57.3494 103.07 56.6381 103.365 56.1137 103.89C55.5892 104.415 55.2946 105.126 55.2946 105.868L55.293 109.228Z" fill="white"/>
<path d="M74.758 109.728H54.793V105.868C54.7939 104.994 55.1414 104.156 55.7594 103.537C56.3774 102.919 57.2154 102.571 58.0896 102.57H74.7563L74.758 109.728ZM55.793 108.728H73.758V103.57H58.0913C57.4822 103.571 56.8983 103.813 56.4677 104.244C56.0371 104.675 55.7951 105.259 55.7946 105.868L55.793 108.728Z" fill="#171718"/>
<path d="M69.0391 109.228H96.6424V105.868C96.6424 105.126 96.3476 104.414 95.8228 103.889C95.298 103.365 94.5862 103.07 93.8441 103.07H71.8441C71.1019 103.07 70.3901 103.365 69.8653 103.889C69.3406 104.414 69.0457 105.126 69.0457 105.868L69.0391 109.228Z" fill="white"/>
<path d="M97.1423 109.728H68.539V105.868C68.5403 104.994 68.8882 104.156 69.5065 103.538C70.1248 102.919 70.9629 102.571 71.8373 102.57H93.8373C94.7128 102.57 95.5527 102.917 96.1724 103.535C96.7921 104.154 97.141 104.993 97.1423 105.868V109.728ZM69.539 108.728H96.1423V105.868C96.1414 105.259 95.899 104.675 95.4682 104.244C95.0373 103.813 94.4533 103.571 93.844 103.57H71.844C71.2347 103.571 70.6506 103.813 70.2198 104.244C69.789 104.675 69.5465 105.259 69.5456 105.868L69.539 108.728ZM56.9056 66.2701C56.9056 66.2701 46.2723 61.5134 45.154 52.9801C45.154 52.9801 43.964 46.1934 56.8356 43.9551C56.8356 43.9551 65.4406 42.7884 68.169 48.2884C68.8023 49.5684 68.729 51.6467 66.4906 53.7451C64.5106 55.6017 60.754 60.3217 62.434 63.8184L56.9056 66.2701Z" fill="#171718"/>
<path d="M57.9056 65.4366C57.9056 65.4366 47.2723 60.6799 46.154 52.1466C46.154 52.1466 44.964 45.3599 57.8356 43.1216C57.8356 43.1216 66.4406 41.9549 69.169 47.4549C69.8023 48.7349 69.729 50.8132 67.4907 52.9116C65.5106 54.7682 61.754 59.4882 63.434 62.9849L57.9056 65.4366Z" fill="#E0F2FE"/>
<path d="M57.904 65.983L57.7006 65.893C57.2573 65.6946 46.8073 60.9246 45.659 52.2263C45.629 52.0346 45.379 50.153 46.8673 48.0363C48.729 45.3863 52.3906 43.5697 57.7506 42.638H57.769C58.134 42.588 66.769 41.488 69.6156 47.248C70.3306 48.6913 70.2373 51.0363 67.8306 53.2913C65.8023 55.193 62.3656 59.6246 63.8823 62.7913L64.1056 63.2563L57.904 65.983ZM57.904 43.6163C51.499 44.733 48.7773 46.988 47.6223 48.6846C46.399 50.4796 46.6223 51.998 46.6406 52.0613V52.0813C47.6423 59.603 56.4756 64.1863 57.9123 64.8946L62.784 62.728C61.5189 59.1296 64.8706 54.683 67.1473 52.5496C69.6723 50.183 68.989 48.2246 68.719 47.6813C66.2206 42.6363 58.209 43.578 57.9106 43.6163H57.904ZM63.5023 64.3646C63.5023 64.3646 73.9756 59.2646 81.2373 63.8946C81.2373 63.8946 87.2023 67.338 80.6573 78.6446C80.6573 78.6446 76.029 85.9913 70.0573 84.5496C68.669 84.2163 67.124 82.823 66.9506 79.7596C66.799 77.048 65.5906 71.1396 61.8323 70.1813L63.5023 64.3646Z" fill="#171718"/>
<path d="M63.4981 65.6666C63.4981 65.6666 73.9748 60.5616 81.2331 65.1882C81.2331 65.1882 87.1998 68.6316 80.6531 79.9382C80.6531 79.9382 76.0248 87.2849 70.0531 85.8432C68.6665 85.5099 67.1198 84.1166 66.9465 81.0532C66.7948 78.3416 65.5881 72.4332 61.8281 71.4749L63.4981 65.6666Z" fill="#E0F2FE"/>
<path d="M71.6437 86.5332C71.0692 86.5332 70.4968 86.4644 69.9387 86.3281C68.3737 85.9498 66.6354 84.3732 66.4504 81.0815C66.2937 78.3048 65.102 72.8248 61.707 71.9598L61.207 71.8332L63.082 65.3148L63.282 65.2165C63.7187 65.0032 74.0854 60.0498 81.497 64.7615C81.6637 64.8615 83.267 65.8782 83.9354 68.3782C84.7687 71.5065 83.8137 75.4798 81.0887 80.1882L81.0787 80.2031C80.9004 80.4865 77.0237 86.5332 71.6437 86.5332ZM62.4454 71.1448C66.017 72.4782 67.2787 77.9098 67.4454 81.0248C67.6404 84.4798 69.5804 85.2132 70.1687 85.3582C75.642 86.6798 80.062 79.9332 80.2254 79.6798C83.4804 74.0515 83.4987 70.5132 82.9387 68.5415C82.347 66.4515 81.0354 65.6531 80.9804 65.6215L80.9637 65.6115C74.5554 61.5332 65.3754 65.3698 63.9154 66.0265L62.4454 71.1448Z" fill="#171718"/>
<path d="M61.9749 70.9482C61.9749 70.9482 62.6966 82.5732 55.6566 87.5248C55.6566 87.5248 50.1982 91.7282 42.2416 81.3665C42.2416 81.3665 37.2149 74.2848 40.8232 69.3148C41.6566 68.1598 43.5382 67.2615 46.4366 68.2698C48.9999 69.1632 54.9232 70.2998 57.2416 67.1882L61.9749 70.9482Z" fill="#171718"/>
<path d="M60.7725 70.4481C60.7725 70.4481 61.4925 82.0748 54.4542 87.0264C54.4542 87.0264 48.9958 91.2281 41.0392 80.8598C41.0392 80.8598 36.0108 73.7798 39.6208 68.8098C40.4542 67.6548 42.3358 66.7548 45.2325 67.7648C47.7975 68.6564 53.7192 69.7931 56.0392 66.6831L60.7725 70.4481Z" fill="#E0F2FE"/>
<path d="M51.4331 88.3697C51.1115 88.3689 50.7903 88.3478 50.4715 88.3064C47.2598 87.8864 43.9515 85.4864 40.6381 81.1714L40.6265 81.1564C40.4131 80.8547 35.4348 73.723 39.2115 68.5214C40.1581 67.2197 42.2781 66.213 45.3931 67.298C48.0198 68.213 53.5398 69.1997 55.6331 66.3914L55.9415 65.978L61.2531 70.1947L61.2665 70.418C61.2965 70.903 61.9231 82.373 54.7431 87.4314C54.6098 87.5314 53.4231 88.3697 51.4331 88.3697ZM41.4331 80.5697C44.5315 84.6047 47.6998 86.9364 50.5998 87.3147C52.8448 87.608 54.1315 86.648 54.1448 86.6297L54.1615 86.618C60.3681 82.2514 60.3281 72.298 60.2781 70.698L56.1115 67.3847C53.5115 70.1747 48.0165 69.268 45.0715 68.243C41.8031 67.1047 40.3848 68.618 40.0281 69.1097C36.7098 73.673 41.2665 80.323 41.4398 80.5697H41.4331Z" fill="#171718"/>
<path d="M60.6339 72.9215C63.9568 72.9215 66.6505 70.2278 66.6505 66.9048C66.6505 63.5819 63.9568 60.8882 60.6339 60.8882C57.3109 60.8882 54.6172 63.5819 54.6172 66.9048C54.6172 70.2278 57.3109 72.9215 60.6339 72.9215Z" fill="#171718"/>
<path d="M57.4505 81.3264C54.5912 81.3268 51.796 80.4792 49.4184 78.8909C47.0408 77.3025 45.1876 75.0448 44.0931 72.4032C42.9987 69.7617 42.7121 66.8549 43.2698 64.0504C43.8274 61.246 45.2041 58.6699 47.2259 56.6479C49.2476 54.626 51.8235 53.2489 54.6279 52.691C57.4323 52.133 60.3391 52.4192 62.9808 53.5134C65.6225 54.6075 67.8804 56.4605 69.469 58.8379C71.0576 61.2153 71.9055 64.0104 71.9055 66.8698C71.9016 70.7024 70.3774 74.377 67.6675 77.0872C64.9575 79.7974 61.2832 81.322 57.4505 81.3264ZM57.4505 53.4148C54.7889 53.4144 52.187 54.2034 49.9738 55.6819C47.7606 57.1604 46.0356 59.2621 45.0168 61.721C43.9981 64.18 43.7315 66.8858 44.2507 69.4963C44.7699 72.1068 46.0515 74.5047 47.9336 76.3867C49.8156 78.2688 52.2135 79.5504 54.824 80.0696C57.4345 80.5888 60.1403 80.3222 62.5993 79.3035C65.0582 78.2847 67.1599 76.5597 68.6384 74.3465C70.1169 72.1333 70.9059 69.5314 70.9055 66.8698C70.9016 63.3025 69.4827 59.8825 66.9603 57.36C64.4378 54.8376 61.0178 53.4187 57.4505 53.4148Z" fill="#171718"/>
<path d="M65.0499 68.0614L64.0499 67.9748C64.1699 66.5714 63.8833 65.4748 63.2016 64.6931C62.2016 63.5548 60.6299 63.4814 60.6133 63.4814L60.6466 62.4814C60.7283 62.4814 62.6466 62.5631 63.9416 64.0214C64.8233 65.0164 65.1949 66.3748 65.0499 68.0614Z" fill="white"/>
<path d="M41.8563 42.2548C38.8763 39.9031 39.3563 35.9398 39.5713 34.2548C39.8146 32.2681 39.038 30.9898 37.2646 30.4581C34.7046 29.6898 33.1346 28.4465 32.463 26.6565C31.1413 23.1332 33.678 20.7315 35.1946 19.2965C35.3613 19.1381 35.518 18.9898 35.658 18.8515C40.7513 13.8031 38.543 9.98981 38.5196 9.95148L39.3763 9.43481C39.4863 9.61648 42.0096 13.9648 36.3613 19.5615C36.2163 19.7065 36.0546 19.8598 35.8813 20.0231C34.3813 21.4498 32.3113 23.4031 33.3996 26.3065C33.953 27.7831 35.3113 28.8281 37.553 29.4998C38.853 29.8898 40.9713 31.0431 40.563 34.3765C40.2546 36.8982 40.2396 39.7098 42.4746 41.4781L41.8563 42.2548ZM61.2813 38.3948C59.8396 34.3615 61.353 29.7281 61.418 29.5348C63.6246 22.4981 61.2513 20.5265 58.6346 19.5265C54.2096 17.8348 52.2313 15.9498 52.0196 13.2231C51.6446 8.38982 54.818 6.33815 56.7146 5.11648L57.003 4.93148C60.133 2.89148 60.003 0.453148 60.003 0.351481L61.003 0.271484C61.013 0.398151 61.2163 3.38815 57.5596 5.77148L57.268 5.95982C55.3396 7.20315 52.6996 8.90315 53.028 13.1481C53.153 14.7615 53.9613 16.6681 59.0046 18.5965C63.268 20.2265 64.3096 23.6965 62.3796 29.8465C62.363 29.8981 60.9113 34.3581 62.2346 38.0615L61.2813 38.3948ZM69.6213 38.4331L68.713 38.0165C73.0996 28.4448 72.0946 24.1048 69.0463 20.2048C65.8013 16.0481 68.598 10.6581 68.713 10.4298L69.5963 10.8981C69.5713 10.9481 66.988 15.9498 69.8296 19.5898C73.023 23.6681 74.2046 28.4331 69.6213 38.4331Z" fill="#171718"/>
</svg>
