<svg width="200" height="201" viewBox="0 0 200 201" fill="none" xmlns="http://www.w3.org/2000/svg">
<path d="M165.784 26.47L33.5527 13.981L48.8867 182.796L172.323 51.843L165.784 26.47Z" fill="#F5F7FA"/>
<path d="M130.515 44.8469L128.96 33.6488L124.593 34.6939C124.222 34.7819 123.852 34.5539 123.764 34.1849C123.676 33.8149 123.903 33.4439 124.273 33.3559L130.114 31.9578L131.669 43.1559L142.921 40.4619L144.221 32.9449L132.533 35.7428C132.163 35.8308 131.792 35.6028 131.704 35.2339C131.616 34.8639 131.843 34.4928 132.213 34.4048L145.934 31.1208L144.124 41.5899L130.515 44.8469Z" fill="#EAB308"/>
<path d="M129.935 35.6667L131.093 44.0007L143.523 41.0247L145.078 32.0317L132.373 35.0727" fill="white"/>
<path d="M130.515 44.8471L129.253 35.7621C129.201 35.3861 129.463 35.0381 129.84 34.9861C130.221 34.9341 130.564 35.1971 130.616 35.5731L131.669 43.1561L142.921 40.4621L144.221 32.9451L132.533 35.7431C132.163 35.8311 131.792 35.6031 131.704 35.2341C131.616 34.8641 131.843 34.4931 132.213 34.4051L145.934 31.1211L144.124 41.5901L130.515 44.8471Z" fill="#EAB308"/>
<path d="M134.137 48.0336C134.899 47.1756 134.968 45.9939 134.293 45.3942C133.617 44.7944 132.452 45.0037 131.69 45.8616C130.929 46.7195 130.859 47.9012 131.535 48.501C132.211 49.1008 133.376 48.8915 134.137 48.0336Z" fill="white"/>
<path d="M132.485 49.523C131.994 49.523 131.531 49.372 131.164 49.082C130.666 48.689 130.38 48.069 130.38 47.382C130.38 46.044 131.422 44.747 132.751 44.428C133.45 44.26 134.148 44.395 134.659 44.799C135.157 45.192 135.443 45.811 135.443 46.499C135.443 47.837 134.401 49.134 133.072 49.453C132.874 49.499 132.677 49.523 132.485 49.523ZM133.342 45.732C133.256 45.732 133.165 45.743 133.071 45.766C132.358 45.937 131.756 46.677 131.756 47.381C131.756 47.652 131.846 47.867 132.016 48.001C132.197 48.144 132.459 48.185 132.751 48.114C133.464 47.943 134.067 47.204 134.067 46.499C134.067 46.228 133.977 46.013 133.807 45.879C133.684 45.782 133.524 45.732 133.342 45.732Z" fill="#EAB308"/>
<path d="M142.86 45.9459C143.621 45.088 143.691 43.9063 143.015 43.3065C142.339 42.7068 141.174 42.9161 140.413 43.774C139.651 44.6319 139.582 45.8136 140.258 46.4134C140.934 47.0131 142.099 46.8039 142.86 45.9459Z" fill="white"/>
<path d="M141.208 47.4347C140.717 47.4347 140.254 47.2837 139.887 46.9937C139.389 46.6007 139.103 45.9807 139.103 45.2937C139.103 43.9557 140.145 42.6587 141.474 42.3397C142.174 42.1727 142.871 42.3067 143.382 42.7107C143.88 43.1037 144.166 43.7227 144.166 44.4107C144.166 45.7487 143.124 47.0457 141.795 47.3647C141.597 47.4117 141.4 47.4347 141.208 47.4347ZM142.065 43.6437C141.979 43.6437 141.888 43.6547 141.794 43.6777C141.081 43.8487 140.479 44.5887 140.479 45.2927C140.479 45.5637 140.569 45.7787 140.739 45.9127C140.92 46.0557 141.182 46.0967 141.474 46.0257C142.187 45.8547 142.79 45.1157 142.79 44.4107C142.79 44.1397 142.7 43.9247 142.53 43.7907C142.407 43.6937 142.247 43.6437 142.065 43.6437Z" fill="#EAB308"/>
<path d="M61.8416 76.8897L42.5196 81.9127L39.6136 70.7347C39.5536 70.5047 39.6916 70.2707 39.9216 70.2107L58.4116 65.4037C58.6416 65.3437 58.8756 65.4817 58.9356 65.7117L61.8416 76.8897Z" fill="white"/>
<path d="M42.0275 82.7517L38.9485 70.9087C38.8735 70.6197 38.9155 70.3187 39.0655 70.0617C39.2165 69.8047 39.4595 69.6207 39.7485 69.5457L58.2385 64.7387C58.8345 64.5837 59.4455 64.9427 59.6015 65.5387L62.6805 77.3827L42.0275 82.7517ZM40.3455 70.8117L43.0125 81.0737L61.0035 76.3967L58.3355 66.1347L40.3455 70.8117Z" fill="#EF4444"/>
<path d="M66.6816 80.7668L40.1816 87.6558C39.8166 87.7508 39.5146 87.3628 39.6976 87.0328L42.4316 82.0748C42.4886 81.9718 42.5856 81.8958 42.6996 81.8668L61.6636 76.9368C61.7776 76.9068 61.8996 76.9258 61.9996 76.9878L66.8016 79.9868C67.1216 80.1868 67.0466 80.6718 66.6816 80.7668Z" fill="white"/>
<path d="M40.0723 88.3578C39.7323 88.3578 39.4053 88.2028 39.1903 87.9258C38.9163 87.5728 38.8783 87.0918 39.0943 86.6998L41.8283 81.7418C41.9763 81.4738 42.2303 81.2768 42.5263 81.1998L61.4903 76.2698C61.7873 76.1928 62.1053 76.2418 62.3643 76.4038L67.1653 79.4018C67.5443 79.6388 67.7453 80.0768 67.6783 80.5188C67.6103 80.9608 67.2873 81.3188 66.8553 81.4318L40.3553 88.3208C40.2603 88.3458 40.1663 88.3578 40.0723 88.3578ZM42.9793 82.5038L40.5883 86.8388L65.9273 80.2518L61.7273 77.6298L42.9793 82.5038Z" fill="#EF4444"/>
<path d="M65.6934 50.6698L58.9664 51.4608L59.3634 38.6588L55.9044 41.9688L52.3594 38.0938L59.7074 30.0148L63.4344 29.5768C64.1724 32.7818 66.3254 32.3978 66.3254 32.3978C66.3254 32.3978 68.4694 32.2768 69.4134 28.8738L73.1404 28.4358L80.0394 34.8388L76.2274 39.5798L72.9494 37.0618L72.5524 49.8638L65.8254 50.6548" fill="white"/>
<path d="M58.2527 52.2369L58.6227 40.3189L55.8717 42.9519L51.4277 38.0939L59.3707 29.3609L63.9657 28.8199L64.1037 29.4209C64.6887 31.9599 66.1897 31.7219 66.2037 31.7189L66.2857 31.7089C66.3417 31.7029 67.9637 31.5189 68.7497 28.6879L68.8737 28.2429L73.3747 27.7129L80.9757 34.7679L76.3397 40.5329L73.5937 38.4229L73.2197 50.4749L65.9037 51.3349C65.8817 51.3379 65.8597 51.3389 65.8377 51.3399C65.8167 51.3449 65.7947 51.3479 65.7727 51.3509L58.2527 52.2369ZM60.1027 36.9979L59.6787 50.6839L65.6127 49.9859C65.6347 49.9829 65.6567 49.9819 65.6787 49.9809C65.6997 49.9759 65.7217 49.9729 65.7437 49.9699L71.8817 49.2479L72.3017 35.6959L76.1107 38.6219L79.0997 34.9059L72.9037 29.1549L69.9397 29.5039C68.8897 32.6679 66.7877 33.0389 66.4167 33.0789C65.5087 33.2259 63.7297 32.8069 62.9277 30.3279L60.0427 30.6669L53.2907 38.0909L55.9377 40.9839L60.1027 36.9979Z" fill="#22C55E"/>
<path d="M152.47 23.7878C152.45 23.7878 152.429 23.7868 152.409 23.7848L56.3298 15.2618C55.9508 15.2278 55.6718 14.8938 55.7048 14.5158C55.7388 14.1368 56.0708 13.8558 56.4508 13.8918L152.529 22.4148C152.908 22.4488 153.187 22.7828 153.154 23.1608C153.123 23.5188 152.823 23.7878 152.47 23.7878Z" fill="#F3E8FF"/>
<path d="M136.247 94.1059C136.078 94.1059 135.908 94.0439 135.775 93.9179C135.499 93.6569 135.486 93.2219 135.746 92.9459L158.091 69.2509C158.352 68.9739 158.787 68.9619 159.063 69.2229C159.339 69.4839 159.352 69.9189 159.092 70.1949L136.747 93.8899C136.612 94.0339 136.429 94.1059 136.247 94.1059Z" fill="#DCFCE7"/>
<path d="M21.3711 119.232C21.1331 119.232 20.9021 119.109 20.7751 118.889C20.5851 118.56 20.6971 118.139 21.0261 117.949L48.9561 101.784C49.2861 101.593 49.7061 101.706 49.8961 102.035C50.0861 102.364 49.9741 102.785 49.6451 102.975L21.7151 119.14C21.6061 119.202 21.4871 119.232 21.3711 119.232Z" fill="#FFEDD5"/>
<path d="M65.519 137.976V139.829L41.498 145.315V143.462L51.508 134.059L55.506 133.146L65.519 137.976Z" fill="white"/>
<path d="M40.8105 146.178V143.165L51.1745 133.43L55.5895 132.422L66.2085 137.544V140.377L40.8105 146.178ZM42.1855 143.76V144.453L64.8305 139.28V138.408L55.4235 133.871L51.8425 134.689L42.1855 143.76Z" fill="#335CFF"/>
<path d="M53.5265 134.286C53.1465 134.286 52.8385 133.978 52.8385 133.598V131.602L53.3735 131.48C53.8045 131.382 54.1975 130.906 54.1975 130.481V129.496C54.1975 129.396 54.1755 129.26 54.0695 129.175C53.9775 129.102 53.8385 129.081 53.6795 129.118L53.5265 129.153C53.0935 129.252 52.6985 129.728 52.6985 130.153V130.702L51.6615 130.938C51.2905 131.022 50.9225 130.791 50.8385 130.42C50.7545 130.05 50.9855 129.681 51.3565 129.597L51.3995 129.587C51.6285 128.74 52.3465 128.011 53.2195 127.812L53.3725 127.777C53.9415 127.647 54.5085 127.765 54.9275 128.1C55.3375 128.427 55.5735 128.937 55.5735 129.497V130.482C55.5735 131.364 55.0085 132.218 54.2145 132.626V133.598C54.2145 133.978 53.9065 134.286 53.5265 134.286Z" fill="#335CFF"/>
<path d="M113.669 45.5596C113.16 44.5086 112.718 43.4786 112.292 42.4896C112.259 42.4116 112.225 42.3346 112.192 42.2566H112.19C112.07 41.9766 111.95 41.7016 111.83 41.4276C111.83 41.4276 112.223 40.6506 107.638 39.1396C107.638 39.1396 104.615 42.0536 104.359 42.2766C104.101 42.5006 104.448 40.1756 103.995 39.9906C103.54 39.8066 98.2636 44.7086 98.1416 44.7826C98.0196 44.8556 92.5526 49.2387 92.5526 49.2387C90.7576 48.2147 89.0826 48.8006 87.9916 50.0806C86.8786 51.3866 86.3766 53.4177 86.9766 55.1947C88.7266 60.3836 94.4606 57.3916 94.4606 57.3916C95.3976 58.4006 96.3866 59.2557 97.4036 59.9637C101.425 62.7737 105.881 63.3157 109.375 62.0697C110.792 61.5637 112.054 60.7636 113.06 59.6996V59.6976C115.843 56.7626 116.701 51.8236 113.669 45.5596ZM105.636 59.0126C105.238 59.0166 104.823 58.9906 104.392 58.9286C100.851 58.4286 97.8966 54.8126 100.078 52.5816C100.187 52.4706 100.298 52.3687 100.407 52.2816C102.475 50.6137 104.532 53.0547 106.858 53.1637C108.34 53.2327 109.69 52.9217 110.139 54.5147C110.179 54.6527 110.212 54.8016 110.239 54.9656C110.572 57.1706 108.633 58.9797 105.636 59.0126Z" fill="white" stroke="#171718" stroke-width="1.3759" stroke-miterlimit="10" stroke-linecap="round"/>
<path d="M110.299 51.8998C109.491 51.8998 108.792 51.3898 108.458 51.0108C108.207 50.7258 108.234 50.2908 108.519 50.0398C108.803 49.7888 109.235 49.8158 109.487 50.0978C109.551 50.1678 110.113 50.7568 110.638 50.4088C110.75 50.2198 110.733 48.9088 109.032 45.4408C108.812 44.9938 108.78 44.4678 108.944 43.9968C109.485 42.4518 110.634 41.5898 112.179 41.5688C112.182 41.5688 112.185 41.5688 112.188 41.5688C112.564 41.5688 112.871 41.8708 112.876 42.2478C112.881 42.6278 112.577 42.9398 112.197 42.9448C111.218 42.9578 110.597 43.4358 110.242 44.4498C110.199 44.5748 110.207 44.7148 110.266 44.8338C112.746 49.8898 112.098 51.0918 111.396 51.5558C111.024 51.8028 110.651 51.8998 110.299 51.8998Z" fill="#171718"/>
<path d="M99.0711 49.3158C98.9991 49.3158 98.9261 49.3048 98.8541 49.2808C98.4941 49.1608 98.2981 48.7718 98.4181 48.4108C100.383 42.4938 104.924 43.5648 104.97 43.5768C105.339 43.6698 105.562 44.0438 105.469 44.4118C105.376 44.7788 105.007 45.0018 104.637 44.9118C104.488 44.8768 101.271 44.1838 99.7231 48.8448C99.6281 49.1328 99.3601 49.3158 99.0711 49.3158Z" fill="#171718"/>
<path d="M92.3709 53.7039C92.1289 53.7039 91.8939 53.5759 91.7679 53.3489C91.4389 52.7549 91.0459 52.4049 90.5989 52.3109C89.8719 52.1589 89.1249 52.6919 89.1179 52.6969C88.8149 52.9259 88.3829 52.8679 88.1539 52.5649C87.9239 52.2619 87.9829 51.8309 88.2859 51.6009C88.3359 51.5629 89.5229 50.6769 90.8829 50.9639C91.7379 51.1439 92.4409 51.7229 92.9719 52.6819C93.1559 53.0139 93.0359 53.4329 92.7029 53.6169C92.5979 53.6759 92.4839 53.7039 92.3709 53.7039Z" fill="#171718"/>
<path d="M92.4692 55.6938C92.3902 55.6938 92.3092 55.6798 92.2302 55.6508C91.0132 55.1998 90.2592 54.5268 89.9892 53.6498C89.6202 52.4528 90.3232 51.4158 90.4042 51.3018C90.6242 50.9928 91.0542 50.9198 91.3632 51.1408C91.6712 51.3598 91.7442 51.7868 91.5272 52.0958C91.5152 52.1148 91.1292 52.6948 91.3052 53.2528C91.4802 53.8048 92.1642 54.1598 92.7072 54.3608C93.0632 54.4928 93.2452 54.8888 93.1142 55.2448C93.0112 55.5218 92.7482 55.6938 92.4692 55.6938Z" fill="#171718"/>
<path d="M112.415 42.2609C112.371 42.3409 112.331 42.4169 112.291 42.4899C112.258 42.4119 112.224 42.3349 112.191 42.2569H112.189C112.069 41.9769 111.949 41.7019 111.829 41.4279C111.829 41.4279 112.222 40.6509 107.637 39.1399C107.637 39.1399 104.614 42.0539 104.358 42.2769C104.1 42.5009 104.447 40.1759 103.994 39.9909C103.539 39.8069 98.2633 44.7089 98.1413 44.7829C98.0193 44.8559 92.5523 49.2389 92.5523 49.2389C90.7573 48.2149 89.0823 48.8009 87.9913 50.0809C87.1253 49.0099 84.6213 45.7909 84.7743 44.5479L89.5973 35.5559C89.7553 35.2609 90.1033 35.1229 90.4193 35.2319C91.1303 35.4809 91.8633 35.8829 92.3723 35.3959C92.8123 34.9719 96.7683 28.6249 102.562 25.2859C102.635 25.2439 102.726 25.2969 102.729 25.3819C102.749 26.1679 102.84 29.1719 103.107 29.1209C103.414 29.0629 111.835 25.9509 112.357 26.4749C112.881 26.9989 111.939 30.2959 111.964 30.5759C111.988 30.8579 114.165 33.3639 114.485 35.1629C114.869 37.3479 113.29 40.6489 112.415 42.2609Z" fill="#171718"/>
<path d="M105.636 59.013C107.047 55.81 104.034 54.199 103.77 54.064C105.436 54.637 107.604 54.99 110.139 54.515C110.179 54.653 110.212 54.802 110.239 54.966C110.572 57.171 108.633 58.98 105.636 59.013Z" fill="#171718"/>
<path d="M104.575 59.7128L105.005 58.7358C106.121 56.2018 103.909 54.9088 103.455 54.6758L103.993 53.4128C105.932 54.0798 107.957 54.2228 110.011 53.8378L110.625 53.7228L110.799 54.3228C110.848 54.4918 110.887 54.6658 110.917 54.8558C111.085 55.9678 110.777 57.0468 110.05 57.9008C109.095 59.0238 107.489 59.6798 105.643 59.7008L104.575 59.7128ZM106.106 55.3178C106.582 56.1018 106.843 57.0838 106.605 58.2388C107.621 58.0648 108.467 57.6368 109.001 57.0098C109.421 56.5158 109.619 55.9298 109.581 55.3018C108.411 55.4608 107.25 55.4668 106.106 55.3178Z" fill="#171718"/>
<path d="M105.635 59.013C105.237 59.017 104.822 58.991 104.391 58.929C100.85 58.429 97.896 54.813 100.077 52.582C100.186 52.471 100.297 52.369 100.406 52.282C100.959 52.706 102.114 53.488 103.749 54.055C103.749 54.055 103.753 54.057 103.76 54.059C103.762 54.061 103.764 54.063 103.769 54.063C104.033 54.199 107.046 55.81 105.635 59.013Z" fill="white"/>
<path d="M105.551 59.7009C105.139 59.7009 104.716 59.6699 104.293 59.6089C101.826 59.2609 99.5354 57.5379 98.8454 55.5119C98.4134 54.2429 98.6764 53.0309 99.5864 52.1009C99.7174 51.9669 99.8494 51.8469 99.9784 51.7439L100.399 51.4089L100.826 51.7359C101.33 52.1219 102.391 52.8419 103.893 53.3749H103.937L104.15 53.4629L104.19 53.5069C105.623 54.2899 107.572 56.3239 106.266 59.2899L106.087 59.6959L105.644 59.7009C105.612 59.7009 105.582 59.7009 105.551 59.7009ZM100.467 53.1739C100.008 53.7079 99.9014 54.3449 100.147 55.0679C100.67 56.6049 102.536 57.9709 104.487 58.2469C104.715 58.2799 104.941 58.3019 105.165 58.3149C105.816 56.2479 104.201 55.0999 103.595 54.7519H103.465L103.371 54.6509C102.1 54.1929 101.111 53.6129 100.467 53.1739Z" fill="#171718"/>
<path d="M110.138 54.5149C107.603 54.9899 105.435 54.6369 103.769 54.0639C103.765 54.0639 103.762 54.0619 103.76 54.0599C103.753 54.0579 103.749 54.0559 103.749 54.0559C102.114 53.4899 100.959 52.7079 100.406 52.2829C102.474 50.6149 104.531 53.0559 106.857 53.1649C108.338 53.2329 109.689 52.9219 110.138 54.5149Z" fill="white"/>
<path d="M107.774 55.426C106.376 55.426 104.998 55.201 103.655 54.752H103.464L103.37 54.651C101.722 54.057 100.548 53.259 99.986 52.828L99.292 52.296L99.973 51.747C101.595 50.439 103.205 51.148 104.626 51.773C105.409 52.117 106.148 52.443 106.888 52.477C107.124 52.488 107.356 52.489 107.582 52.49C108.786 52.495 110.284 52.501 110.799 54.329L111.003 55.053L110.264 55.192C109.429 55.347 108.598 55.426 107.774 55.426ZM104.151 53.466C105.697 53.974 107.294 54.15 108.917 53.994C108.635 53.889 108.219 53.868 107.577 53.865C107.332 53.864 107.081 53.863 106.825 53.851C105.828 53.804 104.936 53.412 104.073 53.032C103.127 52.616 102.432 52.333 101.804 52.396C102.366 52.731 103.097 53.101 103.975 53.405L104.151 53.466Z" fill="#171718"/>
<path d="M109.374 62.0698C109.147 63.9288 107.968 66.8018 103.136 68.2168L97.4033 59.9648C101.423 62.7738 105.879 63.3158 109.374 62.0698Z" fill="#171718"/>
<path d="M102.855 69.0158L94.6406 57.1938L97.7976 59.3998C101.397 61.9158 105.64 62.6718 109.144 61.4218L110.193 61.0478L110.058 62.1529C109.833 63.9938 108.661 67.3148 103.331 68.8768L102.855 69.0158ZM99.6976 62.0608L103.414 67.4088C106.613 66.3528 107.946 64.6188 108.455 63.0588C105.673 63.7278 102.589 63.3668 99.6976 62.0608Z" fill="#171718"/>
<path d="M114.953 67.4757C113.025 68.8927 103.528 68.7797 103.528 68.7797L103.346 68.5177L103.137 68.2157C107.969 66.8007 109.148 63.9287 109.375 62.0687C110.792 61.5627 112.054 60.7627 113.06 59.6987L114.16 64.6387C114.16 64.6397 116.881 66.0567 114.953 67.4757Z" fill="white"/>
<path d="M104.195 69.4721C103.873 69.4721 103.639 69.4701 103.519 69.4691L103.165 69.4651L102.03 67.8241L102.943 67.5571C107.288 66.2851 108.467 63.8261 108.691 61.9871L108.742 61.5651L109.142 61.4221C110.486 60.9421 111.636 60.2031 112.559 59.2271L113.449 58.2861L114.765 64.1981C115.274 64.5191 116.248 65.2591 116.326 66.2611C116.361 66.7181 116.223 67.3971 115.36 68.0311C113.553 69.3581 106.54 69.4721 104.195 69.4721ZM109.993 62.5711C109.698 64.1631 108.683 66.5181 105.415 68.0871C108.957 68.0291 113.477 67.7061 114.544 66.9221C114.739 66.7781 114.969 66.5651 114.954 66.3661C114.927 66.0061 114.289 65.4851 113.84 65.2481L113.559 65.1001L112.649 61.0181C111.863 61.6581 110.975 62.1781 109.993 62.5711Z" fill="#171718"/>
<path d="M175.356 126.29L169.294 143.224L149.688 135.673L154.257 122.773L123.971 135.944C123.971 135.944 122.212 167.466 113.535 176.54C107.635 182.709 91.334 180.754 81.498 178.87L85.232 157.602C91.8301 158.67 96.632 159.186 96.632 159.186C98.896 147.299 99.471 134.529 99.3 123.188L134.349 107.156L134.382 107.14C135.49 106.585 164.244 92.306 173.143 98.537C182.218 104.889 175.356 126.29 175.356 126.29Z" fill="#F5F7FA"/>
<path d="M98.5861 181.435C92.9481 181.435 86.7841 180.583 81.3671 179.546L80.7021 179.419L84.6711 156.815L85.3411 156.924C90.4781 157.756 94.5621 158.255 96.0731 158.431C97.9561 148.251 98.8101 136.402 98.6111 123.199L98.6041 122.75L134.061 106.531C135.302 105.91 164.296 91.506 173.536 97.974C182.918 104.54 176.296 125.606 176.009 126.5L176.002 126.522L169.703 144.119L148.815 136.075L153.079 124.036L124.631 136.407C124.381 140.363 122.333 168.333 114.031 177.016C110.888 180.302 105.087 181.435 98.5861 181.435ZM82.2921 178.32C91.6641 180.064 107.442 181.914 113.037 176.064C121.441 167.275 123.266 136.218 123.283 135.905L123.306 135.482L155.433 121.511L150.559 135.271L168.883 142.328L174.703 126.07C174.879 125.512 181.228 105.037 172.748 99.101C165.889 94.297 144.854 102.662 134.69 107.756L134.636 107.781L99.9941 123.627C100.172 137.014 99.2681 149.018 97.3071 159.314L97.1881 159.937L96.5581 159.869C96.5121 159.864 91.9901 159.375 85.7921 158.388L82.2921 178.32Z" fill="#171718"/>
<path d="M167.045 151.542L146.174 143.535L149.275 134.777L170.168 142.823L167.045 151.542ZM147.919 142.73L166.224 149.753L168.42 143.624L150.1 136.569L147.919 142.73Z" fill="#171718"/>
<path d="M131.326 76.531C133.35 89.275 134.349 107.157 134.349 107.157L99.3006 123.189C99.0186 104.116 96.6326 89.084 96.6326 89.084C96.6326 89.084 82.2266 96.57 77.6196 100.542C75.6866 102.208 75.6466 105.442 76.2536 108.635C76.2536 108.635 66.1526 108.97 61.3436 114.257C59.2686 105.773 60.0526 97.7169 61.3746 93.0159C63.0006 87.236 88.6286 75.138 99.0206 70.438C99.0206 70.438 99.0206 70.438 99.0226 70.438H99.0246C99.3196 70.48 114.013 72.486 118.544 69.121C122.212 66.4 115.643 64.087 115.643 64.087C121.394 61.939 142.595 53.971 156.914 48.002C156.914 48.002 157.327 58.014 163.023 61.866L131.326 76.531Z" fill="white"/>
<path d="M98.6279 124.253L98.6119 123.199C98.3739 107.092 96.6099 93.7398 96.0939 90.1438C92.9339 91.8158 81.9199 97.7418 78.0679 101.063C76.2539 102.626 76.4479 105.973 76.9289 108.506L77.0789 109.295L76.2759 109.322C76.1779 109.325 66.4059 109.713 61.8519 114.72L60.9819 115.676L60.6749 114.42C58.6049 105.958 59.3369 97.7188 60.7119 92.8288C62.3439 87.0268 85.2359 75.9168 98.7369 69.8098L98.8729 69.7488L99.1229 69.7558C103.185 70.3358 114.518 71.2538 118.135 68.5668C118.742 68.1158 119.02 67.6928 118.962 67.3098C118.802 66.2518 116.503 65.1178 115.415 64.7348L113.626 64.1048L115.403 63.4408C119.713 61.8308 141.96 53.4888 156.65 47.3648L157.561 46.9858L157.602 47.9718C157.606 48.0688 158.072 57.6848 163.409 61.2938L164.418 61.9768L132.086 76.9358C134.039 89.5338 135.026 106.941 135.036 107.118L135.062 107.587L98.6279 124.253ZM97.1609 88.0328L97.3109 88.9758C97.3339 89.1238 99.6199 103.716 99.9699 122.126L133.635 106.728C133.461 103.825 132.46 88.0608 130.647 76.6388L130.566 76.1248L161.705 61.7178C157.58 58.1438 156.549 51.5018 156.302 49.0018C143.078 54.4838 124.839 61.3768 117.467 64.1398C118.668 64.7688 120.125 65.7898 120.324 67.1058C120.464 68.0328 120.004 68.8958 118.956 69.6738C114.449 73.0208 100.928 71.3828 99.1269 71.1468C76.9589 81.1808 63.0989 89.4228 62.0359 93.2018C60.7729 97.6938 60.0749 105.126 61.7379 112.902C66.0849 109.04 73.0899 108.178 75.4429 107.995C74.8499 104.202 75.4289 101.521 77.1689 100.022C81.7839 96.0428 95.7229 88.7808 96.3139 88.4738L97.1609 88.0328Z" fill="#171718"/>
<path d="M178.15 51.1937C177.732 54.6257 173.654 56.9467 173.654 56.9467L166.999 60.0257C162.041 56.5227 160.799 46.5617 160.775 46.3687C163.283 45.2887 165.838 44.1367 167.528 43.3057L168.874 51.7207C168.97 52.3097 169.529 52.7157 170.12 52.6207L171.557 52.3917C171.775 52.3557 171.968 52.2587 172.119 52.1167C174.005 53.1057 177.091 52.6087 178.15 51.1937Z" fill="white"/>
<path d="M166.926 60.8169L166.601 60.5869C161.563 57.0269 160.227 47.5289 160.092 46.4579L160.027 45.9439L160.502 45.7359C163.114 44.6119 165.627 43.4719 167.224 42.6869L168.059 42.2759L169.552 51.6099C169.586 51.8219 169.794 51.9729 170.009 51.9389L171.448 51.7099C171.523 51.6979 171.592 51.6639 171.647 51.6119L172.004 51.2769L172.437 51.5049C174.112 52.3849 176.808 51.8339 177.598 50.7799L179.143 48.7169L178.832 51.2759C178.378 55.0089 174.172 57.4419 173.993 57.5439L173.942 57.5699L166.926 60.8169ZM161.531 46.7919C161.848 48.8169 163.239 56.1839 167.083 59.2299L173.336 56.3369C173.58 56.1919 175.759 54.8589 176.863 52.8859C175.427 53.4299 173.594 53.4799 172.184 52.9039C172.024 52.9849 171.85 53.0419 171.67 53.0709L170.23 53.2999C169.263 53.4559 168.353 52.7969 168.196 51.8309L166.996 44.3279C165.523 45.0269 163.571 45.9079 161.531 46.7919Z" fill="#171718"/>
<path d="M77.2098 112.346C77.0148 112.37 66.6608 113.679 62.6378 118.544C62.1178 117.113 61.6888 115.678 61.3428 114.257C66.1518 108.97 76.2528 108.635 76.2528 108.635C76.4948 109.914 76.8408 111.185 77.2098 112.346Z" fill="white"/>
<path d="M62.4019 119.909L61.9919 118.779C61.4799 117.37 61.0369 115.903 60.6749 114.42L60.5879 114.064L60.8339 113.793C65.7819 108.354 75.8059 107.96 76.2299 107.946L76.8189 107.926L76.9279 108.505C77.1389 109.621 77.4539 110.843 77.8649 112.137L78.1149 112.925L77.2949 113.028C77.1919 113.041 66.9799 114.37 63.1669 118.982L62.4019 119.909ZM62.1009 114.455C62.3399 115.397 62.6119 116.331 62.9149 117.244C66.7509 113.604 73.9029 112.175 76.3179 111.782C76.0689 110.939 75.8609 110.128 75.6969 109.358C73.5659 109.523 66.0829 110.383 62.1009 114.455Z" fill="#171718"/>
<path d="M85.9697 131.364C85.3317 131.977 84.6567 132.199 83.9797 132.148C83.8577 132.988 83.3397 133.821 82.1427 134.514C81.4827 134.896 80.8277 135.029 80.1897 134.978C78.9527 136.113 75.0007 138.135 67.6497 128.029C65.4327 124.981 63.8047 121.767 62.6387 118.544C66.6617 113.679 77.0157 112.371 77.2107 112.346C78.1167 115.198 79.1637 117.386 79.1637 117.386C79.1637 117.386 82.9647 117.046 85.0927 120.703C86.9297 123.866 84.8637 125.774 84.8637 125.774C86.1297 127.796 87.1757 130.204 85.9697 131.364Z" fill="white"/>
<path d="M77.6504 136.631C77.4864 136.631 77.3164 136.623 77.1414 136.605C74.2044 136.311 70.8234 133.562 67.0934 128.434C64.9704 125.515 63.2534 122.266 61.9914 118.778L61.8574 118.408L62.1074 118.105C66.2644 113.078 76.6834 111.718 77.1244 111.663L77.6924 111.592L77.8664 112.138C78.5264 114.214 79.2664 115.943 79.6014 116.691C80.7914 116.724 83.8144 117.14 85.6864 120.357C87.1164 122.819 86.4654 124.823 85.7124 125.846C87.3974 128.685 87.6444 130.707 86.4464 131.86C85.8644 132.419 85.2204 132.741 84.5254 132.823C84.2264 133.731 83.5434 134.498 82.4874 135.11C81.8364 135.487 81.1524 135.677 80.4504 135.677C80.4434 135.677 80.4374 135.677 80.4314 135.677C79.8884 136.107 78.9594 136.631 77.6504 136.631ZM63.4234 118.688C64.6274 121.911 66.2344 124.915 68.2054 127.624C72.5524 133.599 75.5384 135.061 77.2774 135.235C78.4774 135.356 79.2714 134.886 79.7244 134.471L79.9454 134.268L80.2444 134.292C80.7794 134.332 81.2884 134.213 81.7974 133.918C82.7004 133.395 83.1914 132.784 83.2984 132.048L83.3904 131.413L84.0304 131.461C84.5534 131.5 85.0354 131.307 85.4924 130.867C86.1864 130.2 85.7444 128.477 84.2794 126.139L83.9764 125.656L84.3954 125.269C84.4584 125.209 86.0174 123.669 84.4964 121.049C82.6104 117.808 79.2564 118.069 79.2244 118.072L78.7484 118.115L78.5424 117.684C78.5014 117.599 77.5974 115.698 76.7364 113.112C74.5924 113.455 66.8634 114.922 63.4234 118.688Z" fill="#171718"/>
<path d="M80.1902 135.666C80.1722 135.666 80.1552 135.665 80.1372 135.664C76.2632 135.369 73.1802 129.429 73.0512 129.176C72.8782 128.838 73.0122 128.424 73.3502 128.251C73.6902 128.078 74.1022 128.212 74.2762 128.549C75.0612 130.08 77.6642 134.096 80.2422 134.292C80.6212 134.321 80.9052 134.651 80.8762 135.03C80.8472 135.391 80.5462 135.666 80.1902 135.666Z" fill="#171718"/>
<path d="M84.8636 126.463C84.6346 126.463 84.4106 126.349 84.2796 126.14C83.1796 124.383 81.8916 122.901 81.8786 122.887C81.6286 122.601 81.6586 122.166 81.9446 121.916C82.2306 121.666 82.6656 121.695 82.9156 121.982C82.9706 122.045 84.2866 123.557 85.4456 125.41C85.6476 125.732 85.5496 126.157 85.2276 126.358C85.1146 126.429 84.9886 126.463 84.8636 126.463Z" fill="#171718"/>
<path d="M83.9796 132.836C83.9626 132.836 83.9456 132.835 83.9286 132.834C80.5076 132.582 77.3596 126.836 77.0126 126.182C76.8336 125.846 76.9616 125.43 77.2966 125.252C77.6326 125.073 78.0486 125.201 78.2266 125.536C79.0736 127.128 81.7676 131.295 84.0296 131.462C84.4086 131.49 84.6926 131.819 84.6646 132.199C84.6386 132.56 84.3366 132.836 83.9796 132.836Z" fill="#171718"/>
<path d="M131.325 77.2187C130.993 77.2187 130.7 76.9777 130.646 76.6397C130.364 74.8777 130.094 73.3787 129.819 72.0597C129.741 71.6877 129.98 71.3237 130.352 71.2457C130.724 71.1677 131.088 71.4067 131.166 71.7787C131.445 73.1197 131.72 74.6377 132.005 76.4217C132.065 76.7967 131.809 77.1497 131.434 77.2097C131.397 77.2157 131.361 77.2187 131.325 77.2187Z" fill="#171718"/>
<path d="M173.341 170.405L141.362 159.18L147.047 143.133L166.635 150.648L165.202 154.649C174.643 158.209 174.341 166.075 173.341 170.405Z" fill="white"/>
<path d="M173.838 171.308L140.483 159.6L146.634 142.237L167.509 150.246L166.074 154.253C175.348 158.099 175.045 166.08 174.011 170.559L173.838 171.308ZM142.241 158.759L172.829 169.495C173.627 165.257 173.376 158.466 164.959 155.292L164.326 155.053L165.76 151.048L147.459 144.027L142.241 158.759Z" fill="#171718"/>
<path d="M173.342 170.405C172.927 172.213 172.387 173.404 172.387 173.404L140.021 162.968L141.363 159.181L173.342 170.405Z" fill="#F5F7FA"/>
<path d="M172.759 174.247L139.135 163.406L140.942 158.304L174.149 169.96L174.012 170.559C173.586 172.413 173.036 173.637 173.013 173.688L172.759 174.247ZM140.905 162.53L171.986 172.552C172.133 172.155 172.333 171.568 172.523 170.847L141.781 160.057L140.905 162.53Z" fill="#171718"/>
<path d="M85.2323 157.601V157.603L81.4983 178.871C76.8623 177.982 73.6633 177.109 73.6633 177.109C71.2933 185.639 61.4433 186.537 56.3633 186.41L63.6673 152.883C68.9723 154.478 74.8783 155.757 80.2103 156.735C81.9593 157.054 83.6483 157.343 85.2323 157.601Z" fill="white"/>
<path d="M57.2337 187.109C56.9277 187.109 56.6317 187.105 56.3457 187.098L55.5137 187.078L63.1527 152.01L63.8647 152.224C68.4727 153.609 74.0137 154.899 80.3337 156.058C81.9727 156.357 83.6577 156.648 85.3427 156.922L85.9197 157.016L85.9097 157.722L82.0547 179.678L81.3687 179.546C77.9597 178.893 75.2967 178.24 74.1287 177.941C71.5177 185.777 62.8307 187.109 57.2337 187.109ZM57.2147 185.733C57.2207 185.733 57.2267 185.733 57.2327 185.733C62.5727 185.733 70.9037 184.469 72.9997 176.925L73.1837 176.265L73.8447 176.445C73.8747 176.453 76.7567 177.236 80.9417 178.062L84.4347 158.167C82.9707 157.925 81.5107 157.671 80.0857 157.411C74.0377 156.302 68.6917 155.072 64.1807 153.753L57.2147 185.733Z" fill="#171718"/>
<path d="M63.6658 152.882L56.3618 186.409C54.5158 186.365 53.3008 186.182 53.3008 186.182L61.0138 152.039C61.8758 152.329 62.7618 152.611 63.6658 152.882Z" fill="#F5F7FA"/>
<path d="M56.9138 187.111L56.3458 187.097C54.4788 187.052 53.2508 186.87 53.1988 186.863L52.4668 186.753L60.5108 151.146L61.2328 151.388C62.1098 151.682 62.9948 151.963 63.8638 152.223L64.4738 152.406L56.9138 187.111ZM54.1408 185.588C54.5548 185.629 55.1268 185.674 55.8128 185.703L62.8598 153.356C62.4148 153.219 61.9668 153.077 61.5188 152.931L54.1408 185.588Z" fill="#171718"/>
<path d="M134.382 107.83C134.121 107.83 133.871 107.681 133.756 107.428C133.598 107.082 133.751 106.674 134.096 106.517L135.191 106.017C135.537 105.86 135.945 106.012 136.102 106.357C136.26 106.703 136.107 107.111 135.762 107.268L134.667 107.768C134.575 107.81 134.478 107.83 134.382 107.83Z" fill="#171718"/>
<path d="M178.151 51.8818C178.124 51.8818 178.096 51.8798 178.068 51.8768C177.691 51.8318 177.422 51.4888 177.467 51.1118C177.474 51.0508 177.48 50.9898 177.485 50.9268L178.172 50.9718L178.855 51.0518C178.848 51.1278 178.841 51.2018 178.832 51.2758C178.791 51.6248 178.494 51.8818 178.151 51.8818Z" fill="#171718"/>
<path d="M131.325 77.2188H131.323C130.943 77.2188 130.635 76.9108 130.635 76.5308C130.635 76.1508 130.943 75.8428 131.323 75.8428C131.703 75.8428 132.012 76.1508 132.012 76.5308C132.012 76.9108 131.706 77.2188 131.325 77.2188Z" fill="#171718"/>
<path d="M178.39 50.772C178.33 50.921 178.248 51.061 178.15 51.194C177.09 52.609 174.005 53.107 172.119 52.116C171.544 51.812 171.079 51.37 170.817 50.772C170.304 49.592 170.211 48.653 170.268 47.971C169.768 47.378 167.593 45.425 169.186 42.633C169.219 42.575 169.255 42.522 169.295 42.471C169.026 42.251 168.306 41.491 168.009 39.572C167.72 37.71 168.507 36.489 170.017 35.882C170.437 35.711 170.914 35.589 171.441 35.515C173.851 35.175 176.432 35.602 176.177 40.535C176.177 40.535 178.303 43.03 177.339 46.177C177.339 46.178 179.296 48.561 178.39 50.772Z" fill="white"/>
<path d="M174.436 53.314C173.495 53.314 172.564 53.126 171.799 52.724C171.052 52.329 170.495 51.749 170.187 51.047C169.754 50.051 169.545 49.101 169.567 48.216C168.897 47.478 167.033 45.372 168.441 42.566C168.05 42.07 167.563 41.18 167.329 39.675C167.003 37.576 167.867 36.001 169.761 35.241C170.227 35.051 170.762 34.913 171.347 34.831C173.198 34.571 174.551 34.858 175.483 35.711C176.493 36.635 176.949 38.142 176.875 40.312C177.387 41.012 178.783 43.251 178.092 46.036C178.629 46.806 179.884 48.937 179.027 51.03C178.948 51.225 178.843 51.411 178.705 51.599C177.888 52.692 176.147 53.314 174.436 53.314ZM172.603 36.114C172.281 36.114 171.927 36.142 171.538 36.197C171.065 36.263 170.642 36.371 170.278 36.519C168.982 37.039 168.463 38.003 168.69 39.466C168.964 41.232 169.606 41.835 169.732 41.938L170.252 42.363L169.839 42.893C169.818 42.919 169.8 42.947 169.783 42.977C168.581 45.085 169.952 46.594 170.61 47.319C170.683 47.4 170.746 47.469 170.795 47.527L170.979 47.745L170.955 48.029C170.892 48.769 171.058 49.6 171.449 50.497C171.633 50.916 171.967 51.256 172.442 51.507C174.115 52.387 176.811 51.835 177.601 50.781C177.666 50.691 177.718 50.602 177.754 50.513L177.755 50.51C178.491 48.713 176.825 46.633 176.808 46.612L176.577 46.327L176.684 45.975C177.527 43.22 175.675 41.002 175.656 40.98L175.478 40.772L175.492 40.499C175.588 38.653 175.273 37.383 174.556 36.727C174.103 36.315 173.471 36.114 172.603 36.114Z" fill="#171718"/>
<path d="M169.295 43.1579C169.15 43.1579 169.006 43.1129 168.882 43.0189C168.579 42.7899 168.518 42.3579 168.747 42.0549C169.015 41.6999 169.38 41.4449 169.802 41.3159C172.988 40.3569 173.411 40.3569 173.569 40.3569C173.949 40.3569 174.257 40.6649 174.257 41.0449C174.257 41.4249 173.949 41.7329 173.569 41.7329C173.529 41.7349 173.039 41.7789 170.2 42.6319C170.06 42.6749 169.936 42.7619 169.845 42.8829C169.709 43.0639 169.503 43.1579 169.295 43.1579Z" fill="#171718"/>
<path d="M170.86 48.8021C170.069 48.8021 169.858 48.5501 169.742 48.4131C169.497 48.1221 169.535 47.6881 169.826 47.4441C170.081 47.2311 170.444 47.2321 170.694 47.4301C171.179 47.5111 173.073 47.0621 174.842 46.4381C175.2 46.3121 175.594 46.5001 175.72 46.8571C175.846 47.2151 175.659 47.6081 175.3 47.7351C172.963 48.5611 171.634 48.8021 170.86 48.8021Z" fill="#171718"/>
<path d="M166.999 60.0262L163.023 61.8652C157.327 58.0132 156.914 48.0012 156.914 48.0012C158.269 47.4372 159.562 46.8902 160.775 46.3682C160.799 46.5622 162.041 56.5232 166.999 60.0262Z" fill="white"/>
<path d="M162.959 62.6529L162.637 62.4359C156.722 58.4359 156.244 48.4539 156.227 48.0309L156.207 47.5519L156.65 47.3679C158.002 46.8049 159.293 46.2599 160.503 45.7389L161.343 45.3779L161.458 46.2839C161.509 46.6899 162.761 56.1909 167.397 59.4659L168.369 60.1529L162.959 62.6529ZM157.635 48.4459C157.801 50.3899 158.711 57.7999 163.096 61.0729L165.71 59.8639C162.04 56.4749 160.638 49.8579 160.224 47.3529C159.393 47.7079 158.528 48.0729 157.635 48.4459Z" fill="#171718"/>
<path d="M160.774 47.0557C160.394 47.0557 160.086 46.7487 160.086 46.3687V46.3667C160.086 45.9867 160.394 45.6787 160.774 45.6787C161.154 45.6787 161.462 45.9867 161.462 46.3667C161.462 46.7467 161.154 47.0557 160.774 47.0557Z" fill="#171718"/>
<path d="M77.2125 113.034H77.2105C76.8305 113.034 76.5225 112.726 76.5225 112.346C76.5225 111.966 76.8305 111.658 77.2105 111.658C77.5905 111.658 77.8995 111.966 77.8995 112.346C77.8995 112.726 77.5925 113.034 77.2125 113.034Z" fill="#171718"/>
<path d="M118.544 69.1199C114.012 72.4849 99.3204 70.4789 99.0254 70.4369C101.686 69.2349 103.346 68.5179 103.346 68.5179L103.528 68.7799C103.528 68.7799 113.024 68.8929 114.953 67.4759C116.881 66.0569 114.16 64.6389 114.16 64.6389C114.16 64.6389 114.689 64.4439 115.644 64.0859C115.642 64.0869 122.211 66.3989 118.544 69.1199Z" fill="white"/>
<path d="M108.308 71.753C103.472 71.753 99.009 71.13 98.927 71.118L96.585 70.783L98.741 69.81C101.377 68.62 103.055 67.893 103.072 67.886L103.588 67.663L103.889 68.095C107.513 68.115 113.317 67.824 114.545 66.921C114.74 66.778 114.969 66.565 114.954 66.366C114.927 66.006 114.289 65.485 113.84 65.248L112.476 64.529L113.921 63.993C113.922 63.993 114.449 63.798 115.402 63.441L115.636 63.353L115.872 63.436C116.293 63.584 119.997 64.947 120.322 67.103C120.462 68.03 120.002 68.893 118.954 69.671C116.751 71.308 112.396 71.753 108.308 71.753ZM101.581 70.046C106.627 70.539 115.098 70.823 118.134 68.568C118.741 68.118 119.019 67.695 118.961 67.311C118.824 66.4 117.013 65.346 115.644 64.82C115.624 64.828 115.603 64.835 115.583 64.843C115.953 65.213 116.281 65.695 116.325 66.26C116.36 66.717 116.222 67.396 115.359 68.03C113.305 69.54 104.514 69.48 103.519 69.468L103.165 69.464L103.102 69.374C102.753 69.527 102.237 69.754 101.581 70.046Z" fill="#171718"/>
<path d="M81.4889 179.616C81.4539 179.616 81.4189 179.613 81.3839 179.608C81.0089 179.55 80.7509 179.2 80.8089 178.824L80.8179 178.766C80.8759 178.391 81.2259 178.134 81.6019 178.191C81.9769 178.249 82.2349 178.599 82.1769 178.975L82.1679 179.033C82.1159 179.373 81.8229 179.616 81.4889 179.616Z" fill="#171718"/>
<path d="M76.3614 178.466C76.3204 178.466 76.2784 178.463 76.2374 178.455C75.8634 178.387 75.6154 178.028 75.6844 177.655L79.5314 156.61C79.5994 156.236 79.9594 155.989 80.3314 156.057C80.7054 156.125 80.9534 156.484 80.8844 156.857L77.0374 177.902C76.9764 178.234 76.6874 178.466 76.3614 178.466Z" fill="#171718"/>
<path d="M169.571 144.018C169.489 144.018 169.405 144.003 169.324 143.972L169.046 143.865C168.691 143.728 168.514 143.331 168.651 142.976C168.788 142.621 169.186 142.445 169.54 142.581L169.818 142.688C170.173 142.825 170.35 143.222 170.213 143.577C170.108 143.851 169.848 144.018 169.571 144.018Z" fill="#171718"/>
<path d="M172.119 52.1149C171.968 52.2569 171.775 52.3549 171.557 52.3899L170.12 52.6189C169.529 52.7149 168.969 52.3079 168.874 51.7189L167.528 43.3039L164.769 26.0479C164.673 25.4569 165.08 24.8969 165.669 24.8039L167.108 24.5729C167.699 24.4799 168.259 24.8839 168.352 25.4749L170.018 35.8799C168.507 36.4859 167.721 37.7079 168.01 39.5699C168.308 41.4889 169.027 42.2489 169.296 42.4689C169.256 42.5199 169.22 42.5729 169.187 42.6309C167.594 45.4229 169.769 47.3759 170.269 47.9689C170.211 48.6509 170.305 49.5909 170.818 50.7699C171.079 51.3689 171.544 51.8109 172.119 52.1149Z" fill="white"/>
<path d="M169.945 53.3218C169.092 53.3218 168.336 52.7008 168.194 51.8298L164.089 26.1578C164.014 25.6918 164.125 25.2228 164.404 24.8378C164.683 24.4528 165.093 24.2008 165.56 24.1258L166.998 23.8948C167.468 23.8208 167.936 23.9328 168.319 24.2118C168.704 24.4908 168.957 24.9018 169.03 25.3688L170.783 36.3148L170.273 36.5198C168.98 37.0388 168.461 38.0028 168.688 39.4658C168.962 41.2318 169.604 41.8348 169.73 41.9378L170.25 42.3628L169.837 42.8928C169.816 42.9188 169.798 42.9468 169.781 42.9768C168.579 45.0848 169.95 46.5938 170.608 47.3188C170.681 47.3998 170.744 47.4688 170.793 47.5268L170.977 47.7448L170.953 48.0288C170.89 48.7688 171.056 49.5998 171.447 50.4968C171.631 50.9158 171.965 51.2558 172.44 51.5068L173.291 51.9568L172.589 52.6158C172.334 52.8548 172.015 53.0118 171.667 53.0688L170.227 53.2978C170.133 53.3138 170.038 53.3218 169.945 53.3218ZM168.874 47.3658L169.553 51.6108C169.587 51.8228 169.795 51.9738 170.01 51.9398L170.678 51.8338C170.476 51.5948 170.311 51.3308 170.187 51.0478C169.754 50.0518 169.545 49.1018 169.567 48.2168C169.391 48.0238 169.133 47.7358 168.874 47.3658ZM167.993 41.8578L168.197 43.1328C168.264 42.9478 168.345 42.7588 168.442 42.5668C168.299 42.3868 168.144 42.1538 167.993 41.8578ZM167.277 25.2488C167.256 25.2488 167.236 25.2508 167.214 25.2538L165.776 25.4848C165.672 25.5018 165.581 25.5578 165.518 25.6448C165.482 25.6948 165.424 25.7998 165.447 25.9398L167.36 37.9038C167.593 36.8538 168.236 36.0238 169.256 35.4778L167.672 25.5848C167.655 25.4798 167.599 25.3878 167.512 25.3258C167.443 25.2758 167.361 25.2488 167.277 25.2488Z" fill="#171718"/>
<path d="M105.426 49.4532C105.697 49.3498 105.724 48.762 105.487 48.1402C105.25 47.5184 104.838 47.0981 104.567 47.2015C104.296 47.3049 104.268 47.8927 104.506 48.5145C104.743 49.1363 105.155 49.5565 105.426 49.4532Z" fill="#171718"/>
<path d="M112.373 47.2134C112.644 47.1101 112.671 46.5222 112.434 45.9004C112.197 45.2787 111.785 44.8584 111.514 44.9618C111.243 45.0651 111.216 45.653 111.453 46.2748C111.69 46.8965 112.102 47.3168 112.373 47.2134Z" fill="#171718"/>
</svg>
