<svg width="332" height="139" viewBox="0 0 332 139" fill="none" xmlns="http://www.w3.org/2000/svg">
<g clip-path="url(#clip0_1062_6813)">
<rect y="74" width="52" height="35" rx="8" fill="#F5F7FA"/>
<rect y="74" width="52" height="8" fill="#E2E8F0"/>
<g opacity="0.5">
<line y1="-1" x2="76" y2="-1" transform="matrix(0.743145 -0.669131 0.704907 0.7093 -2 94.8539)" stroke="#E2E8F0" stroke-width="2"/>
<line y1="-1" x2="76" y2="-1" transform="matrix(0.743145 -0.669131 0.704907 0.7093 -2 105.708)" stroke="#E2E8F0" stroke-width="2"/>
<line y1="-1" x2="76" y2="-1" transform="matrix(0.743145 -0.669131 0.704907 0.7093 -2 116.562)" stroke="#E2E8F0" stroke-width="2"/>
<line y1="-1" x2="76" y2="-1" transform="matrix(0.743145 -0.669131 0.704907 0.7093 -2 127.416)" stroke="#E2E8F0" stroke-width="2"/>
<line y1="-1" x2="76" y2="-1" transform="matrix(0.743145 -0.669131 0.704907 0.7093 -2 138.27)" stroke="#E2E8F0" stroke-width="2"/>
</g>
<path d="M13.464 101V91.97H11.462V90.57H15.102V101H13.464ZM17.1824 101V99.81L20.0384 96.758C20.5984 96.1607 21.0371 95.68 21.3544 95.316C21.6811 94.9427 21.9144 94.616 22.0544 94.336C22.2038 94.056 22.2784 93.762 22.2784 93.454C22.2784 92.95 22.1244 92.5627 21.8164 92.292C21.5084 92.012 21.1118 91.872 20.6264 91.872C20.1224 91.872 19.6884 92.0167 19.3244 92.306C18.9604 92.586 18.7084 92.9967 18.5684 93.538L17.1124 93.118C17.2244 92.5673 17.4484 92.0913 17.7844 91.69C18.1204 91.2793 18.5311 90.962 19.0164 90.738C19.5111 90.514 20.0431 90.402 20.6124 90.402C21.2751 90.402 21.8538 90.528 22.3484 90.78C22.8431 91.0227 23.2258 91.3633 23.4964 91.802C23.7764 92.2407 23.9164 92.7493 23.9164 93.328C23.9164 93.7107 23.8418 94.084 23.6924 94.448C23.5524 94.8027 23.3331 95.1807 23.0344 95.582C22.7358 95.974 22.3531 96.4173 21.8864 96.912L19.3664 99.6H24.1124V101H17.1824ZM26.9216 101L35.4056 90.57H37.1696L28.6856 101H26.9216ZM28.5176 95.862C28.0043 95.862 27.5423 95.7407 27.1316 95.498C26.7209 95.246 26.3896 94.9147 26.1376 94.504C25.8949 94.0933 25.7736 93.636 25.7736 93.132C25.7736 92.628 25.8949 92.1707 26.1376 91.76C26.3896 91.34 26.7209 91.0087 27.1316 90.766C27.5423 90.5233 28.0043 90.402 28.5176 90.402C29.0309 90.402 29.4929 90.5233 29.9036 90.766C30.3143 91.0087 30.6409 91.34 30.8836 91.76C31.1263 92.1707 31.2476 92.628 31.2476 93.132C31.2476 93.636 31.1263 94.0933 30.8836 94.504C30.6409 94.9147 30.3143 95.246 29.9036 95.498C29.4929 95.7407 29.0309 95.862 28.5176 95.862ZM28.5176 94.588C28.8069 94.588 29.0543 94.518 29.2596 94.378C29.4743 94.238 29.6376 94.056 29.7496 93.832C29.8616 93.608 29.9176 93.3747 29.9176 93.132C29.9176 92.88 29.8616 92.6467 29.7496 92.432C29.6376 92.208 29.4743 92.026 29.2596 91.886C29.0543 91.746 28.8069 91.676 28.5176 91.676C28.2376 91.676 27.9903 91.746 27.7756 91.886C27.5609 92.026 27.3929 92.208 27.2716 92.432C27.1596 92.6467 27.1036 92.88 27.1036 93.132C27.1036 93.3747 27.1596 93.608 27.2716 93.832C27.3929 94.056 27.5609 94.238 27.7756 94.378C27.9903 94.518 28.2376 94.588 28.5176 94.588ZM35.5036 101.168C34.9903 101.168 34.5236 101.047 34.1036 100.804C33.6929 100.552 33.3663 100.221 33.1236 99.81C32.8809 99.3993 32.7596 98.942 32.7596 98.438C32.7596 97.934 32.8809 97.4767 33.1236 97.066C33.3663 96.646 33.6929 96.3147 34.1036 96.072C34.5236 95.8293 34.9903 95.708 35.5036 95.708C36.0169 95.708 36.4789 95.8293 36.8896 96.072C37.3003 96.3147 37.6269 96.646 37.8696 97.066C38.1123 97.4767 38.2336 97.934 38.2336 98.438C38.2336 98.942 38.1123 99.3993 37.8696 99.81C37.6269 100.221 37.3003 100.552 36.8896 100.804C36.4789 101.047 36.0169 101.168 35.5036 101.168ZM35.5036 99.894C35.7929 99.894 36.0403 99.824 36.2456 99.684C36.4509 99.544 36.6096 99.362 36.7216 99.138C36.8429 98.914 36.9036 98.6807 36.9036 98.438C36.9036 98.186 36.8429 97.9527 36.7216 97.738C36.6096 97.514 36.4509 97.332 36.2456 97.192C36.0403 97.052 35.7929 96.982 35.5036 96.982C35.2236 96.982 34.9763 97.052 34.7616 97.192C34.5469 97.332 34.3789 97.514 34.2576 97.738C34.1456 97.9527 34.0896 98.186 34.0896 98.438C34.0896 98.6807 34.1456 98.914 34.2576 99.138C34.3789 99.362 34.5469 99.544 34.7616 99.684C34.9763 99.824 35.2236 99.894 35.5036 99.894Z" fill="#171718"/>
</g>
<path d="M17.1589 133.5V132.18H17.6749C18.0749 132.18 18.3949 132.064 18.6349 131.832C18.8749 131.592 18.9949 131.272 18.9949 130.872V124.56H20.3989V130.824C20.3989 131.368 20.2869 131.84 20.0629 132.24C19.8469 132.64 19.5309 132.952 19.1149 133.176C18.7069 133.392 18.2269 133.5 17.6749 133.5H17.1589ZM24.4146 133.644C23.9266 133.644 23.4986 133.536 23.1306 133.32C22.7626 133.096 22.4746 132.788 22.2666 132.396C22.0666 131.996 21.9666 131.536 21.9666 131.016V127.008H23.3226V130.896C23.3226 131.192 23.3826 131.452 23.5026 131.676C23.6226 131.9 23.7906 132.076 24.0066 132.204C24.2226 132.324 24.4706 132.384 24.7506 132.384C25.0386 132.384 25.2906 132.32 25.5066 132.192C25.7226 132.064 25.8906 131.884 26.0106 131.652C26.1386 131.42 26.2026 131.148 26.2026 130.836V127.008H27.5466V133.5H26.2626V132.228L26.4066 132.396C26.2546 132.796 26.0026 133.104 25.6506 133.32C25.2986 133.536 24.8866 133.644 24.4146 133.644ZM29.1299 133.5V127.008H30.4259V128.28L30.2699 128.112C30.4299 127.704 30.6859 127.396 31.0379 127.188C31.3899 126.972 31.7979 126.864 32.2619 126.864C32.7419 126.864 33.1659 126.968 33.5339 127.176C33.9019 127.384 34.1899 127.672 34.3979 128.04C34.6059 128.408 34.7099 128.832 34.7099 129.312V133.5H33.3659V129.672C33.3659 129.344 33.3059 129.068 33.1859 128.844C33.0659 128.612 32.8939 128.436 32.6699 128.316C32.4539 128.188 32.2059 128.124 31.9259 128.124C31.6459 128.124 31.3939 128.188 31.1699 128.316C30.9539 128.436 30.7859 128.612 30.6659 128.844C30.5459 129.076 30.4859 129.352 30.4859 129.672V133.5H29.1299Z" fill="#6B7280"/>
<g clip-path="url(#clip1_1062_6813)">
<rect x="56" y="30" width="52" height="79" rx="8" fill="#F5F7FA"/>
<rect x="55.833" y="30" width="52" height="8" fill="#E2E8F0"/>
<g opacity="0.5">
<line y1="-1" x2="76" y2="-1" transform="matrix(0.743145 -0.669131 0.704907 0.7093 54 40.7079)" stroke="#E2E8F0" stroke-width="2"/>
<line y1="-1" x2="76" y2="-1" transform="matrix(0.743145 -0.669131 0.704907 0.7093 54 51.5618)" stroke="#E2E8F0" stroke-width="2"/>
<line y1="-1" x2="76" y2="-1" transform="matrix(0.743145 -0.669131 0.704907 0.7093 54 62.4157)" stroke="#E2E8F0" stroke-width="2"/>
<line y1="-1" x2="76" y2="-1" transform="matrix(0.743145 -0.669131 0.704907 0.7093 54 73.2697)" stroke="#E2E8F0" stroke-width="2"/>
<line y1="-1" x2="76" y2="-1" transform="matrix(0.743145 -0.669131 0.704907 0.7093 54 84.1235)" stroke="#E2E8F0" stroke-width="2"/>
<line y1="-1" x2="76" y2="-1" transform="matrix(0.743145 -0.669131 0.704907 0.7093 54 94.9775)" stroke="#E2E8F0" stroke-width="2"/>
<line y1="-1" x2="76" y2="-1" transform="matrix(0.743145 -0.669131 0.704907 0.7093 54 105.831)" stroke="#E2E8F0" stroke-width="2"/>
<line y1="-1" x2="76" y2="-1" transform="matrix(0.743145 -0.669131 0.704907 0.7093 54 116.685)" stroke="#E2E8F0" stroke-width="2"/>
<line y1="-1" x2="76" y2="-1" transform="matrix(0.743145 -0.669131 0.704907 0.7093 54 127.539)" stroke="#E2E8F0" stroke-width="2"/>
<line y1="-1" x2="76" y2="-1" transform="matrix(0.743145 -0.669131 0.704907 0.7093 54 138.393)" stroke="#E2E8F0" stroke-width="2"/>
<line y1="-1" x2="76" y2="-1" transform="matrix(0.743145 -0.669131 0.704907 0.7093 54 149.247)" stroke="#E2E8F0" stroke-width="2"/>
<line y1="-1" x2="76" y2="-1" transform="matrix(0.743145 -0.669131 0.704907 0.7093 54 160.101)" stroke="#E2E8F0" stroke-width="2"/>
</g>
<path d="M67.05 57L71.502 47.97H66.49V46.57H73.224V47.97L68.842 57H67.05ZM78.162 57.168C77.434 57.168 76.7946 57.028 76.244 56.748C75.7026 56.4587 75.2826 56.076 74.984 55.6C74.6853 55.1147 74.536 54.578 74.536 53.99C74.536 53.318 74.718 52.7393 75.082 52.254C75.4553 51.7593 75.978 51.4 76.65 51.176L76.58 51.596C76.0853 51.4093 75.6933 51.0967 75.404 50.658C75.124 50.21 74.984 49.72 74.984 49.188C74.984 48.656 75.1193 48.18 75.39 47.76C75.67 47.34 76.048 47.0087 76.524 46.766C77.0093 46.5233 77.5553 46.402 78.162 46.402C78.778 46.402 79.324 46.5233 79.8 46.766C80.276 46.9993 80.6493 47.326 80.92 47.746C81.2 48.166 81.34 48.6467 81.34 49.188C81.34 49.7387 81.1953 50.2333 80.906 50.672C80.626 51.1013 80.2433 51.4093 79.758 51.596L79.688 51.176C80.36 51.4093 80.8826 51.7687 81.256 52.254C81.6293 52.7393 81.816 53.318 81.816 53.99C81.816 54.578 81.662 55.1147 81.354 55.6C81.0553 56.076 80.6306 56.4587 80.08 56.748C79.5293 57.028 78.89 57.168 78.162 57.168ZM78.162 55.768C78.5633 55.768 78.9133 55.6933 79.212 55.544C79.5106 55.3853 79.744 55.1707 79.912 54.9C80.08 54.6293 80.164 54.312 80.164 53.948C80.164 53.584 80.08 53.2667 79.912 52.996C79.744 52.7253 79.5106 52.5153 79.212 52.366C78.9133 52.2167 78.5633 52.142 78.162 52.142C77.77 52.142 77.4246 52.2167 77.126 52.366C76.8273 52.5153 76.594 52.7253 76.426 52.996C76.258 53.2667 76.174 53.584 76.174 53.948C76.174 54.312 76.258 54.6293 76.426 54.9C76.594 55.1707 76.8273 55.3853 77.126 55.544C77.4246 55.6933 77.77 55.768 78.162 55.768ZM78.162 50.742C78.4606 50.742 78.722 50.6813 78.946 50.56C79.1793 50.4293 79.3613 50.252 79.492 50.028C79.6226 49.804 79.688 49.552 79.688 49.272C79.688 48.9827 79.6226 48.7307 79.492 48.516C79.3613 48.292 79.1793 48.1193 78.946 47.998C78.722 47.8673 78.4606 47.802 78.162 47.802C77.8726 47.802 77.6113 47.8673 77.378 47.998C77.1446 48.1193 76.9626 48.292 76.832 48.516C76.7013 48.7307 76.636 48.9827 76.636 49.272C76.636 49.552 76.7013 49.804 76.832 50.028C76.9626 50.252 77.1446 50.4293 77.378 50.56C77.6113 50.6813 77.8726 50.742 78.162 50.742ZM84.656 57L93.14 46.57H94.904L86.42 57H84.656ZM86.252 51.862C85.7387 51.862 85.2767 51.7407 84.866 51.498C84.4553 51.246 84.124 50.9147 83.872 50.504C83.6293 50.0933 83.508 49.636 83.508 49.132C83.508 48.628 83.6293 48.1707 83.872 47.76C84.124 47.34 84.4553 47.0087 84.866 46.766C85.2767 46.5233 85.7387 46.402 86.252 46.402C86.7653 46.402 87.2273 46.5233 87.638 46.766C88.0487 47.0087 88.3753 47.34 88.618 47.76C88.8607 48.1707 88.982 48.628 88.982 49.132C88.982 49.636 88.8607 50.0933 88.618 50.504C88.3753 50.9147 88.0487 51.246 87.638 51.498C87.2273 51.7407 86.7653 51.862 86.252 51.862ZM86.252 50.588C86.5413 50.588 86.7887 50.518 86.994 50.378C87.2087 50.238 87.372 50.056 87.484 49.832C87.596 49.608 87.652 49.3747 87.652 49.132C87.652 48.88 87.596 48.6467 87.484 48.432C87.372 48.208 87.2087 48.026 86.994 47.886C86.7887 47.746 86.5413 47.676 86.252 47.676C85.972 47.676 85.7247 47.746 85.51 47.886C85.2953 48.026 85.1273 48.208 85.006 48.432C84.894 48.6467 84.838 48.88 84.838 49.132C84.838 49.3747 84.894 49.608 85.006 49.832C85.1273 50.056 85.2953 50.238 85.51 50.378C85.7247 50.518 85.972 50.588 86.252 50.588ZM93.238 57.168C92.7247 57.168 92.258 57.0467 91.838 56.804C91.4273 56.552 91.1007 56.2207 90.858 55.81C90.6153 55.3993 90.494 54.942 90.494 54.438C90.494 53.934 90.6153 53.4767 90.858 53.066C91.1007 52.646 91.4273 52.3147 91.838 52.072C92.258 51.8293 92.7247 51.708 93.238 51.708C93.7513 51.708 94.2133 51.8293 94.624 52.072C95.0347 52.3147 95.3613 52.646 95.604 53.066C95.8467 53.4767 95.968 53.934 95.968 54.438C95.968 54.942 95.8467 55.3993 95.604 55.81C95.3613 56.2207 95.0347 56.552 94.624 56.804C94.2133 57.0467 93.7513 57.168 93.238 57.168ZM93.238 55.894C93.5273 55.894 93.7747 55.824 93.98 55.684C94.1853 55.544 94.344 55.362 94.456 55.138C94.5773 54.914 94.638 54.6807 94.638 54.438C94.638 54.186 94.5773 53.9527 94.456 53.738C94.344 53.514 94.1853 53.332 93.98 53.192C93.7747 53.052 93.5273 52.982 93.238 52.982C92.958 52.982 92.7107 53.052 92.496 53.192C92.2813 53.332 92.1133 53.514 91.992 53.738C91.88 53.9527 91.824 54.186 91.824 54.438C91.824 54.6807 91.88 54.914 91.992 55.138C92.1133 55.362 92.2813 55.544 92.496 55.684C92.7107 55.824 92.958 55.894 93.238 55.894Z" fill="#171718"/>
</g>
<path d="M75.2038 133.5V132.18H75.7198C76.1198 132.18 76.4398 132.064 76.6798 131.832C76.9198 131.592 77.0398 131.272 77.0398 130.872V124.56H78.4438V130.824C78.4438 131.368 78.3318 131.84 78.1078 132.24C77.8918 132.64 77.5758 132.952 77.1598 133.176C76.7518 133.392 76.2718 133.5 75.7198 133.5H75.2038ZM82.4596 133.644C81.9716 133.644 81.5436 133.536 81.1756 133.32C80.8076 133.096 80.5196 132.788 80.3116 132.396C80.1116 131.996 80.0116 131.536 80.0116 131.016V127.008H81.3676V130.896C81.3676 131.192 81.4276 131.452 81.5476 131.676C81.6676 131.9 81.8356 132.076 82.0516 132.204C82.2676 132.324 82.5156 132.384 82.7956 132.384C83.0836 132.384 83.3356 132.32 83.5516 132.192C83.7676 132.064 83.9356 131.884 84.0556 131.652C84.1836 131.42 84.2476 131.148 84.2476 130.836V127.008H85.5916V133.5H84.3076V132.228L84.4516 132.396C84.2996 132.796 84.0476 133.104 83.6956 133.32C83.3436 133.536 82.9316 133.644 82.4596 133.644ZM87.1748 133.5V124.416H88.5308V133.5H87.1748Z" fill="#6B7280"/>
<g clip-path="url(#clip2_1062_6813)">
<rect x="112" y="51" width="52" height="58" rx="8" fill="#F5F7FA"/>
<rect x="111.667" y="51" width="52" height="8" fill="#E2E8F0"/>
<g opacity="0.5">
<line y1="-1" x2="76" y2="-1" transform="matrix(0.743145 -0.669131 0.704907 0.7093 110 61.5618)" stroke="#E2E8F0" stroke-width="2"/>
<line y1="-1" x2="76" y2="-1" transform="matrix(0.743145 -0.669131 0.704907 0.7093 110 72.4157)" stroke="#E2E8F0" stroke-width="2"/>
<line y1="-1" x2="76" y2="-1" transform="matrix(0.743145 -0.669131 0.704907 0.7093 110 83.2697)" stroke="#E2E8F0" stroke-width="2"/>
<line y1="-1" x2="76" y2="-1" transform="matrix(0.743145 -0.669131 0.704907 0.7093 110 94.1235)" stroke="#E2E8F0" stroke-width="2"/>
<line y1="-1" x2="76" y2="-1" transform="matrix(0.743145 -0.669131 0.704907 0.7093 110 104.977)" stroke="#E2E8F0" stroke-width="2"/>
<line y1="-1" x2="76" y2="-1" transform="matrix(0.743145 -0.669131 0.704907 0.7093 110 115.831)" stroke="#E2E8F0" stroke-width="2"/>
<line y1="-1" x2="76" y2="-1" transform="matrix(0.743145 -0.669131 0.704907 0.7093 110 126.685)" stroke="#E2E8F0" stroke-width="2"/>
<line y1="-1" x2="76" y2="-1" transform="matrix(0.743145 -0.669131 0.704907 0.7093 110 137.539)" stroke="#E2E8F0" stroke-width="2"/>
<line y1="-1" x2="76" y2="-1" transform="matrix(0.743145 -0.669131 0.704907 0.7093 110 148.393)" stroke="#E2E8F0" stroke-width="2"/>
<line y1="-1" x2="76" y2="-1" transform="matrix(0.743145 -0.669131 0.704907 0.7093 110 159.247)" stroke="#E2E8F0" stroke-width="2"/>
</g>
<path d="M126.214 78.168C125.533 78.168 124.926 78.0187 124.394 77.72C123.862 77.4213 123.442 77.0107 123.134 76.488C122.835 75.9653 122.686 75.3727 122.686 74.71C122.686 74.3647 122.723 74.0193 122.798 73.674C122.873 73.3287 123.003 72.9693 123.19 72.596C123.386 72.2227 123.647 71.8213 123.974 71.392L126.886 67.57H128.86L125.29 72.19L125.01 72.008C125.141 71.8587 125.281 71.742 125.43 71.658C125.589 71.574 125.752 71.5133 125.92 71.476C126.097 71.4387 126.284 71.42 126.48 71.42C127.105 71.42 127.665 71.5647 128.16 71.854C128.655 72.1433 129.042 72.5353 129.322 73.03C129.611 73.5247 129.756 74.094 129.756 74.738C129.756 75.3913 129.602 75.9793 129.294 76.502C128.986 77.0153 128.566 77.4213 128.034 77.72C127.511 78.0187 126.905 78.168 126.214 78.168ZM126.214 76.698C126.578 76.698 126.9 76.614 127.18 76.446C127.46 76.278 127.684 76.0493 127.852 75.76C128.02 75.4613 128.104 75.1253 128.104 74.752C128.104 74.3693 128.02 74.0333 127.852 73.744C127.693 73.4547 127.469 73.2307 127.18 73.072C126.9 72.904 126.578 72.82 126.214 72.82C125.859 72.82 125.537 72.904 125.248 73.072C124.968 73.2307 124.744 73.4547 124.576 73.744C124.408 74.0333 124.324 74.3693 124.324 74.752C124.324 75.1253 124.408 75.4613 124.576 75.76C124.744 76.0493 124.968 76.278 125.248 76.446C125.537 76.614 125.859 76.698 126.214 76.698ZM131.108 78V76.81L133.964 73.758C134.524 73.1607 134.963 72.68 135.28 72.316C135.607 71.9427 135.84 71.616 135.98 71.336C136.13 71.056 136.204 70.762 136.204 70.454C136.204 69.95 136.05 69.5627 135.742 69.292C135.434 69.012 135.038 68.872 134.552 68.872C134.048 68.872 133.614 69.0167 133.25 69.306C132.886 69.586 132.634 69.9967 132.494 70.538L131.038 70.118C131.15 69.5673 131.374 69.0913 131.71 68.69C132.046 68.2793 132.457 67.962 132.942 67.738C133.437 67.514 133.969 67.402 134.538 67.402C135.201 67.402 135.78 67.528 136.274 67.78C136.769 68.0227 137.152 68.3633 137.422 68.802C137.702 69.2407 137.842 69.7493 137.842 70.328C137.842 70.7107 137.768 71.084 137.618 71.448C137.478 71.8027 137.259 72.1807 136.96 72.582C136.662 72.974 136.279 73.4173 135.812 73.912L133.292 76.6H138.038V78H131.108ZM140.847 78L149.331 67.57H151.095L142.611 78H140.847ZM142.443 72.862C141.93 72.862 141.468 72.7407 141.057 72.498C140.647 72.246 140.315 71.9147 140.063 71.504C139.821 71.0933 139.699 70.636 139.699 70.132C139.699 69.628 139.821 69.1707 140.063 68.76C140.315 68.34 140.647 68.0087 141.057 67.766C141.468 67.5233 141.93 67.402 142.443 67.402C142.957 67.402 143.419 67.5233 143.829 67.766C144.24 68.0087 144.567 68.34 144.809 68.76C145.052 69.1707 145.173 69.628 145.173 70.132C145.173 70.636 145.052 71.0933 144.809 71.504C144.567 71.9147 144.24 72.246 143.829 72.498C143.419 72.7407 142.957 72.862 142.443 72.862ZM142.443 71.588C142.733 71.588 142.98 71.518 143.185 71.378C143.4 71.238 143.563 71.056 143.675 70.832C143.787 70.608 143.843 70.3747 143.843 70.132C143.843 69.88 143.787 69.6467 143.675 69.432C143.563 69.208 143.4 69.026 143.185 68.886C142.98 68.746 142.733 68.676 142.443 68.676C142.163 68.676 141.916 68.746 141.701 68.886C141.487 69.026 141.319 69.208 141.197 69.432C141.085 69.6467 141.029 69.88 141.029 70.132C141.029 70.3747 141.085 70.608 141.197 70.832C141.319 71.056 141.487 71.238 141.701 71.378C141.916 71.518 142.163 71.588 142.443 71.588ZM149.429 78.168C148.916 78.168 148.449 78.0467 148.029 77.804C147.619 77.552 147.292 77.2207 147.049 76.81C146.807 76.3993 146.685 75.942 146.685 75.438C146.685 74.934 146.807 74.4767 147.049 74.066C147.292 73.646 147.619 73.3147 148.029 73.072C148.449 72.8293 148.916 72.708 149.429 72.708C149.943 72.708 150.405 72.8293 150.815 73.072C151.226 73.3147 151.553 73.646 151.795 74.066C152.038 74.4767 152.159 74.934 152.159 75.438C152.159 75.942 152.038 76.3993 151.795 76.81C151.553 77.2207 151.226 77.552 150.815 77.804C150.405 78.0467 149.943 78.168 149.429 78.168ZM149.429 76.894C149.719 76.894 149.966 76.824 150.171 76.684C150.377 76.544 150.535 76.362 150.647 76.138C150.769 75.914 150.829 75.6807 150.829 75.438C150.829 75.186 150.769 74.9527 150.647 74.738C150.535 74.514 150.377 74.332 150.171 74.192C149.966 74.052 149.719 73.982 149.429 73.982C149.149 73.982 148.902 74.052 148.687 74.192C148.473 74.332 148.305 74.514 148.183 74.738C148.071 74.9527 148.015 75.186 148.015 75.438C148.015 75.6807 148.071 75.914 148.183 76.138C148.305 76.362 148.473 76.544 148.687 76.684C148.902 76.824 149.149 76.894 149.429 76.894Z" fill="#171718"/>
</g>
<path d="M126.589 133.5L129.733 124.56H131.485L134.629 133.5H133.117L132.433 131.496H128.797L128.101 133.5H126.589ZM129.205 130.236H132.001L130.417 125.556H130.813L129.205 130.236ZM137.756 133.644C137.268 133.644 136.84 133.536 136.472 133.32C136.104 133.096 135.816 132.788 135.608 132.396C135.408 131.996 135.308 131.536 135.308 131.016V127.008H136.664V130.896C136.664 131.192 136.724 131.452 136.844 131.676C136.964 131.9 137.132 132.076 137.348 132.204C137.564 132.324 137.812 132.384 138.092 132.384C138.38 132.384 138.632 132.32 138.848 132.192C139.064 132.064 139.232 131.884 139.352 131.652C139.48 131.42 139.544 131.148 139.544 130.836V127.008H140.888V133.5H139.604V132.228L139.748 132.396C139.596 132.796 139.344 133.104 138.992 133.32C138.64 133.536 138.228 133.644 137.756 133.644ZM145.604 136.14C145.132 136.14 144.696 136.064 144.296 135.912C143.896 135.76 143.552 135.548 143.264 135.276C142.976 135.012 142.76 134.7 142.616 134.34L143.864 133.824C143.976 134.128 144.18 134.38 144.476 134.58C144.78 134.78 145.152 134.88 145.592 134.88C145.936 134.88 146.244 134.812 146.516 134.676C146.788 134.548 147.004 134.356 147.164 134.1C147.324 133.852 147.404 133.552 147.404 133.2V131.736L147.644 132.012C147.42 132.428 147.108 132.744 146.708 132.96C146.316 133.176 145.872 133.284 145.376 133.284C144.776 133.284 144.236 133.144 143.756 132.864C143.276 132.584 142.896 132.2 142.616 131.712C142.344 131.224 142.208 130.676 142.208 130.068C142.208 129.452 142.344 128.904 142.616 128.424C142.896 127.944 143.272 127.564 143.744 127.284C144.216 127.004 144.756 126.864 145.364 126.864C145.86 126.864 146.3 126.972 146.684 127.188C147.076 127.396 147.396 127.7 147.644 128.1L147.464 128.436V127.008H148.748V133.2C148.748 133.76 148.612 134.26 148.34 134.7C148.076 135.148 147.708 135.5 147.236 135.756C146.764 136.012 146.22 136.14 145.604 136.14ZM145.532 132.024C145.892 132.024 146.212 131.94 146.492 131.772C146.772 131.596 146.992 131.364 147.152 131.076C147.32 130.78 147.404 130.448 147.404 130.08C147.404 129.712 147.32 129.38 147.152 129.084C146.984 128.788 146.76 128.556 146.48 128.388C146.2 128.212 145.884 128.124 145.532 128.124C145.164 128.124 144.836 128.212 144.548 128.388C144.26 128.556 144.032 128.788 143.864 129.084C143.704 129.372 143.624 129.704 143.624 130.08C143.624 130.44 143.704 130.768 143.864 131.064C144.032 131.36 144.26 131.596 144.548 131.772C144.836 131.94 145.164 132.024 145.532 132.024Z" fill="#6B7280"/>
<g clip-path="url(#clip3_1062_6813)">
<rect x="168" y="37" width="52" height="72" rx="8" fill="#F5F7FA"/>
<rect x="168.5" y="37" width="52" height="8" fill="#E2E8F0"/>
<g opacity="0.5">
<line y1="-1" x2="76" y2="-1" transform="matrix(0.743145 -0.669131 0.704907 0.7093 166 43.7079)" stroke="#E2E8F0" stroke-width="2"/>
<line y1="-1" x2="76" y2="-1" transform="matrix(0.743145 -0.669131 0.704907 0.7093 166 54.5618)" stroke="#E2E8F0" stroke-width="2"/>
<line y1="-1" x2="76" y2="-1" transform="matrix(0.743145 -0.669131 0.704907 0.7093 166 65.4157)" stroke="#E2E8F0" stroke-width="2"/>
<line y1="-1" x2="76" y2="-1" transform="matrix(0.743145 -0.669131 0.704907 0.7093 166 76.2697)" stroke="#E2E8F0" stroke-width="2"/>
<line y1="-1" x2="76" y2="-1" transform="matrix(0.743145 -0.669131 0.704907 0.7093 166 87.1235)" stroke="#E2E8F0" stroke-width="2"/>
<line y1="-1" x2="76" y2="-1" transform="matrix(0.743145 -0.669131 0.704907 0.7093 166 97.9775)" stroke="#E2E8F0" stroke-width="2"/>
<line y1="-1" x2="76" y2="-1" transform="matrix(0.743145 -0.669131 0.704907 0.7093 166 108.831)" stroke="#E2E8F0" stroke-width="2"/>
<line y1="-1" x2="76" y2="-1" transform="matrix(0.743145 -0.669131 0.704907 0.7093 166 119.685)" stroke="#E2E8F0" stroke-width="2"/>
<line y1="-1" x2="76" y2="-1" transform="matrix(0.743145 -0.669131 0.704907 0.7093 166 130.539)" stroke="#E2E8F0" stroke-width="2"/>
<line y1="-1" x2="76" y2="-1" transform="matrix(0.743145 -0.669131 0.704907 0.7093 166 141.393)" stroke="#E2E8F0" stroke-width="2"/>
<line y1="-1" x2="76" y2="-1" transform="matrix(0.743145 -0.669131 0.704907 0.7093 166 152.247)" stroke="#E2E8F0" stroke-width="2"/>
</g>
<path d="M178.05 64L182.502 54.97H177.49V53.57H184.224V54.97L179.842 64H178.05ZM189.778 64.168C188.947 64.168 188.219 63.944 187.594 63.496C186.969 63.0387 186.479 62.4087 186.124 61.606C185.779 60.794 185.606 59.8513 185.606 58.778C185.606 57.6953 185.779 56.7527 186.124 55.95C186.479 55.1473 186.964 54.522 187.58 54.074C188.205 53.626 188.933 53.402 189.764 53.402C190.595 53.402 191.318 53.626 191.934 54.074C192.559 54.522 193.045 55.152 193.39 55.964C193.745 56.7667 193.922 57.7047 193.922 58.778C193.922 59.8513 193.749 60.794 193.404 61.606C193.059 62.4087 192.573 63.0387 191.948 63.496C191.332 63.944 190.609 64.168 189.778 64.168ZM189.778 62.656C190.291 62.656 190.735 62.4973 191.108 62.18C191.481 61.8627 191.771 61.4147 191.976 60.836C192.181 60.2573 192.284 59.5713 192.284 58.778C192.284 57.9847 192.181 57.2987 191.976 56.72C191.771 56.1413 191.481 55.6933 191.108 55.376C190.735 55.0587 190.287 54.9 189.764 54.9C189.251 54.9 188.807 55.0587 188.434 55.376C188.061 55.6933 187.771 56.1413 187.566 56.72C187.361 57.2987 187.258 57.9847 187.258 58.778C187.258 59.562 187.361 60.248 187.566 60.836C187.771 61.4147 188.061 61.8627 188.434 62.18C188.817 62.4973 189.265 62.656 189.778 62.656ZM196.845 64L205.329 53.57H207.093L198.609 64H196.845ZM198.441 58.862C197.928 58.862 197.466 58.7407 197.055 58.498C196.645 58.246 196.313 57.9147 196.061 57.504C195.819 57.0933 195.697 56.636 195.697 56.132C195.697 55.628 195.819 55.1707 196.061 54.76C196.313 54.34 196.645 54.0087 197.055 53.766C197.466 53.5233 197.928 53.402 198.441 53.402C198.955 53.402 199.417 53.5233 199.827 53.766C200.238 54.0087 200.565 54.34 200.807 54.76C201.05 55.1707 201.171 55.628 201.171 56.132C201.171 56.636 201.05 57.0933 200.807 57.504C200.565 57.9147 200.238 58.246 199.827 58.498C199.417 58.7407 198.955 58.862 198.441 58.862ZM198.441 57.588C198.731 57.588 198.978 57.518 199.183 57.378C199.398 57.238 199.561 57.056 199.673 56.832C199.785 56.608 199.841 56.3747 199.841 56.132C199.841 55.88 199.785 55.6467 199.673 55.432C199.561 55.208 199.398 55.026 199.183 54.886C198.978 54.746 198.731 54.676 198.441 54.676C198.161 54.676 197.914 54.746 197.699 54.886C197.485 55.026 197.317 55.208 197.195 55.432C197.083 55.6467 197.027 55.88 197.027 56.132C197.027 56.3747 197.083 56.608 197.195 56.832C197.317 57.056 197.485 57.238 197.699 57.378C197.914 57.518 198.161 57.588 198.441 57.588ZM205.427 64.168C204.914 64.168 204.447 64.0467 204.027 63.804C203.617 63.552 203.29 63.2207 203.047 62.81C202.805 62.3993 202.683 61.942 202.683 61.438C202.683 60.934 202.805 60.4767 203.047 60.066C203.29 59.646 203.617 59.3147 204.027 59.072C204.447 58.8293 204.914 58.708 205.427 58.708C205.941 58.708 206.403 58.8293 206.813 59.072C207.224 59.3147 207.551 59.646 207.793 60.066C208.036 60.4767 208.157 60.934 208.157 61.438C208.157 61.942 208.036 62.3993 207.793 62.81C207.551 63.2207 207.224 63.552 206.813 63.804C206.403 64.0467 205.941 64.168 205.427 64.168ZM205.427 62.894C205.717 62.894 205.964 62.824 206.169 62.684C206.375 62.544 206.533 62.362 206.645 62.138C206.767 61.914 206.827 61.6807 206.827 61.438C206.827 61.186 206.767 60.9527 206.645 60.738C206.533 60.514 206.375 60.332 206.169 60.192C205.964 60.052 205.717 59.982 205.427 59.982C205.147 59.982 204.9 60.052 204.685 60.192C204.471 60.332 204.303 60.514 204.181 60.738C204.069 60.9527 204.013 61.186 204.013 61.438C204.013 61.6807 204.069 61.914 204.181 62.138C204.303 62.362 204.471 62.544 204.685 62.684C204.9 62.824 205.147 62.894 205.427 62.894Z" fill="#171718"/>
</g>
<path d="M186.472 133.644C185.912 133.644 185.392 133.54 184.912 133.332C184.432 133.116 184.024 132.824 183.688 132.456C183.352 132.088 183.104 131.664 182.944 131.184L184.144 130.68C184.36 131.232 184.676 131.656 185.092 131.952C185.508 132.248 185.988 132.396 186.532 132.396C186.852 132.396 187.132 132.348 187.372 132.252C187.612 132.148 187.796 132.004 187.924 131.82C188.06 131.636 188.128 131.424 188.128 131.184C188.128 130.856 188.036 130.596 187.852 130.404C187.668 130.212 187.396 130.06 187.036 129.948L185.356 129.42C184.684 129.212 184.172 128.896 183.82 128.472C183.468 128.04 183.292 127.536 183.292 126.96C183.292 126.456 183.416 126.016 183.664 125.64C183.912 125.256 184.252 124.956 184.684 124.74C185.124 124.524 185.624 124.416 186.184 124.416C186.72 124.416 187.208 124.512 187.648 124.704C188.088 124.888 188.464 125.144 188.776 125.472C189.096 125.8 189.328 126.18 189.472 126.612L188.296 127.128C188.12 126.656 187.844 126.292 187.468 126.036C187.1 125.78 186.672 125.652 186.184 125.652C185.888 125.652 185.628 125.704 185.404 125.808C185.18 125.904 185.004 126.048 184.876 126.24C184.756 126.424 184.696 126.64 184.696 126.888C184.696 127.176 184.788 127.432 184.972 127.656C185.156 127.88 185.436 128.048 185.812 128.16L187.372 128.652C188.084 128.868 188.62 129.18 188.98 129.588C189.34 129.988 189.52 130.488 189.52 131.088C189.52 131.584 189.388 132.024 189.124 132.408C188.868 132.792 188.512 133.096 188.056 133.32C187.6 133.536 187.072 133.644 186.472 133.644ZM194.026 133.644C193.378 133.644 192.802 133.496 192.298 133.2C191.802 132.896 191.414 132.488 191.134 131.976C190.854 131.456 190.714 130.876 190.714 130.236C190.714 129.58 190.854 129 191.134 128.496C191.422 127.992 191.806 127.596 192.286 127.308C192.766 127.012 193.31 126.864 193.918 126.864C194.406 126.864 194.842 126.948 195.226 127.116C195.61 127.284 195.934 127.516 196.198 127.812C196.462 128.1 196.662 128.432 196.798 128.808C196.942 129.184 197.014 129.584 197.014 130.008C197.014 130.112 197.01 130.22 197.002 130.332C196.994 130.444 196.978 130.548 196.954 130.644H191.782V129.564H196.186L195.538 130.056C195.618 129.664 195.59 129.316 195.454 129.012C195.326 128.7 195.126 128.456 194.854 128.28C194.59 128.096 194.278 128.004 193.918 128.004C193.558 128.004 193.238 128.096 192.958 128.28C192.678 128.456 192.462 128.712 192.31 129.048C192.158 129.376 192.098 129.776 192.13 130.248C192.09 130.688 192.15 131.072 192.31 131.4C192.478 131.728 192.71 131.984 193.006 132.168C193.31 132.352 193.654 132.444 194.038 132.444C194.43 132.444 194.762 132.356 195.034 132.18C195.314 132.004 195.534 131.776 195.694 131.496L196.798 132.036C196.67 132.34 196.47 132.616 196.198 132.864C195.934 133.104 195.614 133.296 195.238 133.44C194.87 133.576 194.466 133.644 194.026 133.644ZM198.337 135.9V127.008H199.633V128.352L199.477 128.04C199.717 127.672 200.037 127.384 200.437 127.176C200.837 126.968 201.293 126.864 201.805 126.864C202.421 126.864 202.973 127.012 203.461 127.308C203.957 127.604 204.345 128.008 204.625 128.52C204.913 129.032 205.057 129.608 205.057 130.248C205.057 130.888 204.913 131.464 204.625 131.976C204.345 132.488 203.961 132.896 203.473 133.2C202.985 133.496 202.429 133.644 201.805 133.644C201.301 133.644 200.841 133.54 200.425 133.332C200.017 133.124 199.701 132.824 199.477 132.432L199.693 132.18V135.9H198.337ZM201.673 132.384C202.057 132.384 202.397 132.292 202.693 132.108C202.989 131.924 203.221 131.672 203.389 131.352C203.565 131.024 203.653 130.656 203.653 130.248C203.653 129.84 203.565 129.476 203.389 129.156C203.221 128.836 202.989 128.584 202.693 128.4C202.397 128.216 202.057 128.124 201.673 128.124C201.297 128.124 200.957 128.216 200.653 128.4C200.357 128.584 200.121 128.836 199.945 129.156C199.777 129.476 199.693 129.84 199.693 130.248C199.693 130.656 199.777 131.024 199.945 131.352C200.121 131.672 200.357 131.924 200.653 132.108C200.957 132.292 201.297 132.384 201.673 132.384Z" fill="#6B7280"/>
<g clip-path="url(#clip4_1062_6813)">
<rect x="224" y="24" width="52" height="85" rx="8" fill="#F5F7FA"/>
<rect x="224.333" y="24" width="52" height="8" fill="#E2E8F0"/>
<g opacity="0.5">
<line y1="-1" x2="76" y2="-1" transform="matrix(0.743145 -0.669131 0.704907 0.7093 222 26.8539)" stroke="#E2E8F0" stroke-width="2"/>
<line y1="-1" x2="76" y2="-1" transform="matrix(0.743145 -0.669131 0.704907 0.7093 222 37.7079)" stroke="#E2E8F0" stroke-width="2"/>
<line y1="-1" x2="76" y2="-1" transform="matrix(0.743145 -0.669131 0.704907 0.7093 222 48.5618)" stroke="#E2E8F0" stroke-width="2"/>
<line y1="-1" x2="76" y2="-1" transform="matrix(0.743145 -0.669131 0.704907 0.7093 222 59.4157)" stroke="#E2E8F0" stroke-width="2"/>
<line y1="-1" x2="76" y2="-1" transform="matrix(0.743145 -0.669131 0.704907 0.7093 222 70.2697)" stroke="#E2E8F0" stroke-width="2"/>
<line y1="-1" x2="76" y2="-1" transform="matrix(0.743145 -0.669131 0.704907 0.7093 222 81.1235)" stroke="#E2E8F0" stroke-width="2"/>
<line y1="-1" x2="76" y2="-1" transform="matrix(0.743145 -0.669131 0.704907 0.7093 222 91.9775)" stroke="#E2E8F0" stroke-width="2"/>
<line y1="-1" x2="76" y2="-1" transform="matrix(0.743145 -0.669131 0.704907 0.7093 222 102.831)" stroke="#E2E8F0" stroke-width="2"/>
<line y1="-1" x2="76" y2="-1" transform="matrix(0.743145 -0.669131 0.704907 0.7093 222 113.685)" stroke="#E2E8F0" stroke-width="2"/>
<line y1="-1" x2="76" y2="-1" transform="matrix(0.743145 -0.669131 0.704907 0.7093 222 124.539)" stroke="#E2E8F0" stroke-width="2"/>
<line y1="-1" x2="76" y2="-1" transform="matrix(0.743145 -0.669131 0.704907 0.7093 222 135.393)" stroke="#E2E8F0" stroke-width="2"/>
<line y1="-1" x2="76" y2="-1" transform="matrix(0.743145 -0.669131 0.704907 0.7093 222 146.247)" stroke="#E2E8F0" stroke-width="2"/>
<line y1="-1" x2="76" y2="-1" transform="matrix(0.743145 -0.669131 0.704907 0.7093 222 157.101)" stroke="#E2E8F0" stroke-width="2"/>
</g>
<path d="M235.05 51L239.502 41.97H234.49V40.57H241.224V41.97L236.842 51H235.05ZM245.665 51.168C245.114 51.168 244.596 51.07 244.111 50.874C243.625 50.6687 243.205 50.384 242.851 50.02C242.496 49.656 242.244 49.2173 242.095 48.704L243.481 48.172C243.658 48.6667 243.947 49.0447 244.349 49.306C244.75 49.5673 245.189 49.698 245.665 49.698C246.057 49.698 246.402 49.6093 246.701 49.432C246.999 49.2547 247.233 49.012 247.401 48.704C247.578 48.396 247.667 48.046 247.667 47.654C247.667 47.2527 247.578 46.9027 247.401 46.604C247.233 46.296 246.999 46.058 246.701 45.89C246.402 45.7127 246.057 45.624 245.665 45.624C245.273 45.624 244.913 45.7127 244.587 45.89C244.26 46.0673 244.022 46.3053 243.873 46.604L242.543 46.31L243.355 40.57H248.913V41.97H243.999L244.629 41.284L244.027 45.68L243.509 45.33C243.789 44.938 244.129 44.6533 244.531 44.476C244.932 44.2987 245.389 44.21 245.903 44.21C246.584 44.21 247.177 44.364 247.681 44.672C248.194 44.9707 248.591 45.3813 248.871 45.904C249.16 46.4173 249.305 47.0007 249.305 47.654C249.305 48.3167 249.146 48.914 248.829 49.446C248.511 49.978 248.077 50.398 247.527 50.706C246.985 51.014 246.365 51.168 245.665 51.168ZM252.164 51L260.648 40.57H262.412L253.928 51H252.164ZM253.76 45.862C253.246 45.862 252.784 45.7407 252.374 45.498C251.963 45.246 251.632 44.9147 251.38 44.504C251.137 44.0933 251.016 43.636 251.016 43.132C251.016 42.628 251.137 42.1707 251.38 41.76C251.632 41.34 251.963 41.0087 252.374 40.766C252.784 40.5233 253.246 40.402 253.76 40.402C254.273 40.402 254.735 40.5233 255.146 40.766C255.556 41.0087 255.883 41.34 256.126 41.76C256.368 42.1707 256.49 42.628 256.49 43.132C256.49 43.636 256.368 44.0933 256.126 44.504C255.883 44.9147 255.556 45.246 255.146 45.498C254.735 45.7407 254.273 45.862 253.76 45.862ZM253.76 44.588C254.049 44.588 254.296 44.518 254.502 44.378C254.716 44.238 254.88 44.056 254.992 43.832C255.104 43.608 255.16 43.3747 255.16 43.132C255.16 42.88 255.104 42.6467 254.992 42.432C254.88 42.208 254.716 42.026 254.502 41.886C254.296 41.746 254.049 41.676 253.76 41.676C253.48 41.676 253.232 41.746 253.018 41.886C252.803 42.026 252.635 42.208 252.514 42.432C252.402 42.6467 252.346 42.88 252.346 43.132C252.346 43.3747 252.402 43.608 252.514 43.832C252.635 44.056 252.803 44.238 253.018 44.378C253.232 44.518 253.48 44.588 253.76 44.588ZM260.746 51.168C260.232 51.168 259.766 51.0467 259.346 50.804C258.935 50.552 258.608 50.2207 258.366 49.81C258.123 49.3993 258.002 48.942 258.002 48.438C258.002 47.934 258.123 47.4767 258.366 47.066C258.608 46.646 258.935 46.3147 259.346 46.072C259.766 45.8293 260.232 45.708 260.746 45.708C261.259 45.708 261.721 45.8293 262.132 46.072C262.542 46.3147 262.869 46.646 263.112 47.066C263.354 47.4767 263.476 47.934 263.476 48.438C263.476 48.942 263.354 49.3993 263.112 49.81C262.869 50.2207 262.542 50.552 262.132 50.804C261.721 51.0467 261.259 51.168 260.746 51.168ZM260.746 49.894C261.035 49.894 261.282 49.824 261.488 49.684C261.693 49.544 261.852 49.362 261.964 49.138C262.085 48.914 262.146 48.6807 262.146 48.438C262.146 48.186 262.085 47.9527 261.964 47.738C261.852 47.514 261.693 47.332 261.488 47.192C261.282 47.052 261.035 46.982 260.746 46.982C260.466 46.982 260.218 47.052 260.004 47.192C259.789 47.332 259.621 47.514 259.5 47.738C259.388 47.9527 259.332 48.186 259.332 48.438C259.332 48.6807 259.388 48.914 259.5 49.138C259.621 49.362 259.789 49.544 260.004 49.684C260.218 49.824 260.466 49.894 260.746 49.894Z" fill="#171718"/>
</g>
<path d="M243.93 133.644C243.282 133.644 242.678 133.528 242.118 133.296C241.566 133.064 241.078 132.74 240.654 132.324C240.238 131.908 239.91 131.42 239.67 130.86C239.438 130.3 239.322 129.688 239.322 129.024C239.322 128.36 239.438 127.748 239.67 127.188C239.91 126.62 240.238 126.132 240.654 125.724C241.07 125.308 241.558 124.988 242.118 124.764C242.678 124.532 243.282 124.416 243.93 124.416C244.586 124.416 245.19 124.532 245.742 124.764C246.302 124.988 246.79 125.308 247.206 125.724C247.63 126.14 247.958 126.628 248.19 127.188C248.422 127.748 248.538 128.36 248.538 129.024C248.538 129.688 248.418 130.3 248.178 130.86C247.946 131.42 247.622 131.908 247.206 132.324C246.79 132.74 246.302 133.064 245.742 133.296C245.182 133.528 244.578 133.644 243.93 133.644ZM243.93 132.348C244.394 132.348 244.818 132.264 245.202 132.096C245.594 131.928 245.934 131.696 246.222 131.4C246.51 131.096 246.734 130.744 246.894 130.344C247.054 129.936 247.134 129.496 247.134 129.024C247.134 128.552 247.054 128.116 246.894 127.716C246.734 127.316 246.51 126.964 246.222 126.66C245.934 126.356 245.594 126.12 245.202 125.952C244.818 125.784 244.394 125.7 243.93 125.7C243.466 125.7 243.038 125.784 242.646 125.952C242.262 126.12 241.926 126.356 241.638 126.66C241.35 126.964 241.126 127.316 240.966 127.716C240.814 128.116 240.738 128.552 240.738 129.024C240.738 129.496 240.814 129.936 240.966 130.344C241.126 130.744 241.35 131.096 241.638 131.4C241.926 131.696 242.266 131.928 242.658 132.096C243.05 132.264 243.474 132.348 243.93 132.348ZM253.073 133.644C252.425 133.644 251.849 133.496 251.345 133.2C250.849 132.896 250.453 132.488 250.157 131.976C249.869 131.464 249.725 130.884 249.725 130.236C249.725 129.596 249.869 129.02 250.157 128.508C250.445 127.996 250.841 127.596 251.345 127.308C251.849 127.012 252.425 126.864 253.073 126.864C253.513 126.864 253.925 126.944 254.309 127.104C254.693 127.256 255.025 127.468 255.305 127.74C255.593 128.012 255.805 128.328 255.941 128.688L254.753 129.24C254.617 128.904 254.397 128.636 254.093 128.436C253.797 128.228 253.457 128.124 253.073 128.124C252.705 128.124 252.373 128.216 252.077 128.4C251.789 128.576 251.561 128.828 251.393 129.156C251.225 129.476 251.141 129.84 251.141 130.248C251.141 130.656 251.225 131.024 251.393 131.352C251.561 131.672 251.789 131.924 252.077 132.108C252.373 132.292 252.705 132.384 253.073 132.384C253.465 132.384 253.805 132.284 254.093 132.084C254.389 131.876 254.609 131.6 254.753 131.256L255.941 131.82C255.813 132.164 255.605 132.476 255.317 132.756C255.037 133.028 254.705 133.244 254.321 133.404C253.937 133.564 253.521 133.644 253.073 133.644ZM260.075 133.572C259.395 133.572 258.867 133.38 258.491 132.996C258.115 132.612 257.927 132.072 257.927 131.376V128.232H256.787V127.008H256.967C257.271 127.008 257.507 126.92 257.675 126.744C257.843 126.568 257.927 126.328 257.927 126.024V125.52H259.283V127.008H260.759V128.232H259.283V131.316C259.283 131.54 259.319 131.732 259.391 131.892C259.463 132.044 259.579 132.164 259.739 132.252C259.899 132.332 260.107 132.372 260.363 132.372C260.427 132.372 260.499 132.368 260.579 132.36C260.659 132.352 260.735 132.344 260.807 132.336V133.5C260.695 133.516 260.571 133.532 260.435 133.548C260.299 133.564 260.179 133.572 260.075 133.572Z" fill="#6B7280"/>
<g clip-path="url(#clip5_1062_6813)">
<rect x="280" width="52" height="109" rx="8" fill="url(#paint0_linear_1062_6813)"/>
<rect x="280.167" width="52" height="8" fill="#EAB308"/>
<line y1="-1" x2="76" y2="-1" transform="matrix(0.743145 -0.669131 0.704907 0.7093 278 14.8539)" stroke="#4B2C89" stroke-opacity="0.1" stroke-width="2"/>
<line y1="-1" x2="76" y2="-1" transform="matrix(0.743145 -0.669131 0.704907 0.7093 278 25.7079)" stroke="#4B2C89" stroke-opacity="0.1" stroke-width="2"/>
<line y1="-1" x2="76" y2="-1" transform="matrix(0.743145 -0.669131 0.704907 0.7093 278 36.5618)" stroke="#4B2C89" stroke-opacity="0.1" stroke-width="2"/>
<line y1="-1" x2="76" y2="-1" transform="matrix(0.743145 -0.669131 0.704907 0.7093 278 47.4157)" stroke="#4B2C89" stroke-opacity="0.1" stroke-width="2"/>
<line y1="-1" x2="76" y2="-1" transform="matrix(0.743145 -0.669131 0.704907 0.7093 278 58.2697)" stroke="#4B2C89" stroke-opacity="0.1" stroke-width="2"/>
<line y1="-1" x2="76" y2="-1" transform="matrix(0.743145 -0.669131 0.704907 0.7093 278 69.1235)" stroke="#4B2C89" stroke-opacity="0.1" stroke-width="2"/>
<line y1="-1" x2="76" y2="-1" transform="matrix(0.743145 -0.669131 0.704907 0.7093 278 79.9775)" stroke="#4B2C89" stroke-opacity="0.1" stroke-width="2"/>
<line y1="-1" x2="76" y2="-1" transform="matrix(0.743145 -0.669131 0.704907 0.7093 278 90.8314)" stroke="#4B2C89" stroke-opacity="0.1" stroke-width="2"/>
<line y1="-1" x2="76" y2="-1" transform="matrix(0.743145 -0.669131 0.704907 0.7093 278 101.685)" stroke="#4B2C89" stroke-opacity="0.1" stroke-width="2"/>
<line y1="-1" x2="76" y2="-1" transform="matrix(0.743145 -0.669131 0.704907 0.7093 278 112.539)" stroke="#4B2C89" stroke-opacity="0.1" stroke-width="2"/>
<line y1="-1" x2="76" y2="-1" transform="matrix(0.743145 -0.669131 0.704907 0.7093 278 123.393)" stroke="#4B2C89" stroke-opacity="0.1" stroke-width="2"/>
<line y1="-1" x2="76" y2="-1" transform="matrix(0.743145 -0.669131 0.704907 0.7093 278 134.247)" stroke="#4B2C89" stroke-opacity="0.1" stroke-width="2"/>
<line y1="-1" x2="76" y2="-1" transform="matrix(0.743145 -0.669131 0.704907 0.7093 278 145.101)" stroke="#4B2C89" stroke-opacity="0.1" stroke-width="2"/>
<path d="M288.422 27V18.194H286.406V16.57H290.326V27H288.422ZM296.602 27.168C295.772 27.168 295.044 26.944 294.418 26.496C293.793 26.048 293.303 25.418 292.948 24.606C292.603 23.794 292.43 22.8513 292.43 21.778C292.43 20.6953 292.603 19.7527 292.948 18.95C293.294 18.1473 293.779 17.522 294.404 17.074C295.03 16.626 295.758 16.402 296.588 16.402C297.438 16.402 298.17 16.626 298.786 17.074C299.412 17.522 299.902 18.152 300.256 18.964C300.611 19.7667 300.788 20.7047 300.788 21.778C300.788 22.8513 300.611 23.794 300.256 24.606C299.911 25.4087 299.426 26.0387 298.8 26.496C298.175 26.944 297.442 27.168 296.602 27.168ZM296.616 25.432C297.092 25.432 297.498 25.2873 297.834 24.998C298.17 24.6993 298.427 24.2793 298.604 23.738C298.791 23.1873 298.884 22.534 298.884 21.778C298.884 21.022 298.791 20.3733 298.604 19.832C298.427 19.2813 298.166 18.8613 297.82 18.572C297.484 18.2827 297.074 18.138 296.588 18.138C296.122 18.138 295.72 18.2827 295.384 18.572C295.048 18.8613 294.787 19.2813 294.6 19.832C294.423 20.3733 294.334 21.022 294.334 21.778C294.334 22.5247 294.423 23.1733 294.6 23.724C294.787 24.2653 295.048 24.6853 295.384 24.984C295.73 25.2827 296.14 25.432 296.616 25.432ZM305.717 27.168C305.166 27.168 304.639 27.0653 304.135 26.86C303.64 26.6547 303.211 26.3653 302.847 25.992C302.492 25.6093 302.249 25.1567 302.119 24.634L303.771 24.046C303.929 24.522 304.186 24.8767 304.541 25.11C304.895 25.334 305.287 25.446 305.717 25.446C306.071 25.446 306.384 25.3713 306.655 25.222C306.935 25.0633 307.149 24.8487 307.299 24.578C307.448 24.298 307.523 23.976 307.523 23.612C307.523 23.248 307.443 22.9307 307.285 22.66C307.135 22.3893 306.925 22.1793 306.655 22.03C306.384 21.8713 306.071 21.792 305.717 21.792C305.353 21.792 305.021 21.8713 304.723 22.03C304.433 22.1887 304.223 22.4173 304.093 22.716L302.539 22.366L303.365 16.57H309.049V18.18H304.121L304.835 17.354L304.247 21.722L303.701 21.274C303.962 20.8913 304.279 20.6113 304.653 20.434C305.035 20.2567 305.497 20.168 306.039 20.168C306.729 20.168 307.327 20.3173 307.831 20.616C308.344 20.9147 308.741 21.3207 309.021 21.834C309.301 22.3473 309.441 22.94 309.441 23.612C309.441 24.284 309.277 24.8907 308.951 25.432C308.624 25.9733 308.181 26.398 307.621 26.706C307.061 27.014 306.426 27.168 305.717 27.168ZM312.314 27L320.77 16.57H322.73L314.274 27H312.314ZM313.938 21.862C313.425 21.862 312.958 21.7407 312.538 21.498C312.127 21.246 311.801 20.9147 311.558 20.504C311.315 20.0933 311.194 19.636 311.194 19.132C311.194 18.628 311.315 18.1707 311.558 17.76C311.801 17.34 312.127 17.0087 312.538 16.766C312.958 16.5233 313.425 16.402 313.938 16.402C314.461 16.402 314.927 16.5233 315.338 16.766C315.749 17.0087 316.075 17.34 316.318 17.76C316.561 18.1707 316.682 18.628 316.682 19.132C316.682 19.636 316.561 20.0933 316.318 20.504C316.075 20.9147 315.749 21.246 315.338 21.498C314.927 21.7407 314.461 21.862 313.938 21.862ZM313.938 20.448C314.218 20.448 314.451 20.3873 314.638 20.266C314.825 20.1353 314.965 19.972 315.058 19.776C315.161 19.5707 315.212 19.356 315.212 19.132C315.212 18.8987 315.161 18.684 315.058 18.488C314.965 18.292 314.825 18.1287 314.638 17.998C314.451 17.8673 314.218 17.802 313.938 17.802C313.677 17.802 313.448 17.8673 313.252 17.998C313.065 18.1287 312.921 18.2967 312.818 18.502C312.715 18.698 312.664 18.908 312.664 19.132C312.664 19.3467 312.715 19.5567 312.818 19.762C312.921 19.9673 313.065 20.1353 313.252 20.266C313.448 20.3873 313.677 20.448 313.938 20.448ZM321.05 27.168C320.537 27.168 320.07 27.0467 319.65 26.804C319.239 26.552 318.913 26.2207 318.67 25.81C318.427 25.3993 318.306 24.942 318.306 24.438C318.306 23.934 318.427 23.4767 318.67 23.066C318.913 22.646 319.239 22.3147 319.65 22.072C320.07 21.8293 320.537 21.708 321.05 21.708C321.573 21.708 322.039 21.8293 322.45 22.072C322.861 22.3147 323.187 22.646 323.43 23.066C323.673 23.4767 323.794 23.934 323.794 24.438C323.794 24.942 323.673 25.3993 323.43 25.81C323.187 26.2207 322.861 26.552 322.45 26.804C322.039 27.0467 321.573 27.168 321.05 27.168ZM321.05 25.754C321.321 25.754 321.549 25.6933 321.736 25.572C321.932 25.4413 322.077 25.278 322.17 25.082C322.273 24.8767 322.324 24.662 322.324 24.438C322.324 24.2047 322.273 23.99 322.17 23.794C322.077 23.598 321.932 23.4347 321.736 23.304C321.549 23.1733 321.321 23.108 321.05 23.108C320.789 23.108 320.56 23.1733 320.364 23.304C320.177 23.4347 320.033 23.6027 319.93 23.808C319.827 24.004 319.776 24.214 319.776 24.438C319.776 24.6527 319.827 24.8627 319.93 25.068C320.033 25.2733 320.177 25.4413 320.364 25.572C320.56 25.6933 320.789 25.754 321.05 25.754Z" fill="white"/>
</g>
<path d="M295.158 133.5V124.56H298.086C299.014 124.56 299.818 124.748 300.498 125.124C301.186 125.492 301.718 126.012 302.094 126.684C302.47 127.356 302.658 128.136 302.658 129.024C302.658 129.904 302.47 130.684 302.094 131.364C301.718 132.036 301.186 132.56 300.498 132.936C299.818 133.312 299.014 133.5 298.086 133.5H295.158ZM296.574 132.24H298.11C298.742 132.24 299.29 132.108 299.754 131.844C300.226 131.58 300.59 131.208 300.846 130.728C301.102 130.248 301.23 129.68 301.23 129.024C301.23 128.368 301.098 127.804 300.834 127.332C300.578 126.852 300.218 126.48 299.754 126.216C299.29 125.952 298.742 125.82 298.11 125.82H296.574V132.24ZM306.969 133.644C306.321 133.644 305.745 133.496 305.241 133.2C304.745 132.896 304.357 132.488 304.077 131.976C303.797 131.456 303.657 130.876 303.657 130.236C303.657 129.58 303.797 129 304.077 128.496C304.365 127.992 304.749 127.596 305.229 127.308C305.709 127.012 306.253 126.864 306.861 126.864C307.349 126.864 307.785 126.948 308.169 127.116C308.553 127.284 308.877 127.516 309.141 127.812C309.405 128.1 309.605 128.432 309.741 128.808C309.885 129.184 309.957 129.584 309.957 130.008C309.957 130.112 309.953 130.22 309.945 130.332C309.937 130.444 309.921 130.548 309.897 130.644H304.725V129.564H309.129L308.481 130.056C308.561 129.664 308.533 129.316 308.397 129.012C308.269 128.7 308.069 128.456 307.797 128.28C307.533 128.096 307.221 128.004 306.861 128.004C306.501 128.004 306.181 128.096 305.901 128.28C305.621 128.456 305.405 128.712 305.253 129.048C305.101 129.376 305.041 129.776 305.073 130.248C305.033 130.688 305.093 131.072 305.253 131.4C305.421 131.728 305.653 131.984 305.949 132.168C306.253 132.352 306.597 132.444 306.981 132.444C307.373 132.444 307.705 132.356 307.977 132.18C308.257 132.004 308.477 131.776 308.637 131.496L309.741 132.036C309.613 132.34 309.413 132.616 309.141 132.864C308.877 133.104 308.557 133.296 308.181 133.44C307.813 133.576 307.409 133.644 306.969 133.644ZM314.364 133.644C313.716 133.644 313.14 133.496 312.636 133.2C312.14 132.896 311.744 132.488 311.448 131.976C311.16 131.464 311.016 130.884 311.016 130.236C311.016 129.596 311.16 129.02 311.448 128.508C311.736 127.996 312.132 127.596 312.636 127.308C313.14 127.012 313.716 126.864 314.364 126.864C314.804 126.864 315.216 126.944 315.6 127.104C315.984 127.256 316.316 127.468 316.596 127.74C316.884 128.012 317.096 128.328 317.232 128.688L316.044 129.24C315.908 128.904 315.688 128.636 315.384 128.436C315.088 128.228 314.748 128.124 314.364 128.124C313.996 128.124 313.664 128.216 313.368 128.4C313.08 128.576 312.852 128.828 312.684 129.156C312.516 129.476 312.432 129.84 312.432 130.248C312.432 130.656 312.516 131.024 312.684 131.352C312.852 131.672 313.08 131.924 313.368 132.108C313.664 132.292 313.996 132.384 314.364 132.384C314.756 132.384 315.096 132.284 315.384 132.084C315.68 131.876 315.9 131.6 316.044 131.256L317.232 131.82C317.104 132.164 316.896 132.476 316.608 132.756C316.328 133.028 315.996 133.244 315.612 133.404C315.228 133.564 314.812 133.644 314.364 133.644Z" fill="#6B7280"/>
<defs>
<linearGradient id="paint0_linear_1062_6813" x1="306" y1="0" x2="306" y2="109" gradientUnits="userSpaceOnUse">
<stop stop-color="#7C3AED"/>
<stop offset="1" stop-color="#A78BFA"/>
</linearGradient>
<clipPath id="clip0_1062_6813">
<rect y="74" width="52" height="35" rx="8" fill="white"/>
</clipPath>
<clipPath id="clip1_1062_6813">
<rect x="56" y="30" width="52" height="79" rx="8" fill="white"/>
</clipPath>
<clipPath id="clip2_1062_6813">
<rect x="112" y="51" width="52" height="58" rx="8" fill="white"/>
</clipPath>
<clipPath id="clip3_1062_6813">
<rect x="168" y="37" width="52" height="72" rx="8" fill="white"/>
</clipPath>
<clipPath id="clip4_1062_6813">
<rect x="224" y="24" width="52" height="85" rx="8" fill="white"/>
</clipPath>
<clipPath id="clip5_1062_6813">
<rect x="280" width="52" height="109" rx="8" fill="white"/>
</clipPath>
</defs>
</svg>
