<svg version="1.2" xmlns="http://www.w3.org/2000/svg" viewBox="0 0 334 144" width="334" height="144"><defs><linearGradient id="P" gradientUnits="userSpaceOnUse"/><linearGradient id="g1" x2="1" href="#P" gradientTransform="matrix(0,160,-332.007,0,167,3.89)"><stop stop-color="#ef4444" stop-opacity="1"/><stop offset="1" stop-color="#ef4444" stop-opacity="0"/></linearGradient></defs><style>.a{fill:none;stroke:#e2e8f0;stroke-dasharray:8}.b{fill:#6b7280}.c{opacity:.1;fill:url(#g1)}.d{fill:none;stroke:#ef4444;stroke-linecap:round;stroke-width:2}.e{fill:#eab308}.f{fill:none;stroke:#fff;stroke-width:2}.g{fill:#171718}.h{fill:#fff}</style><path class="a" d="m23 44v70"/><path class="b" d="m14.2 138.5v-1.3h0.5q0.6 0 0.9-0.4 0.4-0.3 0.4-0.9v-6.3h1.4v6.2q0 0.8-0.3 1.4-0.4 0.6-1 1-0.6 0.3-1.4 0.3zm7.2 0.1q-0.7 0-1.3-0.3-0.5-0.3-0.8-0.9-0.3-0.6-0.3-1.4v-4h1.3v3.9q0 0.4 0.2 0.8 0.2 0.3 0.5 0.5 0.3 0.2 0.8 0.2 0.4 0 0.7-0.2 0.3-0.2 0.5-0.5 0.2-0.4 0.2-0.9v-3.8h1.4v6.5h-1.3v-1.3l0.1 0.2q-0.2 0.6-0.7 0.9-0.6 0.3-1.3 0.3zm4.7-0.1v-6.5h1.3v1.3l-0.1-0.2q0.2-0.6 0.8-0.9 0.5-0.3 1.2-0.3 0.7 0 1.2 0.3 0.6 0.3 0.9 0.8 0.3 0.6 0.3 1.3v4.2h-1.3v-3.8q0-0.5-0.2-0.9-0.2-0.3-0.5-0.5-0.3-0.2-0.8-0.2-0.4 0-0.7 0.2-0.3 0.2-0.5 0.5-0.2 0.4-0.2 0.9v3.8z"/><path class="a" d="m71 44v70"/><path class="b" d="m64.2 138.5v-1.3h0.5q0.6 0 1-0.4 0.3-0.3 0.3-0.9v-6.3h1.4v6.2q0 0.8-0.3 1.4-0.3 0.6-0.9 1-0.7 0.3-1.5 0.3zm7.3 0.1q-0.8 0-1.3-0.3-0.6-0.3-0.9-0.9-0.3-0.6-0.3-1.4v-4h1.4v3.9q0 0.4 0.2 0.8 0.1 0.3 0.5 0.5 0.3 0.2 0.7 0.2 0.4 0 0.8-0.2 0.3-0.2 0.5-0.5 0.2-0.4 0.2-0.9v-3.8h1.3v6.5h-1.3v-1.3l0.2 0.2q-0.3 0.6-0.8 0.9-0.5 0.3-1.2 0.3zm4.7-0.1v-9.1h1.3v9.1z"/><path class="a" d="m119 44v70"/><path fill-rule="evenodd" class="b" d="m107.6 138.5l3.1-8.9h1.8l3.1 8.9h-1.5l-0.7-2h-3.6l-0.7 2zm2.6-3.3h2.8l-1.4-4.1zm1.4-4.1l0.2-0.5h-0.4zm7.2 7.5q-0.8 0-1.3-0.4-0.6-0.3-0.9-0.9-0.3-0.6-0.3-1.4v-4h1.4v3.9q0 0.5 0.2 0.8 0.1 0.3 0.5 0.5 0.3 0.2 0.7 0.2 0.4 0 0.8-0.2 0.3-0.2 0.5-0.5 0.2-0.4 0.2-0.8v-3.9h1.3v6.5h-1.3v-0.8q-0.2 0.4-0.6 0.6-0.5 0.4-1.2 0.4zm1.8-1q0.1-0.1 0.2-0.3l-0.2-0.2zm6 3.5q-0.7 0-1.3-0.2-0.6-0.3-1-0.7-0.4-0.4-0.7-0.9l1.3-0.5q0.2 0.4 0.6 0.7 0.5 0.3 1.1 0.3 0.5 0 0.9-0.2 0.4-0.2 0.7-0.6 0.2-0.3 0.2-0.9v-0.8q-0.3 0.4-0.7 0.6-0.6 0.3-1.3 0.3-0.9 0-1.6-0.4-0.7-0.4-1.2-1.1-0.4-0.8-0.4-1.7 0-0.9 0.4-1.6 0.5-0.7 1.2-1.2 0.7-0.4 1.6-0.4 0.7 0 1.3 0.3 0.5 0.3 0.8 0.7v-0.8h1.3v6.1q0 0.9-0.4 1.5-0.4 0.7-1.1 1.1-0.7 0.4-1.7 0.4zm1.8-3.8q0.2-0.1 0.3-0.3l-0.3-0.3zm0.1-4.5v0.5l0.2-0.3q-0.1-0.1-0.2-0.2zm-1.9 4.1q0.5 0 0.9-0.2 0.4-0.3 0.7-0.7 0.2-0.5 0.2-1 0-0.6-0.2-1-0.3-0.5-0.7-0.7-0.4-0.3-0.9-0.3-0.6 0-1 0.3-0.5 0.2-0.7 0.7-0.3 0.4-0.3 1 0 0.5 0.3 1 0.2 0.4 0.7 0.7 0.4 0.2 1 0.2z"/><path class="a" d="m167 44v70"/><path fill-rule="evenodd" class="b" d="m159.5 138.6q-0.9 0-1.6-0.3-0.7-0.3-1.2-0.8-0.5-0.6-0.8-1.3l1.2-0.5q0.4 0.8 1 1.3 0.6 0.4 1.4 0.4 0.5 0 0.9-0.1 0.3-0.2 0.5-0.5 0.2-0.3 0.2-0.6 0-0.5-0.2-0.8-0.3-0.3-0.9-0.5l-1.6-0.5q-1.1-0.3-1.6-0.9-0.5-0.7-0.5-1.5 0-0.8 0.4-1.4 0.3-0.5 1-0.9 0.6-0.3 1.5-0.3 0.8 0 1.4 0.3 0.7 0.3 1.2 0.8 0.5 0.5 0.7 1.1l-1.2 0.5q-0.3-0.7-0.8-1.1-0.6-0.3-1.3-0.3-0.5 0-0.8 0.1-0.3 0.2-0.5 0.4-0.2 0.3-0.2 0.7 0 0.4 0.3 0.8 0.2 0.3 0.8 0.5l1.6 0.5q1 0.3 1.6 0.9 0.5 0.6 0.5 1.5 0 0.7-0.4 1.3-0.4 0.6-1 0.9-0.7 0.3-1.6 0.3zm7.5 0q-0.9 0-1.7-0.4-0.7-0.5-1.2-1.2-0.4-0.8-0.4-1.8 0-0.9 0.4-1.7 0.5-0.8 1.2-1.2 0.7-0.4 1.6-0.4 0.8 0 1.3 0.2 0.6 0.3 1 0.7 0.4 0.4 0.6 1 0.2 0.6 0.2 1.2 0 0.2 0 0.3 0 0.2 0 0.3h-4.9q0 0.5 0.2 0.8 0.3 0.5 0.7 0.8 0.5 0.2 1 0.2 0.6 0 1-0.2 0.5-0.3 0.7-0.7l1.1 0.5q-0.2 0.5-0.6 0.9-0.4 0.3-1 0.5-0.5 0.2-1.2 0.2zm-1.9-3q0-0.1 0-0.4 0-0.3 0.1-0.6h-0.4v1zm3.4-1q0.1 0.2 0 0.5l0.6-0.5zm-0.1-0.6q-0.2-0.5-0.6-0.7-0.4-0.3-0.9-0.3-0.6 0-1 0.3-0.4 0.2-0.6 0.7-0.1 0.3-0.2 0.6h3.4q0-0.3-0.1-0.6zm2.9 6.9v-8.9h1.3v0.8q0.3-0.4 0.8-0.6 0.6-0.3 1.4-0.3 0.9 0 1.6 0.4 0.8 0.5 1.2 1.2 0.4 0.8 0.4 1.7 0 1-0.4 1.8-0.4 0.7-1.2 1.2-0.7 0.4-1.6 0.4-0.8 0-1.4-0.3-0.4-0.2-0.7-0.6v3.2zm1.3-8.1q-0.1 0.1-0.2 0.2l0.2 0.4zm0 4.9v-0.6l-0.2 0.3q0.1 0.1 0.2 0.3zm2-0.4q0.6 0 1-0.3 0.5-0.2 0.7-0.7 0.3-0.5 0.3-1.1 0-0.6-0.3-1.1-0.2-0.5-0.7-0.8-0.4-0.2-1-0.2-0.6 0-1 0.2-0.5 0.3-0.7 0.8-0.3 0.5-0.3 1.1 0 0.6 0.3 1.1 0.2 0.5 0.7 0.7 0.4 0.3 1 0.3z"/><path class="a" d="m215 44v70"/><path fill-rule="evenodd" class="b" d="m208.9 138.6q-0.9 0-1.8-0.3-0.8-0.4-1.4-1-0.7-0.6-1-1.4-0.4-0.9-0.4-1.9 0-1 0.4-1.8 0.3-0.9 1-1.5 0.6-0.6 1.4-0.9 0.9-0.4 1.8-0.4 1 0 1.8 0.4 0.9 0.3 1.5 0.9 0.6 0.6 1 1.5 0.3 0.8 0.3 1.8 0 1-0.3 1.9-0.4 0.8-1 1.4-0.6 0.6-1.5 1-0.8 0.3-1.8 0.3zm0-1.3q0.7 0 1.3-0.2 0.6-0.3 1-0.7 0.5-0.5 0.7-1.1 0.2-0.6 0.2-1.3 0-0.7-0.2-1.3-0.2-0.6-0.7-1-0.4-0.5-1-0.7-0.6-0.3-1.3-0.3-0.7 0-1.3 0.3-0.5 0.2-1 0.7-0.4 0.4-0.6 1-0.3 0.6-0.3 1.3 0 0.7 0.3 1.3 0.2 0.6 0.6 1.1 0.5 0.4 1.1 0.7 0.5 0.2 1.2 0.2zm9.2 1.3q-1 0-1.8-0.4-0.7-0.5-1.1-1.2-0.5-0.8-0.5-1.8 0-0.9 0.5-1.7 0.4-0.8 1.1-1.2 0.8-0.4 1.8-0.4 0.6 0 1.2 0.2 0.6 0.2 1 0.6 0.4 0.4 0.6 1l-1.1 0.5q-0.3-0.5-0.7-0.8-0.5-0.3-1-0.3-0.6 0-1 0.3-0.5 0.3-0.7 0.8-0.3 0.4-0.3 1 0 0.7 0.3 1.2 0.2 0.4 0.7 0.7 0.4 0.3 1 0.3 0.6 0 1-0.3 0.4-0.3 0.7-0.8l1.1 0.5q-0.2 0.5-0.6 1-0.4 0.4-1 0.6-0.6 0.2-1.2 0.2zm7 0q-1 0-1.6-0.6-0.6-0.6-0.6-1.6v-3.2h-1.1v-1.2h0.2q0.4 0 0.7-0.3 0.2-0.2 0.2-0.7v-0.5h1.4v1.5h1.5v1.2h-1.5v3.1q0 0.4 0.1 0.6 0.1 0.2 0.3 0.4 0.3 0.1 0.7 0.1 0.1 0 0.2 0 0.1-0.1 0.2-0.1v1.2q-0.2 0-0.4 0-0.2 0.1-0.3 0.1z"/><path class="a" d="m263 44v70"/><path fill-rule="evenodd" class="b" d="m252.3 138.5v-8.9h1.2l4.4 6.1v-6.1h1.4v8.9h-1.1l-4.5-6.2v6.2zm5.7-2.8v0.9l0.5-0.1zm-4.2-3.5v-0.8l-0.5 0.1zm10.4 6.4q-0.9 0-1.7-0.5-0.7-0.4-1.2-1.2-0.5-0.8-0.5-1.7 0-1 0.5-1.8 0.5-0.7 1.2-1.2 0.8-0.4 1.7-0.4 1 0 1.8 0.4 0.7 0.5 1.2 1.2 0.4 0.8 0.4 1.8 0 1-0.4 1.7-0.5 0.8-1.3 1.2-0.7 0.5-1.7 0.5zm0-1.3q0.6 0 1.1-0.3 0.4-0.2 0.7-0.7 0.2-0.5 0.2-1.1 0-0.6-0.2-1.1-0.3-0.5-0.7-0.8-0.5-0.3-1.1-0.3-0.5 0-1 0.3-0.4 0.3-0.7 0.8-0.2 0.5-0.2 1.1 0 0.6 0.2 1.1 0.3 0.5 0.7 0.7 0.5 0.3 1 0.3zm6.5 1.1l-2.5-6.5h1.4l1.7 4.6 1.7-4.6h1.5l-2.6 6.5zm0.7-1.9l-0.3 0.7h0.5z"/><path class="a" d="m311 44v70"/><path fill-rule="evenodd" class="b" d="m300.2 138.5v-8.9h2.9q1.4 0 2.4 0.5 1 0.6 1.6 1.6 0.6 1 0.6 2.3 0 1.3-0.6 2.4-0.6 1-1.6 1.5-1 0.6-2.4 0.6zm1.4-1.3h1.5q1 0 1.7-0.4 0.7-0.4 1.1-1.1 0.4-0.7 0.4-1.7 0-1-0.4-1.7-0.4-0.7-1.1-1.1-0.7-0.4-1.7-0.4h-1.5zm10.4 1.4q-1 0-1.7-0.4-0.8-0.5-1.2-1.2-0.4-0.8-0.4-1.8 0-1 0.4-1.7 0.4-0.8 1.2-1.2 0.7-0.5 1.6-0.5 0.7 0 1.3 0.3 0.6 0.2 1 0.7 0.4 0.4 0.6 1 0.2 0.6 0.2 1.2 0 0.1 0 0.3 0 0.2-0.1 0.3h-4.8q0 0.4 0.2 0.8 0.2 0.5 0.7 0.7 0.4 0.3 1 0.3 0.6 0 1-0.2 0.4-0.3 0.7-0.7l1.1 0.5q-0.2 0.5-0.6 0.8-0.4 0.4-1 0.6-0.5 0.2-1.2 0.2zm-1.9-3q0-0.2 0-0.4 0-0.3 0-0.7h-0.3v1.1zm3.4-1.1q0 0.3 0 0.5l0.6-0.5zm-0.1-0.5q-0.2-0.5-0.6-0.7-0.4-0.3-0.9-0.3-0.6 0-1 0.3-0.4 0.2-0.7 0.7-0.1 0.3-0.1 0.5h3.4q0-0.3-0.1-0.5zm6 4.6q-1 0-1.8-0.4-0.7-0.5-1.2-1.2-0.4-0.8-0.4-1.8 0-0.9 0.4-1.7 0.5-0.8 1.2-1.2 0.8-0.5 1.8-0.5 0.6 0 1.2 0.3 0.6 0.2 1 0.6 0.4 0.4 0.6 1l-1.2 0.5q-0.2-0.5-0.6-0.8-0.5-0.3-1-0.3-0.6 0-1 0.3-0.5 0.2-0.7 0.7-0.3 0.5-0.3 1.1 0 0.6 0.3 1.1 0.2 0.5 0.7 0.8 0.4 0.3 1 0.3 0.5 0 1-0.3 0.4-0.3 0.6-0.9l1.2 0.6q-0.2 0.5-0.6 0.9-0.4 0.4-1 0.7-0.6 0.2-1.2 0.2z"/><path class="c" d="m14.8 98.9c-9.8 1.2-7.7 2.1-13.8 4.3v60.7h332v-108.4c0 0-9.2 14.9-16.3 14.2-11.1-0.9-6.3-8.3-17.5-7.8-8.2 0.4-9.6 20-21.5 19.5-15.1-0.6-9.2-10.3-24.1-11.7-10.5-0.9-10.2-15.2-20.8-15.4-16.3-0.3-18.6-12-32.6-12.9-33.1-2.3-2.8-39-36-37.5-32.3 1.5 3.8 60.5-28.5 58-8.1-0.6-11.5-6.2-19.6-5.3-10 1-9.2 10.9-18.8 13.1-12.6 2.9-19.2-9.9-32.1-7.8-12.4 2-11.7 15.8-24.4 15.8-17 0.1-9.2 19.3-26 21.2z"/><path class="d" d="m1 103.9c6.1-2.3 4-3.2 13.8-4.4 16.8-1.9 9-21.2 26-21.3 12.7 0 12-13.9 24.4-15.9 12.9-2.1 19.5 10.8 32.1 7.9 9.6-2.3 8.8-12.3 18.8-13.3 8.1-0.8 11.5 4.8 19.6 5.4 32.3 2.5-3.8-56.9 28.5-58.4 33.2-1.5 2.9 35.4 36 37.7 14 1 16.3 12.7 32.6 13 10.6 0.2 10.3 14.6 20.8 15.6 14.9 1.3 9 11.1 24.1 11.8 11.9 0.5 13.3-19.3 21.5-19.7 11.2-0.6 6.4 6.9 17.5 7.9 7.1 0.6 16.3-14.3 16.3-14.3"/><path class="e" d="m149 34c-4.4 0-8-3.6-8-8 0-4.4 3.6-8 8-8 4.4 0 8 3.6 8 8 0 4.4-3.6 8-8 8z"/><path class="f" d="m149 33c-3.9 0-7-3.1-7-7 0-3.9 3.1-7 7-7 3.9 0 7 3.1 7 7 0 3.9-3.1 7-7 7z"/><path class="g" d="m62 8c0-4.4 3.6-8 8-8h55c4.4 0 8 3.6 8 8v10h-63c-4.4 0-8-3.6-8-8z"/><path fill-rule="evenodd" class="h" d="m70.5 13.3q-0.7-0.3-1.2-0.8-0.5-0.6-0.7-1.3l1-0.4q0.3 0.9 1 1.3 0.4 0.3 0.9 0.4v-3l-0.5-0.2q-1-0.3-1.5-0.9-0.5-0.7-0.5-1.5 0-0.7 0.3-1.3 0.4-0.5 1-0.9 0.5-0.2 1.2-0.3v-1h0.9v1.1q0.4 0 0.8 0.2 0.6 0.3 1.1 0.8 0.5 0.5 0.7 1.1l-1 0.4q-0.3-0.7-0.9-1.1-0.3-0.2-0.7-0.3v3l0.5 0.1q1.1 0.4 1.6 1 0.5 0.6 0.5 1.4 0 0.8-0.4 1.3-0.3 0.6-1 0.9-0.5 0.3-1.2 0.3v1.1h-0.9v-1.1q-0.5-0.1-1-0.3zm2.5-0.9q0.4-0.1 0.6-0.4 0.3-0.4 0.3-0.8 0-0.5-0.4-0.9-0.3-0.3-0.9-0.5h-0.2v2.8q0.4-0.1 0.6-0.2zm-2.1-6.8q-0.4 0.2-0.6 0.5-0.2 0.3-0.2 0.7 0 0.5 0.3 0.9 0.4 0.4 1 0.6h0.1v-2.8q-0.3 0-0.6 0.1zm7 7.9v-7.9h-1.7v-1h2.9v8.9zm4.6 0v-7.9h-1.7v-1h2.9v8.9zm3.5 1.7v-0.6q0.3-0.1 0.5-0.3 0.2-0.3 0.2-0.8h-0.5v-1.4h1.2v1q0 0.8-0.4 1.4-0.4 0.5-1 0.7zm7.4-1.7v-2.1h-4.4v-0.9l4.4-5.9h1.1v5.9h1.2v0.9h-1.2v2.1zm-3.2-3h-0.5l0.2 0.4zm3.2 0v-4.4l-3.2 4.4zm0-4.4l0.3-0.4-0.3-0.1zm7.1 7.5q-1.1 0-1.9-0.6-0.8-0.6-1.2-1.6-0.5-1-0.5-2.4 0-1.4 0.5-2.4 0.4-1.1 1.2-1.7 0.8-0.5 1.9-0.5 1 0 1.8 0.5 0.8 0.6 1.3 1.7 0.4 1 0.4 2.4 0 1.4-0.4 2.4-0.5 1-1.3 1.6-0.8 0.6-1.8 0.6zm0-1.1q0.7 0 1.2-0.4 0.6-0.5 0.9-1.3 0.3-0.8 0.3-1.8 0-1.1-0.3-1.9-0.3-0.8-0.9-1.2-0.5-0.4-1.2-0.4-0.7 0-1.3 0.4-0.5 0.4-0.8 1.2-0.3 0.8-0.3 1.9 0 1 0.3 1.8 0.3 0.8 0.8 1.3 0.6 0.4 1.3 0.4zm5.6 1v-1.5h1.2v1.5zm6.8 0.1q-1 0-1.8-0.6-0.8-0.6-1.3-1.6-0.4-1-0.4-2.4 0-1.4 0.4-2.4 0.5-1.1 1.3-1.7 0.8-0.5 1.8-0.5 1.1 0 1.9 0.5 0.8 0.6 1.2 1.7 0.5 1 0.5 2.4 0 1.4-0.5 2.4-0.4 1-1.2 1.6-0.8 0.6-1.9 0.6zm0-1.1q0.8 0 1.3-0.4 0.5-0.5 0.8-1.3 0.3-0.8 0.3-1.8 0-1.1-0.3-1.9-0.3-0.8-0.8-1.2-0.5-0.4-1.3-0.4-0.7 0-1.2 0.4-0.5 0.4-0.8 1.2-0.3 0.8-0.3 1.9 0 1 0.3 1.8 0.3 0.8 0.8 1.3 0.5 0.4 1.2 0.4zm8.7 1.1q-1 0-1.8-0.6-0.8-0.6-1.3-1.6-0.4-1-0.4-2.4 0-1.4 0.4-2.4 0.5-1.1 1.3-1.7 0.8-0.5 1.8-0.5 1.1 0 1.9 0.5 0.8 0.6 1.2 1.7 0.5 1 0.5 2.4 0 1.4-0.5 2.4-0.4 1-1.2 1.6-0.8 0.6-1.9 0.6zm0-1.1q0.8 0 1.3-0.4 0.5-0.5 0.8-1.3 0.3-0.8 0.3-1.8 0-1.1-0.3-1.9-0.3-0.8-0.8-1.2-0.6-0.4-1.3-0.4-0.7 0-1.2 0.4-0.6 0.4-0.9 1.2-0.2 0.8-0.2 1.9 0 1 0.2 1.8 0.3 0.8 0.9 1.3 0.5 0.4 1.2 0.4z"/></svg>