<svg width="332" height="190" viewBox="0 0 332 190" fill="none" xmlns="http://www.w3.org/2000/svg">
<path d="M30 156C27.7909 156 25.994 154.209 26.0571 152C26.5436 134.979 30.1318 118.177 36.6569 102.424C43.6925 85.4387 54.0049 70.0052 67.0051 57.005C80.0053 44.0048 95.4388 33.6925 112.424 26.6569C129.41 19.6212 147.615 16 166 16C184.385 16 202.59 19.6212 219.576 26.6569C236.561 33.6925 251.995 44.0049 264.995 57.0051C277.995 70.0053 288.307 85.4388 295.343 102.424C301.868 118.177 305.456 134.979 305.943 152C306.006 154.209 304.209 156 302 156L273.6 156C271.391 156 269.608 154.208 269.523 152.001C269.05 139.761 266.41 127.69 261.714 116.354C256.508 103.785 248.876 92.3639 239.256 82.7438C229.636 73.1236 218.215 65.4925 205.646 60.2861C193.077 55.0797 179.605 52.4 166 52.4C152.395 52.4 138.923 55.0797 126.354 60.2861C113.785 65.4925 102.364 73.1236 92.7437 82.7437C83.1236 92.3639 75.4925 103.785 70.2861 116.354C65.5904 127.69 62.95 139.761 62.4772 152.001C62.3919 154.208 60.6091 156 58.4 156H30Z" fill="white"/>
<g opacity="0.5">
<mask id="path-2-outside-1_1133_8559" maskUnits="userSpaceOnUse" x="19" y="9" width="294" height="154" fill="black">
<rect fill="white" x="19" y="9" width="294" height="154"/>
<path d="M30 156C27.7909 156 25.994 154.209 26.0571 152C26.5436 134.979 30.1318 118.177 36.6569 102.424C43.6925 85.4387 54.0049 70.0052 67.0051 57.005C80.0053 44.0048 95.4388 33.6925 112.424 26.6569C129.41 19.6212 147.615 16 166 16C184.385 16 202.59 19.6212 219.576 26.6569C236.561 33.6925 251.995 44.0049 264.995 57.0051C277.995 70.0053 288.307 85.4388 295.343 102.424C301.868 118.177 305.456 134.979 305.943 152C306.006 154.209 304.209 156 302 156L273.6 156C271.391 156 269.608 154.208 269.523 152.001C269.05 139.761 266.41 127.69 261.714 116.354C256.508 103.785 248.876 92.3639 239.256 82.7438C229.636 73.1236 218.215 65.4925 205.646 60.2861C193.077 55.0797 179.605 52.4 166 52.4C152.395 52.4 138.923 55.0797 126.354 60.2861C113.785 65.4925 102.364 73.1236 92.7437 82.7437C83.1236 92.3639 75.4925 103.785 70.2861 116.354C65.5904 127.69 62.95 139.761 62.4772 152.001C62.3919 154.208 60.6091 156 58.4 156H30Z"/>
</mask>
<path d="M30 156C27.7909 156 25.994 154.209 26.0571 152C26.5436 134.979 30.1318 118.177 36.6569 102.424C43.6925 85.4387 54.0049 70.0052 67.0051 57.005C80.0053 44.0048 95.4388 33.6925 112.424 26.6569C129.41 19.6212 147.615 16 166 16C184.385 16 202.59 19.6212 219.576 26.6569C236.561 33.6925 251.995 44.0049 264.995 57.0051C277.995 70.0053 288.307 85.4388 295.343 102.424C301.868 118.177 305.456 134.979 305.943 152C306.006 154.209 304.209 156 302 156L273.6 156C271.391 156 269.608 154.208 269.523 152.001C269.05 139.761 266.41 127.69 261.714 116.354C256.508 103.785 248.876 92.3639 239.256 82.7438C229.636 73.1236 218.215 65.4925 205.646 60.2861C193.077 55.0797 179.605 52.4 166 52.4C152.395 52.4 138.923 55.0797 126.354 60.2861C113.785 65.4925 102.364 73.1236 92.7437 82.7437C83.1236 92.3639 75.4925 103.785 70.2861 116.354C65.5904 127.69 62.95 139.761 62.4772 152.001C62.3919 154.208 60.6091 156 58.4 156H30Z" fill="#E2E8F0"/>
<path d="M30 156C27.7909 156 25.994 154.209 26.0571 152C26.5436 134.979 30.1318 118.177 36.6569 102.424C43.6925 85.4387 54.0049 70.0052 67.0051 57.005C80.0053 44.0048 95.4388 33.6925 112.424 26.6569C129.41 19.6212 147.615 16 166 16C184.385 16 202.59 19.6212 219.576 26.6569C236.561 33.6925 251.995 44.0049 264.995 57.0051C277.995 70.0053 288.307 85.4388 295.343 102.424C301.868 118.177 305.456 134.979 305.943 152C306.006 154.209 304.209 156 302 156L273.6 156C271.391 156 269.608 154.208 269.523 152.001C269.05 139.761 266.41 127.69 261.714 116.354C256.508 103.785 248.876 92.3639 239.256 82.7438C229.636 73.1236 218.215 65.4925 205.646 60.2861C193.077 55.0797 179.605 52.4 166 52.4C152.395 52.4 138.923 55.0797 126.354 60.2861C113.785 65.4925 102.364 73.1236 92.7437 82.7437C83.1236 92.3639 75.4925 103.785 70.2861 116.354C65.5904 127.69 62.95 139.761 62.4772 152.001C62.3919 154.208 60.6091 156 58.4 156H30Z" stroke="#E2E8F0" stroke-width="12.9231" mask="url(#path-2-outside-1_1133_8559)"/>
</g>
<path d="M289.258 98.5239C291.26 97.5903 293.646 98.4544 294.522 100.482C301.625 116.927 305.507 134.582 305.956 152.489C306.011 154.697 304.208 156.482 301.999 156.475L273.599 156.376C271.39 156.368 269.614 154.57 269.536 152.362C269.095 139.814 266.377 127.45 261.514 115.874C260.658 113.837 261.517 111.46 263.519 110.526L289.258 98.5239Z" fill="#EAB308"/>
<path d="M196.593 23.4857C197.09 21.3332 199.24 19.9853 201.377 20.5436C219.998 25.4067 237.431 34.061 252.577 45.9801C267.724 57.8992 280.234 72.8082 289.34 89.7632C290.385 91.7094 289.58 94.1157 287.605 95.1048L262.211 107.821C260.236 108.81 257.839 108.007 256.775 106.071C250.081 93.9021 241.003 83.1906 230.067 74.5852C219.132 65.9799 206.586 59.6743 193.184 56.0301C191.052 55.4504 189.708 53.3103 190.205 51.1578L196.593 23.4857Z" fill="#22C55E"/>
<path d="M30 156C27.7909 156 25.994 154.209 26.0571 152C26.6069 132.763 31.1178 113.83 39.3242 96.3909C48.0988 77.744 60.8818 61.2643 76.7607 48.1281C92.6395 34.992 111.223 25.5234 131.183 20.3984C149.852 15.6052 169.294 14.7218 188.294 17.7865C190.475 18.1383 191.898 20.2389 191.484 22.4089L186.162 50.3059C185.748 52.4759 183.654 53.8914 181.47 53.5615C167.738 51.4877 153.714 52.1942 140.236 55.6548C125.465 59.4473 111.713 66.4541 99.9629 76.1748C88.2125 85.8956 78.7531 98.0906 72.2599 111.889C66.3351 124.48 63.0133 138.123 62.4772 152.001C62.3919 154.208 60.6091 156 58.4 156H30Z" fill="url(#paint0_linear_1133_8559)"/>
<defs>
<linearGradient id="paint0_linear_1133_8559" x1="26" y1="156" x2="306" y2="156" gradientUnits="userSpaceOnUse">
<stop stop-color="#7C3AED"/>
<stop offset="1" stop-color="#A78BFA"/>
</linearGradient>
</defs>
</svg>
