<svg width="334" height="144" viewBox="0 0 334 144" fill="none" xmlns="http://www.w3.org/2000/svg">
<path d="M23 44V114" stroke="#E2E8F0" stroke-dasharray="8 8"/>
<path d="M14.1589 138.5V137.18H14.6749C15.0749 137.18 15.3949 137.064 15.6349 136.832C15.8749 136.592 15.9949 136.272 15.9949 135.872V129.56H17.3989V135.824C17.3989 136.368 17.2869 136.84 17.0629 137.24C16.8469 137.64 16.5309 137.952 16.1149 138.176C15.7069 138.392 15.2269 138.5 14.6749 138.5H14.1589ZM21.4146 138.644C20.9266 138.644 20.4986 138.536 20.1306 138.32C19.7626 138.096 19.4746 137.788 19.2666 137.396C19.0666 136.996 18.9666 136.536 18.9666 136.016V132.008H20.3226V135.896C20.3226 136.192 20.3826 136.452 20.5026 136.676C20.6226 136.9 20.7906 137.076 21.0066 137.204C21.2226 137.324 21.4706 137.384 21.7506 137.384C22.0386 137.384 22.2906 137.32 22.5066 137.192C22.7226 137.064 22.8906 136.884 23.0106 136.652C23.1386 136.42 23.2026 136.148 23.2026 135.836V132.008H24.5466V138.5H23.2626V137.228L23.4066 137.396C23.2546 137.796 23.0026 138.104 22.6506 138.32C22.2986 138.536 21.8866 138.644 21.4146 138.644ZM26.1299 138.5V132.008H27.4259V133.28L27.2699 133.112C27.4299 132.704 27.6859 132.396 28.0379 132.188C28.3899 131.972 28.7979 131.864 29.2619 131.864C29.7419 131.864 30.1659 131.968 30.5339 132.176C30.9019 132.384 31.1899 132.672 31.3979 133.04C31.6059 133.408 31.7099 133.832 31.7099 134.312V138.5H30.3659V134.672C30.3659 134.344 30.3059 134.068 30.1859 133.844C30.0659 133.612 29.8939 133.436 29.6699 133.316C29.4539 133.188 29.2059 133.124 28.9259 133.124C28.6459 133.124 28.3939 133.188 28.1699 133.316C27.9539 133.436 27.7859 133.612 27.6659 133.844C27.5459 134.076 27.4859 134.352 27.4859 134.672V138.5H26.1299Z" fill="#6B7280"/>
<path d="M71 44V114" stroke="#E2E8F0" stroke-dasharray="8 8"/>
<path d="M64.2038 138.5V137.18H64.7198C65.1198 137.18 65.4398 137.064 65.6798 136.832C65.9198 136.592 66.0398 136.272 66.0398 135.872V129.56H67.4438V135.824C67.4438 136.368 67.3318 136.84 67.1078 137.24C66.8918 137.64 66.5758 137.952 66.1598 138.176C65.7518 138.392 65.2718 138.5 64.7198 138.5H64.2038ZM71.4596 138.644C70.9716 138.644 70.5436 138.536 70.1756 138.32C69.8076 138.096 69.5196 137.788 69.3116 137.396C69.1116 136.996 69.0116 136.536 69.0116 136.016V132.008H70.3676V135.896C70.3676 136.192 70.4276 136.452 70.5476 136.676C70.6676 136.9 70.8356 137.076 71.0516 137.204C71.2676 137.324 71.5156 137.384 71.7956 137.384C72.0836 137.384 72.3356 137.32 72.5516 137.192C72.7676 137.064 72.9356 136.884 73.0556 136.652C73.1836 136.42 73.2476 136.148 73.2476 135.836V132.008H74.5916V138.5H73.3076V137.228L73.4516 137.396C73.2996 137.796 73.0476 138.104 72.6956 138.32C72.3436 138.536 71.9316 138.644 71.4596 138.644ZM76.1748 138.5V129.416H77.5308V138.5H76.1748Z" fill="#6B7280"/>
<path d="M119 44V114" stroke="#E2E8F0" stroke-dasharray="8 8"/>
<path d="M107.589 138.5L110.733 129.56H112.485L115.629 138.5H114.117L113.433 136.496H109.797L109.101 138.5H107.589ZM110.205 135.236H113.001L111.417 130.556H111.813L110.205 135.236ZM118.756 138.644C118.268 138.644 117.84 138.536 117.472 138.32C117.104 138.096 116.816 137.788 116.608 137.396C116.408 136.996 116.308 136.536 116.308 136.016V132.008H117.664V135.896C117.664 136.192 117.724 136.452 117.844 136.676C117.964 136.9 118.132 137.076 118.348 137.204C118.564 137.324 118.812 137.384 119.092 137.384C119.38 137.384 119.632 137.32 119.848 137.192C120.064 137.064 120.232 136.884 120.352 136.652C120.48 136.42 120.544 136.148 120.544 135.836V132.008H121.888V138.5H120.604V137.228L120.748 137.396C120.596 137.796 120.344 138.104 119.992 138.32C119.64 138.536 119.228 138.644 118.756 138.644ZM126.604 141.14C126.132 141.14 125.696 141.064 125.296 140.912C124.896 140.76 124.552 140.548 124.264 140.276C123.976 140.012 123.76 139.7 123.616 139.34L124.864 138.824C124.976 139.128 125.18 139.38 125.476 139.58C125.78 139.78 126.152 139.88 126.592 139.88C126.936 139.88 127.244 139.812 127.516 139.676C127.788 139.548 128.004 139.356 128.164 139.1C128.324 138.852 128.404 138.552 128.404 138.2V136.736L128.644 137.012C128.42 137.428 128.108 137.744 127.708 137.96C127.316 138.176 126.872 138.284 126.376 138.284C125.776 138.284 125.236 138.144 124.756 137.864C124.276 137.584 123.896 137.2 123.616 136.712C123.344 136.224 123.208 135.676 123.208 135.068C123.208 134.452 123.344 133.904 123.616 133.424C123.896 132.944 124.272 132.564 124.744 132.284C125.216 132.004 125.756 131.864 126.364 131.864C126.86 131.864 127.3 131.972 127.684 132.188C128.076 132.396 128.396 132.7 128.644 133.1L128.464 133.436V132.008H129.748V138.2C129.748 138.76 129.612 139.26 129.34 139.7C129.076 140.148 128.708 140.5 128.236 140.756C127.764 141.012 127.22 141.14 126.604 141.14ZM126.532 137.024C126.892 137.024 127.212 136.94 127.492 136.772C127.772 136.596 127.992 136.364 128.152 136.076C128.32 135.78 128.404 135.448 128.404 135.08C128.404 134.712 128.32 134.38 128.152 134.084C127.984 133.788 127.76 133.556 127.48 133.388C127.2 133.212 126.884 133.124 126.532 133.124C126.164 133.124 125.836 133.212 125.548 133.388C125.26 133.556 125.032 133.788 124.864 134.084C124.704 134.372 124.624 134.704 124.624 135.08C124.624 135.44 124.704 135.768 124.864 136.064C125.032 136.36 125.26 136.596 125.548 136.772C125.836 136.94 126.164 137.024 126.532 137.024Z" fill="#6B7280"/>
<path d="M167 44V114" stroke="#E2E8F0" stroke-dasharray="8 8"/>
<path d="M159.472 138.644C158.912 138.644 158.392 138.54 157.912 138.332C157.432 138.116 157.024 137.824 156.688 137.456C156.352 137.088 156.104 136.664 155.944 136.184L157.144 135.68C157.36 136.232 157.676 136.656 158.092 136.952C158.508 137.248 158.988 137.396 159.532 137.396C159.852 137.396 160.132 137.348 160.372 137.252C160.612 137.148 160.796 137.004 160.924 136.82C161.06 136.636 161.128 136.424 161.128 136.184C161.128 135.856 161.036 135.596 160.852 135.404C160.668 135.212 160.396 135.06 160.036 134.948L158.356 134.42C157.684 134.212 157.172 133.896 156.82 133.472C156.468 133.04 156.292 132.536 156.292 131.96C156.292 131.456 156.416 131.016 156.664 130.64C156.912 130.256 157.252 129.956 157.684 129.74C158.124 129.524 158.624 129.416 159.184 129.416C159.72 129.416 160.208 129.512 160.648 129.704C161.088 129.888 161.464 130.144 161.776 130.472C162.096 130.8 162.328 131.18 162.472 131.612L161.296 132.128C161.12 131.656 160.844 131.292 160.468 131.036C160.1 130.78 159.672 130.652 159.184 130.652C158.888 130.652 158.628 130.704 158.404 130.808C158.18 130.904 158.004 131.048 157.876 131.24C157.756 131.424 157.696 131.64 157.696 131.888C157.696 132.176 157.788 132.432 157.972 132.656C158.156 132.88 158.436 133.048 158.812 133.16L160.372 133.652C161.084 133.868 161.62 134.18 161.98 134.588C162.34 134.988 162.52 135.488 162.52 136.088C162.52 136.584 162.388 137.024 162.124 137.408C161.868 137.792 161.512 138.096 161.056 138.32C160.6 138.536 160.072 138.644 159.472 138.644ZM167.026 138.644C166.378 138.644 165.802 138.496 165.298 138.2C164.802 137.896 164.414 137.488 164.134 136.976C163.854 136.456 163.714 135.876 163.714 135.236C163.714 134.58 163.854 134 164.134 133.496C164.422 132.992 164.806 132.596 165.286 132.308C165.766 132.012 166.31 131.864 166.918 131.864C167.406 131.864 167.842 131.948 168.226 132.116C168.61 132.284 168.934 132.516 169.198 132.812C169.462 133.1 169.662 133.432 169.798 133.808C169.942 134.184 170.014 134.584 170.014 135.008C170.014 135.112 170.01 135.22 170.002 135.332C169.994 135.444 169.978 135.548 169.954 135.644H164.782V134.564H169.186L168.538 135.056C168.618 134.664 168.59 134.316 168.454 134.012C168.326 133.7 168.126 133.456 167.854 133.28C167.59 133.096 167.278 133.004 166.918 133.004C166.558 133.004 166.238 133.096 165.958 133.28C165.678 133.456 165.462 133.712 165.31 134.048C165.158 134.376 165.098 134.776 165.13 135.248C165.09 135.688 165.15 136.072 165.31 136.4C165.478 136.728 165.71 136.984 166.006 137.168C166.31 137.352 166.654 137.444 167.038 137.444C167.43 137.444 167.762 137.356 168.034 137.18C168.314 137.004 168.534 136.776 168.694 136.496L169.798 137.036C169.67 137.34 169.47 137.616 169.198 137.864C168.934 138.104 168.614 138.296 168.238 138.44C167.87 138.576 167.466 138.644 167.026 138.644ZM171.337 140.9V132.008H172.633V133.352L172.477 133.04C172.717 132.672 173.037 132.384 173.437 132.176C173.837 131.968 174.293 131.864 174.805 131.864C175.421 131.864 175.973 132.012 176.461 132.308C176.957 132.604 177.345 133.008 177.625 133.52C177.913 134.032 178.057 134.608 178.057 135.248C178.057 135.888 177.913 136.464 177.625 136.976C177.345 137.488 176.961 137.896 176.473 138.2C175.985 138.496 175.429 138.644 174.805 138.644C174.301 138.644 173.841 138.54 173.425 138.332C173.017 138.124 172.701 137.824 172.477 137.432L172.693 137.18V140.9H171.337ZM174.673 137.384C175.057 137.384 175.397 137.292 175.693 137.108C175.989 136.924 176.221 136.672 176.389 136.352C176.565 136.024 176.653 135.656 176.653 135.248C176.653 134.84 176.565 134.476 176.389 134.156C176.221 133.836 175.989 133.584 175.693 133.4C175.397 133.216 175.057 133.124 174.673 133.124C174.297 133.124 173.957 133.216 173.653 133.4C173.357 133.584 173.121 133.836 172.945 134.156C172.777 134.476 172.693 134.84 172.693 135.248C172.693 135.656 172.777 136.024 172.945 136.352C173.121 136.672 173.357 136.924 173.653 137.108C173.957 137.292 174.297 137.384 174.673 137.384Z" fill="#6B7280"/>
<path d="M215 44V114" stroke="#E2E8F0" stroke-dasharray="8 8"/>
<path d="M208.93 138.644C208.282 138.644 207.678 138.528 207.118 138.296C206.566 138.064 206.078 137.74 205.654 137.324C205.238 136.908 204.91 136.42 204.67 135.86C204.438 135.3 204.322 134.688 204.322 134.024C204.322 133.36 204.438 132.748 204.67 132.188C204.91 131.62 205.238 131.132 205.654 130.724C206.07 130.308 206.558 129.988 207.118 129.764C207.678 129.532 208.282 129.416 208.93 129.416C209.586 129.416 210.19 129.532 210.742 129.764C211.302 129.988 211.79 130.308 212.206 130.724C212.63 131.14 212.958 131.628 213.19 132.188C213.422 132.748 213.538 133.36 213.538 134.024C213.538 134.688 213.418 135.3 213.178 135.86C212.946 136.42 212.622 136.908 212.206 137.324C211.79 137.74 211.302 138.064 210.742 138.296C210.182 138.528 209.578 138.644 208.93 138.644ZM208.93 137.348C209.394 137.348 209.818 137.264 210.202 137.096C210.594 136.928 210.934 136.696 211.222 136.4C211.51 136.096 211.734 135.744 211.894 135.344C212.054 134.936 212.134 134.496 212.134 134.024C212.134 133.552 212.054 133.116 211.894 132.716C211.734 132.316 211.51 131.964 211.222 131.66C210.934 131.356 210.594 131.12 210.202 130.952C209.818 130.784 209.394 130.7 208.93 130.7C208.466 130.7 208.038 130.784 207.646 130.952C207.262 131.12 206.926 131.356 206.638 131.66C206.35 131.964 206.126 132.316 205.966 132.716C205.814 133.116 205.738 133.552 205.738 134.024C205.738 134.496 205.814 134.936 205.966 135.344C206.126 135.744 206.35 136.096 206.638 136.4C206.926 136.696 207.266 136.928 207.658 137.096C208.05 137.264 208.474 137.348 208.93 137.348ZM218.073 138.644C217.425 138.644 216.849 138.496 216.345 138.2C215.849 137.896 215.453 137.488 215.157 136.976C214.869 136.464 214.725 135.884 214.725 135.236C214.725 134.596 214.869 134.02 215.157 133.508C215.445 132.996 215.841 132.596 216.345 132.308C216.849 132.012 217.425 131.864 218.073 131.864C218.513 131.864 218.925 131.944 219.309 132.104C219.693 132.256 220.025 132.468 220.305 132.74C220.593 133.012 220.805 133.328 220.941 133.688L219.753 134.24C219.617 133.904 219.397 133.636 219.093 133.436C218.797 133.228 218.457 133.124 218.073 133.124C217.705 133.124 217.373 133.216 217.077 133.4C216.789 133.576 216.561 133.828 216.393 134.156C216.225 134.476 216.141 134.84 216.141 135.248C216.141 135.656 216.225 136.024 216.393 136.352C216.561 136.672 216.789 136.924 217.077 137.108C217.373 137.292 217.705 137.384 218.073 137.384C218.465 137.384 218.805 137.284 219.093 137.084C219.389 136.876 219.609 136.6 219.753 136.256L220.941 136.82C220.813 137.164 220.605 137.476 220.317 137.756C220.037 138.028 219.705 138.244 219.321 138.404C218.937 138.564 218.521 138.644 218.073 138.644ZM225.075 138.572C224.395 138.572 223.867 138.38 223.491 137.996C223.115 137.612 222.927 137.072 222.927 136.376V133.232H221.787V132.008H221.967C222.271 132.008 222.507 131.92 222.675 131.744C222.843 131.568 222.927 131.328 222.927 131.024V130.52H224.283V132.008H225.759V133.232H224.283V136.316C224.283 136.54 224.319 136.732 224.391 136.892C224.463 137.044 224.579 137.164 224.739 137.252C224.899 137.332 225.107 137.372 225.363 137.372C225.427 137.372 225.499 137.368 225.579 137.36C225.659 137.352 225.735 137.344 225.807 137.336V138.5C225.695 138.516 225.571 138.532 225.435 138.548C225.299 138.564 225.179 138.572 225.075 138.572Z" fill="#6B7280"/>
<path d="M263 44V114" stroke="#E2E8F0" stroke-dasharray="8 8"/>
<path d="M252.328 138.5V129.56H253.468L258.484 136.484L257.944 136.568V129.56H259.348V138.5H258.208L253.228 131.528L253.744 131.432V138.5H252.328ZM264.199 138.644C263.575 138.644 263.003 138.496 262.483 138.2C261.971 137.904 261.563 137.5 261.259 136.988C260.955 136.476 260.803 135.896 260.803 135.248C260.803 134.592 260.955 134.012 261.259 133.508C261.563 132.996 261.971 132.596 262.483 132.308C262.995 132.012 263.567 131.864 264.199 131.864C264.839 131.864 265.411 132.012 265.915 132.308C266.427 132.596 266.831 132.996 267.127 133.508C267.431 134.012 267.583 134.592 267.583 135.248C267.583 135.904 267.431 136.488 267.127 137C266.823 137.512 266.415 137.916 265.903 138.212C265.391 138.5 264.823 138.644 264.199 138.644ZM264.199 137.384C264.583 137.384 264.923 137.292 265.219 137.108C265.515 136.924 265.747 136.672 265.915 136.352C266.091 136.024 266.179 135.656 266.179 135.248C266.179 134.84 266.091 134.476 265.915 134.156C265.747 133.836 265.515 133.584 265.219 133.4C264.923 133.216 264.583 133.124 264.199 133.124C263.823 133.124 263.483 133.216 263.179 133.4C262.883 133.584 262.647 133.836 262.471 134.156C262.303 134.476 262.219 134.84 262.219 135.248C262.219 135.656 262.303 136.024 262.471 136.352C262.647 136.672 262.883 136.924 263.179 137.108C263.483 137.292 263.823 137.384 264.199 137.384ZM270.674 138.5L268.13 132.008H269.606L271.562 137.3H271.022L272.978 132.008H274.466L271.91 138.5H270.674Z" fill="#6B7280"/>
<path d="M311 44V114" stroke="#E2E8F0" stroke-dasharray="8 8"/>
<path d="M300.158 138.5V129.56H303.086C304.014 129.56 304.818 129.748 305.498 130.124C306.186 130.492 306.718 131.012 307.094 131.684C307.47 132.356 307.658 133.136 307.658 134.024C307.658 134.904 307.47 135.684 307.094 136.364C306.718 137.036 306.186 137.56 305.498 137.936C304.818 138.312 304.014 138.5 303.086 138.5H300.158ZM301.574 137.24H303.11C303.742 137.24 304.29 137.108 304.754 136.844C305.226 136.58 305.59 136.208 305.846 135.728C306.102 135.248 306.23 134.68 306.23 134.024C306.23 133.368 306.098 132.804 305.834 132.332C305.578 131.852 305.218 131.48 304.754 131.216C304.29 130.952 303.742 130.82 303.11 130.82H301.574V137.24ZM311.969 138.644C311.321 138.644 310.745 138.496 310.241 138.2C309.745 137.896 309.357 137.488 309.077 136.976C308.797 136.456 308.657 135.876 308.657 135.236C308.657 134.58 308.797 134 309.077 133.496C309.365 132.992 309.749 132.596 310.229 132.308C310.709 132.012 311.253 131.864 311.861 131.864C312.349 131.864 312.785 131.948 313.169 132.116C313.553 132.284 313.877 132.516 314.141 132.812C314.405 133.1 314.605 133.432 314.741 133.808C314.885 134.184 314.957 134.584 314.957 135.008C314.957 135.112 314.953 135.22 314.945 135.332C314.937 135.444 314.921 135.548 314.897 135.644H309.725V134.564H314.129L313.481 135.056C313.561 134.664 313.533 134.316 313.397 134.012C313.269 133.7 313.069 133.456 312.797 133.28C312.533 133.096 312.221 133.004 311.861 133.004C311.501 133.004 311.181 133.096 310.901 133.28C310.621 133.456 310.405 133.712 310.253 134.048C310.101 134.376 310.041 134.776 310.073 135.248C310.033 135.688 310.093 136.072 310.253 136.4C310.421 136.728 310.653 136.984 310.949 137.168C311.253 137.352 311.597 137.444 311.981 137.444C312.373 137.444 312.705 137.356 312.977 137.18C313.257 137.004 313.477 136.776 313.637 136.496L314.741 137.036C314.613 137.34 314.413 137.616 314.141 137.864C313.877 138.104 313.557 138.296 313.181 138.44C312.813 138.576 312.409 138.644 311.969 138.644ZM319.364 138.644C318.716 138.644 318.14 138.496 317.636 138.2C317.14 137.896 316.744 137.488 316.448 136.976C316.16 136.464 316.016 135.884 316.016 135.236C316.016 134.596 316.16 134.02 316.448 133.508C316.736 132.996 317.132 132.596 317.636 132.308C318.14 132.012 318.716 131.864 319.364 131.864C319.804 131.864 320.216 131.944 320.6 132.104C320.984 132.256 321.316 132.468 321.596 132.74C321.884 133.012 322.096 133.328 322.232 133.688L321.044 134.24C320.908 133.904 320.688 133.636 320.384 133.436C320.088 133.228 319.748 133.124 319.364 133.124C318.996 133.124 318.664 133.216 318.368 133.4C318.08 133.576 317.852 133.828 317.684 134.156C317.516 134.476 317.432 134.84 317.432 135.248C317.432 135.656 317.516 136.024 317.684 136.352C317.852 136.672 318.08 136.924 318.368 137.108C318.664 137.292 318.996 137.384 319.364 137.384C319.756 137.384 320.096 137.284 320.384 137.084C320.68 136.876 320.9 136.6 321.044 136.256L322.232 136.82C322.104 137.164 321.896 137.476 321.608 137.756C321.328 138.028 320.996 138.244 320.612 138.404C320.228 138.564 319.812 138.644 319.364 138.644Z" fill="#6B7280"/>
<path d="M45.0035 58.3606C21.75 58.3606 1 72.8018 1 72.8018V114H333V39.9954C333 39.9954 322.21 29.8447 305.147 26.5575C274.393 20.6326 270.1 63.8873 243.083 63.8874C223.239 63.8874 221.868 36.8599 195.408 34.3963C168.948 31.9327 157.012 93.9989 114.357 93.2992C82.4028 92.7751 62.9733 58.3606 45.0035 58.3606Z" fill="url(#paint0_linear_1563_12766)"/>
<path d="M1 72.4824C1 72.4824 21.874 53.8605 44.5227 58.2137C63.9082 61.9397 81.9844 92.4719 113.992 92.9937C156.718 93.6902 168.109 37.0925 195.178 34.3582C222.248 31.6239 223.055 63.7154 242.933 63.7154C269.995 63.7153 274.295 20.6569 305.101 26.555C322.192 29.8272 333 39.9319 333 39.9319" stroke="url(#paint1_linear_1563_12766)" stroke-width="2" stroke-linecap="round"/>
<g filter="url(#filter0_d_1563_12766)">
<circle cx="299" cy="26" r="8" fill="#EAB308"/>
<circle cx="299" cy="26" r="7" stroke="white" stroke-width="2"/>
</g>
<path d="M220 8C220 3.58172 223.582 0 228 0H283C287.418 0 291 3.58172 291 8V18H228C223.582 18 220 14.4183 220 10V8Z" fill="#171718"/>
<path d="M230.068 13.644C229.5 13.644 228.98 13.54 228.508 13.332C228.036 13.116 227.636 12.824 227.308 12.456C226.98 12.088 226.744 11.676 226.6 11.22L227.62 10.8C227.836 11.376 228.156 11.82 228.58 12.132C229.012 12.436 229.516 12.588 230.092 12.588C230.444 12.588 230.752 12.532 231.016 12.42C231.28 12.308 231.484 12.152 231.628 11.952C231.78 11.744 231.856 11.504 231.856 11.232C231.856 10.856 231.748 10.56 231.532 10.344C231.324 10.12 231.016 9.952 230.608 9.84L228.964 9.336C228.316 9.136 227.82 8.82 227.476 8.388C227.132 7.956 226.96 7.46 226.96 6.9C226.96 6.412 227.076 5.984 227.308 5.616C227.548 5.24 227.876 4.948 228.292 4.74C228.716 4.524 229.196 4.416 229.732 4.416C230.268 4.416 230.752 4.512 231.184 4.704C231.624 4.896 231.996 5.156 232.3 5.484C232.604 5.804 232.828 6.172 232.972 6.588L231.964 7.008C231.772 6.504 231.484 6.124 231.1 5.868C230.716 5.604 230.264 5.472 229.744 5.472C229.424 5.472 229.14 5.528 228.892 5.64C228.652 5.744 228.464 5.9 228.328 6.108C228.2 6.308 228.136 6.548 228.136 6.828C228.136 7.156 228.24 7.448 228.448 7.704C228.656 7.96 228.972 8.156 229.396 8.292L230.896 8.736C231.6 8.952 232.132 9.26 232.492 9.66C232.852 10.06 233.032 10.556 233.032 11.148C233.032 11.636 232.904 12.068 232.648 12.444C232.4 12.82 232.052 13.116 231.604 13.332C231.164 13.54 230.652 13.644 230.068 13.644ZM229.528 14.7V3.36H230.428V14.7H229.528ZM235.894 13.5V5.58H234.202V4.56H237.082V13.5H235.894ZM240.476 13.5V5.58H238.784V4.56H241.664V13.5H240.476ZM243.978 15.168V14.628C244.226 14.564 244.414 14.44 244.542 14.256C244.67 14.072 244.742 13.82 244.758 13.5H244.218V12.06H245.382V13.08C245.382 13.656 245.262 14.12 245.022 14.472C244.79 14.824 244.442 15.056 243.978 15.168ZM251.416 13.5V11.436H247.024V10.464L251.392 4.56H252.52V10.464H253.684V11.436H252.52V13.5H251.416ZM247.912 10.884L247.744 10.464H251.416V5.544L251.764 5.64L247.912 10.884ZM258.516 13.644C257.804 13.644 257.18 13.452 256.644 13.068C256.116 12.676 255.704 12.136 255.408 11.448C255.112 10.752 254.964 9.944 254.964 9.024C254.964 8.104 255.112 7.3 255.408 6.612C255.704 5.916 256.116 5.376 256.644 4.992C257.172 4.608 257.792 4.416 258.504 4.416C259.216 4.416 259.836 4.608 260.364 4.992C260.892 5.376 261.304 5.916 261.6 6.612C261.904 7.3 262.056 8.104 262.056 9.024C262.056 9.944 261.908 10.752 261.612 11.448C261.316 12.144 260.9 12.684 260.364 13.068C259.836 13.452 259.22 13.644 258.516 13.644ZM258.516 12.552C258.996 12.552 259.412 12.408 259.764 12.12C260.116 11.824 260.388 11.412 260.58 10.884C260.78 10.356 260.88 9.736 260.88 9.024C260.88 8.312 260.78 7.692 260.58 7.164C260.388 6.636 260.112 6.228 259.752 5.94C259.4 5.652 258.984 5.508 258.504 5.508C258.024 5.508 257.608 5.652 257.256 5.94C256.904 6.228 256.628 6.636 256.428 7.164C256.236 7.692 256.14 8.312 256.14 9.024C256.14 9.728 256.236 10.344 256.428 10.872C256.628 11.4 256.904 11.812 257.256 12.108C257.616 12.404 258.036 12.552 258.516 12.552ZM264.164 13.5V12.06H265.328V13.5H264.164ZM271.008 13.644C270.296 13.644 269.672 13.452 269.136 13.068C268.608 12.676 268.196 12.136 267.9 11.448C267.604 10.752 267.456 9.944 267.456 9.024C267.456 8.104 267.604 7.3 267.9 6.612C268.196 5.916 268.608 5.376 269.136 4.992C269.664 4.608 270.284 4.416 270.996 4.416C271.708 4.416 272.328 4.608 272.856 4.992C273.384 5.376 273.796 5.916 274.092 6.612C274.396 7.3 274.548 8.104 274.548 9.024C274.548 9.944 274.4 10.752 274.104 11.448C273.808 12.144 273.392 12.684 272.856 13.068C272.328 13.452 271.712 13.644 271.008 13.644ZM271.008 12.552C271.488 12.552 271.904 12.408 272.256 12.12C272.608 11.824 272.88 11.412 273.072 10.884C273.272 10.356 273.372 9.736 273.372 9.024C273.372 8.312 273.272 7.692 273.072 7.164C272.88 6.636 272.604 6.228 272.244 5.94C271.892 5.652 271.476 5.508 270.996 5.508C270.516 5.508 270.1 5.652 269.748 5.94C269.396 6.228 269.12 6.636 268.92 7.164C268.728 7.692 268.632 8.312 268.632 9.024C268.632 9.728 268.728 10.344 268.92 10.872C269.12 11.4 269.396 11.812 269.748 12.108C270.108 12.404 270.528 12.552 271.008 12.552ZM279.692 13.644C278.98 13.644 278.356 13.452 277.82 13.068C277.292 12.676 276.88 12.136 276.584 11.448C276.288 10.752 276.14 9.944 276.14 9.024C276.14 8.104 276.288 7.3 276.584 6.612C276.88 5.916 277.292 5.376 277.82 4.992C278.348 4.608 278.968 4.416 279.68 4.416C280.392 4.416 281.012 4.608 281.54 4.992C282.068 5.376 282.48 5.916 282.776 6.612C283.08 7.3 283.232 8.104 283.232 9.024C283.232 9.944 283.084 10.752 282.788 11.448C282.492 12.144 282.076 12.684 281.54 13.068C281.012 13.452 280.396 13.644 279.692 13.644ZM279.692 12.552C280.172 12.552 280.588 12.408 280.94 12.12C281.292 11.824 281.564 11.412 281.756 10.884C281.956 10.356 282.056 9.736 282.056 9.024C282.056 8.312 281.956 7.692 281.756 7.164C281.564 6.636 281.288 6.228 280.928 5.94C280.576 5.652 280.16 5.508 279.68 5.508C279.2 5.508 278.784 5.652 278.432 5.94C278.08 6.228 277.804 6.636 277.604 7.164C277.412 7.692 277.316 8.312 277.316 9.024C277.316 9.728 277.412 10.344 277.604 10.872C277.804 11.4 278.08 11.812 278.432 12.108C278.792 12.404 279.212 12.552 279.692 12.552Z" fill="white"/>
<defs>
<filter id="filter0_d_1563_12766" x="289" y="17" width="20" height="20" filterUnits="userSpaceOnUse" color-interpolation-filters="sRGB">
<feFlood flood-opacity="0" result="BackgroundImageFix"/>
<feColorMatrix in="SourceAlpha" type="matrix" values="0 0 0 0 0 0 0 0 0 0 0 0 0 0 0 0 0 0 127 0" result="hardAlpha"/>
<feOffset dy="1"/>
<feGaussianBlur stdDeviation="1"/>
<feComposite in2="hardAlpha" operator="out"/>
<feColorMatrix type="matrix" values="0 0 0 0 0.443137 0 0 0 0 0.454902 0 0 0 0 0.596078 0 0 0 0.1 0"/>
<feBlend mode="normal" in2="BackgroundImageFix" result="effect1_dropShadow_1563_12766"/>
<feBlend mode="normal" in="SourceGraphic" in2="effect1_dropShadow_1563_12766" result="shape"/>
</filter>
<linearGradient id="paint0_linear_1563_12766" x1="167" y1="26" x2="167" y2="114" gradientUnits="userSpaceOnUse">
<stop stop-color="#7C3AED" stop-opacity="0.2"/>
<stop offset="1" stop-color="#A78BFA" stop-opacity="0"/>
</linearGradient>
<linearGradient id="paint1_linear_1563_12766" x1="1" y1="59.5" x2="333" y2="59.5" gradientUnits="userSpaceOnUse">
<stop stop-color="#7C3AED"/>
<stop offset="1" stop-color="#A78BFA"/>
</linearGradient>
</defs>
</svg>
