<svg width="92" height="30" viewBox="0 0 92 30" fill="none" xmlns="http://www.w3.org/2000/svg">
<path opacity="0.2" d="M13.7519 5.41393C9.95142 11.1656 3.6671 12.3174 1 12.1743V30H91V20.5683C88.0268 20.7397 81.3615 20.5797 78.486 18.5686C75.6104 16.5575 70.6315 16.5499 68.5014 16.7975C62.5373 18.0316 58.7831 15.2167 57.6515 13.6551C55.0555 9.8842 49.6638 8.97005 47.0013 10.9697C46.3095 11.5483 45.5886 12.05 44.9012 12.473C42.8623 13.7277 40.4693 14.2307 38.0817 14.055C34.5754 13.9874 27.6226 8.87038 22.2474 4.33063C19.6416 2.12983 15.6508 2.58058 13.7519 5.41393Z" fill="url(#paint0_linear_3_18)"/>
<path d="M1 12.409C3.65558 12.5548 9.91275 11.3809 13.6968 5.51829V5.51829C15.5722 2.65385 19.5938 2.20051 22.1844 4.43897C27.5323 9.06003 34.4366 14.2571 37.9215 14.3259V14.3259C40.2984 14.5049 42.6797 13.9911 44.6976 12.7223C45.3862 12.2892 46.109 11.7749 46.8026 11.1812C49.4536 9.14295 54.822 10.0747 57.4068 13.9183C58.5335 15.51 62.2715 18.3791 68.2098 17.1212C70.3307 16.8689 75.2881 16.8766 78.1513 18.9265C81.0144 20.9764 88.0397 21.1205 91 20.9458" stroke="#335CFF" stroke-linecap="round"/>
<defs>
<linearGradient id="paint0_linear_3_18" x1="46" y1="0" x2="46" y2="39" gradientUnits="userSpaceOnUse">
<stop stop-color="#335CFF"/>
<stop offset="1" stop-color="#335CFF" stop-opacity="0"/>
</linearGradient>
</defs>
</svg>
