<svg width="20" height="13" viewBox="0 0 20 13" fill="none" xmlns="http://www.w3.org/2000/svg">
<g clipPath="url(#clip0_616_4484)">
<path d="M24 0.184082H0V12.8157H24V0.184082Z" fill="#B22234"/>
<path d="M0 1.6416H24H0ZM24 3.58492H0H24ZM0 5.52824H24H0ZM24 7.47156H0H24ZM0 9.41488H24H0ZM24 11.3582H0H24Z" fill="black"/>
<path d="M0 1.6416H24M24 3.58492H0M0 5.52824H24M24 7.47156H0M0 9.41488H24M24 11.3582H0" stroke="white" strokeWidth="0.97166"/>
<path d="M9.6 0.184082H0V6.9857H9.6V0.184082Z" fill="#3C3B6E"/>
<path d="M0.807141 0.475647L1.03559 1.17875L0.4375 0.744207H1.17678L0.57869 1.17875L0.807141 0.475647Z" fill="white"/>
<path d="M0.807141 1.83594L1.03559 2.53904L0.4375 2.1045H1.17678L0.57869 2.53904L0.807141 1.83594Z" fill="white"/>
<path d="M0.807141 3.19635L1.03559 3.89945L0.4375 3.46491H1.17678L0.57869 3.89945L0.807141 3.19635Z" fill="white"/>
<path d="M0.807141 4.55664L1.03559 5.25974L0.4375 4.8252H1.17678L0.57869 5.25974L0.807141 4.55664Z" fill="white"/>
<path d="M0.807141 5.91693L1.03559 6.62003L0.4375 6.18549H1.17678L0.57869 6.62003L0.807141 5.91693Z" fill="white"/>
<path d="M1.60597 1.1557L1.83442 1.8588L1.23633 1.42426H1.97561L1.37752 1.8588L1.60597 1.1557Z" fill="white"/>
<path d="M1.60597 2.51599L1.83442 3.21909L1.23633 2.78455H1.97561L1.37752 3.21909L1.60597 2.51599Z" fill="white"/>
<path d="M1.60597 3.8764L1.83442 4.5795L1.23633 4.14496H1.97561L1.37752 4.5795L1.60597 3.8764Z" fill="white"/>
<path d="M1.60597 5.23669L1.83442 5.93979L1.23633 5.50525H1.97561L1.37752 5.93979L1.60597 5.23669Z" fill="white"/>
<path d="M2.40284 0.475647L2.6313 1.17875L2.0332 0.744207H2.77249L2.17439 1.17875L2.40284 0.475647Z" fill="white"/>
<path d="M2.40284 1.83594L2.6313 2.53904L2.0332 2.1045H2.77249L2.17439 2.53904L2.40284 1.83594Z" fill="white"/>
<path d="M2.40284 3.19635L2.6313 3.89945L2.0332 3.46491H2.77249L2.17439 3.89945L2.40284 3.19635Z" fill="white"/>
<path d="M2.40284 4.55664L2.6313 5.25974L2.0332 4.8252H2.77249L2.17439 5.25974L2.40284 4.55664Z" fill="white"/>
<path d="M2.40284 5.91693L2.6313 6.62003L2.0332 6.18549H2.77249L2.17439 6.62003L2.40284 5.91693Z" fill="white"/>
<path d="M3.20167 1.1557L3.43012 1.8588L2.83203 1.42426H3.57131L2.97322 1.8588L3.20167 1.1557Z" fill="white"/>
<path d="M3.20167 2.51599L3.43012 3.21909L2.83203 2.78455H3.57131L2.97322 3.21909L3.20167 2.51599Z" fill="white"/>
<path d="M3.20167 3.8764L3.43012 4.5795L2.83203 4.14496H3.57131L2.97322 4.5795L3.20167 3.8764Z" fill="white"/>
<path d="M3.20167 5.23669L3.43012 5.93979L2.83203 5.50525H3.57131L2.97322 5.93979L3.20167 5.23669Z" fill="white"/>
<path d="M3.99855 0.475647L4.227 1.17875L3.62891 0.744207H4.36819L3.7701 1.17875L3.99855 0.475647Z" fill="white"/>
<path d="M3.99855 1.83594L4.227 2.53904L3.62891 2.1045H4.36819L3.7701 2.53904L3.99855 1.83594Z" fill="white"/>
<path d="M3.99855 3.19635L4.227 3.89945L3.62891 3.46491H4.36819L3.7701 3.89945L3.99855 3.19635Z" fill="white"/>
<path d="M3.99855 4.55664L4.227 5.25974L3.62891 4.8252H4.36819L3.7701 5.25974L3.99855 4.55664Z" fill="white"/>
<path d="M3.99855 5.91693L4.227 6.62003L3.62891 6.18549H4.36819L3.7701 6.62003L3.99855 5.91693Z" fill="white"/>
<path d="M4.80128 1.15576L5.02973 1.85886L4.43164 1.42432H5.17092L4.57283 1.85886L4.80128 1.15576Z" fill="white"/>
<path d="M4.80128 2.51605L5.02973 3.21915L4.43164 2.78461H5.17092L4.57283 3.21915L4.80128 2.51605Z" fill="white"/>
<path d="M4.80128 3.8764L5.02973 4.5795L4.43164 4.14496H5.17092L4.57283 4.5795L4.80128 3.8764Z" fill="white"/>
<path d="M4.80128 5.23669L5.02973 5.93979L4.43164 5.50525H5.17092L4.57283 5.93979L4.80128 5.23669Z" fill="white"/>
<path d="M5.60206 0.475586L5.83051 1.17869L5.23242 0.744146H5.9717L5.37361 1.17869L5.60206 0.475586Z" fill="white"/>
<path d="M5.60206 1.83594L5.83051 2.53904L5.23242 2.1045H5.9717L5.37361 2.53904L5.60206 1.83594Z" fill="white"/>
<path d="M5.60206 3.19629L5.83051 3.89939L5.23242 3.46485H5.9717L5.37361 3.89939L5.60206 3.19629Z" fill="white"/>
<path d="M5.60206 4.55658L5.83051 5.25968L5.23242 4.82514H5.9717L5.37361 5.25968L5.60206 4.55658Z" fill="white"/>
<path d="M5.60206 5.91687L5.83051 6.61997L5.23242 6.18543H5.9717L5.37361 6.61997L5.60206 5.91687Z" fill="white"/>
<path d="M6.40089 1.1557L6.62934 1.8588L6.03125 1.42426H6.77053L6.17244 1.8588L6.40089 1.1557Z" fill="white"/>
<path d="M6.40089 2.51599L6.62934 3.21909L6.03125 2.78455H6.77053L6.17244 3.21909L6.40089 2.51599Z" fill="white"/>
<path d="M6.40089 3.87634L6.62934 4.57944L6.03125 4.1449H6.77053L6.17244 4.57944L6.40089 3.87634Z" fill="white"/>
<path d="M6.40089 5.23669L6.62934 5.93979L6.03125 5.50525H6.77053L6.17244 5.93979L6.40089 5.23669Z" fill="white"/>
<path d="M7.20753 0.475647L7.43598 1.17875L6.83789 0.744207H7.57717L6.97908 1.17875L7.20753 0.475647Z" fill="white"/>
<path d="M7.20753 1.83594L7.43598 2.53904L6.83789 2.1045H7.57717L6.97908 2.53904L7.20753 1.83594Z" fill="white"/>
<path d="M7.20753 3.19635L7.43598 3.89945L6.83789 3.46491H7.57717L6.97908 3.89945L7.20753 3.19635Z" fill="white"/>
<path d="M7.20753 4.55664L7.43598 5.25974L6.83789 4.8252H7.57717L6.97908 5.25974L7.20753 4.55664Z" fill="white"/>
<path d="M7.20753 5.91693L7.43598 6.62003L6.83789 6.18549H7.57717L6.97908 6.62003L7.20753 5.91693Z" fill="white"/>
<path d="M8.00636 1.1557L8.23481 1.8588L7.63672 1.42426H8.376L7.77791 1.8588L8.00636 1.1557Z" fill="white"/>
<path d="M8.00636 2.51599L8.23481 3.21909L7.63672 2.78455H8.376L7.77791 3.21909L8.00636 2.51599Z" fill="white"/>
<path d="M8.00636 3.8764L8.23481 4.5795L7.63672 4.14496H8.376L7.77791 4.5795L8.00636 3.8764Z" fill="white"/>
<path d="M8.00636 5.23669L8.23481 5.93979L7.63672 5.50525H8.376L7.77791 5.93979L8.00636 5.23669Z" fill="white"/>
<path d="M8.80128 0.475586L9.02973 1.17869L8.43164 0.744146H9.17092L8.57283 1.17869L8.80128 0.475586Z" fill="white"/>
<path d="M8.80128 1.83588L9.02973 2.53898L8.43164 2.10444H9.17092L8.57283 2.53898L8.80128 1.83588Z" fill="white"/>
<path d="M8.80128 3.19629L9.02973 3.89939L8.43164 3.46485H9.17092L8.57283 3.89939L8.80128 3.19629Z" fill="white"/>
<path d="M8.80128 4.55658L9.02973 5.25968L8.43164 4.82514H9.17092L8.57283 5.25968L8.80128 4.55658Z" fill="white"/>
<path d="M8.80128 5.91687L9.02973 6.61997L8.43164 6.18543H9.17092L8.57283 6.61997L8.80128 5.91687Z" fill="white"/>
</g>
<defs>
<clipPath id="clip0_616_4484">
<rect width="20" height="12" fill="white" transform="translate(0 0.5)"/>
</clipPath>
</defs>
</svg>
